[
    {
        "track": 0,
        "notes": [
            {
                "type": "note_on",
                "note": 50,
                "velocity": 39,
                "time": 0
            },
            {
                "type": "note_on",
                "note": 38,
                "velocity": 40,
                "time": 3
            },
            {
                "type": "note_off",
                "note": 50,
                "velocity": 64,
                "time": 393
            },
            {
                "type": "note_on",
                "note": 57,
                "velocity": 47,
                "time": 102
            },
            {
                "type": "note_off",
                "note": 38,
                "velocity": 64,
                "time": 89
            },
            {
                "type": "note_off",
                "note": 57,
                "velocity": 64,
                "time": 39
            },
            {
                "type": "note_on",
                "note": 69,
                "velocity": 46,
                "time": 23
            },
            {
                "type": "note_on",
                "note": 66,
                "velocity": 31,
                "time": 6
            },
            {
                "type": "note_on",
                "note": 62,
                "velocity": 22,
                "time": 16
            },
            {
                "type": "note_on",
                "note": 33,
                "velocity": 55,
                "time": 65
            },
            {
                "type": "note_on",
                "note": 45,
                "velocity": 49,
                "time": 0
            },
            {
                "type": "note_off",
                "note": 33,
                "velocity": 64,
                "time": 103
            },
            {
                "type": "note_off",
                "note": 45,
                "velocity": 64,
                "time": 8
            },
            {
                "type": "note_on",
                "note": 50,
                "velocity": 51,
                "time": 156
            },
            {
                "type": "note_on",
                "note": 38,
                "velocity": 49,
                "time": 8
            },
            {
                "type": "note_off",
                "note": 69,
                "velocity": 64,
                "time": 51
            },
            {
                "type": "note_off",
                "note": 62,
                "velocity": 64,
                "time": 31
            },
            {
                "type": "note_off",
                "note": 66,
                "velocity": 64,
                "time": 14
            },
            {
                "type": "note_off",
                "note": 38,
                "velocity": 64,
                "time": 100
            },
            {
                "type": "note_off",
                "note": 50,
                "velocity": 64,
                "time": 25
            },
            {
                "type": "note_on",
                "note": 57,
                "velocity": 50,
                "time": 297
            },
            {
                "type": "note_off",
                "note": 57,
                "velocity": 64,
                "time": 90
            },
            {
                "type": "note_on",
                "note": 66,
                "velocity": 23,
                "time": 61
            },
            {
                "type": "note_on",
                "note": 69,
                "velocity": 36,
                "time": 5
            },
            {
                "type": "note_on",
                "note": 62,
                "velocity": 28,
                "time": 17
            },
            {
                "type": "note_on",
                "note": 45,
                "velocity": 48,
                "time": 278
            },
            {
                "type": "note_on",
                "note": 33,
                "velocity": 52,
                "time": 6
            },
            {
                "type": "note_off",
                "note": 45,
                "velocity": 64,
                "time": 42
            },
            {
                "type": "note_off",
                "note": 33,
                "velocity": 64,
                "time": 0
            },
            {
                "type": "note_off",
                "note": 62,
                "velocity": 64,
                "time": 73
            },
            {
                "type": "note_off",
                "note": 66,
                "velocity": 64,
                "time": 39
            },
            {
                "type": "note_off",
                "note": 69,
                "velocity": 64,
                "time": 63
            },
            {
                "type": "note_on",
                "note": 66,
                "velocity": 73,
                "time": 53
            },
            {
                "type": "note_on",
                "note": 50,
                "velocity": 41,
                "time": 24
            },
            {
                "type": "note_on",
                "note": 57,
                "velocity": 24,
                "time": 0
            },
            {
                "type": "note_on",
                "note": 62,
                "velocity": 21,
                "time": 26
            },
            {
                "type": "note_off",
                "note": 57,
                "velocity": 64,
                "time": 75
            },
            {
                "type": "note_off",
                "note": 62,
                "velocity": 64,
                "time": 10
            },
            {
                "type": "note_off",
                "note": 66,
                "velocity": 64,
                "time": 62
            },
            {
                "type": "note_on",
                "note": 66,
                "velocity": 84,
                "time": 41
            },
            {
                "type": "note_off",
                "note": 66,
                "velocity": 64,
                "time": 106
            },
            {
                "type": "note_on",
                "note": 66,
                "velocity": 52,
                "time": 76
            },
            {
                "type": "note_off",
                "note": 66,
                "velocity": 64,
                "time": 44
            },
            {
                "type": "note_on",
                "note": 66,
                "velocity": 42,
                "time": 53
            },
            {
                "type": "note_on",
                "note": 56,
                "velocity": 49,
                "time": 6
            },
            {
                "type": "note_on",
                "note": 69,
                "velocity": 65,
                "time": 28
            },
            {
                "type": "note_off",
                "note": 50,
                "velocity": 64,
                "time": 7
            },
            {
                "type": "note_off",
                "note": 66,
                "velocity": 64,
                "time": 0
            },
            {
                "type": "note_off",
                "note": 56,
                "velocity": 64,
                "time": 22
            },
            {
                "type": "note_on",
                "note": 57,
                "velocity": 34,
                "time": 14
            },
            {
                "type": "note_on",
                "note": 67,
                "velocity": 74,
                "time": 13
            },
            {
                "type": "note_off",
                "note": 69,
                "velocity": 64,
                "time": 28
            },
            {
                "type": "note_off",
                "note": 57,
                "velocity": 64,
                "time": 36
            },
            {
                "type": "note_on",
                "note": 66,
                "velocity": 64,
                "time": 44
            },
            {
                "type": "note_on",
                "note": 45,
                "velocity": 35,
                "time": 14
            },
            {
                "type": "note_off",
                "note": 67,
                "velocity": 64,
                "time": 41
            },
            {
                "type": "note_off",
                "note": 45,
                "velocity": 64,
                "time": 15
            },
            {
                "type": "note_off",
                "note": 66,
                "velocity": 64,
                "time": 63
            },
            {
                "type": "note_on",
                "note": 69,
                "velocity": 43,
                "time": 93
            },
            {
                "type": "note_on",
                "note": 66,
                "velocity": 6,
                "time": 10
            },
            {
                "type": "note_on",
                "note": 57,
                "velocity": 16,
                "time": 12
            },
            {
                "type": "note_on",
                "note": 50,
                "velocity": 22,
                "time": 10
            },
            {
                "type": "note_on",
                "note": 62,
                "velocity": 15,
                "time": 11
            },
            {
                "type": "note_off",
                "note": 57,
                "velocity": 64,
                "time": 88
            },
            {
                "type": "note_off",
                "note": 50,
                "velocity": 64,
                "time": 113
            },
            {
                "type": "note_on",
                "note": 56,
                "velocity": 29,
                "time": 0
            },
            {
                "type": "note_off",
                "note": 56,
                "velocity": 64,
                "time": 56
            },
            {
                "type": "note_on",
                "note": 57,
                "velocity": 50,
                "time": 0
            },
            {
                "type": "note_off",
                "note": 57,
                "velocity": 64,
                "time": 26
            },
            {
                "type": "note_off",
                "note": 62,
                "velocity": 64,
                "time": 47
            },
            {
                "type": "note_off",
                "note": 66,
                "velocity": 64,
                "time": 18
            },
            {
                "type": "note_off",
                "note": 69,
                "velocity": 64,
                "time": 22
            },
            {
                "type": "note_on",
                "note": 74,
                "velocity": 85,
                "time": 202
            },
            {
                "type": "note_on",
                "note": 45,
                "velocity": 38,
                "time": 15
            },
            {
                "type": "note_on",
                "note": 66,
                "velocity": 31,
                "time": 0
            },
            {
                "type": "note_off",
                "note": 45,
                "velocity": 64,
                "time": 47
            },
            {
                "type": "note_off",
                "note": 66,
                "velocity": 64,
                "time": 45
            },
            {
                "type": "note_on",
                "note": 76,
                "velocity": 85,
                "time": 78
            },
            {
                "type": "note_off",
                "note": 74,
                "velocity": 64,
                "time": 74
            },
            {
                "type": "note_on",
                "note": 78,
                "velocity": 81,
                "time": 95
            },
            {
                "type": "note_on",
                "note": 66,
                "velocity": 21,
                "time": 28
            },
            {
                "type": "note_on",
                "note": 50,
                "velocity": 33,
                "time": 0
            },
            {
                "type": "note_off",
                "note": 76,
                "velocity": 64,
                "time": 29
            },
            {
                "type": "note_off",
                "note": 50,
                "velocity": 64,
                "time": 139
            },
            {
                "type": "note_on",
                "note": 73,
                "velocity": 50,
                "time": 286
            },
            {
                "type": "note_off",
                "note": 78,
                "velocity": 64,
                "time": 12
            },
            {
                "type": "note_on",
                "note": 56,
                "velocity": 26,
                "time": 70
            },
            {
                "type": "note_off",
                "note": 66,
                "velocity": 64,
                "time": 19
            },
            {
                "type": "note_off",
                "note": 56,
                "velocity": 64,
                "time": 44
            },
            {
                "type": "note_on",
                "note": 76,
                "velocity": 38,
                "time": 9
            },
            {
                "type": "note_on",
                "note": 66,
                "velocity": 5,
                "time": 8
            },
            {
                "type": "note_on",
                "note": 57,
                "velocity": 14,
                "time": 20
            },
            {
                "type": "note_off",
                "note": 73,
                "velocity": 64,
                "time": 9
            },
            {
                "type": "note_on",
                "note": 74,
                "velocity": 61,
                "time": 8
            },
            {
                "type": "note_off",
                "note": 76,
                "velocity": 64,
                "time": 10
            },
            {
                "type": "note_off",
                "note": 57,
                "velocity": 64,
                "time": 55
            },
            {
                "type": "note_off",
                "note": 66,
                "velocity": 64,
                "time": 111
            },
            {
                "type": "note_on",
                "note": 51,
                "velocity": 23,
                "time": 145
            },
            {
                "type": "note_on",
                "note": 65,
                "velocity": 29,
                "time": 14
            },
            {
                "type": "note_on",
                "note": 71,
                "velocity": 49,
                "time": 3
            },
            {
                "type": "note_off",
                "note": 74,
                "velocity": 64,
                "time": 50
            },
            {
                "type": "note_off",
                "note": 51,
                "velocity": 64,
                "time": 91
            },
            {
                "type": "note_off",
                "note": 65,
                "velocity": 64,
                "time": 0
            },
            {
                "type": "note_off",
                "note": 71,
                "velocity": 64,
                "time": 40
            },
            {
                "type": "note_on",
                "note": 66,
                "velocity": 27,
                "time": 14
            },
            {
                "type": "note_off",
                "note": 66,
                "velocity": 64,
                "time": 82
            },
            {
                "type": "note_on",
                "note": 67,
                "velocity": 37,
                "time": 124
            },
            {
                "type": "note_on",
                "note": 61,
                "velocity": 26,
                "time": 0
            },
            {
                "type": "note_on",
                "note": 52,
                "velocity": 29,
                "time": 30
            },
            {
                "type": "note_off",
                "note": 52,
                "velocity": 64,
                "time": 103
            },
            {
                "type": "note_on",
                "note": 56,
                "velocity": 34,
                "time": 133
            },
            {
                "type": "note_off",
                "note": 56,
                "velocity": 64,
                "time": 62
            },
            {
                "type": "note_on",
                "note": 57,
                "velocity": 30,
                "time": 4
            },
            {
                "type": "note_off",
                "note": 57,
                "velocity": 64,
                "time": 128
            },
            {
                "type": "note_off",
                "note": 61,
                "velocity": 64,
                "time": 30
            },
            {
                "type": "note_off",
                "note": 67,
                "velocity": 64,
                "time": 16
            },
            {
                "type": "note_on",
                "note": 67,
                "velocity": 65,
                "time": 145
            },
            {
                "type": "note_on",
                "note": 64,
                "velocity": 46,
                "time": 11
            },
            {
                "type": "note_on",
                "note": 45,
                "velocity": 22,
                "time": 11
            },
            {
                "type": "note_off",
                "note": 45,
                "velocity": 64,
                "time": 62
            },
            {
                "type": "note_off",
                "note": 64,
                "velocity": 64,
                "time": 45
            },
            {
                "type": "note_on",
                "note": 69,
                "velocity": 71,
                "time": 49
            },
            {
                "type": "note_on",
                "note": 66,
                "velocity": 57,
                "time": 0
            },
            {
                "type": "note_off",
                "note": 67,
                "velocity": 64,
                "time": 31
            },
            {
                "type": "note_off",
                "note": 66,
                "velocity": 64,
                "time": 109
            },
            {
                "type": "note_on",
                "note": 71,
                "velocity": 87,
                "time": 11
            },
            {
                "type": "note_on",
                "note": 67,
                "velocity": 71,
                "time": 11
            },
            {
                "type": "note_on",
                "note": 49,
                "velocity": 28,
                "time": 23
            },
            {
                "type": "note_off",
                "note": 69,
                "velocity": 64,
                "time": 11
            },
            {
                "type": "note_off",
                "note": 49,
                "velocity": 64,
                "time": 30
            },
            {
                "type": "note_off",
                "note": 71,
                "velocity": 64,
                "time": 48
            },
            {
                "type": "note_on",
                "note": 73,
                "velocity": 69,
                "time": 150
            },
            {
                "type": "note_on",
                "note": 69,
                "velocity": 50,
                "time": 6
            },
            {
                "type": "note_on",
                "note": 56,
                "velocity": 43,
                "time": 61
            },
            {
                "type": "note_off",
                "note": 73,
                "velocity": 64,
                "time": 21
            },
            {
                "type": "note_off",
                "note": 56,
                "velocity": 64,
                "time": 23
            },
            {
                "type": "note_off",
                "note": 67,
                "velocity": 64,
                "time": 11
            },
            {
                "type": "note_off",
                "note": 69,
                "velocity": 64,
                "time": 0
            },
            {
                "type": "note_on",
                "note": 73,
                "velocity": 64,
                "time": 9
            },
            {
                "type": "note_on",
                "note": 57,
                "velocity": 37,
                "time": 8
            },
            {
                "type": "note_on",
                "note": 76,
                "velocity": 72,
                "time": 0
            },
            {
                "type": "note_off",
                "note": 57,
                "velocity": 64,
                "time": 12
            },
            {
                "type": "note_off",
                "note": 73,
                "velocity": 64,
                "time": 141
            },
            {
                "type": "note_on",
                "note": 71,
                "velocity": 55,
                "time": 22
            },
            {
                "type": "note_on",
                "note": 74,
                "velocity": 75,
                "time": 4
            },
            {
                "type": "note_on",
                "note": 45,
                "velocity": 25,
                "time": 35
            },
            {
                "type": "note_off",
                "note": 76,
                "velocity": 64,
                "time": 19
            },
            {
                "type": "note_off",
                "note": 45,
                "velocity": 64,
                "time": 18
            },
            {
                "type": "note_off",
                "note": 71,
                "velocity": 64,
                "time": 88
            },
            {
                "type": "note_off",
                "note": 74,
                "velocity": 64,
                "time": 4
            },
            {
                "type": "note_on",
                "note": 71,
                "velocity": 24,
                "time": 138
            },
            {
                "type": "note_on",
                "note": 52,
                "velocity": 30,
                "time": 4
            },
            {
                "type": "note_on",
                "note": 76,
                "velocity": 59,
                "time": 19
            },
            {
                "type": "note_on",
                "note": 74,
                "velocity": 30,
                "time": 39
            },
            {
                "type": "note_off",
                "note": 76,
                "velocity": 64,
                "time": 34
            },
            {
                "type": "note_off",
                "note": 52,
                "velocity": 64,
                "time": 177
            },
            {
                "type": "note_on",
                "note": 73,
                "velocity": 43,
                "time": 78
            },
            {
                "type": "note_on",
                "note": 69,
                "velocity": 22,
                "time": 0
            },
            {
                "type": "note_off",
                "note": 74,
                "velocity": 64,
                "time": 14
            },
            {
                "type": "note_off",
                "note": 71,
                "velocity": 64,
                "time": 8
            },
            {
                "type": "note_on",
                "note": 56,
                "velocity": 42,
                "time": 197
            },
            {
                "type": "note_off",
                "note": 56,
                "velocity": 64,
                "time": 51
            },
            {
                "type": "note_on",
                "note": 57,
                "velocity": 36,
                "time": 10
            },
            {
                "type": "note_off",
                "note": 57,
                "velocity": 64,
                "time": 81
            },
            {
                "type": "note_off",
                "note": 73,
                "velocity": 64,
                "time": 112
            },
            {
                "type": "note_on",
                "note": 73,
                "velocity": 42,
                "time": 58
            },
            {
                "type": "note_on",
                "note": 76,
                "velocity": 59,
                "time": 10
            },
            {
                "type": "note_on",
                "note": 45,
                "velocity": 28,
                "time": 24
            },
            {
                "type": "note_off",
                "note": 69,
                "velocity": 64,
                "time": 3
            },
            {
                "type": "note_off",
                "note": 45,
                "velocity": 64,
                "time": 61
            },
            {
                "type": "note_off",
                "note": 76,
                "velocity": 64,
                "time": 86
            },
            {
                "type": "note_on",
                "note": 67,
                "velocity": 49,
                "time": 35
            },
            {
                "type": "note_on",
                "note": 71,
                "velocity": 71,
                "time": 0
            },
            {
                "type": "note_off",
                "note": 73,
                "velocity": 64,
                "time": 31
            },
            {
                "type": "note_off",
                "note": 71,
                "velocity": 64,
                "time": 75
            },
            {
                "type": "note_on",
                "note": 74,
                "velocity": 73,
                "time": 73
            },
            {
                "type": "note_on",
                "note": 71,
                "velocity": 56,
                "time": 0
            },
            {
                "type": "note_on",
                "note": 49,
                "velocity": 27,
                "time": 16
            },
            {
                "type": "note_off",
                "note": 67,
                "velocity": 64,
                "time": 0
            },
            {
                "type": "note_off",
                "note": 49,
                "velocity": 64,
                "time": 23
            },
            {
                "type": "note_off",
                "note": 74,
                "velocity": 64,
                "time": 78
            },
            {
                "type": "note_off",
                "note": 71,
                "velocity": 64,
                "time": 103
            },
            {
                "type": "note_on",
                "note": 69,
                "velocity": 54,
                "time": 13
            },
            {
                "type": "note_on",
                "note": 66,
                "velocity": 46,
                "time": 0
            },
            {
                "type": "note_off",
                "note": 69,
                "velocity": 64,
                "time": 53
            },
            {
                "type": "note_on",
                "note": 56,
                "velocity": 34,
                "time": 48
            },
            {
                "type": "note_off",
                "note": 66,
                "velocity": 64,
                "time": 24
            },
            {
                "type": "note_on",
                "note": 69,
                "velocity": 39,
                "time": 6
            },
            {
                "type": "note_on",
                "note": 73,
                "velocity": 53,
                "time": 0
            },
            {
                "type": "note_off",
                "note": 56,
                "velocity": 64,
                "time": 25
            },
            {
                "type": "note_on",
                "note": 57,
                "velocity": 29,
                "time": 0
            },
            {
                "type": "note_off",
                "note": 57,
                "velocity": 64,
                "time": 80
            },
            {
                "type": "note_off",
                "note": 69,
                "velocity": 64,
                "time": 111
            },
            {
                "type": "note_off",
                "note": 73,
                "velocity": 64,
                "time": 45
            },
            {
                "type": "note_on",
                "note": 67,
                "velocity": 58,
                "time": 23
            },
            {
                "type": "note_on",
                "note": 64,
                "velocity": 43,
                "time": 5
            },
            {
                "type": "note_on",
                "note": 45,
                "velocity": 18,
                "time": 15
            },
            {
                "type": "note_off",
                "note": 45,
                "velocity": 64,
                "time": 74
            },
            {
                "type": "note_off",
                "note": 64,
                "velocity": 64,
                "time": 59
            },
            {
                "type": "note_off",
                "note": 67,
                "velocity": 64,
                "time": 70
            },
            {
                "type": "note_on",
                "note": 71,
                "velocity": 58,
                "time": 133
            },
            {
                "type": "note_on",
                "note": 65,
                "velocity": 44,
                "time": 0
            },
            {
                "type": "note_on",
                "note": 50,
                "velocity": 20,
                "time": 33
            },
            {
                "type": "note_off",
                "note": 65,
                "velocity": 64,
                "time": 103
            },
            {
                "type": "note_on",
                "note": 69,
                "velocity": 29,
                "time": 12
            },
            {
                "type": "note_on",
                "note": 66,
                "velocity": 17,
                "time": 7
            },
            {
                "type": "note_off",
                "note": 71,
                "velocity": 64,
                "time": 20
            },
            {
                "type": "note_on",
                "note": 56,
                "velocity": 28,
                "time": 16
            },
            {
                "type": "note_off",
                "note": 56,
                "velocity": 64,
                "time": 8
            },
            {
                "type": "note_on",
                "note": 57,
                "velocity": 32,
                "time": 14
            },
            {
                "type": "note_off",
                "note": 57,
                "velocity": 64,
                "time": 121
            },
            {
                "type": "note_on",
                "note": 57,
                "velocity": 2,
                "time": 111
            },
            {
                "type": "note_on",
                "note": 74,
                "velocity": 81,
                "time": 53
            },
            {
                "type": "note_off",
                "note": 66,
                "velocity": 64,
                "time": 3
            },
            {
                "type": "note_on",
                "note": 62,
                "velocity": 46,
                "time": 8
            },
            {
                "type": "note_off",
                "note": 69,
                "velocity": 64,
                "time": 23
            },
            {
                "type": "note_off",
                "note": 50,
                "velocity": 64,
                "time": 0
            },
            {
                "type": "note_off",
                "note": 57,
                "velocity": 64,
                "time": 16
            },
            {
                "type": "note_off",
                "note": 62,
                "velocity": 64,
                "time": 159
            },
            {
                "type": "note_off",
                "note": 74,
                "velocity": 64,
                "time": 19
            },
            {
                "type": "note_on",
                "note": 54,
                "velocity": 67,
                "time": 114
            },
            {
                "type": "note_on",
                "note": 74,
                "velocity": 92,
                "time": 0
            },
            {
                "type": "note_on",
                "note": 62,
                "velocity": 73,
                "time": 6
            },
            {
                "type": "note_on",
                "note": 47,
                "velocity": 43,
                "time": 9
            },
            {
                "type": "note_off",
                "note": 62,
                "velocity": 64,
                "time": 236
            },
            {
                "type": "note_on",
                "note": 73,
                "velocity": 79,
                "time": 34
            },
            {
                "type": "note_off",
                "note": 74,
                "velocity": 64,
                "time": 53
            },
            {
                "type": "note_off",
                "note": 73,
                "velocity": 64,
                "time": 119
            },
            {
                "type": "note_on",
                "note": 71,
                "velocity": 95,
                "time": 11
            },
            {
                "type": "note_off",
                "note": 47,
                "velocity": 64,
                "time": 14
            },
            {
                "type": "note_off",
                "note": 71,
                "velocity": 64,
                "time": 109
            },
            {
                "type": "note_off",
                "note": 54,
                "velocity": 64,
                "time": 55
            },
            {
                "type": "note_on",
                "note": 73,
                "velocity": 85,
                "time": 0
            },
            {
                "type": "note_on",
                "note": 67,
                "velocity": 63,
                "time": 12
            },
            {
                "type": "note_on",
                "note": 62,
                "velocity": 62,
                "time": 0
            },
            {
                "type": "note_on",
                "note": 53,
                "velocity": 83,
                "time": 0
            },
            {
                "type": "note_on",
                "note": 47,
                "velocity": 47,
                "time": 6
            },
            {
                "type": "note_on",
                "note": 71,
                "velocity": 90,
                "time": 270
            },
            {
                "type": "note_off",
                "note": 73,
                "velocity": 64,
                "time": 59
            },
            {
                "type": "note_off",
                "note": 62,
                "velocity": 64,
                "time": 18
            },
            {
                "type": "note_off",
                "note": 47,
                "velocity": 64,
                "time": 21
            },
            {
                "type": "note_off",
                "note": 67,
                "velocity": 64,
                "time": 56
            },
            {
                "type": "note_on",
                "note": 74,
                "velocity": 71,
                "time": 47
            },
            {
                "type": "note_on",
                "note": 47,
                "velocity": 51,
                "time": 9
            },
            {
                "type": "note_off",
                "note": 53,
                "velocity": 64,
                "time": 6
            },
            {
                "type": "note_on",
                "note": 62,
                "velocity": 24,
                "time": 0
            },
            {
                "type": "note_off",
                "note": 71,
                "velocity": 64,
                "time": 36
            },
            {
                "type": "note_on",
                "note": 66,
                "velocity": 55,
                "time": 81
            },
            {
                "type": "note_off",
                "note": 74,
                "velocity": 64,
                "time": 5
            },
            {
                "type": "note_off",
                "note": 62,
                "velocity": 64,
                "time": 104
            },
            {
                "type": "note_off",
                "note": 47,
                "velocity": 64,
                "time": 66
            },
            {
                "type": "note_on",
                "note": 54,
                "velocity": 47,
                "time": 0
            },
            {
                "type": "note_off",
                "note": 66,
                "velocity": 64,
                "time": 37
            },
            {
                "type": "note_off",
                "note": 54,
                "velocity": 64,
                "time": 13
            },
            {
                "type": "note_on",
                "note": 67,
                "velocity": 65,
                "time": 29
            },
            {
                "type": "note_on",
                "note": 62,
                "velocity": 53,
                "time": 20
            },
            {
                "type": "note_on",
                "note": 66,
                "velocity": 54,
                "time": 0
            },
            {
                "type": "note_off",
                "note": 67,
                "velocity": 64,
                "time": 47
            },
            {
                "type": "note_on",
                "note": 65,
                "velocity": 78,
                "time": 173
            },
            {
                "type": "note_off",
                "note": 66,
                "velocity": 64,
                "time": 7
            },
            {
                "type": "note_off",
                "note": 62,
                "velocity": 64,
                "time": 40
            },
            {
                "type": "note_on",
                "note": 54,
                "velocity": 60,
                "time": 67
            },
            {
                "type": "note_off",
                "note": 65,
                "velocity": 64,
                "time": 64
            },
            {
                "type": "note_on",
                "note": 66,
                "velocity": 76,
                "time": 5
            },
            {
                "type": "note_off",
                "note": 66,
                "velocity": 64,
                "time": 142
            },
            {
                "type": "note_off",
                "note": 54,
                "velocity": 64,
                "time": 31
            },
            {
                "type": "note_on",
                "note": 67,
                "velocity": 81,
                "time": 4
            },
            {
                "type": "note_on",
                "note": 62,
                "velocity": 59,
                "time": 13
            },
            {
                "type": "note_on",
                "note": 47,
                "velocity": 36,
                "time": 11
            },
            {
                "type": "note_on",
                "note": 71,
                "velocity": 89,
                "time": 142
            },
            {
                "type": "note_off",
                "note": 62,
                "velocity": 64,
                "time": 62
            },
            {
                "type": "note_off",
                "note": 67,
                "velocity": 64,
                "time": 22
            },
            {
                "type": "note_off",
                "note": 47,
                "velocity": 64,
                "time": 59
            },
            {
                "type": "note_on",
                "note": 74,
                "velocity": 86,
                "time": 30
            },
            {
                "type": "note_off",
                "note": 71,
                "velocity": 64,
                "time": 43
            },
            {
                "type": "note_on",
                "note": 55,
                "velocity": 59,
                "time": 52
            },
            {
                "type": "note_off",
                "note": 55,
                "velocity": 64,
                "time": 36
            },
            {
                "type": "note_on",
                "note": 73,
                "velocity": 72,
                "time": 56
            },
            {
                "type": "note_on",
                "note": 62,
                "velocity": 46,
                "time": 11
            },
            {
                "type": "note_off",
                "note": 74,
                "velocity": 64,
                "time": 61
            },
            {
                "type": "note_off",
                "note": 62,
                "velocity": 64,
                "time": 62
            },
            {
                "type": "note_on",
                "note": 71,
                "velocity": 73,
                "time": 181
            },
            {
                "type": "note_on",
                "note": 55,
                "velocity": 27,
                "time": 38
            },
            {
                "type": "note_off",
                "note": 73,
                "velocity": 64,
                "time": 22
            },
            {
                "type": "note_off",
                "note": 55,
                "velocity": 64,
                "time": 109
            },
            {
                "type": "note_on",
                "note": 74,
                "velocity": 71,
                "time": 182
            },
            {
                "type": "note_on",
                "note": 47,
                "velocity": 32,
                "time": 11
            },
            {
                "type": "note_off",
                "note": 71,
                "velocity": 64,
                "time": 5
            },
            {
                "type": "note_on",
                "note": 62,
                "velocity": 33,
                "time": 3
            },
            {
                "type": "note_on",
                "note": 66,
                "velocity": 18,
                "time": 11
            },
            {
                "type": "note_on",
                "note": 53,
                "velocity": 82,
                "time": 142
            },
            {
                "type": "note_on",
                "note": 54,
                "velocity": 79,
                "time": 115
            },
            {
                "type": "note_off",
                "note": 62,
                "velocity": 64,
                "time": 9
            },
            {
                "type": "note_off",
                "note": 53,
                "velocity": 64,
                "time": 0
            },
            {
                "type": "note_off",
                "note": 66,
                "velocity": 64,
                "time": 77
            },
            {
                "type": "note_on",
                "note": 59,
                "velocity": 74,
                "time": 117
            },
            {
                "type": "note_off",
                "note": 54,
                "velocity": 64,
                "time": 68
            },
            {
                "type": "note_off",
                "note": 47,
                "velocity": 64,
                "time": 33
            },
            {
                "type": "note_on",
                "note": 78,
                "velocity": 84,
                "time": 75
            },
            {
                "type": "note_on",
                "note": 68,
                "velocity": 56,
                "time": 11
            },
            {
                "type": "note_off",
                "note": 59,
                "velocity": 64,
                "time": 8
            },
            {
                "type": "note_on",
                "note": 62,
                "velocity": 60,
                "time": 0
            },
            {
                "type": "note_off",
                "note": 74,
                "velocity": 64,
                "time": 29
            },
            {
                "type": "note_off",
                "note": 78,
                "velocity": 64,
                "time": 59
            },
            {
                "type": "note_off",
                "note": 68,
                "velocity": 64,
                "time": 25
            },
            {
                "type": "note_off",
                "note": 62,
                "velocity": 64,
                "time": 126
            },
            {
                "type": "note_on",
                "note": 78,
                "velocity": 75,
                "time": 13
            },
            {
                "type": "note_on",
                "note": 69,
                "velocity": 42,
                "time": 14
            },
            {
                "type": "note_on",
                "note": 61,
                "velocity": 29,
                "time": 6
            },
            {
                "type": "note_on",
                "note": 76,
                "velocity": 76,
                "time": 11
            },
            {
                "type": "note_off",
                "note": 78,
                "velocity": 64,
                "time": 63
            },
            {
                "type": "note_off",
                "note": 69,
                "velocity": 64,
                "time": 26
            },
            {
                "type": "note_off",
                "note": 76,
                "velocity": 64,
                "time": 105
            },
            {
                "type": "note_on",
                "note": 73,
                "velocity": 69,
                "time": 4
            },
            {
                "type": "note_on",
                "note": 67,
                "velocity": 59,
                "time": 0
            },
            {
                "type": "note_on",
                "note": 58,
                "velocity": 26,
                "time": 16
            },
            {
                "type": "note_off",
                "note": 61,
                "velocity": 64,
                "time": 29
            },
            {
                "type": "note_off",
                "note": 73,
                "velocity": 64,
                "time": 58
            },
            {
                "type": "note_on",
                "note": 74,
                "velocity": 79,
                "time": 63
            },
            {
                "type": "note_on",
                "note": 68,
                "velocity": 56,
                "time": 0
            },
            {
                "type": "note_on",
                "note": 59,
                "velocity": 41,
                "time": 26
            },
            {
                "type": "note_off",
                "note": 58,
                "velocity": 64,
                "time": 24
            },
            {
                "type": "note_off",
                "note": 67,
                "velocity": 64,
                "time": 20
            },
            {
                "type": "note_on",
                "note": 71,
                "velocity": 88,
                "time": 32
            },
            {
                "type": "note_on",
                "note": 62,
                "velocity": 58,
                "time": 21
            },
            {
                "type": "note_off",
                "note": 59,
                "velocity": 64,
                "time": 7
            },
            {
                "type": "note_off",
                "note": 74,
                "velocity": 64,
                "time": 17
            },
            {
                "type": "note_off",
                "note": 68,
                "velocity": 64,
                "time": 58
            },
            {
                "type": "note_off",
                "note": 71,
                "velocity": 64,
                "time": 36
            },
            {
                "type": "note_on",
                "note": 76,
                "velocity": 54,
                "time": 15
            },
            {
                "type": "note_off",
                "note": 62,
                "velocity": 64,
                "time": 3
            },
            {
                "type": "note_on",
                "note": 69,
                "velocity": 24,
                "time": 19
            },
            {
                "type": "note_on",
                "note": 64,
                "velocity": 15,
                "time": 8
            },
            {
                "type": "note_on",
                "note": 61,
                "velocity": 27,
                "time": 0
            },
            {
                "type": "note_on",
                "note": 73,
                "velocity": 63,
                "time": 266
            },
            {
                "type": "note_off",
                "note": 76,
                "velocity": 64,
                "time": 21
            },
            {
                "type": "note_off",
                "note": 64,
                "velocity": 64,
                "time": 0
            },
            {
                "type": "note_off",
                "note": 69,
                "velocity": 64,
                "time": 76
            },
            {
                "type": "note_off",
                "note": 61,
                "velocity": 64,
                "time": 44
            },
            {
                "type": "note_off",
                "note": 73,
                "velocity": 64,
                "time": 0
            },
            {
                "type": "note_on",
                "note": 61,
                "velocity": 52,
                "time": 159
            },
            {
                "type": "note_on",
                "note": 69,
                "velocity": 62,
                "time": 0
            },
            {
                "type": "note_on",
                "note": 66,
                "velocity": 28,
                "time": 25
            },
            {
                "type": "note_on",
                "note": 54,
                "velocity": 35,
                "time": 6
            },
            {
                "type": "note_on",
                "note": 71,
                "velocity": 85,
                "time": 211
            },
            {
                "type": "note_off",
                "note": 54,
                "velocity": 64,
                "time": 84
            },
            {
                "type": "note_off",
                "note": 69,
                "velocity": 64,
                "time": 15
            },
            {
                "type": "note_off",
                "note": 66,
                "velocity": 64,
                "time": 7
            },
            {
                "type": "note_off",
                "note": 61,
                "velocity": 64,
                "time": 0
            },
            {
                "type": "note_off",
                "note": 71,
                "velocity": 64,
                "time": 50
            },
            {
                "type": "note_on",
                "note": 73,
                "velocity": 76,
                "time": 23
            },
            {
                "type": "note_on",
                "note": 62,
                "velocity": 43,
                "time": 98
            },
            {
                "type": "note_off",
                "note": 73,
                "velocity": 64,
                "time": 13
            },
            {
                "type": "note_on",
                "note": 69,
                "velocity": 30,
                "time": 47
            },
            {
                "type": "note_on",
                "note": 53,
                "velocity": 42,
                "time": 28
            },
            {
                "type": "note_on",
                "note": 47,
                "velocity": 21,
                "time": 4
            },
            {
                "type": "note_on",
                "note": 76,
                "velocity": 50,
                "time": 58
            },
            {
                "type": "note_off",
                "note": 76,
                "velocity": 64,
                "time": 132
            },
            {
                "type": "note_off",
                "note": 62,
                "velocity": 64,
                "time": 27
            },
            {
                "type": "note_on",
                "note": 74,
                "velocity": 47,
                "time": 34
            },
            {
                "type": "note_off",
                "note": 47,
                "velocity": 64,
                "time": 91
            },
            {
                "type": "note_off",
                "note": 74,
                "velocity": 64,
                "time": 23
            },
            {
                "type": "note_off",
                "note": 53,
                "velocity": 64,
                "time": 33
            },
            {
                "type": "note_on",
                "note": 73,
                "velocity": 53,
                "time": 73
            },
            {
                "type": "note_off",
                "note": 69,
                "velocity": 64,
                "time": 53
            },
            {
                "type": "note_off",
                "note": 73,
                "velocity": 64,
                "time": 41
            },
            {
                "type": "note_on",
                "note": 73,
                "velocity": 41,
                "time": 124
            },
            {
                "type": "note_on",
                "note": 62,
                "velocity": 27,
                "time": 18
            },
            {
                "type": "note_on",
                "note": 68,
                "velocity": 28,
                "time": 7
            },
            {
                "type": "note_on",
                "note": 40,
                "velocity": 25,
                "time": 24
            },
            {
                "type": "note_on",
                "note": 71,
                "velocity": 45,
                "time": 117
            },
            {
                "type": "note_off",
                "note": 73,
                "velocity": 64,
                "time": 19
            },
            {
                "type": "note_on",
                "note": 52,
                "velocity": 30,
                "time": 5
            },
            {
                "type": "note_off",
                "note": 40,
                "velocity": 64,
                "time": 18
            },
            {
                "type": "note_off",
                "note": 62,
                "velocity": 64,
                "time": 13
            },
            {
                "type": "note_off",
                "note": 52,
                "velocity": 64,
                "time": 85
            },
            {
                "type": "note_off",
                "note": 68,
                "velocity": 64,
                "time": 13
            },
            {
                "type": "note_off",
                "note": 71,
                "velocity": 64,
                "time": 78
            },
            {
                "type": "note_on",
                "note": 61,
                "velocity": 36,
                "time": 14
            },
            {
                "type": "note_on",
                "note": 45,
                "velocity": 29,
                "time": 5
            },
            {
                "type": "note_on",
                "note": 69,
                "velocity": 30,
                "time": 15
            },
            {
                "type": "note_on",
                "note": 56,
                "velocity": 65,
                "time": 100
            },
            {
                "type": "note_off",
                "note": 45,
                "velocity": 64,
                "time": 106
            },
            {
                "type": "note_off",
                "note": 61,
                "velocity": 64,
                "time": 36
            },
            {
                "type": "note_off",
                "note": 56,
                "velocity": 64,
                "time": 12
            },
            {
                "type": "note_on",
                "note": 57,
                "velocity": 61,
                "time": 13
            },
            {
                "type": "note_off",
                "note": 57,
                "velocity": 64,
                "time": 179
            },
            {
                "type": "note_on",
                "note": 61,
                "velocity": 47,
                "time": 22
            },
            {
                "type": "note_on",
                "note": 59,
                "velocity": 37,
                "time": 47
            },
            {
                "type": "note_off",
                "note": 61,
                "velocity": 64,
                "time": 39
            },
            {
                "type": "note_off",
                "note": 59,
                "velocity": 64,
                "time": 213
            },
            {
                "type": "note_on",
                "note": 57,
                "velocity": 18,
                "time": 6
            },
            {
                "type": "note_off",
                "note": 69,
                "velocity": 64,
                "time": 4
            },
            {
                "type": "note_off",
                "note": 57,
                "velocity": 64,
                "time": 147
            },
            {
                "type": "note_on",
                "note": 66,
                "velocity": 43,
                "time": 215
            },
            {
                "type": "note_on",
                "note": 57,
                "velocity": 21,
                "time": 25
            },
            {
                "type": "note_on",
                "note": 50,
                "velocity": 20,
                "time": 6
            },
            {
                "type": "note_on",
                "note": 62,
                "velocity": 20,
                "time": 0
            },
            {
                "type": "note_off",
                "note": 66,
                "velocity": 64,
                "time": 25
            },
            {
                "type": "note_off",
                "note": 57,
                "velocity": 64,
                "time": 22
            },
            {
                "type": "note_on",
                "note": 66,
                "velocity": 48,
                "time": 69
            },
            {
                "type": "note_off",
                "note": 62,
                "velocity": 64,
                "time": 56
            },
            {
                "type": "note_off",
                "note": 66,
                "velocity": 64,
                "time": 79
            },
            {
                "type": "note_on",
                "note": 66,
                "velocity": 49,
                "time": 69
            },
            {
                "type": "note_off",
                "note": 66,
                "velocity": 64,
                "time": 67
            },
            {
                "type": "note_on",
                "note": 56,
                "velocity": 20,
                "time": 103
            },
            {
                "type": "note_on",
                "note": 66,
                "velocity": 36,
                "time": 9
            },
            {
                "type": "note_off",
                "note": 50,
                "velocity": 64,
                "time": 19
            },
            {
                "type": "note_on",
                "note": 69,
                "velocity": 34,
                "time": 34
            },
            {
                "type": "note_off",
                "note": 66,
                "velocity": 64,
                "time": 10
            },
            {
                "type": "note_off",
                "note": 56,
                "velocity": 64,
                "time": 9
            },
            {
                "type": "note_on",
                "note": 57,
                "velocity": 19,
                "time": 17
            },
            {
                "type": "note_on",
                "note": 67,
                "velocity": 36,
                "time": 17
            },
            {
                "type": "note_off",
                "note": 69,
                "velocity": 64,
                "time": 7
            },
            {
                "type": "note_off",
                "note": 57,
                "velocity": 64,
                "time": 108
            },
            {
                "type": "note_on",
                "note": 66,
                "velocity": 30,
                "time": 211
            },
            {
                "type": "note_on",
                "note": 45,
                "velocity": 24,
                "time": 20
            },
            {
                "type": "note_off",
                "note": 67,
                "velocity": 64,
                "time": 7
            },
            {
                "type": "note_off",
                "note": 45,
                "velocity": 64,
                "time": 68
            },
            {
                "type": "note_off",
                "note": 66,
                "velocity": 64,
                "time": 13
            },
            {
                "type": "note_on",
                "note": 69,
                "velocity": 21,
                "time": 217
            },
            {
                "type": "note_on",
                "note": 57,
                "velocity": 12,
                "time": 18
            },
            {
                "type": "note_on",
                "note": 66,
                "velocity": 15,
                "time": 3
            },
            {
                "type": "note_on",
                "note": 50,
                "velocity": 22,
                "time": 0
            },
            {
                "type": "note_on",
                "note": 62,
                "velocity": 18,
                "time": 13
            },
            {
                "type": "note_off",
                "note": 57,
                "velocity": 64,
                "time": 277
            },
            {
                "type": "note_off",
                "note": 50,
                "velocity": 64,
                "time": 288
            },
            {
                "type": "note_on",
                "note": 56,
                "velocity": 20,
                "time": 12
            },
            {
                "type": "note_off",
                "note": 62,
                "velocity": 64,
                "time": 28
            },
            {
                "type": "note_on",
                "note": 57,
                "velocity": 38,
                "time": 27
            },
            {
                "type": "note_off",
                "note": 56,
                "velocity": 64,
                "time": 6
            },
            {
                "type": "note_off",
                "note": 66,
                "velocity": 64,
                "time": 48
            },
            {
                "type": "note_off",
                "note": 69,
                "velocity": 64,
                "time": 13
            },
            {
                "type": "note_off",
                "note": 57,
                "velocity": 64,
                "time": 146
            },
            {
                "type": "note_on",
                "note": 74,
                "velocity": 78,
                "time": 180
            },
            {
                "type": "note_on",
                "note": 66,
                "velocity": 32,
                "time": 15
            },
            {
                "type": "note_on",
                "note": 45,
                "velocity": 27,
                "time": 13
            },
            {
                "type": "note_off",
                "note": 45,
                "velocity": 64,
                "time": 92
            },
            {
                "type": "note_on",
                "note": 76,
                "velocity": 83,
                "time": 84
            },
            {
                "type": "note_off",
                "note": 66,
                "velocity": 64,
                "time": 5
            },
            {
                "type": "note_off",
                "note": 74,
                "velocity": 64,
                "time": 59
            },
            {
                "type": "note_on",
                "note": 78,
                "velocity": 75,
                "time": 81
            },
            {
                "type": "note_on",
                "note": 66,
                "velocity": 41,
                "time": 13
            },
            {
                "type": "note_on",
                "note": 50,
                "velocity": 33,
                "time": 26
            },
            {
                "type": "note_off",
                "note": 76,
                "velocity": 64,
                "time": 11
            },
            {
                "type": "note_off",
                "note": 50,
                "velocity": 64,
                "time": 60
            },
            {
                "type": "note_on",
                "note": 73,
                "velocity": 51,
                "time": 138
            },
            {
                "type": "note_off",
                "note": 78,
                "velocity": 64,
                "time": 19
            },
            {
                "type": "note_on",
                "note": 56,
                "velocity": 31,
                "time": 67
            },
            {
                "type": "note_off",
                "note": 56,
                "velocity": 64,
                "time": 52
            },
            {
                "type": "note_on",
                "note": 57,
                "velocity": 35,
                "time": 6
            },
            {
                "type": "note_on",
                "note": 76,
                "velocity": 25,
                "time": 10
            },
            {
                "type": "note_off",
                "note": 73,
                "velocity": 64,
                "time": 7
            },
            {
                "type": "note_on",
                "note": 74,
                "velocity": 59,
                "time": 8
            },
            {
                "type": "note_off",
                "note": 76,
                "velocity": 64,
                "time": 45
            },
            {
                "type": "note_off",
                "note": 57,
                "velocity": 64,
                "time": 13
            },
            {
                "type": "note_off",
                "note": 74,
                "velocity": 64,
                "time": 23
            },
            {
                "type": "note_off",
                "note": 66,
                "velocity": 64,
                "time": 136
            },
            {
                "type": "note_on",
                "note": 71,
                "velocity": 56,
                "time": 76
            },
            {
                "type": "note_on",
                "note": 65,
                "velocity": 27,
                "time": 16
            },
            {
                "type": "note_on",
                "note": 51,
                "velocity": 32,
                "time": 4
            },
            {
                "type": "note_off",
                "note": 65,
                "velocity": 64,
                "time": 80
            },
            {
                "type": "note_on",
                "note": 66,
                "velocity": 33,
                "time": 26
            },
            {
                "type": "note_off",
                "note": 51,
                "velocity": 64,
                "time": 3
            },
            {
                "type": "note_off",
                "note": 66,
                "velocity": 64,
                "time": 61
            },
            {
                "type": "note_off",
                "note": 71,
                "velocity": 64,
                "time": 67
            },
            {
                "type": "note_on",
                "note": 61,
                "velocity": 42,
                "time": 33
            },
            {
                "type": "note_on",
                "note": 67,
                "velocity": 48,
                "time": 8
            },
            {
                "type": "note_on",
                "note": 52,
                "velocity": 43,
                "time": 19
            },
            {
                "type": "note_on",
                "note": 58,
                "velocity": 21,
                "time": 160
            },
            {
                "type": "note_on",
                "note": 59,
                "velocity": 54,
                "time": 42
            },
            {
                "type": "note_off",
                "note": 52,
                "velocity": 64,
                "time": 14
            },
            {
                "type": "note_off",
                "note": 58,
                "velocity": 64,
                "time": 0
            },
            {
                "type": "note_off",
                "note": 61,
                "velocity": 64,
                "time": 68
            },
            {
                "type": "note_off",
                "note": 67,
                "velocity": 64,
                "time": 17
            },
            {
                "type": "note_off",
                "note": 59,
                "velocity": 64,
                "time": 93
            },
            {
                "type": "note_on",
                "note": 67,
                "velocity": 72,
                "time": 36
            },
            {
                "type": "note_on",
                "note": 64,
                "velocity": 60,
                "time": 9
            },
            {
                "type": "note_on",
                "note": 55,
                "velocity": 44,
                "time": 13
            },
            {
                "type": "note_off",
                "note": 55,
                "velocity": 64,
                "time": 156
            },
            {
                "type": "note_on",
                "note": 70,
                "velocity": 76,
                "time": 0
            },
            {
                "type": "note_on",
                "note": 66,
                "velocity": 59,
                "time": 11
            },
            {
                "type": "note_on",
                "note": 52,
                "velocity": 49,
                "time": 14
            },
            {
                "type": "note_off",
                "note": 67,
                "velocity": 64,
                "time": 25
            },
            {
                "type": "note_off",
                "note": 64,
                "velocity": 64,
                "time": 22
            },
            {
                "type": "note_off",
                "note": 52,
                "velocity": 64,
                "time": 79
            },
            {
                "type": "note_on",
                "note": 71,
                "velocity": 86,
                "time": 14
            },
            {
                "type": "note_on",
                "note": 49,
                "velocity": 48,
                "time": 11
            },
            {
                "type": "note_on",
                "note": 67,
                "velocity": 71,
                "time": 0
            },
            {
                "type": "note_off",
                "note": 66,
                "velocity": 64,
                "time": 22
            },
            {
                "type": "note_off",
                "note": 70,
                "velocity": 64,
                "time": 6
            },
            {
                "type": "note_off",
                "note": 49,
                "velocity": 64,
                "time": 10
            },
            {
                "type": "note_off",
                "note": 71,
                "velocity": 64,
                "time": 40
            },
            {
                "type": "note_on",
                "note": 70,
                "velocity": 70,
                "time": 220
            },
            {
                "type": "note_on",
                "note": 73,
                "velocity": 80,
                "time": 0
            },
            {
                "type": "note_off",
                "note": 67,
                "velocity": 64,
                "time": 10
            },
            {
                "type": "note_on",
                "note": 59,
                "velocity": 42,
                "time": 12
            },
            {
                "type": "note_off",
                "note": 70,
                "velocity": 64,
                "time": 77
            },
            {
                "type": "note_off",
                "note": 73,
                "velocity": 64,
                "time": 9
            },
            {
                "type": "note_on",
                "note": 76,
                "velocity": 80,
                "time": 41
            },
            {
                "type": "note_on",
                "note": 73,
                "velocity": 70,
                "time": 3
            },
            {
                "type": "note_on",
                "note": 67,
                "velocity": 58,
                "time": 12
            },
            {
                "type": "note_off",
                "note": 59,
                "velocity": 64,
                "time": 6
            },
            {
                "type": "note_off",
                "note": 73,
                "velocity": 64,
                "time": 22
            },
            {
                "type": "note_off",
                "note": 67,
                "velocity": 64,
                "time": 12
            },
            {
                "type": "note_off",
                "note": 76,
                "velocity": 64,
                "time": 41
            },
            {
                "type": "note_on",
                "note": 74,
                "velocity": 85,
                "time": 151
            },
            {
                "type": "note_on",
                "note": 67,
                "velocity": 72,
                "time": 6
            },
            {
                "type": "note_on",
                "note": 64,
                "velocity": 53,
                "time": 7
            },
            {
                "type": "note_on",
                "note": 59,
                "velocity": 55,
                "time": 6
            },
            {
                "type": "note_off",
                "note": 59,
                "velocity": 64,
                "time": 117
            },
            {
                "type": "note_off",
                "note": 67,
                "velocity": 64,
                "time": 37
            },
            {
                "type": "note_off",
                "note": 64,
                "velocity": 64,
                "time": 14
            },
            {
                "type": "note_off",
                "note": 74,
                "velocity": 64,
                "time": 5
            },
            {
                "type": "note_on",
                "note": 74,
                "velocity": 91,
                "time": 172
            },
            {
                "type": "note_on",
                "note": 70,
                "velocity": 61,
                "time": 0
            },
            {
                "type": "note_on",
                "note": 66,
                "velocity": 50,
                "time": 6
            },
            {
                "type": "note_on",
                "note": 64,
                "velocity": 68,
                "time": 0
            },
            {
                "type": "note_on",
                "note": 42,
                "velocity": 53,
                "time": 8
            },
            {
                "type": "note_off",
                "note": 42,
                "velocity": 64,
                "time": 43
            },
            {
                "type": "note_on",
                "note": 73,
                "velocity": 73,
                "time": 74
            },
            {
                "type": "note_off",
                "note": 74,
                "velocity": 64,
                "time": 53
            },
            {
                "type": "note_off",
                "note": 70,
                "velocity": 64,
                "time": 123
            },
            {
                "type": "note_on",
                "note": 53,
                "velocity": 75,
                "time": 45
            },
            {
                "type": "note_on",
                "note": 54,
                "velocity": 82,
                "time": 63
            },
            {
                "type": "note_off",
                "note": 53,
                "velocity": 64,
                "time": 20
            },
            {
                "type": "note_off",
                "note": 64,
                "velocity": 64,
                "time": 11
            },
            {
                "type": "note_off",
                "note": 66,
                "velocity": 64,
                "time": 73
            },
            {
                "type": "note_off",
                "note": 54,
                "velocity": 64,
                "time": 88
            },
            {
                "type": "note_on",
                "note": 70,
                "velocity": 73,
                "time": 54
            },
            {
                "type": "note_off",
                "note": 73,
                "velocity": 64,
                "time": 3
            },
            {
                "type": "note_on",
                "note": 66,
                "velocity": 56,
                "time": 0
            },
            {
                "type": "note_on",
                "note": 64,
                "velocity": 65,
                "time": 16
            },
            {
                "type": "note_off",
                "note": 64,
                "velocity": 64,
                "time": 175
            },
            {
                "type": "note_on",
                "note": 72,
                "velocity": 89,
                "time": 4
            },
            {
                "type": "note_on",
                "note": 57,
                "velocity": 57,
                "time": 0
            },
            {
                "type": "note_off",
                "note": 70,
                "velocity": 64,
                "time": 63
            },
            {
                "type": "note_off",
                "note": 66,
                "velocity": 64,
                "time": 25
            },
            {
                "type": "note_on",
                "note": 66,
                "velocity": 67,
                "time": 87
            },
            {
                "type": "note_on",
                "note": 58,
                "velocity": 55,
                "time": 0
            },
            {
                "type": "note_on",
                "note": 73,
                "velocity": 82,
                "time": 0
            },
            {
                "type": "note_off",
                "note": 57,
                "velocity": 64,
                "time": 16
            },
            {
                "type": "note_off",
                "note": 72,
                "velocity": 64,
                "time": 28
            },
            {
                "type": "note_on",
                "note": 74,
                "velocity": 91,
                "time": 192
            },
            {
                "type": "note_off",
                "note": 73,
                "velocity": 64,
                "time": 110
            },
            {
                "type": "note_on",
                "note": 78,
                "velocity": 83,
                "time": 60
            },
            {
                "type": "note_on",
                "note": 70,
                "velocity": 50,
                "time": 9
            },
            {
                "type": "note_on",
                "note": 54,
                "velocity": 49,
                "time": 9
            },
            {
                "type": "note_off",
                "note": 58,
                "velocity": 64,
                "time": 6
            },
            {
                "type": "note_off",
                "note": 74,
                "velocity": 64,
                "time": 27
            },
            {
                "type": "note_off",
                "note": 66,
                "velocity": 64,
                "time": 112
            },
            {
                "type": "note_on",
                "note": 76,
                "velocity": 81,
                "time": 123
            },
            {
                "type": "note_off",
                "note": 78,
                "velocity": 64,
                "time": 54
            },
            {
                "type": "note_off",
                "note": 54,
                "velocity": 64,
                "time": 35
            },
            {
                "type": "note_off",
                "note": 76,
                "velocity": 64,
                "time": 39
            },
            {
                "type": "note_off",
                "note": 70,
                "velocity": 64,
                "time": 79
            },
            {
                "type": "note_on",
                "note": 73,
                "velocity": 75,
                "time": 89
            },
            {
                "type": "note_on",
                "note": 65,
                "velocity": 57,
                "time": 6
            },
            {
                "type": "note_on",
                "note": 47,
                "velocity": 50,
                "time": 13
            },
            {
                "type": "note_on",
                "note": 71,
                "velocity": 68,
                "time": 0
            },
            {
                "type": "note_on",
                "note": 74,
                "velocity": 69,
                "time": 318
            },
            {
                "type": "note_on",
                "note": 66,
                "velocity": 46,
                "time": 5
            },
            {
                "type": "note_off",
                "note": 65,
                "velocity": 64,
                "time": 17
            },
            {
                "type": "note_off",
                "note": 73,
                "velocity": 64,
                "time": 77
            },
            {
                "type": "note_off",
                "note": 71,
                "velocity": 64,
                "time": 4
            },
            {
                "type": "note_on",
                "note": 54,
                "velocity": 66,
                "time": 28
            },
            {
                "type": "note_off",
                "note": 47,
                "velocity": 64,
                "time": 62
            },
            {
                "type": "note_off",
                "note": 54,
                "velocity": 64,
                "time": 27
            },
            {
                "type": "note_off",
                "note": 74,
                "velocity": 64,
                "time": 9
            },
            {
                "type": "note_on",
                "note": 62,
                "velocity": 80,
                "time": 19
            },
            {
                "type": "note_off",
                "note": 66,
                "velocity": 64,
                "time": 37
            },
            {
                "type": "note_off",
                "note": 62,
                "velocity": 64,
                "time": 291
            },
            {
                "type": "note_on",
                "note": 74,
                "velocity": 98,
                "time": 20
            },
            {
                "type": "note_on",
                "note": 54,
                "velocity": 75,
                "time": 11
            },
            {
                "type": "note_off",
                "note": 74,
                "velocity": 64,
                "time": 290
            },
            {
                "type": "note_on",
                "note": 73,
                "velocity": 88,
                "time": 5
            },
            {
                "type": "note_on",
                "note": 47,
                "velocity": 67,
                "time": 0
            },
            {
                "type": "note_on",
                "note": 67,
                "velocity": 63,
                "time": 17
            },
            {
                "type": "note_on",
                "note": 71,
                "velocity": 76,
                "time": 0
            },
            {
                "type": "note_off",
                "note": 54,
                "velocity": 64,
                "time": 4
            },
            {
                "type": "note_on",
                "note": 76,
                "velocity": 84,
                "time": 109
            },
            {
                "type": "note_off",
                "note": 73,
                "velocity": 64,
                "time": 36
            },
            {
                "type": "note_on",
                "note": 78,
                "velocity": 84,
                "time": 91
            },
            {
                "type": "note_off",
                "note": 76,
                "velocity": 64,
                "time": 18
            },
            {
                "type": "note_off",
                "note": 47,
                "velocity": 64,
                "time": 49
            },
            {
                "type": "note_on",
                "note": 55,
                "velocity": 53,
                "time": 43
            },
            {
                "type": "note_off",
                "note": 67,
                "velocity": 64,
                "time": 50
            },
            {
                "type": "note_off",
                "note": 55,
                "velocity": 64,
                "time": 0
            },
            {
                "type": "note_off",
                "note": 78,
                "velocity": 64,
                "time": 5
            },
            {
                "type": "note_on",
                "note": 61,
                "velocity": 76,
                "time": 9
            },
            {
                "type": "note_on",
                "note": 76,
                "velocity": 89,
                "time": 7
            },
            {
                "type": "note_off",
                "note": 71,
                "velocity": 64,
                "time": 43
            },
            {
                "type": "note_on",
                "note": 71,
                "velocity": 97,
                "time": 283
            },
            {
                "type": "note_off",
                "note": 76,
                "velocity": 64,
                "time": 7
            },
            {
                "type": "note_off",
                "note": 61,
                "velocity": 64,
                "time": 4
            },
            {
                "type": "note_on",
                "note": 55,
                "velocity": 76,
                "time": 7
            },
            {
                "type": "note_off",
                "note": 71,
                "velocity": 64,
                "time": 194
            },
            {
                "type": "note_on",
                "note": 74,
                "velocity": 86,
                "time": 126
            },
            {
                "type": "note_on",
                "note": 47,
                "velocity": 61,
                "time": 3
            },
            {
                "type": "note_on",
                "note": 66,
                "velocity": 53,
                "time": 0
            },
            {
                "type": "note_on",
                "note": 71,
                "velocity": 59,
                "time": 6
            },
            {
                "type": "note_off",
                "note": 55,
                "velocity": 64,
                "time": 13
            },
            {
                "type": "note_on",
                "note": 53,
                "velocity": 98,
                "time": 135
            },
            {
                "type": "note_on",
                "note": 54,
                "velocity": 86,
                "time": 118
            },
            {
                "type": "note_off",
                "note": 53,
                "velocity": 64,
                "time": 33
            },
            {
                "type": "note_on",
                "note": 57,
                "velocity": 61,
                "time": 92
            },
            {
                "type": "note_off",
                "note": 54,
                "velocity": 64,
                "time": 27
            },
            {
                "type": "note_on",
                "note": 55,
                "velocity": 87,
                "time": 53
            },
            {
                "type": "note_off",
                "note": 57,
                "velocity": 64,
                "time": 39
            },
            {
                "type": "note_off",
                "note": 74,
                "velocity": 64,
                "time": 142
            },
            {
                "type": "note_on",
                "note": 74,
                "velocity": 84,
                "time": 84
            },
            {
                "type": "note_on",
                "note": 54,
                "velocity": 80,
                "time": 19
            },
            {
                "type": "note_off",
                "note": 47,
                "velocity": 64,
                "time": 14
            },
            {
                "type": "note_off",
                "note": 55,
                "velocity": 64,
                "time": 0
            },
            {
                "type": "note_off",
                "note": 71,
                "velocity": 64,
                "time": 52
            },
            {
                "type": "note_off",
                "note": 66,
                "velocity": 64,
                "time": 78
            },
            {
                "type": "note_off",
                "note": 74,
                "velocity": 64,
                "time": 131
            },
            {
                "type": "note_off",
                "note": 54,
                "velocity": 64,
                "time": 11
            },
            {
                "type": "note_on",
                "note": 73,
                "velocity": 84,
                "time": 0
            },
            {
                "type": "note_on",
                "note": 67,
                "velocity": 63,
                "time": 14
            },
            {
                "type": "note_on",
                "note": 71,
                "velocity": 67,
                "time": 7
            },
            {
                "type": "note_on",
                "note": 47,
                "velocity": 58,
                "time": 7
            },
            {
                "type": "note_on",
                "note": 76,
                "velocity": 85,
                "time": 147
            },
            {
                "type": "note_off",
                "note": 73,
                "velocity": 64,
                "time": 69
            },
            {
                "type": "note_on",
                "note": 78,
                "velocity": 78,
                "time": 92
            },
            {
                "type": "note_off",
                "note": 76,
                "velocity": 64,
                "time": 54
            },
            {
                "type": "note_on",
                "note": 55,
                "velocity": 46,
                "time": 38
            },
            {
                "type": "note_on",
                "note": 76,
                "velocity": 85,
                "time": 73
            },
            {
                "type": "note_on",
                "note": 61,
                "velocity": 74,
                "time": 6
            },
            {
                "type": "note_off",
                "note": 55,
                "velocity": 64,
                "time": 36
            },
            {
                "type": "note_off",
                "note": 71,
                "velocity": 64,
                "time": 8
            },
            {
                "type": "note_off",
                "note": 78,
                "velocity": 64,
                "time": 23
            },
            {
                "type": "note_off",
                "note": 61,
                "velocity": 64,
                "time": 14
            },
            {
                "type": "note_on",
                "note": 71,
                "velocity": 95,
                "time": 67
            },
            {
                "type": "note_off",
                "note": 67,
                "velocity": 64,
                "time": 17
            },
            {
                "type": "note_on",
                "note": 55,
                "velocity": 67,
                "time": 0
            },
            {
                "type": "note_off",
                "note": 47,
                "velocity": 64,
                "time": 3
            },
            {
                "type": "note_off",
                "note": 76,
                "velocity": 64,
                "time": 13
            },
            {
                "type": "note_off",
                "note": 71,
                "velocity": 64,
                "time": 181
            },
            {
                "type": "note_on",
                "note": 47,
                "velocity": 63,
                "time": 65
            },
            {
                "type": "note_off",
                "note": 55,
                "velocity": 64,
                "time": 4
            },
            {
                "type": "note_on",
                "note": 74,
                "velocity": 83,
                "time": 7
            },
            {
                "type": "note_on",
                "note": 66,
                "velocity": 54,
                "time": 5
            },
            {
                "type": "note_on",
                "note": 71,
                "velocity": 35,
                "time": 6
            },
            {
                "type": "note_on",
                "note": 53,
                "velocity": 96,
                "time": 88
            },
            {
                "type": "note_on",
                "note": 54,
                "velocity": 86,
                "time": 48
            },
            {
                "type": "note_off",
                "note": 53,
                "velocity": 64,
                "time": 22
            },
            {
                "type": "note_on",
                "note": 57,
                "velocity": 68,
                "time": 91
            },
            {
                "type": "note_off",
                "note": 54,
                "velocity": 64,
                "time": 8
            },
            {
                "type": "note_on",
                "note": 55,
                "velocity": 80,
                "time": 60
            },
            {
                "type": "note_off",
                "note": 57,
                "velocity": 64,
                "time": 23
            },
            {
                "type": "note_off",
                "note": 74,
                "velocity": 64,
                "time": 159
            },
            {
                "type": "note_off",
                "note": 47,
                "velocity": 64,
                "time": 65
            },
            {
                "type": "note_off",
                "note": 66,
                "velocity": 64,
                "time": 97
            },
            {
                "type": "note_on",
                "note": 74,
                "velocity": 85,
                "time": 9
            },
            {
                "type": "note_off",
                "note": 55,
                "velocity": 64,
                "time": 0
            },
            {
                "type": "note_off",
                "note": 71,
                "velocity": 64,
                "time": 22
            },
            {
                "type": "note_on",
                "note": 54,
                "velocity": 59,
                "time": 0
            },
            {
                "type": "note_off",
                "note": 74,
                "velocity": 64,
                "time": 211
            },
            {
                "type": "note_off",
                "note": 54,
                "velocity": 64,
                "time": 51
            },
            {
                "type": "note_on",
                "note": 44,
                "velocity": 58,
                "time": 19
            },
            {
                "type": "note_on",
                "note": 71,
                "velocity": 94,
                "time": 22
            },
            {
                "type": "note_on",
                "note": 62,
                "velocity": 66,
                "time": 14
            },
            {
                "type": "note_on",
                "note": 66,
                "velocity": 39,
                "time": 4
            },
            {
                "type": "note_on",
                "note": 73,
                "velocity": 80,
                "time": 17
            },
            {
                "type": "note_off",
                "note": 73,
                "velocity": 64,
                "time": 160
            },
            {
                "type": "note_off",
                "note": 71,
                "velocity": 64,
                "time": 6
            },
            {
                "type": "note_on",
                "note": 74,
                "velocity": 81,
                "time": 51
            },
            {
                "type": "note_off",
                "note": 74,
                "velocity": 64,
                "time": 97
            },
            {
                "type": "note_on",
                "note": 50,
                "velocity": 47,
                "time": 58
            },
            {
                "type": "note_off",
                "note": 50,
                "velocity": 64,
                "time": 53
            },
            {
                "type": "note_on",
                "note": 71,
                "velocity": 75,
                "time": 57
            },
            {
                "type": "note_off",
                "note": 66,
                "velocity": 64,
                "time": 35
            },
            {
                "type": "note_on",
                "note": 50,
                "velocity": 4,
                "time": 56
            },
            {
                "type": "note_off",
                "note": 50,
                "velocity": 64,
                "time": 23
            },
            {
                "type": "note_off",
                "note": 62,
                "velocity": 64,
                "time": 6
            },
            {
                "type": "note_off",
                "note": 71,
                "velocity": 64,
                "time": 105
            },
            {
                "type": "note_on",
                "note": 56,
                "velocity": 29,
                "time": 0
            },
            {
                "type": "note_on",
                "note": 66,
                "velocity": 58,
                "time": 31
            },
            {
                "type": "note_off",
                "note": 56,
                "velocity": 64,
                "time": 63
            },
            {
                "type": "note_off",
                "note": 44,
                "velocity": 64,
                "time": 159
            },
            {
                "type": "note_off",
                "note": 66,
                "velocity": 64,
                "time": 0
            },
            {
                "type": "note_on",
                "note": 70,
                "velocity": 41,
                "time": 137
            },
            {
                "type": "note_on",
                "note": 61,
                "velocity": 39,
                "time": 5
            },
            {
                "type": "note_on",
                "note": 37,
                "velocity": 37,
                "time": 17
            },
            {
                "type": "note_on",
                "note": 66,
                "velocity": 10,
                "time": 0
            },
            {
                "type": "note_off",
                "note": 37,
                "velocity": 64,
                "time": 22
            },
            {
                "type": "note_on",
                "note": 48,
                "velocity": 48,
                "time": 11
            },
            {
                "type": "note_off",
                "note": 48,
                "velocity": 64,
                "time": 176
            },
            {
                "type": "note_on",
                "note": 49,
                "velocity": 58,
                "time": 11
            },
            {
                "type": "note_on",
                "note": 53,
                "velocity": 74,
                "time": 154
            },
            {
                "type": "note_off",
                "note": 49,
                "velocity": 64,
                "time": 33
            },
            {
                "type": "note_off",
                "note": 53,
                "velocity": 64,
                "time": 16
            },
            {
                "type": "note_on",
                "note": 51,
                "velocity": 48,
                "time": 9
            },
            {
                "type": "note_off",
                "note": 70,
                "velocity": 64,
                "time": 45
            },
            {
                "type": "note_on",
                "note": 70,
                "velocity": 63,
                "time": 156
            },
            {
                "type": "note_off",
                "note": 51,
                "velocity": 64,
                "time": 25
            },
            {
                "type": "note_on",
                "note": 49,
                "velocity": 39,
                "time": 0
            },
            {
                "type": "note_off",
                "note": 61,
                "velocity": 64,
                "time": 39
            },
            {
                "type": "note_off",
                "note": 49,
                "velocity": 64,
                "time": 47
            },
            {
                "type": "note_off",
                "note": 66,
                "velocity": 64,
                "time": 4
            },
            {
                "type": "note_on",
                "note": 49,
                "velocity": 22,
                "time": 125
            },
            {
                "type": "note_on",
                "note": 68,
                "velocity": 57,
                "time": 106
            },
            {
                "type": "note_on",
                "note": 65,
                "velocity": 35,
                "time": 16
            },
            {
                "type": "note_on",
                "note": 59,
                "velocity": 40,
                "time": 19
            },
            {
                "type": "note_off",
                "note": 70,
                "velocity": 64,
                "time": 26
            },
            {
                "type": "note_off",
                "note": 49,
                "velocity": 64,
                "time": 85
            },
            {
                "type": "note_off",
                "note": 59,
                "velocity": 64,
                "time": 92
            },
            {
                "type": "note_off",
                "note": 65,
                "velocity": 64,
                "time": 33
            },
            {
                "type": "note_on",
                "note": 70,
                "velocity": 45,
                "time": 6
            },
            {
                "type": "note_on",
                "note": 61,
                "velocity": 27,
                "time": 11
            },
            {
                "type": "note_off",
                "note": 68,
                "velocity": 64,
                "time": 75
            },
            {
                "type": "note_off",
                "note": 61,
                "velocity": 64,
                "time": 65
            },
            {
                "type": "note_on",
                "note": 73,
                "velocity": 35,
                "time": 63
            },
            {
                "type": "note_on",
                "note": 65,
                "velocity": 14,
                "time": 21
            },
            {
                "type": "note_off",
                "note": 70,
                "velocity": 64,
                "time": 8
            },
            {
                "type": "note_on",
                "note": 71,
                "velocity": 50,
                "time": 49
            },
            {
                "type": "note_off",
                "note": 65,
                "velocity": 64,
                "time": 4
            },
            {
                "type": "note_off",
                "note": 73,
                "velocity": 64,
                "time": 17
            },
            {
                "type": "note_on",
                "note": 63,
                "velocity": 42,
                "time": 3
            },
            {
                "type": "note_off",
                "note": 63,
                "velocity": 64,
                "time": 47
            },
            {
                "type": "note_on",
                "note": 70,
                "velocity": 32,
                "time": 242
            },
            {
                "type": "note_on",
                "note": 61,
                "velocity": 15,
                "time": 27
            },
            {
                "type": "note_off",
                "note": 71,
                "velocity": 64,
                "time": 12
            },
            {
                "type": "note_on",
                "note": 65,
                "velocity": 8,
                "time": 3
            },
            {
                "type": "note_on",
                "note": 49,
                "velocity": 2,
                "time": 88
            },
            {
                "type": "note_off",
                "note": 61,
                "velocity": 64,
                "time": 95
            },
            {
                "type": "note_on",
                "note": 68,
                "velocity": 25,
                "time": 209
            },
            {
                "type": "note_off",
                "note": 70,
                "velocity": 64,
                "time": 25
            },
            {
                "type": "note_on",
                "note": 59,
                "velocity": 19,
                "time": 20
            },
            {
                "type": "note_off",
                "note": 65,
                "velocity": 64,
                "time": 95
            },
            {
                "type": "note_off",
                "note": 59,
                "velocity": 64,
                "time": 24
            },
            {
                "type": "note_off",
                "note": 49,
                "velocity": 64,
                "time": 55
            },
            {
                "type": "note_off",
                "note": 68,
                "velocity": 64,
                "time": 46
            },
            {
                "type": "note_on",
                "note": 73,
                "velocity": 16,
                "time": 317
            },
            {
                "type": "note_on",
                "note": 61,
                "velocity": 15,
                "time": 4
            },
            {
                "type": "note_on",
                "note": 70,
                "velocity": 19,
                "time": 13
            },
            {
                "type": "note_on",
                "note": 42,
                "velocity": 17,
                "time": 5
            },
            {
                "type": "note_on",
                "note": 66,
                "velocity": 18,
                "time": 22
            },
            {
                "type": "note_on",
                "note": 48,
                "velocity": 16,
                "time": 318
            },
            {
                "type": "note_off",
                "note": 48,
                "velocity": 64,
                "time": 69
            },
            {
                "type": "note_off",
                "note": 42,
                "velocity": 64,
                "time": 9
            },
            {
                "type": "note_on",
                "note": 49,
                "velocity": 27,
                "time": 0
            },
            {
                "type": "note_off",
                "note": 61,
                "velocity": 64,
                "time": 138
            },
            {
                "type": "note_off",
                "note": 66,
                "velocity": 64,
                "time": 48
            },
            {
                "type": "note_off",
                "note": 70,
                "velocity": 64,
                "time": 16
            },
            {
                "type": "note_on",
                "note": 70,
                "velocity": 36,
                "time": 267
            },
            {
                "type": "note_off",
                "note": 49,
                "velocity": 64,
                "time": 4
            },
            {
                "type": "note_on",
                "note": 61,
                "velocity": 20,
                "time": 17
            },
            {
                "type": "note_off",
                "note": 73,
                "velocity": 64,
                "time": 83
            },
            {
                "type": "note_off",
                "note": 61,
                "velocity": 64,
                "time": 23
            },
            {
                "type": "note_on",
                "note": 71,
                "velocity": 61,
                "time": 256
            },
            {
                "type": "note_on",
                "note": 65,
                "velocity": 31,
                "time": 0
            },
            {
                "type": "note_on",
                "note": 42,
                "velocity": 26,
                "time": 17
            },
            {
                "type": "note_off",
                "note": 70,
                "velocity": 64,
                "time": 46
            },
            {
                "type": "note_on",
                "note": 73,
                "velocity": 58,
                "time": 141
            },
            {
                "type": "note_off",
                "note": 71,
                "velocity": 64,
                "time": 37
            },
            {
                "type": "note_off",
                "note": 73,
                "velocity": 64,
                "time": 114
            },
            {
                "type": "note_on",
                "note": 77,
                "velocity": 54,
                "time": 7
            },
            {
                "type": "note_off",
                "note": 77,
                "velocity": 64,
                "time": 51
            },
            {
                "type": "note_off",
                "note": 42,
                "velocity": 64,
                "time": 38
            },
            {
                "type": "note_on",
                "note": 49,
                "velocity": 24,
                "time": 37
            },
            {
                "type": "note_on",
                "note": 75,
                "velocity": 31,
                "time": 53
            },
            {
                "type": "note_off",
                "note": 75,
                "velocity": 64,
                "time": 47
            },
            {
                "type": "note_on",
                "note": 77,
                "velocity": 42,
                "time": 11
            },
            {
                "type": "note_off",
                "note": 49,
                "velocity": 64,
                "time": 28
            },
            {
                "type": "note_on",
                "note": 75,
                "velocity": 38,
                "time": 19
            },
            {
                "type": "note_off",
                "note": 77,
                "velocity": 64,
                "time": 37
            },
            {
                "type": "note_on",
                "note": 59,
                "velocity": 15,
                "time": 20
            },
            {
                "type": "note_off",
                "note": 75,
                "velocity": 64,
                "time": 166
            },
            {
                "type": "note_off",
                "note": 59,
                "velocity": 64,
                "time": 22
            },
            {
                "type": "note_off",
                "note": 65,
                "velocity": 64,
                "time": 0
            },
            {
                "type": "note_on",
                "note": 73,
                "velocity": 26,
                "time": 12
            },
            {
                "type": "note_on",
                "note": 49,
                "velocity": 19,
                "time": 25
            },
            {
                "type": "note_off",
                "note": 73,
                "velocity": 64,
                "time": 95
            },
            {
                "type": "note_off",
                "note": 49,
                "velocity": 64,
                "time": 27
            },
            {
                "type": "note_on",
                "note": 61,
                "velocity": 30,
                "time": 204
            },
            {
                "type": "note_on",
                "note": 70,
                "velocity": 27,
                "time": 19
            },
            {
                "type": "note_on",
                "note": 42,
                "velocity": 19,
                "time": 14
            },
            {
                "type": "note_on",
                "note": 63,
                "velocity": 44,
                "time": 73
            },
            {
                "type": "note_off",
                "note": 61,
                "velocity": 64,
                "time": 45
            },
            {
                "type": "note_off",
                "note": 63,
                "velocity": 64,
                "time": 127
            },
            {
                "type": "note_on",
                "note": 65,
                "velocity": 33,
                "time": 16
            },
            {
                "type": "note_off",
                "note": 42,
                "velocity": 64,
                "time": 13
            },
            {
                "type": "note_on",
                "note": 49,
                "velocity": 15,
                "time": 51
            },
            {
                "type": "note_off",
                "note": 65,
                "velocity": 64,
                "time": 12
            },
            {
                "type": "note_on",
                "note": 63,
                "velocity": 34,
                "time": 49
            },
            {
                "type": "note_on",
                "note": 65,
                "velocity": 36,
                "time": 42
            },
            {
                "type": "note_off",
                "note": 63,
                "velocity": 64,
                "time": 0
            },
            {
                "type": "note_on",
                "note": 63,
                "velocity": 37,
                "time": 70
            },
            {
                "type": "note_on",
                "note": 58,
                "velocity": 13,
                "time": 16
            },
            {
                "type": "note_off",
                "note": 65,
                "velocity": 64,
                "time": 15
            },
            {
                "type": "note_off",
                "note": 49,
                "velocity": 64,
                "time": 57
            },
            {
                "type": "note_on",
                "note": 61,
                "velocity": 48,
                "time": 118
            },
            {
                "type": "note_off",
                "note": 70,
                "velocity": 64,
                "time": 16
            },
            {
                "type": "note_off",
                "note": 63,
                "velocity": 64,
                "time": 18
            },
            {
                "type": "note_on",
                "note": 70,
                "velocity": 61,
                "time": 96
            },
            {
                "type": "note_off",
                "note": 61,
                "velocity": 64,
                "time": 34
            },
            {
                "type": "note_off",
                "note": 58,
                "velocity": 64,
                "time": 23
            },
            {
                "type": "note_on",
                "note": 49,
                "velocity": 18,
                "time": 46
            },
            {
                "type": "note_on",
                "note": 66,
                "velocity": 49,
                "time": 53
            },
            {
                "type": "note_off",
                "note": 49,
                "velocity": 64,
                "time": 43
            },
            {
                "type": "note_off",
                "note": 70,
                "velocity": 64,
                "time": 35
            },
            {
                "type": "note_off",
                "note": 66,
                "velocity": 64,
                "time": 42
            },
            {
                "type": "note_on",
                "note": 42,
                "velocity": 30,
                "time": 67
            },
            {
                "type": "note_on",
                "note": 66,
                "velocity": 31,
                "time": 11
            },
            {
                "type": "note_on",
                "note": 71,
                "velocity": 61,
                "time": 4
            },
            {
                "type": "note_on",
                "note": 65,
                "velocity": 57,
                "time": 164
            },
            {
                "type": "note_off",
                "note": 66,
                "velocity": 64,
                "time": 6
            },
            {
                "type": "note_off",
                "note": 65,
                "velocity": 64,
                "time": 175
            },
            {
                "type": "note_on",
                "note": 63,
                "velocity": 60,
                "time": 3
            },
            {
                "type": "note_off",
                "note": 71,
                "velocity": 64,
                "time": 29
            },
            {
                "type": "note_on",
                "note": 49,
                "velocity": 27,
                "time": 72
            },
            {
                "type": "note_off",
                "note": 42,
                "velocity": 64,
                "time": 89
            },
            {
                "type": "note_off",
                "note": 63,
                "velocity": 64,
                "time": 14
            },
            {
                "type": "note_on",
                "note": 71,
                "velocity": 56,
                "time": 5
            },
            {
                "type": "note_on",
                "note": 65,
                "velocity": 45,
                "time": 0
            },
            {
                "type": "note_on",
                "note": 56,
                "velocity": 39,
                "time": 22
            },
            {
                "type": "note_off",
                "note": 49,
                "velocity": 64,
                "time": 4
            },
            {
                "type": "note_off",
                "note": 56,
                "velocity": 64,
                "time": 5
            },
            {
                "type": "note_on",
                "note": 61,
                "velocity": 52,
                "time": 69
            },
            {
                "type": "note_on",
                "note": 49,
                "velocity": 33,
                "time": 23
            },
            {
                "type": "note_off",
                "note": 65,
                "velocity": 64,
                "time": 43
            },
            {
                "type": "note_off",
                "note": 61,
                "velocity": 64,
                "time": 37
            },
            {
                "type": "note_off",
                "note": 49,
                "velocity": 64,
                "time": 0
            },
            {
                "type": "note_on",
                "note": 70,
                "velocity": 50,
                "time": 124
            },
            {
                "type": "note_on",
                "note": 42,
                "velocity": 29,
                "time": 8
            },
            {
                "type": "note_on",
                "note": 66,
                "velocity": 39,
                "time": 18
            },
            {
                "type": "note_off",
                "note": 71,
                "velocity": 64,
                "time": 8
            },
            {
                "type": "note_on",
                "note": 71,
                "velocity": 80,
                "time": 14
            },
            {
                "type": "note_off",
                "note": 42,
                "velocity": 64,
                "time": 36
            },
            {
                "type": "note_off",
                "note": 70,
                "velocity": 64,
                "time": 27
            },
            {
                "type": "note_on",
                "note": 72,
                "velocity": 78,
                "time": 129
            },
            {
                "type": "note_off",
                "note": 71,
                "velocity": 64,
                "time": 11
            },
            {
                "type": "note_on",
                "note": 49,
                "velocity": 34,
                "time": 64
            },
            {
                "type": "note_off",
                "note": 49,
                "velocity": 64,
                "time": 84
            },
            {
                "type": "note_off",
                "note": 72,
                "velocity": 64,
                "time": 3
            },
            {
                "type": "note_on",
                "note": 73,
                "velocity": 68,
                "time": 5
            },
            {
                "type": "note_on",
                "note": 58,
                "velocity": 31,
                "time": 39
            },
            {
                "type": "note_off",
                "note": 58,
                "velocity": 64,
                "time": 117
            },
            {
                "type": "note_on",
                "note": 77,
                "velocity": 56,
                "time": 27
            },
            {
                "type": "note_on",
                "note": 75,
                "velocity": 59,
                "time": 86
            },
            {
                "type": "note_off",
                "note": 73,
                "velocity": 64,
                "time": 34
            },
            {
                "type": "note_off",
                "note": 77,
                "velocity": 64,
                "time": 6
            },
            {
                "type": "note_on",
                "note": 49,
                "velocity": 34,
                "time": 113
            },
            {
                "type": "note_off",
                "note": 49,
                "velocity": 64,
                "time": 81
            },
            {
                "type": "note_on",
                "note": 73,
                "velocity": 62,
                "time": 22
            },
            {
                "type": "note_off",
                "note": 75,
                "velocity": 64,
                "time": 62
            },
            {
                "type": "note_off",
                "note": 66,
                "velocity": 64,
                "time": 69
            },
            {
                "type": "note_on",
                "note": 42,
                "velocity": 28,
                "time": 68
            },
            {
                "type": "note_on",
                "note": 71,
                "velocity": 81,
                "time": 36
            },
            {
                "type": "note_off",
                "note": 73,
                "velocity": 64,
                "time": 3
            },
            {
                "type": "note_on",
                "note": 65,
                "velocity": 42,
                "time": 5
            },
            {
                "type": "note_on",
                "note": 73,
                "velocity": 75,
                "time": 0
            },
            {
                "type": "note_off",
                "note": 42,
                "velocity": 64,
                "time": 30
            },
            {
                "type": "note_off",
                "note": 71,
                "velocity": 64,
                "time": 17
            },
            {
                "type": "note_off",
                "note": 73,
                "velocity": 64,
                "time": 126
            },
            {
                "type": "note_on",
                "note": 77,
                "velocity": 68,
                "time": 8
            },
            {
                "type": "note_off",
                "note": 77,
                "velocity": 64,
                "time": 41
            },
            {
                "type": "note_on",
                "note": 49,
                "velocity": 12,
                "time": 62
            },
            {
                "type": "note_on",
                "note": 75,
                "velocity": 59,
                "time": 24
            },
            {
                "type": "note_off",
                "note": 75,
                "velocity": 64,
                "time": 42
            },
            {
                "type": "note_off",
                "note": 49,
                "velocity": 64,
                "time": 6
            },
            {
                "type": "note_on",
                "note": 77,
                "velocity": 50,
                "time": 14
            },
            {
                "type": "note_on",
                "note": 75,
                "velocity": 42,
                "time": 42
            },
            {
                "type": "note_off",
                "note": 77,
                "velocity": 64,
                "time": 16
            },
            {
                "type": "note_on",
                "note": 59,
                "velocity": 38,
                "time": 17
            },
            {
                "type": "note_off",
                "note": 59,
                "velocity": 64,
                "time": 15
            },
            {
                "type": "note_on",
                "note": 73,
                "velocity": 40,
                "time": 212
            },
            {
                "type": "note_off",
                "note": 75,
                "velocity": 64,
                "time": 19
            },
            {
                "type": "note_on",
                "note": 49,
                "velocity": 24,
                "time": 11
            },
            {
                "type": "note_off",
                "note": 65,
                "velocity": 64,
                "time": 67
            },
            {
                "type": "note_off",
                "note": 49,
                "velocity": 64,
                "time": 27
            },
            {
                "type": "note_on",
                "note": 70,
                "velocity": 35,
                "time": 310
            },
            {
                "type": "note_on",
                "note": 61,
                "velocity": 18,
                "time": 3
            },
            {
                "type": "note_on",
                "note": 42,
                "velocity": 22,
                "time": 25
            },
            {
                "type": "note_on",
                "note": 66,
                "velocity": 7,
                "time": 6
            },
            {
                "type": "note_off",
                "note": 73,
                "velocity": 64,
                "time": 22
            },
            {
                "type": "note_off",
                "note": 42,
                "velocity": 64,
                "time": 281
            },
            {
                "type": "note_off",
                "note": 66,
                "velocity": 64,
                "time": 51
            },
            {
                "type": "note_off",
                "note": 61,
                "velocity": 64,
                "time": 47
            },
            {
                "type": "note_on",
                "note": 69,
                "velocity": 41,
                "time": 272
            },
            {
                "type": "note_off",
                "note": 70,
                "velocity": 64,
                "time": 11
            },
            {
                "type": "note_on",
                "note": 62,
                "velocity": 26,
                "time": 0
            },
            {
                "type": "note_on",
                "note": 66,
                "velocity": 23,
                "time": 12
            },
            {
                "type": "note_on",
                "note": 60,
                "velocity": 19,
                "time": 6
            },
            {
                "type": "note_on",
                "note": 50,
                "velocity": 23,
                "time": 21
            },
            {
                "type": "note_on",
                "note": 74,
                "velocity": 60,
                "time": 0
            },
            {
                "type": "note_off",
                "note": 69,
                "velocity": 64,
                "time": 69
            },
            {
                "type": "note_off",
                "note": 60,
                "velocity": 64,
                "time": 69
            },
            {
                "type": "note_on",
                "note": 71,
                "velocity": 76,
                "time": 95
            },
            {
                "type": "note_off",
                "note": 62,
                "velocity": 64,
                "time": 56
            },
            {
                "type": "note_off",
                "note": 74,
                "velocity": 64,
                "time": 42
            },
            {
                "type": "note_on",
                "note": 55,
                "velocity": 21,
                "time": 47
            },
            {
                "type": "note_off",
                "note": 66,
                "velocity": 64,
                "time": 28
            },
            {
                "type": "note_on",
                "note": 60,
                "velocity": 45,
                "time": 11
            },
            {
                "type": "note_on",
                "note": 69,
                "velocity": 54,
                "time": 29
            },
            {
                "type": "note_off",
                "note": 50,
                "velocity": 64,
                "time": 5
            },
            {
                "type": "note_on",
                "note": 62,
                "velocity": 42,
                "time": 8
            },
            {
                "type": "note_off",
                "note": 71,
                "velocity": 64,
                "time": 51
            },
            {
                "type": "note_on",
                "note": 67,
                "velocity": 61,
                "time": 17
            },
            {
                "type": "note_off",
                "note": 60,
                "velocity": 64,
                "time": 64
            },
            {
                "type": "note_off",
                "note": 62,
                "velocity": 64,
                "time": 65
            },
            {
                "type": "note_on",
                "note": 59,
                "velocity": 59,
                "time": 16
            },
            {
                "type": "note_off",
                "note": 55,
                "velocity": 64,
                "time": 64
            },
            {
                "type": "note_off",
                "note": 67,
                "velocity": 64,
                "time": 0
            },
            {
                "type": "note_off",
                "note": 59,
                "velocity": 64,
                "time": 15
            },
            {
                "type": "note_on",
                "note": 74,
                "velocity": 77,
                "time": 19
            },
            {
                "type": "note_off",
                "note": 69,
                "velocity": 64,
                "time": 6
            },
            {
                "type": "note_off",
                "note": 74,
                "velocity": 64,
                "time": 42
            },
            {
                "type": "note_on",
                "note": 49,
                "velocity": 32,
                "time": 97
            },
            {
                "type": "note_on",
                "note": 59,
                "velocity": 38,
                "time": 89
            },
            {
                "type": "note_on",
                "note": 65,
                "velocity": 53,
                "time": 27
            },
            {
                "type": "note_on",
                "note": 61,
                "velocity": 35,
                "time": 11
            },
            {
                "type": "note_on",
                "note": 73,
                "velocity": 39,
                "time": 86
            },
            {
                "type": "note_off",
                "note": 65,
                "velocity": 64,
                "time": 0
            },
            {
                "type": "note_off",
                "note": 59,
                "velocity": 64,
                "time": 182
            },
            {
                "type": "note_off",
                "note": 61,
                "velocity": 64,
                "time": 27
            },
            {
                "type": "note_on",
                "note": 61,
                "velocity": 26,
                "time": 220
            },
            {
                "type": "note_off",
                "note": 49,
                "velocity": 64,
                "time": 0
            },
            {
                "type": "note_on",
                "note": 66,
                "velocity": 31,
                "time": 7
            },
            {
                "type": "note_on",
                "note": 58,
                "velocity": 15,
                "time": 5
            },
            {
                "type": "note_on",
                "note": 54,
                "velocity": 28,
                "time": 8
            },
            {
                "type": "note_off",
                "note": 73,
                "velocity": 64,
                "time": 106
            },
            {
                "type": "note_off",
                "note": 61,
                "velocity": 64,
                "time": 279
            },
            {
                "type": "note_off",
                "note": 58,
                "velocity": 64,
                "time": 43
            },
            {
                "type": "note_off",
                "note": 66,
                "velocity": 64,
                "time": 9
            },
            {
                "type": "note_on",
                "note": 60,
                "velocity": 50,
                "time": 162
            },
            {
                "type": "note_on",
                "note": 66,
                "velocity": 48,
                "time": 0
            },
            {
                "type": "note_on",
                "note": 63,
                "velocity": 45,
                "time": 6
            },
            {
                "type": "note_on",
                "note": 57,
                "velocity": 32,
                "time": 0
            },
            {
                "type": "note_on",
                "note": 47,
                "velocity": 23,
                "time": 21
            },
            {
                "type": "note_off",
                "note": 54,
                "velocity": 64,
                "time": 22
            },
            {
                "type": "note_on",
                "note": 69,
                "velocity": 49,
                "time": 436
            },
            {
                "type": "note_off",
                "note": 66,
                "velocity": 64,
                "time": 122
            },
            {
                "type": "note_on",
                "note": 67,
                "velocity": 63,
                "time": 24
            },
            {
                "type": "note_off",
                "note": 57,
                "velocity": 64,
                "time": 95
            },
            {
                "type": "note_off",
                "note": 69,
                "velocity": 64,
                "time": 36
            },
            {
                "type": "note_off",
                "note": 60,
                "velocity": 64,
                "time": 37
            },
            {
                "type": "note_on",
                "note": 52,
                "velocity": 32,
                "time": 44
            },
            {
                "type": "note_on",
                "note": 66,
                "velocity": 56,
                "time": 47
            },
            {
                "type": "note_on",
                "note": 57,
                "velocity": 42,
                "time": 9
            },
            {
                "type": "note_on",
                "note": 59,
                "velocity": 27,
                "time": 11
            },
            {
                "type": "note_off",
                "note": 63,
                "velocity": 64,
                "time": 39
            },
            {
                "type": "note_off",
                "note": 67,
                "velocity": 64,
                "time": 17
            },
            {
                "type": "note_off",
                "note": 47,
                "velocity": 64,
                "time": 14
            },
            {
                "type": "note_on",
                "note": 64,
                "velocity": 61,
                "time": 22
            },
            {
                "type": "note_off",
                "note": 66,
                "velocity": 64,
                "time": 19
            },
            {
                "type": "note_off",
                "note": 57,
                "velocity": 64,
                "time": 18
            },
            {
                "type": "note_on",
                "note": 55,
                "velocity": 36,
                "time": 17
            },
            {
                "type": "note_on",
                "note": 71,
                "velocity": 65,
                "time": 23
            },
            {
                "type": "note_off",
                "note": 64,
                "velocity": 64,
                "time": 28
            },
            {
                "type": "note_off",
                "note": 59,
                "velocity": 64,
                "time": 12
            },
            {
                "type": "note_off",
                "note": 52,
                "velocity": 64,
                "time": 4
            },
            {
                "type": "note_off",
                "note": 55,
                "velocity": 64,
                "time": 14
            },
            {
                "type": "note_on",
                "note": 61,
                "velocity": 33,
                "time": 274
            },
            {
                "type": "note_on",
                "note": 64,
                "velocity": 54,
                "time": 14
            },
            {
                "type": "note_on",
                "note": 45,
                "velocity": 16,
                "time": 34
            },
            {
                "type": "note_on",
                "note": 55,
                "velocity": 21,
                "time": 0
            },
            {
                "type": "note_off",
                "note": 71,
                "velocity": 64,
                "time": 102
            },
            {
                "type": "note_on",
                "note": 65,
                "velocity": 22,
                "time": 537
            },
            {
                "type": "note_off",
                "note": 64,
                "velocity": 64,
                "time": 22
            },
            {
                "type": "note_off",
                "note": 55,
                "velocity": 64,
                "time": 45
            },
            {
                "type": "note_off",
                "note": 45,
                "velocity": 64,
                "time": 92
            },
            {
                "type": "note_off",
                "note": 61,
                "velocity": 64,
                "time": 88
            },
            {
                "type": "note_off",
                "note": 65,
                "velocity": 64,
                "time": 234
            },
            {
                "type": "note_on",
                "note": 57,
                "velocity": 11,
                "time": 390
            },
            {
                "type": "note_on",
                "note": 66,
                "velocity": 13,
                "time": 0
            },
            {
                "type": "note_on",
                "note": 62,
                "velocity": 14,
                "time": 11
            },
            {
                "type": "note_on",
                "note": 38,
                "velocity": 23,
                "time": 17
            },
            {
                "type": "note_off",
                "note": 66,
                "velocity": 64,
                "time": 31
            },
            {
                "type": "note_off",
                "note": 38,
                "velocity": 64,
                "time": 77
            },
            {
                "type": "note_off",
                "note": 57,
                "velocity": 64,
                "time": 65
            },
            {
                "type": "note_on",
                "note": 66,
                "velocity": 21,
                "time": 53
            },
            {
                "type": "note_off",
                "note": 62,
                "velocity": 64,
                "time": 39
            },
            {
                "type": "note_off",
                "note": 66,
                "velocity": 64,
                "time": 85
            },
            {
                "type": "note_on",
                "note": 66,
                "velocity": 38,
                "time": 84
            },
            {
                "type": "note_off",
                "note": 66,
                "velocity": 64,
                "time": 112
            },
            {
                "type": "note_on",
                "note": 66,
                "velocity": 18,
                "time": 92
            },
            {
                "type": "note_on",
                "note": 56,
                "velocity": 20,
                "time": 17
            },
            {
                "type": "note_on",
                "note": 69,
                "velocity": 24,
                "time": 49
            },
            {
                "type": "note_off",
                "note": 56,
                "velocity": 64,
                "time": 39
            },
            {
                "type": "note_on",
                "note": 57,
                "velocity": 6,
                "time": 25
            },
            {
                "type": "note_on",
                "note": 67,
                "velocity": 28,
                "time": 0
            },
            {
                "type": "note_off",
                "note": 69,
                "velocity": 64,
                "time": 50
            },
            {
                "type": "note_off",
                "note": 66,
                "velocity": 64,
                "time": 9
            },
            {
                "type": "note_off",
                "note": 57,
                "velocity": 64,
                "time": 70
            },
            {
                "type": "note_on",
                "note": 66,
                "velocity": 25,
                "time": 214
            },
            {
                "type": "note_off",
                "note": 67,
                "velocity": 64,
                "time": 14
            },
            {
                "type": "note_on",
                "note": 45,
                "velocity": 15,
                "time": 0
            },
            {
                "type": "note_off",
                "note": 45,
                "velocity": 64,
                "time": 89
            },
            {
                "type": "note_off",
                "note": 66,
                "velocity": 64,
                "time": 124
            },
            {
                "type": "note_on",
                "note": 69,
                "velocity": 15,
                "time": 199
            },
            {
                "type": "note_on",
                "note": 62,
                "velocity": 26,
                "time": 16
            },
            {
                "type": "note_on",
                "note": 38,
                "velocity": 19,
                "time": 0
            },
            {
                "type": "note_on",
                "note": 66,
                "velocity": 17,
                "time": 0
            },
            {
                "type": "note_on",
                "note": 57,
                "velocity": 3,
                "time": 0
            },
            {
                "type": "note_off",
                "note": 38,
                "velocity": 64,
                "time": 150
            },
            {
                "type": "note_off",
                "note": 57,
                "velocity": 64,
                "time": 150
            },
            {
                "type": "note_on",
                "note": 56,
                "velocity": 19,
                "time": 396
            },
            {
                "type": "note_off",
                "note": 56,
                "velocity": 64,
                "time": 59
            },
            {
                "type": "note_off",
                "note": 62,
                "velocity": 64,
                "time": 8
            },
            {
                "type": "note_on",
                "note": 57,
                "velocity": 25,
                "time": 0
            },
            {
                "type": "note_off",
                "note": 66,
                "velocity": 64,
                "time": 67
            },
            {
                "type": "note_off",
                "note": 57,
                "velocity": 64,
                "time": 12
            },
            {
                "type": "note_off",
                "note": 69,
                "velocity": 64,
                "time": 4
            },
            {
                "type": "note_on",
                "note": 74,
                "velocity": 58,
                "time": 355
            },
            {
                "type": "note_on",
                "note": 66,
                "velocity": 17,
                "time": 11
            },
            {
                "type": "note_on",
                "note": 45,
                "velocity": 20,
                "time": 11
            },
            {
                "type": "note_off",
                "note": 45,
                "velocity": 64,
                "time": 153
            },
            {
                "type": "note_on",
                "note": 76,
                "velocity": 56,
                "time": 26
            },
            {
                "type": "note_off",
                "note": 66,
                "velocity": 64,
                "time": 11
            },
            {
                "type": "note_off",
                "note": 74,
                "velocity": 64,
                "time": 49
            },
            {
                "type": "note_on",
                "note": 78,
                "velocity": 48,
                "time": 151
            },
            {
                "type": "note_on",
                "note": 50,
                "velocity": 21,
                "time": 11
            },
            {
                "type": "note_on",
                "note": 66,
                "velocity": 13,
                "time": 12
            },
            {
                "type": "note_off",
                "note": 76,
                "velocity": 64,
                "time": 7
            },
            {
                "type": "note_off",
                "note": 50,
                "velocity": 64,
                "time": 22
            },
            {
                "type": "note_off",
                "note": 78,
                "velocity": 64,
                "time": 189
            },
            {
                "type": "note_on",
                "note": 73,
                "velocity": 29,
                "time": 23
            },
            {
                "type": "note_on",
                "note": 56,
                "velocity": 31,
                "time": 139
            },
            {
                "type": "note_off",
                "note": 56,
                "velocity": 64,
                "time": 67
            },
            {
                "type": "note_on",
                "note": 76,
                "velocity": 13,
                "time": 0
            },
            {
                "type": "note_off",
                "note": 73,
                "velocity": 64,
                "time": 8
            },
            {
                "type": "note_on",
                "note": 57,
                "velocity": 12,
                "time": 34
            },
            {
                "type": "note_on",
                "note": 74,
                "velocity": 44,
                "time": 7
            },
            {
                "type": "note_off",
                "note": 76,
                "velocity": 64,
                "time": 8
            },
            {
                "type": "note_off",
                "note": 57,
                "velocity": 64,
                "time": 67
            },
            {
                "type": "note_off",
                "note": 66,
                "velocity": 64,
                "time": 118
            },
            {
                "type": "note_off",
                "note": 74,
                "velocity": 64,
                "time": 41
            },
            {
                "type": "note_on",
                "note": 71,
                "velocity": 52,
                "time": 47
            },
            {
                "type": "note_on",
                "note": 65,
                "velocity": 17,
                "time": 11
            },
            {
                "type": "note_on",
                "note": 51,
                "velocity": 20,
                "time": 9
            },
            {
                "type": "note_off",
                "note": 71,
                "velocity": 64,
                "time": 78
            },
            {
                "type": "note_off",
                "note": 51,
                "velocity": 64,
                "time": 83
            },
            {
                "type": "note_off",
                "note": 65,
                "velocity": 64,
                "time": 22
            },
            {
                "type": "note_on",
                "note": 66,
                "velocity": 21,
                "time": 42
            },
            {
                "type": "note_off",
                "note": 66,
                "velocity": 64,
                "time": 59
            },
            {
                "type": "note_on",
                "note": 61,
                "velocity": 28,
                "time": 151
            },
            {
                "type": "note_on",
                "note": 67,
                "velocity": 36,
                "time": 7
            },
            {
                "type": "note_on",
                "note": 52,
                "velocity": 27,
                "time": 21
            },
            {
                "type": "note_off",
                "note": 52,
                "velocity": 64,
                "time": 36
            },
            {
                "type": "note_on",
                "note": 56,
                "velocity": 19,
                "time": 237
            },
            {
                "type": "note_on",
                "note": 57,
                "velocity": 37,
                "time": 38
            },
            {
                "type": "note_off",
                "note": 56,
                "velocity": 64,
                "time": 22
            },
            {
                "type": "note_off",
                "note": 57,
                "velocity": 64,
                "time": 50
            },
            {
                "type": "note_off",
                "note": 61,
                "velocity": 64,
                "time": 47
            },
            {
                "type": "note_off",
                "note": 67,
                "velocity": 64,
                "time": 31
            },
            {
                "type": "note_on",
                "note": 67,
                "velocity": 63,
                "time": 124
            },
            {
                "type": "note_on",
                "note": 64,
                "velocity": 46,
                "time": 8
            },
            {
                "type": "note_on",
                "note": 45,
                "velocity": 30,
                "time": 10
            },
            {
                "type": "note_off",
                "note": 45,
                "velocity": 64,
                "time": 82
            },
            {
                "type": "note_on",
                "note": 69,
                "velocity": 59,
                "time": 93
            },
            {
                "type": "note_on",
                "note": 66,
                "velocity": 42,
                "time": 10
            },
            {
                "type": "note_off",
                "note": 64,
                "velocity": 64,
                "time": 0
            },
            {
                "type": "note_off",
                "note": 67,
                "velocity": 64,
                "time": 20
            },
            {
                "type": "note_on",
                "note": 71,
                "velocity": 78,
                "time": 148
            },
            {
                "type": "note_off",
                "note": 66,
                "velocity": 64,
                "time": 8
            },
            {
                "type": "note_on",
                "note": 67,
                "velocity": 51,
                "time": 6
            },
            {
                "type": "note_on",
                "note": 49,
                "velocity": 23,
                "time": 22
            },
            {
                "type": "note_off",
                "note": 69,
                "velocity": 64,
                "time": 11
            },
            {
                "type": "note_off",
                "note": 71,
                "velocity": 64,
                "time": 193
            },
            {
                "type": "note_off",
                "note": 49,
                "velocity": 64,
                "time": 7
            },
            {
                "type": "note_on",
                "note": 73,
                "velocity": 69,
                "time": 43
            },
            {
                "type": "note_on",
                "note": 69,
                "velocity": 46,
                "time": 10
            },
            {
                "type": "note_off",
                "note": 73,
                "velocity": 64,
                "time": 79
            },
            {
                "type": "note_off",
                "note": 67,
                "velocity": 64,
                "time": 13
            },
            {
                "type": "note_on",
                "note": 56,
                "velocity": 24,
                "time": 11
            },
            {
                "type": "note_on",
                "note": 73,
                "velocity": 27,
                "time": 48
            },
            {
                "type": "note_on",
                "note": 76,
                "velocity": 48,
                "time": 5
            },
            {
                "type": "note_off",
                "note": 56,
                "velocity": 64,
                "time": 6
            },
            {
                "type": "note_on",
                "note": 57,
                "velocity": 31,
                "time": 0
            },
            {
                "type": "note_off",
                "note": 69,
                "velocity": 64,
                "time": 12
            },
            {
                "type": "note_off",
                "note": 57,
                "velocity": 64,
                "time": 69
            },
            {
                "type": "note_on",
                "note": 74,
                "velocity": 60,
                "time": 220
            },
            {
                "type": "note_off",
                "note": 73,
                "velocity": 64,
                "time": 8
            },
            {
                "type": "note_on",
                "note": 71,
                "velocity": 46,
                "time": 0
            },
            {
                "type": "note_on",
                "note": 45,
                "velocity": 25,
                "time": 18
            },
            {
                "type": "note_off",
                "note": 76,
                "velocity": 64,
                "time": 30
            },
            {
                "type": "note_off",
                "note": 45,
                "velocity": 64,
                "time": 45
            },
            {
                "type": "note_off",
                "note": 71,
                "velocity": 64,
                "time": 100
            },
            {
                "type": "note_off",
                "note": 74,
                "velocity": 64,
                "time": 11
            },
            {
                "type": "note_on",
                "note": 52,
                "velocity": 36,
                "time": 106
            },
            {
                "type": "note_on",
                "note": 74,
                "velocity": 46,
                "time": 53
            },
            {
                "type": "note_on",
                "note": 71,
                "velocity": 39,
                "time": 13
            },
            {
                "type": "note_on",
                "note": 76,
                "velocity": 53,
                "time": 22
            },
            {
                "type": "note_off",
                "note": 74,
                "velocity": 64,
                "time": 0
            },
            {
                "type": "note_off",
                "note": 76,
                "velocity": 64,
                "time": 40
            },
            {
                "type": "note_on",
                "note": 74,
                "velocity": 59,
                "time": 17
            },
            {
                "type": "note_off",
                "note": 52,
                "velocity": 64,
                "time": 63
            },
            {
                "type": "note_on",
                "note": 73,
                "velocity": 46,
                "time": 0
            },
            {
                "type": "note_on",
                "note": 69,
                "velocity": 30,
                "time": 3
            },
            {
                "type": "note_off",
                "note": 74,
                "velocity": 64,
                "time": 14
            },
            {
                "type": "note_off",
                "note": 71,
                "velocity": 64,
                "time": 17
            },
            {
                "type": "note_on",
                "note": 56,
                "velocity": 39,
                "time": 170
            },
            {
                "type": "note_off",
                "note": 56,
                "velocity": 64,
                "time": 15
            },
            {
                "type": "note_on",
                "note": 57,
                "velocity": 34,
                "time": 5
            },
            {
                "type": "note_off",
                "note": 57,
                "velocity": 64,
                "time": 66
            },
            {
                "type": "note_off",
                "note": 73,
                "velocity": 64,
                "time": 16
            },
            {
                "type": "note_on",
                "note": 76,
                "velocity": 59,
                "time": 154
            },
            {
                "type": "note_on",
                "note": 73,
                "velocity": 50,
                "time": 11
            },
            {
                "type": "note_on",
                "note": 45,
                "velocity": 21,
                "time": 9
            },
            {
                "type": "note_off",
                "note": 69,
                "velocity": 64,
                "time": 55
            },
            {
                "type": "note_on",
                "note": 67,
                "velocity": 63,
                "time": 131
            },
            {
                "type": "note_on",
                "note": 71,
                "velocity": 84,
                "time": 0
            },
            {
                "type": "note_off",
                "note": 76,
                "velocity": 64,
                "time": 8
            },
            {
                "type": "note_off",
                "note": 73,
                "velocity": 64,
                "time": 53
            },
            {
                "type": "note_off",
                "note": 71,
                "velocity": 64,
                "time": 20
            },
            {
                "type": "note_off",
                "note": 45,
                "velocity": 64,
                "time": 77
            },
            {
                "type": "note_on",
                "note": 74,
                "velocity": 80,
                "time": 15
            },
            {
                "type": "note_on",
                "note": 71,
                "velocity": 60,
                "time": 22
            },
            {
                "type": "note_on",
                "note": 49,
                "velocity": 27,
                "time": 6
            },
            {
                "type": "note_off",
                "note": 67,
                "velocity": 64,
                "time": 16
            },
            {
                "type": "note_off",
                "note": 49,
                "velocity": 64,
                "time": 61
            },
            {
                "type": "note_off",
                "note": 74,
                "velocity": 64,
                "time": 28
            },
            {
                "type": "note_on",
                "note": 66,
                "velocity": 45,
                "time": 156
            },
            {
                "type": "note_on",
                "note": 69,
                "velocity": 54,
                "time": 0
            },
            {
                "type": "note_off",
                "note": 71,
                "velocity": 64,
                "time": 3
            },
            {
                "type": "note_on",
                "note": 56,
                "velocity": 34,
                "time": 58
            },
            {
                "type": "note_off",
                "note": 69,
                "velocity": 64,
                "time": 34
            },
            {
                "type": "note_off",
                "note": 56,
                "velocity": 64,
                "time": 23
            },
            {
                "type": "note_on",
                "note": 73,
                "velocity": 54,
                "time": 35
            },
            {
                "type": "note_on",
                "note": 69,
                "velocity": 47,
                "time": 4
            },
            {
                "type": "note_on",
                "note": 57,
                "velocity": 34,
                "time": 7
            },
            {
                "type": "note_off",
                "note": 66,
                "velocity": 64,
                "time": 4
            },
            {
                "type": "note_off",
                "note": 57,
                "velocity": 64,
                "time": 63
            },
            {
                "type": "note_on",
                "note": 71,
                "velocity": 60,
                "time": 223
            },
            {
                "type": "note_on",
                "note": 67,
                "velocity": 39,
                "time": 5
            },
            {
                "type": "note_off",
                "note": 69,
                "velocity": 64,
                "time": 0
            },
            {
                "type": "note_on",
                "note": 45,
                "velocity": 25,
                "time": 3
            },
            {
                "type": "note_off",
                "note": 73,
                "velocity": 64,
                "time": 46
            },
            {
                "type": "note_off",
                "note": 45,
                "velocity": 64,
                "time": 86
            },
            {
                "type": "note_off",
                "note": 71,
                "velocity": 64,
                "time": 17
            },
            {
                "type": "note_on",
                "note": 71,
                "velocity": 49,
                "time": 132
            },
            {
                "type": "note_on",
                "note": 65,
                "velocity": 27,
                "time": 13
            },
            {
                "type": "note_on",
                "note": 50,
                "velocity": 22,
                "time": 14
            },
            {
                "type": "note_off",
                "note": 67,
                "velocity": 64,
                "time": 29
            },
            {
                "type": "note_on",
                "note": 66,
                "velocity": 24,
                "time": 73
            },
            {
                "type": "note_off",
                "note": 65,
                "velocity": 64,
                "time": 3
            },
            {
                "type": "note_on",
                "note": 69,
                "velocity": 27,
                "time": 5
            },
            {
                "type": "note_off",
                "note": 71,
                "velocity": 64,
                "time": 45
            },
            {
                "type": "note_off",
                "note": 50,
                "velocity": 64,
                "time": 72
            },
            {
                "type": "note_on",
                "note": 56,
                "velocity": 16,
                "time": 31
            },
            {
                "type": "note_on",
                "note": 57,
                "velocity": 32,
                "time": 22
            },
            {
                "type": "note_off",
                "note": 56,
                "velocity": 64,
                "time": 13
            },
            {
                "type": "note_off",
                "note": 57,
                "velocity": 64,
                "time": 112
            },
            {
                "type": "note_off",
                "note": 66,
                "velocity": 64,
                "time": 142
            },
            {
                "type": "note_on",
                "note": 74,
                "velocity": 54,
                "time": 29
            },
            {
                "type": "note_on",
                "note": 62,
                "velocity": 22,
                "time": 0
            },
            {
                "type": "note_on",
                "note": 54,
                "velocity": 29,
                "time": 7
            },
            {
                "type": "note_off",
                "note": 69,
                "velocity": 64,
                "time": 50
            },
            {
                "type": "note_off",
                "note": 54,
                "velocity": 64,
                "time": 136
            },
            {
                "type": "note_on",
                "note": 50,
                "velocity": 41,
                "time": 16
            },
            {
                "type": "note_off",
                "note": 74,
                "velocity": 64,
                "time": 17
            },
            {
                "type": "note_off",
                "note": 62,
                "velocity": 64,
                "time": 17
            },
            {
                "type": "note_off",
                "note": 50,
                "velocity": 64,
                "time": 128
            },
            {
                "type": "note_on",
                "note": 64,
                "velocity": 42,
                "time": 31
            },
            {
                "type": "note_on",
                "note": 74,
                "velocity": 58,
                "time": 5
            },
            {
                "type": "note_on",
                "note": 46,
                "velocity": 30,
                "time": 17
            },
            {
                "type": "note_on",
                "note": 65,
                "velocity": 47,
                "time": 307
            },
            {
                "type": "note_off",
                "note": 64,
                "velocity": 64,
                "time": 17
            },
            {
                "type": "note_off",
                "note": 65,
                "velocity": 64,
                "time": 63
            },
            {
                "type": "note_on",
                "note": 69,
                "velocity": 51,
                "time": 51
            },
            {
                "type": "note_off",
                "note": 46,
                "velocity": 64,
                "time": 60
            },
            {
                "type": "note_on",
                "note": 53,
                "velocity": 52,
                "time": 6
            },
            {
                "type": "note_off",
                "note": 53,
                "velocity": 64,
                "time": 42
            },
            {
                "type": "note_off",
                "note": 69,
                "velocity": 64,
                "time": 5
            },
            {
                "type": "note_off",
                "note": 74,
                "velocity": 64,
                "time": 25
            },
            {
                "type": "note_on",
                "note": 70,
                "velocity": 67,
                "time": 85
            },
            {
                "type": "note_on",
                "note": 62,
                "velocity": 36,
                "time": 44
            },
            {
                "type": "note_off",
                "note": 62,
                "velocity": 64,
                "time": 161
            },
            {
                "type": "note_on",
                "note": 74,
                "velocity": 88,
                "time": 17
            },
            {
                "type": "note_on",
                "note": 53,
                "velocity": 68,
                "time": 133
            },
            {
                "type": "note_off",
                "note": 53,
                "velocity": 64,
                "time": 62
            },
            {
                "type": "note_on",
                "note": 76,
                "velocity": 83,
                "time": 44
            },
            {
                "type": "note_off",
                "note": 74,
                "velocity": 64,
                "time": 29
            },
            {
                "type": "note_off",
                "note": 70,
                "velocity": 64,
                "time": 61
            },
            {
                "type": "note_on",
                "note": 41,
                "velocity": 50,
                "time": 119
            },
            {
                "type": "note_on",
                "note": 79,
                "velocity": 77,
                "time": 95
            },
            {
                "type": "note_on",
                "note": 69,
                "velocity": 29,
                "time": 11
            },
            {
                "type": "note_off",
                "note": 76,
                "velocity": 64,
                "time": 20
            },
            {
                "type": "note_on",
                "note": 77,
                "velocity": 77,
                "time": 28
            },
            {
                "type": "note_off",
                "note": 79,
                "velocity": 64,
                "time": 47
            },
            {
                "type": "note_off",
                "note": 77,
                "velocity": 64,
                "time": 83
            },
            {
                "type": "note_off",
                "note": 69,
                "velocity": 64,
                "time": 9
            },
            {
                "type": "note_on",
                "note": 72,
                "velocity": 65,
                "time": 51
            },
            {
                "type": "note_off",
                "note": 72,
                "velocity": 64,
                "time": 38
            },
            {
                "type": "note_on",
                "note": 48,
                "velocity": 24,
                "time": 19
            },
            {
                "type": "note_on",
                "note": 69,
                "velocity": 54,
                "time": 31
            },
            {
                "type": "note_off",
                "note": 69,
                "velocity": 64,
                "time": 39
            },
            {
                "type": "note_off",
                "note": 48,
                "velocity": 64,
                "time": 4
            },
            {
                "type": "note_on",
                "note": 70,
                "velocity": 56,
                "time": 15
            },
            {
                "type": "note_on",
                "note": 69,
                "velocity": 50,
                "time": 46
            },
            {
                "type": "note_on",
                "note": 48,
                "velocity": 10,
                "time": 28
            },
            {
                "type": "note_off",
                "note": 70,
                "velocity": 64,
                "time": 7
            },
            {
                "type": "note_off",
                "note": 41,
                "velocity": 64,
                "time": 7
            },
            {
                "type": "note_off",
                "note": 48,
                "velocity": 64,
                "time": 132
            },
            {
                "type": "note_on",
                "note": 67,
                "velocity": 57,
                "time": 68
            },
            {
                "type": "note_off",
                "note": 69,
                "velocity": 64,
                "time": 70
            },
            {
                "type": "note_on",
                "note": 57,
                "velocity": 34,
                "time": 41
            },
            {
                "type": "note_off",
                "note": 57,
                "velocity": 64,
                "time": 69
            },
            {
                "type": "note_off",
                "note": 67,
                "velocity": 64,
                "time": 18
            },
            {
                "type": "note_on",
                "note": 65,
                "velocity": 66,
                "time": 24
            },
            {
                "type": "note_off",
                "note": 65,
                "velocity": 64,
                "time": 67
            },
            {
                "type": "note_on",
                "note": 70,
                "velocity": 61,
                "time": 142
            },
            {
                "type": "note_on",
                "note": 61,
                "velocity": 69,
                "time": 0
            },
            {
                "type": "note_on",
                "note": 43,
                "velocity": 37,
                "time": 22
            },
            {
                "type": "note_off",
                "note": 61,
                "velocity": 64,
                "time": 17
            },
            {
                "type": "note_on",
                "note": 62,
                "velocity": 63,
                "time": 0
            },
            {
                "type": "note_off",
                "note": 62,
                "velocity": 64,
                "time": 175
            },
            {
                "type": "note_on",
                "note": 66,
                "velocity": 64,
                "time": 21
            },
            {
                "type": "note_on",
                "note": 50,
                "velocity": 44,
                "time": 80
            },
            {
                "type": "note_off",
                "note": 43,
                "velocity": 64,
                "time": 6
            },
            {
                "type": "note_off",
                "note": 50,
                "velocity": 64,
                "time": 49
            },
            {
                "type": "note_on",
                "note": 58,
                "velocity": 48,
                "time": 34
            },
            {
                "type": "note_on",
                "note": 67,
                "velocity": 69,
                "time": 5
            },
            {
                "type": "note_off",
                "note": 66,
                "velocity": 64,
                "time": 9
            },
            {
                "type": "note_off",
                "note": 70,
                "velocity": 64,
                "time": 23
            },
            {
                "type": "note_on",
                "note": 70,
                "velocity": 78,
                "time": 186
            },
            {
                "type": "note_off",
                "note": 58,
                "velocity": 64,
                "time": 17
            },
            {
                "type": "note_on",
                "note": 50,
                "velocity": 57,
                "time": 114
            },
            {
                "type": "note_off",
                "note": 67,
                "velocity": 64,
                "time": 41
            },
            {
                "type": "note_off",
                "note": 50,
                "velocity": 64,
                "time": 17
            },
            {
                "type": "note_on",
                "note": 73,
                "velocity": 78,
                "time": 23
            },
            {
                "type": "note_off",
                "note": 70,
                "velocity": 64,
                "time": 20
            },
            {
                "type": "note_on",
                "note": 38,
                "velocity": 43,
                "time": 166
            },
            {
                "type": "note_on",
                "note": 76,
                "velocity": 63,
                "time": 62
            },
            {
                "type": "note_off",
                "note": 73,
                "velocity": 64,
                "time": 8
            },
            {
                "type": "note_on",
                "note": 66,
                "velocity": 36,
                "time": 8
            },
            {
                "type": "note_off",
                "note": 38,
                "velocity": 64,
                "time": 156
            },
            {
                "type": "note_on",
                "note": 74,
                "velocity": 72,
                "time": 62
            },
            {
                "type": "note_off",
                "note": 76,
                "velocity": 64,
                "time": 19
            },
            {
                "type": "note_off",
                "note": 74,
                "velocity": 64,
                "time": 93
            },
            {
                "type": "note_off",
                "note": 66,
                "velocity": 64,
                "time": 30
            },
            {
                "type": "note_on",
                "note": 65,
                "velocity": 72,
                "time": 50
            },
            {
                "type": "note_on",
                "note": 44,
                "velocity": 39,
                "time": 56
            },
            {
                "type": "note_off",
                "note": 44,
                "velocity": 64,
                "time": 109
            },
            {
                "type": "note_on",
                "note": 66,
                "velocity": 65,
                "time": 13
            },
            {
                "type": "note_on",
                "note": 45,
                "velocity": 37,
                "time": 8
            },
            {
                "type": "note_off",
                "note": 65,
                "velocity": 64,
                "time": 4
            },
            {
                "type": "note_off",
                "note": 45,
                "velocity": 64,
                "time": 17
            },
            {
                "type": "note_on",
                "note": 69,
                "velocity": 42,
                "time": 36
            },
            {
                "type": "note_on",
                "note": 58,
                "velocity": 31,
                "time": 56
            },
            {
                "type": "note_on",
                "note": 67,
                "velocity": 59,
                "time": 23
            },
            {
                "type": "note_off",
                "note": 66,
                "velocity": 64,
                "time": 16
            },
            {
                "type": "note_on",
                "note": 62,
                "velocity": 43,
                "time": 0
            },
            {
                "type": "note_off",
                "note": 69,
                "velocity": 64,
                "time": 47
            },
            {
                "type": "note_off",
                "note": 58,
                "velocity": 64,
                "time": 75
            },
            {
                "type": "note_on",
                "note": 57,
                "velocity": 36,
                "time": 106
            },
            {
                "type": "note_on",
                "note": 66,
                "velocity": 58,
                "time": 21
            },
            {
                "type": "note_off",
                "note": 62,
                "velocity": 64,
                "time": 4
            },
            {
                "type": "note_off",
                "note": 67,
                "velocity": 64,
                "time": 31
            },
            {
                "type": "note_off",
                "note": 57,
                "velocity": 64,
                "time": 78
            },
            {
                "type": "note_off",
                "note": 66,
                "velocity": 64,
                "time": 22
            },
            {
                "type": "note_on",
                "note": 66,
                "velocity": 58,
                "time": 115
            },
            {
                "type": "note_on",
                "note": 63,
                "velocity": 60,
                "time": 11
            },
            {
                "type": "note_on",
                "note": 47,
                "velocity": 16,
                "time": 3
            },
            {
                "type": "note_on",
                "note": 60,
                "velocity": 55,
                "time": 0
            },
            {
                "type": "note_on",
                "note": 57,
                "velocity": 41,
                "time": 8
            },
            {
                "type": "note_on",
                "note": 67,
                "velocity": 71,
                "time": 9
            },
            {
                "type": "note_off",
                "note": 66,
                "velocity": 64,
                "time": 81
            },
            {
                "type": "note_on",
                "note": 69,
                "velocity": 47,
                "time": 79
            },
            {
                "type": "note_off",
                "note": 67,
                "velocity": 64,
                "time": 26
            },
            {
                "type": "note_on",
                "note": 67,
                "velocity": 43,
                "time": 51
            },
            {
                "type": "note_off",
                "note": 69,
                "velocity": 64,
                "time": 21
            },
            {
                "type": "note_off",
                "note": 67,
                "velocity": 64,
                "time": 151
            },
            {
                "type": "note_on",
                "note": 66,
                "velocity": 42,
                "time": 3
            },
            {
                "type": "note_off",
                "note": 57,
                "velocity": 64,
                "time": 0
            },
            {
                "type": "note_off",
                "note": 66,
                "velocity": 64,
                "time": 11
            },
            {
                "type": "note_off",
                "note": 60,
                "velocity": 64,
                "time": 71
            },
            {
                "type": "note_on",
                "note": 52,
                "velocity": 21,
                "time": 138
            },
            {
                "type": "note_on",
                "note": 66,
                "velocity": 40,
                "time": 55
            },
            {
                "type": "note_on",
                "note": 59,
                "velocity": 27,
                "time": 5
            },
            {
                "type": "note_on",
                "note": 57,
                "velocity": 16,
                "time": 17
            },
            {
                "type": "note_off",
                "note": 63,
                "velocity": 64,
                "time": 58
            },
            {
                "type": "note_off",
                "note": 47,
                "velocity": 64,
                "time": 117
            },
            {
                "type": "note_on",
                "note": 71,
                "velocity": 45,
                "time": 207
            },
            {
                "type": "note_off",
                "note": 66,
                "velocity": 64,
                "time": 52
            },
            {
                "type": "note_on",
                "note": 66,
                "velocity": 31,
                "time": 145
            },
            {
                "type": "note_off",
                "note": 71,
                "velocity": 64,
                "time": 28
            },
            {
                "type": "note_off",
                "note": 57,
                "velocity": 64,
                "time": 103
            },
            {
                "type": "note_on",
                "note": 64,
                "velocity": 24,
                "time": 50
            },
            {
                "type": "note_on",
                "note": 55,
                "velocity": 13,
                "time": 27
            },
            {
                "type": "note_off",
                "note": 66,
                "velocity": 64,
                "time": 81
            },
            {
                "type": "note_off",
                "note": 52,
                "velocity": 64,
                "time": 216
            },
            {
                "type": "note_off",
                "note": 55,
                "velocity": 64,
                "time": 34
            },
            {
                "type": "note_off",
                "note": 64,
                "velocity": 64,
                "time": 69
            },
            {
                "type": "note_off",
                "note": 59,
                "velocity": 64,
                "time": 37
            },
            {
                "type": "note_on",
                "note": 45,
                "velocity": 32,
                "time": 529
            },
            {
                "type": "note_on",
                "note": 61,
                "velocity": 38,
                "time": 346
            },
            {
                "type": "note_on",
                "note": 67,
                "velocity": 57,
                "time": 0
            },
            {
                "type": "note_on",
                "note": 58,
                "velocity": 36,
                "time": 11
            },
            {
                "type": "note_off",
                "note": 58,
                "velocity": 64,
                "time": 382
            },
            {
                "type": "note_on",
                "note": 66,
                "velocity": 39,
                "time": 35
            },
            {
                "type": "note_on",
                "note": 57,
                "velocity": 31,
                "time": 18
            },
            {
                "type": "note_off",
                "note": 67,
                "velocity": 64,
                "time": 14
            },
            {
                "type": "note_off",
                "note": 57,
                "velocity": 64,
                "time": 19
            },
            {
                "type": "note_off",
                "note": 66,
                "velocity": 64,
                "time": 25
            },
            {
                "type": "note_on",
                "note": 66,
                "velocity": 27,
                "time": 215
            },
            {
                "type": "note_on",
                "note": 57,
                "velocity": 17,
                "time": 25
            },
            {
                "type": "note_on",
                "note": 64,
                "velocity": 25,
                "time": 654
            },
            {
                "type": "note_on",
                "note": 55,
                "velocity": 17,
                "time": 22
            },
            {
                "type": "note_off",
                "note": 66,
                "velocity": 64,
                "time": 39
            },
            {
                "type": "note_off",
                "note": 55,
                "velocity": 64,
                "time": 44
            },
            {
                "type": "note_off",
                "note": 45,
                "velocity": 64,
                "time": 168
            },
            {
                "type": "note_on",
                "note": 38,
                "velocity": 20,
                "time": 802
            },
            {
                "type": "note_off",
                "note": 57,
                "velocity": 64,
                "time": 38
            },
            {
                "type": "note_off",
                "note": 64,
                "velocity": 64,
                "time": 23
            },
            {
                "type": "note_off",
                "note": 61,
                "velocity": 64,
                "time": 24
            },
            {
                "type": "note_on",
                "note": 57,
                "velocity": 15,
                "time": 284
            },
            {
                "type": "note_off",
                "note": 57,
                "velocity": 64,
                "time": 152
            },
            {
                "type": "note_on",
                "note": 69,
                "velocity": 12,
                "time": 20
            },
            {
                "type": "note_on",
                "note": 66,
                "velocity": 13,
                "time": 6
            },
            {
                "type": "note_on",
                "note": 62,
                "velocity": 18,
                "time": 9
            },
            {
                "type": "note_off",
                "note": 38,
                "velocity": 64,
                "time": 85
            },
            {
                "type": "note_on",
                "note": 33,
                "velocity": 21,
                "time": 0
            },
            {
                "type": "note_off",
                "note": 33,
                "velocity": 64,
                "time": 55
            },
            {
                "type": "note_on",
                "note": 38,
                "velocity": 18,
                "time": 62
            },
            {
                "type": "note_off",
                "note": 62,
                "velocity": 64,
                "time": 6
            },
            {
                "type": "note_off",
                "note": 66,
                "velocity": 64,
                "time": 107
            },
            {
                "type": "note_off",
                "note": 69,
                "velocity": 64,
                "time": 0
            },
            {
                "type": "note_on",
                "note": 57,
                "velocity": 18,
                "time": 463
            },
            {
                "type": "note_off",
                "note": 57,
                "velocity": 64,
                "time": 97
            },
            {
                "type": "note_on",
                "note": 69,
                "velocity": 15,
                "time": 106
            },
            {
                "type": "note_on",
                "note": 66,
                "velocity": 2,
                "time": 8
            },
            {
                "type": "note_on",
                "note": 62,
                "velocity": 5,
                "time": 0
            },
            {
                "type": "note_off",
                "note": 38,
                "velocity": 64,
                "time": 75
            },
            {
                "type": "note_on",
                "note": 33,
                "velocity": 26,
                "time": 81
            },
            {
                "type": "note_off",
                "note": 69,
                "velocity": 64,
                "time": 14
            },
            {
                "type": "note_off",
                "note": 33,
                "velocity": 64,
                "time": 4
            },
            {
                "type": "note_off",
                "note": 62,
                "velocity": 64,
                "time": 13
            },
            {
                "type": "note_off",
                "note": 66,
                "velocity": 64,
                "time": 28
            },
            {
                "type": "note_on",
                "note": 66,
                "velocity": 26,
                "time": 680
            },
            {
                "type": "note_on",
                "note": 54,
                "velocity": 22,
                "time": 20
            },
            {
                "type": "note_on",
                "note": 62,
                "velocity": 18,
                "time": 11
            },
            {
                "type": "note_on",
                "note": 57,
                "velocity": 14,
                "time": 0
            },
            {
                "type": "note_on",
                "note": 45,
                "velocity": 10,
                "time": 3
            },
            {
                "type": "note_on",
                "note": 38,
                "velocity": 13,
                "time": 0
            },
            {
                "type": "note_on",
                "note": 50,
                "velocity": 11,
                "time": 11
            },
            {
                "type": "note_off",
                "note": 54,
                "velocity": 64,
                "time": 87
            },
            {
                "type": "note_off",
                "note": 38,
                "velocity": 64,
                "time": 24
            },
            {
                "type": "note_off",
                "note": 57,
                "velocity": 64,
                "time": 15
            },
            {
                "type": "note_off",
                "note": 50,
                "velocity": 64,
                "time": 16
            },
            {
                "type": "note_off",
                "note": 62,
                "velocity": 64,
                "time": 23
            },
            {
                "type": "note_off",
                "note": 45,
                "velocity": 64,
                "time": 3
            },
            {
                "type": "note_off",
                "note": 66,
                "velocity": 64,
                "time": 27
            },
            {
                "type": "note_on",
                "note": 62,
                "velocity": 4,
                "time": 613
            },
            {
                "type": "note_off",
                "note": 62,
                "velocity": 64,
                "time": 67
            },
            {
                "type": "note_on",
                "note": 69,
                "velocity": 2,
                "time": 65
            },
            {
                "type": "note_off",
                "note": 69,
                "velocity": 64,
                "time": 121
            },
            {
                "type": "note_on",
                "note": 86,
                "velocity": 20,
                "time": 124
            },
            {
                "type": "note_on",
                "note": 81,
                "velocity": 20,
                "time": 7
            },
            {
                "type": "note_on",
                "note": 74,
                "velocity": 11,
                "time": 7
            },
            {
                "type": "note_on",
                "note": 78,
                "velocity": 22,
                "time": 4
            },
            {
                "type": "note_off",
                "note": 78,
                "velocity": 64,
                "time": 132
            },
            {
                "type": "note_off",
                "note": 74,
                "velocity": 64,
                "time": 117
            },
            {
                "type": "note_off",
                "note": 81,
                "velocity": 64,
                "time": 215
            },
            {
                "type": "note_off",
                "note": 86,
                "velocity": 64,
                "time": 135
            }
        ]
    }
]