[
    {
        "track": 0,
        "notes": []
    },
    {
        "track": 1,
        "notes": [
            {
                "type": "note_on",
                "note": 31,
                "velocity": 106,
                "time": 3830
            },
            {
                "type": "note_on",
                "note": 43,
                "velocity": 97,
                "time": 2
            },
            {
                "type": "note_on",
                "note": 55,
                "velocity": 91,
                "time": 0
            },
            {
                "type": "note_on",
                "note": 58,
                "velocity": 81,
                "time": 2
            },
            {
                "type": "note_on",
                "note": 62,
                "velocity": 96,
                "time": 2
            },
            {
                "type": "note_on",
                "note": 55,
                "velocity": 0,
                "time": 78
            },
            {
                "type": "note_on",
                "note": 62,
                "velocity": 0,
                "time": 2
            },
            {
                "type": "note_on",
                "note": 55,
                "velocity": 93,
                "time": 0
            },
            {
                "type": "note_on",
                "note": 58,
                "velocity": 0,
                "time": 2
            },
            {
                "type": "note_on",
                "note": 58,
                "velocity": 90,
                "time": 94
            },
            {
                "type": "note_on",
                "note": 55,
                "velocity": 0,
                "time": 4
            },
            {
                "type": "note_on",
                "note": 62,
                "velocity": 97,
                "time": 92
            },
            {
                "type": "note_on",
                "note": 58,
                "velocity": 0,
                "time": 2
            },
            {
                "type": "note_on",
                "note": 67,
                "velocity": 105,
                "time": 94
            },
            {
                "type": "note_on",
                "note": 62,
                "velocity": 0,
                "time": 2
            },
            {
                "type": "note_on",
                "note": 67,
                "velocity": 0,
                "time": 92
            },
            {
                "type": "note_on",
                "note": 62,
                "velocity": 101,
                "time": 2
            },
            {
                "type": "note_on",
                "note": 58,
                "velocity": 88,
                "time": 96
            },
            {
                "type": "note_on",
                "note": 62,
                "velocity": 0,
                "time": 40
            },
            {
                "type": "note_on",
                "note": 31,
                "velocity": 0,
                "time": 38
            },
            {
                "type": "note_on",
                "note": 43,
                "velocity": 0,
                "time": 8
            },
            {
                "type": "note_on",
                "note": 58,
                "velocity": 0,
                "time": 6
            },
            {
                "type": "note_on",
                "note": 55,
                "velocity": 87,
                "time": 4
            },
            {
                "type": "note_on",
                "note": 55,
                "velocity": 0,
                "time": 20
            },
            {
                "type": "note_on",
                "note": 34,
                "velocity": 97,
                "time": 62
            },
            {
                "type": "note_on",
                "note": 46,
                "velocity": 91,
                "time": 6
            },
            {
                "type": "note_on",
                "note": 56,
                "velocity": 80,
                "time": 0
            },
            {
                "type": "note_on",
                "note": 58,
                "velocity": 93,
                "time": 4
            },
            {
                "type": "note_on",
                "note": 62,
                "velocity": 89,
                "time": 6
            },
            {
                "type": "note_on",
                "note": 65,
                "velocity": 96,
                "time": 4
            },
            {
                "type": "note_on",
                "note": 62,
                "velocity": 0,
                "time": 326
            },
            {
                "type": "note_on",
                "note": 56,
                "velocity": 0,
                "time": 6
            },
            {
                "type": "note_on",
                "note": 65,
                "velocity": 0,
                "time": 0
            },
            {
                "type": "note_on",
                "note": 58,
                "velocity": 0,
                "time": 10
            },
            {
                "type": "note_on",
                "note": 34,
                "velocity": 0,
                "time": 306
            },
            {
                "type": "note_on",
                "note": 46,
                "velocity": 0,
                "time": 6
            },
            {
                "type": "note_on",
                "note": 51,
                "velocity": 100,
                "time": 82
            },
            {
                "type": "note_on",
                "note": 39,
                "velocity": 88,
                "time": 0
            },
            {
                "type": "note_on",
                "note": 63,
                "velocity": 81,
                "time": 0
            },
            {
                "type": "note_on",
                "note": 67,
                "velocity": 99,
                "time": 0
            },
            {
                "type": "note_on",
                "note": 63,
                "velocity": 0,
                "time": 4
            },
            {
                "type": "note_on",
                "note": 67,
                "velocity": 0,
                "time": 34
            },
            {
                "type": "note_on",
                "note": 63,
                "velocity": 91,
                "time": 4
            },
            {
                "type": "note_on",
                "note": 67,
                "velocity": 104,
                "time": 96
            },
            {
                "type": "note_on",
                "note": 63,
                "velocity": 0,
                "time": 14
            },
            {
                "type": "note_on",
                "note": 67,
                "velocity": 0,
                "time": 62
            },
            {
                "type": "note_on",
                "note": 70,
                "velocity": 81,
                "time": 20
            },
            {
                "type": "note_on",
                "note": 70,
                "velocity": 0,
                "time": 34
            },
            {
                "type": "note_on",
                "note": 72,
                "velocity": 102,
                "time": 20
            },
            {
                "type": "note_on",
                "note": 63,
                "velocity": 85,
                "time": 0
            },
            {
                "type": "note_on",
                "note": 68,
                "velocity": 88,
                "time": 0
            },
            {
                "type": "note_on",
                "note": 68,
                "velocity": 0,
                "time": 36
            },
            {
                "type": "note_on",
                "note": 72,
                "velocity": 0,
                "time": 36
            },
            {
                "type": "note_on",
                "note": 63,
                "velocity": 0,
                "time": 18
            },
            {
                "type": "note_on",
                "note": 75,
                "velocity": 107,
                "time": 6
            },
            {
                "type": "note_on",
                "note": 75,
                "velocity": 0,
                "time": 84
            },
            {
                "type": "note_on",
                "note": 67,
                "velocity": 103,
                "time": 12
            },
            {
                "type": "note_on",
                "note": 70,
                "velocity": 89,
                "time": 0
            },
            {
                "type": "note_on",
                "note": 39,
                "velocity": 0,
                "time": 8
            },
            {
                "type": "note_on",
                "note": 51,
                "velocity": 0,
                "time": 0
            },
            {
                "type": "note_on",
                "note": 67,
                "velocity": 0,
                "time": 84
            },
            {
                "type": "note_on",
                "note": 75,
                "velocity": 101,
                "time": 4
            },
            {
                "type": "note_on",
                "note": 70,
                "velocity": 0,
                "time": 4
            },
            {
                "type": "note_on",
                "note": 75,
                "velocity": 0,
                "time": 8
            },
            {
                "type": "note_on",
                "note": 48,
                "velocity": 96,
                "time": 84
            },
            {
                "type": "note_on",
                "note": 67,
                "velocity": 97,
                "time": 0
            },
            {
                "type": "note_on",
                "note": 70,
                "velocity": 84,
                "time": 0
            },
            {
                "type": "note_on",
                "note": 36,
                "velocity": 96,
                "time": 0
            },
            {
                "type": "note_on",
                "note": 63,
                "velocity": 85,
                "time": 0
            },
            {
                "type": "note_on",
                "note": 60,
                "velocity": 84,
                "time": 0
            },
            {
                "type": "note_on",
                "note": 70,
                "velocity": 0,
                "time": 42
            },
            {
                "type": "note_on",
                "note": 67,
                "velocity": 0,
                "time": 2
            },
            {
                "type": "note_on",
                "note": 60,
                "velocity": 0,
                "time": 2
            },
            {
                "type": "note_on",
                "note": 63,
                "velocity": 0,
                "time": 2
            },
            {
                "type": "note_on",
                "note": 70,
                "velocity": 79,
                "time": 100
            },
            {
                "type": "note_on",
                "note": 63,
                "velocity": 84,
                "time": 0
            },
            {
                "type": "note_on",
                "note": 67,
                "velocity": 102,
                "time": 0
            },
            {
                "type": "note_on",
                "note": 60,
                "velocity": 81,
                "time": 0
            },
            {
                "type": "note_on",
                "note": 67,
                "velocity": 0,
                "time": 24
            },
            {
                "type": "note_on",
                "note": 70,
                "velocity": 0,
                "time": 2
            },
            {
                "type": "note_on",
                "note": 63,
                "velocity": 0,
                "time": 2
            },
            {
                "type": "note_on",
                "note": 60,
                "velocity": 0,
                "time": 2
            },
            {
                "type": "note_on",
                "note": 67,
                "velocity": 90,
                "time": 66
            },
            {
                "type": "note_on",
                "note": 60,
                "velocity": 80,
                "time": 0
            },
            {
                "type": "note_on",
                "note": 63,
                "velocity": 83,
                "time": 0
            },
            {
                "type": "note_on",
                "note": 63,
                "velocity": 0,
                "time": 30
            },
            {
                "type": "note_on",
                "note": 60,
                "velocity": 0,
                "time": 0
            },
            {
                "type": "note_on",
                "note": 67,
                "velocity": 0,
                "time": 4
            },
            {
                "type": "note_on",
                "note": 63,
                "velocity": 80,
                "time": 94
            },
            {
                "type": "note_on",
                "note": 70,
                "velocity": 92,
                "time": 0
            },
            {
                "type": "note_on",
                "note": 67,
                "velocity": 93,
                "time": 0
            },
            {
                "type": "note_on",
                "note": 60,
                "velocity": 70,
                "time": 0
            },
            {
                "type": "note_on",
                "note": 36,
                "velocity": 0,
                "time": 2
            },
            {
                "type": "note_on",
                "note": 48,
                "velocity": 0,
                "time": 6
            },
            {
                "type": "note_on",
                "note": 67,
                "velocity": 0,
                "time": 108
            },
            {
                "type": "note_on",
                "note": 70,
                "velocity": 0,
                "time": 6
            },
            {
                "type": "note_on",
                "note": 63,
                "velocity": 0,
                "time": 4
            },
            {
                "type": "note_on",
                "note": 60,
                "velocity": 0,
                "time": 2
            },
            {
                "type": "note_on",
                "note": 60,
                "velocity": 80,
                "time": 160
            },
            {
                "type": "note_on",
                "note": 65,
                "velocity": 97,
                "time": 0
            },
            {
                "type": "note_on",
                "note": 41,
                "velocity": 82,
                "time": 0
            },
            {
                "type": "note_on",
                "note": 53,
                "velocity": 90,
                "time": 0
            },
            {
                "type": "note_on",
                "note": 63,
                "velocity": 82,
                "time": 0
            },
            {
                "type": "note_on",
                "note": 63,
                "velocity": 0,
                "time": 146
            },
            {
                "type": "note_on",
                "note": 65,
                "velocity": 0,
                "time": 8
            },
            {
                "type": "note_on",
                "note": 60,
                "velocity": 0,
                "time": 6
            },
            {
                "type": "note_on",
                "note": 67,
                "velocity": 58,
                "time": 6
            },
            {
                "type": "note_on",
                "note": 67,
                "velocity": 0,
                "time": 18
            },
            {
                "type": "note_on",
                "note": 65,
                "velocity": 100,
                "time": 78
            },
            {
                "type": "note_on",
                "note": 69,
                "velocity": 89,
                "time": 0
            },
            {
                "type": "note_on",
                "note": 60,
                "velocity": 80,
                "time": 0
            },
            {
                "type": "note_on",
                "note": 63,
                "velocity": 82,
                "time": 0
            },
            {
                "type": "note_on",
                "note": 63,
                "velocity": 0,
                "time": 112
            },
            {
                "type": "note_on",
                "note": 65,
                "velocity": 0,
                "time": 8
            },
            {
                "type": "note_on",
                "note": 60,
                "velocity": 0,
                "time": 4
            },
            {
                "type": "note_on",
                "note": 69,
                "velocity": 0,
                "time": 4
            },
            {
                "type": "note_on",
                "note": 66,
                "velocity": 66,
                "time": 328
            },
            {
                "type": "note_on",
                "note": 71,
                "velocity": 75,
                "time": 0
            },
            {
                "type": "note_on",
                "note": 63,
                "velocity": 55,
                "time": 0
            },
            {
                "type": "note_on",
                "note": 53,
                "velocity": 0,
                "time": 2
            },
            {
                "type": "note_on",
                "note": 41,
                "velocity": 0,
                "time": 2
            },
            {
                "type": "note_on",
                "note": 71,
                "velocity": 0,
                "time": 50
            },
            {
                "type": "note_on",
                "note": 66,
                "velocity": 0,
                "time": 0
            },
            {
                "type": "note_on",
                "note": 63,
                "velocity": 0,
                "time": 6
            },
            {
                "type": "note_on",
                "note": 70,
                "velocity": 67,
                "time": 104
            },
            {
                "type": "note_on",
                "note": 62,
                "velocity": 72,
                "time": 0
            },
            {
                "type": "note_on",
                "note": 65,
                "velocity": 71,
                "time": 0
            },
            {
                "type": "note_on",
                "note": 62,
                "velocity": 0,
                "time": 34
            },
            {
                "type": "note_on",
                "note": 65,
                "velocity": 0,
                "time": 2
            },
            {
                "type": "note_on",
                "note": 70,
                "velocity": 0,
                "time": 4
            },
            {
                "type": "note_on",
                "note": 61,
                "velocity": 38,
                "time": 152
            },
            {
                "type": "note_on",
                "note": 64,
                "velocity": 75,
                "time": 0
            },
            {
                "type": "note_on",
                "note": 69,
                "velocity": 69,
                "time": 0
            },
            {
                "type": "note_on",
                "note": 61,
                "velocity": 0,
                "time": 28
            },
            {
                "type": "note_on",
                "note": 64,
                "velocity": 0,
                "time": 2
            },
            {
                "type": "note_on",
                "note": 69,
                "velocity": 0,
                "time": 2
            },
            {
                "type": "note_on",
                "note": 70,
                "velocity": 73,
                "time": 160
            },
            {
                "type": "note_on",
                "note": 65,
                "velocity": 70,
                "time": 0
            },
            {
                "type": "note_on",
                "note": 62,
                "velocity": 75,
                "time": 0
            },
            {
                "type": "note_on",
                "note": 62,
                "velocity": 0,
                "time": 28
            },
            {
                "type": "note_on",
                "note": 65,
                "velocity": 0,
                "time": 4
            },
            {
                "type": "note_on",
                "note": 70,
                "velocity": 0,
                "time": 4
            },
            {
                "type": "note_on",
                "note": 66,
                "velocity": 87,
                "time": 4
            },
            {
                "type": "note_on",
                "note": 63,
                "velocity": 82,
                "time": 0
            },
            {
                "type": "note_on",
                "note": 71,
                "velocity": 98,
                "time": 0
            },
            {
                "type": "note_on",
                "note": 66,
                "velocity": 0,
                "time": 54
            },
            {
                "type": "note_on",
                "note": 71,
                "velocity": 0,
                "time": 2
            },
            {
                "type": "note_on",
                "note": 63,
                "velocity": 0,
                "time": 2
            },
            {
                "type": "note_on",
                "note": 62,
                "velocity": 83,
                "time": 110
            },
            {
                "type": "note_on",
                "note": 70,
                "velocity": 71,
                "time": 0
            },
            {
                "type": "note_on",
                "note": 65,
                "velocity": 84,
                "time": 0
            },
            {
                "type": "note_on",
                "note": 70,
                "velocity": 0,
                "time": 48
            },
            {
                "type": "note_on",
                "note": 62,
                "velocity": 0,
                "time": 0
            },
            {
                "type": "note_on",
                "note": 65,
                "velocity": 0,
                "time": 2
            },
            {
                "type": "note_on",
                "note": 69,
                "velocity": 91,
                "time": 142
            },
            {
                "type": "note_on",
                "note": 61,
                "velocity": 76,
                "time": 0
            },
            {
                "type": "note_on",
                "note": 64,
                "velocity": 98,
                "time": 0
            },
            {
                "type": "note_on",
                "note": 69,
                "velocity": 0,
                "time": 38
            },
            {
                "type": "note_on",
                "note": 64,
                "velocity": 0,
                "time": 2
            },
            {
                "type": "note_on",
                "note": 61,
                "velocity": 0,
                "time": 0
            },
            {
                "type": "note_on",
                "note": 65,
                "velocity": 91,
                "time": 152
            },
            {
                "type": "note_on",
                "note": 70,
                "velocity": 86,
                "time": 0
            },
            {
                "type": "note_on",
                "note": 62,
                "velocity": 86,
                "time": 0
            },
            {
                "type": "note_on",
                "note": 62,
                "velocity": 0,
                "time": 30
            },
            {
                "type": "note_on",
                "note": 65,
                "velocity": 0,
                "time": 0
            },
            {
                "type": "note_on",
                "note": 70,
                "velocity": 0,
                "time": 10
            },
            {
                "type": "note_on",
                "note": 51,
                "velocity": 84,
                "time": 152
            },
            {
                "type": "note_on",
                "note": 39,
                "velocity": 80,
                "time": 0
            },
            {
                "type": "note_on",
                "note": 67,
                "velocity": 111,
                "time": 0
            },
            {
                "type": "note_on",
                "note": 63,
                "velocity": 93,
                "time": 0
            },
            {
                "type": "note_on",
                "note": 63,
                "velocity": 0,
                "time": 16
            },
            {
                "type": "note_on",
                "note": 67,
                "velocity": 0,
                "time": 32
            },
            {
                "type": "note_on",
                "note": 63,
                "velocity": 105,
                "time": 6
            },
            {
                "type": "note_on",
                "note": 63,
                "velocity": 0,
                "time": 38
            },
            {
                "type": "note_on",
                "note": 75,
                "velocity": 86,
                "time": 58
            },
            {
                "type": "note_on",
                "note": 67,
                "velocity": 107,
                "time": 0
            },
            {
                "type": "note_on",
                "note": 70,
                "velocity": 95,
                "time": 0
            },
            {
                "type": "note_on",
                "note": 70,
                "velocity": 0,
                "time": 40
            },
            {
                "type": "note_on",
                "note": 75,
                "velocity": 0,
                "time": 26
            },
            {
                "type": "note_on",
                "note": 67,
                "velocity": 0,
                "time": 16
            },
            {
                "type": "note_on",
                "note": 63,
                "velocity": 98,
                "time": 14
            },
            {
                "type": "note_on",
                "note": 39,
                "velocity": 0,
                "time": 12
            },
            {
                "type": "note_on",
                "note": 63,
                "velocity": 0,
                "time": 6
            },
            {
                "type": "note_on",
                "note": 51,
                "velocity": 0,
                "time": 0
            },
            {
                "type": "note_on",
                "note": 38,
                "velocity": 94,
                "time": 78
            },
            {
                "type": "note_on",
                "note": 50,
                "velocity": 89,
                "time": 0
            },
            {
                "type": "note_on",
                "note": 62,
                "velocity": 98,
                "time": 0
            },
            {
                "type": "note_on",
                "note": 65,
                "velocity": 100,
                "time": 0
            },
            {
                "type": "note_on",
                "note": 62,
                "velocity": 0,
                "time": 24
            },
            {
                "type": "note_on",
                "note": 65,
                "velocity": 0,
                "time": 34
            },
            {
                "type": "note_on",
                "note": 62,
                "velocity": 95,
                "time": 10
            },
            {
                "type": "note_on",
                "note": 62,
                "velocity": 0,
                "time": 32
            },
            {
                "type": "note_on",
                "note": 70,
                "velocity": 93,
                "time": 64
            },
            {
                "type": "note_on",
                "note": 65,
                "velocity": 105,
                "time": 0
            },
            {
                "type": "note_on",
                "note": 50,
                "velocity": 0,
                "time": 72
            },
            {
                "type": "note_on",
                "note": 38,
                "velocity": 0,
                "time": 0
            },
            {
                "type": "note_on",
                "note": 70,
                "velocity": 0,
                "time": 14
            },
            {
                "type": "note_on",
                "note": 65,
                "velocity": 0,
                "time": 10
            },
            {
                "type": "note_on",
                "note": 62,
                "velocity": 95,
                "time": 0
            },
            {
                "type": "note_on",
                "note": 62,
                "velocity": 0,
                "time": 16
            },
            {
                "type": "note_on",
                "note": 49,
                "velocity": 85,
                "time": 2
            },
            {
                "type": "note_on",
                "note": 37,
                "velocity": 88,
                "time": 0
            },
            {
                "type": "note_on",
                "note": 64,
                "velocity": 97,
                "time": 0
            },
            {
                "type": "note_on",
                "note": 61,
                "velocity": 89,
                "time": 0
            },
            {
                "type": "note_on",
                "note": 67,
                "velocity": 97,
                "time": 0
            },
            {
                "type": "note_on",
                "note": 70,
                "velocity": 91,
                "time": 96
            },
            {
                "type": "note_on",
                "note": 67,
                "velocity": 0,
                "time": 94
            },
            {
                "type": "note_on",
                "note": 61,
                "velocity": 0,
                "time": 0
            },
            {
                "type": "note_on",
                "note": 64,
                "velocity": 0,
                "time": 0
            },
            {
                "type": "note_on",
                "note": 64,
                "velocity": 99,
                "time": 2
            },
            {
                "type": "note_on",
                "note": 61,
                "velocity": 90,
                "time": 0
            },
            {
                "type": "note_on",
                "note": 67,
                "velocity": 103,
                "time": 0
            },
            {
                "type": "note_on",
                "note": 70,
                "velocity": 0,
                "time": 94
            },
            {
                "type": "note_on",
                "note": 70,
                "velocity": 107,
                "time": 2
            },
            {
                "type": "note_on",
                "note": 70,
                "velocity": 0,
                "time": 94
            },
            {
                "type": "note_on",
                "note": 67,
                "velocity": 0,
                "time": 0
            },
            {
                "type": "note_on",
                "note": 64,
                "velocity": 0,
                "time": 0
            },
            {
                "type": "note_on",
                "note": 37,
                "velocity": 0,
                "time": 0
            },
            {
                "type": "note_on",
                "note": 49,
                "velocity": 0,
                "time": 0
            },
            {
                "type": "note_on",
                "note": 61,
                "velocity": 0,
                "time": 0
            },
            {
                "type": "note_on",
                "note": 65,
                "velocity": 103,
                "time": 2
            },
            {
                "type": "note_on",
                "note": 36,
                "velocity": 93,
                "time": 0
            },
            {
                "type": "note_on",
                "note": 48,
                "velocity": 93,
                "time": 0
            },
            {
                "type": "note_on",
                "note": 60,
                "velocity": 86,
                "time": 0
            },
            {
                "type": "note_on",
                "note": 63,
                "velocity": 92,
                "time": 0
            },
            {
                "type": "note_on",
                "note": 63,
                "velocity": 0,
                "time": 116
            },
            {
                "type": "note_on",
                "note": 60,
                "velocity": 0,
                "time": 2
            },
            {
                "type": "note_on",
                "note": 65,
                "velocity": 0,
                "time": 8
            },
            {
                "type": "note_on",
                "note": 63,
                "velocity": 85,
                "time": 66
            },
            {
                "type": "note_on",
                "note": 60,
                "velocity": 74,
                "time": 0
            },
            {
                "type": "note_on",
                "note": 65,
                "velocity": 99,
                "time": 0
            },
            {
                "type": "note_on",
                "note": 69,
                "velocity": 89,
                "time": 0
            },
            {
                "type": "note_on",
                "note": 60,
                "velocity": 0,
                "time": 230
            },
            {
                "type": "note_on",
                "note": 63,
                "velocity": 0,
                "time": 12
            },
            {
                "type": "note_on",
                "note": 65,
                "velocity": 0,
                "time": 42
            },
            {
                "type": "note_on",
                "note": 60,
                "velocity": 84,
                "time": 0
            },
            {
                "type": "note_on",
                "note": 69,
                "velocity": 0,
                "time": 12
            },
            {
                "type": "note_on",
                "note": 63,
                "velocity": 87,
                "time": 84
            },
            {
                "type": "note_on",
                "note": 60,
                "velocity": 0,
                "time": 88
            },
            {
                "type": "note_on",
                "note": 63,
                "velocity": 0,
                "time": 2
            },
            {
                "type": "note_on",
                "note": 65,
                "velocity": 96,
                "time": 6
            },
            {
                "type": "note_on",
                "note": 65,
                "velocity": 0,
                "time": 18
            },
            {
                "type": "note_on",
                "note": 69,
                "velocity": 86,
                "time": 74
            },
            {
                "type": "note_on",
                "note": 72,
                "velocity": 95,
                "time": 6
            },
            {
                "type": "note_on",
                "note": 75,
                "velocity": 98,
                "time": 8
            },
            {
                "type": "note_on",
                "note": 69,
                "velocity": 0,
                "time": 16
            },
            {
                "type": "note_on",
                "note": 75,
                "velocity": 0,
                "time": 10
            },
            {
                "type": "note_on",
                "note": 72,
                "velocity": 0,
                "time": 4
            },
            {
                "type": "note_on",
                "note": 63,
                "velocity": 42,
                "time": 56
            },
            {
                "type": "note_on",
                "note": 63,
                "velocity": 0,
                "time": 96
            },
            {
                "type": "note_on",
                "note": 36,
                "velocity": 0,
                "time": 62
            },
            {
                "type": "note_on",
                "note": 48,
                "velocity": 0,
                "time": 0
            },
            {
                "type": "note_on",
                "note": 46,
                "velocity": 55,
                "time": 20
            },
            {
                "type": "note_on",
                "note": 58,
                "velocity": 69,
                "time": 0
            },
            {
                "type": "note_on",
                "note": 34,
                "velocity": 70,
                "time": 0
            },
            {
                "type": "note_on",
                "note": 62,
                "velocity": 83,
                "time": 0
            },
            {
                "type": "note_on",
                "note": 58,
                "velocity": 0,
                "time": 92
            },
            {
                "type": "note_on",
                "note": 53,
                "velocity": 67,
                "time": 4
            },
            {
                "type": "note_on",
                "note": 62,
                "velocity": 0,
                "time": 2
            },
            {
                "type": "note_on",
                "note": 58,
                "velocity": 76,
                "time": 74
            },
            {
                "type": "note_on",
                "note": 53,
                "velocity": 0,
                "time": 2
            },
            {
                "type": "note_on",
                "note": 58,
                "velocity": 0,
                "time": 94
            },
            {
                "type": "note_on",
                "note": 62,
                "velocity": 91,
                "time": 0
            },
            {
                "type": "note_on",
                "note": 67,
                "velocity": 114,
                "time": 96
            },
            {
                "type": "note_on",
                "note": 79,
                "velocity": 110,
                "time": 2
            },
            {
                "type": "note_on",
                "note": 62,
                "velocity": 0,
                "time": 4
            },
            {
                "type": "note_on",
                "note": 67,
                "velocity": 0,
                "time": 30
            },
            {
                "type": "note_on",
                "note": 53,
                "velocity": 85,
                "time": 60
            },
            {
                "type": "note_on",
                "note": 79,
                "velocity": 0,
                "time": 54
            },
            {
                "type": "note_on",
                "note": 53,
                "velocity": 0,
                "time": 36
            },
            {
                "type": "note_on",
                "note": 77,
                "velocity": 108,
                "time": 4
            },
            {
                "type": "note_on",
                "note": 65,
                "velocity": 105,
                "time": 2
            },
            {
                "type": "note_on",
                "note": 34,
                "velocity": 0,
                "time": 22
            },
            {
                "type": "note_on",
                "note": 46,
                "velocity": 0,
                "time": 6
            },
            {
                "type": "note_on",
                "note": 65,
                "velocity": 0,
                "time": 58
            },
            {
                "type": "note_on",
                "note": 53,
                "velocity": 72,
                "time": 10
            },
            {
                "type": "note_on",
                "note": 77,
                "velocity": 0,
                "time": 24
            },
            {
                "type": "note_on",
                "note": 53,
                "velocity": 0,
                "time": 4
            },
            {
                "type": "note_on",
                "note": 62,
                "velocity": 85,
                "time": 30
            },
            {
                "type": "note_on",
                "note": 46,
                "velocity": 59,
                "time": 0
            },
            {
                "type": "note_on",
                "note": 34,
                "velocity": 76,
                "time": 0
            },
            {
                "type": "note_on",
                "note": 58,
                "velocity": 72,
                "time": 0
            },
            {
                "type": "note_on",
                "note": 53,
                "velocity": 87,
                "time": 86
            },
            {
                "type": "note_on",
                "note": 58,
                "velocity": 0,
                "time": 8
            },
            {
                "type": "note_on",
                "note": 62,
                "velocity": 0,
                "time": 6
            },
            {
                "type": "note_on",
                "note": 58,
                "velocity": 82,
                "time": 82
            },
            {
                "type": "note_on",
                "note": 53,
                "velocity": 0,
                "time": 12
            },
            {
                "type": "note_on",
                "note": 62,
                "velocity": 82,
                "time": 84
            },
            {
                "type": "note_on",
                "note": 58,
                "velocity": 0,
                "time": 10
            },
            {
                "type": "note_on",
                "note": 79,
                "velocity": 115,
                "time": 86
            },
            {
                "type": "note_on",
                "note": 67,
                "velocity": 111,
                "time": 2
            },
            {
                "type": "note_on",
                "note": 62,
                "velocity": 0,
                "time": 8
            },
            {
                "type": "note_on",
                "note": 67,
                "velocity": 0,
                "time": 34
            },
            {
                "type": "note_on",
                "note": 53,
                "velocity": 80,
                "time": 52
            },
            {
                "type": "note_on",
                "note": 79,
                "velocity": 0,
                "time": 14
            },
            {
                "type": "note_on",
                "note": 77,
                "velocity": 106,
                "time": 82
            },
            {
                "type": "note_on",
                "note": 65,
                "velocity": 107,
                "time": 2
            },
            {
                "type": "note_on",
                "note": 53,
                "velocity": 0,
                "time": 2
            },
            {
                "type": "note_on",
                "note": 34,
                "velocity": 0,
                "time": 24
            },
            {
                "type": "note_on",
                "note": 46,
                "velocity": 0,
                "time": 10
            },
            {
                "type": "note_on",
                "note": 77,
                "velocity": 0,
                "time": 6
            },
            {
                "type": "note_on",
                "note": 53,
                "velocity": 76,
                "time": 52
            },
            {
                "type": "note_on",
                "note": 65,
                "velocity": 0,
                "time": 6
            },
            {
                "type": "note_on",
                "note": 53,
                "velocity": 0,
                "time": 52
            },
            {
                "type": "note_on",
                "note": 58,
                "velocity": 78,
                "time": 18
            },
            {
                "type": "note_on",
                "note": 46,
                "velocity": 85,
                "time": 0
            },
            {
                "type": "note_on",
                "note": 62,
                "velocity": 96,
                "time": 0
            },
            {
                "type": "note_on",
                "note": 34,
                "velocity": 100,
                "time": 0
            },
            {
                "type": "note_on",
                "note": 58,
                "velocity": 0,
                "time": 68
            },
            {
                "type": "note_on",
                "note": 53,
                "velocity": 87,
                "time": 12
            },
            {
                "type": "note_on",
                "note": 62,
                "velocity": 0,
                "time": 8
            },
            {
                "type": "note_on",
                "note": 58,
                "velocity": 85,
                "time": 88
            },
            {
                "type": "note_on",
                "note": 53,
                "velocity": 0,
                "time": 8
            },
            {
                "type": "note_on",
                "note": 62,
                "velocity": 85,
                "time": 88
            },
            {
                "type": "note_on",
                "note": 58,
                "velocity": 0,
                "time": 4
            },
            {
                "type": "note_on",
                "note": 67,
                "velocity": 103,
                "time": 92
            },
            {
                "type": "note_on",
                "note": 79,
                "velocity": 115,
                "time": 0
            },
            {
                "type": "note_on",
                "note": 62,
                "velocity": 0,
                "time": 2
            },
            {
                "type": "note_on",
                "note": 79,
                "velocity": 0,
                "time": 32
            },
            {
                "type": "note_on",
                "note": 67,
                "velocity": 0,
                "time": 10
            },
            {
                "type": "note_on",
                "note": 46,
                "velocity": 0,
                "time": 50
            },
            {
                "type": "note_on",
                "note": 53,
                "velocity": 81,
                "time": 2
            },
            {
                "type": "note_on",
                "note": 34,
                "velocity": 0,
                "time": 28
            },
            {
                "type": "note_on",
                "note": 77,
                "velocity": 114,
                "time": 68
            },
            {
                "type": "note_on",
                "note": 65,
                "velocity": 102,
                "time": 0
            },
            {
                "type": "note_on",
                "note": 53,
                "velocity": 0,
                "time": 2
            },
            {
                "type": "note_on",
                "note": 77,
                "velocity": 0,
                "time": 34
            },
            {
                "type": "note_on",
                "note": 65,
                "velocity": 0,
                "time": 52
            },
            {
                "type": "note_on",
                "note": 53,
                "velocity": 79,
                "time": 8
            },
            {
                "type": "note_on",
                "note": 53,
                "velocity": 0,
                "time": 48
            },
            {
                "type": "note_on",
                "note": 62,
                "velocity": 102,
                "time": 14
            },
            {
                "type": "note_on",
                "note": 31,
                "velocity": 93,
                "time": 0
            },
            {
                "type": "note_on",
                "note": 43,
                "velocity": 87,
                "time": 0
            },
            {
                "type": "note_on",
                "note": 58,
                "velocity": 82,
                "time": 0
            },
            {
                "type": "note_on",
                "note": 58,
                "velocity": 0,
                "time": 68
            },
            {
                "type": "note_on",
                "note": 62,
                "velocity": 0,
                "time": 4
            },
            {
                "type": "note_on",
                "note": 55,
                "velocity": 93,
                "time": 4
            },
            {
                "type": "note_on",
                "note": 58,
                "velocity": 85,
                "time": 96
            },
            {
                "type": "note_on",
                "note": 55,
                "velocity": 0,
                "time": 8
            },
            {
                "type": "note_on",
                "note": 62,
                "velocity": 110,
                "time": 88
            },
            {
                "type": "note_on",
                "note": 58,
                "velocity": 0,
                "time": 12
            },
            {
                "type": "note_on",
                "note": 81,
                "velocity": 115,
                "time": 84
            },
            {
                "type": "note_on",
                "note": 69,
                "velocity": 115,
                "time": 0
            },
            {
                "type": "note_on",
                "note": 62,
                "velocity": 0,
                "time": 16
            },
            {
                "type": "note_on",
                "note": 69,
                "velocity": 0,
                "time": 30
            },
            {
                "type": "note_on",
                "note": 81,
                "velocity": 0,
                "time": 6
            },
            {
                "type": "note_on",
                "note": 55,
                "velocity": 87,
                "time": 44
            },
            {
                "type": "note_on",
                "note": 31,
                "velocity": 0,
                "time": 14
            },
            {
                "type": "note_on",
                "note": 43,
                "velocity": 0,
                "time": 24
            },
            {
                "type": "note_on",
                "note": 55,
                "velocity": 0,
                "time": 56
            },
            {
                "type": "note_on",
                "note": 79,
                "velocity": 115,
                "time": 2
            },
            {
                "type": "note_on",
                "note": 67,
                "velocity": 111,
                "time": 0
            },
            {
                "type": "note_on",
                "note": 79,
                "velocity": 0,
                "time": 24
            },
            {
                "type": "note_on",
                "note": 67,
                "velocity": 0,
                "time": 56
            },
            {
                "type": "note_on",
                "note": 55,
                "velocity": 93,
                "time": 16
            },
            {
                "type": "note_on",
                "note": 55,
                "velocity": 0,
                "time": 24
            },
            {
                "type": "note_on",
                "note": 60,
                "velocity": 89,
                "time": 12
            },
            {
                "type": "note_on",
                "note": 48,
                "velocity": 85,
                "time": 0
            },
            {
                "type": "note_on",
                "note": 36,
                "velocity": 86,
                "time": 0
            },
            {
                "type": "note_on",
                "note": 63,
                "velocity": 95,
                "time": 0
            },
            {
                "type": "note_on",
                "note": 60,
                "velocity": 0,
                "time": 50
            },
            {
                "type": "note_on",
                "note": 60,
                "velocity": 97,
                "time": 26
            },
            {
                "type": "note_on",
                "note": 63,
                "velocity": 0,
                "time": 2
            },
            {
                "type": "note_on",
                "note": 63,
                "velocity": 107,
                "time": 94
            },
            {
                "type": "note_on",
                "note": 60,
                "velocity": 0,
                "time": 4
            },
            {
                "type": "note_on",
                "note": 63,
                "velocity": 0,
                "time": 82
            },
            {
                "type": "note_on",
                "note": 67,
                "velocity": 106,
                "time": 10
            },
            {
                "type": "note_on",
                "note": 74,
                "velocity": 115,
                "time": 96
            },
            {
                "type": "note_on",
                "note": 86,
                "velocity": 115,
                "time": 0
            },
            {
                "type": "note_on",
                "note": 67,
                "velocity": 0,
                "time": 6
            },
            {
                "type": "note_on",
                "note": 86,
                "velocity": 0,
                "time": 22
            },
            {
                "type": "note_on",
                "note": 74,
                "velocity": 0,
                "time": 10
            },
            {
                "type": "note_on",
                "note": 60,
                "velocity": 88,
                "time": 58
            },
            {
                "type": "note_on",
                "note": 60,
                "velocity": 0,
                "time": 94
            },
            {
                "type": "note_on",
                "note": 84,
                "velocity": 115,
                "time": 2
            },
            {
                "type": "note_on",
                "note": 72,
                "velocity": 104,
                "time": 0
            },
            {
                "type": "note_on",
                "note": 84,
                "velocity": 0,
                "time": 20
            },
            {
                "type": "note_on",
                "note": 36,
                "velocity": 0,
                "time": 54
            },
            {
                "type": "note_on",
                "note": 72,
                "velocity": 0,
                "time": 4
            },
            {
                "type": "note_on",
                "note": 48,
                "velocity": 0,
                "time": 6
            },
            {
                "type": "note_on",
                "note": 60,
                "velocity": 78,
                "time": 12
            },
            {
                "type": "note_on",
                "note": 60,
                "velocity": 0,
                "time": 38
            },
            {
                "type": "note_on",
                "note": 63,
                "velocity": 90,
                "time": 10
            },
            {
                "type": "note_on",
                "note": 48,
                "velocity": 86,
                "time": 0
            },
            {
                "type": "note_on",
                "note": 36,
                "velocity": 83,
                "time": 0
            },
            {
                "type": "note_on",
                "note": 67,
                "velocity": 104,
                "time": 0
            },
            {
                "type": "note_on",
                "note": 63,
                "velocity": 0,
                "time": 64
            },
            {
                "type": "note_on",
                "note": 60,
                "velocity": 93,
                "time": 2
            },
            {
                "type": "note_on",
                "note": 67,
                "velocity": 0,
                "time": 4
            },
            {
                "type": "note_on",
                "note": 36,
                "velocity": 0,
                "time": 70
            },
            {
                "type": "note_on",
                "note": 48,
                "velocity": 0,
                "time": 14
            },
            {
                "type": "note_on",
                "note": 63,
                "velocity": 98,
                "time": 8
            },
            {
                "type": "note_on",
                "note": 60,
                "velocity": 0,
                "time": 30
            },
            {
                "type": "note_on",
                "note": 67,
                "velocity": 94,
                "time": 66
            },
            {
                "type": "note_on",
                "note": 63,
                "velocity": 0,
                "time": 2
            },
            {
                "type": "note_on",
                "note": 67,
                "velocity": 0,
                "time": 52
            },
            {
                "type": "note_on",
                "note": 53,
                "velocity": 70,
                "time": 42
            },
            {
                "type": "note_on",
                "note": 69,
                "velocity": 90,
                "time": 0
            },
            {
                "type": "note_on",
                "note": 63,
                "velocity": 73,
                "time": 0
            },
            {
                "type": "note_on",
                "note": 41,
                "velocity": 71,
                "time": 0
            },
            {
                "type": "note_on",
                "note": 63,
                "velocity": 0,
                "time": 26
            },
            {
                "type": "note_on",
                "note": 63,
                "velocity": 81,
                "time": 30
            },
            {
                "type": "note_on",
                "note": 69,
                "velocity": 0,
                "time": 10
            },
            {
                "type": "note_on",
                "note": 63,
                "velocity": 0,
                "time": 86
            },
            {
                "type": "note_on",
                "note": 65,
                "velocity": 76,
                "time": 0
            },
            {
                "type": "note_on",
                "note": 53,
                "velocity": 0,
                "time": 34
            },
            {
                "type": "note_on",
                "note": 41,
                "velocity": 0,
                "time": 24
            },
            {
                "type": "note_on",
                "note": 65,
                "velocity": 0,
                "time": 30
            },
            {
                "type": "note_on",
                "note": 72,
                "velocity": 67,
                "time": 8
            },
            {
                "type": "note_on",
                "note": 72,
                "velocity": 0,
                "time": 14
            },
            {
                "type": "note_on",
                "note": 58,
                "velocity": 81,
                "time": 82
            },
            {
                "type": "note_on",
                "note": 46,
                "velocity": 72,
                "time": 0
            },
            {
                "type": "note_on",
                "note": 62,
                "velocity": 91,
                "time": 0
            },
            {
                "type": "note_on",
                "note": 34,
                "velocity": 84,
                "time": 0
            },
            {
                "type": "note_on",
                "note": 58,
                "velocity": 0,
                "time": 28
            },
            {
                "type": "note_on",
                "note": 62,
                "velocity": 0,
                "time": 2
            },
            {
                "type": "note_on",
                "note": 53,
                "velocity": 84,
                "time": 14
            },
            {
                "type": "note_on",
                "note": 58,
                "velocity": 90,
                "time": 96
            },
            {
                "type": "note_on",
                "note": 53,
                "velocity": 0,
                "time": 6
            },
            {
                "type": "note_on",
                "note": 62,
                "velocity": 101,
                "time": 90
            },
            {
                "type": "note_on",
                "note": 58,
                "velocity": 0,
                "time": 6
            },
            {
                "type": "note_on",
                "note": 46,
                "velocity": 0,
                "time": 62
            },
            {
                "type": "note_on",
                "note": 34,
                "velocity": 0,
                "time": 16
            },
            {
                "type": "note_on",
                "note": 79,
                "velocity": 111,
                "time": 12
            },
            {
                "type": "note_on",
                "note": 67,
                "velocity": 101,
                "time": 0
            },
            {
                "type": "note_on",
                "note": 62,
                "velocity": 0,
                "time": 8
            },
            {
                "type": "note_on",
                "note": 79,
                "velocity": 0,
                "time": 16
            },
            {
                "type": "note_on",
                "note": 67,
                "velocity": 0,
                "time": 14
            },
            {
                "type": "note_on",
                "note": 53,
                "velocity": 79,
                "time": 58
            },
            {
                "type": "note_on",
                "note": 65,
                "velocity": 103,
                "time": 96
            },
            {
                "type": "note_on",
                "note": 77,
                "velocity": 110,
                "time": 0
            },
            {
                "type": "note_on",
                "note": 53,
                "velocity": 0,
                "time": 2
            },
            {
                "type": "note_on",
                "note": 77,
                "velocity": 0,
                "time": 16
            },
            {
                "type": "note_on",
                "note": 65,
                "velocity": 0,
                "time": 76
            },
            {
                "type": "note_on",
                "note": 53,
                "velocity": 79,
                "time": 2
            },
            {
                "type": "note_on",
                "note": 53,
                "velocity": 0,
                "time": 28
            },
            {
                "type": "note_on",
                "note": 31,
                "velocity": 88,
                "time": 16
            },
            {
                "type": "note_on",
                "note": 43,
                "velocity": 79,
                "time": 0
            },
            {
                "type": "note_on",
                "note": 58,
                "velocity": 76,
                "time": 0
            },
            {
                "type": "note_on",
                "note": 62,
                "velocity": 99,
                "time": 0
            },
            {
                "type": "note_on",
                "note": 58,
                "velocity": 0,
                "time": 60
            },
            {
                "type": "note_on",
                "note": 62,
                "velocity": 0,
                "time": 2
            },
            {
                "type": "note_on",
                "note": 55,
                "velocity": 96,
                "time": 6
            },
            {
                "type": "note_on",
                "note": 58,
                "velocity": 91,
                "time": 96
            },
            {
                "type": "note_on",
                "note": 55,
                "velocity": 0,
                "time": 10
            },
            {
                "type": "note_on",
                "note": 58,
                "velocity": 0,
                "time": 86
            },
            {
                "type": "note_on",
                "note": 62,
                "velocity": 96,
                "time": 0
            },
            {
                "type": "note_on",
                "note": 69,
                "velocity": 115,
                "time": 96
            },
            {
                "type": "note_on",
                "note": 81,
                "velocity": 115,
                "time": 0
            },
            {
                "type": "note_on",
                "note": 62,
                "velocity": 0,
                "time": 16
            },
            {
                "type": "note_on",
                "note": 81,
                "velocity": 0,
                "time": 4
            },
            {
                "type": "note_on",
                "note": 69,
                "velocity": 0,
                "time": 18
            },
            {
                "type": "note_on",
                "note": 31,
                "velocity": 0,
                "time": 30
            },
            {
                "type": "note_on",
                "note": 43,
                "velocity": 0,
                "time": 6
            },
            {
                "type": "note_on",
                "note": 55,
                "velocity": 89,
                "time": 22
            },
            {
                "type": "note_on",
                "note": 55,
                "velocity": 0,
                "time": 96
            },
            {
                "type": "note_on",
                "note": 79,
                "velocity": 115,
                "time": 0
            },
            {
                "type": "note_on",
                "note": 67,
                "velocity": 106,
                "time": 0
            },
            {
                "type": "note_on",
                "note": 79,
                "velocity": 0,
                "time": 18
            },
            {
                "type": "note_on",
                "note": 67,
                "velocity": 0,
                "time": 42
            },
            {
                "type": "note_on",
                "note": 55,
                "velocity": 87,
                "time": 36
            },
            {
                "type": "note_on",
                "note": 55,
                "velocity": 0,
                "time": 14
            },
            {
                "type": "note_on",
                "note": 36,
                "velocity": 86,
                "time": 82
            },
            {
                "type": "note_on",
                "note": 63,
                "velocity": 100,
                "time": 0
            },
            {
                "type": "note_on",
                "note": 48,
                "velocity": 89,
                "time": 0
            },
            {
                "type": "note_on",
                "note": 67,
                "velocity": 103,
                "time": 0
            },
            {
                "type": "note_on",
                "note": 67,
                "velocity": 0,
                "time": 50
            },
            {
                "type": "note_on",
                "note": 63,
                "velocity": 0,
                "time": 2
            },
            {
                "type": "note_on",
                "note": 60,
                "velocity": 91,
                "time": 4
            },
            {
                "type": "note_on",
                "note": 63,
                "velocity": 100,
                "time": 96
            },
            {
                "type": "note_on",
                "note": 60,
                "velocity": 0,
                "time": 4
            },
            {
                "type": "note_on",
                "note": 48,
                "velocity": 0,
                "time": 12
            },
            {
                "type": "note_on",
                "note": 36,
                "velocity": 0,
                "time": 2
            },
            {
                "type": "note_on",
                "note": 63,
                "velocity": 0,
                "time": 70
            },
            {
                "type": "note_on",
                "note": 67,
                "velocity": 109,
                "time": 8
            },
            {
                "type": "note_on",
                "note": 67,
                "velocity": 0,
                "time": 80
            },
            {
                "type": "note_on",
                "note": 47,
                "velocity": 86,
                "time": 8
            },
            {
                "type": "note_on",
                "note": 35,
                "velocity": 91,
                "time": 0
            },
            {
                "type": "note_on",
                "note": 63,
                "velocity": 101,
                "time": 0
            },
            {
                "type": "note_on",
                "note": 59,
                "velocity": 97,
                "time": 0
            },
            {
                "type": "note_on",
                "note": 59,
                "velocity": 0,
                "time": 70
            },
            {
                "type": "note_on",
                "note": 67,
                "velocity": 106,
                "time": 2
            },
            {
                "type": "note_on",
                "note": 63,
                "velocity": 0,
                "time": 2
            },
            {
                "type": "note_on",
                "note": 47,
                "velocity": 0,
                "time": 8
            },
            {
                "type": "note_on",
                "note": 35,
                "velocity": 0,
                "time": 4
            },
            {
                "type": "note_on",
                "note": 67,
                "velocity": 0,
                "time": 8
            },
            {
                "type": "note_on",
                "note": 34,
                "velocity": 97,
                "time": 14
            },
            {
                "type": "note_on",
                "note": 46,
                "velocity": 85,
                "time": 0
            },
            {
                "type": "note_on",
                "note": 58,
                "velocity": 84,
                "time": 0
            },
            {
                "type": "note_on",
                "note": 63,
                "velocity": 101,
                "time": 0
            },
            {
                "type": "note_on",
                "note": 67,
                "velocity": 98,
                "time": 84
            },
            {
                "type": "note_on",
                "note": 58,
                "velocity": 0,
                "time": 4
            },
            {
                "type": "note_on",
                "note": 63,
                "velocity": 0,
                "time": 6
            },
            {
                "type": "note_on",
                "note": 34,
                "velocity": 0,
                "time": 12
            },
            {
                "type": "note_on",
                "note": 67,
                "velocity": 0,
                "time": 4
            },
            {
                "type": "note_on",
                "note": 46,
                "velocity": 0,
                "time": 2
            },
            {
                "type": "note_on",
                "note": 33,
                "velocity": 101,
                "time": 12
            },
            {
                "type": "note_on",
                "note": 57,
                "velocity": 98,
                "time": 0
            },
            {
                "type": "note_on",
                "note": 45,
                "velocity": 96,
                "time": 0
            },
            {
                "type": "note_on",
                "note": 63,
                "velocity": 113,
                "time": 0
            },
            {
                "type": "note_on",
                "note": 57,
                "velocity": 0,
                "time": 54
            },
            {
                "type": "note_on",
                "note": 63,
                "velocity": 0,
                "time": 28
            },
            {
                "type": "note_on",
                "note": 57,
                "velocity": 115,
                "time": 2
            },
            {
                "type": "note_on",
                "note": 63,
                "velocity": 119,
                "time": 96
            },
            {
                "type": "note_on",
                "note": 45,
                "velocity": 0,
                "time": 66
            },
            {
                "type": "note_on",
                "note": 33,
                "velocity": 0,
                "time": 4
            },
            {
                "type": "note_on",
                "note": 57,
                "velocity": 0,
                "time": 26
            },
            {
                "type": "note_on",
                "note": 67,
                "velocity": 125,
                "time": 0
            },
            {
                "type": "note_on",
                "note": 63,
                "velocity": 0,
                "time": 8
            },
            {
                "type": "note_on",
                "note": 67,
                "velocity": 0,
                "time": 48
            },
            {
                "type": "note_on",
                "note": 32,
                "velocity": 111,
                "time": 16
            },
            {
                "type": "note_on",
                "note": 44,
                "velocity": 87,
                "time": 0
            },
            {
                "type": "note_on",
                "note": 56,
                "velocity": 112,
                "time": 0
            },
            {
                "type": "note_on",
                "note": 63,
                "velocity": 124,
                "time": 0
            },
            {
                "type": "note_on",
                "note": 63,
                "velocity": 0,
                "time": 88
            },
            {
                "type": "note_on",
                "note": 56,
                "velocity": 0,
                "time": 0
            },
            {
                "type": "note_on",
                "note": 67,
                "velocity": 127,
                "time": 0
            },
            {
                "type": "note_on",
                "note": 32,
                "velocity": 0,
                "time": 28
            },
            {
                "type": "note_on",
                "note": 44,
                "velocity": 0,
                "time": 2
            },
            {
                "type": "note_on",
                "note": 67,
                "velocity": 0,
                "time": 8
            },
            {
                "type": "note_on",
                "note": 43,
                "velocity": 103,
                "time": 14
            },
            {
                "type": "note_on",
                "note": 55,
                "velocity": 123,
                "time": 0
            },
            {
                "type": "note_on",
                "note": 63,
                "velocity": 122,
                "time": 0
            },
            {
                "type": "note_on",
                "note": 31,
                "velocity": 102,
                "time": 0
            },
            {
                "type": "note_on",
                "note": 31,
                "velocity": 0,
                "time": 76
            },
            {
                "type": "note_on",
                "note": 55,
                "velocity": 0,
                "time": 6
            },
            {
                "type": "note_on",
                "note": 63,
                "velocity": 0,
                "time": 8
            },
            {
                "type": "note_on",
                "note": 67,
                "velocity": 127,
                "time": 0
            },
            {
                "type": "note_on",
                "note": 43,
                "velocity": 0,
                "time": 4
            },
            {
                "type": "note_on",
                "note": 67,
                "velocity": 0,
                "time": 18
            },
            {
                "type": "note_on",
                "note": 39,
                "velocity": 102,
                "time": 16
            },
            {
                "type": "note_on",
                "note": 51,
                "velocity": 115,
                "time": 0
            },
            {
                "type": "note_on",
                "note": 63,
                "velocity": 120,
                "time": 0
            },
            {
                "type": "note_on",
                "note": 67,
                "velocity": 127,
                "time": 0
            },
            {
                "type": "note_on",
                "note": 63,
                "velocity": 0,
                "time": 50
            },
            {
                "type": "note_on",
                "note": 63,
                "velocity": 102,
                "time": 30
            },
            {
                "type": "note_on",
                "note": 67,
                "velocity": 0,
                "time": 6
            },
            {
                "type": "note_on",
                "note": 63,
                "velocity": 0,
                "time": 50
            },
            {
                "type": "note_on",
                "note": 70,
                "velocity": 102,
                "time": 40
            },
            {
                "type": "note_on",
                "note": 67,
                "velocity": 115,
                "time": 0
            },
            {
                "type": "note_on",
                "note": 75,
                "velocity": 116,
                "time": 0
            },
            {
                "type": "note_on",
                "note": 67,
                "velocity": 0,
                "time": 42
            },
            {
                "type": "note_on",
                "note": 75,
                "velocity": 0,
                "time": 44
            },
            {
                "type": "note_on",
                "note": 67,
                "velocity": 106,
                "time": 10
            },
            {
                "type": "note_on",
                "note": 70,
                "velocity": 0,
                "time": 2
            },
            {
                "type": "note_on",
                "note": 67,
                "velocity": 0,
                "time": 34
            },
            {
                "type": "note_on",
                "note": 70,
                "velocity": 101,
                "time": 26
            },
            {
                "type": "note_on",
                "note": 67,
                "velocity": 109,
                "time": 0
            },
            {
                "type": "note_on",
                "note": 70,
                "velocity": 0,
                "time": 86
            },
            {
                "type": "note_on",
                "note": 67,
                "velocity": 0,
                "time": 6
            },
            {
                "type": "note_on",
                "note": 63,
                "velocity": 95,
                "time": 4
            },
            {
                "type": "note_on",
                "note": 63,
                "velocity": 0,
                "time": 16
            },
            {
                "type": "note_on",
                "note": 51,
                "velocity": 0,
                "time": 10
            },
            {
                "type": "note_on",
                "note": 39,
                "velocity": 0,
                "time": 8
            },
            {
                "type": "note_on",
                "note": 38,
                "velocity": 113,
                "time": 22
            },
            {
                "type": "note_on",
                "note": 65,
                "velocity": 103,
                "time": 0
            },
            {
                "type": "note_on",
                "note": 50,
                "velocity": 103,
                "time": 0
            },
            {
                "type": "note_on",
                "note": 62,
                "velocity": 106,
                "time": 0
            },
            {
                "type": "note_on",
                "note": 65,
                "velocity": 0,
                "time": 82
            },
            {
                "type": "note_on",
                "note": 62,
                "velocity": 0,
                "time": 8
            },
            {
                "type": "note_on",
                "note": 58,
                "velocity": 88,
                "time": 2
            },
            {
                "type": "note_on",
                "note": 58,
                "velocity": 0,
                "time": 24
            },
            {
                "type": "note_on",
                "note": 50,
                "velocity": 0,
                "time": 2
            },
            {
                "type": "note_on",
                "note": 38,
                "velocity": 0,
                "time": 6
            },
            {
                "type": "note_on",
                "note": 48,
                "velocity": 98,
                "time": 6
            },
            {
                "type": "note_on",
                "note": 36,
                "velocity": 89,
                "time": 0
            },
            {
                "type": "note_on",
                "note": 63,
                "velocity": 113,
                "time": 0
            },
            {
                "type": "note_on",
                "note": 60,
                "velocity": 103,
                "time": 0
            },
            {
                "type": "note_on",
                "note": 67,
                "velocity": 114,
                "time": 0
            },
            {
                "type": "note_on",
                "note": 60,
                "velocity": 0,
                "time": 42
            },
            {
                "type": "note_on",
                "note": 63,
                "velocity": 0,
                "time": 30
            },
            {
                "type": "note_on",
                "note": 67,
                "velocity": 0,
                "time": 2
            },
            {
                "type": "note_on",
                "note": 60,
                "velocity": 112,
                "time": 6
            },
            {
                "type": "note_on",
                "note": 63,
                "velocity": 114,
                "time": 96
            },
            {
                "type": "note_on",
                "note": 60,
                "velocity": 0,
                "time": 4
            },
            {
                "type": "note_on",
                "note": 63,
                "velocity": 0,
                "time": 76
            },
            {
                "type": "note_on",
                "note": 67,
                "velocity": 116,
                "time": 16
            },
            {
                "type": "note_on",
                "note": 74,
                "velocity": 127,
                "time": 96
            },
            {
                "type": "note_on",
                "note": 86,
                "velocity": 127,
                "time": 0
            },
            {
                "type": "note_on",
                "note": 67,
                "velocity": 0,
                "time": 4
            },
            {
                "type": "note_on",
                "note": 86,
                "velocity": 0,
                "time": 14
            },
            {
                "type": "note_on",
                "note": 74,
                "velocity": 0,
                "time": 16
            },
            {
                "type": "note_on",
                "note": 60,
                "velocity": 103,
                "time": 62
            },
            {
                "type": "note_on",
                "note": 36,
                "velocity": 0,
                "time": 90
            },
            {
                "type": "note_on",
                "note": 60,
                "velocity": 0,
                "time": 2
            },
            {
                "type": "note_on",
                "note": 72,
                "velocity": 122,
                "time": 4
            },
            {
                "type": "note_on",
                "note": 84,
                "velocity": 127,
                "time": 0
            },
            {
                "type": "note_on",
                "note": 48,
                "velocity": 0,
                "time": 10
            },
            {
                "type": "note_on",
                "note": 84,
                "velocity": 0,
                "time": 6
            },
            {
                "type": "note_on",
                "note": 72,
                "velocity": 0,
                "time": 68
            },
            {
                "type": "note_on",
                "note": 60,
                "velocity": 96,
                "time": 12
            },
            {
                "type": "note_on",
                "note": 60,
                "velocity": 0,
                "time": 16
            },
            {
                "type": "note_on",
                "note": 68,
                "velocity": 114,
                "time": 14
            },
            {
                "type": "note_on",
                "note": 41,
                "velocity": 110,
                "time": 0
            },
            {
                "type": "note_on",
                "note": 53,
                "velocity": 106,
                "time": 0
            },
            {
                "type": "note_on",
                "note": 65,
                "velocity": 110,
                "time": 0
            },
            {
                "type": "note_on",
                "note": 65,
                "velocity": 0,
                "time": 36
            },
            {
                "type": "note_on",
                "note": 68,
                "velocity": 0,
                "time": 40
            },
            {
                "type": "note_on",
                "note": 65,
                "velocity": 106,
                "time": 6
            },
            {
                "type": "note_on",
                "note": 65,
                "velocity": 0,
                "time": 32
            },
            {
                "type": "note_on",
                "note": 53,
                "velocity": 0,
                "time": 60
            },
            {
                "type": "note_on",
                "note": 41,
                "velocity": 0,
                "time": 4
            },
            {
                "type": "note_on",
                "note": 68,
                "velocity": 98,
                "time": 0
            },
            {
                "type": "note_on",
                "note": 72,
                "velocity": 87,
                "time": 0
            },
            {
                "type": "note_on",
                "note": 77,
                "velocity": 118,
                "time": 0
            },
            {
                "type": "note_on",
                "note": 72,
                "velocity": 0,
                "time": 22
            },
            {
                "type": "note_on",
                "note": 68,
                "velocity": 0,
                "time": 0
            },
            {
                "type": "note_on",
                "note": 77,
                "velocity": 0,
                "time": 2
            },
            {
                "type": "note_on",
                "note": 68,
                "velocity": 97,
                "time": 72
            },
            {
                "type": "note_on",
                "note": 40,
                "velocity": 104,
                "time": 0
            },
            {
                "type": "note_on",
                "note": 52,
                "velocity": 108,
                "time": 0
            },
            {
                "type": "note_on",
                "note": 64,
                "velocity": 96,
                "time": 0
            },
            {
                "type": "note_on",
                "note": 72,
                "velocity": 101,
                "time": 0
            },
            {
                "type": "note_on",
                "note": 64,
                "velocity": 0,
                "time": 16
            },
            {
                "type": "note_on",
                "note": 68,
                "velocity": 0,
                "time": 4
            },
            {
                "type": "note_on",
                "note": 72,
                "velocity": 0,
                "time": 2
            },
            {
                "type": "note_on",
                "note": 52,
                "velocity": 0,
                "time": 0
            },
            {
                "type": "note_on",
                "note": 40,
                "velocity": 0,
                "time": 4
            },
            {
                "type": "note_on",
                "note": 39,
                "velocity": 114,
                "time": 26
            },
            {
                "type": "note_on",
                "note": 63,
                "velocity": 107,
                "time": 0
            },
            {
                "type": "note_on",
                "note": 51,
                "velocity": 112,
                "time": 0
            },
            {
                "type": "note_on",
                "note": 68,
                "velocity": 100,
                "time": 0
            },
            {
                "type": "note_on",
                "note": 72,
                "velocity": 115,
                "time": 0
            },
            {
                "type": "note_on",
                "note": 63,
                "velocity": 0,
                "time": 56
            },
            {
                "type": "note_on",
                "note": 68,
                "velocity": 0,
                "time": 26
            },
            {
                "type": "note_on",
                "note": 72,
                "velocity": 0,
                "time": 0
            },
            {
                "type": "note_on",
                "note": 63,
                "velocity": 105,
                "time": 14
            },
            {
                "type": "note_on",
                "note": 63,
                "velocity": 0,
                "time": 30
            },
            {
                "type": "note_on",
                "note": 51,
                "velocity": 0,
                "time": 22
            },
            {
                "type": "note_on",
                "note": 39,
                "velocity": 0,
                "time": 8
            },
            {
                "type": "note_on",
                "note": 62,
                "velocity": 105,
                "time": 8
            },
            {
                "type": "note_on",
                "note": 38,
                "velocity": 110,
                "time": 0
            },
            {
                "type": "note_on",
                "note": 50,
                "velocity": 94,
                "time": 0
            },
            {
                "type": "note_on",
                "note": 72,
                "velocity": 120,
                "time": 0
            },
            {
                "type": "note_on",
                "note": 68,
                "velocity": 114,
                "time": 0
            },
            {
                "type": "note_on",
                "note": 62,
                "velocity": 0,
                "time": 62
            },
            {
                "type": "note_on",
                "note": 62,
                "velocity": 104,
                "time": 34
            },
            {
                "type": "note_on",
                "note": 68,
                "velocity": 0,
                "time": 10
            },
            {
                "type": "note_on",
                "note": 72,
                "velocity": 0,
                "time": 2
            },
            {
                "type": "note_on",
                "note": 62,
                "velocity": 0,
                "time": 2
            },
            {
                "type": "note_on",
                "note": 50,
                "velocity": 0,
                "time": 0
            },
            {
                "type": "note_on",
                "note": 38,
                "velocity": 0,
                "time": 16
            },
            {
                "type": "note_on",
                "note": 46,
                "velocity": 84,
                "time": 14
            },
            {
                "type": "note_on",
                "note": 58,
                "velocity": 93,
                "time": 0
            },
            {
                "type": "note_on",
                "note": 62,
                "velocity": 105,
                "time": 0
            },
            {
                "type": "note_on",
                "note": 65,
                "velocity": 108,
                "time": 0
            },
            {
                "type": "note_on",
                "note": 34,
                "velocity": 102,
                "time": 0
            },
            {
                "type": "note_on",
                "note": 65,
                "velocity": 0,
                "time": 56
            },
            {
                "type": "note_on",
                "note": 62,
                "velocity": 0,
                "time": 12
            },
            {
                "type": "note_on",
                "note": 34,
                "velocity": 0,
                "time": 6
            },
            {
                "type": "note_on",
                "note": 46,
                "velocity": 0,
                "time": 0
            },
            {
                "type": "note_on",
                "note": 58,
                "velocity": 0,
                "time": 4
            },
            {
                "type": "note_on",
                "note": 46,
                "velocity": 90,
                "time": 4
            },
            {
                "type": "note_on",
                "note": 34,
                "velocity": 74,
                "time": 0
            },
            {
                "type": "note_on",
                "note": 46,
                "velocity": 0,
                "time": 16
            },
            {
                "type": "note_on",
                "note": 34,
                "velocity": 0,
                "time": 10
            },
            {
                "type": "note_on",
                "note": 34,
                "velocity": 97,
                "time": 22
            },
            {
                "type": "note_on",
                "note": 46,
                "velocity": 83,
                "time": 0
            },
            {
                "type": "note_on",
                "note": 46,
                "velocity": 0,
                "time": 24
            },
            {
                "type": "note_on",
                "note": 34,
                "velocity": 0,
                "time": 0
            },
            {
                "type": "note_on",
                "note": 46,
                "velocity": 90,
                "time": 14
            },
            {
                "type": "note_on",
                "note": 34,
                "velocity": 109,
                "time": 0
            },
            {
                "type": "note_on",
                "note": 70,
                "velocity": 105,
                "time": 0
            },
            {
                "type": "note_on",
                "note": 65,
                "velocity": 108,
                "time": 0
            },
            {
                "type": "note_on",
                "note": 62,
                "velocity": 118,
                "time": 0
            },
            {
                "type": "note_on",
                "note": 34,
                "velocity": 0,
                "time": 52
            },
            {
                "type": "note_on",
                "note": 46,
                "velocity": 0,
                "time": 0
            },
            {
                "type": "note_on",
                "note": 65,
                "velocity": 0,
                "time": 4
            },
            {
                "type": "note_on",
                "note": 62,
                "velocity": 0,
                "time": 0
            },
            {
                "type": "note_on",
                "note": 70,
                "velocity": 0,
                "time": 10
            },
            {
                "type": "note_on",
                "note": 46,
                "velocity": 100,
                "time": 16
            },
            {
                "type": "note_on",
                "note": 34,
                "velocity": 98,
                "time": 0
            },
            {
                "type": "note_on",
                "note": 46,
                "velocity": 0,
                "time": 22
            },
            {
                "type": "note_on",
                "note": 34,
                "velocity": 0,
                "time": 2
            },
            {
                "type": "note_on",
                "note": 34,
                "velocity": 108,
                "time": 24
            },
            {
                "type": "note_on",
                "note": 46,
                "velocity": 95,
                "time": 0
            },
            {
                "type": "note_on",
                "note": 46,
                "velocity": 0,
                "time": 22
            },
            {
                "type": "note_on",
                "note": 34,
                "velocity": 0,
                "time": 0
            },
            {
                "type": "note_on",
                "note": 62,
                "velocity": 115,
                "time": 16
            },
            {
                "type": "note_on",
                "note": 34,
                "velocity": 123,
                "time": 0
            },
            {
                "type": "note_on",
                "note": 58,
                "velocity": 93,
                "time": 0
            },
            {
                "type": "note_on",
                "note": 46,
                "velocity": 92,
                "time": 0
            },
            {
                "type": "note_on",
                "note": 58,
                "velocity": 0,
                "time": 60
            },
            {
                "type": "note_on",
                "note": 62,
                "velocity": 0,
                "time": 8
            },
            {
                "type": "note_on",
                "note": 34,
                "velocity": 0,
                "time": 4
            },
            {
                "type": "note_on",
                "note": 46,
                "velocity": 0,
                "time": 0
            },
            {
                "type": "note_on",
                "note": 34,
                "velocity": 94,
                "time": 18
            },
            {
                "type": "note_on",
                "note": 46,
                "velocity": 102,
                "time": 0
            },
            {
                "type": "note_on",
                "note": 46,
                "velocity": 0,
                "time": 24
            },
            {
                "type": "note_on",
                "note": 34,
                "velocity": 0,
                "time": 0
            },
            {
                "type": "note_on",
                "note": 34,
                "velocity": 97,
                "time": 24
            },
            {
                "type": "note_on",
                "note": 46,
                "velocity": 89,
                "time": 0
            },
            {
                "type": "note_on",
                "note": 46,
                "velocity": 0,
                "time": 18
            },
            {
                "type": "note_on",
                "note": 34,
                "velocity": 0,
                "time": 2
            },
            {
                "type": "note_on",
                "note": 46,
                "velocity": 104,
                "time": 28
            },
            {
                "type": "note_on",
                "note": 62,
                "velocity": 121,
                "time": 0
            },
            {
                "type": "note_on",
                "note": 34,
                "velocity": 115,
                "time": 0
            },
            {
                "type": "note_on",
                "note": 68,
                "velocity": 107,
                "time": 0
            },
            {
                "type": "note_on",
                "note": 58,
                "velocity": 102,
                "time": 0
            },
            {
                "type": "note_on",
                "note": 46,
                "velocity": 0,
                "time": 16
            },
            {
                "type": "note_on",
                "note": 34,
                "velocity": 0,
                "time": 4
            },
            {
                "type": "note_on",
                "note": 46,
                "velocity": 111,
                "time": 10
            },
            {
                "type": "note_on",
                "note": 34,
                "velocity": 115,
                "time": 0
            },
            {
                "type": "note_on",
                "note": 34,
                "velocity": 0,
                "time": 16
            },
            {
                "type": "note_on",
                "note": 46,
                "velocity": 0,
                "time": 0
            },
            {
                "type": "note_on",
                "note": 62,
                "velocity": 0,
                "time": 10
            },
            {
                "type": "note_on",
                "note": 58,
                "velocity": 0,
                "time": 2
            },
            {
                "type": "note_on",
                "note": 68,
                "velocity": 0,
                "time": 10
            },
            {
                "type": "note_on",
                "note": 46,
                "velocity": 115,
                "time": 10
            },
            {
                "type": "note_on",
                "note": 34,
                "velocity": 125,
                "time": 0
            },
            {
                "type": "note_on",
                "note": 34,
                "velocity": 0,
                "time": 16
            },
            {
                "type": "note_on",
                "note": 46,
                "velocity": 0,
                "time": 0
            },
            {
                "type": "note_on",
                "note": 63,
                "velocity": 100,
                "time": 8
            },
            {
                "type": "note_on",
                "note": 51,
                "velocity": 102,
                "time": 0
            },
            {
                "type": "note_on",
                "note": 67,
                "velocity": 109,
                "time": 0
            },
            {
                "type": "note_on",
                "note": 39,
                "velocity": 114,
                "time": 0
            },
            {
                "type": "note_on",
                "note": 63,
                "velocity": 0,
                "time": 28
            },
            {
                "type": "note_on",
                "note": 67,
                "velocity": 0,
                "time": 32
            },
            {
                "type": "note_on",
                "note": 63,
                "velocity": 109,
                "time": 10
            },
            {
                "type": "note_on",
                "note": 63,
                "velocity": 0,
                "time": 42
            },
            {
                "type": "note_on",
                "note": 70,
                "velocity": 95,
                "time": 54
            },
            {
                "type": "note_on",
                "note": 67,
                "velocity": 118,
                "time": 0
            },
            {
                "type": "note_on",
                "note": 75,
                "velocity": 110,
                "time": 0
            },
            {
                "type": "note_on",
                "note": 70,
                "velocity": 0,
                "time": 34
            },
            {
                "type": "note_on",
                "note": 75,
                "velocity": 0,
                "time": 28
            },
            {
                "type": "note_on",
                "note": 67,
                "velocity": 0,
                "time": 18
            },
            {
                "type": "note_on",
                "note": 39,
                "velocity": 0,
                "time": 16
            },
            {
                "type": "note_on",
                "note": 63,
                "velocity": 98,
                "time": 0
            },
            {
                "type": "note_on",
                "note": 51,
                "velocity": 0,
                "time": 2
            },
            {
                "type": "note_on",
                "note": 63,
                "velocity": 0,
                "time": 22
            },
            {
                "type": "note_on",
                "note": 38,
                "velocity": 99,
                "time": 18
            },
            {
                "type": "note_on",
                "note": 50,
                "velocity": 107,
                "time": 0
            },
            {
                "type": "note_on",
                "note": 62,
                "velocity": 115,
                "time": 0
            },
            {
                "type": "note_on",
                "note": 65,
                "velocity": 111,
                "time": 0
            },
            {
                "type": "note_on",
                "note": 62,
                "velocity": 0,
                "time": 40
            },
            {
                "type": "note_on",
                "note": 65,
                "velocity": 0,
                "time": 34
            },
            {
                "type": "note_on",
                "note": 62,
                "velocity": 100,
                "time": 8
            },
            {
                "type": "note_on",
                "note": 62,
                "velocity": 0,
                "time": 30
            },
            {
                "type": "note_on",
                "note": 65,
                "velocity": 116,
                "time": 66
            },
            {
                "type": "note_on",
                "note": 70,
                "velocity": 102,
                "time": 0
            },
            {
                "type": "note_on",
                "note": 50,
                "velocity": 0,
                "time": 42
            },
            {
                "type": "note_on",
                "note": 38,
                "velocity": 0,
                "time": 22
            },
            {
                "type": "note_on",
                "note": 70,
                "velocity": 0,
                "time": 12
            },
            {
                "type": "note_on",
                "note": 65,
                "velocity": 0,
                "time": 8
            },
            {
                "type": "note_on",
                "note": 62,
                "velocity": 100,
                "time": 12
            },
            {
                "type": "note_on",
                "note": 62,
                "velocity": 0,
                "time": 16
            },
            {
                "type": "note_on",
                "note": 63,
                "velocity": 102,
                "time": 4
            },
            {
                "type": "note_on",
                "note": 48,
                "velocity": 86,
                "time": 0
            },
            {
                "type": "note_on",
                "note": 36,
                "velocity": 81,
                "time": 0
            },
            {
                "type": "note_on",
                "note": 67,
                "velocity": 101,
                "time": 0
            },
            {
                "type": "note_on",
                "note": 63,
                "velocity": 0,
                "time": 86
            },
            {
                "type": "note_on",
                "note": 67,
                "velocity": 0,
                "time": 2
            },
            {
                "type": "note_on",
                "note": 60,
                "velocity": 86,
                "time": 8
            },
            {
                "type": "note_on",
                "note": 63,
                "velocity": 88,
                "time": 96
            },
            {
                "type": "note_on",
                "note": 67,
                "velocity": 99,
                "time": 0
            },
            {
                "type": "note_on",
                "note": 60,
                "velocity": 0,
                "time": 4
            },
            {
                "type": "note_on",
                "note": 48,
                "velocity": 0,
                "time": 6
            },
            {
                "type": "note_on",
                "note": 36,
                "velocity": 0,
                "time": 14
            },
            {
                "type": "note_on",
                "note": 63,
                "velocity": 0,
                "time": 66
            },
            {
                "type": "note_on",
                "note": 67,
                "velocity": 0,
                "time": 2
            },
            {
                "type": "note_on",
                "note": 60,
                "velocity": 91,
                "time": 4
            },
            {
                "type": "note_on",
                "note": 60,
                "velocity": 0,
                "time": 16
            },
            {
                "type": "note_on",
                "note": 44,
                "velocity": 69,
                "time": 20
            },
            {
                "type": "note_on",
                "note": 32,
                "velocity": 84,
                "time": 0
            },
            {
                "type": "note_on",
                "note": 56,
                "velocity": 73,
                "time": 0
            },
            {
                "type": "note_on",
                "note": 59,
                "velocity": 91,
                "time": 0
            },
            {
                "type": "note_on",
                "note": 63,
                "velocity": 86,
                "time": 0
            },
            {
                "type": "note_on",
                "note": 63,
                "velocity": 0,
                "time": 160
            },
            {
                "type": "note_on",
                "note": 56,
                "velocity": 0,
                "time": 8
            },
            {
                "type": "note_on",
                "note": 59,
                "velocity": 0,
                "time": 2
            },
            {
                "type": "note_on",
                "note": 32,
                "velocity": 0,
                "time": 28
            },
            {
                "type": "note_on",
                "note": 44,
                "velocity": 0,
                "time": 4
            },
            {
                "type": "note_on",
                "note": 39,
                "velocity": 57,
                "time": 132
            },
            {
                "type": "note_on",
                "note": 63,
                "velocity": 72,
                "time": 2
            },
            {
                "type": "note_on",
                "note": 51,
                "velocity": 69,
                "time": 0
            },
            {
                "type": "note_on",
                "note": 67,
                "velocity": 84,
                "time": 4
            },
            {
                "type": "note_on",
                "note": 70,
                "velocity": 74,
                "time": 2
            },
            {
                "type": "note_on",
                "note": 63,
                "velocity": 0,
                "time": 12
            },
            {
                "type": "note_on",
                "note": 70,
                "velocity": 0,
                "time": 52
            },
            {
                "type": "note_on",
                "note": 67,
                "velocity": 0,
                "time": 2
            },
            {
                "type": "note_on",
                "note": 63,
                "velocity": 70,
                "time": 0
            },
            {
                "type": "note_on",
                "note": 67,
                "velocity": 86,
                "time": 96
            },
            {
                "type": "note_on",
                "note": 63,
                "velocity": 0,
                "time": 10
            },
            {
                "type": "note_on",
                "note": 67,
                "velocity": 0,
                "time": 66
            },
            {
                "type": "note_on",
                "note": 70,
                "velocity": 75,
                "time": 20
            },
            {
                "type": "note_on",
                "note": 70,
                "velocity": 0,
                "time": 14
            },
            {
                "type": "note_on",
                "note": 72,
                "velocity": 77,
                "time": 82
            },
            {
                "type": "note_on",
                "note": 68,
                "velocity": 71,
                "time": 0
            },
            {
                "type": "note_on",
                "note": 72,
                "velocity": 0,
                "time": 76
            },
            {
                "type": "note_on",
                "note": 68,
                "velocity": 0,
                "time": 6
            },
            {
                "type": "note_on",
                "note": 75,
                "velocity": 91,
                "time": 14
            },
            {
                "type": "note_on",
                "note": 75,
                "velocity": 0,
                "time": 84
            },
            {
                "type": "note_on",
                "note": 67,
                "velocity": 78,
                "time": 12
            },
            {
                "type": "note_on",
                "note": 70,
                "velocity": 77,
                "time": 0
            },
            {
                "type": "note_on",
                "note": 67,
                "velocity": 0,
                "time": 84
            },
            {
                "type": "note_on",
                "note": 70,
                "velocity": 0,
                "time": 10
            },
            {
                "type": "note_on",
                "note": 75,
                "velocity": 84,
                "time": 2
            },
            {
                "type": "note_on",
                "note": 75,
                "velocity": 0,
                "time": 78
            },
            {
                "type": "note_on",
                "note": 69,
                "velocity": 86,
                "time": 18
            },
            {
                "type": "note_on",
                "note": 66,
                "velocity": 83,
                "time": 0
            },
            {
                "type": "note_on",
                "note": 66,
                "velocity": 0,
                "time": 94
            },
            {
                "type": "note_on",
                "note": 75,
                "velocity": 92,
                "time": 2
            },
            {
                "type": "note_on",
                "note": 69,
                "velocity": 0,
                "time": 4
            },
            {
                "type": "note_on",
                "note": 65,
                "velocity": 76,
                "time": 92
            },
            {
                "type": "note_on",
                "note": 68,
                "velocity": 83,
                "time": 0
            },
            {
                "type": "note_on",
                "note": 75,
                "velocity": 0,
                "time": 4
            },
            {
                "type": "note_on",
                "note": 39,
                "velocity": 0,
                "time": 22
            },
            {
                "type": "note_on",
                "note": 51,
                "velocity": 0,
                "time": 6
            },
            {
                "type": "note_on",
                "note": 65,
                "velocity": 0,
                "time": 62
            },
            {
                "type": "note_on",
                "note": 68,
                "velocity": 0,
                "time": 2
            },
            {
                "type": "note_on",
                "note": 75,
                "velocity": 78,
                "time": 0
            },
            {
                "type": "note_on",
                "note": 75,
                "velocity": 0,
                "time": 46
            },
            {
                "type": "note_on",
                "note": 62,
                "velocity": 93,
                "time": 10
            },
            {
                "type": "note_on",
                "note": 46,
                "velocity": 70,
                "time": 0
            },
            {
                "type": "note_on",
                "note": 34,
                "velocity": 76,
                "time": 0
            },
            {
                "type": "note_on",
                "note": 58,
                "velocity": 79,
                "time": 0
            },
            {
                "type": "note_on",
                "note": 53,
                "velocity": 73,
                "time": 94
            },
            {
                "type": "note_on",
                "note": 58,
                "velocity": 0,
                "time": 2
            },
            {
                "type": "note_on",
                "note": 62,
                "velocity": 0,
                "time": 2
            },
            {
                "type": "note_on",
                "note": 58,
                "velocity": 89,
                "time": 92
            },
            {
                "type": "note_on",
                "note": 53,
                "velocity": 0,
                "time": 8
            },
            {
                "type": "note_on",
                "note": 62,
                "velocity": 100,
                "time": 88
            },
            {
                "type": "note_on",
                "note": 58,
                "velocity": 0,
                "time": 4
            },
            {
                "type": "note_on",
                "note": 79,
                "velocity": 112,
                "time": 92
            },
            {
                "type": "note_on",
                "note": 67,
                "velocity": 116,
                "time": 0
            },
            {
                "type": "note_on",
                "note": 62,
                "velocity": 0,
                "time": 12
            },
            {
                "type": "note_on",
                "note": 34,
                "velocity": 0,
                "time": 10
            },
            {
                "type": "note_on",
                "note": 46,
                "velocity": 0,
                "time": 4
            },
            {
                "type": "note_on",
                "note": 67,
                "velocity": 0,
                "time": 20
            },
            {
                "type": "note_on",
                "note": 79,
                "velocity": 0,
                "time": 12
            },
            {
                "type": "note_on",
                "note": 53,
                "velocity": 74,
                "time": 38
            },
            {
                "type": "note_on",
                "note": 53,
                "velocity": 0,
                "time": 96
            },
            {
                "type": "note_on",
                "note": 77,
                "velocity": 108,
                "time": 0
            },
            {
                "type": "note_on",
                "note": 65,
                "velocity": 98,
                "time": 0
            },
            {
                "type": "note_on",
                "note": 77,
                "velocity": 0,
                "time": 20
            },
            {
                "type": "note_on",
                "note": 65,
                "velocity": 0,
                "time": 52
            },
            {
                "type": "note_on",
                "note": 53,
                "velocity": 83,
                "time": 24
            },
            {
                "type": "note_on",
                "note": 53,
                "velocity": 0,
                "time": 36
            },
            {
                "type": "note_on",
                "note": 58,
                "velocity": 83,
                "time": 60
            },
            {
                "type": "note_on",
                "note": 34,
                "velocity": 87,
                "time": 0
            },
            {
                "type": "note_on",
                "note": 46,
                "velocity": 71,
                "time": 0
            },
            {
                "type": "note_on",
                "note": 62,
                "velocity": 100,
                "time": 0
            },
            {
                "type": "note_on",
                "note": 34,
                "velocity": 0,
                "time": 20
            },
            {
                "type": "note_on",
                "note": 46,
                "velocity": 0,
                "time": 6
            },
            {
                "type": "note_on",
                "note": 58,
                "velocity": 0,
                "time": 16
            },
            {
                "type": "note_on",
                "note": 53,
                "velocity": 69,
                "time": 14
            },
            {
                "type": "note_on",
                "note": 62,
                "velocity": 0,
                "time": 4
            },
            {
                "type": "note_on",
                "note": 58,
                "velocity": 93,
                "time": 92
            },
            {
                "type": "note_on",
                "note": 53,
                "velocity": 0,
                "time": 10
            },
            {
                "type": "note_on",
                "note": 62,
                "velocity": 95,
                "time": 86
            },
            {
                "type": "note_on",
                "note": 58,
                "velocity": 0,
                "time": 2
            },
            {
                "type": "note_on",
                "note": 67,
                "velocity": 125,
                "time": 94
            },
            {
                "type": "note_on",
                "note": 79,
                "velocity": 127,
                "time": 0
            },
            {
                "type": "note_on",
                "note": 62,
                "velocity": 0,
                "time": 4
            },
            {
                "type": "note_on",
                "note": 79,
                "velocity": 0,
                "time": 10
            },
            {
                "type": "note_on",
                "note": 67,
                "velocity": 0,
                "time": 16
            },
            {
                "type": "note_on",
                "note": 53,
                "velocity": 95,
                "time": 66
            },
            {
                "type": "note_on",
                "note": 53,
                "velocity": 0,
                "time": 84
            },
            {
                "type": "note_on",
                "note": 65,
                "velocity": 111,
                "time": 12
            },
            {
                "type": "note_on",
                "note": 77,
                "velocity": 121,
                "time": 0
            },
            {
                "type": "note_on",
                "note": 77,
                "velocity": 0,
                "time": 14
            },
            {
                "type": "note_on",
                "note": 65,
                "velocity": 0,
                "time": 66
            },
            {
                "type": "note_on",
                "note": 53,
                "velocity": 84,
                "time": 16
            },
            {
                "type": "note_on",
                "note": 53,
                "velocity": 0,
                "time": 26
            },
            {
                "type": "note_on",
                "note": 46,
                "velocity": 79,
                "time": 8
            },
            {
                "type": "note_on",
                "note": 58,
                "velocity": 91,
                "time": 0
            },
            {
                "type": "note_on",
                "note": 62,
                "velocity": 106,
                "time": 0
            },
            {
                "type": "note_on",
                "note": 34,
                "velocity": 97,
                "time": 0
            },
            {
                "type": "note_on",
                "note": 34,
                "velocity": 0,
                "time": 28
            },
            {
                "type": "note_on",
                "note": 46,
                "velocity": 0,
                "time": 4
            },
            {
                "type": "note_on",
                "note": 58,
                "velocity": 0,
                "time": 20
            },
            {
                "type": "note_on",
                "note": 53,
                "velocity": 100,
                "time": 10
            },
            {
                "type": "note_on",
                "note": 62,
                "velocity": 0,
                "time": 4
            },
            {
                "type": "note_on",
                "note": 58,
                "velocity": 102,
                "time": 92
            },
            {
                "type": "note_on",
                "note": 53,
                "velocity": 0,
                "time": 6
            },
            {
                "type": "note_on",
                "note": 58,
                "velocity": 0,
                "time": 80
            },
            {
                "type": "note_on",
                "note": 62,
                "velocity": 105,
                "time": 10
            },
            {
                "type": "note_on",
                "note": 79,
                "velocity": 112,
                "time": 96
            },
            {
                "type": "note_on",
                "note": 67,
                "velocity": 120,
                "time": 0
            },
            {
                "type": "note_on",
                "note": 62,
                "velocity": 0,
                "time": 10
            },
            {
                "type": "note_on",
                "note": 67,
                "velocity": 0,
                "time": 20
            },
            {
                "type": "note_on",
                "note": 79,
                "velocity": 0,
                "time": 10
            },
            {
                "type": "note_on",
                "note": 53,
                "velocity": 95,
                "time": 56
            },
            {
                "type": "note_on",
                "note": 53,
                "velocity": 0,
                "time": 84
            },
            {
                "type": "note_on",
                "note": 77,
                "velocity": 118,
                "time": 12
            },
            {
                "type": "note_on",
                "note": 65,
                "velocity": 114,
                "time": 0
            },
            {
                "type": "note_on",
                "note": 65,
                "velocity": 0,
                "time": 76
            },
            {
                "type": "note_on",
                "note": 77,
                "velocity": 0,
                "time": 8
            },
            {
                "type": "note_on",
                "note": 53,
                "velocity": 91,
                "time": 12
            },
            {
                "type": "note_on",
                "note": 53,
                "velocity": 0,
                "time": 22
            },
            {
                "type": "note_on",
                "note": 43,
                "velocity": 79,
                "time": 14
            },
            {
                "type": "note_on",
                "note": 62,
                "velocity": 113,
                "time": 0
            },
            {
                "type": "note_on",
                "note": 58,
                "velocity": 95,
                "time": 0
            },
            {
                "type": "note_on",
                "note": 31,
                "velocity": 98,
                "time": 0
            },
            {
                "type": "note_on",
                "note": 31,
                "velocity": 0,
                "time": 46
            },
            {
                "type": "note_on",
                "note": 43,
                "velocity": 0,
                "time": 2
            },
            {
                "type": "note_on",
                "note": 58,
                "velocity": 0,
                "time": 16
            },
            {
                "type": "note_on",
                "note": 62,
                "velocity": 0,
                "time": 0
            },
            {
                "type": "note_on",
                "note": 55,
                "velocity": 105,
                "time": 4
            },
            {
                "type": "note_on",
                "note": 58,
                "velocity": 102,
                "time": 96
            },
            {
                "type": "note_on",
                "note": 55,
                "velocity": 0,
                "time": 4
            },
            {
                "type": "note_on",
                "note": 58,
                "velocity": 0,
                "time": 76
            },
            {
                "type": "note_on",
                "note": 62,
                "velocity": 110,
                "time": 16
            },
            {
                "type": "note_on",
                "note": 81,
                "velocity": 127,
                "time": 96
            },
            {
                "type": "note_on",
                "note": 69,
                "velocity": 121,
                "time": 0
            },
            {
                "type": "note_on",
                "note": 62,
                "velocity": 0,
                "time": 2
            },
            {
                "type": "note_on",
                "note": 69,
                "velocity": 0,
                "time": 26
            },
            {
                "type": "note_on",
                "note": 81,
                "velocity": 0,
                "time": 22
            },
            {
                "type": "note_on",
                "note": 55,
                "velocity": 96,
                "time": 46
            },
            {
                "type": "note_on",
                "note": 55,
                "velocity": 0,
                "time": 96
            },
            {
                "type": "note_on",
                "note": 67,
                "velocity": 118,
                "time": 0
            },
            {
                "type": "note_on",
                "note": 79,
                "velocity": 127,
                "time": 0
            },
            {
                "type": "note_on",
                "note": 79,
                "velocity": 0,
                "time": 50
            },
            {
                "type": "note_on",
                "note": 67,
                "velocity": 0,
                "time": 6
            },
            {
                "type": "note_on",
                "note": 55,
                "velocity": 102,
                "time": 40
            },
            {
                "type": "note_on",
                "note": 55,
                "velocity": 0,
                "time": 16
            },
            {
                "type": "note_on",
                "note": 60,
                "velocity": 90,
                "time": 4
            },
            {
                "type": "note_on",
                "note": 36,
                "velocity": 95,
                "time": 0
            },
            {
                "type": "note_on",
                "note": 48,
                "velocity": 82,
                "time": 0
            },
            {
                "type": "note_on",
                "note": 63,
                "velocity": 108,
                "time": 0
            },
            {
                "type": "note_on",
                "note": 60,
                "velocity": 0,
                "time": 96
            },
            {
                "type": "note_on",
                "note": 60,
                "velocity": 108,
                "time": 0
            },
            {
                "type": "note_on",
                "note": 63,
                "velocity": 0,
                "time": 96
            },
            {
                "type": "note_on",
                "note": 63,
                "velocity": 106,
                "time": 0
            },
            {
                "type": "note_on",
                "note": 67,
                "velocity": 110,
                "time": 96
            },
            {
                "type": "note_on",
                "note": 74,
                "velocity": 119,
                "time": 96
            },
            {
                "type": "note_on",
                "note": 86,
                "velocity": 125,
                "time": 0
            },
            {
                "type": "note_on",
                "note": 86,
                "velocity": 0,
                "time": 22
            },
            {
                "type": "note_on",
                "note": 60,
                "velocity": 0,
                "time": 74
            },
            {
                "type": "note_on",
                "note": 60,
                "velocity": 97,
                "time": 0
            },
            {
                "type": "note_on",
                "note": 84,
                "velocity": 127,
                "time": 96
            },
            {
                "type": "note_on",
                "note": 72,
                "velocity": 116,
                "time": 0
            },
            {
                "type": "note_on",
                "note": 84,
                "velocity": 0,
                "time": 28
            },
            {
                "type": "note_on",
                "note": 60,
                "velocity": 0,
                "time": 68
            },
            {
                "type": "note_on",
                "note": 60,
                "velocity": 92,
                "time": 0
            },
            {
                "type": "note_on",
                "note": 60,
                "velocity": 0,
                "time": 96
            },
            {
                "type": "note_on",
                "note": 36,
                "velocity": 0,
                "time": 0
            },
            {
                "type": "note_on",
                "note": 74,
                "velocity": 0,
                "time": 0
            },
            {
                "type": "note_on",
                "note": 63,
                "velocity": 0,
                "time": 0
            },
            {
                "type": "note_on",
                "note": 67,
                "velocity": 0,
                "time": 0
            },
            {
                "type": "note_on",
                "note": 48,
                "velocity": 0,
                "time": 0
            },
            {
                "type": "note_on",
                "note": 72,
                "velocity": 0,
                "time": 0
            },
            {
                "type": "note_on",
                "note": 36,
                "velocity": 95,
                "time": 0
            },
            {
                "type": "note_on",
                "note": 67,
                "velocity": 114,
                "time": 0
            },
            {
                "type": "note_on",
                "note": 63,
                "velocity": 100,
                "time": 0
            },
            {
                "type": "note_on",
                "note": 48,
                "velocity": 90,
                "time": 0
            },
            {
                "type": "note_on",
                "note": 63,
                "velocity": 0,
                "time": 56
            },
            {
                "type": "note_on",
                "note": 67,
                "velocity": 0,
                "time": 6
            },
            {
                "type": "note_on",
                "note": 60,
                "velocity": 97,
                "time": 2
            },
            {
                "type": "note_on",
                "note": 36,
                "velocity": 0,
                "time": 38
            },
            {
                "type": "note_on",
                "note": 48,
                "velocity": 0,
                "time": 4
            },
            {
                "type": "note_on",
                "note": 63,
                "velocity": 101,
                "time": 54
            },
            {
                "type": "note_on",
                "note": 60,
                "velocity": 0,
                "time": 18
            },
            {
                "type": "note_on",
                "note": 63,
                "velocity": 0,
                "time": 62
            },
            {
                "type": "note_on",
                "note": 67,
                "velocity": 108,
                "time": 16
            },
            {
                "type": "note_on",
                "note": 67,
                "velocity": 0,
                "time": 26
            },
            {
                "type": "note_on",
                "note": 53,
                "velocity": 96,
                "time": 10
            },
            {
                "type": "note_on",
                "note": 41,
                "velocity": 106,
                "time": 0
            },
            {
                "type": "note_on",
                "note": 69,
                "velocity": 104,
                "time": 0
            },
            {
                "type": "note_on",
                "note": 63,
                "velocity": 86,
                "time": 0
            },
            {
                "type": "note_on",
                "note": 63,
                "velocity": 0,
                "time": 36
            },
            {
                "type": "note_on",
                "note": 63,
                "velocity": 100,
                "time": 38
            },
            {
                "type": "note_on",
                "note": 69,
                "velocity": 0,
                "time": 8
            },
            {
                "type": "note_on",
                "note": 53,
                "velocity": 0,
                "time": 8
            },
            {
                "type": "note_on",
                "note": 41,
                "velocity": 0,
                "time": 14
            },
            {
                "type": "note_on",
                "note": 63,
                "velocity": 0,
                "time": 54
            },
            {
                "type": "note_on",
                "note": 65,
                "velocity": 97,
                "time": 12
            },
            {
                "type": "note_on",
                "note": 72,
                "velocity": 99,
                "time": 96
            },
            {
                "type": "note_on",
                "note": 65,
                "velocity": 0,
                "time": 2
            },
            {
                "type": "note_on",
                "note": 72,
                "velocity": 0,
                "time": 14
            },
            {
                "type": "note_on",
                "note": 34,
                "velocity": 86,
                "time": 80
            },
            {
                "type": "note_on",
                "note": 46,
                "velocity": 76,
                "time": 0
            },
            {
                "type": "note_on",
                "note": 62,
                "velocity": 106,
                "time": 0
            },
            {
                "type": "note_on",
                "note": 58,
                "velocity": 86,
                "time": 0
            },
            {
                "type": "note_on",
                "note": 58,
                "velocity": 0,
                "time": 38
            },
            {
                "type": "note_on",
                "note": 62,
                "velocity": 0,
                "time": 2
            },
            {
                "type": "note_on",
                "note": 53,
                "velocity": 90,
                "time": 10
            },
            {
                "type": "note_on",
                "note": 58,
                "velocity": 102,
                "time": 96
            },
            {
                "type": "note_on",
                "note": 53,
                "velocity": 0,
                "time": 10
            },
            {
                "type": "note_on",
                "note": 34,
                "velocity": 0,
                "time": 10
            },
            {
                "type": "note_on",
                "note": 46,
                "velocity": 0,
                "time": 0
            },
            {
                "type": "note_on",
                "note": 58,
                "velocity": 0,
                "time": 68
            },
            {
                "type": "note_on",
                "note": 62,
                "velocity": 100,
                "time": 8
            },
            {
                "type": "note_on",
                "note": 62,
                "velocity": 0,
                "time": 96
            },
            {
                "type": "note_on",
                "note": 79,
                "velocity": 126,
                "time": 0
            },
            {
                "type": "note_on",
                "note": 67,
                "velocity": 120,
                "time": 0
            },
            {
                "type": "note_on",
                "note": 79,
                "velocity": 0,
                "time": 18
            },
            {
                "type": "note_on",
                "note": 67,
                "velocity": 0,
                "time": 20
            },
            {
                "type": "note_on",
                "note": 53,
                "velocity": 92,
                "time": 58
            },
            {
                "type": "note_on",
                "note": 53,
                "velocity": 0,
                "time": 80
            },
            {
                "type": "note_on",
                "note": 65,
                "velocity": 115,
                "time": 16
            },
            {
                "type": "note_on",
                "note": 77,
                "velocity": 118,
                "time": 0
            },
            {
                "type": "note_on",
                "note": 77,
                "velocity": 0,
                "time": 28
            },
            {
                "type": "note_on",
                "note": 53,
                "velocity": 93,
                "time": 68
            },
            {
                "type": "note_on",
                "note": 65,
                "velocity": 0,
                "time": 6
            },
            {
                "type": "note_on",
                "note": 53,
                "velocity": 0,
                "time": 36
            },
            {
                "type": "note_on",
                "note": 31,
                "velocity": 104,
                "time": 10
            },
            {
                "type": "note_on",
                "note": 43,
                "velocity": 86,
                "time": 0
            },
            {
                "type": "note_on",
                "note": 58,
                "velocity": 106,
                "time": 0
            },
            {
                "type": "note_on",
                "note": 62,
                "velocity": 120,
                "time": 0
            },
            {
                "type": "note_on",
                "note": 58,
                "velocity": 0,
                "time": 66
            },
            {
                "type": "note_on",
                "note": 62,
                "velocity": 0,
                "time": 6
            },
            {
                "type": "note_on",
                "note": 55,
                "velocity": 101,
                "time": 0
            },
            {
                "type": "note_on",
                "note": 31,
                "velocity": 0,
                "time": 28
            },
            {
                "type": "note_on",
                "note": 43,
                "velocity": 0,
                "time": 6
            },
            {
                "type": "note_on",
                "note": 58,
                "velocity": 98,
                "time": 62
            },
            {
                "type": "note_on",
                "note": 55,
                "velocity": 0,
                "time": 12
            },
            {
                "type": "note_on",
                "note": 62,
                "velocity": 101,
                "time": 84
            },
            {
                "type": "note_on",
                "note": 58,
                "velocity": 0,
                "time": 10
            },
            {
                "type": "note_on",
                "note": 69,
                "velocity": 125,
                "time": 86
            },
            {
                "type": "note_on",
                "note": 81,
                "velocity": 127,
                "time": 0
            },
            {
                "type": "note_on",
                "note": 62,
                "velocity": 0,
                "time": 2
            },
            {
                "type": "note_on",
                "note": 69,
                "velocity": 0,
                "time": 24
            },
            {
                "type": "note_on",
                "note": 81,
                "velocity": 0,
                "time": 10
            },
            {
                "type": "note_on",
                "note": 55,
                "velocity": 97,
                "time": 60
            },
            {
                "type": "note_on",
                "note": 55,
                "velocity": 0,
                "time": 82
            },
            {
                "type": "note_on",
                "note": 79,
                "velocity": 127,
                "time": 14
            },
            {
                "type": "note_on",
                "note": 67,
                "velocity": 115,
                "time": 0
            },
            {
                "type": "note_on",
                "note": 79,
                "velocity": 0,
                "time": 36
            },
            {
                "type": "note_on",
                "note": 67,
                "velocity": 0,
                "time": 18
            },
            {
                "type": "note_on",
                "note": 55,
                "velocity": 103,
                "time": 42
            },
            {
                "type": "note_on",
                "note": 55,
                "velocity": 0,
                "time": 20
            },
            {
                "type": "note_on",
                "note": 48,
                "velocity": 92,
                "time": 8
            },
            {
                "type": "note_on",
                "note": 36,
                "velocity": 98,
                "time": 0
            },
            {
                "type": "note_on",
                "note": 63,
                "velocity": 105,
                "time": 0
            },
            {
                "type": "note_on",
                "note": 67,
                "velocity": 120,
                "time": 0
            },
            {
                "type": "note_on",
                "note": 63,
                "velocity": 0,
                "time": 60
            },
            {
                "type": "note_on",
                "note": 67,
                "velocity": 0,
                "time": 4
            },
            {
                "type": "note_on",
                "note": 60,
                "velocity": 107,
                "time": 8
            },
            {
                "type": "note_on",
                "note": 48,
                "velocity": 0,
                "time": 38
            },
            {
                "type": "note_on",
                "note": 36,
                "velocity": 0,
                "time": 10
            },
            {
                "type": "note_on",
                "note": 63,
                "velocity": 119,
                "time": 48
            },
            {
                "type": "note_on",
                "note": 60,
                "velocity": 0,
                "time": 12
            },
            {
                "type": "note_on",
                "note": 67,
                "velocity": 127,
                "time": 84
            },
            {
                "type": "note_on",
                "note": 63,
                "velocity": 0,
                "time": 2
            },
            {
                "type": "note_on",
                "note": 67,
                "velocity": 0,
                "time": 48
            },
            {
                "type": "note_on",
                "note": 63,
                "velocity": 116,
                "time": 10
            },
            {
                "type": "note_on",
                "note": 35,
                "velocity": 115,
                "time": 0
            },
            {
                "type": "note_on",
                "note": 47,
                "velocity": 101,
                "time": 0
            },
            {
                "type": "note_on",
                "note": 59,
                "velocity": 115,
                "time": 0
            },
            {
                "type": "note_on",
                "note": 47,
                "velocity": 0,
                "time": 44
            },
            {
                "type": "note_on",
                "note": 35,
                "velocity": 0,
                "time": 4
            },
            {
                "type": "note_on",
                "note": 59,
                "velocity": 0,
                "time": 24
            },
            {
                "type": "note_on",
                "note": 63,
                "velocity": 0,
                "time": 2
            },
            {
                "type": "note_on",
                "note": 67,
                "velocity": 115,
                "time": 2
            },
            {
                "type": "note_on",
                "note": 67,
                "velocity": 0,
                "time": 32
            },
            {
                "type": "note_on",
                "note": 63,
                "velocity": 124,
                "time": 12
            },
            {
                "type": "note_on",
                "note": 34,
                "velocity": 111,
                "time": 0
            },
            {
                "type": "note_on",
                "note": 58,
                "velocity": 109,
                "time": 0
            },
            {
                "type": "note_on",
                "note": 46,
                "velocity": 93,
                "time": 0
            },
            {
                "type": "note_on",
                "note": 34,
                "velocity": 0,
                "time": 44
            },
            {
                "type": "note_on",
                "note": 46,
                "velocity": 0,
                "time": 6
            },
            {
                "type": "note_on",
                "note": 58,
                "velocity": 0,
                "time": 26
            },
            {
                "type": "note_on",
                "note": 63,
                "velocity": 0,
                "time": 2
            },
            {
                "type": "note_on",
                "note": 67,
                "velocity": 120,
                "time": 2
            },
            {
                "type": "note_on",
                "note": 67,
                "velocity": 0,
                "time": 50
            },
            {
                "type": "note_on",
                "note": 63,
                "velocity": 119,
                "time": 14
            },
            {
                "type": "note_on",
                "note": 33,
                "velocity": 114,
                "time": 0
            },
            {
                "type": "note_on",
                "note": 45,
                "velocity": 104,
                "time": 0
            },
            {
                "type": "note_on",
                "note": 57,
                "velocity": 106,
                "time": 0
            },
            {
                "type": "note_on",
                "note": 57,
                "velocity": 0,
                "time": 54
            },
            {
                "type": "note_on",
                "note": 63,
                "velocity": 0,
                "time": 24
            },
            {
                "type": "note_on",
                "note": 57,
                "velocity": 112,
                "time": 4
            },
            {
                "type": "note_on",
                "note": 45,
                "velocity": 0,
                "time": 96
            },
            {
                "type": "note_on",
                "note": 63,
                "velocity": 127,
                "time": 0
            },
            {
                "type": "note_on",
                "note": 33,
                "velocity": 0,
                "time": 8
            },
            {
                "type": "note_on",
                "note": 57,
                "velocity": 0,
                "time": 48
            },
            {
                "type": "note_on",
                "note": 67,
                "velocity": 122,
                "time": 40
            },
            {
                "type": "note_on",
                "note": 63,
                "velocity": 0,
                "time": 4
            },
            {
                "type": "note_on",
                "note": 67,
                "velocity": 0,
                "time": 24
            },
            {
                "type": "note_on",
                "note": 56,
                "velocity": 103,
                "time": 6
            },
            {
                "type": "note_on",
                "note": 32,
                "velocity": 117,
                "time": 0
            },
            {
                "type": "note_on",
                "note": 44,
                "velocity": 91,
                "time": 0
            },
            {
                "type": "note_on",
                "note": 63,
                "velocity": 120,
                "time": 0
            },
            {
                "type": "note_on",
                "note": 32,
                "velocity": 0,
                "time": 34
            },
            {
                "type": "note_on",
                "note": 44,
                "velocity": 0,
                "time": 2
            },
            {
                "type": "note_on",
                "note": 56,
                "velocity": 0,
                "time": 36
            },
            {
                "type": "note_on",
                "note": 67,
                "velocity": 125,
                "time": 2
            },
            {
                "type": "note_on",
                "note": 63,
                "velocity": 0,
                "time": 4
            },
            {
                "type": "note_on",
                "note": 67,
                "velocity": 0,
                "time": 76
            },
            {
                "type": "note_on",
                "note": 55,
                "velocity": 121,
                "time": 16
            },
            {
                "type": "note_on",
                "note": 43,
                "velocity": 106,
                "time": 0
            },
            {
                "type": "note_on",
                "note": 63,
                "velocity": 119,
                "time": 0
            },
            {
                "type": "note_on",
                "note": 31,
                "velocity": 117,
                "time": 0
            },
            {
                "type": "note_on",
                "note": 31,
                "velocity": 0,
                "time": 36
            },
            {
                "type": "note_on",
                "note": 43,
                "velocity": 0,
                "time": 10
            },
            {
                "type": "note_on",
                "note": 55,
                "velocity": 0,
                "time": 16
            },
            {
                "type": "note_on",
                "note": 67,
                "velocity": 127,
                "time": 4
            },
            {
                "type": "note_on",
                "note": 63,
                "velocity": 0,
                "time": 4
            },
            {
                "type": "note_on",
                "note": 67,
                "velocity": 0,
                "time": 14
            },
            {
                "type": "note_on",
                "note": 67,
                "velocity": 122,
                "time": 78
            },
            {
                "type": "note_on",
                "note": 39,
                "velocity": 114,
                "time": 0
            },
            {
                "type": "note_on",
                "note": 63,
                "velocity": 116,
                "time": 0
            },
            {
                "type": "note_on",
                "note": 51,
                "velocity": 109,
                "time": 0
            },
            {
                "type": "note_on",
                "note": 63,
                "velocity": 0,
                "time": 82
            },
            {
                "type": "note_on",
                "note": 63,
                "velocity": 102,
                "time": 0
            },
            {
                "type": "note_on",
                "note": 67,
                "velocity": 0,
                "time": 96
            },
            {
                "type": "note_on",
                "note": 67,
                "velocity": 105,
                "time": 0
            },
            {
                "type": "note_on",
                "note": 75,
                "velocity": 108,
                "time": 0
            },
            {
                "type": "note_on",
                "note": 70,
                "velocity": 102,
                "time": 0
            },
            {
                "type": "note_on",
                "note": 63,
                "velocity": 0,
                "time": 96
            },
            {
                "type": "note_on",
                "note": 63,
                "velocity": 96,
                "time": 0
            },
            {
                "type": "note_on",
                "note": 67,
                "velocity": 0,
                "time": 96
            },
            {
                "type": "note_on",
                "note": 70,
                "velocity": 0,
                "time": 0
            },
            {
                "type": "note_on",
                "note": 67,
                "velocity": 122,
                "time": 0
            },
            {
                "type": "note_on",
                "note": 70,
                "velocity": 102,
                "time": 0
            },
            {
                "type": "note_on",
                "note": 63,
                "velocity": 0,
                "time": 96
            },
            {
                "type": "note_on",
                "note": 63,
                "velocity": 96,
                "time": 0
            },
            {
                "type": "note_on",
                "note": 63,
                "velocity": 0,
                "time": 96
            },
            {
                "type": "note_on",
                "note": 70,
                "velocity": 0,
                "time": 0
            },
            {
                "type": "note_on",
                "note": 39,
                "velocity": 0,
                "time": 0
            },
            {
                "type": "note_on",
                "note": 51,
                "velocity": 0,
                "time": 0
            },
            {
                "type": "note_on",
                "note": 75,
                "velocity": 0,
                "time": 0
            },
            {
                "type": "note_on",
                "note": 67,
                "velocity": 0,
                "time": 0
            },
            {
                "type": "note_on",
                "note": 65,
                "velocity": 115,
                "time": 0
            },
            {
                "type": "note_on",
                "note": 50,
                "velocity": 103,
                "time": 0
            },
            {
                "type": "note_on",
                "note": 38,
                "velocity": 111,
                "time": 0
            },
            {
                "type": "note_on",
                "note": 62,
                "velocity": 118,
                "time": 0
            },
            {
                "type": "note_on",
                "note": 58,
                "velocity": 91,
                "time": 96
            },
            {
                "type": "note_on",
                "note": 58,
                "velocity": 0,
                "time": 96
            },
            {
                "type": "note_on",
                "note": 38,
                "velocity": 0,
                "time": 0
            },
            {
                "type": "note_on",
                "note": 65,
                "velocity": 0,
                "time": 0
            },
            {
                "type": "note_on",
                "note": 50,
                "velocity": 0,
                "time": 0
            },
            {
                "type": "note_on",
                "note": 62,
                "velocity": 0,
                "time": 0
            },
            {
                "type": "note_on",
                "note": 36,
                "velocity": 110,
                "time": 0
            },
            {
                "type": "note_on",
                "note": 48,
                "velocity": 106,
                "time": 0
            },
            {
                "type": "note_on",
                "note": 60,
                "velocity": 94,
                "time": 0
            },
            {
                "type": "note_on",
                "note": 63,
                "velocity": 117,
                "time": 0
            },
            {
                "type": "note_on",
                "note": 67,
                "velocity": 123,
                "time": 0
            },
            {
                "type": "note_on",
                "note": 60,
                "velocity": 0,
                "time": 96
            },
            {
                "type": "note_on",
                "note": 60,
                "velocity": 99,
                "time": 0
            },
            {
                "type": "note_on",
                "note": 63,
                "velocity": 0,
                "time": 96
            },
            {
                "type": "note_on",
                "note": 63,
                "velocity": 113,
                "time": 0
            },
            {
                "type": "note_on",
                "note": 60,
                "velocity": 0,
                "time": 4
            },
            {
                "type": "note_on",
                "note": 67,
                "velocity": 0,
                "time": 92
            },
            {
                "type": "note_on",
                "note": 67,
                "velocity": 115,
                "time": 0
            },
            {
                "type": "note_on",
                "note": 67,
                "velocity": 0,
                "time": 96
            },
            {
                "type": "note_on",
                "note": 86,
                "velocity": 126,
                "time": 0
            },
            {
                "type": "note_on",
                "note": 74,
                "velocity": 127,
                "time": 0
            },
            {
                "type": "note_on",
                "note": 86,
                "velocity": 0,
                "time": 36
            },
            {
                "type": "note_on",
                "note": 60,
                "velocity": 103,
                "time": 60
            },
            {
                "type": "note_on",
                "note": 72,
                "velocity": 126,
                "time": 96
            },
            {
                "type": "note_on",
                "note": 84,
                "velocity": 127,
                "time": 0
            },
            {
                "type": "note_on",
                "note": 84,
                "velocity": 0,
                "time": 58
            },
            {
                "type": "note_on",
                "note": 60,
                "velocity": 0,
                "time": 38
            },
            {
                "type": "note_on",
                "note": 60,
                "velocity": 105,
                "time": 0
            },
            {
                "type": "note_on",
                "note": 60,
                "velocity": 0,
                "time": 96
            },
            {
                "type": "note_on",
                "note": 72,
                "velocity": 0,
                "time": 0
            },
            {
                "type": "note_on",
                "note": 74,
                "velocity": 0,
                "time": 0
            },
            {
                "type": "note_on",
                "note": 36,
                "velocity": 0,
                "time": 0
            },
            {
                "type": "note_on",
                "note": 48,
                "velocity": 0,
                "time": 0
            },
            {
                "type": "note_on",
                "note": 63,
                "velocity": 0,
                "time": 0
            },
            {
                "type": "note_on",
                "note": 53,
                "velocity": 114,
                "time": 0
            },
            {
                "type": "note_on",
                "note": 41,
                "velocity": 116,
                "time": 0
            },
            {
                "type": "note_on",
                "note": 68,
                "velocity": 105,
                "time": 0
            },
            {
                "type": "note_on",
                "note": 65,
                "velocity": 110,
                "time": 0
            },
            {
                "type": "note_on",
                "note": 65,
                "velocity": 0,
                "time": 58
            },
            {
                "type": "note_on",
                "note": 68,
                "velocity": 0,
                "time": 26
            },
            {
                "type": "note_on",
                "note": 65,
                "velocity": 112,
                "time": 4
            },
            {
                "type": "note_on",
                "note": 65,
                "velocity": 0,
                "time": 30
            },
            {
                "type": "note_on",
                "note": 53,
                "velocity": 0,
                "time": 40
            },
            {
                "type": "note_on",
                "note": 41,
                "velocity": 0,
                "time": 6
            },
            {
                "type": "note_on",
                "note": 72,
                "velocity": 121,
                "time": 20
            },
            {
                "type": "note_on",
                "note": 68,
                "velocity": 105,
                "time": 0
            },
            {
                "type": "note_on",
                "note": 77,
                "velocity": 108,
                "time": 0
            },
            {
                "type": "note_on",
                "note": 77,
                "velocity": 0,
                "time": 16
            },
            {
                "type": "note_on",
                "note": 68,
                "velocity": 0,
                "time": 4
            },
            {
                "type": "note_on",
                "note": 72,
                "velocity": 0,
                "time": 2
            },
            {
                "type": "note_on",
                "note": 52,
                "velocity": 109,
                "time": 30
            },
            {
                "type": "note_on",
                "note": 40,
                "velocity": 110,
                "time": 0
            },
            {
                "type": "note_on",
                "note": 68,
                "velocity": 113,
                "time": 0
            },
            {
                "type": "note_on",
                "note": 64,
                "velocity": 113,
                "time": 0
            },
            {
                "type": "note_on",
                "note": 72,
                "velocity": 126,
                "time": 0
            },
            {
                "type": "note_on",
                "note": 40,
                "velocity": 0,
                "time": 18
            },
            {
                "type": "note_on",
                "note": 52,
                "velocity": 0,
                "time": 4
            },
            {
                "type": "note_on",
                "note": 64,
                "velocity": 0,
                "time": 18
            },
            {
                "type": "note_on",
                "note": 68,
                "velocity": 0,
                "time": 8
            },
            {
                "type": "note_on",
                "note": 72,
                "velocity": 0,
                "time": 4
            },
            {
                "type": "note_on",
                "note": 39,
                "velocity": 127,
                "time": 16
            },
            {
                "type": "note_on",
                "note": 63,
                "velocity": 117,
                "time": 0
            },
            {
                "type": "note_on",
                "note": 68,
                "velocity": 120,
                "time": 0
            },
            {
                "type": "note_on",
                "note": 51,
                "velocity": 101,
                "time": 0
            },
            {
                "type": "note_on",
                "note": 72,
                "velocity": 123,
                "time": 0
            },
            {
                "type": "note_on",
                "note": 63,
                "velocity": 0,
                "time": 54
            },
            {
                "type": "note_on",
                "note": 39,
                "velocity": 0,
                "time": 18
            },
            {
                "type": "note_on",
                "note": 68,
                "velocity": 0,
                "time": 8
            },
            {
                "type": "note_on",
                "note": 51,
                "velocity": 0,
                "time": 2
            },
            {
                "type": "note_on",
                "note": 72,
                "velocity": 0,
                "time": 2
            },
            {
                "type": "note_on",
                "note": 63,
                "velocity": 114,
                "time": 2
            },
            {
                "type": "note_on",
                "note": 63,
                "velocity": 0,
                "time": 24
            },
            {
                "type": "note_on",
                "note": 68,
                "velocity": 119,
                "time": 12
            },
            {
                "type": "note_on",
                "note": 50,
                "velocity": 110,
                "time": 0
            },
            {
                "type": "note_on",
                "note": 62,
                "velocity": 121,
                "time": 0
            },
            {
                "type": "note_on",
                "note": 38,
                "velocity": 115,
                "time": 0
            },
            {
                "type": "note_on",
                "note": 72,
                "velocity": 122,
                "time": 0
            },
            {
                "type": "note_on",
                "note": 50,
                "velocity": 0,
                "time": 52
            },
            {
                "type": "note_on",
                "note": 62,
                "velocity": 0,
                "time": 2
            },
            {
                "type": "note_on",
                "note": 38,
                "velocity": 0,
                "time": 6
            },
            {
                "type": "note_on",
                "note": 68,
                "velocity": 0,
                "time": 16
            },
            {
                "type": "note_on",
                "note": 62,
                "velocity": 110,
                "time": 0
            },
            {
                "type": "note_on",
                "note": 72,
                "velocity": 0,
                "time": 6
            },
            {
                "type": "note_on",
                "note": 62,
                "velocity": 0,
                "time": 10
            },
            {
                "type": "note_on",
                "note": 34,
                "velocity": 117,
                "time": 12
            },
            {
                "type": "note_on",
                "note": 46,
                "velocity": 92,
                "time": 0
            },
            {
                "type": "note_on",
                "note": 53,
                "velocity": 112,
                "time": 0
            },
            {
                "type": "note_on",
                "note": 58,
                "velocity": 108,
                "time": 0
            },
            {
                "type": "note_on",
                "note": 62,
                "velocity": 121,
                "time": 0
            },
            {
                "type": "note_on",
                "note": 34,
                "velocity": 0,
                "time": 46
            },
            {
                "type": "note_on",
                "note": 46,
                "velocity": 0,
                "time": 2
            },
            {
                "type": "note_on",
                "note": 62,
                "velocity": 0,
                "time": 12
            },
            {
                "type": "note_on",
                "note": 58,
                "velocity": 0,
                "time": 2
            },
            {
                "type": "note_on",
                "note": 53,
                "velocity": 0,
                "time": 8
            },
            {
                "type": "note_on",
                "note": 34,
                "velocity": 97,
                "time": 6
            },
            {
                "type": "note_on",
                "note": 46,
                "velocity": 84,
                "time": 0
            },
            {
                "type": "note_on",
                "note": 46,
                "velocity": 0,
                "time": 20
            },
            {
                "type": "note_on",
                "note": 34,
                "velocity": 0,
                "time": 0
            },
            {
                "type": "note_on",
                "note": 65,
                "velocity": 107,
                "time": 28
            },
            {
                "type": "note_on",
                "note": 34,
                "velocity": 108,
                "time": 0
            },
            {
                "type": "note_on",
                "note": 58,
                "velocity": 102,
                "time": 0
            },
            {
                "type": "note_on",
                "note": 62,
                "velocity": 115,
                "time": 0
            },
            {
                "type": "note_on",
                "note": 46,
                "velocity": 84,
                "time": 0
            },
            {
                "type": "note_on",
                "note": 46,
                "velocity": 0,
                "time": 16
            },
            {
                "type": "note_on",
                "note": 58,
                "velocity": 0,
                "time": 0
            },
            {
                "type": "note_on",
                "note": 62,
                "velocity": 0,
                "time": 0
            },
            {
                "type": "note_on",
                "note": 34,
                "velocity": 0,
                "time": 2
            },
            {
                "type": "note_on",
                "note": 65,
                "velocity": 0,
                "time": 2
            },
            {
                "type": "note_on",
                "note": 58,
                "velocity": 110,
                "time": 26
            },
            {
                "type": "note_on",
                "note": 62,
                "velocity": 121,
                "time": 0
            },
            {
                "type": "note_on",
                "note": 34,
                "velocity": 125,
                "time": 0
            },
            {
                "type": "note_on",
                "note": 46,
                "velocity": 103,
                "time": 0
            },
            {
                "type": "note_on",
                "note": 65,
                "velocity": 107,
                "time": 0
            },
            {
                "type": "note_on",
                "note": 46,
                "velocity": 0,
                "time": 20
            },
            {
                "type": "note_on",
                "note": 34,
                "velocity": 0,
                "time": 0
            },
            {
                "type": "note_on",
                "note": 62,
                "velocity": 0,
                "time": 64
            },
            {
                "type": "note_on",
                "note": 58,
                "velocity": 0,
                "time": 2
            },
            {
                "type": "note_on",
                "note": 65,
                "velocity": 0,
                "time": 0
            },
            {
                "type": "note_on",
                "note": 34,
                "velocity": 104,
                "time": 4
            },
            {
                "type": "note_on",
                "note": 46,
                "velocity": 97,
                "time": 0
            },
            {
                "type": "note_on",
                "note": 46,
                "velocity": 0,
                "time": 16
            },
            {
                "type": "note_on",
                "note": 34,
                "velocity": 0,
                "time": 2
            },
            {
                "type": "note_on",
                "note": 34,
                "velocity": 105,
                "time": 30
            },
            {
                "type": "note_on",
                "note": 62,
                "velocity": 115,
                "time": 0
            },
            {
                "type": "note_on",
                "note": 46,
                "velocity": 93,
                "time": 0
            },
            {
                "type": "note_on",
                "note": 58,
                "velocity": 98,
                "time": 0
            },
            {
                "type": "note_on",
                "note": 46,
                "velocity": 0,
                "time": 6
            },
            {
                "type": "note_on",
                "note": 34,
                "velocity": 0,
                "time": 0
            },
            {
                "type": "note_on",
                "note": 62,
                "velocity": 0,
                "time": 2
            },
            {
                "type": "note_on",
                "note": 58,
                "velocity": 0,
                "time": 0
            },
            {
                "type": "note_on",
                "note": 34,
                "velocity": 119,
                "time": 6
            },
            {
                "type": "note_on",
                "note": 58,
                "velocity": 112,
                "time": 0
            },
            {
                "type": "note_on",
                "note": 62,
                "velocity": 127,
                "time": 0
            },
            {
                "type": "note_on",
                "note": 46,
                "velocity": 101,
                "time": 0
            },
            {
                "type": "note_on",
                "note": 34,
                "velocity": 0,
                "time": 24
            },
            {
                "type": "note_on",
                "note": 46,
                "velocity": 0,
                "time": 4
            },
            {
                "type": "note_on",
                "note": 58,
                "velocity": 0,
                "time": 14
            },
            {
                "type": "note_on",
                "note": 62,
                "velocity": 0,
                "time": 10
            },
            {
                "type": "note_on",
                "note": 46,
                "velocity": 88,
                "time": 44
            },
            {
                "type": "note_on",
                "note": 34,
                "velocity": 104,
                "time": 0
            },
            {
                "type": "note_on",
                "note": 34,
                "velocity": 0,
                "time": 16
            },
            {
                "type": "note_on",
                "note": 46,
                "velocity": 0,
                "time": 0
            },
            {
                "type": "note_on",
                "note": 46,
                "velocity": 86,
                "time": 32
            },
            {
                "type": "note_on",
                "note": 34,
                "velocity": 100,
                "time": 0
            },
            {
                "type": "note_on",
                "note": 62,
                "velocity": 112,
                "time": 0
            },
            {
                "type": "note_on",
                "note": 58,
                "velocity": 93,
                "time": 0
            },
            {
                "type": "note_on",
                "note": 68,
                "velocity": 102,
                "time": 0
            },
            {
                "type": "note_on",
                "note": 34,
                "velocity": 0,
                "time": 14
            },
            {
                "type": "note_on",
                "note": 46,
                "velocity": 0,
                "time": 0
            },
            {
                "type": "note_on",
                "note": 62,
                "velocity": 0,
                "time": 6
            },
            {
                "type": "note_on",
                "note": 58,
                "velocity": 0,
                "time": 2
            },
            {
                "type": "note_on",
                "note": 68,
                "velocity": 0,
                "time": 0
            },
            {
                "type": "note_on",
                "note": 62,
                "velocity": 127,
                "time": 6
            },
            {
                "type": "note_on",
                "note": 46,
                "velocity": 101,
                "time": 0
            },
            {
                "type": "note_on",
                "note": 58,
                "velocity": 117,
                "time": 0
            },
            {
                "type": "note_on",
                "note": 34,
                "velocity": 105,
                "time": 0
            },
            {
                "type": "note_on",
                "note": 68,
                "velocity": 127,
                "time": 0
            },
            {
                "type": "note_on",
                "note": 34,
                "velocity": 0,
                "time": 22
            },
            {
                "type": "note_on",
                "note": 46,
                "velocity": 0,
                "time": 2
            },
            {
                "type": "note_on",
                "note": 68,
                "velocity": 0,
                "time": 24
            },
            {
                "type": "note_on",
                "note": 46,
                "velocity": 105,
                "time": 0
            },
            {
                "type": "note_on",
                "note": 34,
                "velocity": 108,
                "time": 0
            },
            {
                "type": "note_on",
                "note": 58,
                "velocity": 0,
                "time": 10
            },
            {
                "type": "note_on",
                "note": 62,
                "velocity": 0,
                "time": 2
            },
            {
                "type": "note_on",
                "note": 46,
                "velocity": 0,
                "time": 4
            },
            {
                "type": "note_on",
                "note": 34,
                "velocity": 0,
                "time": 2
            },
            {
                "type": "note_on",
                "note": 46,
                "velocity": 109,
                "time": 30
            },
            {
                "type": "note_on",
                "note": 34,
                "velocity": 127,
                "time": 0
            },
            {
                "type": "note_on",
                "note": 62,
                "velocity": 127,
                "time": 0
            },
            {
                "type": "note_on",
                "note": 58,
                "velocity": 119,
                "time": 0
            },
            {
                "type": "note_on",
                "note": 68,
                "velocity": 124,
                "time": 0
            },
            {
                "type": "note_on",
                "note": 34,
                "velocity": 0,
                "time": 14
            },
            {
                "type": "note_on",
                "note": 58,
                "velocity": 0,
                "time": 2
            },
            {
                "type": "note_on",
                "note": 46,
                "velocity": 0,
                "time": 0
            },
            {
                "type": "note_on",
                "note": 68,
                "velocity": 0,
                "time": 0
            },
            {
                "type": "note_on",
                "note": 62,
                "velocity": 0,
                "time": 4
            },
            {
                "type": "note_on",
                "note": 67,
                "velocity": 127,
                "time": 18
            },
            {
                "type": "note_on",
                "note": 39,
                "velocity": 127,
                "time": 0
            },
            {
                "type": "note_on",
                "note": 58,
                "velocity": 110,
                "time": 0
            },
            {
                "type": "note_on",
                "note": 63,
                "velocity": 124,
                "time": 0
            },
            {
                "type": "note_on",
                "note": 51,
                "velocity": 115,
                "time": 0
            },
            {
                "type": "note_on",
                "note": 58,
                "velocity": 0,
                "time": 42
            },
            {
                "type": "note_on",
                "note": 63,
                "velocity": 0,
                "time": 32
            },
            {
                "type": "note_on",
                "note": 67,
                "velocity": 0,
                "time": 0
            },
            {
                "type": "note_on",
                "note": 58,
                "velocity": 102,
                "time": 10
            },
            {
                "type": "note_on",
                "note": 58,
                "velocity": 0,
                "time": 42
            },
            {
                "type": "note_on",
                "note": 67,
                "velocity": 120,
                "time": 20
            },
            {
                "type": "note_on",
                "note": 63,
                "velocity": 119,
                "time": 0
            },
            {
                "type": "note_on",
                "note": 70,
                "velocity": 114,
                "time": 0
            },
            {
                "type": "note_on",
                "note": 51,
                "velocity": 0,
                "time": 64
            },
            {
                "type": "note_on",
                "note": 39,
                "velocity": 0,
                "time": 2
            },
            {
                "type": "note_on",
                "note": 63,
                "velocity": 0,
                "time": 10
            },
            {
                "type": "note_on",
                "note": 67,
                "velocity": 0,
                "time": 2
            },
            {
                "type": "note_on",
                "note": 58,
                "velocity": 107,
                "time": 12
            },
            {
                "type": "note_on",
                "note": 70,
                "velocity": 0,
                "time": 4
            },
            {
                "type": "note_on",
                "note": 58,
                "velocity": 0,
                "time": 50
            },
            {
                "type": "note_on",
                "note": 65,
                "velocity": 121,
                "time": 14
            },
            {
                "type": "note_on",
                "note": 50,
                "velocity": 111,
                "time": 0
            },
            {
                "type": "note_on",
                "note": 62,
                "velocity": 123,
                "time": 0
            },
            {
                "type": "note_on",
                "note": 38,
                "velocity": 122,
                "time": 0
            },
            {
                "type": "note_on",
                "note": 65,
                "velocity": 0,
                "time": 80
            },
            {
                "type": "note_on",
                "note": 58,
                "velocity": 100,
                "time": 4
            },
            {
                "type": "note_on",
                "note": 62,
                "velocity": 0,
                "time": 4
            },
            {
                "type": "note_on",
                "note": 58,
                "velocity": 0,
                "time": 40
            },
            {
                "type": "note_on",
                "note": 65,
                "velocity": 110,
                "time": 16
            },
            {
                "type": "note_on",
                "note": 62,
                "velocity": 126,
                "time": 0
            },
            {
                "type": "note_on",
                "note": 70,
                "velocity": 102,
                "time": 0
            },
            {
                "type": "note_on",
                "note": 38,
                "velocity": 0,
                "time": 14
            },
            {
                "type": "note_on",
                "note": 50,
                "velocity": 0,
                "time": 2
            },
            {
                "type": "note_on",
                "note": 65,
                "velocity": 0,
                "time": 58
            },
            {
                "type": "note_on",
                "note": 62,
                "velocity": 0,
                "time": 10
            },
            {
                "type": "note_on",
                "note": 38,
                "velocity": 113,
                "time": 12
            },
            {
                "type": "note_on",
                "note": 50,
                "velocity": 109,
                "time": 0
            },
            {
                "type": "note_on",
                "note": 58,
                "velocity": 96,
                "time": 0
            },
            {
                "type": "note_on",
                "note": 70,
                "velocity": 0,
                "time": 6
            },
            {
                "type": "note_on",
                "note": 38,
                "velocity": 0,
                "time": 18
            },
            {
                "type": "note_on",
                "note": 50,
                "velocity": 0,
                "time": 0
            },
            {
                "type": "note_on",
                "note": 58,
                "velocity": 0,
                "time": 0
            },
            {
                "type": "note_on",
                "note": 63,
                "velocity": 117,
                "time": 22
            },
            {
                "type": "note_on",
                "note": 48,
                "velocity": 109,
                "time": 0
            },
            {
                "type": "note_on",
                "note": 67,
                "velocity": 114,
                "time": 0
            },
            {
                "type": "note_on",
                "note": 36,
                "velocity": 103,
                "time": 0
            },
            {
                "type": "note_on",
                "note": 60,
                "velocity": 115,
                "time": 96
            },
            {
                "type": "note_on",
                "note": 63,
                "velocity": 0,
                "time": 96
            },
            {
                "type": "note_on",
                "note": 63,
                "velocity": 117,
                "time": 0
            },
            {
                "type": "note_on",
                "note": 67,
                "velocity": 0,
                "time": 96
            },
            {
                "type": "note_on",
                "note": 67,
                "velocity": 115,
                "time": 0
            },
            {
                "type": "note_on",
                "note": 74,
                "velocity": 127,
                "time": 96
            },
            {
                "type": "note_on",
                "note": 86,
                "velocity": 126,
                "time": 0
            },
            {
                "type": "note_on",
                "note": 60,
                "velocity": 0,
                "time": 96
            },
            {
                "type": "note_on",
                "note": 60,
                "velocity": 105,
                "time": 0
            },
            {
                "type": "note_on",
                "note": 86,
                "velocity": 0,
                "time": 70
            },
            {
                "type": "note_on",
                "note": 84,
                "velocity": 127,
                "time": 26
            },
            {
                "type": "note_on",
                "note": 72,
                "velocity": 126,
                "time": 0
            },
            {
                "type": "note_on",
                "note": 60,
                "velocity": 0,
                "time": 96
            },
            {
                "type": "note_on",
                "note": 60,
                "velocity": 103,
                "time": 0
            },
            {
                "type": "note_on",
                "note": 84,
                "velocity": 0,
                "time": 46
            },
            {
                "type": "note_on",
                "note": 67,
                "velocity": 0,
                "time": 50
            },
            {
                "type": "note_on",
                "note": 74,
                "velocity": 0,
                "time": 0
            },
            {
                "type": "note_on",
                "note": 36,
                "velocity": 0,
                "time": 0
            },
            {
                "type": "note_on",
                "note": 63,
                "velocity": 0,
                "time": 0
            },
            {
                "type": "note_on",
                "note": 72,
                "velocity": 0,
                "time": 0
            },
            {
                "type": "note_on",
                "note": 48,
                "velocity": 0,
                "time": 0
            },
            {
                "type": "note_on",
                "note": 60,
                "velocity": 0,
                "time": 0
            },
            {
                "type": "note_on",
                "note": 41,
                "velocity": 110,
                "time": 0
            },
            {
                "type": "note_on",
                "note": 68,
                "velocity": 112,
                "time": 0
            },
            {
                "type": "note_on",
                "note": 53,
                "velocity": 109,
                "time": 0
            },
            {
                "type": "note_on",
                "note": 65,
                "velocity": 119,
                "time": 0
            },
            {
                "type": "note_on",
                "note": 65,
                "velocity": 0,
                "time": 48
            },
            {
                "type": "note_on",
                "note": 68,
                "velocity": 0,
                "time": 20
            },
            {
                "type": "note_on",
                "note": 65,
                "velocity": 114,
                "time": 10
            },
            {
                "type": "note_on",
                "note": 53,
                "velocity": 0,
                "time": 20
            },
            {
                "type": "note_on",
                "note": 41,
                "velocity": 0,
                "time": 4
            },
            {
                "type": "note_on",
                "note": 65,
                "velocity": 0,
                "time": 12
            },
            {
                "type": "note_on",
                "note": 68,
                "velocity": 103,
                "time": 60
            },
            {
                "type": "note_on",
                "note": 72,
                "velocity": 119,
                "time": 0
            },
            {
                "type": "note_on",
                "note": 77,
                "velocity": 127,
                "time": 0
            },
            {
                "type": "note_on",
                "note": 77,
                "velocity": 0,
                "time": 26
            },
            {
                "type": "note_on",
                "note": 72,
                "velocity": 0,
                "time": 4
            },
            {
                "type": "note_on",
                "note": 68,
                "velocity": 0,
                "time": 12
            },
            {
                "type": "note_on",
                "note": 64,
                "velocity": 114,
                "time": 26
            },
            {
                "type": "note_on",
                "note": 40,
                "velocity": 111,
                "time": 0
            },
            {
                "type": "note_on",
                "note": 52,
                "velocity": 113,
                "time": 0
            },
            {
                "type": "note_on",
                "note": 72,
                "velocity": 122,
                "time": 0
            },
            {
                "type": "note_on",
                "note": 68,
                "velocity": 114,
                "time": 0
            },
            {
                "type": "note_on",
                "note": 52,
                "velocity": 0,
                "time": 22
            },
            {
                "type": "note_on",
                "note": 40,
                "velocity": 0,
                "time": 2
            },
            {
                "type": "note_on",
                "note": 64,
                "velocity": 0,
                "time": 14
            },
            {
                "type": "note_on",
                "note": 68,
                "velocity": 0,
                "time": 6
            },
            {
                "type": "note_on",
                "note": 72,
                "velocity": 0,
                "time": 4
            },
            {
                "type": "note_on",
                "note": 39,
                "velocity": 123,
                "time": 14
            },
            {
                "type": "note_on",
                "note": 51,
                "velocity": 123,
                "time": 0
            },
            {
                "type": "note_on",
                "note": 63,
                "velocity": 120,
                "time": 0
            },
            {
                "type": "note_on",
                "note": 68,
                "velocity": 127,
                "time": 0
            },
            {
                "type": "note_on",
                "note": 72,
                "velocity": 119,
                "time": 0
            },
            {
                "type": "note_on",
                "note": 39,
                "velocity": 0,
                "time": 54
            },
            {
                "type": "note_on",
                "note": 51,
                "velocity": 0,
                "time": 4
            },
            {
                "type": "note_on",
                "note": 63,
                "velocity": 0,
                "time": 4
            },
            {
                "type": "note_on",
                "note": 68,
                "velocity": 0,
                "time": 18
            },
            {
                "type": "note_on",
                "note": 63,
                "velocity": 108,
                "time": 4
            },
            {
                "type": "note_on",
                "note": 72,
                "velocity": 0,
                "time": 4
            },
            {
                "type": "note_on",
                "note": 63,
                "velocity": 0,
                "time": 30
            },
            {
                "type": "note_on",
                "note": 68,
                "velocity": 116,
                "time": 6
            },
            {
                "type": "note_on",
                "note": 38,
                "velocity": 125,
                "time": 0
            },
            {
                "type": "note_on",
                "note": 50,
                "velocity": 122,
                "time": 0
            },
            {
                "type": "note_on",
                "note": 62,
                "velocity": 125,
                "time": 0
            },
            {
                "type": "note_on",
                "note": 72,
                "velocity": 116,
                "time": 0
            },
            {
                "type": "note_on",
                "note": 38,
                "velocity": 0,
                "time": 28
            },
            {
                "type": "note_on",
                "note": 50,
                "velocity": 0,
                "time": 8
            },
            {
                "type": "note_on",
                "note": 62,
                "velocity": 0,
                "time": 16
            },
            {
                "type": "note_on",
                "note": 62,
                "velocity": 103,
                "time": 22
            },
            {
                "type": "note_on",
                "note": 68,
                "velocity": 0,
                "time": 10
            },
            {
                "type": "note_on",
                "note": 72,
                "velocity": 0,
                "time": 2
            },
            {
                "type": "note_on",
                "note": 62,
                "velocity": 0,
                "time": 22
            },
            {
                "type": "note_on",
                "note": 58,
                "velocity": 106,
                "time": 2
            },
            {
                "type": "note_on",
                "note": 34,
                "velocity": 117,
                "time": 0
            },
            {
                "type": "note_on",
                "note": 46,
                "velocity": 105,
                "time": 0
            },
            {
                "type": "note_on",
                "note": 65,
                "velocity": 127,
                "time": 0
            },
            {
                "type": "note_on",
                "note": 62,
                "velocity": 127,
                "time": 0
            },
            {
                "type": "note_on",
                "note": 46,
                "velocity": 0,
                "time": 74
            },
            {
                "type": "note_on",
                "note": 34,
                "velocity": 0,
                "time": 0
            },
            {
                "type": "note_on",
                "note": 65,
                "velocity": 0,
                "time": 6
            },
            {
                "type": "note_on",
                "note": 58,
                "velocity": 0,
                "time": 4
            },
            {
                "type": "note_on",
                "note": 46,
                "velocity": 91,
                "time": 12
            },
            {
                "type": "note_on",
                "note": 34,
                "velocity": 97,
                "time": 0
            },
            {
                "type": "note_on",
                "note": 34,
                "velocity": 0,
                "time": 22
            },
            {
                "type": "note_on",
                "note": 62,
                "velocity": 0,
                "time": 0
            },
            {
                "type": "note_on",
                "note": 46,
                "velocity": 0,
                "time": 2
            },
            {
                "type": "note_on",
                "note": 34,
                "velocity": 109,
                "time": 24
            },
            {
                "type": "note_on",
                "note": 70,
                "velocity": 110,
                "time": 0
            },
            {
                "type": "note_on",
                "note": 46,
                "velocity": 105,
                "time": 0
            },
            {
                "type": "note_on",
                "note": 46,
                "velocity": 0,
                "time": 18
            },
            {
                "type": "note_on",
                "note": 34,
                "velocity": 0,
                "time": 2
            },
            {
                "type": "note_on",
                "note": 70,
                "velocity": 0,
                "time": 4
            },
            {
                "type": "note_on",
                "note": 62,
                "velocity": 120,
                "time": 12
            },
            {
                "type": "note_on",
                "note": 34,
                "velocity": 127,
                "time": 0
            },
            {
                "type": "note_on",
                "note": 46,
                "velocity": 117,
                "time": 0
            },
            {
                "type": "note_on",
                "note": 65,
                "velocity": 114,
                "time": 0
            },
            {
                "type": "note_on",
                "note": 70,
                "velocity": 122,
                "time": 0
            },
            {
                "type": "note_on",
                "note": 46,
                "velocity": 0,
                "time": 38
            },
            {
                "type": "note_on",
                "note": 34,
                "velocity": 0,
                "time": 4
            },
            {
                "type": "note_on",
                "note": 65,
                "velocity": 0,
                "time": 20
            },
            {
                "type": "note_on",
                "note": 62,
                "velocity": 0,
                "time": 14
            },
            {
                "type": "note_on",
                "note": 34,
                "velocity": 109,
                "time": 2
            },
            {
                "type": "note_on",
                "note": 46,
                "velocity": 105,
                "time": 0
            },
            {
                "type": "note_on",
                "note": 70,
                "velocity": 0,
                "time": 6
            },
            {
                "type": "note_on",
                "note": 46,
                "velocity": 0,
                "time": 10
            },
            {
                "type": "note_on",
                "note": 34,
                "velocity": 0,
                "time": 4
            },
            {
                "type": "note_on",
                "note": 46,
                "velocity": 97,
                "time": 28
            },
            {
                "type": "note_on",
                "note": 34,
                "velocity": 117,
                "time": 0
            },
            {
                "type": "note_on",
                "note": 58,
                "velocity": 88,
                "time": 0
            },
            {
                "type": "note_on",
                "note": 62,
                "velocity": 107,
                "time": 0
            },
            {
                "type": "note_on",
                "note": 65,
                "velocity": 109,
                "time": 0
            },
            {
                "type": "note_on",
                "note": 34,
                "velocity": 0,
                "time": 14
            },
            {
                "type": "note_on",
                "note": 65,
                "velocity": 0,
                "time": 2
            },
            {
                "type": "note_on",
                "note": 46,
                "velocity": 0,
                "time": 2
            },
            {
                "type": "note_on",
                "note": 62,
                "velocity": 0,
                "time": 0
            },
            {
                "type": "note_on",
                "note": 58,
                "velocity": 0,
                "time": 2
            },
            {
                "type": "note_on",
                "note": 34,
                "velocity": 127,
                "time": 28
            },
            {
                "type": "note_on",
                "note": 65,
                "velocity": 121,
                "time": 0
            },
            {
                "type": "note_on",
                "note": 46,
                "velocity": 112,
                "time": 0
            },
            {
                "type": "note_on",
                "note": 58,
                "velocity": 101,
                "time": 0
            },
            {
                "type": "note_on",
                "note": 62,
                "velocity": 121,
                "time": 0
            },
            {
                "type": "note_on",
                "note": 34,
                "velocity": 0,
                "time": 60
            },
            {
                "type": "note_on",
                "note": 46,
                "velocity": 0,
                "time": 2
            },
            {
                "type": "note_on",
                "note": 65,
                "velocity": 0,
                "time": 14
            },
            {
                "type": "note_on",
                "note": 62,
                "velocity": 0,
                "time": 12
            },
            {
                "type": "note_on",
                "note": 58,
                "velocity": 0,
                "time": 6
            },
            {
                "type": "note_on",
                "note": 34,
                "velocity": 111,
                "time": 0
            },
            {
                "type": "note_on",
                "note": 46,
                "velocity": 101,
                "time": 0
            },
            {
                "type": "note_on",
                "note": 46,
                "velocity": 0,
                "time": 16
            },
            {
                "type": "note_on",
                "note": 34,
                "velocity": 0,
                "time": 2
            },
            {
                "type": "note_on",
                "note": 46,
                "velocity": 101,
                "time": 30
            },
            {
                "type": "note_on",
                "note": 34,
                "velocity": 114,
                "time": 0
            },
            {
                "type": "note_on",
                "note": 58,
                "velocity": 98,
                "time": 0
            },
            {
                "type": "note_on",
                "note": 68,
                "velocity": 109,
                "time": 0
            },
            {
                "type": "note_on",
                "note": 62,
                "velocity": 118,
                "time": 0
            },
            {
                "type": "note_on",
                "note": 34,
                "velocity": 0,
                "time": 14
            },
            {
                "type": "note_on",
                "note": 46,
                "velocity": 0,
                "time": 2
            },
            {
                "type": "note_on",
                "note": 58,
                "velocity": 0,
                "time": 4
            },
            {
                "type": "note_on",
                "note": 68,
                "velocity": 0,
                "time": 2
            },
            {
                "type": "note_on",
                "note": 62,
                "velocity": 0,
                "time": 0
            },
            {
                "type": "note_on",
                "note": 62,
                "velocity": 125,
                "time": 4
            },
            {
                "type": "note_on",
                "note": 34,
                "velocity": 119,
                "time": 0
            },
            {
                "type": "note_on",
                "note": 58,
                "velocity": 103,
                "time": 0
            },
            {
                "type": "note_on",
                "note": 68,
                "velocity": 120,
                "time": 0
            },
            {
                "type": "note_on",
                "note": 46,
                "velocity": 109,
                "time": 0
            },
            {
                "type": "note_on",
                "note": 46,
                "velocity": 0,
                "time": 16
            },
            {
                "type": "note_on",
                "note": 34,
                "velocity": 0,
                "time": 2
            },
            {
                "type": "note_on",
                "note": 46,
                "velocity": 111,
                "time": 30
            },
            {
                "type": "note_on",
                "note": 34,
                "velocity": 119,
                "time": 0
            },
            {
                "type": "note_on",
                "note": 34,
                "velocity": 0,
                "time": 14
            },
            {
                "type": "note_on",
                "note": 46,
                "velocity": 0,
                "time": 2
            },
            {
                "type": "note_on",
                "note": 58,
                "velocity": 0,
                "time": 28
            },
            {
                "type": "note_on",
                "note": 62,
                "velocity": 0,
                "time": 2
            },
            {
                "type": "note_on",
                "note": 68,
                "velocity": 0,
                "time": 0
            },
            {
                "type": "note_on",
                "note": 46,
                "velocity": 121,
                "time": 2
            },
            {
                "type": "note_on",
                "note": 34,
                "velocity": 127,
                "time": 0
            },
            {
                "type": "note_on",
                "note": 34,
                "velocity": 0,
                "time": 18
            },
            {
                "type": "note_on",
                "note": 46,
                "velocity": 0,
                "time": 2
            },
            {
                "type": "note_on",
                "note": 39,
                "velocity": 127,
                "time": 12
            },
            {
                "type": "note_on",
                "note": 70,
                "velocity": 112,
                "time": 0
            },
            {
                "type": "note_on",
                "note": 51,
                "velocity": 123,
                "time": 0
            },
            {
                "type": "note_on",
                "note": 63,
                "velocity": 110,
                "time": 0
            },
            {
                "type": "note_on",
                "note": 67,
                "velocity": 118,
                "time": 0
            },
            {
                "type": "note_on",
                "note": 63,
                "velocity": 0,
                "time": 52
            },
            {
                "type": "note_on",
                "note": 63,
                "velocity": 102,
                "time": 24
            },
            {
                "type": "note_on",
                "note": 67,
                "velocity": 0,
                "time": 4
            },
            {
                "type": "note_on",
                "note": 70,
                "velocity": 0,
                "time": 2
            },
            {
                "type": "note_on",
                "note": 63,
                "velocity": 0,
                "time": 38
            },
            {
                "type": "note_on",
                "note": 70,
                "velocity": 110,
                "time": 52
            },
            {
                "type": "note_on",
                "note": 67,
                "velocity": 120,
                "time": 0
            },
            {
                "type": "note_on",
                "note": 39,
                "velocity": 0,
                "time": 70
            },
            {
                "type": "note_on",
                "note": 51,
                "velocity": 0,
                "time": 2
            },
            {
                "type": "note_on",
                "note": 70,
                "velocity": 0,
                "time": 16
            },
            {
                "type": "note_on",
                "note": 67,
                "velocity": 0,
                "time": 2
            },
            {
                "type": "note_on",
                "note": 63,
                "velocity": 106,
                "time": 6
            },
            {
                "type": "note_on",
                "note": 63,
                "velocity": 0,
                "time": 16
            },
            {
                "type": "note_on",
                "note": 38,
                "velocity": 127,
                "time": 24
            },
            {
                "type": "note_on",
                "note": 62,
                "velocity": 114,
                "time": 0
            },
            {
                "type": "note_on",
                "note": 65,
                "velocity": 121,
                "time": 0
            },
            {
                "type": "note_on",
                "note": 70,
                "velocity": 109,
                "time": 0
            },
            {
                "type": "note_on",
                "note": 50,
                "velocity": 113,
                "time": 0
            },
            {
                "type": "note_on",
                "note": 62,
                "velocity": 0,
                "time": 60
            },
            {
                "type": "note_on",
                "note": 62,
                "velocity": 108,
                "time": 28
            },
            {
                "type": "note_on",
                "note": 65,
                "velocity": 0,
                "time": 2
            },
            {
                "type": "note_on",
                "note": 70,
                "velocity": 0,
                "time": 2
            },
            {
                "type": "note_on",
                "note": 62,
                "velocity": 0,
                "time": 60
            },
            {
                "type": "note_on",
                "note": 65,
                "velocity": 125,
                "time": 32
            },
            {
                "type": "note_on",
                "note": 70,
                "velocity": 119,
                "time": 0
            },
            {
                "type": "note_on",
                "note": 50,
                "velocity": 0,
                "time": 50
            },
            {
                "type": "note_on",
                "note": 38,
                "velocity": 0,
                "time": 2
            },
            {
                "type": "note_on",
                "note": 70,
                "velocity": 0,
                "time": 42
            },
            {
                "type": "note_on",
                "note": 65,
                "velocity": 0,
                "time": 2
            },
            {
                "type": "note_on",
                "note": 62,
                "velocity": 115,
                "time": 0
            },
            {
                "type": "note_on",
                "note": 62,
                "velocity": 0,
                "time": 20
            },
            {
                "type": "note_on",
                "note": 36,
                "velocity": 113,
                "time": 34
            },
            {
                "type": "note_on",
                "note": 63,
                "velocity": 116,
                "time": 0
            },
            {
                "type": "note_on",
                "note": 48,
                "velocity": 120,
                "time": 0
            },
            {
                "type": "note_on",
                "note": 67,
                "velocity": 115,
                "time": 0
            },
            {
                "type": "note_on",
                "note": 67,
                "velocity": 0,
                "time": 78
            },
            {
                "type": "note_on",
                "note": 63,
                "velocity": 0,
                "time": 2
            },
            {
                "type": "note_on",
                "note": 60,
                "velocity": 111,
                "time": 8
            },
            {
                "type": "note_on",
                "note": 63,
                "velocity": 124,
                "time": 96
            },
            {
                "type": "note_on",
                "note": 60,
                "velocity": 0,
                "time": 6
            },
            {
                "type": "note_on",
                "note": 63,
                "velocity": 0,
                "time": 78
            },
            {
                "type": "note_on",
                "note": 67,
                "velocity": 119,
                "time": 12
            },
            {
                "type": "note_on",
                "note": 86,
                "velocity": 127,
                "time": 96
            },
            {
                "type": "note_on",
                "note": 74,
                "velocity": 127,
                "time": 0
            },
            {
                "type": "note_on",
                "note": 67,
                "velocity": 0,
                "time": 16
            },
            {
                "type": "note_on",
                "note": 74,
                "velocity": 0,
                "time": 14
            },
            {
                "type": "note_on",
                "note": 60,
                "velocity": 108,
                "time": 66
            },
            {
                "type": "note_on",
                "note": 86,
                "velocity": 0,
                "time": 10
            },
            {
                "type": "note_on",
                "note": 36,
                "velocity": 0,
                "time": 10
            },
            {
                "type": "note_on",
                "note": 48,
                "velocity": 0,
                "time": 4
            },
            {
                "type": "note_on",
                "note": 60,
                "velocity": 0,
                "time": 72
            },
            {
                "type": "note_on",
                "note": 84,
                "velocity": 127,
                "time": 0
            },
            {
                "type": "note_on",
                "note": 72,
                "velocity": 127,
                "time": 0
            },
            {
                "type": "note_on",
                "note": 72,
                "velocity": 0,
                "time": 92
            },
            {
                "type": "note_on",
                "note": 60,
                "velocity": 108,
                "time": 4
            },
            {
                "type": "note_on",
                "note": 84,
                "velocity": 0,
                "time": 38
            },
            {
                "type": "note_on",
                "note": 60,
                "velocity": 0,
                "time": 8
            },
            {
                "type": "note_on",
                "note": 65,
                "velocity": 116,
                "time": 26
            },
            {
                "type": "note_on",
                "note": 41,
                "velocity": 110,
                "time": 0
            },
            {
                "type": "note_on",
                "note": 53,
                "velocity": 117,
                "time": 0
            },
            {
                "type": "note_on",
                "note": 68,
                "velocity": 105,
                "time": 0
            },
            {
                "type": "note_on",
                "note": 65,
                "velocity": 0,
                "time": 48
            },
            {
                "type": "note_on",
                "note": 68,
                "velocity": 0,
                "time": 20
            },
            {
                "type": "note_on",
                "note": 65,
                "velocity": 112,
                "time": 18
            },
            {
                "type": "note_on",
                "note": 65,
                "velocity": 0,
                "time": 26
            },
            {
                "type": "note_on",
                "note": 53,
                "velocity": 0,
                "time": 40
            },
            {
                "type": "note_on",
                "note": 41,
                "velocity": 0,
                "time": 12
            },
            {
                "type": "note_on",
                "note": 77,
                "velocity": 116,
                "time": 18
            },
            {
                "type": "note_on",
                "note": 68,
                "velocity": 98,
                "time": 0
            },
            {
                "type": "note_on",
                "note": 72,
                "velocity": 103,
                "time": 0
            },
            {
                "type": "note_on",
                "note": 72,
                "velocity": 0,
                "time": 24
            },
            {
                "type": "note_on",
                "note": 77,
                "velocity": 0,
                "time": 0
            },
            {
                "type": "note_on",
                "note": 68,
                "velocity": 0,
                "time": 14
            },
            {
                "type": "note_on",
                "note": 52,
                "velocity": 113,
                "time": 2
            },
            {
                "type": "note_on",
                "note": 40,
                "velocity": 127,
                "time": 0
            },
            {
                "type": "note_on",
                "note": 68,
                "velocity": 116,
                "time": 0
            },
            {
                "type": "note_on",
                "note": 64,
                "velocity": 116,
                "time": 0
            },
            {
                "type": "note_on",
                "note": 72,
                "velocity": 127,
                "time": 0
            },
            {
                "type": "note_on",
                "note": 40,
                "velocity": 0,
                "time": 26
            },
            {
                "type": "note_on",
                "note": 52,
                "velocity": 0,
                "time": 0
            },
            {
                "type": "note_on",
                "note": 64,
                "velocity": 0,
                "time": 14
            },
            {
                "type": "note_on",
                "note": 72,
                "velocity": 0,
                "time": 6
            },
            {
                "type": "note_on",
                "note": 68,
                "velocity": 0,
                "time": 2
            },
            {
                "type": "note_on",
                "note": 63,
                "velocity": 120,
                "time": 24
            },
            {
                "type": "note_on",
                "note": 51,
                "velocity": 112,
                "time": 0
            },
            {
                "type": "note_on",
                "note": 39,
                "velocity": 127,
                "time": 0
            },
            {
                "type": "note_on",
                "note": 72,
                "velocity": 127,
                "time": 0
            },
            {
                "type": "note_on",
                "note": 68,
                "velocity": 119,
                "time": 0
            },
            {
                "type": "note_on",
                "note": 63,
                "velocity": 0,
                "time": 64
            },
            {
                "type": "note_on",
                "note": 68,
                "velocity": 0,
                "time": 26
            },
            {
                "type": "note_on",
                "note": 63,
                "velocity": 109,
                "time": 4
            },
            {
                "type": "note_on",
                "note": 72,
                "velocity": 0,
                "time": 4
            },
            {
                "type": "note_on",
                "note": 39,
                "velocity": 0,
                "time": 20
            },
            {
                "type": "note_on",
                "note": 63,
                "velocity": 0,
                "time": 6
            },
            {
                "type": "note_on",
                "note": 51,
                "velocity": 0,
                "time": 2
            },
            {
                "type": "note_on",
                "note": 50,
                "velocity": 117,
                "time": 16
            },
            {
                "type": "note_on",
                "note": 68,
                "velocity": 116,
                "time": 0
            },
            {
                "type": "note_on",
                "note": 62,
                "velocity": 127,
                "time": 0
            },
            {
                "type": "note_on",
                "note": 38,
                "velocity": 125,
                "time": 0
            },
            {
                "type": "note_on",
                "note": 72,
                "velocity": 125,
                "time": 0
            },
            {
                "type": "note_on",
                "note": 62,
                "velocity": 0,
                "time": 54
            },
            {
                "type": "note_on",
                "note": 50,
                "velocity": 0,
                "time": 26
            },
            {
                "type": "note_on",
                "note": 68,
                "velocity": 0,
                "time": 2
            },
            {
                "type": "note_on",
                "note": 62,
                "velocity": 108,
                "time": 2
            },
            {
                "type": "note_on",
                "note": 72,
                "velocity": 0,
                "time": 6
            },
            {
                "type": "note_on",
                "note": 38,
                "velocity": 0,
                "time": 0
            },
            {
                "type": "note_on",
                "note": 62,
                "velocity": 0,
                "time": 14
            },
            {
                "type": "note_on",
                "note": 49,
                "velocity": 112,
                "time": 12
            },
            {
                "type": "note_on",
                "note": 65,
                "velocity": 126,
                "time": 0
            },
            {
                "type": "note_on",
                "note": 37,
                "velocity": 127,
                "time": 0
            },
            {
                "type": "note_on",
                "note": 68,
                "velocity": 119,
                "time": 0
            },
            {
                "type": "note_on",
                "note": 61,
                "velocity": 112,
                "time": 0
            },
            {
                "type": "note_on",
                "note": 68,
                "velocity": 0,
                "time": 42
            },
            {
                "type": "note_on",
                "note": 65,
                "velocity": 0,
                "time": 20
            },
            {
                "type": "note_on",
                "note": 61,
                "velocity": 0,
                "time": 2
            },
            {
                "type": "note_on",
                "note": 68,
                "velocity": 103,
                "time": 64
            },
            {
                "type": "note_on",
                "note": 65,
                "velocity": 121,
                "time": 0
            },
            {
                "type": "note_on",
                "note": 73,
                "velocity": 116,
                "time": 0
            },
            {
                "type": "note_on",
                "note": 73,
                "velocity": 0,
                "time": 4
            },
            {
                "type": "note_on",
                "note": 68,
                "velocity": 0,
                "time": 0
            },
            {
                "type": "note_on",
                "note": 65,
                "velocity": 0,
                "time": 4
            },
            {
                "type": "note_on",
                "note": 65,
                "velocity": 121,
                "time": 6
            },
            {
                "type": "note_on",
                "note": 68,
                "velocity": 119,
                "time": 0
            },
            {
                "type": "note_on",
                "note": 73,
                "velocity": 124,
                "time": 0
            },
            {
                "type": "note_on",
                "note": 37,
                "velocity": 0,
                "time": 34
            },
            {
                "type": "note_on",
                "note": 49,
                "velocity": 0,
                "time": 0
            },
            {
                "type": "note_on",
                "note": 68,
                "velocity": 0,
                "time": 24
            },
            {
                "type": "note_on",
                "note": 37,
                "velocity": 127,
                "time": 4
            },
            {
                "type": "note_on",
                "note": 49,
                "velocity": 115,
                "time": 2
            },
            {
                "type": "note_on",
                "note": 73,
                "velocity": 0,
                "time": 14
            },
            {
                "type": "note_on",
                "note": 65,
                "velocity": 0,
                "time": 4
            },
            {
                "type": "note_on",
                "note": 37,
                "velocity": 0,
                "time": 0
            },
            {
                "type": "note_on",
                "note": 49,
                "velocity": 0,
                "time": 0
            },
            {
                "type": "note_on",
                "note": 36,
                "velocity": 127,
                "time": 44
            },
            {
                "type": "note_on",
                "note": 48,
                "velocity": 127,
                "time": 2
            },
            {
                "type": "note_on",
                "note": 36,
                "velocity": 0,
                "time": 14
            },
            {
                "type": "note_on",
                "note": 48,
                "velocity": 0,
                "time": 2
            },
            {
                "type": "note_on",
                "note": 47,
                "velocity": 127,
                "time": 14
            },
            {
                "type": "note_on",
                "note": 35,
                "velocity": 127,
                "time": 0
            },
            {
                "type": "note_on",
                "note": 61,
                "velocity": 112,
                "time": 0
            },
            {
                "type": "note_on",
                "note": 65,
                "velocity": 121,
                "time": 0
            },
            {
                "type": "note_on",
                "note": 68,
                "velocity": 119,
                "time": 0
            },
            {
                "type": "note_on",
                "note": 73,
                "velocity": 127,
                "time": 78
            },
            {
                "type": "note_on",
                "note": 68,
                "velocity": 0,
                "time": 2
            },
            {
                "type": "note_on",
                "note": 61,
                "velocity": 0,
                "time": 0
            },
            {
                "type": "note_on",
                "note": 65,
                "velocity": 0,
                "time": 10
            },
            {
                "type": "note_on",
                "note": 47,
                "velocity": 0,
                "time": 2
            },
            {
                "type": "note_on",
                "note": 35,
                "velocity": 0,
                "time": 2
            },
            {
                "type": "note_on",
                "note": 73,
                "velocity": 0,
                "time": 30
            },
            {
                "type": "note_on",
                "note": 65,
                "velocity": 120,
                "time": 50
            },
            {
                "type": "note_on",
                "note": 34,
                "velocity": 127,
                "time": 0
            },
            {
                "type": "note_on",
                "note": 61,
                "velocity": 113,
                "time": 0
            },
            {
                "type": "note_on",
                "note": 46,
                "velocity": 121,
                "time": 0
            },
            {
                "type": "note_on",
                "note": 68,
                "velocity": 117,
                "time": 0
            },
            {
                "type": "note_on",
                "note": 68,
                "velocity": 0,
                "time": 114
            },
            {
                "type": "note_on",
                "note": 61,
                "velocity": 0,
                "time": 2
            },
            {
                "type": "note_on",
                "note": 65,
                "velocity": 0,
                "time": 0
            },
            {
                "type": "note_on",
                "note": 34,
                "velocity": 0,
                "time": 22
            },
            {
                "type": "note_on",
                "note": 46,
                "velocity": 0,
                "time": 4
            },
            {
                "type": "note_on",
                "note": 64,
                "velocity": 98,
                "time": 50
            },
            {
                "type": "note_on",
                "note": 33,
                "velocity": 97,
                "time": 0
            },
            {
                "type": "note_on",
                "note": 45,
                "velocity": 90,
                "time": 0
            },
            {
                "type": "note_on",
                "note": 57,
                "velocity": 88,
                "time": 0
            },
            {
                "type": "note_on",
                "note": 61,
                "velocity": 90,
                "time": 0
            },
            {
                "type": "note_on",
                "note": 57,
                "velocity": 0,
                "time": 36
            },
            {
                "type": "note_on",
                "note": 61,
                "velocity": 0,
                "time": 6
            },
            {
                "type": "note_on",
                "note": 64,
                "velocity": 0,
                "time": 2
            },
            {
                "type": "note_on",
                "note": 33,
                "velocity": 0,
                "time": 50
            },
            {
                "type": "note_on",
                "note": 45,
                "velocity": 0,
                "time": 10
            },
            {
                "type": "note_on",
                "note": 64,
                "velocity": 92,
                "time": 88
            },
            {
                "type": "note_on",
                "note": 61,
                "velocity": 85,
                "time": 0
            },
            {
                "type": "note_on",
                "note": 57,
                "velocity": 86,
                "time": 0
            },
            {
                "type": "note_on",
                "note": 61,
                "velocity": 0,
                "time": 26
            },
            {
                "type": "note_on",
                "note": 64,
                "velocity": 0,
                "time": 12
            },
            {
                "type": "note_on",
                "note": 57,
                "velocity": 0,
                "time": 2
            },
            {
                "type": "note_on",
                "note": 57,
                "velocity": 88,
                "time": 152
            },
            {
                "type": "note_on",
                "note": 64,
                "velocity": 97,
                "time": 0
            },
            {
                "type": "note_on",
                "note": 61,
                "velocity": 88,
                "time": 0
            },
            {
                "type": "note_on",
                "note": 61,
                "velocity": 0,
                "time": 38
            },
            {
                "type": "note_on",
                "note": 57,
                "velocity": 0,
                "time": 2
            },
            {
                "type": "note_on",
                "note": 64,
                "velocity": 0,
                "time": 2
            },
            {
                "type": "note_on",
                "note": 64,
                "velocity": 98,
                "time": 150
            },
            {
                "type": "note_on",
                "note": 57,
                "velocity": 86,
                "time": 0
            },
            {
                "type": "note_on",
                "note": 61,
                "velocity": 92,
                "time": 0
            },
            {
                "type": "note_on",
                "note": 57,
                "velocity": 0,
                "time": 34
            },
            {
                "type": "note_on",
                "note": 61,
                "velocity": 0,
                "time": 4
            },
            {
                "type": "note_on",
                "note": 64,
                "velocity": 0,
                "time": 0
            },
            {
                "type": "note_on",
                "note": 57,
                "velocity": 88,
                "time": 154
            },
            {
                "type": "note_on",
                "note": 64,
                "velocity": 97,
                "time": 0
            },
            {
                "type": "note_on",
                "note": 61,
                "velocity": 96,
                "time": 0
            },
            {
                "type": "note_on",
                "note": 61,
                "velocity": 0,
                "time": 34
            },
            {
                "type": "note_on",
                "note": 57,
                "velocity": 0,
                "time": 0
            },
            {
                "type": "note_on",
                "note": 64,
                "velocity": 0,
                "time": 2
            },
            {
                "type": "note_on",
                "note": 61,
                "velocity": 96,
                "time": 156
            },
            {
                "type": "note_on",
                "note": 57,
                "velocity": 82,
                "time": 0
            },
            {
                "type": "note_on",
                "note": 64,
                "velocity": 91,
                "time": 0
            },
            {
                "type": "note_on",
                "note": 57,
                "velocity": 0,
                "time": 32
            },
            {
                "type": "note_on",
                "note": 64,
                "velocity": 0,
                "time": 2
            },
            {
                "type": "note_on",
                "note": 61,
                "velocity": 0,
                "time": 2
            },
            {
                "type": "note_on",
                "note": 64,
                "velocity": 94,
                "time": 156
            },
            {
                "type": "note_on",
                "note": 57,
                "velocity": 91,
                "time": 0
            },
            {
                "type": "note_on",
                "note": 61,
                "velocity": 102,
                "time": 0
            },
            {
                "type": "note_on",
                "note": 61,
                "velocity": 0,
                "time": 32
            },
            {
                "type": "note_on",
                "note": 57,
                "velocity": 0,
                "time": 4
            },
            {
                "type": "note_on",
                "note": 64,
                "velocity": 0,
                "time": 0
            },
            {
                "type": "note_on",
                "note": 64,
                "velocity": 91,
                "time": 156
            },
            {
                "type": "note_on",
                "note": 61,
                "velocity": 91,
                "time": 0
            },
            {
                "type": "note_on",
                "note": 57,
                "velocity": 83,
                "time": 0
            },
            {
                "type": "note_on",
                "note": 61,
                "velocity": 0,
                "time": 34
            },
            {
                "type": "note_on",
                "note": 57,
                "velocity": 0,
                "time": 2
            },
            {
                "type": "note_on",
                "note": 64,
                "velocity": 0,
                "time": 0
            },
            {
                "type": "note_on",
                "note": 62,
                "velocity": 98,
                "time": 156
            },
            {
                "type": "note_on",
                "note": 57,
                "velocity": 91,
                "time": 0
            },
            {
                "type": "note_on",
                "note": 66,
                "velocity": 88,
                "time": 0
            },
            {
                "type": "note_on",
                "note": 66,
                "velocity": 0,
                "time": 40
            },
            {
                "type": "note_on",
                "note": 57,
                "velocity": 0,
                "time": 0
            },
            {
                "type": "note_on",
                "note": 62,
                "velocity": 0,
                "time": 2
            },
            {
                "type": "note_on",
                "note": 64,
                "velocity": 91,
                "time": 150
            },
            {
                "type": "note_on",
                "note": 57,
                "velocity": 83,
                "time": 0
            },
            {
                "type": "note_on",
                "note": 61,
                "velocity": 81,
                "time": 0
            },
            {
                "type": "note_on",
                "note": 61,
                "velocity": 0,
                "time": 34
            },
            {
                "type": "note_on",
                "note": 64,
                "velocity": 0,
                "time": 0
            },
            {
                "type": "note_on",
                "note": 57,
                "velocity": 0,
                "time": 2
            },
            {
                "type": "note_on",
                "note": 61,
                "velocity": 83,
                "time": 60
            },
            {
                "type": "note_on",
                "note": 57,
                "velocity": 76,
                "time": 0
            },
            {
                "type": "note_on",
                "note": 64,
                "velocity": 93,
                "time": 0
            },
            {
                "type": "note_on",
                "note": 57,
                "velocity": 0,
                "time": 28
            },
            {
                "type": "note_on",
                "note": 61,
                "velocity": 0,
                "time": 4
            },
            {
                "type": "note_on",
                "note": 64,
                "velocity": 0,
                "time": 2
            },
            {
                "type": "note_on",
                "note": 57,
                "velocity": 88,
                "time": 62
            },
            {
                "type": "note_on",
                "note": 63,
                "velocity": 100,
                "time": 0
            },
            {
                "type": "note_on",
                "note": 60,
                "velocity": 98,
                "time": 0
            },
            {
                "type": "note_on",
                "note": 63,
                "velocity": 0,
                "time": 42
            },
            {
                "type": "note_on",
                "note": 57,
                "velocity": 0,
                "time": 0
            },
            {
                "type": "note_on",
                "note": 60,
                "velocity": 0,
                "time": 2
            },
            {
                "type": "note_on",
                "note": 61,
                "velocity": 96,
                "time": 148
            },
            {
                "type": "note_on",
                "note": 57,
                "velocity": 83,
                "time": 0
            },
            {
                "type": "note_on",
                "note": 64,
                "velocity": 92,
                "time": 0
            },
            {
                "type": "note_on",
                "note": 57,
                "velocity": 0,
                "time": 32
            },
            {
                "type": "note_on",
                "note": 64,
                "velocity": 0,
                "time": 4
            },
            {
                "type": "note_on",
                "note": 61,
                "velocity": 0,
                "time": 4
            },
            {
                "type": "note_on",
                "note": 66,
                "velocity": 83,
                "time": 152
            },
            {
                "type": "note_on",
                "note": 57,
                "velocity": 78,
                "time": 0
            },
            {
                "type": "note_on",
                "note": 62,
                "velocity": 95,
                "time": 0
            },
            {
                "type": "note_on",
                "note": 66,
                "velocity": 0,
                "time": 14
            },
            {
                "type": "note_on",
                "note": 57,
                "velocity": 0,
                "time": 28
            },
            {
                "type": "note_on",
                "note": 62,
                "velocity": 0,
                "time": 4
            },
            {
                "type": "note_on",
                "note": 64,
                "velocity": 89,
                "time": 146
            },
            {
                "type": "note_on",
                "note": 61,
                "velocity": 84,
                "time": 0
            },
            {
                "type": "note_on",
                "note": 57,
                "velocity": 76,
                "time": 0
            },
            {
                "type": "note_on",
                "note": 61,
                "velocity": 0,
                "time": 34
            },
            {
                "type": "note_on",
                "note": 64,
                "velocity": 0,
                "time": 0
            },
            {
                "type": "note_on",
                "note": 57,
                "velocity": 0,
                "time": 2
            },
            {
                "type": "note_on",
                "note": 57,
                "velocity": 72,
                "time": 60
            },
            {
                "type": "note_on",
                "note": 61,
                "velocity": 85,
                "time": 0
            },
            {
                "type": "note_on",
                "note": 64,
                "velocity": 96,
                "time": 0
            },
            {
                "type": "note_on",
                "note": 57,
                "velocity": 0,
                "time": 26
            },
            {
                "type": "note_on",
                "note": 61,
                "velocity": 0,
                "time": 6
            },
            {
                "type": "note_on",
                "note": 64,
                "velocity": 0,
                "time": 4
            },
            {
                "type": "note_on",
                "note": 60,
                "velocity": 90,
                "time": 60
            },
            {
                "type": "note_on",
                "note": 57,
                "velocity": 84,
                "time": 0
            },
            {
                "type": "note_on",
                "note": 63,
                "velocity": 99,
                "time": 0
            },
            {
                "type": "note_on",
                "note": 63,
                "velocity": 0,
                "time": 34
            },
            {
                "type": "note_on",
                "note": 57,
                "velocity": 0,
                "time": 6
            },
            {
                "type": "note_on",
                "note": 60,
                "velocity": 0,
                "time": 0
            },
            {
                "type": "note_on",
                "note": 57,
                "velocity": 84,
                "time": 152
            },
            {
                "type": "note_on",
                "note": 64,
                "velocity": 97,
                "time": 0
            },
            {
                "type": "note_on",
                "note": 61,
                "velocity": 99,
                "time": 0
            },
            {
                "type": "note_on",
                "note": 61,
                "velocity": 0,
                "time": 34
            },
            {
                "type": "note_on",
                "note": 64,
                "velocity": 0,
                "time": 0
            },
            {
                "type": "note_on",
                "note": 57,
                "velocity": 0,
                "time": 0
            },
            {
                "type": "note_on",
                "note": 64,
                "velocity": 86,
                "time": 62
            },
            {
                "type": "note_on",
                "note": 61,
                "velocity": 88,
                "time": 0
            },
            {
                "type": "note_on",
                "note": 57,
                "velocity": 78,
                "time": 0
            },
            {
                "type": "note_on",
                "note": 57,
                "velocity": 0,
                "time": 20
            },
            {
                "type": "note_on",
                "note": 64,
                "velocity": 0,
                "time": 6
            },
            {
                "type": "note_on",
                "note": 61,
                "velocity": 0,
                "time": 4
            },
            {
                "type": "note_on",
                "note": 69,
                "velocity": 110,
                "time": 66
            },
            {
                "type": "note_on",
                "note": 62,
                "velocity": 98,
                "time": 0
            },
            {
                "type": "note_on",
                "note": 66,
                "velocity": 117,
                "time": 0
            },
            {
                "type": "note_on",
                "note": 69,
                "velocity": 0,
                "time": 30
            },
            {
                "type": "note_on",
                "note": 66,
                "velocity": 0,
                "time": 6
            },
            {
                "type": "note_on",
                "note": 62,
                "velocity": 0,
                "time": 2
            },
            {
                "type": "note_on",
                "note": 64,
                "velocity": 91,
                "time": 154
            },
            {
                "type": "note_on",
                "note": 61,
                "velocity": 88,
                "time": 0
            },
            {
                "type": "note_on",
                "note": 57,
                "velocity": 88,
                "time": 0
            },
            {
                "type": "note_on",
                "note": 57,
                "velocity": 0,
                "time": 32
            },
            {
                "type": "note_on",
                "note": 64,
                "velocity": 0,
                "time": 2
            },
            {
                "type": "note_on",
                "note": 61,
                "velocity": 0,
                "time": 2
            },
            {
                "type": "note_on",
                "note": 61,
                "velocity": 85,
                "time": 60
            },
            {
                "type": "note_on",
                "note": 57,
                "velocity": 63,
                "time": 0
            },
            {
                "type": "note_on",
                "note": 64,
                "velocity": 89,
                "time": 0
            },
            {
                "type": "note_on",
                "note": 57,
                "velocity": 0,
                "time": 12
            },
            {
                "type": "note_on",
                "note": 64,
                "velocity": 0,
                "time": 18
            },
            {
                "type": "note_on",
                "note": 61,
                "velocity": 0,
                "time": 4
            },
            {
                "type": "note_on",
                "note": 69,
                "velocity": 110,
                "time": 62
            },
            {
                "type": "note_on",
                "note": 62,
                "velocity": 98,
                "time": 0
            },
            {
                "type": "note_on",
                "note": 66,
                "velocity": 115,
                "time": 0
            },
            {
                "type": "note_on",
                "note": 66,
                "velocity": 0,
                "time": 22
            },
            {
                "type": "note_on",
                "note": 69,
                "velocity": 0,
                "time": 8
            },
            {
                "type": "note_on",
                "note": 62,
                "velocity": 0,
                "time": 2
            },
            {
                "type": "note_on",
                "note": 61,
                "velocity": 85,
                "time": 160
            },
            {
                "type": "note_on",
                "note": 64,
                "velocity": 98,
                "time": 0
            },
            {
                "type": "note_on",
                "note": 57,
                "velocity": 80,
                "time": 0
            },
            {
                "type": "note_on",
                "note": 57,
                "velocity": 0,
                "time": 32
            },
            {
                "type": "note_on",
                "note": 61,
                "velocity": 0,
                "time": 2
            },
            {
                "type": "note_on",
                "note": 64,
                "velocity": 0,
                "time": 4
            },
            {
                "type": "note_on",
                "note": 57,
                "velocity": 77,
                "time": 58
            },
            {
                "type": "note_on",
                "note": 64,
                "velocity": 98,
                "time": 0
            },
            {
                "type": "note_on",
                "note": 61,
                "velocity": 93,
                "time": 0
            },
            {
                "type": "note_on",
                "note": 57,
                "velocity": 0,
                "time": 24
            },
            {
                "type": "note_on",
                "note": 61,
                "velocity": 0,
                "time": 8
            },
            {
                "type": "note_on",
                "note": 64,
                "velocity": 0,
                "time": 2
            },
            {
                "type": "note_on",
                "note": 57,
                "velocity": 91,
                "time": 62
            },
            {
                "type": "note_on",
                "note": 60,
                "velocity": 102,
                "time": 0
            },
            {
                "type": "note_on",
                "note": 63,
                "velocity": 107,
                "time": 0
            },
            {
                "type": "note_on",
                "note": 63,
                "velocity": 0,
                "time": 28
            },
            {
                "type": "note_on",
                "note": 57,
                "velocity": 0,
                "time": 6
            },
            {
                "type": "note_on",
                "note": 60,
                "velocity": 0,
                "time": 2
            },
            {
                "type": "note_on",
                "note": 57,
                "velocity": 70,
                "time": 60
            },
            {
                "type": "note_on",
                "note": 60,
                "velocity": 76,
                "time": 0
            },
            {
                "type": "note_on",
                "note": 63,
                "velocity": 102,
                "time": 0
            },
            {
                "type": "note_on",
                "note": 60,
                "velocity": 0,
                "time": 20
            },
            {
                "type": "note_on",
                "note": 57,
                "velocity": 0,
                "time": 8
            },
            {
                "type": "note_on",
                "note": 63,
                "velocity": 0,
                "time": 12
            },
            {
                "type": "note_on",
                "note": 64,
                "velocity": 105,
                "time": 56
            },
            {
                "type": "note_on",
                "note": 57,
                "velocity": 91,
                "time": 0
            },
            {
                "type": "note_on",
                "note": 61,
                "velocity": 115,
                "time": 0
            },
            {
                "type": "note_on",
                "note": 57,
                "velocity": 0,
                "time": 38
            },
            {
                "type": "note_on",
                "note": 64,
                "velocity": 0,
                "time": 6
            },
            {
                "type": "note_on",
                "note": 61,
                "velocity": 0,
                "time": 2
            },
            {
                "type": "note_on",
                "note": 66,
                "velocity": 107,
                "time": 146
            },
            {
                "type": "note_on",
                "note": 57,
                "velocity": 84,
                "time": 0
            },
            {
                "type": "note_on",
                "note": 62,
                "velocity": 102,
                "time": 0
            },
            {
                "type": "note_on",
                "note": 66,
                "velocity": 0,
                "time": 40
            },
            {
                "type": "note_on",
                "note": 62,
                "velocity": 0,
                "time": 2
            },
            {
                "type": "note_on",
                "note": 57,
                "velocity": 0,
                "time": 0
            },
            {
                "type": "note_on",
                "note": 57,
                "velocity": 90,
                "time": 150
            },
            {
                "type": "note_on",
                "note": 61,
                "velocity": 86,
                "time": 0
            },
            {
                "type": "note_on",
                "note": 64,
                "velocity": 103,
                "time": 0
            },
            {
                "type": "note_on",
                "note": 57,
                "velocity": 0,
                "time": 34
            },
            {
                "type": "note_on",
                "note": 64,
                "velocity": 0,
                "time": 8
            },
            {
                "type": "note_on",
                "note": 61,
                "velocity": 0,
                "time": 0
            },
            {
                "type": "note_on",
                "note": 56,
                "velocity": 95,
                "time": 150
            },
            {
                "type": "note_on",
                "note": 32,
                "velocity": 104,
                "time": 0
            },
            {
                "type": "note_on",
                "note": 61,
                "velocity": 107,
                "time": 0
            },
            {
                "type": "note_on",
                "note": 65,
                "velocity": 112,
                "time": 0
            },
            {
                "type": "note_on",
                "note": 44,
                "velocity": 94,
                "time": 0
            },
            {
                "type": "note_on",
                "note": 56,
                "velocity": 0,
                "time": 24
            },
            {
                "type": "note_on",
                "note": 65,
                "velocity": 0,
                "time": 10
            },
            {
                "type": "note_on",
                "note": 61,
                "velocity": 0,
                "time": 0
            },
            {
                "type": "note_on",
                "note": 44,
                "velocity": 0,
                "time": 6
            },
            {
                "type": "note_on",
                "note": 32,
                "velocity": 0,
                "time": 2
            },
            {
                "type": "note_on",
                "note": 65,
                "velocity": 112,
                "time": 42
            },
            {
                "type": "note_on",
                "note": 32,
                "velocity": 104,
                "time": 0
            },
            {
                "type": "note_on",
                "note": 44,
                "velocity": 75,
                "time": 0
            },
            {
                "type": "note_on",
                "note": 61,
                "velocity": 97,
                "time": 0
            },
            {
                "type": "note_on",
                "note": 56,
                "velocity": 107,
                "time": 0
            },
            {
                "type": "note_on",
                "note": 56,
                "velocity": 0,
                "time": 28
            },
            {
                "type": "note_on",
                "note": 61,
                "velocity": 0,
                "time": 0
            },
            {
                "type": "note_on",
                "note": 65,
                "velocity": 0,
                "time": 2
            },
            {
                "type": "note_on",
                "note": 44,
                "velocity": 0,
                "time": 18
            },
            {
                "type": "note_on",
                "note": 32,
                "velocity": 0,
                "time": 0
            },
            {
                "type": "note_on",
                "note": 44,
                "velocity": 102,
                "time": 48
            },
            {
                "type": "note_on",
                "note": 32,
                "velocity": 106,
                "time": 0
            },
            {
                "type": "note_on",
                "note": 61,
                "velocity": 103,
                "time": 0
            },
            {
                "type": "note_on",
                "note": 65,
                "velocity": 118,
                "time": 0
            },
            {
                "type": "note_on",
                "note": 56,
                "velocity": 107,
                "time": 0
            },
            {
                "type": "note_on",
                "note": 61,
                "velocity": 0,
                "time": 26
            },
            {
                "type": "note_on",
                "note": 65,
                "velocity": 0,
                "time": 2
            },
            {
                "type": "note_on",
                "note": 56,
                "velocity": 0,
                "time": 0
            },
            {
                "type": "note_on",
                "note": 44,
                "velocity": 0,
                "time": 14
            },
            {
                "type": "note_on",
                "note": 32,
                "velocity": 0,
                "time": 2
            },
            {
                "type": "note_on",
                "note": 56,
                "velocity": 109,
                "time": 52
            },
            {
                "type": "note_on",
                "note": 44,
                "velocity": 97,
                "time": 0
            },
            {
                "type": "note_on",
                "note": 65,
                "velocity": 116,
                "time": 0
            },
            {
                "type": "note_on",
                "note": 61,
                "velocity": 103,
                "time": 0
            },
            {
                "type": "note_on",
                "note": 32,
                "velocity": 110,
                "time": 0
            },
            {
                "type": "note_on",
                "note": 61,
                "velocity": 0,
                "time": 28
            },
            {
                "type": "note_on",
                "note": 56,
                "velocity": 0,
                "time": 2
            },
            {
                "type": "note_on",
                "note": 65,
                "velocity": 0,
                "time": 2
            },
            {
                "type": "note_on",
                "note": 44,
                "velocity": 0,
                "time": 8
            },
            {
                "type": "note_on",
                "note": 32,
                "velocity": 0,
                "time": 0
            },
            {
                "type": "note_on",
                "note": 44,
                "velocity": 108,
                "time": 22
            },
            {
                "type": "note_on",
                "note": 32,
                "velocity": 114,
                "time": 0
            },
            {
                "type": "note_on",
                "note": 60,
                "velocity": 120,
                "time": 0
            },
            {
                "type": "note_on",
                "note": 63,
                "velocity": 119,
                "time": 0
            },
            {
                "type": "note_on",
                "note": 56,
                "velocity": 105,
                "time": 0
            },
            {
                "type": "note_on",
                "note": 44,
                "velocity": 0,
                "time": 46
            },
            {
                "type": "note_on",
                "note": 32,
                "velocity": 0,
                "time": 6
            },
            {
                "type": "note_on",
                "note": 56,
                "velocity": 0,
                "time": 10
            },
            {
                "type": "note_on",
                "note": 63,
                "velocity": 0,
                "time": 4
            },
            {
                "type": "note_on",
                "note": 60,
                "velocity": 0,
                "time": 8
            },
            {
                "type": "note_on",
                "note": 32,
                "velocity": 123,
                "time": 112
            },
            {
                "type": "note_on",
                "note": 56,
                "velocity": 127,
                "time": 0
            },
            {
                "type": "note_on",
                "note": 60,
                "velocity": 127,
                "time": 0
            },
            {
                "type": "note_on",
                "note": 44,
                "velocity": 110,
                "time": 0
            },
            {
                "type": "note_on",
                "note": 63,
                "velocity": 127,
                "time": 0
            },
            {
                "type": "note_on",
                "note": 56,
                "velocity": 0,
                "time": 30
            },
            {
                "type": "note_on",
                "note": 63,
                "velocity": 0,
                "time": 12
            },
            {
                "type": "note_on",
                "note": 60,
                "velocity": 0,
                "time": 2
            },
            {
                "type": "note_on",
                "note": 44,
                "velocity": 0,
                "time": 2
            },
            {
                "type": "note_on",
                "note": 32,
                "velocity": 0,
                "time": 2
            },
            {
                "type": "note_on",
                "note": 64,
                "velocity": 115,
                "time": 34
            },
            {
                "type": "note_on",
                "note": 31,
                "velocity": 107,
                "time": 0
            },
            {
                "type": "note_on",
                "note": 43,
                "velocity": 93,
                "time": 0
            },
            {
                "type": "note_on",
                "note": 60,
                "velocity": 104,
                "time": 0
            },
            {
                "type": "note_on",
                "note": 67,
                "velocity": 113,
                "time": 0
            },
            {
                "type": "note_on",
                "note": 67,
                "velocity": 0,
                "time": 46
            },
            {
                "type": "note_on",
                "note": 64,
                "velocity": 0,
                "time": 0
            },
            {
                "type": "note_on",
                "note": 60,
                "velocity": 0,
                "time": 2
            },
            {
                "type": "note_on",
                "note": 31,
                "velocity": 0,
                "time": 4
            },
            {
                "type": "note_on",
                "note": 43,
                "velocity": 0,
                "time": 10
            },
            {
                "type": "note_on",
                "note": 64,
                "velocity": 112,
                "time": 34
            },
            {
                "type": "note_on",
                "note": 31,
                "velocity": 101,
                "time": 0
            },
            {
                "type": "note_on",
                "note": 60,
                "velocity": 97,
                "time": 0
            },
            {
                "type": "note_on",
                "note": 43,
                "velocity": 108,
                "time": 0
            },
            {
                "type": "note_on",
                "note": 67,
                "velocity": 104,
                "time": 0
            },
            {
                "type": "note_on",
                "note": 67,
                "velocity": 0,
                "time": 34
            },
            {
                "type": "note_on",
                "note": 64,
                "velocity": 0,
                "time": 0
            },
            {
                "type": "note_on",
                "note": 60,
                "velocity": 0,
                "time": 2
            },
            {
                "type": "note_on",
                "note": 43,
                "velocity": 0,
                "time": 6
            },
            {
                "type": "note_on",
                "note": 31,
                "velocity": 0,
                "time": 2
            },
            {
                "type": "note_on",
                "note": 60,
                "velocity": 105,
                "time": 52
            },
            {
                "type": "note_on",
                "note": 31,
                "velocity": 105,
                "time": 0
            },
            {
                "type": "note_on",
                "note": 43,
                "velocity": 100,
                "time": 0
            },
            {
                "type": "note_on",
                "note": 67,
                "velocity": 112,
                "time": 0
            },
            {
                "type": "note_on",
                "note": 64,
                "velocity": 115,
                "time": 0
            },
            {
                "type": "note_on",
                "note": 64,
                "velocity": 0,
                "time": 30
            },
            {
                "type": "note_on",
                "note": 60,
                "velocity": 0,
                "time": 2
            },
            {
                "type": "note_on",
                "note": 67,
                "velocity": 0,
                "time": 4
            },
            {
                "type": "note_on",
                "note": 43,
                "velocity": 0,
                "time": 8
            },
            {
                "type": "note_on",
                "note": 31,
                "velocity": 0,
                "time": 4
            },
            {
                "type": "note_on",
                "note": 60,
                "velocity": 75,
                "time": 48
            },
            {
                "type": "note_on",
                "note": 43,
                "velocity": 117,
                "time": 0
            },
            {
                "type": "note_on",
                "note": 67,
                "velocity": 98,
                "time": 0
            },
            {
                "type": "note_on",
                "note": 64,
                "velocity": 112,
                "time": 0
            },
            {
                "type": "note_on",
                "note": 31,
                "velocity": 103,
                "time": 0
            },
            {
                "type": "note_on",
                "note": 60,
                "velocity": 0,
                "time": 18
            },
            {
                "type": "note_on",
                "note": 31,
                "velocity": 0,
                "time": 12
            },
            {
                "type": "note_on",
                "note": 67,
                "velocity": 0,
                "time": 0
            },
            {
                "type": "note_on",
                "note": 64,
                "velocity": 0,
                "time": 2
            },
            {
                "type": "note_on",
                "note": 43,
                "velocity": 0,
                "time": 14
            },
            {
                "type": "note_on",
                "note": 40,
                "velocity": 117,
                "time": 50
            },
            {
                "type": "note_on",
                "note": 62,
                "velocity": 115,
                "time": 0
            },
            {
                "type": "note_on",
                "note": 59,
                "velocity": 104,
                "time": 0
            },
            {
                "type": "note_on",
                "note": 68,
                "velocity": 122,
                "time": 0
            },
            {
                "type": "note_on",
                "note": 40,
                "velocity": 0,
                "time": 48
            },
            {
                "type": "note_on",
                "note": 68,
                "velocity": 0,
                "time": 24
            },
            {
                "type": "note_on",
                "note": 59,
                "velocity": 0,
                "time": 2
            },
            {
                "type": "note_on",
                "note": 62,
                "velocity": 0,
                "time": 6
            },
            {
                "type": "note_on",
                "note": 40,
                "velocity": 113,
                "time": 112
            },
            {
                "type": "note_on",
                "note": 62,
                "velocity": 126,
                "time": 0
            },
            {
                "type": "note_on",
                "note": 59,
                "velocity": 120,
                "time": 0
            },
            {
                "type": "note_on",
                "note": 68,
                "velocity": 127,
                "time": 0
            },
            {
                "type": "note_on",
                "note": 59,
                "velocity": 0,
                "time": 32
            },
            {
                "type": "note_on",
                "note": 68,
                "velocity": 0,
                "time": 4
            },
            {
                "type": "note_on",
                "note": 62,
                "velocity": 0,
                "time": 4
            },
            {
                "type": "note_on",
                "note": 40,
                "velocity": 0,
                "time": 42
            },
            {
                "type": "note_on",
                "note": 33,
                "velocity": 125,
                "time": 110
            },
            {
                "type": "note_on",
                "note": 45,
                "velocity": 117,
                "time": 0
            },
            {
                "type": "note_on",
                "note": 57,
                "velocity": 108,
                "time": 0
            },
            {
                "type": "note_on",
                "note": 69,
                "velocity": 126,
                "time": 0
            },
            {
                "type": "note_on",
                "note": 64,
                "velocity": 120,
                "time": 0
            },
            {
                "type": "note_on",
                "note": 61,
                "velocity": 111,
                "time": 0
            },
            {
                "type": "note_on",
                "note": 57,
                "velocity": 0,
                "time": 68
            },
            {
                "type": "note_on",
                "note": 33,
                "velocity": 0,
                "time": 4
            },
            {
                "type": "note_on",
                "note": 61,
                "velocity": 0,
                "time": 2
            },
            {
                "type": "note_on",
                "note": 64,
                "velocity": 0,
                "time": 2
            },
            {
                "type": "note_on",
                "note": 45,
                "velocity": 0,
                "time": 4
            },
            {
                "type": "note_on",
                "note": 69,
                "velocity": 0,
                "time": 2
            },
            {
                "type": "note_on",
                "note": 45,
                "velocity": 94,
                "time": 1646
            },
            {
                "type": "note_on",
                "note": 57,
                "velocity": 100,
                "time": 0
            },
            {
                "type": "note_on",
                "note": 45,
                "velocity": 0,
                "time": 32
            },
            {
                "type": "note_on",
                "note": 57,
                "velocity": 0,
                "time": 2
            },
            {
                "type": "note_on",
                "note": 45,
                "velocity": 110,
                "time": 62
            },
            {
                "type": "note_on",
                "note": 57,
                "velocity": 117,
                "time": 0
            },
            {
                "type": "note_on",
                "note": 45,
                "velocity": 0,
                "time": 46
            },
            {
                "type": "note_on",
                "note": 57,
                "velocity": 0,
                "time": 28
            },
            {
                "type": "note_on",
                "note": 46,
                "velocity": 110,
                "time": 22
            },
            {
                "type": "note_on",
                "note": 58,
                "velocity": 114,
                "time": 0
            },
            {
                "type": "note_on",
                "note": 46,
                "velocity": 0,
                "time": 68
            },
            {
                "type": "note_on",
                "note": 58,
                "velocity": 0,
                "time": 14
            },
            {
                "type": "note_on",
                "note": 45,
                "velocity": 103,
                "time": 14
            },
            {
                "type": "note_on",
                "note": 57,
                "velocity": 107,
                "time": 0
            },
            {
                "type": "note_on",
                "note": 45,
                "velocity": 0,
                "time": 48
            },
            {
                "type": "note_on",
                "note": 57,
                "velocity": 0,
                "time": 4
            },
            {
                "type": "note_on",
                "note": 43,
                "velocity": 103,
                "time": 44
            },
            {
                "type": "note_on",
                "note": 55,
                "velocity": 107,
                "time": 0
            },
            {
                "type": "note_on",
                "note": 43,
                "velocity": 0,
                "time": 48
            },
            {
                "type": "note_on",
                "note": 55,
                "velocity": 0,
                "time": 6
            },
            {
                "type": "note_on",
                "note": 41,
                "velocity": 99,
                "time": 42
            },
            {
                "type": "note_on",
                "note": 53,
                "velocity": 96,
                "time": 0
            },
            {
                "type": "note_on",
                "note": 53,
                "velocity": 0,
                "time": 44
            },
            {
                "type": "note_on",
                "note": 41,
                "velocity": 0,
                "time": 2
            },
            {
                "type": "note_on",
                "note": 52,
                "velocity": 117,
                "time": 50
            },
            {
                "type": "note_on",
                "note": 40,
                "velocity": 115,
                "time": 0
            },
            {
                "type": "note_on",
                "note": 40,
                "velocity": 0,
                "time": 30
            },
            {
                "type": "note_on",
                "note": 52,
                "velocity": 0,
                "time": 4
            },
            {
                "type": "note_on",
                "note": 66,
                "velocity": 81,
                "time": 1118
            },
            {
                "type": "note_on",
                "note": 63,
                "velocity": 70,
                "time": 0
            },
            {
                "type": "note_on",
                "note": 71,
                "velocity": 94,
                "time": 0
            },
            {
                "type": "note_on",
                "note": 66,
                "velocity": 0,
                "time": 28
            },
            {
                "type": "note_on",
                "note": 71,
                "velocity": 0,
                "time": 4
            },
            {
                "type": "note_on",
                "note": 63,
                "velocity": 0,
                "time": 2
            },
            {
                "type": "note_on",
                "note": 70,
                "velocity": 92,
                "time": 158
            },
            {
                "type": "note_on",
                "note": 65,
                "velocity": 89,
                "time": 0
            },
            {
                "type": "note_on",
                "note": 62,
                "velocity": 81,
                "time": 0
            },
            {
                "type": "note_on",
                "note": 62,
                "velocity": 0,
                "time": 24
            },
            {
                "type": "note_on",
                "note": 65,
                "velocity": 0,
                "time": 0
            },
            {
                "type": "note_on",
                "note": 70,
                "velocity": 0,
                "time": 12
            },
            {
                "type": "note_on",
                "note": 64,
                "velocity": 84,
                "time": 156
            },
            {
                "type": "note_on",
                "note": 61,
                "velocity": 71,
                "time": 0
            },
            {
                "type": "note_on",
                "note": 69,
                "velocity": 93,
                "time": 0
            },
            {
                "type": "note_on",
                "note": 64,
                "velocity": 0,
                "time": 22
            },
            {
                "type": "note_on",
                "note": 69,
                "velocity": 0,
                "time": 4
            },
            {
                "type": "note_on",
                "note": 61,
                "velocity": 0,
                "time": 4
            },
            {
                "type": "note_on",
                "note": 70,
                "velocity": 85,
                "time": 162
            },
            {
                "type": "note_on",
                "note": 62,
                "velocity": 85,
                "time": 0
            },
            {
                "type": "note_on",
                "note": 65,
                "velocity": 86,
                "time": 0
            },
            {
                "type": "note_on",
                "note": 62,
                "velocity": 0,
                "time": 28
            },
            {
                "type": "note_on",
                "note": 65,
                "velocity": 0,
                "time": 2
            },
            {
                "type": "note_on",
                "note": 70,
                "velocity": 0,
                "time": 8
            },
            {
                "type": "note_on",
                "note": 66,
                "velocity": 86,
                "time": 154
            },
            {
                "type": "note_on",
                "note": 63,
                "velocity": 67,
                "time": 0
            },
            {
                "type": "note_on",
                "note": 71,
                "velocity": 91,
                "time": 0
            },
            {
                "type": "note_on",
                "note": 71,
                "velocity": 0,
                "time": 28
            },
            {
                "type": "note_on",
                "note": 66,
                "velocity": 0,
                "time": 0
            },
            {
                "type": "note_on",
                "note": 63,
                "velocity": 0,
                "time": 2
            },
            {
                "type": "note_on",
                "note": 70,
                "velocity": 93,
                "time": 162
            },
            {
                "type": "note_on",
                "note": 65,
                "velocity": 84,
                "time": 0
            },
            {
                "type": "note_on",
                "note": 62,
                "velocity": 83,
                "time": 0
            },
            {
                "type": "note_on",
                "note": 65,
                "velocity": 0,
                "time": 22
            },
            {
                "type": "note_on",
                "note": 62,
                "velocity": 0,
                "time": 6
            },
            {
                "type": "note_on",
                "note": 70,
                "velocity": 0,
                "time": 10
            },
            {
                "type": "note_on",
                "note": 64,
                "velocity": 93,
                "time": 154
            },
            {
                "type": "note_on",
                "note": 61,
                "velocity": 64,
                "time": 0
            },
            {
                "type": "note_on",
                "note": 69,
                "velocity": 93,
                "time": 0
            },
            {
                "type": "note_on",
                "note": 61,
                "velocity": 0,
                "time": 28
            },
            {
                "type": "note_on",
                "note": 64,
                "velocity": 0,
                "time": 2
            },
            {
                "type": "note_on",
                "note": 69,
                "velocity": 0,
                "time": 4
            },
            {
                "type": "note_on",
                "note": 62,
                "velocity": 95,
                "time": 158
            },
            {
                "type": "note_on",
                "note": 70,
                "velocity": 86,
                "time": 0
            },
            {
                "type": "note_on",
                "note": 65,
                "velocity": 91,
                "time": 0
            },
            {
                "type": "note_on",
                "note": 62,
                "velocity": 0,
                "time": 22
            },
            {
                "type": "note_on",
                "note": 65,
                "velocity": 0,
                "time": 10
            },
            {
                "type": "note_on",
                "note": 70,
                "velocity": 0,
                "time": 6
            },
            {
                "type": "note_on",
                "note": 51,
                "velocity": 110,
                "time": 154
            },
            {
                "type": "note_on",
                "note": 39,
                "velocity": 104,
                "time": 0
            },
            {
                "type": "note_on",
                "note": 68,
                "velocity": 104,
                "time": 0
            },
            {
                "type": "note_on",
                "note": 63,
                "velocity": 103,
                "time": 0
            },
            {
                "type": "note_on",
                "note": 72,
                "velocity": 112,
                "time": 0
            },
            {
                "type": "note_on",
                "note": 68,
                "velocity": 0,
                "time": 64
            },
            {
                "type": "note_on",
                "note": 72,
                "velocity": 0,
                "time": 12
            },
            {
                "type": "note_on",
                "note": 63,
                "velocity": 0,
                "time": 2
            },
            {
                "type": "note_on",
                "note": 51,
                "velocity": 0,
                "time": 64
            },
            {
                "type": "note_on",
                "note": 39,
                "velocity": 0,
                "time": 2
            },
            {
                "type": "note_on",
                "note": 70,
                "velocity": 97,
                "time": 48
            },
            {
                "type": "note_on",
                "note": 39,
                "velocity": 93,
                "time": 0
            },
            {
                "type": "note_on",
                "note": 63,
                "velocity": 95,
                "time": 0
            },
            {
                "type": "note_on",
                "note": 67,
                "velocity": 109,
                "time": 0
            },
            {
                "type": "note_on",
                "note": 51,
                "velocity": 91,
                "time": 0
            },
            {
                "type": "note_on",
                "note": 51,
                "velocity": 0,
                "time": 30
            },
            {
                "type": "note_on",
                "note": 39,
                "velocity": 0,
                "time": 8
            },
            {
                "type": "note_on",
                "note": 63,
                "velocity": 0,
                "time": 2
            },
            {
                "type": "note_on",
                "note": 70,
                "velocity": 0,
                "time": 6
            },
            {
                "type": "note_on",
                "note": 67,
                "velocity": 0,
                "time": 4
            },
            {
                "type": "note_on",
                "note": 39,
                "velocity": 88,
                "time": 46
            },
            {
                "type": "note_on",
                "note": 70,
                "velocity": 99,
                "time": 0
            },
            {
                "type": "note_on",
                "note": 51,
                "velocity": 89,
                "time": 0
            },
            {
                "type": "note_on",
                "note": 63,
                "velocity": 91,
                "time": 0
            },
            {
                "type": "note_on",
                "note": 67,
                "velocity": 99,
                "time": 0
            },
            {
                "type": "note_on",
                "note": 51,
                "velocity": 0,
                "time": 26
            },
            {
                "type": "note_on",
                "note": 39,
                "velocity": 0,
                "time": 4
            },
            {
                "type": "note_on",
                "note": 67,
                "velocity": 0,
                "time": 2
            },
            {
                "type": "note_on",
                "note": 63,
                "velocity": 0,
                "time": 0
            },
            {
                "type": "note_on",
                "note": 70,
                "velocity": 0,
                "time": 8
            },
            {
                "type": "note_on",
                "note": 69,
                "velocity": 113,
                "time": 56
            },
            {
                "type": "note_on",
                "note": 39,
                "velocity": 114,
                "time": 0
            },
            {
                "type": "note_on",
                "note": 63,
                "velocity": 104,
                "time": 0
            },
            {
                "type": "note_on",
                "note": 66,
                "velocity": 97,
                "time": 0
            },
            {
                "type": "note_on",
                "note": 51,
                "velocity": 107,
                "time": 0
            },
            {
                "type": "note_on",
                "note": 66,
                "velocity": 0,
                "time": 80
            },
            {
                "type": "note_on",
                "note": 63,
                "velocity": 0,
                "time": 8
            },
            {
                "type": "note_on",
                "note": 69,
                "velocity": 0,
                "time": 20
            },
            {
                "type": "note_on",
                "note": 39,
                "velocity": 0,
                "time": 30
            },
            {
                "type": "note_on",
                "note": 51,
                "velocity": 0,
                "time": 2
            },
            {
                "type": "note_on",
                "note": 63,
                "velocity": 102,
                "time": 52
            },
            {
                "type": "note_on",
                "note": 39,
                "velocity": 99,
                "time": 0
            },
            {
                "type": "note_on",
                "note": 51,
                "velocity": 100,
                "time": 0
            },
            {
                "type": "note_on",
                "note": 70,
                "velocity": 104,
                "time": 0
            },
            {
                "type": "note_on",
                "note": 67,
                "velocity": 111,
                "time": 0
            },
            {
                "type": "note_on",
                "note": 63,
                "velocity": 0,
                "time": 68
            },
            {
                "type": "note_on",
                "note": 70,
                "velocity": 0,
                "time": 8
            },
            {
                "type": "note_on",
                "note": 67,
                "velocity": 0,
                "time": 0
            },
            {
                "type": "note_on",
                "note": 39,
                "velocity": 0,
                "time": 52
            },
            {
                "type": "note_on",
                "note": 51,
                "velocity": 0,
                "time": 8
            },
            {
                "type": "note_on",
                "note": 72,
                "velocity": 106,
                "time": 56
            },
            {
                "type": "note_on",
                "note": 51,
                "velocity": 92,
                "time": 0
            },
            {
                "type": "note_on",
                "note": 63,
                "velocity": 104,
                "time": 0
            },
            {
                "type": "note_on",
                "note": 68,
                "velocity": 106,
                "time": 0
            },
            {
                "type": "note_on",
                "note": 39,
                "velocity": 86,
                "time": 0
            },
            {
                "type": "note_on",
                "note": 51,
                "velocity": 0,
                "time": 42
            },
            {
                "type": "note_on",
                "note": 68,
                "velocity": 0,
                "time": 4
            },
            {
                "type": "note_on",
                "note": 72,
                "velocity": 0,
                "time": 0
            },
            {
                "type": "note_on",
                "note": 63,
                "velocity": 0,
                "time": 0
            },
            {
                "type": "note_on",
                "note": 39,
                "velocity": 0,
                "time": 2
            },
            {
                "type": "note_on",
                "note": 63,
                "velocity": 86,
                "time": 48
            },
            {
                "type": "note_on",
                "note": 39,
                "velocity": 97,
                "time": 0
            },
            {
                "type": "note_on",
                "note": 51,
                "velocity": 92,
                "time": 0
            },
            {
                "type": "note_on",
                "note": 72,
                "velocity": 105,
                "time": 0
            },
            {
                "type": "note_on",
                "note": 68,
                "velocity": 98,
                "time": 0
            },
            {
                "type": "note_on",
                "note": 63,
                "velocity": 0,
                "time": 34
            },
            {
                "type": "note_on",
                "note": 72,
                "velocity": 0,
                "time": 4
            },
            {
                "type": "note_on",
                "note": 68,
                "velocity": 0,
                "time": 2
            },
            {
                "type": "note_on",
                "note": 51,
                "velocity": 0,
                "time": 0
            },
            {
                "type": "note_on",
                "note": 39,
                "velocity": 0,
                "time": 2
            },
            {
                "type": "note_on",
                "note": 51,
                "velocity": 110,
                "time": 54
            },
            {
                "type": "note_on",
                "note": 39,
                "velocity": 102,
                "time": 0
            },
            {
                "type": "note_on",
                "note": 67,
                "velocity": 112,
                "time": 0
            },
            {
                "type": "note_on",
                "note": 63,
                "velocity": 99,
                "time": 0
            },
            {
                "type": "note_on",
                "note": 70,
                "velocity": 102,
                "time": 0
            },
            {
                "type": "note_on",
                "note": 70,
                "velocity": 0,
                "time": 70
            },
            {
                "type": "note_on",
                "note": 67,
                "velocity": 0,
                "time": 4
            },
            {
                "type": "note_on",
                "note": 63,
                "velocity": 0,
                "time": 4
            },
            {
                "type": "note_on",
                "note": 39,
                "velocity": 0,
                "time": 64
            },
            {
                "type": "note_on",
                "note": 51,
                "velocity": 0,
                "time": 0
            },
            {
                "type": "note_on",
                "note": 69,
                "velocity": 109,
                "time": 50
            },
            {
                "type": "note_on",
                "note": 39,
                "velocity": 102,
                "time": 0
            },
            {
                "type": "note_on",
                "note": 51,
                "velocity": 104,
                "time": 0
            },
            {
                "type": "note_on",
                "note": 63,
                "velocity": 93,
                "time": 0
            },
            {
                "type": "note_on",
                "note": 66,
                "velocity": 103,
                "time": 0
            },
            {
                "type": "note_on",
                "note": 63,
                "velocity": 0,
                "time": 42
            },
            {
                "type": "note_on",
                "note": 51,
                "velocity": 0,
                "time": 0
            },
            {
                "type": "note_on",
                "note": 39,
                "velocity": 0,
                "time": 0
            },
            {
                "type": "note_on",
                "note": 66,
                "velocity": 0,
                "time": 2
            },
            {
                "type": "note_on",
                "note": 69,
                "velocity": 0,
                "time": 2
            },
            {
                "type": "note_on",
                "note": 39,
                "velocity": 92,
                "time": 50
            },
            {
                "type": "note_on",
                "note": 69,
                "velocity": 96,
                "time": 0
            },
            {
                "type": "note_on",
                "note": 51,
                "velocity": 91,
                "time": 0
            },
            {
                "type": "note_on",
                "note": 63,
                "velocity": 79,
                "time": 0
            },
            {
                "type": "note_on",
                "note": 66,
                "velocity": 86,
                "time": 0
            },
            {
                "type": "note_on",
                "note": 66,
                "velocity": 0,
                "time": 26
            },
            {
                "type": "note_on",
                "note": 39,
                "velocity": 0,
                "time": 2
            },
            {
                "type": "note_on",
                "note": 63,
                "velocity": 0,
                "time": 2
            },
            {
                "type": "note_on",
                "note": 51,
                "velocity": 0,
                "time": 4
            },
            {
                "type": "note_on",
                "note": 69,
                "velocity": 0,
                "time": 6
            },
            {
                "type": "note_on",
                "note": 51,
                "velocity": 109,
                "time": 56
            },
            {
                "type": "note_on",
                "note": 39,
                "velocity": 109,
                "time": 0
            },
            {
                "type": "note_on",
                "note": 67,
                "velocity": 106,
                "time": 0
            },
            {
                "type": "note_on",
                "note": 70,
                "velocity": 118,
                "time": 0
            },
            {
                "type": "note_on",
                "note": 63,
                "velocity": 95,
                "time": 0
            },
            {
                "type": "note_on",
                "note": 63,
                "velocity": 0,
                "time": 68
            },
            {
                "type": "note_on",
                "note": 67,
                "velocity": 0,
                "time": 0
            },
            {
                "type": "note_on",
                "note": 70,
                "velocity": 0,
                "time": 6
            },
            {
                "type": "note_on",
                "note": 51,
                "velocity": 0,
                "time": 96
            },
            {
                "type": "note_on",
                "note": 39,
                "velocity": 0,
                "time": 14
            },
            {
                "type": "note_on",
                "note": 68,
                "velocity": 104,
                "time": 8
            },
            {
                "type": "note_on",
                "note": 56,
                "velocity": 93,
                "time": 0
            },
            {
                "type": "note_on",
                "note": 63,
                "velocity": 100,
                "time": 0
            },
            {
                "type": "note_on",
                "note": 44,
                "velocity": 107,
                "time": 0
            },
            {
                "type": "note_on",
                "note": 72,
                "velocity": 110,
                "time": 0
            },
            {
                "type": "note_on",
                "note": 72,
                "velocity": 0,
                "time": 112
            },
            {
                "type": "note_on",
                "note": 68,
                "velocity": 0,
                "time": 2
            },
            {
                "type": "note_on",
                "note": 63,
                "velocity": 0,
                "time": 8
            },
            {
                "type": "note_on",
                "note": 63,
                "velocity": 100,
                "time": 70
            },
            {
                "type": "note_on",
                "note": 72,
                "velocity": 111,
                "time": 0
            },
            {
                "type": "note_on",
                "note": 68,
                "velocity": 97,
                "time": 0
            },
            {
                "type": "note_on",
                "note": 68,
                "velocity": 0,
                "time": 36
            },
            {
                "type": "note_on",
                "note": 63,
                "velocity": 0,
                "time": 2
            },
            {
                "type": "note_on",
                "note": 72,
                "velocity": 0,
                "time": 2
            },
            {
                "type": "note_on",
                "note": 63,
                "velocity": 93,
                "time": 56
            },
            {
                "type": "note_on",
                "note": 72,
                "velocity": 113,
                "time": 0
            },
            {
                "type": "note_on",
                "note": 68,
                "velocity": 99,
                "time": 0
            },
            {
                "type": "note_on",
                "note": 63,
                "velocity": 0,
                "time": 26
            },
            {
                "type": "note_on",
                "note": 68,
                "velocity": 0,
                "time": 4
            },
            {
                "type": "note_on",
                "note": 72,
                "velocity": 0,
                "time": 4
            },
            {
                "type": "note_on",
                "note": 56,
                "velocity": 0,
                "time": 54
            },
            {
                "type": "note_on",
                "note": 67,
                "velocity": 111,
                "time": 8
            },
            {
                "type": "note_on",
                "note": 43,
                "velocity": 100,
                "time": 0
            },
            {
                "type": "note_on",
                "note": 63,
                "velocity": 99,
                "time": 0
            },
            {
                "type": "note_on",
                "note": 55,
                "velocity": 116,
                "time": 0
            },
            {
                "type": "note_on",
                "note": 70,
                "velocity": 103,
                "time": 0
            },
            {
                "type": "note_on",
                "note": 44,
                "velocity": 0,
                "time": 2
            },
            {
                "type": "note_on",
                "note": 67,
                "velocity": 0,
                "time": 98
            },
            {
                "type": "note_on",
                "note": 70,
                "velocity": 0,
                "time": 2
            },
            {
                "type": "note_on",
                "note": 63,
                "velocity": 0,
                "time": 2
            },
            {
                "type": "note_on",
                "note": 70,
                "velocity": 96,
                "time": 88
            },
            {
                "type": "note_on",
                "note": 63,
                "velocity": 97,
                "time": 0
            },
            {
                "type": "note_on",
                "note": 67,
                "velocity": 112,
                "time": 0
            },
            {
                "type": "note_on",
                "note": 63,
                "velocity": 0,
                "time": 36
            },
            {
                "type": "note_on",
                "note": 67,
                "velocity": 0,
                "time": 8
            },
            {
                "type": "note_on",
                "note": 70,
                "velocity": 0,
                "time": 2
            },
            {
                "type": "note_on",
                "note": 63,
                "velocity": 81,
                "time": 50
            },
            {
                "type": "note_on",
                "note": 70,
                "velocity": 86,
                "time": 0
            },
            {
                "type": "note_on",
                "note": 70,
                "velocity": 0,
                "time": 28
            },
            {
                "type": "note_on",
                "note": 63,
                "velocity": 0,
                "time": 6
            },
            {
                "type": "note_on",
                "note": 43,
                "velocity": 0,
                "time": 30
            },
            {
                "type": "note_on",
                "note": 55,
                "velocity": 0,
                "time": 12
            },
            {
                "type": "note_on",
                "note": 69,
                "velocity": 105,
                "time": 20
            },
            {
                "type": "note_on",
                "note": 41,
                "velocity": 105,
                "time": 0
            },
            {
                "type": "note_on",
                "note": 60,
                "velocity": 93,
                "time": 0
            },
            {
                "type": "note_on",
                "note": 63,
                "velocity": 97,
                "time": 0
            },
            {
                "type": "note_on",
                "note": 53,
                "velocity": 108,
                "time": 0
            },
            {
                "type": "note_on",
                "note": 69,
                "velocity": 0,
                "time": 118
            },
            {
                "type": "note_on",
                "note": 63,
                "velocity": 0,
                "time": 2
            },
            {
                "type": "note_on",
                "note": 60,
                "velocity": 0,
                "time": 2
            },
            {
                "type": "note_on",
                "note": 63,
                "velocity": 100,
                "time": 70
            },
            {
                "type": "note_on",
                "note": 69,
                "velocity": 103,
                "time": 0
            },
            {
                "type": "note_on",
                "note": 60,
                "velocity": 89,
                "time": 0
            },
            {
                "type": "note_on",
                "note": 69,
                "velocity": 0,
                "time": 34
            },
            {
                "type": "note_on",
                "note": 60,
                "velocity": 0,
                "time": 4
            },
            {
                "type": "note_on",
                "note": 63,
                "velocity": 0,
                "time": 2
            },
            {
                "type": "note_on",
                "note": 63,
                "velocity": 90,
                "time": 56
            },
            {
                "type": "note_on",
                "note": 60,
                "velocity": 85,
                "time": 0
            },
            {
                "type": "note_on",
                "note": 69,
                "velocity": 90,
                "time": 0
            },
            {
                "type": "note_on",
                "note": 60,
                "velocity": 0,
                "time": 20
            },
            {
                "type": "note_on",
                "note": 69,
                "velocity": 0,
                "time": 12
            },
            {
                "type": "note_on",
                "note": 63,
                "velocity": 0,
                "time": 2
            },
            {
                "type": "note_on",
                "note": 53,
                "velocity": 0,
                "time": 22
            },
            {
                "type": "note_on",
                "note": 41,
                "velocity": 0,
                "time": 32
            },
            {
                "type": "note_on",
                "note": 65,
                "velocity": 95,
                "time": 8
            },
            {
                "type": "note_on",
                "note": 34,
                "velocity": 92,
                "time": 0
            },
            {
                "type": "note_on",
                "note": 62,
                "velocity": 94,
                "time": 0
            },
            {
                "type": "note_on",
                "note": 70,
                "velocity": 112,
                "time": 0
            },
            {
                "type": "note_on",
                "note": 46,
                "velocity": 89,
                "time": 0
            },
            {
                "type": "note_on",
                "note": 62,
                "velocity": 0,
                "time": 64
            },
            {
                "type": "note_on",
                "note": 70,
                "velocity": 0,
                "time": 2
            },
            {
                "type": "note_on",
                "note": 65,
                "velocity": 0,
                "time": 10
            },
            {
                "type": "note_on",
                "note": 34,
                "velocity": 0,
                "time": 6
            },
            {
                "type": "note_on",
                "note": 46,
                "velocity": 0,
                "time": 0
            },
            {
                "type": "note_on",
                "note": 70,
                "velocity": 87,
                "time": 14
            },
            {
                "type": "note_on",
                "note": 70,
                "velocity": 0,
                "time": 48
            },
            {
                "type": "note_on",
                "note": 70,
                "velocity": 79,
                "time": 48
            },
            {
                "type": "note_on",
                "note": 70,
                "velocity": 0,
                "time": 50
            },
            {
                "type": "note_on",
                "note": 70,
                "velocity": 92,
                "time": 46
            },
            {
                "type": "note_on",
                "note": 70,
                "velocity": 0,
                "time": 68
            },
            {
                "type": "note_on",
                "note": 68,
                "velocity": 83,
                "time": 28
            },
            {
                "type": "note_on",
                "note": 72,
                "velocity": 88,
                "time": 0
            },
            {
                "type": "note_on",
                "note": 72,
                "velocity": 0,
                "time": 24
            },
            {
                "type": "note_on",
                "note": 75,
                "velocity": 81,
                "time": 4
            },
            {
                "type": "note_on",
                "note": 68,
                "velocity": 0,
                "time": 14
            },
            {
                "type": "note_on",
                "note": 75,
                "velocity": 0,
                "time": 62
            },
            {
                "type": "note_on",
                "note": 67,
                "velocity": 89,
                "time": 20
            },
            {
                "type": "note_on",
                "note": 70,
                "velocity": 90,
                "time": 0
            },
            {
                "type": "note_on",
                "note": 67,
                "velocity": 0,
                "time": 88
            },
            {
                "type": "note_on",
                "note": 75,
                "velocity": 93,
                "time": 8
            },
            {
                "type": "note_on",
                "note": 70,
                "velocity": 0,
                "time": 10
            },
            {
                "type": "note_on",
                "note": 75,
                "velocity": 0,
                "time": 72
            },
            {
                "type": "note_on",
                "note": 69,
                "velocity": 98,
                "time": 14
            },
            {
                "type": "note_on",
                "note": 66,
                "velocity": 96,
                "time": 0
            },
            {
                "type": "note_on",
                "note": 75,
                "velocity": 97,
                "time": 96
            },
            {
                "type": "note_on",
                "note": 66,
                "velocity": 0,
                "time": 4
            },
            {
                "type": "note_on",
                "note": 69,
                "velocity": 0,
                "time": 0
            },
            {
                "type": "note_on",
                "note": 75,
                "velocity": 0,
                "time": 92
            },
            {
                "type": "note_on",
                "note": 65,
                "velocity": 95,
                "time": 0
            },
            {
                "type": "note_on",
                "note": 68,
                "velocity": 93,
                "time": 0
            },
            {
                "type": "note_on",
                "note": 65,
                "velocity": 0,
                "time": 76
            },
            {
                "type": "note_on",
                "note": 68,
                "velocity": 0,
                "time": 10
            },
            {
                "type": "note_on",
                "note": 75,
                "velocity": 79,
                "time": 4
            },
            {
                "type": "note_on",
                "note": 75,
                "velocity": 0,
                "time": 42
            },
            {
                "type": "note_on",
                "note": 66,
                "velocity": 78,
                "time": 54
            },
            {
                "type": "note_on",
                "note": 63,
                "velocity": 69,
                "time": 0
            },
            {
                "type": "note_on",
                "note": 71,
                "velocity": 89,
                "time": 0
            },
            {
                "type": "note_on",
                "note": 66,
                "velocity": 0,
                "time": 32
            },
            {
                "type": "note_on",
                "note": 71,
                "velocity": 0,
                "time": 2
            },
            {
                "type": "note_on",
                "note": 63,
                "velocity": 0,
                "time": 14
            },
            {
                "type": "note_on",
                "note": 65,
                "velocity": 84,
                "time": 144
            },
            {
                "type": "note_on",
                "note": 62,
                "velocity": 85,
                "time": 0
            },
            {
                "type": "note_on",
                "note": 70,
                "velocity": 83,
                "time": 0
            },
            {
                "type": "note_on",
                "note": 62,
                "velocity": 0,
                "time": 22
            },
            {
                "type": "note_on",
                "note": 65,
                "velocity": 0,
                "time": 6
            },
            {
                "type": "note_on",
                "note": 70,
                "velocity": 0,
                "time": 8
            },
            {
                "type": "note_on",
                "note": 69,
                "velocity": 90,
                "time": 156
            },
            {
                "type": "note_on",
                "note": 61,
                "velocity": 64,
                "time": 0
            },
            {
                "type": "note_on",
                "note": 64,
                "velocity": 90,
                "time": 0
            },
            {
                "type": "note_on",
                "note": 69,
                "velocity": 0,
                "time": 18
            },
            {
                "type": "note_on",
                "note": 61,
                "velocity": 0,
                "time": 10
            },
            {
                "type": "note_on",
                "note": 64,
                "velocity": 0,
                "time": 2
            },
            {
                "type": "note_on",
                "note": 62,
                "velocity": 81,
                "time": 162
            },
            {
                "type": "note_on",
                "note": 65,
                "velocity": 83,
                "time": 0
            },
            {
                "type": "note_on",
                "note": 70,
                "velocity": 81,
                "time": 0
            },
            {
                "type": "note_on",
                "note": 62,
                "velocity": 0,
                "time": 24
            },
            {
                "type": "note_on",
                "note": 65,
                "velocity": 0,
                "time": 10
            },
            {
                "type": "note_on",
                "note": 70,
                "velocity": 0,
                "time": 8
            },
            {
                "type": "note_on",
                "note": 66,
                "velocity": 82,
                "time": 150
            },
            {
                "type": "note_on",
                "note": 63,
                "velocity": 74,
                "time": 0
            },
            {
                "type": "note_on",
                "note": 71,
                "velocity": 93,
                "time": 0
            },
            {
                "type": "note_on",
                "note": 66,
                "velocity": 0,
                "time": 22
            },
            {
                "type": "note_on",
                "note": 71,
                "velocity": 0,
                "time": 4
            },
            {
                "type": "note_on",
                "note": 63,
                "velocity": 0,
                "time": 4
            },
            {
                "type": "note_on",
                "note": 62,
                "velocity": 91,
                "time": 162
            },
            {
                "type": "note_on",
                "note": 70,
                "velocity": 86,
                "time": 0
            },
            {
                "type": "note_on",
                "note": 65,
                "velocity": 84,
                "time": 0
            },
            {
                "type": "note_on",
                "note": 65,
                "velocity": 0,
                "time": 20
            },
            {
                "type": "note_on",
                "note": 62,
                "velocity": 0,
                "time": 4
            },
            {
                "type": "note_on",
                "note": 70,
                "velocity": 0,
                "time": 6
            },
            {
                "type": "note_on",
                "note": 64,
                "velocity": 98,
                "time": 162
            },
            {
                "type": "note_on",
                "note": 61,
                "velocity": 71,
                "time": 0
            },
            {
                "type": "note_on",
                "note": 69,
                "velocity": 103,
                "time": 0
            },
            {
                "type": "note_on",
                "note": 69,
                "velocity": 0,
                "time": 22
            },
            {
                "type": "note_on",
                "note": 61,
                "velocity": 0,
                "time": 2
            },
            {
                "type": "note_on",
                "note": 64,
                "velocity": 0,
                "time": 2
            },
            {
                "type": "note_on",
                "note": 34,
                "velocity": 102,
                "time": 166
            },
            {
                "type": "note_on",
                "note": 46,
                "velocity": 104,
                "time": 0
            },
            {
                "type": "note_on",
                "note": 58,
                "velocity": 127,
                "time": 0
            },
            {
                "type": "note_on",
                "note": 58,
                "velocity": 0,
                "time": 46
            },
            {
                "type": "note_on",
                "note": 46,
                "velocity": 0,
                "time": 10
            },
            {
                "type": "note_on",
                "note": 34,
                "velocity": 0,
                "time": 6
            },
            {
                "type": "note_on",
                "note": 51,
                "velocity": 112,
                "time": 130
            },
            {
                "type": "note_on",
                "note": 39,
                "velocity": 103,
                "time": 0
            },
            {
                "type": "note_on",
                "note": 63,
                "velocity": 127,
                "time": 0
            },
            {
                "type": "note_on",
                "note": 63,
                "velocity": 0,
                "time": 38
            },
            {
                "type": "note_on",
                "note": 39,
                "velocity": 0,
                "time": 10
            },
            {
                "type": "note_on",
                "note": 51,
                "velocity": 0,
                "time": 0
            },
            {
                "type": "note_on",
                "note": 58,
                "velocity": 118,
                "time": 144
            },
            {
                "type": "note_on",
                "note": 34,
                "velocity": 109,
                "time": 0
            },
            {
                "type": "note_on",
                "note": 46,
                "velocity": 104,
                "time": 0
            },
            {
                "type": "note_on",
                "note": 58,
                "velocity": 0,
                "time": 42
            },
            {
                "type": "note_on",
                "note": 46,
                "velocity": 0,
                "time": 16
            },
            {
                "type": "note_on",
                "note": 34,
                "velocity": 0,
                "time": 6
            },
            {
                "type": "note_on",
                "note": 67,
                "velocity": 125,
                "time": 128
            },
            {
                "type": "note_on",
                "note": 39,
                "velocity": 110,
                "time": 0
            },
            {
                "type": "note_on",
                "note": 58,
                "velocity": 124,
                "time": 0
            },
            {
                "type": "note_on",
                "note": 63,
                "velocity": 127,
                "time": 0
            },
            {
                "type": "note_on",
                "note": 51,
                "velocity": 114,
                "time": 0
            },
            {
                "type": "note_on",
                "note": 58,
                "velocity": 0,
                "time": 104
            },
            {
                "type": "note_on",
                "note": 63,
                "velocity": 0,
                "time": 4
            },
            {
                "type": "note_on",
                "note": 67,
                "velocity": 0,
                "time": 4
            },
            {
                "type": "note_on",
                "note": 51,
                "velocity": 0,
                "time": 18
            },
            {
                "type": "note_on",
                "note": 39,
                "velocity": 0,
                "time": 12
            },
            {
                "type": "note_on",
                "note": 65,
                "velocity": 99,
                "time": 4
            },
            {
                "type": "note_on",
                "note": 34,
                "velocity": 96,
                "time": 0
            },
            {
                "type": "note_on",
                "note": 46,
                "velocity": 88,
                "time": 0
            },
            {
                "type": "note_on",
                "note": 58,
                "velocity": 93,
                "time": 0
            },
            {
                "type": "note_on",
                "note": 62,
                "velocity": 105,
                "time": 0
            },
            {
                "type": "note_on",
                "note": 65,
                "velocity": 0,
                "time": 26
            },
            {
                "type": "note_on",
                "note": 58,
                "velocity": 0,
                "time": 4
            },
            {
                "type": "note_on",
                "note": 62,
                "velocity": 0,
                "time": 0
            },
            {
                "type": "note_on",
                "note": 34,
                "velocity": 0,
                "time": 16
            },
            {
                "type": "note_on",
                "note": 46,
                "velocity": 0,
                "time": 2
            },
            {
                "type": "note_on",
                "note": 34,
                "velocity": 95,
                "time": 48
            },
            {
                "type": "note_on",
                "note": 65,
                "velocity": 119,
                "time": 0
            },
            {
                "type": "note_on",
                "note": 46,
                "velocity": 87,
                "time": 0
            },
            {
                "type": "note_on",
                "note": 58,
                "velocity": 102,
                "time": 0
            },
            {
                "type": "note_on",
                "note": 62,
                "velocity": 115,
                "time": 0
            },
            {
                "type": "note_on",
                "note": 58,
                "velocity": 0,
                "time": 32
            },
            {
                "type": "note_on",
                "note": 65,
                "velocity": 0,
                "time": 4
            },
            {
                "type": "note_on",
                "note": 62,
                "velocity": 0,
                "time": 4
            },
            {
                "type": "note_on",
                "note": 46,
                "velocity": 0,
                "time": 16
            },
            {
                "type": "note_on",
                "note": 34,
                "velocity": 0,
                "time": 0
            },
            {
                "type": "note_on",
                "note": 58,
                "velocity": 109,
                "time": 40
            },
            {
                "type": "note_on",
                "note": 34,
                "velocity": 103,
                "time": 0
            },
            {
                "type": "note_on",
                "note": 63,
                "velocity": 110,
                "time": 0
            },
            {
                "type": "note_on",
                "note": 67,
                "velocity": 119,
                "time": 0
            },
            {
                "type": "note_on",
                "note": 46,
                "velocity": 91,
                "time": 0
            },
            {
                "type": "note_on",
                "note": 58,
                "velocity": 0,
                "time": 24
            },
            {
                "type": "note_on",
                "note": 67,
                "velocity": 0,
                "time": 2
            },
            {
                "type": "note_on",
                "note": 63,
                "velocity": 0,
                "time": 0
            },
            {
                "type": "note_on",
                "note": 34,
                "velocity": 0,
                "time": 24
            },
            {
                "type": "note_on",
                "note": 46,
                "velocity": 0,
                "time": 4
            },
            {
                "type": "note_on",
                "note": 68,
                "velocity": 114,
                "time": 42
            },
            {
                "type": "note_on",
                "note": 46,
                "velocity": 95,
                "time": 0
            },
            {
                "type": "note_on",
                "note": 34,
                "velocity": 106,
                "time": 0
            },
            {
                "type": "note_on",
                "note": 65,
                "velocity": 106,
                "time": 0
            },
            {
                "type": "note_on",
                "note": 58,
                "velocity": 100,
                "time": 0
            },
            {
                "type": "note_on",
                "note": 58,
                "velocity": 0,
                "time": 32
            },
            {
                "type": "note_on",
                "note": 65,
                "velocity": 0,
                "time": 0
            },
            {
                "type": "note_on",
                "note": 68,
                "velocity": 0,
                "time": 6
            },
            {
                "type": "note_on",
                "note": 34,
                "velocity": 0,
                "time": 16
            },
            {
                "type": "note_on",
                "note": 46,
                "velocity": 0,
                "time": 0
            },
            {
                "type": "note_on",
                "note": 67,
                "velocity": 111,
                "time": 42
            },
            {
                "type": "note_on",
                "note": 46,
                "velocity": 92,
                "time": 0
            },
            {
                "type": "note_on",
                "note": 58,
                "velocity": 86,
                "time": 0
            },
            {
                "type": "note_on",
                "note": 63,
                "velocity": 97,
                "time": 0
            },
            {
                "type": "note_on",
                "note": 34,
                "velocity": 106,
                "time": 0
            },
            {
                "type": "note_on",
                "note": 58,
                "velocity": 0,
                "time": 24
            },
            {
                "type": "note_on",
                "note": 67,
                "velocity": 0,
                "time": 4
            },
            {
                "type": "note_on",
                "note": 63,
                "velocity": 0,
                "time": 2
            },
            {
                "type": "note_on",
                "note": 34,
                "velocity": 0,
                "time": 18
            },
            {
                "type": "note_on",
                "note": 46,
                "velocity": 0,
                "time": 0
            },
            {
                "type": "note_on",
                "note": 62,
                "velocity": 123,
                "time": 48
            },
            {
                "type": "note_on",
                "note": 34,
                "velocity": 104,
                "time": 0
            },
            {
                "type": "note_on",
                "note": 46,
                "velocity": 92,
                "time": 0
            },
            {
                "type": "note_on",
                "note": 58,
                "velocity": 116,
                "time": 0
            },
            {
                "type": "note_on",
                "note": 65,
                "velocity": 123,
                "time": 0
            },
            {
                "type": "note_on",
                "note": 58,
                "velocity": 0,
                "time": 64
            },
            {
                "type": "note_on",
                "note": 65,
                "velocity": 0,
                "time": 6
            },
            {
                "type": "note_on",
                "note": 62,
                "velocity": 0,
                "time": 6
            },
            {
                "type": "note_on",
                "note": 46,
                "velocity": 0,
                "time": 10
            },
            {
                "type": "note_on",
                "note": 34,
                "velocity": 0,
                "time": 6
            },
            {
                "type": "note_on",
                "note": 46,
                "velocity": 124,
                "time": 484
            },
            {
                "type": "note_on",
                "note": 34,
                "velocity": 112,
                "time": 0
            },
            {
                "type": "note_on",
                "note": 58,
                "velocity": 109,
                "time": 0
            },
            {
                "type": "note_on",
                "note": 58,
                "velocity": 0,
                "time": 42
            },
            {
                "type": "note_on",
                "note": 34,
                "velocity": 0,
                "time": 16
            },
            {
                "type": "note_on",
                "note": 46,
                "velocity": 0,
                "time": 6
            },
            {
                "type": "note_on",
                "note": 39,
                "velocity": 118,
                "time": 128
            },
            {
                "type": "note_on",
                "note": 51,
                "velocity": 122,
                "time": 0
            },
            {
                "type": "note_on",
                "note": 63,
                "velocity": 107,
                "time": 0
            },
            {
                "type": "note_on",
                "note": 63,
                "velocity": 0,
                "time": 24
            },
            {
                "type": "note_on",
                "note": 51,
                "velocity": 0,
                "time": 26
            },
            {
                "type": "note_on",
                "note": 39,
                "velocity": 0,
                "time": 2
            },
            {
                "type": "note_on",
                "note": 58,
                "velocity": 92,
                "time": 140
            },
            {
                "type": "note_on",
                "note": 46,
                "velocity": 114,
                "time": 0
            },
            {
                "type": "note_on",
                "note": 34,
                "velocity": 96,
                "time": 0
            },
            {
                "type": "note_on",
                "note": 46,
                "velocity": 0,
                "time": 36
            },
            {
                "type": "note_on",
                "note": 34,
                "velocity": 0,
                "time": 4
            },
            {
                "type": "note_on",
                "note": 58,
                "velocity": 0,
                "time": 2
            },
            {
                "type": "note_on",
                "note": 62,
                "velocity": 98,
                "time": 54
            },
            {
                "type": "note_on",
                "note": 58,
                "velocity": 81,
                "time": 0
            },
            {
                "type": "note_on",
                "note": 34,
                "velocity": 109,
                "time": 0
            },
            {
                "type": "note_on",
                "note": 46,
                "velocity": 114,
                "time": 0
            },
            {
                "type": "note_on",
                "note": 65,
                "velocity": 98,
                "time": 0
            },
            {
                "type": "note_on",
                "note": 65,
                "velocity": 0,
                "time": 20
            },
            {
                "type": "note_on",
                "note": 62,
                "velocity": 0,
                "time": 2
            },
            {
                "type": "note_on",
                "note": 58,
                "velocity": 0,
                "time": 0
            },
            {
                "type": "note_on",
                "note": 34,
                "velocity": 0,
                "time": 16
            },
            {
                "type": "note_on",
                "note": 46,
                "velocity": 0,
                "time": 2
            },
            {
                "type": "note_on",
                "note": 62,
                "velocity": 98,
                "time": 56
            },
            {
                "type": "note_on",
                "note": 46,
                "velocity": 112,
                "time": 0
            },
            {
                "type": "note_on",
                "note": 34,
                "velocity": 109,
                "time": 0
            },
            {
                "type": "note_on",
                "note": 65,
                "velocity": 109,
                "time": 0
            },
            {
                "type": "note_on",
                "note": 58,
                "velocity": 96,
                "time": 0
            },
            {
                "type": "note_on",
                "note": 62,
                "velocity": 0,
                "time": 14
            },
            {
                "type": "note_on",
                "note": 58,
                "velocity": 0,
                "time": 22
            },
            {
                "type": "note_on",
                "note": 65,
                "velocity": 0,
                "time": 2
            },
            {
                "type": "note_on",
                "note": 34,
                "velocity": 0,
                "time": 0
            },
            {
                "type": "note_on",
                "note": 46,
                "velocity": 0,
                "time": 2
            },
            {
                "type": "note_on",
                "note": 46,
                "velocity": 112,
                "time": 56
            },
            {
                "type": "note_on",
                "note": 34,
                "velocity": 103,
                "time": 0
            },
            {
                "type": "note_on",
                "note": 58,
                "velocity": 92,
                "time": 0
            },
            {
                "type": "note_on",
                "note": 63,
                "velocity": 97,
                "time": 0
            },
            {
                "type": "note_on",
                "note": 67,
                "velocity": 106,
                "time": 0
            },
            {
                "type": "note_on",
                "note": 58,
                "velocity": 0,
                "time": 20
            },
            {
                "type": "note_on",
                "note": 63,
                "velocity": 0,
                "time": 4
            },
            {
                "type": "note_on",
                "note": 67,
                "velocity": 0,
                "time": 4
            },
            {
                "type": "note_on",
                "note": 34,
                "velocity": 0,
                "time": 8
            },
            {
                "type": "note_on",
                "note": 46,
                "velocity": 0,
                "time": 4
            },
            {
                "type": "note_on",
                "note": 58,
                "velocity": 96,
                "time": 56
            },
            {
                "type": "note_on",
                "note": 34,
                "velocity": 98,
                "time": 0
            },
            {
                "type": "note_on",
                "note": 46,
                "velocity": 99,
                "time": 0
            },
            {
                "type": "note_on",
                "note": 68,
                "velocity": 98,
                "time": 0
            },
            {
                "type": "note_on",
                "note": 65,
                "velocity": 110,
                "time": 0
            },
            {
                "type": "note_on",
                "note": 58,
                "velocity": 0,
                "time": 20
            },
            {
                "type": "note_on",
                "note": 68,
                "velocity": 0,
                "time": 12
            },
            {
                "type": "note_on",
                "note": 34,
                "velocity": 0,
                "time": 12
            },
            {
                "type": "note_on",
                "note": 65,
                "velocity": 0,
                "time": 0
            },
            {
                "type": "note_on",
                "note": 46,
                "velocity": 0,
                "time": 6
            },
            {
                "type": "note_on",
                "note": 46,
                "velocity": 92,
                "time": 46
            },
            {
                "type": "note_on",
                "note": 63,
                "velocity": 95,
                "time": 0
            },
            {
                "type": "note_on",
                "note": 34,
                "velocity": 99,
                "time": 0
            },
            {
                "type": "note_on",
                "note": 67,
                "velocity": 109,
                "time": 0
            },
            {
                "type": "note_on",
                "note": 58,
                "velocity": 71,
                "time": 0
            },
            {
                "type": "note_on",
                "note": 58,
                "velocity": 0,
                "time": 24
            },
            {
                "type": "note_on",
                "note": 63,
                "velocity": 0,
                "time": 2
            },
            {
                "type": "note_on",
                "note": 67,
                "velocity": 0,
                "time": 6
            },
            {
                "type": "note_on",
                "note": 34,
                "velocity": 0,
                "time": 8
            },
            {
                "type": "note_on",
                "note": 46,
                "velocity": 0,
                "time": 4
            },
            {
                "type": "note_on",
                "note": 62,
                "velocity": 111,
                "time": 52
            },
            {
                "type": "note_on",
                "note": 34,
                "velocity": 109,
                "time": 0
            },
            {
                "type": "note_on",
                "note": 46,
                "velocity": 118,
                "time": 0
            },
            {
                "type": "note_on",
                "note": 58,
                "velocity": 109,
                "time": 0
            },
            {
                "type": "note_on",
                "note": 65,
                "velocity": 108,
                "time": 0
            },
            {
                "type": "note_on",
                "note": 58,
                "velocity": 0,
                "time": 28
            },
            {
                "type": "note_on",
                "note": 62,
                "velocity": 0,
                "time": 6
            },
            {
                "type": "note_on",
                "note": 65,
                "velocity": 0,
                "time": 6
            },
            {
                "type": "note_on",
                "note": 34,
                "velocity": 0,
                "time": 2
            },
            {
                "type": "note_on",
                "note": 46,
                "velocity": 0,
                "time": 8
            },
            {
                "type": "note_on",
                "note": 58,
                "velocity": 102,
                "time": 526
            },
            {
                "type": "note_on",
                "note": 34,
                "velocity": 110,
                "time": 0
            },
            {
                "type": "note_on",
                "note": 46,
                "velocity": 126,
                "time": 0
            },
            {
                "type": "note_on",
                "note": 46,
                "velocity": 0,
                "time": 42
            },
            {
                "type": "note_on",
                "note": 34,
                "velocity": 0,
                "time": 6
            },
            {
                "type": "note_on",
                "note": 58,
                "velocity": 0,
                "time": 0
            },
            {
                "type": "note_on",
                "note": 63,
                "velocity": 124,
                "time": 144
            },
            {
                "type": "note_on",
                "note": 51,
                "velocity": 124,
                "time": 0
            },
            {
                "type": "note_on",
                "note": 39,
                "velocity": 126,
                "time": 0
            },
            {
                "type": "note_on",
                "note": 63,
                "velocity": 0,
                "time": 34
            },
            {
                "type": "note_on",
                "note": 39,
                "velocity": 0,
                "time": 8
            },
            {
                "type": "note_on",
                "note": 51,
                "velocity": 0,
                "time": 0
            },
            {
                "type": "note_on",
                "note": 46,
                "velocity": 126,
                "time": 150
            },
            {
                "type": "note_on",
                "note": 34,
                "velocity": 103,
                "time": 0
            },
            {
                "type": "note_on",
                "note": 58,
                "velocity": 106,
                "time": 0
            },
            {
                "type": "note_on",
                "note": 34,
                "velocity": 0,
                "time": 34
            },
            {
                "type": "note_on",
                "note": 46,
                "velocity": 0,
                "time": 2
            },
            {
                "type": "note_on",
                "note": 58,
                "velocity": 0,
                "time": 6
            },
            {
                "type": "note_on",
                "note": 58,
                "velocity": 93,
                "time": 54
            },
            {
                "type": "note_on",
                "note": 34,
                "velocity": 118,
                "time": 0
            },
            {
                "type": "note_on",
                "note": 46,
                "velocity": 118,
                "time": 0
            },
            {
                "type": "note_on",
                "note": 65,
                "velocity": 103,
                "time": 0
            },
            {
                "type": "note_on",
                "note": 62,
                "velocity": 105,
                "time": 0
            },
            {
                "type": "note_on",
                "note": 65,
                "velocity": 0,
                "time": 24
            },
            {
                "type": "note_on",
                "note": 58,
                "velocity": 0,
                "time": 4
            },
            {
                "type": "note_on",
                "note": 62,
                "velocity": 0,
                "time": 0
            },
            {
                "type": "note_on",
                "note": 46,
                "velocity": 0,
                "time": 4
            },
            {
                "type": "note_on",
                "note": 34,
                "velocity": 0,
                "time": 2
            },
            {
                "type": "note_on",
                "note": 58,
                "velocity": 107,
                "time": 62
            },
            {
                "type": "note_on",
                "note": 46,
                "velocity": 127,
                "time": 0
            },
            {
                "type": "note_on",
                "note": 34,
                "velocity": 124,
                "time": 0
            },
            {
                "type": "note_on",
                "note": 65,
                "velocity": 122,
                "time": 0
            },
            {
                "type": "note_on",
                "note": 58,
                "velocity": 0,
                "time": 42
            },
            {
                "type": "note_on",
                "note": 65,
                "velocity": 0,
                "time": 2
            },
            {
                "type": "note_on",
                "note": 34,
                "velocity": 0,
                "time": 2
            },
            {
                "type": "note_on",
                "note": 46,
                "velocity": 0,
                "time": 2
            },
            {
                "type": "note_on",
                "note": 58,
                "velocity": 89,
                "time": 48
            },
            {
                "type": "note_on",
                "note": 46,
                "velocity": 114,
                "time": 0
            },
            {
                "type": "note_on",
                "note": 67,
                "velocity": 109,
                "time": 0
            },
            {
                "type": "note_on",
                "note": 34,
                "velocity": 106,
                "time": 0
            },
            {
                "type": "note_on",
                "note": 63,
                "velocity": 106,
                "time": 0
            },
            {
                "type": "note_on",
                "note": 58,
                "velocity": 0,
                "time": 24
            },
            {
                "type": "note_on",
                "note": 63,
                "velocity": 0,
                "time": 6
            },
            {
                "type": "note_on",
                "note": 67,
                "velocity": 0,
                "time": 0
            },
            {
                "type": "note_on",
                "note": 34,
                "velocity": 0,
                "time": 14
            },
            {
                "type": "note_on",
                "note": 46,
                "velocity": 0,
                "time": 6
            },
            {
                "type": "note_on",
                "note": 58,
                "velocity": 96,
                "time": 46
            },
            {
                "type": "note_on",
                "note": 34,
                "velocity": 104,
                "time": 0
            },
            {
                "type": "note_on",
                "note": 46,
                "velocity": 109,
                "time": 0
            },
            {
                "type": "note_on",
                "note": 68,
                "velocity": 120,
                "time": 0
            },
            {
                "type": "note_on",
                "note": 65,
                "velocity": 100,
                "time": 0
            },
            {
                "type": "note_on",
                "note": 58,
                "velocity": 0,
                "time": 32
            },
            {
                "type": "note_on",
                "note": 65,
                "velocity": 0,
                "time": 4
            },
            {
                "type": "note_on",
                "note": 68,
                "velocity": 0,
                "time": 4
            },
            {
                "type": "note_on",
                "note": 46,
                "velocity": 0,
                "time": 8
            },
            {
                "type": "note_on",
                "note": 34,
                "velocity": 0,
                "time": 0
            },
            {
                "type": "note_on",
                "note": 46,
                "velocity": 102,
                "time": 48
            },
            {
                "type": "note_on",
                "note": 34,
                "velocity": 98,
                "time": 0
            },
            {
                "type": "note_on",
                "note": 67,
                "velocity": 116,
                "time": 0
            },
            {
                "type": "note_on",
                "note": 58,
                "velocity": 83,
                "time": 0
            },
            {
                "type": "note_on",
                "note": 63,
                "velocity": 104,
                "time": 0
            },
            {
                "type": "note_on",
                "note": 63,
                "velocity": 0,
                "time": 26
            },
            {
                "type": "note_on",
                "note": 58,
                "velocity": 0,
                "time": 2
            },
            {
                "type": "note_on",
                "note": 67,
                "velocity": 0,
                "time": 6
            },
            {
                "type": "note_on",
                "note": 34,
                "velocity": 0,
                "time": 10
            },
            {
                "type": "note_on",
                "note": 46,
                "velocity": 0,
                "time": 0
            },
            {
                "type": "note_on",
                "note": 46,
                "velocity": 120,
                "time": 52
            },
            {
                "type": "note_on",
                "note": 62,
                "velocity": 115,
                "time": 0
            },
            {
                "type": "note_on",
                "note": 58,
                "velocity": 103,
                "time": 0
            },
            {
                "type": "note_on",
                "note": 34,
                "velocity": 116,
                "time": 0
            },
            {
                "type": "note_on",
                "note": 65,
                "velocity": 109,
                "time": 0
            },
            {
                "type": "note_on",
                "note": 58,
                "velocity": 0,
                "time": 38
            },
            {
                "type": "note_on",
                "note": 65,
                "velocity": 0,
                "time": 8
            },
            {
                "type": "note_on",
                "note": 62,
                "velocity": 0,
                "time": 4
            },
            {
                "type": "note_on",
                "note": 46,
                "velocity": 0,
                "time": 6
            },
            {
                "type": "note_on",
                "note": 34,
                "velocity": 0,
                "time": 0
            },
            {
                "type": "note_on",
                "note": 65,
                "velocity": 98,
                "time": 328
            },
            {
                "type": "note_on",
                "note": 34,
                "velocity": 116,
                "time": 0
            },
            {
                "type": "note_on",
                "note": 46,
                "velocity": 114,
                "time": 0
            },
            {
                "type": "note_on",
                "note": 58,
                "velocity": 91,
                "time": 0
            },
            {
                "type": "note_on",
                "note": 62,
                "velocity": 111,
                "time": 0
            },
            {
                "type": "note_on",
                "note": 58,
                "velocity": 0,
                "time": 44
            },
            {
                "type": "note_on",
                "note": 62,
                "velocity": 0,
                "time": 6
            },
            {
                "type": "note_on",
                "note": 65,
                "velocity": 0,
                "time": 4
            },
            {
                "type": "note_on",
                "note": 34,
                "velocity": 0,
                "time": 4
            },
            {
                "type": "note_on",
                "note": 46,
                "velocity": 0,
                "time": 2
            },
            {
                "type": "note_on",
                "note": 67,
                "velocity": 113,
                "time": 36
            },
            {
                "type": "note_on",
                "note": 34,
                "velocity": 106,
                "time": 0
            },
            {
                "type": "note_on",
                "note": 58,
                "velocity": 102,
                "time": 0
            },
            {
                "type": "note_on",
                "note": 63,
                "velocity": 100,
                "time": 0
            },
            {
                "type": "note_on",
                "note": 46,
                "velocity": 100,
                "time": 0
            },
            {
                "type": "note_on",
                "note": 63,
                "velocity": 0,
                "time": 36
            },
            {
                "type": "note_on",
                "note": 58,
                "velocity": 0,
                "time": 0
            },
            {
                "type": "note_on",
                "note": 67,
                "velocity": 0,
                "time": 2
            },
            {
                "type": "note_on",
                "note": 34,
                "velocity": 0,
                "time": 10
            },
            {
                "type": "note_on",
                "note": 46,
                "velocity": 0,
                "time": 4
            },
            {
                "type": "note_on",
                "note": 65,
                "velocity": 93,
                "time": 44
            },
            {
                "type": "note_on",
                "note": 34,
                "velocity": 102,
                "time": 0
            },
            {
                "type": "note_on",
                "note": 58,
                "velocity": 71,
                "time": 0
            },
            {
                "type": "note_on",
                "note": 46,
                "velocity": 98,
                "time": 0
            },
            {
                "type": "note_on",
                "note": 68,
                "velocity": 107,
                "time": 0
            },
            {
                "type": "note_on",
                "note": 58,
                "velocity": 0,
                "time": 22
            },
            {
                "type": "note_on",
                "note": 65,
                "velocity": 0,
                "time": 16
            },
            {
                "type": "note_on",
                "note": 34,
                "velocity": 0,
                "time": 10
            },
            {
                "type": "note_on",
                "note": 46,
                "velocity": 0,
                "time": 0
            },
            {
                "type": "note_on",
                "note": 68,
                "velocity": 0,
                "time": 2
            },
            {
                "type": "note_on",
                "note": 46,
                "velocity": 100,
                "time": 46
            },
            {
                "type": "note_on",
                "note": 34,
                "velocity": 104,
                "time": 0
            },
            {
                "type": "note_on",
                "note": 63,
                "velocity": 98,
                "time": 0
            },
            {
                "type": "note_on",
                "note": 58,
                "velocity": 81,
                "time": 0
            },
            {
                "type": "note_on",
                "note": 67,
                "velocity": 106,
                "time": 0
            },
            {
                "type": "note_on",
                "note": 63,
                "velocity": 0,
                "time": 12
            },
            {
                "type": "note_on",
                "note": 67,
                "velocity": 0,
                "time": 12
            },
            {
                "type": "note_on",
                "note": 58,
                "velocity": 0,
                "time": 2
            },
            {
                "type": "note_on",
                "note": 34,
                "velocity": 0,
                "time": 28
            },
            {
                "type": "note_on",
                "note": 46,
                "velocity": 0,
                "time": 4
            },
            {
                "type": "note_on",
                "note": 58,
                "velocity": 90,
                "time": 38
            },
            {
                "type": "note_on",
                "note": 34,
                "velocity": 116,
                "time": 0
            },
            {
                "type": "note_on",
                "note": 46,
                "velocity": 118,
                "time": 0
            },
            {
                "type": "note_on",
                "note": 65,
                "velocity": 112,
                "time": 0
            },
            {
                "type": "note_on",
                "note": 62,
                "velocity": 102,
                "time": 0
            },
            {
                "type": "note_on",
                "note": 58,
                "velocity": 0,
                "time": 48
            },
            {
                "type": "note_on",
                "note": 65,
                "velocity": 0,
                "time": 4
            },
            {
                "type": "note_on",
                "note": 62,
                "velocity": 0,
                "time": 0
            },
            {
                "type": "note_on",
                "note": 34,
                "velocity": 0,
                "time": 14
            },
            {
                "type": "note_on",
                "note": 46,
                "velocity": 0,
                "time": 6
            },
            {
                "type": "note_on",
                "note": 34,
                "velocity": 100,
                "time": 312
            },
            {
                "type": "note_on",
                "note": 46,
                "velocity": 104,
                "time": 0
            },
            {
                "type": "note_on",
                "note": 65,
                "velocity": 106,
                "time": 0
            },
            {
                "type": "note_on",
                "note": 62,
                "velocity": 105,
                "time": 0
            },
            {
                "type": "note_on",
                "note": 58,
                "velocity": 87,
                "time": 0
            },
            {
                "type": "note_on",
                "note": 58,
                "velocity": 0,
                "time": 36
            },
            {
                "type": "note_on",
                "note": 65,
                "velocity": 0,
                "time": 8
            },
            {
                "type": "note_on",
                "note": 62,
                "velocity": 0,
                "time": 2
            },
            {
                "type": "note_on",
                "note": 34,
                "velocity": 0,
                "time": 4
            },
            {
                "type": "note_on",
                "note": 46,
                "velocity": 0,
                "time": 4
            },
            {
                "type": "note_on",
                "note": 46,
                "velocity": 99,
                "time": 42
            },
            {
                "type": "note_on",
                "note": 63,
                "velocity": 93,
                "time": 0
            },
            {
                "type": "note_on",
                "note": 58,
                "velocity": 92,
                "time": 0
            },
            {
                "type": "note_on",
                "note": 34,
                "velocity": 99,
                "time": 0
            },
            {
                "type": "note_on",
                "note": 67,
                "velocity": 113,
                "time": 0
            },
            {
                "type": "note_on",
                "note": 67,
                "velocity": 0,
                "time": 36
            },
            {
                "type": "note_on",
                "note": 63,
                "velocity": 0,
                "time": 0
            },
            {
                "type": "note_on",
                "note": 58,
                "velocity": 0,
                "time": 2
            },
            {
                "type": "note_on",
                "note": 46,
                "velocity": 0,
                "time": 12
            },
            {
                "type": "note_on",
                "note": 34,
                "velocity": 0,
                "time": 4
            },
            {
                "type": "note_on",
                "note": 68,
                "velocity": 104,
                "time": 42
            },
            {
                "type": "note_on",
                "note": 34,
                "velocity": 103,
                "time": 0
            },
            {
                "type": "note_on",
                "note": 65,
                "velocity": 108,
                "time": 0
            },
            {
                "type": "note_on",
                "note": 46,
                "velocity": 114,
                "time": 0
            },
            {
                "type": "note_on",
                "note": 58,
                "velocity": 83,
                "time": 0
            },
            {
                "type": "note_on",
                "note": 58,
                "velocity": 0,
                "time": 38
            },
            {
                "type": "note_on",
                "note": 68,
                "velocity": 0,
                "time": 0
            },
            {
                "type": "note_on",
                "note": 34,
                "velocity": 0,
                "time": 12
            },
            {
                "type": "note_on",
                "note": 65,
                "velocity": 0,
                "time": 6
            },
            {
                "type": "note_on",
                "note": 46,
                "velocity": 0,
                "time": 0
            },
            {
                "type": "note_on",
                "note": 67,
                "velocity": 113,
                "time": 40
            },
            {
                "type": "note_on",
                "note": 46,
                "velocity": 104,
                "time": 0
            },
            {
                "type": "note_on",
                "note": 58,
                "velocity": 81,
                "time": 0
            },
            {
                "type": "note_on",
                "note": 34,
                "velocity": 104,
                "time": 0
            },
            {
                "type": "note_on",
                "note": 63,
                "velocity": 102,
                "time": 0
            },
            {
                "type": "note_on",
                "note": 63,
                "velocity": 0,
                "time": 34
            },
            {
                "type": "note_on",
                "note": 58,
                "velocity": 0,
                "time": 2
            },
            {
                "type": "note_on",
                "note": 67,
                "velocity": 0,
                "time": 2
            },
            {
                "type": "note_on",
                "note": 34,
                "velocity": 0,
                "time": 14
            },
            {
                "type": "note_on",
                "note": 46,
                "velocity": 0,
                "time": 2
            },
            {
                "type": "note_on",
                "note": 62,
                "velocity": 120,
                "time": 42
            },
            {
                "type": "note_on",
                "note": 34,
                "velocity": 107,
                "time": 0
            },
            {
                "type": "note_on",
                "note": 58,
                "velocity": 109,
                "time": 0
            },
            {
                "type": "note_on",
                "note": 65,
                "velocity": 113,
                "time": 0
            },
            {
                "type": "note_on",
                "note": 46,
                "velocity": 104,
                "time": 0
            },
            {
                "type": "note_on",
                "note": 58,
                "velocity": 0,
                "time": 48
            },
            {
                "type": "note_on",
                "note": 65,
                "velocity": 0,
                "time": 8
            },
            {
                "type": "note_on",
                "note": 62,
                "velocity": 0,
                "time": 2
            },
            {
                "type": "note_on",
                "note": 34,
                "velocity": 0,
                "time": 6
            },
            {
                "type": "note_on",
                "note": 46,
                "velocity": 0,
                "time": 10
            },
            {
                "type": "note_on",
                "note": 47,
                "velocity": 110,
                "time": 1078
            },
            {
                "type": "note_on",
                "note": 35,
                "velocity": 103,
                "time": 0
            },
            {
                "type": "note_on",
                "note": 62,
                "velocity": 110,
                "time": 0
            },
            {
                "type": "note_on",
                "note": 59,
                "velocity": 105,
                "time": 0
            },
            {
                "type": "note_on",
                "note": 66,
                "velocity": 96,
                "time": 0
            },
            {
                "type": "note_on",
                "note": 62,
                "velocity": 0,
                "time": 54
            },
            {
                "type": "note_on",
                "note": 59,
                "velocity": 0,
                "time": 4
            },
            {
                "type": "note_on",
                "note": 66,
                "velocity": 0,
                "time": 10
            },
            {
                "type": "note_on",
                "note": 47,
                "velocity": 0,
                "time": 4
            },
            {
                "type": "note_on",
                "note": 35,
                "velocity": 0,
                "time": 4
            },
            {
                "type": "note_on",
                "note": 64,
                "velocity": 125,
                "time": 116
            },
            {
                "type": "note_on",
                "note": 33,
                "velocity": 100,
                "time": 0
            },
            {
                "type": "note_on",
                "note": 61,
                "velocity": 104,
                "time": 0
            },
            {
                "type": "note_on",
                "note": 69,
                "velocity": 120,
                "time": 0
            },
            {
                "type": "note_on",
                "note": 45,
                "velocity": 113,
                "time": 0
            },
            {
                "type": "note_on",
                "note": 61,
                "velocity": 0,
                "time": 48
            },
            {
                "type": "note_on",
                "note": 69,
                "velocity": 0,
                "time": 4
            },
            {
                "type": "note_on",
                "note": 33,
                "velocity": 0,
                "time": 6
            },
            {
                "type": "note_on",
                "note": 64,
                "velocity": 0,
                "time": 4
            },
            {
                "type": "note_on",
                "note": 45,
                "velocity": 0,
                "time": 2
            },
            {
                "type": "note_on",
                "note": 50,
                "velocity": 115,
                "time": 128
            },
            {
                "type": "note_on",
                "note": 38,
                "velocity": 119,
                "time": 0
            },
            {
                "type": "note_on",
                "note": 66,
                "velocity": 110,
                "time": 0
            },
            {
                "type": "note_on",
                "note": 62,
                "velocity": 113,
                "time": 0
            },
            {
                "type": "note_on",
                "note": 69,
                "velocity": 116,
                "time": 0
            },
            {
                "type": "note_on",
                "note": 62,
                "velocity": 0,
                "time": 44
            },
            {
                "type": "note_on",
                "note": 66,
                "velocity": 0,
                "time": 12
            },
            {
                "type": "note_on",
                "note": 69,
                "velocity": 0,
                "time": 0
            },
            {
                "type": "note_on",
                "note": 38,
                "velocity": 0,
                "time": 10
            },
            {
                "type": "note_on",
                "note": 50,
                "velocity": 0,
                "time": 6
            },
            {
                "type": "note_on",
                "note": 49,
                "velocity": 122,
                "time": 120
            },
            {
                "type": "note_on",
                "note": 71,
                "velocity": 112,
                "time": 0
            },
            {
                "type": "note_on",
                "note": 61,
                "velocity": 92,
                "time": 0
            },
            {
                "type": "note_on",
                "note": 65,
                "velocity": 110,
                "time": 0
            },
            {
                "type": "note_on",
                "note": 68,
                "velocity": 99,
                "time": 0
            },
            {
                "type": "note_on",
                "note": 37,
                "velocity": 118,
                "time": 0
            },
            {
                "type": "note_on",
                "note": 61,
                "velocity": 0,
                "time": 46
            },
            {
                "type": "note_on",
                "note": 65,
                "velocity": 0,
                "time": 2
            },
            {
                "type": "note_on",
                "note": 71,
                "velocity": 0,
                "time": 2
            },
            {
                "type": "note_on",
                "note": 37,
                "velocity": 0,
                "time": 2
            },
            {
                "type": "note_on",
                "note": 68,
                "velocity": 0,
                "time": 2
            },
            {
                "type": "note_on",
                "note": 49,
                "velocity": 0,
                "time": 2
            },
            {
                "type": "note_on",
                "note": 61,
                "velocity": 107,
                "time": 136
            },
            {
                "type": "note_on",
                "note": 42,
                "velocity": 122,
                "time": 0
            },
            {
                "type": "note_on",
                "note": 66,
                "velocity": 116,
                "time": 0
            },
            {
                "type": "note_on",
                "note": 70,
                "velocity": 110,
                "time": 0
            },
            {
                "type": "note_on",
                "note": 54,
                "velocity": 118,
                "time": 0
            },
            {
                "type": "note_on",
                "note": 42,
                "velocity": 0,
                "time": 38
            },
            {
                "type": "note_on",
                "note": 54,
                "velocity": 0,
                "time": 14
            },
            {
                "type": "note_on",
                "note": 66,
                "velocity": 0,
                "time": 4
            },
            {
                "type": "note_on",
                "note": 61,
                "velocity": 0,
                "time": 2
            },
            {
                "type": "note_on",
                "note": 70,
                "velocity": 0,
                "time": 2
            },
            {
                "type": "note_on",
                "note": 62,
                "velocity": 100,
                "time": 132
            },
            {
                "type": "note_on",
                "note": 46,
                "velocity": 106,
                "time": 0
            },
            {
                "type": "note_on",
                "note": 34,
                "velocity": 99,
                "time": 0
            },
            {
                "type": "note_on",
                "note": 70,
                "velocity": 97,
                "time": 0
            },
            {
                "type": "note_on",
                "note": 65,
                "velocity": 108,
                "time": 0
            },
            {
                "type": "note_on",
                "note": 62,
                "velocity": 0,
                "time": 58
            },
            {
                "type": "note_on",
                "note": 65,
                "velocity": 0,
                "time": 2
            },
            {
                "type": "note_on",
                "note": 46,
                "velocity": 0,
                "time": 2
            },
            {
                "type": "note_on",
                "note": 70,
                "velocity": 0,
                "time": 4
            },
            {
                "type": "note_on",
                "note": 34,
                "velocity": 0,
                "time": 8
            },
            {
                "type": "note_on",
                "note": 51,
                "velocity": 118,
                "time": 118
            },
            {
                "type": "note_on",
                "note": 39,
                "velocity": 112,
                "time": 0
            },
            {
                "type": "note_on",
                "note": 67,
                "velocity": 115,
                "time": 0
            },
            {
                "type": "note_on",
                "note": 63,
                "velocity": 100,
                "time": 0
            },
            {
                "type": "note_on",
                "note": 70,
                "velocity": 102,
                "time": 0
            },
            {
                "type": "note_on",
                "note": 63,
                "velocity": 0,
                "time": 62
            },
            {
                "type": "note_on",
                "note": 67,
                "velocity": 0,
                "time": 2
            },
            {
                "type": "note_on",
                "note": 70,
                "velocity": 0,
                "time": 2
            },
            {
                "type": "note_on",
                "note": 51,
                "velocity": 0,
                "time": 8
            },
            {
                "type": "note_on",
                "note": 39,
                "velocity": 0,
                "time": 2
            },
            {
                "type": "note_on",
                "note": 39,
                "velocity": 97,
                "time": 884
            },
            {
                "type": "note_on",
                "note": 51,
                "velocity": 114,
                "time": 0
            },
            {
                "type": "note_on",
                "note": 51,
                "velocity": 0,
                "time": 36
            },
            {
                "type": "note_on",
                "note": 39,
                "velocity": 0,
                "time": 0
            },
            {
                "type": "note_on",
                "note": 39,
                "velocity": 120,
                "time": 60
            },
            {
                "type": "note_on",
                "note": 51,
                "velocity": 122,
                "time": 0
            },
            {
                "type": "note_on",
                "note": 39,
                "velocity": 0,
                "time": 36
            },
            {
                "type": "note_on",
                "note": 51,
                "velocity": 0,
                "time": 6
            },
            {
                "type": "note_on",
                "note": 56,
                "velocity": 124,
                "time": 54
            },
            {
                "type": "note_on",
                "note": 44,
                "velocity": 110,
                "time": 0
            },
            {
                "type": "note_on",
                "note": 44,
                "velocity": 0,
                "time": 62
            },
            {
                "type": "note_on",
                "note": 56,
                "velocity": 0,
                "time": 2
            },
            {
                "type": "note_on",
                "note": 51,
                "velocity": 112,
                "time": 32
            },
            {
                "type": "note_on",
                "note": 39,
                "velocity": 98,
                "time": 0
            },
            {
                "type": "note_on",
                "note": 39,
                "velocity": 0,
                "time": 38
            },
            {
                "type": "note_on",
                "note": 51,
                "velocity": 0,
                "time": 2
            },
            {
                "type": "note_on",
                "note": 50,
                "velocity": 112,
                "time": 56
            },
            {
                "type": "note_on",
                "note": 38,
                "velocity": 99,
                "time": 0
            },
            {
                "type": "note_on",
                "note": 38,
                "velocity": 0,
                "time": 26
            },
            {
                "type": "note_on",
                "note": 50,
                "velocity": 0,
                "time": 16
            },
            {
                "type": "note_on",
                "note": 48,
                "velocity": 105,
                "time": 54
            },
            {
                "type": "note_on",
                "note": 36,
                "velocity": 100,
                "time": 0
            },
            {
                "type": "note_on",
                "note": 36,
                "velocity": 0,
                "time": 30
            },
            {
                "type": "note_on",
                "note": 48,
                "velocity": 0,
                "time": 12
            },
            {
                "type": "note_on",
                "note": 46,
                "velocity": 112,
                "time": 54
            },
            {
                "type": "note_on",
                "note": 34,
                "velocity": 102,
                "time": 0
            },
            {
                "type": "note_on",
                "note": 34,
                "velocity": 0,
                "time": 60
            },
            {
                "type": "note_on",
                "note": 46,
                "velocity": 0,
                "time": 2
            },
            {
                "type": "note_on",
                "note": 51,
                "velocity": 109,
                "time": 322
            },
            {
                "type": "note_on",
                "note": 39,
                "velocity": 106,
                "time": 0
            },
            {
                "type": "note_on",
                "note": 67,
                "velocity": 111,
                "time": 0
            },
            {
                "type": "note_on",
                "note": 58,
                "velocity": 90,
                "time": 0
            },
            {
                "type": "note_on",
                "note": 63,
                "velocity": 99,
                "time": 0
            },
            {
                "type": "note_on",
                "note": 51,
                "velocity": 0,
                "time": 106
            },
            {
                "type": "note_on",
                "note": 39,
                "velocity": 0,
                "time": 4
            },
            {
                "type": "note_on",
                "note": 67,
                "velocity": 0,
                "time": 116
            },
            {
                "type": "note_on",
                "note": 67,
                "velocity": 112,
                "time": 34
            },
            {
                "type": "note_on",
                "note": 63,
                "velocity": 0,
                "time": 22
            },
            {
                "type": "note_on",
                "note": 58,
                "velocity": 0,
                "time": 8
            },
            {
                "type": "note_on",
                "note": 67,
                "velocity": 0,
                "time": 28
            },
            {
                "type": "note_on",
                "note": 60,
                "velocity": 101,
                "time": 14
            },
            {
                "type": "note_on",
                "note": 32,
                "velocity": 102,
                "time": 0
            },
            {
                "type": "note_on",
                "note": 44,
                "velocity": 99,
                "time": 0
            },
            {
                "type": "note_on",
                "note": 68,
                "velocity": 106,
                "time": 0
            },
            {
                "type": "note_on",
                "note": 63,
                "velocity": 104,
                "time": 0
            },
            {
                "type": "note_on",
                "note": 44,
                "velocity": 0,
                "time": 92
            },
            {
                "type": "note_on",
                "note": 32,
                "velocity": 0,
                "time": 0
            },
            {
                "type": "note_on",
                "note": 68,
                "velocity": 0,
                "time": 8
            },
            {
                "type": "note_on",
                "note": 63,
                "velocity": 0,
                "time": 6
            },
            {
                "type": "note_on",
                "note": 60,
                "velocity": 0,
                "time": 8
            },
            {
                "type": "note_on",
                "note": 63,
                "velocity": 110,
                "time": 60
            },
            {
                "type": "note_on",
                "note": 60,
                "velocity": 105,
                "time": 0
            },
            {
                "type": "note_on",
                "note": 68,
                "velocity": 99,
                "time": 0
            },
            {
                "type": "note_on",
                "note": 68,
                "velocity": 0,
                "time": 98
            },
            {
                "type": "note_on",
                "note": 60,
                "velocity": 0,
                "time": 6
            },
            {
                "type": "note_on",
                "note": 63,
                "velocity": 0,
                "time": 8
            },
            {
                "type": "note_on",
                "note": 38,
                "velocity": 110,
                "time": 16
            },
            {
                "type": "note_on",
                "note": 50,
                "velocity": 115,
                "time": 0
            },
            {
                "type": "note_on",
                "note": 62,
                "velocity": 105,
                "time": 0
            },
            {
                "type": "note_on",
                "note": 66,
                "velocity": 109,
                "time": 0
            },
            {
                "type": "note_on",
                "note": 69,
                "velocity": 112,
                "time": 0
            },
            {
                "type": "note_on",
                "note": 50,
                "velocity": 0,
                "time": 106
            },
            {
                "type": "note_on",
                "note": 38,
                "velocity": 0,
                "time": 6
            },
            {
                "type": "note_on",
                "note": 69,
                "velocity": 0,
                "time": 26
            },
            {
                "type": "note_on",
                "note": 66,
                "velocity": 0,
                "time": 2
            },
            {
                "type": "note_on",
                "note": 62,
                "velocity": 0,
                "time": 8
            },
            {
                "type": "note_on",
                "note": 69,
                "velocity": 110,
                "time": 44
            },
            {
                "type": "note_on",
                "note": 62,
                "velocity": 105,
                "time": 0
            },
            {
                "type": "note_on",
                "note": 66,
                "velocity": 96,
                "time": 0
            },
            {
                "type": "note_on",
                "note": 66,
                "velocity": 0,
                "time": 60
            },
            {
                "type": "note_on",
                "note": 62,
                "velocity": 0,
                "time": 0
            },
            {
                "type": "note_on",
                "note": 69,
                "velocity": 0,
                "time": 2
            },
            {
                "type": "note_on",
                "note": 66,
                "velocity": 92,
                "time": 34
            },
            {
                "type": "note_on",
                "note": 62,
                "velocity": 106,
                "time": 0
            },
            {
                "type": "note_on",
                "note": 69,
                "velocity": 106,
                "time": 0
            },
            {
                "type": "note_on",
                "note": 66,
                "velocity": 0,
                "time": 38
            },
            {
                "type": "note_on",
                "note": 69,
                "velocity": 0,
                "time": 2
            },
            {
                "type": "note_on",
                "note": 62,
                "velocity": 0,
                "time": 2
            },
            {
                "type": "note_on",
                "note": 55,
                "velocity": 116,
                "time": 54
            },
            {
                "type": "note_on",
                "note": 43,
                "velocity": 105,
                "time": 0
            },
            {
                "type": "note_on",
                "note": 67,
                "velocity": 106,
                "time": 0
            },
            {
                "type": "note_on",
                "note": 70,
                "velocity": 114,
                "time": 0
            },
            {
                "type": "note_on",
                "note": 62,
                "velocity": 98,
                "time": 0
            },
            {
                "type": "note_on",
                "note": 62,
                "velocity": 0,
                "time": 130
            },
            {
                "type": "note_on",
                "note": 70,
                "velocity": 0,
                "time": 8
            },
            {
                "type": "note_on",
                "note": 67,
                "velocity": 0,
                "time": 4
            },
            {
                "type": "note_on",
                "note": 55,
                "velocity": 0,
                "time": 2
            },
            {
                "type": "note_on",
                "note": 43,
                "velocity": 0,
                "time": 8
            },
            {
                "type": "note_on",
                "note": 70,
                "velocity": 102,
                "time": 40
            },
            {
                "type": "note_on",
                "note": 62,
                "velocity": 105,
                "time": 0
            },
            {
                "type": "note_on",
                "note": 67,
                "velocity": 106,
                "time": 0
            },
            {
                "type": "note_on",
                "note": 62,
                "velocity": 0,
                "time": 106
            },
            {
                "type": "note_on",
                "note": 67,
                "velocity": 0,
                "time": 2
            },
            {
                "type": "note_on",
                "note": 70,
                "velocity": 0,
                "time": 4
            },
            {
                "type": "note_on",
                "note": 62,
                "velocity": 100,
                "time": 80
            },
            {
                "type": "note_on",
                "note": 34,
                "velocity": 106,
                "time": 0
            },
            {
                "type": "note_on",
                "note": 65,
                "velocity": 114,
                "time": 0
            },
            {
                "type": "note_on",
                "note": 46,
                "velocity": 100,
                "time": 0
            },
            {
                "type": "note_on",
                "note": 68,
                "velocity": 109,
                "time": 0
            },
            {
                "type": "note_on",
                "note": 34,
                "velocity": 0,
                "time": 54
            },
            {
                "type": "note_on",
                "note": 46,
                "velocity": 0,
                "time": 2
            },
            {
                "type": "note_on",
                "note": 34,
                "velocity": 86,
                "time": 40
            },
            {
                "type": "note_on",
                "note": 46,
                "velocity": 75,
                "time": 0
            },
            {
                "type": "note_on",
                "note": 34,
                "velocity": 0,
                "time": 26
            },
            {
                "type": "note_on",
                "note": 46,
                "velocity": 0,
                "time": 2
            },
            {
                "type": "note_on",
                "note": 46,
                "velocity": 114,
                "time": 68
            },
            {
                "type": "note_on",
                "note": 34,
                "velocity": 100,
                "time": 0
            },
            {
                "type": "note_on",
                "note": 46,
                "velocity": 0,
                "time": 22
            },
            {
                "type": "note_on",
                "note": 34,
                "velocity": 0,
                "time": 4
            },
            {
                "type": "note_on",
                "note": 46,
                "velocity": 107,
                "time": 70
            },
            {
                "type": "note_on",
                "note": 34,
                "velocity": 110,
                "time": 0
            },
            {
                "type": "note_on",
                "note": 46,
                "velocity": 0,
                "time": 20
            },
            {
                "type": "note_on",
                "note": 34,
                "velocity": 0,
                "time": 4
            },
            {
                "type": "note_on",
                "note": 46,
                "velocity": 112,
                "time": 72
            },
            {
                "type": "note_on",
                "note": 34,
                "velocity": 114,
                "time": 0
            },
            {
                "type": "note_on",
                "note": 46,
                "velocity": 0,
                "time": 20
            },
            {
                "type": "note_on",
                "note": 34,
                "velocity": 0,
                "time": 4
            },
            {
                "type": "note_on",
                "note": 46,
                "velocity": 92,
                "time": 72
            },
            {
                "type": "note_on",
                "note": 34,
                "velocity": 103,
                "time": 0
            },
            {
                "type": "note_on",
                "note": 46,
                "velocity": 0,
                "time": 12
            },
            {
                "type": "note_on",
                "note": 34,
                "velocity": 0,
                "time": 4
            },
            {
                "type": "note_on",
                "note": 46,
                "velocity": 114,
                "time": 80
            },
            {
                "type": "note_on",
                "note": 34,
                "velocity": 110,
                "time": 0
            },
            {
                "type": "note_on",
                "note": 46,
                "velocity": 0,
                "time": 16
            },
            {
                "type": "note_on",
                "note": 34,
                "velocity": 0,
                "time": 4
            },
            {
                "type": "note_on",
                "note": 46,
                "velocity": 92,
                "time": 76
            },
            {
                "type": "note_on",
                "note": 34,
                "velocity": 100,
                "time": 0
            },
            {
                "type": "note_on",
                "note": 46,
                "velocity": 0,
                "time": 14
            },
            {
                "type": "note_on",
                "note": 34,
                "velocity": 0,
                "time": 4
            },
            {
                "type": "note_on",
                "note": 46,
                "velocity": 118,
                "time": 78
            },
            {
                "type": "note_on",
                "note": 34,
                "velocity": 124,
                "time": 0
            },
            {
                "type": "note_on",
                "note": 62,
                "velocity": 0,
                "time": 8
            },
            {
                "type": "note_on",
                "note": 65,
                "velocity": 0,
                "time": 2
            },
            {
                "type": "note_on",
                "note": 68,
                "velocity": 0,
                "time": 4
            },
            {
                "type": "note_on",
                "note": 34,
                "velocity": 0,
                "time": 20
            },
            {
                "type": "note_on",
                "note": 46,
                "velocity": 0,
                "time": 2
            },
            {
                "type": "note_on",
                "note": 46,
                "velocity": 86,
                "time": 60
            },
            {
                "type": "note_on",
                "note": 34,
                "velocity": 80,
                "time": 0
            },
            {
                "type": "note_on",
                "note": 34,
                "velocity": 0,
                "time": 18
            },
            {
                "type": "note_on",
                "note": 46,
                "velocity": 0,
                "time": 2
            },
            {
                "type": "note_on",
                "note": 46,
                "velocity": 116,
                "time": 76
            },
            {
                "type": "note_on",
                "note": 34,
                "velocity": 110,
                "time": 0
            },
            {
                "type": "note_on",
                "note": 46,
                "velocity": 0,
                "time": 20
            },
            {
                "type": "note_on",
                "note": 34,
                "velocity": 0,
                "time": 2
            },
            {
                "type": "note_on",
                "note": 34,
                "velocity": 103,
                "time": 74
            },
            {
                "type": "note_on",
                "note": 46,
                "velocity": 104,
                "time": 0
            },
            {
                "type": "note_on",
                "note": 46,
                "velocity": 0,
                "time": 16
            },
            {
                "type": "note_on",
                "note": 34,
                "velocity": 0,
                "time": 0
            },
            {
                "type": "note_on",
                "note": 46,
                "velocity": 120,
                "time": 80
            },
            {
                "type": "note_on",
                "note": 34,
                "velocity": 109,
                "time": 0
            },
            {
                "type": "note_on",
                "note": 46,
                "velocity": 0,
                "time": 20
            },
            {
                "type": "note_on",
                "note": 34,
                "velocity": 0,
                "time": 2
            },
            {
                "type": "note_on",
                "note": 46,
                "velocity": 90,
                "time": 74
            },
            {
                "type": "note_on",
                "note": 34,
                "velocity": 102,
                "time": 0
            },
            {
                "type": "note_on",
                "note": 46,
                "velocity": 0,
                "time": 14
            },
            {
                "type": "note_on",
                "note": 34,
                "velocity": 0,
                "time": 6
            },
            {
                "type": "note_on",
                "note": 46,
                "velocity": 114,
                "time": 76
            },
            {
                "type": "note_on",
                "note": 34,
                "velocity": 106,
                "time": 0
            },
            {
                "type": "note_on",
                "note": 46,
                "velocity": 0,
                "time": 14
            },
            {
                "type": "note_on",
                "note": 34,
                "velocity": 0,
                "time": 2
            },
            {
                "type": "note_on",
                "note": 34,
                "velocity": 99,
                "time": 80
            },
            {
                "type": "note_on",
                "note": 46,
                "velocity": 106,
                "time": 0
            },
            {
                "type": "note_on",
                "note": 46,
                "velocity": 0,
                "time": 16
            },
            {
                "type": "note_on",
                "note": 34,
                "velocity": 0,
                "time": 2
            },
            {
                "type": "note_on",
                "note": 46,
                "velocity": 118,
                "time": 78
            },
            {
                "type": "note_on",
                "note": 34,
                "velocity": 114,
                "time": 0
            },
            {
                "type": "note_on",
                "note": 34,
                "velocity": 0,
                "time": 34
            },
            {
                "type": "note_on",
                "note": 46,
                "velocity": 0,
                "time": 0
            },
            {
                "type": "note_on",
                "note": 34,
                "velocity": 98,
                "time": 62
            },
            {
                "type": "note_on",
                "note": 46,
                "velocity": 107,
                "time": 0
            },
            {
                "type": "note_on",
                "note": 46,
                "velocity": 0,
                "time": 20
            },
            {
                "type": "note_on",
                "note": 34,
                "velocity": 0,
                "time": 0
            },
            {
                "type": "note_on",
                "note": 34,
                "velocity": 107,
                "time": 76
            },
            {
                "type": "note_on",
                "note": 46,
                "velocity": 112,
                "time": 0
            },
            {
                "type": "note_on",
                "note": 46,
                "velocity": 0,
                "time": 18
            },
            {
                "type": "note_on",
                "note": 34,
                "velocity": 0,
                "time": 2
            },
            {
                "type": "note_on",
                "note": 46,
                "velocity": 92,
                "time": 76
            },
            {
                "type": "note_on",
                "note": 34,
                "velocity": 112,
                "time": 0
            },
            {
                "type": "note_on",
                "note": 46,
                "velocity": 0,
                "time": 12
            },
            {
                "type": "note_on",
                "note": 34,
                "velocity": 0,
                "time": 6
            },
            {
                "type": "note_on",
                "note": 34,
                "velocity": 114,
                "time": 78
            },
            {
                "type": "note_on",
                "note": 46,
                "velocity": 103,
                "time": 0
            },
            {
                "type": "note_on",
                "note": 46,
                "velocity": 0,
                "time": 16
            },
            {
                "type": "note_on",
                "note": 34,
                "velocity": 0,
                "time": 6
            },
            {
                "type": "note_on",
                "note": 46,
                "velocity": 106,
                "time": 74
            },
            {
                "type": "note_on",
                "note": 34,
                "velocity": 106,
                "time": 0
            },
            {
                "type": "note_on",
                "note": 46,
                "velocity": 0,
                "time": 14
            },
            {
                "type": "note_on",
                "note": 34,
                "velocity": 0,
                "time": 4
            },
            {
                "type": "note_on",
                "note": 34,
                "velocity": 112,
                "time": 78
            },
            {
                "type": "note_on",
                "note": 46,
                "velocity": 112,
                "time": 0
            },
            {
                "type": "note_on",
                "note": 46,
                "velocity": 0,
                "time": 16
            },
            {
                "type": "note_on",
                "note": 34,
                "velocity": 0,
                "time": 4
            },
            {
                "type": "note_on",
                "note": 46,
                "velocity": 102,
                "time": 76
            },
            {
                "type": "note_on",
                "note": 34,
                "velocity": 112,
                "time": 0
            },
            {
                "type": "note_on",
                "note": 46,
                "velocity": 0,
                "time": 18
            },
            {
                "type": "note_on",
                "note": 34,
                "velocity": 0,
                "time": 2
            },
            {
                "type": "note_on",
                "note": 46,
                "velocity": 116,
                "time": 4
            },
            {
                "type": "note_on",
                "note": 34,
                "velocity": 116,
                "time": 0
            },
            {
                "type": "note_on",
                "note": 46,
                "velocity": 0,
                "time": 30
            },
            {
                "type": "note_on",
                "note": 34,
                "velocity": 0,
                "time": 4
            },
            {
                "type": "note_on",
                "note": 34,
                "velocity": 104,
                "time": 62
            },
            {
                "type": "note_on",
                "note": 46,
                "velocity": 107,
                "time": 0
            },
            {
                "type": "note_on",
                "note": 46,
                "velocity": 0,
                "time": 18
            },
            {
                "type": "note_on",
                "note": 34,
                "velocity": 0,
                "time": 2
            },
            {
                "type": "note_on",
                "note": 46,
                "velocity": 107,
                "time": 76
            },
            {
                "type": "note_on",
                "note": 34,
                "velocity": 102,
                "time": 0
            },
            {
                "type": "note_on",
                "note": 34,
                "velocity": 0,
                "time": 20
            },
            {
                "type": "note_on",
                "note": 46,
                "velocity": 0,
                "time": 0
            },
            {
                "type": "note_on",
                "note": 34,
                "velocity": 103,
                "time": 76
            },
            {
                "type": "note_on",
                "note": 46,
                "velocity": 109,
                "time": 0
            },
            {
                "type": "note_on",
                "note": 46,
                "velocity": 0,
                "time": 18
            },
            {
                "type": "note_on",
                "note": 34,
                "velocity": 0,
                "time": 2
            },
            {
                "type": "note_on",
                "note": 34,
                "velocity": 104,
                "time": 76
            },
            {
                "type": "note_on",
                "note": 46,
                "velocity": 107,
                "time": 0
            },
            {
                "type": "note_on",
                "note": 46,
                "velocity": 0,
                "time": 20
            },
            {
                "type": "note_on",
                "note": 34,
                "velocity": 0,
                "time": 4
            },
            {
                "type": "note_on",
                "note": 34,
                "velocity": 112,
                "time": 72
            },
            {
                "type": "note_on",
                "note": 46,
                "velocity": 110,
                "time": 0
            },
            {
                "type": "note_on",
                "note": 46,
                "velocity": 0,
                "time": 24
            },
            {
                "type": "note_on",
                "note": 34,
                "velocity": 0,
                "time": 0
            },
            {
                "type": "note_on",
                "note": 46,
                "velocity": 122,
                "time": 72
            },
            {
                "type": "note_on",
                "note": 34,
                "velocity": 120,
                "time": 0
            },
            {
                "type": "note_on",
                "note": 34,
                "velocity": 0,
                "time": 118
            },
            {
                "type": "note_on",
                "note": 46,
                "velocity": 0,
                "time": 0
            },
            {
                "type": "note_on",
                "note": 67,
                "velocity": 100,
                "time": 70
            },
            {
                "type": "note_on",
                "note": 58,
                "velocity": 100,
                "time": 0
            },
            {
                "type": "note_on",
                "note": 63,
                "velocity": 100,
                "time": 0
            },
            {
                "type": "note_on",
                "note": 67,
                "velocity": 100,
                "time": 281
            },
            {
                "type": "note_on",
                "note": 63,
                "velocity": 0,
                "time": 7
            },
            {
                "type": "note_on",
                "note": 67,
                "velocity": 0,
                "time": 0
            },
            {
                "type": "note_on",
                "note": 58,
                "velocity": 0,
                "time": 0
            },
            {
                "type": "note_on",
                "note": 58,
                "velocity": 100,
                "time": 0
            },
            {
                "type": "note_on",
                "note": 63,
                "velocity": 100,
                "time": 0
            },
            {
                "type": "note_on",
                "note": 67,
                "velocity": 0,
                "time": 281
            },
            {
                "type": "note_on",
                "note": 63,
                "velocity": 0,
                "time": 7
            },
            {
                "type": "note_on",
                "note": 58,
                "velocity": 0,
                "time": 0
            },
            {
                "type": "note_on",
                "note": 58,
                "velocity": 100,
                "time": 0
            },
            {
                "type": "note_on",
                "note": 67,
                "velocity": 100,
                "time": 0
            },
            {
                "type": "note_on",
                "note": 63,
                "velocity": 100,
                "time": 0
            },
            {
                "type": "note_on",
                "note": 63,
                "velocity": 0,
                "time": 288
            },
            {
                "type": "note_on",
                "note": 67,
                "velocity": 0,
                "time": 0
            },
            {
                "type": "note_on",
                "note": 58,
                "velocity": 0,
                "time": 0
            },
            {
                "type": "note_on",
                "note": 67,
                "velocity": 100,
                "time": 0
            },
            {
                "type": "note_on",
                "note": 58,
                "velocity": 100,
                "time": 0
            },
            {
                "type": "note_on",
                "note": 63,
                "velocity": 100,
                "time": 0
            },
            {
                "type": "note_on",
                "note": 63,
                "velocity": 0,
                "time": 288
            },
            {
                "type": "note_on",
                "note": 58,
                "velocity": 0,
                "time": 0
            },
            {
                "type": "note_on",
                "note": 67,
                "velocity": 0,
                "time": 0
            },
            {
                "type": "note_on",
                "note": 67,
                "velocity": 100,
                "time": 0
            },
            {
                "type": "note_on",
                "note": 63,
                "velocity": 100,
                "time": 0
            },
            {
                "type": "note_on",
                "note": 58,
                "velocity": 100,
                "time": 0
            },
            {
                "type": "note_on",
                "note": 67,
                "velocity": 100,
                "time": 281
            },
            {
                "type": "note_on",
                "note": 58,
                "velocity": 0,
                "time": 7
            },
            {
                "type": "note_on",
                "note": 67,
                "velocity": 0,
                "time": 0
            },
            {
                "type": "note_on",
                "note": 63,
                "velocity": 0,
                "time": 0
            },
            {
                "type": "note_on",
                "note": 63,
                "velocity": 100,
                "time": 0
            },
            {
                "type": "note_on",
                "note": 58,
                "velocity": 100,
                "time": 0
            },
            {
                "type": "note_on",
                "note": 67,
                "velocity": 0,
                "time": 281
            },
            {
                "type": "note_on",
                "note": 58,
                "velocity": 0,
                "time": 7
            },
            {
                "type": "note_on",
                "note": 63,
                "velocity": 0,
                "time": 0
            },
            {
                "type": "note_on",
                "note": 63,
                "velocity": 100,
                "time": 0
            },
            {
                "type": "note_on",
                "note": 58,
                "velocity": 100,
                "time": 0
            },
            {
                "type": "note_on",
                "note": 67,
                "velocity": 100,
                "time": 0
            },
            {
                "type": "note_on",
                "note": 67,
                "velocity": 0,
                "time": 288
            },
            {
                "type": "note_on",
                "note": 58,
                "velocity": 0,
                "time": 0
            },
            {
                "type": "note_on",
                "note": 63,
                "velocity": 0,
                "time": 0
            },
            {
                "type": "note_on",
                "note": 58,
                "velocity": 100,
                "time": 0
            },
            {
                "type": "note_on",
                "note": 63,
                "velocity": 100,
                "time": 0
            },
            {
                "type": "note_on",
                "note": 67,
                "velocity": 100,
                "time": 0
            },
            {
                "type": "note_on",
                "note": 67,
                "velocity": 0,
                "time": 288
            },
            {
                "type": "note_on",
                "note": 63,
                "velocity": 0,
                "time": 0
            },
            {
                "type": "note_on",
                "note": 58,
                "velocity": 0,
                "time": 0
            },
            {
                "type": "note_on",
                "note": 63,
                "velocity": 100,
                "time": 0
            },
            {
                "type": "note_on",
                "note": 67,
                "velocity": 100,
                "time": 0
            },
            {
                "type": "note_on",
                "note": 58,
                "velocity": 100,
                "time": 0
            },
            {
                "type": "note_on",
                "note": 67,
                "velocity": 100,
                "time": 281
            },
            {
                "type": "note_on",
                "note": 58,
                "velocity": 0,
                "time": 7
            },
            {
                "type": "note_on",
                "note": 63,
                "velocity": 0,
                "time": 0
            },
            {
                "type": "note_on",
                "note": 67,
                "velocity": 0,
                "time": 0
            },
            {
                "type": "note_on",
                "note": 63,
                "velocity": 100,
                "time": 0
            },
            {
                "type": "note_on",
                "note": 58,
                "velocity": 100,
                "time": 0
            },
            {
                "type": "note_on",
                "note": 67,
                "velocity": 0,
                "time": 281
            },
            {
                "type": "note_on",
                "note": 58,
                "velocity": 0,
                "time": 7
            },
            {
                "type": "note_on",
                "note": 63,
                "velocity": 0,
                "time": 0
            },
            {
                "type": "note_on",
                "note": 63,
                "velocity": 100,
                "time": 0
            },
            {
                "type": "note_on",
                "note": 67,
                "velocity": 100,
                "time": 0
            },
            {
                "type": "note_on",
                "note": 58,
                "velocity": 100,
                "time": 0
            },
            {
                "type": "note_on",
                "note": 58,
                "velocity": 0,
                "time": 288
            },
            {
                "type": "note_on",
                "note": 67,
                "velocity": 0,
                "time": 0
            },
            {
                "type": "note_on",
                "note": 63,
                "velocity": 0,
                "time": 0
            },
            {
                "type": "note_on",
                "note": 67,
                "velocity": 100,
                "time": 0
            },
            {
                "type": "note_on",
                "note": 63,
                "velocity": 100,
                "time": 0
            },
            {
                "type": "note_on",
                "note": 58,
                "velocity": 100,
                "time": 0
            },
            {
                "type": "note_on",
                "note": 58,
                "velocity": 0,
                "time": 288
            },
            {
                "type": "note_on",
                "note": 63,
                "velocity": 0,
                "time": 0
            },
            {
                "type": "note_on",
                "note": 67,
                "velocity": 0,
                "time": 0
            },
            {
                "type": "note_on",
                "note": 69,
                "velocity": 100,
                "time": 0
            },
            {
                "type": "note_on",
                "note": 60,
                "velocity": 100,
                "time": 0
            },
            {
                "type": "note_on",
                "note": 65,
                "velocity": 100,
                "time": 0
            },
            {
                "type": "note_on",
                "note": 65,
                "velocity": 0,
                "time": 288
            },
            {
                "type": "note_on",
                "note": 60,
                "velocity": 0,
                "time": 0
            },
            {
                "type": "note_on",
                "note": 69,
                "velocity": 0,
                "time": 0
            },
            {
                "type": "note_on",
                "note": 65,
                "velocity": 100,
                "time": 0
            },
            {
                "type": "note_on",
                "note": 60,
                "velocity": 100,
                "time": 0
            },
            {
                "type": "note_on",
                "note": 69,
                "velocity": 100,
                "time": 0
            },
            {
                "type": "note_on",
                "note": 69,
                "velocity": 0,
                "time": 288
            },
            {
                "type": "note_on",
                "note": 60,
                "velocity": 0,
                "time": 0
            },
            {
                "type": "note_on",
                "note": 65,
                "velocity": 0,
                "time": 0
            },
            {
                "type": "note_on",
                "note": 60,
                "velocity": 100,
                "time": 0
            },
            {
                "type": "note_on",
                "note": 69,
                "velocity": 100,
                "time": 0
            },
            {
                "type": "note_on",
                "note": 65,
                "velocity": 100,
                "time": 0
            },
            {
                "type": "note_on",
                "note": 65,
                "velocity": 0,
                "time": 288
            },
            {
                "type": "note_on",
                "note": 69,
                "velocity": 0,
                "time": 0
            },
            {
                "type": "note_on",
                "note": 60,
                "velocity": 0,
                "time": 0
            },
            {
                "type": "note_on",
                "note": 69,
                "velocity": 100,
                "time": 0
            },
            {
                "type": "note_on",
                "note": 60,
                "velocity": 100,
                "time": 0
            },
            {
                "type": "note_on",
                "note": 65,
                "velocity": 100,
                "time": 0
            },
            {
                "type": "note_on",
                "note": 65,
                "velocity": 0,
                "time": 288
            },
            {
                "type": "note_on",
                "note": 60,
                "velocity": 0,
                "time": 0
            },
            {
                "type": "note_on",
                "note": 69,
                "velocity": 0,
                "time": 0
            },
            {
                "type": "note_on",
                "note": 70,
                "velocity": 100,
                "time": 0
            },
            {
                "type": "note_on",
                "note": 62,
                "velocity": 100,
                "time": 0
            },
            {
                "type": "note_on",
                "note": 65,
                "velocity": 100,
                "time": 0
            },
            {
                "type": "note_on",
                "note": 65,
                "velocity": 0,
                "time": 288
            },
            {
                "type": "note_on",
                "note": 62,
                "velocity": 0,
                "time": 0
            },
            {
                "type": "note_on",
                "note": 70,
                "velocity": 0,
                "time": 0
            },
            {
                "type": "note_on",
                "note": 62,
                "velocity": 100,
                "time": 0
            },
            {
                "type": "note_on",
                "note": 70,
                "velocity": 100,
                "time": 0
            },
            {
                "type": "note_on",
                "note": 65,
                "velocity": 100,
                "time": 0
            },
            {
                "type": "note_on",
                "note": 65,
                "velocity": 0,
                "time": 288
            },
            {
                "type": "note_on",
                "note": 70,
                "velocity": 0,
                "time": 0
            },
            {
                "type": "note_on",
                "note": 62,
                "velocity": 0,
                "time": 0
            },
            {
                "type": "note_on",
                "note": 65,
                "velocity": 100,
                "time": 0
            },
            {
                "type": "note_on",
                "note": 62,
                "velocity": 100,
                "time": 0
            },
            {
                "type": "note_on",
                "note": 70,
                "velocity": 100,
                "time": 0
            },
            {
                "type": "note_on",
                "note": 70,
                "velocity": 0,
                "time": 288
            },
            {
                "type": "note_on",
                "note": 62,
                "velocity": 0,
                "time": 0
            },
            {
                "type": "note_on",
                "note": 65,
                "velocity": 0,
                "time": 0
            },
            {
                "type": "note_on",
                "note": 70,
                "velocity": 100,
                "time": 0
            },
            {
                "type": "note_on",
                "note": 62,
                "velocity": 100,
                "time": 0
            },
            {
                "type": "note_on",
                "note": 65,
                "velocity": 100,
                "time": 0
            },
            {
                "type": "note_on",
                "note": 65,
                "velocity": 0,
                "time": 288
            },
            {
                "type": "note_on",
                "note": 62,
                "velocity": 0,
                "time": 0
            },
            {
                "type": "note_on",
                "note": 70,
                "velocity": 0,
                "time": 0
            },
            {
                "type": "note_on",
                "note": 65,
                "velocity": 100,
                "time": 0
            },
            {
                "type": "note_on",
                "note": 62,
                "velocity": 100,
                "time": 0
            },
            {
                "type": "note_on",
                "note": 70,
                "velocity": 100,
                "time": 0
            },
            {
                "type": "note_on",
                "note": 70,
                "velocity": 0,
                "time": 288
            },
            {
                "type": "note_on",
                "note": 62,
                "velocity": 0,
                "time": 0
            },
            {
                "type": "note_on",
                "note": 65,
                "velocity": 0,
                "time": 0
            },
            {
                "type": "note_on",
                "note": 70,
                "velocity": 100,
                "time": 0
            },
            {
                "type": "note_on",
                "note": 62,
                "velocity": 100,
                "time": 0
            },
            {
                "type": "note_on",
                "note": 65,
                "velocity": 100,
                "time": 0
            },
            {
                "type": "note_on",
                "note": 65,
                "velocity": 0,
                "time": 288
            },
            {
                "type": "note_on",
                "note": 62,
                "velocity": 0,
                "time": 0
            },
            {
                "type": "note_on",
                "note": 70,
                "velocity": 0,
                "time": 0
            },
            {
                "type": "note_on",
                "note": 67,
                "velocity": 100,
                "time": 0
            },
            {
                "type": "note_on",
                "note": 63,
                "velocity": 100,
                "time": 0
            },
            {
                "type": "note_on",
                "note": 70,
                "velocity": 100,
                "time": 0
            },
            {
                "type": "note_on",
                "note": 70,
                "velocity": 0,
                "time": 288
            },
            {
                "type": "note_on",
                "note": 63,
                "velocity": 0,
                "time": 0
            },
            {
                "type": "note_on",
                "note": 67,
                "velocity": 0,
                "time": 0
            },
            {
                "type": "note_on",
                "note": 63,
                "velocity": 100,
                "time": 0
            },
            {
                "type": "note_on",
                "note": 70,
                "velocity": 100,
                "time": 0
            },
            {
                "type": "note_on",
                "note": 67,
                "velocity": 100,
                "time": 0
            },
            {
                "type": "note_on",
                "note": 67,
                "velocity": 0,
                "time": 288
            },
            {
                "type": "note_on",
                "note": 70,
                "velocity": 0,
                "time": 0
            },
            {
                "type": "note_on",
                "note": 63,
                "velocity": 0,
                "time": 0
            },
            {
                "type": "note_on",
                "note": 65,
                "velocity": 100,
                "time": 0
            },
            {
                "type": "note_on",
                "note": 62,
                "velocity": 100,
                "time": 0
            },
            {
                "type": "note_on",
                "note": 70,
                "velocity": 100,
                "time": 0
            },
            {
                "type": "note_on",
                "note": 70,
                "velocity": 0,
                "time": 288
            },
            {
                "type": "note_on",
                "note": 62,
                "velocity": 0,
                "time": 0
            },
            {
                "type": "note_on",
                "note": 65,
                "velocity": 0,
                "time": 0
            },
            {
                "type": "note_on",
                "note": 70,
                "velocity": 100,
                "time": 0
            },
            {
                "type": "note_on",
                "note": 62,
                "velocity": 100,
                "time": 0
            },
            {
                "type": "note_on",
                "note": 65,
                "velocity": 100,
                "time": 0
            },
            {
                "type": "note_on",
                "note": 65,
                "velocity": 0,
                "time": 288
            },
            {
                "type": "note_on",
                "note": 62,
                "velocity": 0,
                "time": 0
            },
            {
                "type": "note_on",
                "note": 70,
                "velocity": 0,
                "time": 0
            },
            {
                "type": "note_on",
                "note": 65,
                "velocity": 100,
                "time": 0
            },
            {
                "type": "note_on",
                "note": 62,
                "velocity": 100,
                "time": 0
            },
            {
                "type": "note_on",
                "note": 70,
                "velocity": 100,
                "time": 0
            },
            {
                "type": "note_on",
                "note": 70,
                "velocity": 0,
                "time": 288
            },
            {
                "type": "note_on",
                "note": 62,
                "velocity": 0,
                "time": 0
            },
            {
                "type": "note_on",
                "note": 65,
                "velocity": 0,
                "time": 0
            },
            {
                "type": "note_on",
                "note": 65,
                "velocity": 100,
                "time": 0
            },
            {
                "type": "note_on",
                "note": 62,
                "velocity": 100,
                "time": 0
            },
            {
                "type": "note_on",
                "note": 70,
                "velocity": 100,
                "time": 0
            },
            {
                "type": "note_on",
                "note": 70,
                "velocity": 0,
                "time": 288
            },
            {
                "type": "note_on",
                "note": 62,
                "velocity": 0,
                "time": 0
            },
            {
                "type": "note_on",
                "note": 65,
                "velocity": 0,
                "time": 0
            },
            {
                "type": "note_on",
                "note": 68,
                "velocity": 100,
                "time": 0
            },
            {
                "type": "note_on",
                "note": 61,
                "velocity": 100,
                "time": 0
            },
            {
                "type": "note_on",
                "note": 65,
                "velocity": 100,
                "time": 0
            },
            {
                "type": "note_on",
                "note": 65,
                "velocity": 0,
                "time": 192
            },
            {
                "type": "note_on",
                "note": 61,
                "velocity": 0,
                "time": 0
            },
            {
                "type": "note_on",
                "note": 68,
                "velocity": 0,
                "time": 0
            },
            {
                "type": "note_on",
                "note": 65,
                "velocity": 100,
                "time": 0
            },
            {
                "type": "note_on",
                "note": 61,
                "velocity": 100,
                "time": 0
            },
            {
                "type": "note_on",
                "note": 68,
                "velocity": 100,
                "time": 0
            },
            {
                "type": "note_on",
                "note": 68,
                "velocity": 0,
                "time": 192
            },
            {
                "type": "note_on",
                "note": 61,
                "velocity": 0,
                "time": 0
            },
            {
                "type": "note_on",
                "note": 65,
                "velocity": 0,
                "time": 0
            },
            {
                "type": "note_on",
                "note": 70,
                "velocity": 100,
                "time": 192
            },
            {
                "type": "note_on",
                "note": 65,
                "velocity": 100,
                "time": 0
            },
            {
                "type": "note_on",
                "note": 62,
                "velocity": 100,
                "time": 0
            },
            {
                "type": "note_on",
                "note": 62,
                "velocity": 0,
                "time": 288
            },
            {
                "type": "note_on",
                "note": 65,
                "velocity": 0,
                "time": 0
            },
            {
                "type": "note_on",
                "note": 70,
                "velocity": 0,
                "time": 0
            },
            {
                "type": "note_on",
                "note": 70,
                "velocity": 100,
                "time": 0
            },
            {
                "type": "note_on",
                "note": 62,
                "velocity": 100,
                "time": 0
            },
            {
                "type": "note_on",
                "note": 65,
                "velocity": 100,
                "time": 0
            },
            {
                "type": "note_on",
                "note": 65,
                "velocity": 0,
                "time": 288
            },
            {
                "type": "note_on",
                "note": 62,
                "velocity": 0,
                "time": 0
            },
            {
                "type": "note_on",
                "note": 70,
                "velocity": 0,
                "time": 0
            },
            {
                "type": "note_on",
                "note": 70,
                "velocity": 100,
                "time": 0
            },
            {
                "type": "note_on",
                "note": 65,
                "velocity": 100,
                "time": 0
            },
            {
                "type": "note_on",
                "note": 62,
                "velocity": 100,
                "time": 0
            },
            {
                "type": "note_on",
                "note": 62,
                "velocity": 0,
                "time": 288
            },
            {
                "type": "note_on",
                "note": 65,
                "velocity": 0,
                "time": 0
            },
            {
                "type": "note_on",
                "note": 70,
                "velocity": 0,
                "time": 0
            },
            {
                "type": "note_on",
                "note": 62,
                "velocity": 100,
                "time": 0
            },
            {
                "type": "note_on",
                "note": 70,
                "velocity": 100,
                "time": 0
            },
            {
                "type": "note_on",
                "note": 65,
                "velocity": 100,
                "time": 0
            },
            {
                "type": "note_on",
                "note": 65,
                "velocity": 0,
                "time": 288
            },
            {
                "type": "note_on",
                "note": 70,
                "velocity": 0,
                "time": 0
            },
            {
                "type": "note_on",
                "note": 62,
                "velocity": 0,
                "time": 0
            },
            {
                "type": "note_on",
                "note": 70,
                "velocity": 100,
                "time": 0
            },
            {
                "type": "note_on",
                "note": 65,
                "velocity": 100,
                "time": 0
            },
            {
                "type": "note_on",
                "note": 62,
                "velocity": 100,
                "time": 0
            },
            {
                "type": "note_on",
                "note": 62,
                "velocity": 0,
                "time": 288
            },
            {
                "type": "note_on",
                "note": 65,
                "velocity": 0,
                "time": 0
            },
            {
                "type": "note_on",
                "note": 70,
                "velocity": 0,
                "time": 0
            },
            {
                "type": "note_on",
                "note": 70,
                "velocity": 100,
                "time": 0
            },
            {
                "type": "note_on",
                "note": 62,
                "velocity": 100,
                "time": 0
            },
            {
                "type": "note_on",
                "note": 65,
                "velocity": 100,
                "time": 0
            },
            {
                "type": "note_on",
                "note": 65,
                "velocity": 0,
                "time": 288
            },
            {
                "type": "note_on",
                "note": 62,
                "velocity": 0,
                "time": 0
            },
            {
                "type": "note_on",
                "note": 70,
                "velocity": 0,
                "time": 0
            },
            {
                "type": "note_on",
                "note": 67,
                "velocity": 100,
                "time": 0
            },
            {
                "type": "note_on",
                "note": 70,
                "velocity": 100,
                "time": 0
            },
            {
                "type": "note_on",
                "note": 63,
                "velocity": 100,
                "time": 0
            },
            {
                "type": "note_on",
                "note": 63,
                "velocity": 0,
                "time": 288
            },
            {
                "type": "note_on",
                "note": 70,
                "velocity": 0,
                "time": 0
            },
            {
                "type": "note_on",
                "note": 67,
                "velocity": 0,
                "time": 0
            },
            {
                "type": "note_on",
                "note": 63,
                "velocity": 100,
                "time": 0
            },
            {
                "type": "note_on",
                "note": 70,
                "velocity": 100,
                "time": 0
            },
            {
                "type": "note_on",
                "note": 67,
                "velocity": 100,
                "time": 0
            },
            {
                "type": "note_on",
                "note": 67,
                "velocity": 0,
                "time": 288
            },
            {
                "type": "note_on",
                "note": 70,
                "velocity": 0,
                "time": 0
            },
            {
                "type": "note_on",
                "note": 63,
                "velocity": 0,
                "time": 0
            },
            {
                "type": "note_on",
                "note": 68,
                "velocity": 100,
                "time": 0
            },
            {
                "type": "note_on",
                "note": 60,
                "velocity": 100,
                "time": 0
            },
            {
                "type": "note_on",
                "note": 63,
                "velocity": 100,
                "time": 0
            },
            {
                "type": "note_on",
                "note": 63,
                "velocity": 0,
                "time": 288
            },
            {
                "type": "note_on",
                "note": 60,
                "velocity": 0,
                "time": 0
            },
            {
                "type": "note_on",
                "note": 68,
                "velocity": 0,
                "time": 0
            },
            {
                "type": "note_on",
                "note": 60,
                "velocity": 100,
                "time": 0
            },
            {
                "type": "note_on",
                "note": 68,
                "velocity": 100,
                "time": 0
            },
            {
                "type": "note_on",
                "note": 63,
                "velocity": 100,
                "time": 0
            },
            {
                "type": "note_on",
                "note": 63,
                "velocity": 0,
                "time": 288
            },
            {
                "type": "note_on",
                "note": 68,
                "velocity": 0,
                "time": 0
            },
            {
                "type": "note_on",
                "note": 60,
                "velocity": 0,
                "time": 0
            },
            {
                "type": "note_on",
                "note": 63,
                "velocity": 100,
                "time": 192
            },
            {
                "type": "note_on",
                "note": 60,
                "velocity": 100,
                "time": 0
            },
            {
                "type": "note_on",
                "note": 68,
                "velocity": 100,
                "time": 0
            },
            {
                "type": "note_on",
                "note": 68,
                "velocity": 0,
                "time": 192
            },
            {
                "type": "note_on",
                "note": 60,
                "velocity": 0,
                "time": 0
            },
            {
                "type": "note_on",
                "note": 63,
                "velocity": 0,
                "time": 0
            },
            {
                "type": "note_on",
                "note": 67,
                "velocity": 100,
                "time": 0
            },
            {
                "type": "note_on",
                "note": 60,
                "velocity": 100,
                "time": 0
            },
            {
                "type": "note_on",
                "note": 63,
                "velocity": 100,
                "time": 0
            },
            {
                "type": "note_on",
                "note": 63,
                "velocity": 0,
                "time": 192
            },
            {
                "type": "note_on",
                "note": 60,
                "velocity": 0,
                "time": 0
            },
            {
                "type": "note_on",
                "note": 67,
                "velocity": 0,
                "time": 0
            },
            {
                "type": "note_on",
                "note": 60,
                "velocity": 100,
                "time": 0
            },
            {
                "type": "note_on",
                "note": 56,
                "velocity": 100,
                "time": 0
            },
            {
                "type": "note_on",
                "note": 65,
                "velocity": 100,
                "time": 0
            },
            {
                "type": "note_on",
                "note": 65,
                "velocity": 0,
                "time": 288
            },
            {
                "type": "note_on",
                "note": 56,
                "velocity": 0,
                "time": 0
            },
            {
                "type": "note_on",
                "note": 60,
                "velocity": 0,
                "time": 0
            },
            {
                "type": "note_on",
                "note": 56,
                "velocity": 100,
                "time": 0
            },
            {
                "type": "note_on",
                "note": 65,
                "velocity": 100,
                "time": 0
            },
            {
                "type": "note_on",
                "note": 60,
                "velocity": 100,
                "time": 0
            },
            {
                "type": "note_on",
                "note": 60,
                "velocity": 0,
                "time": 288
            },
            {
                "type": "note_on",
                "note": 65,
                "velocity": 0,
                "time": 0
            },
            {
                "type": "note_on",
                "note": 56,
                "velocity": 0,
                "time": 0
            },
            {
                "type": "note_on",
                "note": 65,
                "velocity": 100,
                "time": 0
            },
            {
                "type": "note_on",
                "note": 56,
                "velocity": 100,
                "time": 0
            },
            {
                "type": "note_on",
                "note": 60,
                "velocity": 100,
                "time": 0
            },
            {
                "type": "note_on",
                "note": 60,
                "velocity": 0,
                "time": 288
            },
            {
                "type": "note_on",
                "note": 56,
                "velocity": 0,
                "time": 0
            },
            {
                "type": "note_on",
                "note": 65,
                "velocity": 0,
                "time": 0
            },
            {
                "type": "note_on",
                "note": 56,
                "velocity": 100,
                "time": 0
            },
            {
                "type": "note_on",
                "note": 65,
                "velocity": 100,
                "time": 0
            },
            {
                "type": "note_on",
                "note": 60,
                "velocity": 100,
                "time": 0
            },
            {
                "type": "note_on",
                "note": 60,
                "velocity": 0,
                "time": 288
            },
            {
                "type": "note_on",
                "note": 65,
                "velocity": 0,
                "time": 0
            },
            {
                "type": "note_on",
                "note": 56,
                "velocity": 0,
                "time": 0
            },
            {
                "type": "note_on",
                "note": 62,
                "velocity": 100,
                "time": 0
            },
            {
                "type": "note_on",
                "note": 58,
                "velocity": 100,
                "time": 0
            },
            {
                "type": "note_on",
                "note": 65,
                "velocity": 100,
                "time": 0
            },
            {
                "type": "note_on",
                "note": 65,
                "velocity": 0,
                "time": 288
            },
            {
                "type": "note_on",
                "note": 58,
                "velocity": 0,
                "time": 0
            },
            {
                "type": "note_on",
                "note": 62,
                "velocity": 0,
                "time": 0
            },
            {
                "type": "note_on",
                "note": 65,
                "velocity": 100,
                "time": 0
            },
            {
                "type": "note_on",
                "note": 58,
                "velocity": 100,
                "time": 0
            },
            {
                "type": "note_on",
                "note": 62,
                "velocity": 100,
                "time": 0
            },
            {
                "type": "note_on",
                "note": 62,
                "velocity": 0,
                "time": 288
            },
            {
                "type": "note_on",
                "note": 58,
                "velocity": 0,
                "time": 0
            },
            {
                "type": "note_on",
                "note": 65,
                "velocity": 0,
                "time": 0
            },
            {
                "type": "note_on",
                "note": 62,
                "velocity": 100,
                "time": 0
            },
            {
                "type": "note_on",
                "note": 58,
                "velocity": 100,
                "time": 0
            },
            {
                "type": "note_on",
                "note": 65,
                "velocity": 100,
                "time": 0
            },
            {
                "type": "note_on",
                "note": 65,
                "velocity": 0,
                "time": 288
            },
            {
                "type": "note_on",
                "note": 58,
                "velocity": 0,
                "time": 0
            },
            {
                "type": "note_on",
                "note": 62,
                "velocity": 0,
                "time": 0
            },
            {
                "type": "note_on",
                "note": 58,
                "velocity": 100,
                "time": 0
            },
            {
                "type": "note_on",
                "note": 65,
                "velocity": 100,
                "time": 0
            },
            {
                "type": "note_on",
                "note": 62,
                "velocity": 100,
                "time": 0
            },
            {
                "type": "note_on",
                "note": 62,
                "velocity": 0,
                "time": 288
            },
            {
                "type": "note_on",
                "note": 65,
                "velocity": 0,
                "time": 0
            },
            {
                "type": "note_on",
                "note": 58,
                "velocity": 0,
                "time": 0
            },
            {
                "type": "note_on",
                "note": 65,
                "velocity": 100,
                "time": 0
            },
            {
                "type": "note_on",
                "note": 60,
                "velocity": 100,
                "time": 0
            },
            {
                "type": "note_on",
                "note": 56,
                "velocity": 100,
                "time": 0
            },
            {
                "type": "note_on",
                "note": 56,
                "velocity": 0,
                "time": 288
            },
            {
                "type": "note_on",
                "note": 60,
                "velocity": 0,
                "time": 0
            },
            {
                "type": "note_on",
                "note": 65,
                "velocity": 0,
                "time": 0
            },
            {
                "type": "note_on",
                "note": 65,
                "velocity": 100,
                "time": 0
            },
            {
                "type": "note_on",
                "note": 56,
                "velocity": 100,
                "time": 0
            },
            {
                "type": "note_on",
                "note": 60,
                "velocity": 100,
                "time": 0
            },
            {
                "type": "note_on",
                "note": 60,
                "velocity": 0,
                "time": 288
            },
            {
                "type": "note_on",
                "note": 56,
                "velocity": 0,
                "time": 0
            },
            {
                "type": "note_on",
                "note": 65,
                "velocity": 0,
                "time": 0
            },
            {
                "type": "note_on",
                "note": 65,
                "velocity": 100,
                "time": 0
            },
            {
                "type": "note_on",
                "note": 60,
                "velocity": 100,
                "time": 0
            },
            {
                "type": "note_on",
                "note": 56,
                "velocity": 100,
                "time": 0
            },
            {
                "type": "note_on",
                "note": 56,
                "velocity": 0,
                "time": 288
            },
            {
                "type": "note_on",
                "note": 60,
                "velocity": 0,
                "time": 0
            },
            {
                "type": "note_on",
                "note": 65,
                "velocity": 0,
                "time": 0
            },
            {
                "type": "note_on",
                "note": 65,
                "velocity": 100,
                "time": 0
            },
            {
                "type": "note_on",
                "note": 60,
                "velocity": 100,
                "time": 0
            },
            {
                "type": "note_on",
                "note": 56,
                "velocity": 100,
                "time": 0
            },
            {
                "type": "note_on",
                "note": 56,
                "velocity": 0,
                "time": 288
            },
            {
                "type": "note_on",
                "note": 60,
                "velocity": 0,
                "time": 0
            },
            {
                "type": "note_on",
                "note": 65,
                "velocity": 0,
                "time": 0
            },
            {
                "type": "note_on",
                "note": 65,
                "velocity": 100,
                "time": 0
            },
            {
                "type": "note_on",
                "note": 62,
                "velocity": 100,
                "time": 0
            },
            {
                "type": "note_on",
                "note": 58,
                "velocity": 100,
                "time": 0
            },
            {
                "type": "note_on",
                "note": 58,
                "velocity": 0,
                "time": 288
            },
            {
                "type": "note_on",
                "note": 62,
                "velocity": 0,
                "time": 0
            },
            {
                "type": "note_on",
                "note": 65,
                "velocity": 0,
                "time": 0
            },
            {
                "type": "note_on",
                "note": 65,
                "velocity": 100,
                "time": 0
            },
            {
                "type": "note_on",
                "note": 58,
                "velocity": 100,
                "time": 0
            },
            {
                "type": "note_on",
                "note": 62,
                "velocity": 100,
                "time": 0
            },
            {
                "type": "note_on",
                "note": 62,
                "velocity": 0,
                "time": 288
            },
            {
                "type": "note_on",
                "note": 58,
                "velocity": 0,
                "time": 0
            },
            {
                "type": "note_on",
                "note": 65,
                "velocity": 0,
                "time": 0
            },
            {
                "type": "note_on",
                "note": 58,
                "velocity": 100,
                "time": 0
            },
            {
                "type": "note_on",
                "note": 62,
                "velocity": 100,
                "time": 0
            },
            {
                "type": "note_on",
                "note": 65,
                "velocity": 100,
                "time": 0
            },
            {
                "type": "note_on",
                "note": 65,
                "velocity": 0,
                "time": 288
            },
            {
                "type": "note_on",
                "note": 62,
                "velocity": 0,
                "time": 0
            },
            {
                "type": "note_on",
                "note": 58,
                "velocity": 0,
                "time": 0
            },
            {
                "type": "note_on",
                "note": 58,
                "velocity": 100,
                "time": 0
            },
            {
                "type": "note_on",
                "note": 62,
                "velocity": 100,
                "time": 0
            },
            {
                "type": "note_on",
                "note": 65,
                "velocity": 100,
                "time": 0
            },
            {
                "type": "note_on",
                "note": 65,
                "velocity": 0,
                "time": 288
            },
            {
                "type": "note_on",
                "note": 62,
                "velocity": 0,
                "time": 0
            },
            {
                "type": "note_on",
                "note": 58,
                "velocity": 0,
                "time": 0
            },
            {
                "type": "note_on",
                "note": 56,
                "velocity": 100,
                "time": 0
            },
            {
                "type": "note_on",
                "note": 60,
                "velocity": 100,
                "time": 0
            },
            {
                "type": "note_on",
                "note": 65,
                "velocity": 100,
                "time": 0
            },
            {
                "type": "note_on",
                "note": 65,
                "velocity": 0,
                "time": 288
            },
            {
                "type": "note_on",
                "note": 60,
                "velocity": 0,
                "time": 0
            },
            {
                "type": "note_on",
                "note": 56,
                "velocity": 0,
                "time": 0
            },
            {
                "type": "note_on",
                "note": 56,
                "velocity": 100,
                "time": 0
            },
            {
                "type": "note_on",
                "note": 60,
                "velocity": 100,
                "time": 0
            },
            {
                "type": "note_on",
                "note": 65,
                "velocity": 100,
                "time": 0
            },
            {
                "type": "note_on",
                "note": 65,
                "velocity": 0,
                "time": 288
            },
            {
                "type": "note_on",
                "note": 60,
                "velocity": 0,
                "time": 0
            },
            {
                "type": "note_on",
                "note": 56,
                "velocity": 0,
                "time": 0
            },
            {
                "type": "note_on",
                "note": 58,
                "velocity": 100,
                "time": 0
            },
            {
                "type": "note_on",
                "note": 62,
                "velocity": 100,
                "time": 0
            },
            {
                "type": "note_on",
                "note": 65,
                "velocity": 100,
                "time": 0
            },
            {
                "type": "note_on",
                "note": 65,
                "velocity": 0,
                "time": 288
            },
            {
                "type": "note_on",
                "note": 62,
                "velocity": 0,
                "time": 0
            },
            {
                "type": "note_on",
                "note": 58,
                "velocity": 0,
                "time": 0
            },
            {
                "type": "note_on",
                "note": 58,
                "velocity": 100,
                "time": 0
            },
            {
                "type": "note_on",
                "note": 65,
                "velocity": 100,
                "time": 0
            },
            {
                "type": "note_on",
                "note": 62,
                "velocity": 100,
                "time": 0
            },
            {
                "type": "note_on",
                "note": 62,
                "velocity": 0,
                "time": 288
            },
            {
                "type": "note_on",
                "note": 65,
                "velocity": 0,
                "time": 0
            },
            {
                "type": "note_on",
                "note": 58,
                "velocity": 0,
                "time": 0
            },
            {
                "type": "note_on",
                "note": 60,
                "velocity": 100,
                "time": 0
            },
            {
                "type": "note_on",
                "note": 65,
                "velocity": 100,
                "time": 0
            },
            {
                "type": "note_on",
                "note": 56,
                "velocity": 100,
                "time": 0
            },
            {
                "type": "note_on",
                "note": 56,
                "velocity": 0,
                "time": 288
            },
            {
                "type": "note_on",
                "note": 65,
                "velocity": 0,
                "time": 0
            },
            {
                "type": "note_on",
                "note": 60,
                "velocity": 0,
                "time": 0
            },
            {
                "type": "note_on",
                "note": 65,
                "velocity": 100,
                "time": 0
            },
            {
                "type": "note_on",
                "note": 60,
                "velocity": 100,
                "time": 0
            },
            {
                "type": "note_on",
                "note": 56,
                "velocity": 100,
                "time": 0
            },
            {
                "type": "note_on",
                "note": 56,
                "velocity": 0,
                "time": 288
            },
            {
                "type": "note_on",
                "note": 60,
                "velocity": 0,
                "time": 0
            },
            {
                "type": "note_on",
                "note": 65,
                "velocity": 0,
                "time": 0
            },
            {
                "type": "note_on",
                "note": 62,
                "velocity": 100,
                "time": 0
            },
            {
                "type": "note_on",
                "note": 65,
                "velocity": 100,
                "time": 0
            },
            {
                "type": "note_on",
                "note": 58,
                "velocity": 100,
                "time": 0
            },
            {
                "type": "note_on",
                "note": 58,
                "velocity": 0,
                "time": 288
            },
            {
                "type": "note_on",
                "note": 65,
                "velocity": 0,
                "time": 0
            },
            {
                "type": "note_on",
                "note": 62,
                "velocity": 0,
                "time": 0
            },
            {
                "type": "note_on",
                "note": 65,
                "velocity": 100,
                "time": 0
            },
            {
                "type": "note_on",
                "note": 58,
                "velocity": 100,
                "time": 0
            },
            {
                "type": "note_on",
                "note": 62,
                "velocity": 100,
                "time": 0
            },
            {
                "type": "note_on",
                "note": 62,
                "velocity": 0,
                "time": 288
            },
            {
                "type": "note_on",
                "note": 58,
                "velocity": 0,
                "time": 0
            },
            {
                "type": "note_on",
                "note": 65,
                "velocity": 0,
                "time": 0
            },
            {
                "type": "note_on",
                "note": 58,
                "velocity": 100,
                "time": 0
            },
            {
                "type": "note_on",
                "note": 67,
                "velocity": 100,
                "time": 0
            },
            {
                "type": "note_on",
                "note": 63,
                "velocity": 100,
                "time": 0
            },
            {
                "type": "note_on",
                "note": 67,
                "velocity": 100,
                "time": 281
            },
            {
                "type": "note_on",
                "note": 63,
                "velocity": 0,
                "time": 7
            },
            {
                "type": "note_on",
                "note": 58,
                "velocity": 0,
                "time": 0
            },
            {
                "type": "note_on",
                "note": 67,
                "velocity": 0,
                "time": 0
            },
            {
                "type": "note_on",
                "note": 58,
                "velocity": 100,
                "time": 0
            },
            {
                "type": "note_on",
                "note": 63,
                "velocity": 100,
                "time": 0
            },
            {
                "type": "note_on",
                "note": 67,
                "velocity": 0,
                "time": 281
            },
            {
                "type": "note_on",
                "note": 63,
                "velocity": 0,
                "time": 7
            },
            {
                "type": "note_on",
                "note": 58,
                "velocity": 0,
                "time": 0
            },
            {
                "type": "note_on",
                "note": 63,
                "velocity": 100,
                "time": 0
            },
            {
                "type": "note_on",
                "note": 67,
                "velocity": 100,
                "time": 0
            },
            {
                "type": "note_on",
                "note": 58,
                "velocity": 100,
                "time": 0
            },
            {
                "type": "note_on",
                "note": 58,
                "velocity": 0,
                "time": 288
            },
            {
                "type": "note_on",
                "note": 67,
                "velocity": 0,
                "time": 0
            },
            {
                "type": "note_on",
                "note": 63,
                "velocity": 0,
                "time": 0
            },
            {
                "type": "note_on",
                "note": 58,
                "velocity": 100,
                "time": 0
            },
            {
                "type": "note_on",
                "note": 63,
                "velocity": 100,
                "time": 0
            },
            {
                "type": "note_on",
                "note": 67,
                "velocity": 100,
                "time": 0
            },
            {
                "type": "note_on",
                "note": 67,
                "velocity": 0,
                "time": 288
            },
            {
                "type": "note_on",
                "note": 63,
                "velocity": 0,
                "time": 0
            },
            {
                "type": "note_on",
                "note": 58,
                "velocity": 0,
                "time": 0
            },
            {
                "type": "note_on",
                "note": 63,
                "velocity": 100,
                "time": 0
            },
            {
                "type": "note_on",
                "note": 67,
                "velocity": 100,
                "time": 0
            },
            {
                "type": "note_on",
                "note": 58,
                "velocity": 100,
                "time": 0
            },
            {
                "type": "note_on",
                "note": 67,
                "velocity": 100,
                "time": 281
            },
            {
                "type": "note_on",
                "note": 58,
                "velocity": 0,
                "time": 7
            },
            {
                "type": "note_on",
                "note": 63,
                "velocity": 0,
                "time": 0
            },
            {
                "type": "note_on",
                "note": 67,
                "velocity": 0,
                "time": 0
            },
            {
                "type": "note_on",
                "note": 58,
                "velocity": 100,
                "time": 0
            },
            {
                "type": "note_on",
                "note": 63,
                "velocity": 100,
                "time": 0
            },
            {
                "type": "note_on",
                "note": 67,
                "velocity": 0,
                "time": 281
            },
            {
                "type": "note_on",
                "note": 63,
                "velocity": 0,
                "time": 7
            },
            {
                "type": "note_on",
                "note": 58,
                "velocity": 0,
                "time": 0
            },
            {
                "type": "note_on",
                "note": 63,
                "velocity": 100,
                "time": 0
            },
            {
                "type": "note_on",
                "note": 58,
                "velocity": 100,
                "time": 0
            },
            {
                "type": "note_on",
                "note": 67,
                "velocity": 100,
                "time": 0
            },
            {
                "type": "note_on",
                "note": 67,
                "velocity": 0,
                "time": 288
            },
            {
                "type": "note_on",
                "note": 58,
                "velocity": 0,
                "time": 0
            },
            {
                "type": "note_on",
                "note": 63,
                "velocity": 0,
                "time": 0
            },
            {
                "type": "note_on",
                "note": 63,
                "velocity": 100,
                "time": 0
            },
            {
                "type": "note_on",
                "note": 67,
                "velocity": 100,
                "time": 0
            },
            {
                "type": "note_on",
                "note": 58,
                "velocity": 100,
                "time": 0
            },
            {
                "type": "note_on",
                "note": 58,
                "velocity": 0,
                "time": 288
            },
            {
                "type": "note_on",
                "note": 67,
                "velocity": 0,
                "time": 0
            },
            {
                "type": "note_on",
                "note": 63,
                "velocity": 0,
                "time": 0
            },
            {
                "type": "note_on",
                "note": 63,
                "velocity": 100,
                "time": 0
            },
            {
                "type": "note_on",
                "note": 67,
                "velocity": 100,
                "time": 0
            },
            {
                "type": "note_on",
                "note": 58,
                "velocity": 100,
                "time": 0
            },
            {
                "type": "note_on",
                "note": 67,
                "velocity": 100,
                "time": 281
            },
            {
                "type": "note_on",
                "note": 58,
                "velocity": 0,
                "time": 7
            },
            {
                "type": "note_on",
                "note": 63,
                "velocity": 0,
                "time": 0
            },
            {
                "type": "note_on",
                "note": 67,
                "velocity": 0,
                "time": 0
            },
            {
                "type": "note_on",
                "note": 63,
                "velocity": 100,
                "time": 0
            },
            {
                "type": "note_on",
                "note": 58,
                "velocity": 100,
                "time": 0
            },
            {
                "type": "note_on",
                "note": 67,
                "velocity": 0,
                "time": 281
            },
            {
                "type": "note_on",
                "note": 58,
                "velocity": 0,
                "time": 7
            },
            {
                "type": "note_on",
                "note": 63,
                "velocity": 0,
                "time": 0
            },
            {
                "type": "note_on",
                "note": 58,
                "velocity": 100,
                "time": 0
            },
            {
                "type": "note_on",
                "note": 63,
                "velocity": 100,
                "time": 0
            },
            {
                "type": "note_on",
                "note": 67,
                "velocity": 100,
                "time": 0
            },
            {
                "type": "note_on",
                "note": 67,
                "velocity": 0,
                "time": 288
            },
            {
                "type": "note_on",
                "note": 63,
                "velocity": 0,
                "time": 0
            },
            {
                "type": "note_on",
                "note": 58,
                "velocity": 0,
                "time": 0
            },
            {
                "type": "note_on",
                "note": 63,
                "velocity": 100,
                "time": 0
            },
            {
                "type": "note_on",
                "note": 58,
                "velocity": 100,
                "time": 0
            },
            {
                "type": "note_on",
                "note": 67,
                "velocity": 100,
                "time": 0
            },
            {
                "type": "note_on",
                "note": 67,
                "velocity": 0,
                "time": 288
            },
            {
                "type": "note_on",
                "note": 58,
                "velocity": 0,
                "time": 0
            },
            {
                "type": "note_on",
                "note": 63,
                "velocity": 0,
                "time": 0
            },
            {
                "type": "note_on",
                "note": 69,
                "velocity": 100,
                "time": 0
            },
            {
                "type": "note_on",
                "note": 60,
                "velocity": 100,
                "time": 0
            },
            {
                "type": "note_on",
                "note": 65,
                "velocity": 100,
                "time": 0
            },
            {
                "type": "note_on",
                "note": 65,
                "velocity": 0,
                "time": 288
            },
            {
                "type": "note_on",
                "note": 60,
                "velocity": 0,
                "time": 0
            },
            {
                "type": "note_on",
                "note": 69,
                "velocity": 0,
                "time": 0
            },
            {
                "type": "note_on",
                "note": 65,
                "velocity": 100,
                "time": 0
            },
            {
                "type": "note_on",
                "note": 60,
                "velocity": 100,
                "time": 0
            },
            {
                "type": "note_on",
                "note": 69,
                "velocity": 100,
                "time": 0
            },
            {
                "type": "note_on",
                "note": 69,
                "velocity": 0,
                "time": 288
            },
            {
                "type": "note_on",
                "note": 60,
                "velocity": 0,
                "time": 0
            },
            {
                "type": "note_on",
                "note": 65,
                "velocity": 0,
                "time": 0
            },
            {
                "type": "note_on",
                "note": 60,
                "velocity": 100,
                "time": 0
            },
            {
                "type": "note_on",
                "note": 65,
                "velocity": 100,
                "time": 0
            },
            {
                "type": "note_on",
                "note": 69,
                "velocity": 100,
                "time": 0
            },
            {
                "type": "note_on",
                "note": 69,
                "velocity": 0,
                "time": 288
            },
            {
                "type": "note_on",
                "note": 65,
                "velocity": 0,
                "time": 0
            },
            {
                "type": "note_on",
                "note": 60,
                "velocity": 0,
                "time": 0
            },
            {
                "type": "note_on",
                "note": 65,
                "velocity": 100,
                "time": 0
            },
            {
                "type": "note_on",
                "note": 69,
                "velocity": 100,
                "time": 0
            },
            {
                "type": "note_on",
                "note": 60,
                "velocity": 100,
                "time": 0
            },
            {
                "type": "note_on",
                "note": 60,
                "velocity": 0,
                "time": 288
            },
            {
                "type": "note_on",
                "note": 69,
                "velocity": 0,
                "time": 0
            },
            {
                "type": "note_on",
                "note": 65,
                "velocity": 0,
                "time": 0
            },
            {
                "type": "note_on",
                "note": 66,
                "velocity": 100,
                "time": 0
            },
            {
                "type": "note_on",
                "note": 61,
                "velocity": 100,
                "time": 0
            },
            {
                "type": "note_on",
                "note": 70,
                "velocity": 100,
                "time": 0
            },
            {
                "type": "note_on",
                "note": 70,
                "velocity": 0,
                "time": 192
            },
            {
                "type": "note_on",
                "note": 61,
                "velocity": 0,
                "time": 0
            },
            {
                "type": "note_on",
                "note": 66,
                "velocity": 0,
                "time": 0
            },
            {
                "type": "note_on",
                "note": 63,
                "velocity": 100,
                "time": 384
            },
            {
                "type": "note_on",
                "note": 72,
                "velocity": 100,
                "time": 0
            },
            {
                "type": "note_on",
                "note": 68,
                "velocity": 100,
                "time": 0
            },
            {
                "type": "note_on",
                "note": 68,
                "velocity": 0,
                "time": 192
            },
            {
                "type": "note_on",
                "note": 72,
                "velocity": 0,
                "time": 0
            },
            {
                "type": "note_on",
                "note": 63,
                "velocity": 0,
                "time": 0
            },
            {
                "type": "note_on",
                "note": 69,
                "velocity": 100,
                "time": 192
            },
            {
                "type": "note_on",
                "note": 64,
                "velocity": 100,
                "time": 0
            },
            {
                "type": "note_on",
                "note": 73,
                "velocity": 100,
                "time": 0
            },
            {
                "type": "note_on",
                "note": 73,
                "velocity": 0,
                "time": 192
            },
            {
                "type": "note_on",
                "note": 64,
                "velocity": 0,
                "time": 0
            },
            {
                "type": "note_on",
                "note": 69,
                "velocity": 0,
                "time": 0
            },
            {
                "type": "note_on",
                "note": 71,
                "velocity": 100,
                "time": 0
            },
            {
                "type": "note_on",
                "note": 63,
                "velocity": 100,
                "time": 0
            },
            {
                "type": "note_on",
                "note": 66,
                "velocity": 100,
                "time": 0
            },
            {
                "type": "note_on",
                "note": 66,
                "velocity": 0,
                "time": 1152
            },
            {
                "type": "note_on",
                "note": 63,
                "velocity": 0,
                "time": 0
            },
            {
                "type": "note_on",
                "note": 71,
                "velocity": 0,
                "time": 0
            },
            {
                "type": "note_on",
                "note": 60,
                "velocity": 100,
                "time": 0
            },
            {
                "type": "note_on",
                "note": 68,
                "velocity": 100,
                "time": 0
            },
            {
                "type": "note_on",
                "note": 63,
                "velocity": 100,
                "time": 0
            },
            {
                "type": "note_on",
                "note": 63,
                "velocity": 0,
                "time": 1152
            },
            {
                "type": "note_on",
                "note": 68,
                "velocity": 0,
                "time": 0
            },
            {
                "type": "note_on",
                "note": 60,
                "velocity": 0,
                "time": 0
            },
            {
                "type": "note_on",
                "note": 65,
                "velocity": 100,
                "time": 0
            },
            {
                "type": "note_on",
                "note": 70,
                "velocity": 100,
                "time": 0
            },
            {
                "type": "note_on",
                "note": 62,
                "velocity": 100,
                "time": 0
            },
            {
                "type": "note_on",
                "note": 62,
                "velocity": 0,
                "time": 1152
            },
            {
                "type": "note_on",
                "note": 70,
                "velocity": 0,
                "time": 0
            },
            {
                "type": "note_on",
                "note": 65,
                "velocity": 0,
                "time": 0
            },
            {
                "type": "note_on",
                "note": 46,
                "velocity": 83,
                "time": 0
            },
            {
                "type": "note_on",
                "note": 34,
                "velocity": 91,
                "time": 0
            },
            {
                "type": "note_on",
                "note": 46,
                "velocity": 0,
                "time": 42
            },
            {
                "type": "note_on",
                "note": 34,
                "velocity": 0,
                "time": 18
            },
            {
                "type": "note_on",
                "note": 48,
                "velocity": 86,
                "time": 36
            },
            {
                "type": "note_on",
                "note": 36,
                "velocity": 89,
                "time": 0
            },
            {
                "type": "note_on",
                "note": 48,
                "velocity": 0,
                "time": 42
            },
            {
                "type": "note_on",
                "note": 36,
                "velocity": 0,
                "time": 4
            },
            {
                "type": "note_on",
                "note": 46,
                "velocity": 79,
                "time": 50
            },
            {
                "type": "note_on",
                "note": 34,
                "velocity": 96,
                "time": 0
            },
            {
                "type": "note_on",
                "note": 46,
                "velocity": 0,
                "time": 40
            },
            {
                "type": "note_on",
                "note": 34,
                "velocity": 0,
                "time": 34
            },
            {
                "type": "note_on",
                "note": 36,
                "velocity": 86,
                "time": 22
            },
            {
                "type": "note_on",
                "note": 48,
                "velocity": 98,
                "time": 0
            },
            {
                "type": "note_on",
                "note": 48,
                "velocity": 0,
                "time": 46
            },
            {
                "type": "note_on",
                "note": 36,
                "velocity": 0,
                "time": 18
            },
            {
                "type": "note_on",
                "note": 50,
                "velocity": 99,
                "time": 32
            },
            {
                "type": "note_on",
                "note": 38,
                "velocity": 95,
                "time": 0
            },
            {
                "type": "note_on",
                "note": 50,
                "velocity": 0,
                "time": 32
            },
            {
                "type": "note_on",
                "note": 38,
                "velocity": 0,
                "time": 36
            },
            {
                "type": "note_on",
                "note": 51,
                "velocity": 96,
                "time": 28
            },
            {
                "type": "note_on",
                "note": 39,
                "velocity": 97,
                "time": 0
            },
            {
                "type": "note_on",
                "note": 51,
                "velocity": 0,
                "time": 28
            },
            {
                "type": "note_on",
                "note": 39,
                "velocity": 0,
                "time": 8
            },
            {
                "type": "note_on",
                "note": 38,
                "velocity": 95,
                "time": 60
            },
            {
                "type": "note_on",
                "note": 50,
                "velocity": 83,
                "time": 0
            },
            {
                "type": "note_on",
                "note": 50,
                "velocity": 0,
                "time": 38
            },
            {
                "type": "note_on",
                "note": 38,
                "velocity": 0,
                "time": 18
            },
            {
                "type": "note_on",
                "note": 51,
                "velocity": 106,
                "time": 40
            },
            {
                "type": "note_on",
                "note": 39,
                "velocity": 93,
                "time": 0
            },
            {
                "type": "note_on",
                "note": 51,
                "velocity": 0,
                "time": 40
            },
            {
                "type": "note_on",
                "note": 39,
                "velocity": 0,
                "time": 16
            },
            {
                "type": "note_on",
                "note": 53,
                "velocity": 91,
                "time": 40
            },
            {
                "type": "note_on",
                "note": 41,
                "velocity": 91,
                "time": 0
            },
            {
                "type": "note_on",
                "note": 53,
                "velocity": 0,
                "time": 44
            },
            {
                "type": "note_on",
                "note": 41,
                "velocity": 0,
                "time": 30
            },
            {
                "type": "note_on",
                "note": 43,
                "velocity": 85,
                "time": 22
            },
            {
                "type": "note_on",
                "note": 55,
                "velocity": 98,
                "time": 0
            },
            {
                "type": "note_on",
                "note": 55,
                "velocity": 0,
                "time": 40
            },
            {
                "type": "note_on",
                "note": 43,
                "velocity": 0,
                "time": 24
            },
            {
                "type": "note_on",
                "note": 44,
                "velocity": 92,
                "time": 32
            },
            {
                "type": "note_on",
                "note": 56,
                "velocity": 109,
                "time": 0
            },
            {
                "type": "note_on",
                "note": 56,
                "velocity": 0,
                "time": 42
            },
            {
                "type": "note_on",
                "note": 44,
                "velocity": 0,
                "time": 10
            },
            {
                "type": "note_on",
                "note": 55,
                "velocity": 95,
                "time": 44
            },
            {
                "type": "note_on",
                "note": 43,
                "velocity": 91,
                "time": 0
            },
            {
                "type": "note_on",
                "note": 55,
                "velocity": 0,
                "time": 44
            },
            {
                "type": "note_on",
                "note": 43,
                "velocity": 0,
                "time": 8
            },
            {
                "type": "note_on",
                "note": 56,
                "velocity": 91,
                "time": 44
            },
            {
                "type": "note_on",
                "note": 44,
                "velocity": 84,
                "time": 0
            },
            {
                "type": "note_on",
                "note": 44,
                "velocity": 0,
                "time": 38
            },
            {
                "type": "note_on",
                "note": 56,
                "velocity": 0,
                "time": 4
            },
            {
                "type": "note_on",
                "note": 58,
                "velocity": 98,
                "time": 54
            },
            {
                "type": "note_on",
                "note": 46,
                "velocity": 83,
                "time": 0
            },
            {
                "type": "note_on",
                "note": 58,
                "velocity": 0,
                "time": 36
            },
            {
                "type": "note_on",
                "note": 46,
                "velocity": 0,
                "time": 10
            },
            {
                "type": "note_on",
                "note": 60,
                "velocity": 97,
                "time": 50
            },
            {
                "type": "note_on",
                "note": 48,
                "velocity": 87,
                "time": 0
            },
            {
                "type": "note_on",
                "note": 60,
                "velocity": 0,
                "time": 30
            },
            {
                "type": "note_on",
                "note": 48,
                "velocity": 0,
                "time": 12
            },
            {
                "type": "note_on",
                "note": 58,
                "velocity": 93,
                "time": 54
            },
            {
                "type": "note_on",
                "note": 46,
                "velocity": 81,
                "time": 0
            },
            {
                "type": "note_on",
                "note": 58,
                "velocity": 0,
                "time": 30
            },
            {
                "type": "note_on",
                "note": 46,
                "velocity": 0,
                "time": 6
            },
            {
                "type": "note_on",
                "note": 50,
                "velocity": 92,
                "time": 60
            },
            {
                "type": "note_on",
                "note": 62,
                "velocity": 113,
                "time": 0
            },
            {
                "type": "note_on",
                "note": 62,
                "velocity": 0,
                "time": 34
            },
            {
                "type": "note_on",
                "note": 50,
                "velocity": 0,
                "time": 8
            },
            {
                "type": "note_on",
                "note": 58,
                "velocity": 88,
                "time": 54
            },
            {
                "type": "note_on",
                "note": 46,
                "velocity": 88,
                "time": 0
            },
            {
                "type": "note_on",
                "note": 58,
                "velocity": 0,
                "time": 30
            },
            {
                "type": "note_on",
                "note": 46,
                "velocity": 0,
                "time": 8
            },
            {
                "type": "note_on",
                "note": 65,
                "velocity": 105,
                "time": 58
            },
            {
                "type": "note_on",
                "note": 53,
                "velocity": 96,
                "time": 0
            },
            {
                "type": "note_on",
                "note": 65,
                "velocity": 0,
                "time": 38
            },
            {
                "type": "note_on",
                "note": 53,
                "velocity": 0,
                "time": 2
            },
            {
                "type": "note_on",
                "note": 46,
                "velocity": 81,
                "time": 56
            },
            {
                "type": "note_on",
                "note": 58,
                "velocity": 79,
                "time": 0
            },
            {
                "type": "note_on",
                "note": 58,
                "velocity": 0,
                "time": 80
            },
            {
                "type": "note_on",
                "note": 46,
                "velocity": 0,
                "time": 8
            },
            {
                "type": "note_on",
                "note": 51,
                "velocity": 93,
                "time": 8
            },
            {
                "type": "note_on",
                "note": 63,
                "velocity": 97,
                "time": 0
            },
            {
                "type": "note_on",
                "note": 67,
                "velocity": 100,
                "time": 0
            },
            {
                "type": "note_on",
                "note": 58,
                "velocity": 81,
                "time": 0
            },
            {
                "type": "note_on",
                "note": 39,
                "velocity": 92,
                "time": 0
            },
            {
                "type": "note_on",
                "note": 58,
                "velocity": 0,
                "time": 42
            },
            {
                "type": "note_on",
                "note": 67,
                "velocity": 0,
                "time": 30
            },
            {
                "type": "note_on",
                "note": 63,
                "velocity": 0,
                "time": 2
            },
            {
                "type": "note_on",
                "note": 58,
                "velocity": 83,
                "time": 8
            },
            {
                "type": "note_on",
                "note": 58,
                "velocity": 0,
                "time": 68
            },
            {
                "type": "note_on",
                "note": 63,
                "velocity": 100,
                "time": 28
            },
            {
                "type": "note_on",
                "note": 67,
                "velocity": 109,
                "time": 0
            },
            {
                "type": "note_on",
                "note": 70,
                "velocity": 93,
                "time": 0
            },
            {
                "type": "note_on",
                "note": 67,
                "velocity": 0,
                "time": 30
            },
            {
                "type": "note_on",
                "note": 63,
                "velocity": 0,
                "time": 44
            },
            {
                "type": "note_on",
                "note": 51,
                "velocity": 0,
                "time": 12
            },
            {
                "type": "note_on",
                "note": 39,
                "velocity": 0,
                "time": 2
            },
            {
                "type": "note_on",
                "note": 70,
                "velocity": 0,
                "time": 0
            },
            {
                "type": "note_on",
                "note": 58,
                "velocity": 83,
                "time": 8
            },
            {
                "type": "note_on",
                "note": 58,
                "velocity": 0,
                "time": 34
            },
            {
                "type": "note_on",
                "note": 58,
                "velocity": 89,
                "time": 24
            },
            {
                "type": "note_on",
                "note": 62,
                "velocity": 101,
                "time": 0
            },
            {
                "type": "note_on",
                "note": 65,
                "velocity": 101,
                "time": 0
            },
            {
                "type": "note_on",
                "note": 50,
                "velocity": 105,
                "time": 0
            },
            {
                "type": "note_on",
                "note": 38,
                "velocity": 108,
                "time": 0
            },
            {
                "type": "note_on",
                "note": 58,
                "velocity": 0,
                "time": 56
            },
            {
                "type": "note_on",
                "note": 65,
                "velocity": 0,
                "time": 30
            },
            {
                "type": "note_on",
                "note": 58,
                "velocity": 97,
                "time": 4
            },
            {
                "type": "note_on",
                "note": 62,
                "velocity": 0,
                "time": 4
            },
            {
                "type": "note_on",
                "note": 58,
                "velocity": 0,
                "time": 32
            },
            {
                "type": "note_on",
                "note": 62,
                "velocity": 105,
                "time": 60
            },
            {
                "type": "note_on",
                "note": 65,
                "velocity": 97,
                "time": 0
            },
            {
                "type": "note_on",
                "note": 70,
                "velocity": 96,
                "time": 0
            },
            {
                "type": "note_on",
                "note": 65,
                "velocity": 0,
                "time": 38
            },
            {
                "type": "note_on",
                "note": 62,
                "velocity": 0,
                "time": 34
            },
            {
                "type": "note_on",
                "note": 70,
                "velocity": 0,
                "time": 2
            },
            {
                "type": "note_on",
                "note": 58,
                "velocity": 81,
                "time": 22
            },
            {
                "type": "note_on",
                "note": 38,
                "velocity": 0,
                "time": 2
            },
            {
                "type": "note_on",
                "note": 50,
                "velocity": 0,
                "time": 4
            },
            {
                "type": "note_on",
                "note": 58,
                "velocity": 0,
                "time": 14
            },
            {
                "type": "note_on",
                "note": 67,
                "velocity": 103,
                "time": 18
            },
            {
                "type": "note_on",
                "note": 63,
                "velocity": 103,
                "time": 0
            },
            {
                "type": "note_on",
                "note": 36,
                "velocity": 96,
                "time": 0
            },
            {
                "type": "note_on",
                "note": 48,
                "velocity": 100,
                "time": 0
            },
            {
                "type": "note_on",
                "note": 63,
                "velocity": 0,
                "time": 72
            },
            {
                "type": "note_on",
                "note": 67,
                "velocity": 0,
                "time": 0
            },
            {
                "type": "note_on",
                "note": 60,
                "velocity": 93,
                "time": 12
            },
            {
                "type": "note_on",
                "note": 60,
                "velocity": 0,
                "time": 46
            },
            {
                "type": "note_on",
                "note": 67,
                "velocity": 103,
                "time": 50
            },
            {
                "type": "note_on",
                "note": 72,
                "velocity": 98,
                "time": 0
            },
            {
                "type": "note_on",
                "note": 63,
                "velocity": 89,
                "time": 0
            },
            {
                "type": "note_on",
                "note": 72,
                "velocity": 0,
                "time": 48
            },
            {
                "type": "note_on",
                "note": 67,
                "velocity": 0,
                "time": 18
            },
            {
                "type": "note_on",
                "note": 63,
                "velocity": 0,
                "time": 0
            },
            {
                "type": "note_on",
                "note": 60,
                "velocity": 90,
                "time": 30
            },
            {
                "type": "note_on",
                "note": 60,
                "velocity": 0,
                "time": 20
            },
            {
                "type": "note_on",
                "note": 48,
                "velocity": 0,
                "time": 8
            },
            {
                "type": "note_on",
                "note": 36,
                "velocity": 0,
                "time": 6
            },
            {
                "type": "note_on",
                "note": 59,
                "velocity": 91,
                "time": 26
            },
            {
                "type": "note_on",
                "note": 65,
                "velocity": 93,
                "time": 0
            },
            {
                "type": "note_on",
                "note": 67,
                "velocity": 87,
                "time": 0
            },
            {
                "type": "note_on",
                "note": 62,
                "velocity": 95,
                "time": 0
            },
            {
                "type": "note_on",
                "note": 47,
                "velocity": 103,
                "time": 0
            },
            {
                "type": "note_on",
                "note": 47,
                "velocity": 0,
                "time": 98
            },
            {
                "type": "note_on",
                "note": 59,
                "velocity": 0,
                "time": 4
            },
            {
                "type": "note_on",
                "note": 67,
                "velocity": 0,
                "time": 4
            },
            {
                "type": "note_on",
                "note": 62,
                "velocity": 0,
                "time": 2
            },
            {
                "type": "note_on",
                "note": 65,
                "velocity": 0,
                "time": 2
            },
            {
                "type": "note_on",
                "note": 63,
                "velocity": 95,
                "time": 2
            },
            {
                "type": "note_on",
                "note": 67,
                "velocity": 101,
                "time": 0
            },
            {
                "type": "note_on",
                "note": 48,
                "velocity": 106,
                "time": 0
            },
            {
                "type": "note_on",
                "note": 60,
                "velocity": 94,
                "time": 0
            },
            {
                "type": "note_on",
                "note": 67,
                "velocity": 0,
                "time": 78
            },
            {
                "type": "note_on",
                "note": 63,
                "velocity": 0,
                "time": 2
            },
            {
                "type": "note_on",
                "note": 60,
                "velocity": 0,
                "time": 6
            },
            {
                "type": "note_on",
                "note": 48,
                "velocity": 0,
                "time": 76
            },
            {
                "type": "note_on",
                "note": 65,
                "velocity": 99,
                "time": 12
            },
            {
                "type": "note_on",
                "note": 62,
                "velocity": 104,
                "time": 0
            },
            {
                "type": "note_on",
                "note": 67,
                "velocity": 96,
                "time": 0
            },
            {
                "type": "note_on",
                "note": 47,
                "velocity": 98,
                "time": 0
            },
            {
                "type": "note_on",
                "note": 59,
                "velocity": 98,
                "time": 0
            },
            {
                "type": "note_on",
                "note": 67,
                "velocity": 0,
                "time": 46
            },
            {
                "type": "note_on",
                "note": 65,
                "velocity": 0,
                "time": 2
            },
            {
                "type": "note_on",
                "note": 62,
                "velocity": 0,
                "time": 2
            },
            {
                "type": "note_on",
                "note": 59,
                "velocity": 0,
                "time": 4
            },
            {
                "type": "note_on",
                "note": 47,
                "velocity": 0,
                "time": 42
            },
            {
                "type": "note_on",
                "note": 68,
                "velocity": 102,
                "time": 34
            },
            {
                "type": "note_on",
                "note": 68,
                "velocity": 0,
                "time": 24
            },
            {
                "type": "note_on",
                "note": 60,
                "velocity": 95,
                "time": 18
            },
            {
                "type": "note_on",
                "note": 67,
                "velocity": 99,
                "time": 0
            },
            {
                "type": "note_on",
                "note": 63,
                "velocity": 90,
                "time": 0
            },
            {
                "type": "note_on",
                "note": 48,
                "velocity": 106,
                "time": 0
            },
            {
                "type": "note_on",
                "note": 63,
                "velocity": 0,
                "time": 62
            },
            {
                "type": "note_on",
                "note": 60,
                "velocity": 0,
                "time": 0
            },
            {
                "type": "note_on",
                "note": 67,
                "velocity": 0,
                "time": 2
            },
            {
                "type": "note_on",
                "note": 48,
                "velocity": 0,
                "time": 26
            },
            {
                "type": "note_on",
                "note": 46,
                "velocity": 98,
                "time": 16
            },
            {
                "type": "note_on",
                "note": 34,
                "velocity": 92,
                "time": 0
            },
            {
                "type": "note_on",
                "note": 65,
                "velocity": 98,
                "time": 0
            },
            {
                "type": "note_on",
                "note": 70,
                "velocity": 96,
                "time": 0
            },
            {
                "type": "note_on",
                "note": 62,
                "velocity": 102,
                "time": 0
            },
            {
                "type": "note_on",
                "note": 62,
                "velocity": 0,
                "time": 54
            },
            {
                "type": "note_on",
                "note": 65,
                "velocity": 0,
                "time": 0
            },
            {
                "type": "note_on",
                "note": 70,
                "velocity": 0,
                "time": 12
            },
            {
                "type": "note_on",
                "note": 46,
                "velocity": 0,
                "time": 80
            },
            {
                "type": "note_on",
                "note": 34,
                "velocity": 0,
                "time": 2
            },
            {
                "type": "note_on",
                "note": 51,
                "velocity": 106,
                "time": 16
            },
            {
                "type": "note_on",
                "note": 63,
                "velocity": 92,
                "time": 0
            },
            {
                "type": "note_on",
                "note": 70,
                "velocity": 95,
                "time": 0
            },
            {
                "type": "note_on",
                "note": 67,
                "velocity": 108,
                "time": 0
            },
            {
                "type": "note_on",
                "note": 39,
                "velocity": 104,
                "time": 0
            },
            {
                "type": "note_on",
                "note": 67,
                "velocity": 0,
                "time": 52
            },
            {
                "type": "note_on",
                "note": 70,
                "velocity": 0,
                "time": 2
            },
            {
                "type": "note_on",
                "note": 63,
                "velocity": 0,
                "time": 0
            },
            {
                "type": "note_on",
                "note": 51,
                "velocity": 0,
                "time": 96
            },
            {
                "type": "note_on",
                "note": 39,
                "velocity": 0,
                "time": 16
            },
            {
                "type": "note_on",
                "note": 69,
                "velocity": 105,
                "time": 18
            },
            {
                "type": "note_on",
                "note": 38,
                "velocity": 105,
                "time": 0
            },
            {
                "type": "note_on",
                "note": 62,
                "velocity": 86,
                "time": 0
            },
            {
                "type": "note_on",
                "note": 66,
                "velocity": 92,
                "time": 0
            },
            {
                "type": "note_on",
                "note": 50,
                "velocity": 106,
                "time": 0
            },
            {
                "type": "note_on",
                "note": 74,
                "velocity": 100,
                "time": 0
            },
            {
                "type": "note_on",
                "note": 62,
                "velocity": 0,
                "time": 40
            },
            {
                "type": "note_on",
                "note": 74,
                "velocity": 0,
                "time": 28
            },
            {
                "type": "note_on",
                "note": 66,
                "velocity": 0,
                "time": 6
            },
            {
                "type": "note_on",
                "note": 69,
                "velocity": 0,
                "time": 4
            },
            {
                "type": "note_on",
                "note": 62,
                "velocity": 93,
                "time": 6
            },
            {
                "type": "note_on",
                "note": 62,
                "velocity": 0,
                "time": 10
            },
            {
                "type": "note_on",
                "note": 38,
                "velocity": 0,
                "time": 44
            },
            {
                "type": "note_on",
                "note": 50,
                "velocity": 0,
                "time": 2
            },
            {
                "type": "note_on",
                "note": 69,
                "velocity": 86,
                "time": 40
            },
            {
                "type": "note_on",
                "note": 78,
                "velocity": 92,
                "time": 0
            },
            {
                "type": "note_on",
                "note": 81,
                "velocity": 89,
                "time": 0
            },
            {
                "type": "note_on",
                "note": 74,
                "velocity": 98,
                "time": 0
            },
            {
                "type": "note_on",
                "note": 69,
                "velocity": 0,
                "time": 60
            },
            {
                "type": "note_on",
                "note": 81,
                "velocity": 0,
                "time": 36
            },
            {
                "type": "note_on",
                "note": 69,
                "velocity": 86,
                "time": 0
            },
            {
                "type": "note_on",
                "note": 78,
                "velocity": 0,
                "time": 2
            },
            {
                "type": "note_on",
                "note": 74,
                "velocity": 0,
                "time": 0
            },
            {
                "type": "note_on",
                "note": 69,
                "velocity": 0,
                "time": 10
            },
            {
                "type": "note_on",
                "note": 43,
                "velocity": 100,
                "time": 24
            },
            {
                "type": "note_on",
                "note": 62,
                "velocity": 99,
                "time": 0
            },
            {
                "type": "note_on",
                "note": 67,
                "velocity": 99,
                "time": 0
            },
            {
                "type": "note_on",
                "note": 70,
                "velocity": 98,
                "time": 0
            },
            {
                "type": "note_on",
                "note": 55,
                "velocity": 110,
                "time": 0
            },
            {
                "type": "note_on",
                "note": 62,
                "velocity": 0,
                "time": 54
            },
            {
                "type": "note_on",
                "note": 70,
                "velocity": 0,
                "time": 34
            },
            {
                "type": "note_on",
                "note": 62,
                "velocity": 96,
                "time": 2
            },
            {
                "type": "note_on",
                "note": 62,
                "velocity": 0,
                "time": 28
            },
            {
                "type": "note_on",
                "note": 74,
                "velocity": 98,
                "time": 68
            },
            {
                "type": "note_on",
                "note": 67,
                "velocity": 0,
                "time": 8
            },
            {
                "type": "note_on",
                "note": 74,
                "velocity": 0,
                "time": 48
            },
            {
                "type": "note_on",
                "note": 62,
                "velocity": 96,
                "time": 40
            },
            {
                "type": "note_on",
                "note": 62,
                "velocity": 0,
                "time": 14
            },
            {
                "type": "note_on",
                "note": 55,
                "velocity": 0,
                "time": 4
            },
            {
                "type": "note_on",
                "note": 43,
                "velocity": 0,
                "time": 2
            },
            {
                "type": "note_on",
                "note": 60,
                "velocity": 89,
                "time": 22
            },
            {
                "type": "note_on",
                "note": 68,
                "velocity": 78,
                "time": 0
            },
            {
                "type": "note_on",
                "note": 44,
                "velocity": 76,
                "time": 0
            },
            {
                "type": "note_on",
                "note": 56,
                "velocity": 88,
                "time": 0
            },
            {
                "type": "note_on",
                "note": 63,
                "velocity": 86,
                "time": 0
            },
            {
                "type": "note_on",
                "note": 60,
                "velocity": 0,
                "time": 58
            },
            {
                "type": "note_on",
                "note": 68,
                "velocity": 0,
                "time": 24
            },
            {
                "type": "note_on",
                "note": 63,
                "velocity": 0,
                "time": 2
            },
            {
                "type": "note_on",
                "note": 60,
                "velocity": 82,
                "time": 2
            },
            {
                "type": "note_on",
                "note": 60,
                "velocity": 0,
                "time": 94
            },
            {
                "type": "note_on",
                "note": 68,
                "velocity": 91,
                "time": 2
            },
            {
                "type": "note_on",
                "note": 68,
                "velocity": 0,
                "time": 86
            },
            {
                "type": "note_on",
                "note": 63,
                "velocity": 83,
                "time": 10
            },
            {
                "type": "note_on",
                "note": 63,
                "velocity": 0,
                "time": 14
            },
            {
                "type": "note_on",
                "note": 44,
                "velocity": 0,
                "time": 34
            },
            {
                "type": "note_on",
                "note": 56,
                "velocity": 0,
                "time": 0
            },
            {
                "type": "note_on",
                "note": 39,
                "velocity": 73,
                "time": 14
            },
            {
                "type": "note_on",
                "note": 63,
                "velocity": 83,
                "time": 0
            },
            {
                "type": "note_on",
                "note": 70,
                "velocity": 79,
                "time": 0
            },
            {
                "type": "note_on",
                "note": 51,
                "velocity": 86,
                "time": 0
            },
            {
                "type": "note_on",
                "note": 67,
                "velocity": 91,
                "time": 0
            },
            {
                "type": "note_on",
                "note": 63,
                "velocity": 0,
                "time": 34
            },
            {
                "type": "note_on",
                "note": 70,
                "velocity": 0,
                "time": 34
            },
            {
                "type": "note_on",
                "note": 67,
                "velocity": 0,
                "time": 6
            },
            {
                "type": "note_on",
                "note": 63,
                "velocity": 81,
                "time": 2
            },
            {
                "type": "note_on",
                "note": 75,
                "velocity": 83,
                "time": 96
            },
            {
                "type": "note_on",
                "note": 63,
                "velocity": 0,
                "time": 4
            },
            {
                "type": "note_on",
                "note": 75,
                "velocity": 0,
                "time": 92
            },
            {
                "type": "note_on",
                "note": 63,
                "velocity": 86,
                "time": 0
            },
            {
                "type": "note_on",
                "note": 39,
                "velocity": 0,
                "time": 10
            },
            {
                "type": "note_on",
                "note": 63,
                "velocity": 0,
                "time": 8
            },
            {
                "type": "note_on",
                "note": 51,
                "velocity": 0,
                "time": 2
            },
            {
                "type": "note_on",
                "note": 36,
                "velocity": 75,
                "time": 6
            },
            {
                "type": "note_on",
                "note": 60,
                "velocity": 80,
                "time": 0
            },
            {
                "type": "note_on",
                "note": 63,
                "velocity": 83,
                "time": 0
            },
            {
                "type": "note_on",
                "note": 48,
                "velocity": 83,
                "time": 0
            },
            {
                "type": "note_on",
                "note": 67,
                "velocity": 93,
                "time": 0
            },
            {
                "type": "note_on",
                "note": 60,
                "velocity": 0,
                "time": 42
            },
            {
                "type": "note_on",
                "note": 67,
                "velocity": 0,
                "time": 26
            },
            {
                "type": "note_on",
                "note": 63,
                "velocity": 0,
                "time": 0
            },
            {
                "type": "note_on",
                "note": 60,
                "velocity": 89,
                "time": 2
            },
            {
                "type": "note_on",
                "note": 67,
                "velocity": 98,
                "time": 96
            },
            {
                "type": "note_on",
                "note": 63,
                "velocity": 95,
                "time": 0
            },
            {
                "type": "note_on",
                "note": 60,
                "velocity": 0,
                "time": 6
            },
            {
                "type": "note_on",
                "note": 67,
                "velocity": 0,
                "time": 84
            },
            {
                "type": "note_on",
                "note": 63,
                "velocity": 0,
                "time": 2
            },
            {
                "type": "note_on",
                "note": 60,
                "velocity": 99,
                "time": 4
            },
            {
                "type": "note_on",
                "note": 60,
                "velocity": 0,
                "time": 16
            },
            {
                "type": "note_on",
                "note": 48,
                "velocity": 0,
                "time": 54
            },
            {
                "type": "note_on",
                "note": 36,
                "velocity": 0,
                "time": 8
            },
            {
                "type": "note_on",
                "note": 62,
                "velocity": 105,
                "time": 18
            },
            {
                "type": "note_on",
                "note": 58,
                "velocity": 91,
                "time": 0
            },
            {
                "type": "note_on",
                "note": 31,
                "velocity": 98,
                "time": 0
            },
            {
                "type": "note_on",
                "note": 43,
                "velocity": 95,
                "time": 0
            },
            {
                "type": "note_on",
                "note": 62,
                "velocity": 0,
                "time": 76
            },
            {
                "type": "note_on",
                "note": 55,
                "velocity": 96,
                "time": 6
            },
            {
                "type": "note_on",
                "note": 58,
                "velocity": 0,
                "time": 2
            },
            {
                "type": "note_on",
                "note": 67,
                "velocity": 91,
                "time": 94
            },
            {
                "type": "note_on",
                "note": 55,
                "velocity": 0,
                "time": 2
            },
            {
                "type": "note_on",
                "note": 67,
                "velocity": 0,
                "time": 70
            },
            {
                "type": "note_on",
                "note": 43,
                "velocity": 0,
                "time": 14
            },
            {
                "type": "note_on",
                "note": 31,
                "velocity": 0,
                "time": 10
            },
            {
                "type": "note_on",
                "note": 55,
                "velocity": 83,
                "time": 0
            },
            {
                "type": "note_on",
                "note": 55,
                "velocity": 0,
                "time": 46
            },
            {
                "type": "note_on",
                "note": 48,
                "velocity": 91,
                "time": 6
            },
            {
                "type": "note_on",
                "note": 36,
                "velocity": 86,
                "time": 0
            },
            {
                "type": "note_on",
                "note": 63,
                "velocity": 85,
                "time": 0
            },
            {
                "type": "note_on",
                "note": 67,
                "velocity": 93,
                "time": 0
            },
            {
                "type": "note_on",
                "note": 63,
                "velocity": 0,
                "time": 64
            },
            {
                "type": "note_on",
                "note": 67,
                "velocity": 0,
                "time": 6
            },
            {
                "type": "note_on",
                "note": 60,
                "velocity": 85,
                "time": 0
            },
            {
                "type": "note_on",
                "note": 63,
                "velocity": 100,
                "time": 96
            },
            {
                "type": "note_on",
                "note": 60,
                "velocity": 0,
                "time": 6
            },
            {
                "type": "note_on",
                "note": 67,
                "velocity": 109,
                "time": 90
            },
            {
                "type": "note_on",
                "note": 63,
                "velocity": 0,
                "time": 12
            },
            {
                "type": "note_on",
                "note": 67,
                "velocity": 0,
                "time": 2
            },
            {
                "type": "note_on",
                "note": 36,
                "velocity": 0,
                "time": 42
            },
            {
                "type": "note_on",
                "note": 48,
                "velocity": 0,
                "time": 4
            },
            {
                "type": "note_on",
                "note": 43,
                "velocity": 88,
                "time": 8
            },
            {
                "type": "note_on",
                "note": 31,
                "velocity": 88,
                "time": 0
            },
            {
                "type": "note_on",
                "note": 58,
                "velocity": 86,
                "time": 0
            },
            {
                "type": "note_on",
                "note": 62,
                "velocity": 99,
                "time": 0
            },
            {
                "type": "note_on",
                "note": 62,
                "velocity": 0,
                "time": 58
            },
            {
                "type": "note_on",
                "note": 58,
                "velocity": 0,
                "time": 4
            },
            {
                "type": "note_on",
                "note": 55,
                "velocity": 93,
                "time": 10
            },
            {
                "type": "note_on",
                "note": 43,
                "velocity": 0,
                "time": 42
            },
            {
                "type": "note_on",
                "note": 31,
                "velocity": 0,
                "time": 4
            },
            {
                "type": "note_on",
                "note": 58,
                "velocity": 92,
                "time": 50
            },
            {
                "type": "note_on",
                "note": 55,
                "velocity": 0,
                "time": 8
            },
            {
                "type": "note_on",
                "note": 58,
                "velocity": 0,
                "time": 74
            },
            {
                "type": "note_on",
                "note": 62,
                "velocity": 94,
                "time": 14
            },
            {
                "type": "note_on",
                "note": 62,
                "velocity": 0,
                "time": 14
            },
            {
                "type": "note_on",
                "note": 36,
                "velocity": 82,
                "time": 0
            },
            {
                "type": "note_on",
                "note": 48,
                "velocity": 77,
                "time": 6
            },
            {
                "type": "note_on",
                "note": 60,
                "velocity": 79,
                "time": 4
            },
            {
                "type": "note_on",
                "note": 63,
                "velocity": 92,
                "time": 4
            },
            {
                "type": "note_on",
                "note": 67,
                "velocity": 113,
                "time": 6
            },
            {
                "type": "note_on",
                "note": 60,
                "velocity": 0,
                "time": 18
            },
            {
                "type": "note_on",
                "note": 67,
                "velocity": 0,
                "time": 44
            },
            {
                "type": "note_on",
                "note": 63,
                "velocity": 0,
                "time": 4
            },
            {
                "type": "note_on",
                "note": 60,
                "velocity": 97,
                "time": 2
            },
            {
                "type": "note_on",
                "note": 63,
                "velocity": 116,
                "time": 96
            },
            {
                "type": "note_on",
                "note": 48,
                "velocity": 0,
                "time": 48
            },
            {
                "type": "note_on",
                "note": 36,
                "velocity": 0,
                "time": 20
            },
            {
                "type": "note_on",
                "note": 60,
                "velocity": 0,
                "time": 18
            },
            {
                "type": "note_on",
                "note": 63,
                "velocity": 0,
                "time": 10
            },
            {
                "type": "note_on",
                "note": 67,
                "velocity": 116,
                "time": 0
            },
            {
                "type": "note_on",
                "note": 67,
                "velocity": 0,
                "time": 22
            },
            {
                "type": "note_on",
                "note": 32,
                "velocity": 81,
                "time": 56
            },
            {
                "type": "note_on",
                "note": 44,
                "velocity": 56,
                "time": 6
            },
            {
                "type": "note_on",
                "note": 56,
                "velocity": 60,
                "time": 6
            },
            {
                "type": "note_on",
                "note": 59,
                "velocity": 95,
                "time": 4
            },
            {
                "type": "note_on",
                "note": 63,
                "velocity": 99,
                "time": 10
            },
            {
                "type": "note_on",
                "note": 59,
                "velocity": 0,
                "time": 90
            },
            {
                "type": "note_on",
                "note": 56,
                "velocity": 0,
                "time": 0
            },
            {
                "type": "note_on",
                "note": 63,
                "velocity": 0,
                "time": 2
            },
            {
                "type": "note_on",
                "note": 32,
                "velocity": 0,
                "time": 0
            },
            {
                "type": "note_on",
                "note": 44,
                "velocity": 0,
                "time": 8
            },
            {
                "type": "note_on",
                "note": 34,
                "velocity": 76,
                "time": 0
            },
            {
                "type": "note_on",
                "note": 46,
                "velocity": 72,
                "time": 8
            },
            {
                "type": "note_on",
                "note": 56,
                "velocity": 77,
                "time": 4
            },
            {
                "type": "note_on",
                "note": 60,
                "velocity": 95,
                "time": 6
            },
            {
                "type": "note_on",
                "note": 63,
                "velocity": 109,
                "time": 8
            },
            {
                "type": "note_on",
                "note": 60,
                "velocity": 0,
                "time": 344
            },
            {
                "type": "note_on",
                "note": 56,
                "velocity": 0,
                "time": 26
            },
            {
                "type": "note_on",
                "note": 56,
                "velocity": 53,
                "time": 2
            },
            {
                "type": "note_on",
                "note": 60,
                "velocity": 67,
                "time": 0
            },
            {
                "type": "note_on",
                "note": 63,
                "velocity": 0,
                "time": 260
            },
            {
                "type": "note_on",
                "note": 34,
                "velocity": 0,
                "time": 84
            },
            {
                "type": "note_on",
                "note": 56,
                "velocity": 0,
                "time": 14
            },
            {
                "type": "note_on",
                "note": 46,
                "velocity": 0,
                "time": 6
            },
            {
                "type": "note_on",
                "note": 60,
                "velocity": 0,
                "time": 2
            },
            {
                "type": "note_on",
                "note": 39,
                "velocity": 79,
                "time": 18
            },
            {
                "type": "note_on",
                "note": 63,
                "velocity": 69,
                "time": 0
            },
            {
                "type": "note_on",
                "note": 51,
                "velocity": 70,
                "time": 0
            },
            {
                "type": "note_on",
                "note": 67,
                "velocity": 87,
                "time": 0
            },
            {
                "type": "note_on",
                "note": 63,
                "velocity": 0,
                "time": 30
            },
            {
                "type": "note_on",
                "note": 67,
                "velocity": 0,
                "time": 38
            },
            {
                "type": "note_on",
                "note": 63,
                "velocity": 92,
                "time": 2
            },
            {
                "type": "note_on",
                "note": 67,
                "velocity": 105,
                "time": 96
            },
            {
                "type": "note_on",
                "note": 63,
                "velocity": 0,
                "time": 36
            },
            {
                "type": "note_on",
                "note": 67,
                "velocity": 0,
                "time": 58
            },
            {
                "type": "note_on",
                "note": 70,
                "velocity": 102,
                "time": 2
            },
            {
                "type": "note_on",
                "note": 70,
                "velocity": 0,
                "time": 74
            },
            {
                "type": "note_on",
                "note": 72,
                "velocity": 98,
                "time": 22
            },
            {
                "type": "note_on",
                "note": 68,
                "velocity": 91,
                "time": 0
            },
            {
                "type": "note_on",
                "note": 63,
                "velocity": 78,
                "time": 0
            },
            {
                "type": "note_on",
                "note": 68,
                "velocity": 0,
                "time": 82
            },
            {
                "type": "note_on",
                "note": 63,
                "velocity": 0,
                "time": 8
            },
            {
                "type": "note_on",
                "note": 74,
                "velocity": 105,
                "time": 6
            },
            {
                "type": "note_on",
                "note": 72,
                "velocity": 0,
                "time": 2
            },
            {
                "type": "note_on",
                "note": 74,
                "velocity": 0,
                "time": 78
            },
            {
                "type": "note_on",
                "note": 68,
                "velocity": 95,
                "time": 16
            },
            {
                "type": "note_on",
                "note": 63,
                "velocity": 92,
                "time": 0
            },
            {
                "type": "note_on",
                "note": 72,
                "velocity": 102,
                "time": 0
            },
            {
                "type": "note_on",
                "note": 68,
                "velocity": 0,
                "time": 94
            },
            {
                "type": "note_on",
                "note": 63,
                "velocity": 0,
                "time": 2
            },
            {
                "type": "note_on",
                "note": 74,
                "velocity": 98,
                "time": 0
            },
            {
                "type": "note_on",
                "note": 72,
                "velocity": 0,
                "time": 2
            },
            {
                "type": "note_on",
                "note": 39,
                "velocity": 0,
                "time": 4
            },
            {
                "type": "note_on",
                "note": 51,
                "velocity": 0,
                "time": 4
            },
            {
                "type": "note_on",
                "note": 74,
                "velocity": 0,
                "time": 36
            },
            {
                "type": "note_on",
                "note": 67,
                "velocity": 78,
                "time": 8
            },
            {
                "type": "note_on",
                "note": 39,
                "velocity": 82,
                "time": 0
            },
            {
                "type": "note_on",
                "note": 70,
                "velocity": 68,
                "time": 0
            },
            {
                "type": "note_on",
                "note": 51,
                "velocity": 70,
                "time": 0
            },
            {
                "type": "note_on",
                "note": 63,
                "velocity": 73,
                "time": 0
            },
            {
                "type": "note_on",
                "note": 63,
                "velocity": 0,
                "time": 38
            },
            {
                "type": "note_on",
                "note": 63,
                "velocity": 87,
                "time": 36
            },
            {
                "type": "note_on",
                "note": 70,
                "velocity": 0,
                "time": 4
            },
            {
                "type": "note_on",
                "note": 67,
                "velocity": 0,
                "time": 2
            },
            {
                "type": "note_on",
                "note": 67,
                "velocity": 104,
                "time": 90
            },
            {
                "type": "note_on",
                "note": 63,
                "velocity": 0,
                "time": 90
            },
            {
                "type": "note_on",
                "note": 67,
                "velocity": 0,
                "time": 2
            },
            {
                "type": "note_on",
                "note": 70,
                "velocity": 104,
                "time": 4
            },
            {
                "type": "note_on",
                "note": 70,
                "velocity": 0,
                "time": 18
            },
            {
                "type": "note_on",
                "note": 69,
                "velocity": 106,
                "time": 78
            },
            {
                "type": "note_on",
                "note": 72,
                "velocity": 109,
                "time": 0
            },
            {
                "type": "note_on",
                "note": 66,
                "velocity": 94,
                "time": 0
            },
            {
                "type": "note_on",
                "note": 66,
                "velocity": 0,
                "time": 92
            },
            {
                "type": "note_on",
                "note": 69,
                "velocity": 0,
                "time": 0
            },
            {
                "type": "note_on",
                "note": 72,
                "velocity": 0,
                "time": 2
            },
            {
                "type": "note_on",
                "note": 74,
                "velocity": 98,
                "time": 2
            },
            {
                "type": "note_on",
                "note": 74,
                "velocity": 0,
                "time": 84
            },
            {
                "type": "note_on",
                "note": 69,
                "velocity": 107,
                "time": 12
            },
            {
                "type": "note_on",
                "note": 72,
                "velocity": 109,
                "time": 0
            },
            {
                "type": "note_on",
                "note": 66,
                "velocity": 97,
                "time": 0
            },
            {
                "type": "note_on",
                "note": 51,
                "velocity": 0,
                "time": 60
            },
            {
                "type": "note_on",
                "note": 39,
                "velocity": 0,
                "time": 0
            },
            {
                "type": "note_on",
                "note": 72,
                "velocity": 0,
                "time": 16
            },
            {
                "type": "note_on",
                "note": 69,
                "velocity": 0,
                "time": 20
            },
            {
                "type": "note_on",
                "note": 74,
                "velocity": 110,
                "time": 0
            },
            {
                "type": "note_on",
                "note": 66,
                "velocity": 0,
                "time": 2
            },
            {
                "type": "note_on",
                "note": 74,
                "velocity": 0,
                "time": 20
            },
            {
                "type": "note_on",
                "note": 38,
                "velocity": 93,
                "time": 2
            },
            {
                "type": "note_on",
                "note": 50,
                "velocity": 87,
                "time": 4
            },
            {
                "type": "note_on",
                "note": 62,
                "velocity": 85,
                "time": 4
            },
            {
                "type": "note_on",
                "note": 65,
                "velocity": 98,
                "time": 4
            },
            {
                "type": "note_on",
                "note": 70,
                "velocity": 98,
                "time": 10
            },
            {
                "type": "note_on",
                "note": 62,
                "velocity": 0,
                "time": 56
            },
            {
                "type": "note_on",
                "note": 62,
                "velocity": 101,
                "time": 12
            },
            {
                "type": "note_on",
                "note": 65,
                "velocity": 0,
                "time": 18
            },
            {
                "type": "note_on",
                "note": 70,
                "velocity": 0,
                "time": 0
            },
            {
                "type": "note_on",
                "note": 65,
                "velocity": 116,
                "time": 78
            },
            {
                "type": "note_on",
                "note": 50,
                "velocity": 0,
                "time": 74
            },
            {
                "type": "note_on",
                "note": 38,
                "velocity": 0,
                "time": 10
            },
            {
                "type": "note_on",
                "note": 62,
                "velocity": 0,
                "time": 12
            },
            {
                "type": "note_on",
                "note": 70,
                "velocity": 96,
                "time": 0
            },
            {
                "type": "note_on",
                "note": 65,
                "velocity": 0,
                "time": 8
            },
            {
                "type": "note_on",
                "note": 70,
                "velocity": 0,
                "time": 42
            },
            {
                "type": "note_on",
                "note": 37,
                "velocity": 86,
                "time": 8
            },
            {
                "type": "note_on",
                "note": 49,
                "velocity": 71,
                "time": 12
            },
            {
                "type": "note_on",
                "note": 65,
                "velocity": 98,
                "time": 4
            },
            {
                "type": "note_on",
                "note": 61,
                "velocity": 81,
                "time": 0
            },
            {
                "type": "note_on",
                "note": 70,
                "velocity": 99,
                "time": 0
            },
            {
                "type": "note_on",
                "note": 70,
                "velocity": 0,
                "time": 94
            },
            {
                "type": "note_on",
                "note": 72,
                "velocity": 87,
                "time": 0
            },
            {
                "type": "note_on",
                "note": 65,
                "velocity": 0,
                "time": 12
            },
            {
                "type": "note_on",
                "note": 61,
                "velocity": 0,
                "time": 0
            },
            {
                "type": "note_on",
                "note": 72,
                "velocity": 0,
                "time": 80
            },
            {
                "type": "note_on",
                "note": 65,
                "velocity": 87,
                "time": 4
            },
            {
                "type": "note_on",
                "note": 70,
                "velocity": 93,
                "time": 0
            },
            {
                "type": "note_on",
                "note": 61,
                "velocity": 78,
                "time": 0
            },
            {
                "type": "note_on",
                "note": 37,
                "velocity": 0,
                "time": 92
            },
            {
                "type": "note_on",
                "note": 70,
                "velocity": 0,
                "time": 2
            },
            {
                "type": "note_on",
                "note": 72,
                "velocity": 98,
                "time": 2
            },
            {
                "type": "note_on",
                "note": 49,
                "velocity": 0,
                "time": 6
            },
            {
                "type": "note_on",
                "note": 61,
                "velocity": 0,
                "time": 0
            },
            {
                "type": "note_on",
                "note": 65,
                "velocity": 0,
                "time": 8
            },
            {
                "type": "note_on",
                "note": 72,
                "velocity": 0,
                "time": 16
            },
            {
                "type": "note_on",
                "note": 36,
                "velocity": 84,
                "time": 6
            },
            {
                "type": "note_on",
                "note": 48,
                "velocity": 85,
                "time": 2
            },
            {
                "type": "note_on",
                "note": 60,
                "velocity": 71,
                "time": 4
            },
            {
                "type": "note_on",
                "note": 64,
                "velocity": 81,
                "time": 2
            },
            {
                "type": "note_on",
                "note": 67,
                "velocity": 91,
                "time": 2
            },
            {
                "type": "note_on",
                "note": 60,
                "velocity": 0,
                "time": 46
            },
            {
                "type": "note_on",
                "note": 60,
                "velocity": 93,
                "time": 18
            },
            {
                "type": "note_on",
                "note": 67,
                "velocity": 0,
                "time": 4
            },
            {
                "type": "note_on",
                "note": 64,
                "velocity": 0,
                "time": 16
            },
            {
                "type": "note_on",
                "note": 64,
                "velocity": 105,
                "time": 76
            },
            {
                "type": "note_on",
                "note": 64,
                "velocity": 0,
                "time": 92
            },
            {
                "type": "note_on",
                "note": 60,
                "velocity": 0,
                "time": 0
            },
            {
                "type": "note_on",
                "note": 67,
                "velocity": 114,
                "time": 4
            },
            {
                "type": "note_on",
                "note": 67,
                "velocity": 0,
                "time": 24
            },
            {
                "type": "note_on",
                "note": 70,
                "velocity": 103,
                "time": 72
            },
            {
                "type": "note_on",
                "note": 64,
                "velocity": 70,
                "time": 0
            },
            {
                "type": "note_on",
                "note": 61,
                "velocity": 101,
                "time": 0
            },
            {
                "type": "note_on",
                "note": 68,
                "velocity": 109,
                "time": 96
            },
            {
                "type": "note_on",
                "note": 70,
                "velocity": 0,
                "time": 2
            },
            {
                "type": "note_on",
                "note": 68,
                "velocity": 0,
                "time": 42
            },
            {
                "type": "note_on",
                "note": 68,
                "velocity": 100,
                "time": 52
            },
            {
                "type": "note_on",
                "note": 68,
                "velocity": 0,
                "time": 50
            },
            {
                "type": "note_on",
                "note": 64,
                "velocity": 0,
                "time": 6
            },
            {
                "type": "note_on",
                "note": 61,
                "velocity": 0,
                "time": 22
            },
            {
                "type": "note_on",
                "note": 67,
                "velocity": 70,
                "time": 18
            },
            {
                "type": "note_on",
                "note": 67,
                "velocity": 0,
                "time": 56
            },
            {
                "type": "note_on",
                "note": 67,
                "velocity": 72,
                "time": 4
            },
            {
                "type": "note_on",
                "note": 60,
                "velocity": 73,
                "time": 0
            },
            {
                "type": "note_on",
                "note": 64,
                "velocity": 74,
                "time": 0
            },
            {
                "type": "note_on",
                "note": 64,
                "velocity": 0,
                "time": 50
            },
            {
                "type": "note_on",
                "note": 64,
                "velocity": 90,
                "time": 46
            },
            {
                "type": "note_on",
                "note": 60,
                "velocity": 0,
                "time": 18
            },
            {
                "type": "note_on",
                "note": 67,
                "velocity": 0,
                "time": 38
            },
            {
                "type": "note_on",
                "note": 64,
                "velocity": 0,
                "time": 40
            },
            {
                "type": "note_on",
                "note": 60,
                "velocity": 95,
                "time": 0
            },
            {
                "type": "note_on",
                "note": 58,
                "velocity": 86,
                "time": 96
            },
            {
                "type": "note_on",
                "note": 60,
                "velocity": 0,
                "time": 8
            },
            {
                "type": "note_on",
                "note": 58,
                "velocity": 0,
                "time": 14
            },
            {
                "type": "note_on",
                "note": 36,
                "velocity": 0,
                "time": 34
            },
            {
                "type": "note_on",
                "note": 48,
                "velocity": 0,
                "time": 2
            },
            {
                "type": "note_on",
                "note": 41,
                "velocity": 85,
                "time": 0
            },
            {
                "type": "note_on",
                "note": 57,
                "velocity": 81,
                "time": 18
            },
            {
                "type": "note_on",
                "note": 65,
                "velocity": 89,
                "time": 2
            },
            {
                "type": "note_on",
                "note": 60,
                "velocity": 83,
                "time": 0
            },
            {
                "type": "note_on",
                "note": 69,
                "velocity": 66,
                "time": 88
            },
            {
                "type": "note_on",
                "note": 77,
                "velocity": 90,
                "time": 96
            },
            {
                "type": "note_on",
                "note": 65,
                "velocity": 0,
                "time": 96
            },
            {
                "type": "note_on",
                "note": 65,
                "velocity": 45,
                "time": 0
            },
            {
                "type": "note_on",
                "note": 70,
                "velocity": 60,
                "time": 96
            },
            {
                "type": "note_on",
                "note": 74,
                "velocity": 83,
                "time": 0
            },
            {
                "type": "note_on",
                "note": 77,
                "velocity": 0,
                "time": 96
            },
            {
                "type": "note_on",
                "note": 77,
                "velocity": 82,
                "time": 0
            },
            {
                "type": "note_on",
                "note": 69,
                "velocity": 0,
                "time": 96
            },
            {
                "type": "note_on",
                "note": 72,
                "velocity": 77,
                "time": 0
            },
            {
                "type": "note_on",
                "note": 69,
                "velocity": 70,
                "time": 0
            },
            {
                "type": "note_on",
                "note": 77,
                "velocity": 0,
                "time": 96
            },
            {
                "type": "note_on",
                "note": 77,
                "velocity": 73,
                "time": 0
            },
            {
                "type": "note_on",
                "note": 71,
                "velocity": 86,
                "time": 96
            },
            {
                "type": "note_on",
                "note": 68,
                "velocity": 64,
                "time": 0
            },
            {
                "type": "note_on",
                "note": 77,
                "velocity": 0,
                "time": 96
            },
            {
                "type": "note_on",
                "note": 77,
                "velocity": 83,
                "time": 0
            },
            {
                "type": "note_on",
                "note": 70,
                "velocity": 0,
                "time": 96
            },
            {
                "type": "note_on",
                "note": 67,
                "velocity": 77,
                "time": 0
            },
            {
                "type": "note_on",
                "note": 70,
                "velocity": 61,
                "time": 0
            },
            {
                "type": "note_on",
                "note": 77,
                "velocity": 0,
                "time": 48
            },
            {
                "type": "note_on",
                "note": 77,
                "velocity": 73,
                "time": 32
            },
            {
                "type": "note_on",
                "note": 77,
                "velocity": 0,
                "time": 96
            },
            {
                "type": "note_on",
                "note": 41,
                "velocity": 0,
                "time": 4
            },
            {
                "type": "note_on",
                "note": 60,
                "velocity": 0,
                "time": 2
            },
            {
                "type": "note_on",
                "note": 68,
                "velocity": 0,
                "time": 2
            },
            {
                "type": "note_on",
                "note": 69,
                "velocity": 0,
                "time": 0
            },
            {
                "type": "note_on",
                "note": 71,
                "velocity": 0,
                "time": 0
            },
            {
                "type": "note_on",
                "note": 72,
                "velocity": 0,
                "time": 0
            },
            {
                "type": "note_on",
                "note": 65,
                "velocity": 0,
                "time": 0
            },
            {
                "type": "note_on",
                "note": 67,
                "velocity": 0,
                "time": 0
            },
            {
                "type": "note_on",
                "note": 74,
                "velocity": 0,
                "time": 0
            },
            {
                "type": "note_on",
                "note": 70,
                "velocity": 0,
                "time": 0
            },
            {
                "type": "note_on",
                "note": 53,
                "velocity": 61,
                "time": 0
            },
            {
                "type": "note_on",
                "note": 60,
                "velocity": 46,
                "time": 4
            },
            {
                "type": "note_on",
                "note": 57,
                "velocity": 0,
                "time": 2
            },
            {
                "type": "note_on",
                "note": 57,
                "velocity": 45,
                "time": 4
            },
            {
                "type": "note_on",
                "note": 41,
                "velocity": 42,
                "time": 4
            },
            {
                "type": "note_on",
                "note": 53,
                "velocity": 0,
                "time": 118
            },
            {
                "type": "note_on",
                "note": 60,
                "velocity": 0,
                "time": 4
            },
            {
                "type": "note_on",
                "note": 57,
                "velocity": 0,
                "time": 6
            },
            {
                "type": "note_on",
                "note": 41,
                "velocity": 0,
                "time": 4
            }
        ]
    },
    {
        "track": 2,
        "notes": [
            {
                "type": "note_on",
                "note": 34,
                "velocity": 96,
                "time": 11306
            },
            {
                "type": "note_on",
                "note": 34,
                "velocity": 0,
                "time": 722
            },
            {
                "type": "note_on",
                "note": 34,
                "velocity": 117,
                "time": 44
            },
            {
                "type": "note_on",
                "note": 34,
                "velocity": 0,
                "time": 712
            },
            {
                "type": "note_on",
                "note": 34,
                "velocity": 107,
                "time": 56
            },
            {
                "type": "note_on",
                "note": 34,
                "velocity": 0,
                "time": 712
            },
            {
                "type": "note_on",
                "note": 31,
                "velocity": 105,
                "time": 62
            },
            {
                "type": "note_on",
                "note": 31,
                "velocity": 0,
                "time": 698
            },
            {
                "type": "note_on",
                "note": 36,
                "velocity": 115,
                "time": 70
            },
            {
                "type": "note_on",
                "note": 36,
                "velocity": 0,
                "time": 712
            },
            {
                "type": "note_on",
                "note": 36,
                "velocity": 108,
                "time": 52
            },
            {
                "type": "note_on",
                "note": 36,
                "velocity": 0,
                "time": 376
            },
            {
                "type": "note_on",
                "note": 53,
                "velocity": 104,
                "time": 14
            },
            {
                "type": "note_on",
                "note": 53,
                "velocity": 0,
                "time": 4
            },
            {
                "type": "note_on",
                "note": 34,
                "velocity": 111,
                "time": 4
            },
            {
                "type": "note_on",
                "note": 34,
                "velocity": 0,
                "time": 726
            },
            {
                "type": "note_on",
                "note": 31,
                "velocity": 111,
                "time": 30
            },
            {
                "type": "note_on",
                "note": 31,
                "velocity": 0,
                "time": 738
            },
            {
                "type": "note_on",
                "note": 36,
                "velocity": 114,
                "time": 26
            },
            {
                "type": "note_on",
                "note": 36,
                "velocity": 0,
                "time": 322
            },
            {
                "type": "note_on",
                "note": 35,
                "velocity": 116,
                "time": 64
            },
            {
                "type": "note_on",
                "note": 35,
                "velocity": 0,
                "time": 118
            },
            {
                "type": "note_on",
                "note": 34,
                "velocity": 112,
                "time": 72
            },
            {
                "type": "note_on",
                "note": 34,
                "velocity": 0,
                "time": 126
            },
            {
                "type": "note_on",
                "note": 33,
                "velocity": 109,
                "time": 68
            },
            {
                "type": "note_on",
                "note": 33,
                "velocity": 0,
                "time": 332
            },
            {
                "type": "note_on",
                "note": 32,
                "velocity": 113,
                "time": 48
            },
            {
                "type": "note_on",
                "note": 32,
                "velocity": 0,
                "time": 138
            },
            {
                "type": "note_on",
                "note": 31,
                "velocity": 111,
                "time": 54
            },
            {
                "type": "note_on",
                "note": 31,
                "velocity": 0,
                "time": 114
            },
            {
                "type": "note_on",
                "note": 39,
                "velocity": 117,
                "time": 84
            },
            {
                "type": "note_on",
                "note": 38,
                "velocity": 112,
                "time": 578
            },
            {
                "type": "note_on",
                "note": 39,
                "velocity": 0,
                "time": 8
            },
            {
                "type": "note_on",
                "note": 38,
                "velocity": 0,
                "time": 184
            },
            {
                "type": "note_on",
                "note": 36,
                "velocity": 108,
                "time": 4
            },
            {
                "type": "note_on",
                "note": 36,
                "velocity": 0,
                "time": 722
            },
            {
                "type": "note_on",
                "note": 41,
                "velocity": 117,
                "time": 36
            },
            {
                "type": "note_on",
                "note": 41,
                "velocity": 0,
                "time": 286
            },
            {
                "type": "note_on",
                "note": 40,
                "velocity": 108,
                "time": 8
            },
            {
                "type": "note_on",
                "note": 40,
                "velocity": 0,
                "time": 70
            },
            {
                "type": "note_on",
                "note": 39,
                "velocity": 117,
                "time": 22
            },
            {
                "type": "note_on",
                "note": 39,
                "velocity": 0,
                "time": 180
            },
            {
                "type": "note_on",
                "note": 38,
                "velocity": 114,
                "time": 14
            },
            {
                "type": "note_on",
                "note": 38,
                "velocity": 0,
                "time": 160
            },
            {
                "type": "note_on",
                "note": 34,
                "velocity": 115,
                "time": 32
            },
            {
                "type": "note_on",
                "note": 34,
                "velocity": 0,
                "time": 340
            },
            {
                "type": "note_on",
                "note": 34,
                "velocity": 109,
                "time": 8
            },
            {
                "type": "note_on",
                "note": 34,
                "velocity": 0,
                "time": 18
            },
            {
                "type": "note_on",
                "note": 34,
                "velocity": 117,
                "time": 20
            },
            {
                "type": "note_on",
                "note": 34,
                "velocity": 0,
                "time": 124
            },
            {
                "type": "note_on",
                "note": 34,
                "velocity": 94,
                "time": 28
            },
            {
                "type": "note_on",
                "note": 34,
                "velocity": 0,
                "time": 22
            },
            {
                "type": "note_on",
                "note": 34,
                "velocity": 99,
                "time": 22
            },
            {
                "type": "note_on",
                "note": 34,
                "velocity": 0,
                "time": 18
            },
            {
                "type": "note_on",
                "note": 34,
                "velocity": 102,
                "time": 26
            },
            {
                "type": "note_on",
                "note": 34,
                "velocity": 0,
                "time": 24
            },
            {
                "type": "note_on",
                "note": 34,
                "velocity": 117,
                "time": 28
            },
            {
                "type": "note_on",
                "note": 34,
                "velocity": 0,
                "time": 20
            },
            {
                "type": "note_on",
                "note": 39,
                "velocity": 93,
                "time": 2
            },
            {
                "type": "note_on",
                "note": 39,
                "velocity": 0,
                "time": 288
            },
            {
                "type": "note_on",
                "note": 38,
                "velocity": 93,
                "time": 80
            },
            {
                "type": "note_on",
                "note": 38,
                "velocity": 0,
                "time": 342
            },
            {
                "type": "note_on",
                "note": 36,
                "velocity": 102,
                "time": 50
            },
            {
                "type": "note_on",
                "note": 36,
                "velocity": 0,
                "time": 314
            },
            {
                "type": "note_on",
                "note": 44,
                "velocity": 107,
                "time": 66
            },
            {
                "type": "note_on",
                "note": 44,
                "velocity": 0,
                "time": 32
            },
            {
                "type": "note_on",
                "note": 51,
                "velocity": 83,
                "time": 2
            },
            {
                "type": "note_on",
                "note": 51,
                "velocity": 0,
                "time": 478
            },
            {
                "type": "note_on",
                "note": 34,
                "velocity": 113,
                "time": 678
            },
            {
                "type": "note_on",
                "note": 34,
                "velocity": 0,
                "time": 698
            },
            {
                "type": "note_on",
                "note": 34,
                "velocity": 117,
                "time": 62
            },
            {
                "type": "note_on",
                "note": 34,
                "velocity": 0,
                "time": 714
            },
            {
                "type": "note_on",
                "note": 34,
                "velocity": 107,
                "time": 56
            },
            {
                "type": "note_on",
                "note": 34,
                "velocity": 0,
                "time": 766
            },
            {
                "type": "note_on",
                "note": 31,
                "velocity": 112,
                "time": 0
            },
            {
                "type": "note_on",
                "note": 36,
                "velocity": 115,
                "time": 772
            },
            {
                "type": "note_on",
                "note": 31,
                "velocity": 0,
                "time": 2
            },
            {
                "type": "note_on",
                "note": 36,
                "velocity": 0,
                "time": 720
            },
            {
                "type": "note_on",
                "note": 36,
                "velocity": 106,
                "time": 44
            },
            {
                "type": "note_on",
                "note": 53,
                "velocity": 98,
                "time": 376
            },
            {
                "type": "note_on",
                "note": 36,
                "velocity": 0,
                "time": 16
            },
            {
                "type": "note_on",
                "note": 53,
                "velocity": 0,
                "time": 14
            },
            {
                "type": "note_on",
                "note": 34,
                "velocity": 107,
                "time": 2
            },
            {
                "type": "note_on",
                "note": 34,
                "velocity": 0,
                "time": 744
            },
            {
                "type": "note_on",
                "note": 31,
                "velocity": 103,
                "time": 6
            },
            {
                "type": "note_on",
                "note": 31,
                "velocity": 0,
                "time": 700
            },
            {
                "type": "note_on",
                "note": 36,
                "velocity": 111,
                "time": 80
            },
            {
                "type": "note_on",
                "note": 36,
                "velocity": 0,
                "time": 290
            },
            {
                "type": "note_on",
                "note": 35,
                "velocity": 117,
                "time": 80
            },
            {
                "type": "note_on",
                "note": 35,
                "velocity": 0,
                "time": 126
            },
            {
                "type": "note_on",
                "note": 34,
                "velocity": 112,
                "time": 72
            },
            {
                "type": "note_on",
                "note": 34,
                "velocity": 0,
                "time": 120
            },
            {
                "type": "note_on",
                "note": 33,
                "velocity": 121,
                "time": 74
            },
            {
                "type": "note_on",
                "note": 33,
                "velocity": 0,
                "time": 308
            },
            {
                "type": "note_on",
                "note": 32,
                "velocity": 127,
                "time": 84
            },
            {
                "type": "note_on",
                "note": 32,
                "velocity": 0,
                "time": 140
            },
            {
                "type": "note_on",
                "note": 31,
                "velocity": 122,
                "time": 42
            },
            {
                "type": "note_on",
                "note": 31,
                "velocity": 0,
                "time": 122
            },
            {
                "type": "note_on",
                "note": 39,
                "velocity": 127,
                "time": 70
            },
            {
                "type": "note_on",
                "note": 39,
                "velocity": 0,
                "time": 566
            },
            {
                "type": "note_on",
                "note": 38,
                "velocity": 127,
                "time": 8
            },
            {
                "type": "note_on",
                "note": 38,
                "velocity": 0,
                "time": 206
            },
            {
                "type": "note_on",
                "note": 36,
                "velocity": 118,
                "time": 4
            },
            {
                "type": "note_on",
                "note": 36,
                "velocity": 0,
                "time": 696
            },
            {
                "type": "note_on",
                "note": 41,
                "velocity": 127,
                "time": 54
            },
            {
                "type": "note_on",
                "note": 41,
                "velocity": 0,
                "time": 240
            },
            {
                "type": "note_on",
                "note": 40,
                "velocity": 122,
                "time": 50
            },
            {
                "type": "note_on",
                "note": 40,
                "velocity": 0,
                "time": 66
            },
            {
                "type": "note_on",
                "note": 39,
                "velocity": 123,
                "time": 26
            },
            {
                "type": "note_on",
                "note": 39,
                "velocity": 0,
                "time": 170
            },
            {
                "type": "note_on",
                "note": 38,
                "velocity": 121,
                "time": 16
            },
            {
                "type": "note_on",
                "note": 38,
                "velocity": 0,
                "time": 152
            },
            {
                "type": "note_on",
                "note": 34,
                "velocity": 101,
                "time": 46
            },
            {
                "type": "note_on",
                "note": 34,
                "velocity": 0,
                "time": 74
            },
            {
                "type": "note_on",
                "note": 34,
                "velocity": 88,
                "time": 26
            },
            {
                "type": "note_on",
                "note": 34,
                "velocity": 0,
                "time": 22
            },
            {
                "type": "note_on",
                "note": 34,
                "velocity": 88,
                "time": 18
            },
            {
                "type": "note_on",
                "note": 34,
                "velocity": 0,
                "time": 28
            },
            {
                "type": "note_on",
                "note": 34,
                "velocity": 109,
                "time": 22
            },
            {
                "type": "note_on",
                "note": 34,
                "velocity": 0,
                "time": 80
            },
            {
                "type": "note_on",
                "note": 34,
                "velocity": 98,
                "time": 20
            },
            {
                "type": "note_on",
                "note": 34,
                "velocity": 0,
                "time": 24
            },
            {
                "type": "note_on",
                "note": 34,
                "velocity": 93,
                "time": 24
            },
            {
                "type": "note_on",
                "note": 34,
                "velocity": 0,
                "time": 22
            },
            {
                "type": "note_on",
                "note": 34,
                "velocity": 115,
                "time": 26
            },
            {
                "type": "note_on",
                "note": 34,
                "velocity": 0,
                "time": 22
            },
            {
                "type": "note_on",
                "note": 34,
                "velocity": 109,
                "time": 28
            },
            {
                "type": "note_on",
                "note": 34,
                "velocity": 0,
                "time": 20
            },
            {
                "type": "note_on",
                "note": 34,
                "velocity": 106,
                "time": 26
            },
            {
                "type": "note_on",
                "note": 34,
                "velocity": 0,
                "time": 20
            },
            {
                "type": "note_on",
                "note": 34,
                "velocity": 110,
                "time": 30
            },
            {
                "type": "note_on",
                "note": 34,
                "velocity": 0,
                "time": 20
            },
            {
                "type": "note_on",
                "note": 34,
                "velocity": 113,
                "time": 30
            },
            {
                "type": "note_on",
                "note": 34,
                "velocity": 0,
                "time": 20
            },
            {
                "type": "note_on",
                "note": 34,
                "velocity": 106,
                "time": 26
            },
            {
                "type": "note_on",
                "note": 34,
                "velocity": 0,
                "time": 20
            },
            {
                "type": "note_on",
                "note": 34,
                "velocity": 116,
                "time": 22
            },
            {
                "type": "note_on",
                "note": 34,
                "velocity": 0,
                "time": 22
            },
            {
                "type": "note_on",
                "note": 34,
                "velocity": 105,
                "time": 24
            },
            {
                "type": "note_on",
                "note": 34,
                "velocity": 0,
                "time": 54
            },
            {
                "type": "note_on",
                "note": 39,
                "velocity": 127,
                "time": 6
            },
            {
                "type": "note_on",
                "note": 39,
                "velocity": 0,
                "time": 362
            },
            {
                "type": "note_on",
                "note": 38,
                "velocity": 127,
                "time": 16
            },
            {
                "type": "note_on",
                "note": 38,
                "velocity": 0,
                "time": 262
            },
            {
                "type": "note_on",
                "note": 38,
                "velocity": 111,
                "time": 28
            },
            {
                "type": "note_on",
                "note": 38,
                "velocity": 0,
                "time": 68
            },
            {
                "type": "note_on",
                "note": 36,
                "velocity": 125,
                "time": 28
            },
            {
                "type": "note_on",
                "note": 36,
                "velocity": 0,
                "time": 742
            },
            {
                "type": "note_on",
                "note": 41,
                "velocity": 124,
                "time": 24
            },
            {
                "type": "note_on",
                "note": 41,
                "velocity": 0,
                "time": 264
            },
            {
                "type": "note_on",
                "note": 40,
                "velocity": 116,
                "time": 28
            },
            {
                "type": "note_on",
                "note": 40,
                "velocity": 0,
                "time": 56
            },
            {
                "type": "note_on",
                "note": 39,
                "velocity": 125,
                "time": 40
            },
            {
                "type": "note_on",
                "note": 39,
                "velocity": 0,
                "time": 136
            },
            {
                "type": "note_on",
                "note": 38,
                "velocity": 123,
                "time": 46
            },
            {
                "type": "note_on",
                "note": 38,
                "velocity": 0,
                "time": 124
            },
            {
                "type": "note_on",
                "note": 34,
                "velocity": 105,
                "time": 72
            },
            {
                "type": "note_on",
                "note": 34,
                "velocity": 0,
                "time": 70
            },
            {
                "type": "note_on",
                "note": 34,
                "velocity": 103,
                "time": 34
            },
            {
                "type": "note_on",
                "note": 34,
                "velocity": 0,
                "time": 22
            },
            {
                "type": "note_on",
                "note": 34,
                "velocity": 94,
                "time": 26
            },
            {
                "type": "note_on",
                "note": 34,
                "velocity": 0,
                "time": 24
            },
            {
                "type": "note_on",
                "note": 34,
                "velocity": 105,
                "time": 24
            },
            {
                "type": "note_on",
                "note": 34,
                "velocity": 0,
                "time": 48
            },
            {
                "type": "note_on",
                "note": 34,
                "velocity": 96,
                "time": 42
            },
            {
                "type": "note_on",
                "note": 39,
                "velocity": 102,
                "time": 46
            },
            {
                "type": "note_on",
                "note": 34,
                "velocity": 0,
                "time": 12
            },
            {
                "type": "note_on",
                "note": 39,
                "velocity": 0,
                "time": 8
            },
            {
                "type": "note_on",
                "note": 46,
                "velocity": 105,
                "time": 26
            },
            {
                "type": "note_on",
                "note": 46,
                "velocity": 0,
                "time": 72
            },
            {
                "type": "note_on",
                "note": 46,
                "velocity": 112,
                "time": 32
            },
            {
                "type": "note_on",
                "note": 46,
                "velocity": 0,
                "time": 22
            },
            {
                "type": "note_on",
                "note": 46,
                "velocity": 105,
                "time": 28
            },
            {
                "type": "note_on",
                "note": 46,
                "velocity": 0,
                "time": 18
            },
            {
                "type": "note_on",
                "note": 46,
                "velocity": 105,
                "time": 20
            },
            {
                "type": "note_on",
                "note": 46,
                "velocity": 0,
                "time": 50
            },
            {
                "type": "note_on",
                "note": 41,
                "velocity": 108,
                "time": 0
            },
            {
                "type": "note_on",
                "note": 41,
                "velocity": 0,
                "time": 44
            },
            {
                "type": "note_on",
                "note": 36,
                "velocity": 127,
                "time": 14
            },
            {
                "type": "note_on",
                "note": 36,
                "velocity": 0,
                "time": 14
            },
            {
                "type": "note_on",
                "note": 39,
                "velocity": 127,
                "time": 2
            },
            {
                "type": "note_on",
                "note": 39,
                "velocity": 0,
                "time": 148
            },
            {
                "type": "note_on",
                "note": 39,
                "velocity": 123,
                "time": 38
            },
            {
                "type": "note_on",
                "note": 39,
                "velocity": 0,
                "time": 76
            },
            {
                "type": "note_on",
                "note": 39,
                "velocity": 112,
                "time": 22
            },
            {
                "type": "note_on",
                "note": 39,
                "velocity": 0,
                "time": 16
            },
            {
                "type": "note_on",
                "note": 39,
                "velocity": 127,
                "time": 32
            },
            {
                "type": "note_on",
                "note": 39,
                "velocity": 0,
                "time": 22
            },
            {
                "type": "note_on",
                "note": 38,
                "velocity": 125,
                "time": 24
            },
            {
                "type": "note_on",
                "note": 38,
                "velocity": 0,
                "time": 100
            },
            {
                "type": "note_on",
                "note": 38,
                "velocity": 113,
                "time": 12
            },
            {
                "type": "note_on",
                "note": 38,
                "velocity": 0,
                "time": 22
            },
            {
                "type": "note_on",
                "note": 38,
                "velocity": 112,
                "time": 18
            },
            {
                "type": "note_on",
                "note": 38,
                "velocity": 0,
                "time": 20
            },
            {
                "type": "note_on",
                "note": 38,
                "velocity": 125,
                "time": 30
            },
            {
                "type": "note_on",
                "note": 38,
                "velocity": 0,
                "time": 68
            },
            {
                "type": "note_on",
                "note": 38,
                "velocity": 122,
                "time": 26
            },
            {
                "type": "note_on",
                "note": 38,
                "velocity": 0,
                "time": 38
            },
            {
                "type": "note_on",
                "note": 36,
                "velocity": 126,
                "time": 52
            },
            {
                "type": "note_on",
                "note": 36,
                "velocity": 0,
                "time": 244
            },
            {
                "type": "note_on",
                "note": 36,
                "velocity": 114,
                "time": 48
            },
            {
                "type": "note_on",
                "note": 36,
                "velocity": 0,
                "time": 34
            },
            {
                "type": "note_on",
                "note": 36,
                "velocity": 119,
                "time": 54
            },
            {
                "type": "note_on",
                "note": 43,
                "velocity": 113,
                "time": 240
            },
            {
                "type": "note_on",
                "note": 36,
                "velocity": 0,
                "time": 12
            },
            {
                "type": "note_on",
                "note": 43,
                "velocity": 0,
                "time": 40
            },
            {
                "type": "note_on",
                "note": 48,
                "velocity": 115,
                "time": 2
            },
            {
                "type": "note_on",
                "note": 43,
                "velocity": 110,
                "time": 48
            },
            {
                "type": "note_on",
                "note": 48,
                "velocity": 0,
                "time": 10
            },
            {
                "type": "note_on",
                "note": 43,
                "velocity": 0,
                "time": 26
            },
            {
                "type": "note_on",
                "note": 41,
                "velocity": 121,
                "time": 18
            },
            {
                "type": "note_on",
                "note": 41,
                "velocity": 0,
                "time": 218
            },
            {
                "type": "note_on",
                "note": 40,
                "velocity": 118,
                "time": 64
            },
            {
                "type": "note_on",
                "note": 40,
                "velocity": 0,
                "time": 42
            },
            {
                "type": "note_on",
                "note": 39,
                "velocity": 127,
                "time": 56
            },
            {
                "type": "note_on",
                "note": 39,
                "velocity": 0,
                "time": 152
            },
            {
                "type": "note_on",
                "note": 38,
                "velocity": 119,
                "time": 32
            },
            {
                "type": "note_on",
                "note": 38,
                "velocity": 0,
                "time": 114
            },
            {
                "type": "note_on",
                "note": 37,
                "velocity": 127,
                "time": 74
            },
            {
                "type": "note_on",
                "note": 37,
                "velocity": 0,
                "time": 230
            },
            {
                "type": "note_on",
                "note": 37,
                "velocity": 125,
                "time": 34
            },
            {
                "type": "note_on",
                "note": 37,
                "velocity": 0,
                "time": 36
            },
            {
                "type": "note_on",
                "note": 36,
                "velocity": 121,
                "time": 20
            },
            {
                "type": "note_on",
                "note": 36,
                "velocity": 0,
                "time": 42
            },
            {
                "type": "note_on",
                "note": 35,
                "velocity": 127,
                "time": 22
            },
            {
                "type": "note_on",
                "note": 35,
                "velocity": 0,
                "time": 126
            },
            {
                "type": "note_on",
                "note": 34,
                "velocity": 122,
                "time": 80
            },
            {
                "type": "note_on",
                "note": 34,
                "velocity": 0,
                "time": 88
            },
            {
                "type": "note_on",
                "note": 35,
                "velocity": 92,
                "time": 6
            },
            {
                "type": "note_on",
                "note": 36,
                "velocity": 91,
                "time": 18
            },
            {
                "type": "note_on",
                "note": 35,
                "velocity": 0,
                "time": 4
            },
            {
                "type": "note_on",
                "note": 37,
                "velocity": 90,
                "time": 10
            },
            {
                "type": "note_on",
                "note": 36,
                "velocity": 0,
                "time": 2
            },
            {
                "type": "note_on",
                "note": 37,
                "velocity": 0,
                "time": 10
            },
            {
                "type": "note_on",
                "note": 38,
                "velocity": 89,
                "time": 2
            },
            {
                "type": "note_on",
                "note": 38,
                "velocity": 0,
                "time": 10
            },
            {
                "type": "note_on",
                "note": 39,
                "velocity": 88,
                "time": 2
            },
            {
                "type": "note_on",
                "note": 39,
                "velocity": 0,
                "time": 10
            },
            {
                "type": "note_on",
                "note": 40,
                "velocity": 86,
                "time": 6
            },
            {
                "type": "note_on",
                "note": 40,
                "velocity": 0,
                "time": 10
            },
            {
                "type": "note_on",
                "note": 41,
                "velocity": 84,
                "time": 4
            },
            {
                "type": "note_on",
                "note": 33,
                "velocity": 120,
                "time": 6
            },
            {
                "type": "note_on",
                "note": 41,
                "velocity": 0,
                "time": 4
            },
            {
                "type": "note_on",
                "note": 33,
                "velocity": 0,
                "time": 36
            },
            {
                "type": "note_on",
                "note": 39,
                "velocity": 106,
                "time": 11092
            },
            {
                "type": "note_on",
                "note": 39,
                "velocity": 0,
                "time": 180
            },
            {
                "type": "note_on",
                "note": 39,
                "velocity": 106,
                "time": 28
            },
            {
                "type": "note_on",
                "note": 39,
                "velocity": 0,
                "time": 54
            },
            {
                "type": "note_on",
                "note": 39,
                "velocity": 109,
                "time": 34
            },
            {
                "type": "note_on",
                "note": 39,
                "velocity": 0,
                "time": 48
            },
            {
                "type": "note_on",
                "note": 39,
                "velocity": 127,
                "time": 38
            },
            {
                "type": "note_on",
                "note": 39,
                "velocity": 0,
                "time": 114
            },
            {
                "type": "note_on",
                "note": 39,
                "velocity": 121,
                "time": 86
            },
            {
                "type": "note_on",
                "note": 39,
                "velocity": 0,
                "time": 94
            },
            {
                "type": "note_on",
                "note": 39,
                "velocity": 121,
                "time": 92
            },
            {
                "type": "note_on",
                "note": 39,
                "velocity": 0,
                "time": 64
            },
            {
                "type": "note_on",
                "note": 39,
                "velocity": 113,
                "time": 32
            },
            {
                "type": "note_on",
                "note": 39,
                "velocity": 0,
                "time": 68
            },
            {
                "type": "note_on",
                "note": 39,
                "velocity": 116,
                "time": 32
            },
            {
                "type": "note_on",
                "note": 39,
                "velocity": 0,
                "time": 140
            },
            {
                "type": "note_on",
                "note": 39,
                "velocity": 117,
                "time": 38
            },
            {
                "type": "note_on",
                "note": 39,
                "velocity": 0,
                "time": 114
            },
            {
                "type": "note_on",
                "note": 39,
                "velocity": 118,
                "time": 92
            },
            {
                "type": "note_on",
                "note": 39,
                "velocity": 0,
                "time": 92
            },
            {
                "type": "note_on",
                "note": 44,
                "velocity": 123,
                "time": 94
            },
            {
                "type": "note_on",
                "note": 44,
                "velocity": 0,
                "time": 176
            },
            {
                "type": "note_on",
                "note": 44,
                "velocity": 110,
                "time": 36
            },
            {
                "type": "note_on",
                "note": 44,
                "velocity": 0,
                "time": 48
            },
            {
                "type": "note_on",
                "note": 44,
                "velocity": 110,
                "time": 36
            },
            {
                "type": "note_on",
                "note": 44,
                "velocity": 0,
                "time": 64
            },
            {
                "type": "note_on",
                "note": 43,
                "velocity": 120,
                "time": 26
            },
            {
                "type": "note_on",
                "note": 43,
                "velocity": 0,
                "time": 160
            },
            {
                "type": "note_on",
                "note": 44,
                "velocity": 111,
                "time": 38
            },
            {
                "type": "note_on",
                "note": 44,
                "velocity": 0,
                "time": 68
            },
            {
                "type": "note_on",
                "note": 43,
                "velocity": 119,
                "time": 18
            },
            {
                "type": "note_on",
                "note": 43,
                "velocity": 0,
                "time": 74
            },
            {
                "type": "note_on",
                "note": 41,
                "velocity": 116,
                "time": 26
            },
            {
                "type": "note_on",
                "note": 41,
                "velocity": 0,
                "time": 92
            },
            {
                "type": "note_on",
                "note": 39,
                "velocity": 109,
                "time": 0
            },
            {
                "type": "note_on",
                "note": 39,
                "velocity": 0,
                "time": 82
            },
            {
                "type": "note_on",
                "note": 38,
                "velocity": 116,
                "time": 20
            },
            {
                "type": "note_on",
                "note": 38,
                "velocity": 0,
                "time": 78
            },
            {
                "type": "note_on",
                "note": 36,
                "velocity": 104,
                "time": 12
            },
            {
                "type": "note_on",
                "note": 36,
                "velocity": 0,
                "time": 78
            },
            {
                "type": "note_on",
                "note": 34,
                "velocity": 124,
                "time": 22
            },
            {
                "type": "note_on",
                "note": 34,
                "velocity": 0,
                "time": 78
            },
            {
                "type": "note_on",
                "note": 34,
                "velocity": 104,
                "time": 2428
            },
            {
                "type": "note_on",
                "note": 34,
                "velocity": 0,
                "time": 88
            },
            {
                "type": "note_on",
                "note": 39,
                "velocity": 127,
                "time": 94
            },
            {
                "type": "note_on",
                "note": 39,
                "velocity": 0,
                "time": 68
            },
            {
                "type": "note_on",
                "note": 34,
                "velocity": 109,
                "time": 126
            },
            {
                "type": "note_on",
                "note": 34,
                "velocity": 0,
                "time": 82
            },
            {
                "type": "note_on",
                "note": 39,
                "velocity": 126,
                "time": 114
            },
            {
                "type": "note_on",
                "note": 39,
                "velocity": 0,
                "time": 246
            },
            {
                "type": "note_on",
                "note": 34,
                "velocity": 116,
                "time": 1090
            },
            {
                "type": "note_on",
                "note": 34,
                "velocity": 0,
                "time": 82
            },
            {
                "type": "note_on",
                "note": 39,
                "velocity": 121,
                "time": 122
            },
            {
                "type": "note_on",
                "note": 39,
                "velocity": 0,
                "time": 68
            },
            {
                "type": "note_on",
                "note": 34,
                "velocity": 117,
                "time": 122
            },
            {
                "type": "note_on",
                "note": 34,
                "velocity": 0,
                "time": 80
            },
            {
                "type": "note_on",
                "note": 34,
                "velocity": 127,
                "time": 1064
            },
            {
                "type": "note_on",
                "note": 34,
                "velocity": 0,
                "time": 108
            },
            {
                "type": "note_on",
                "note": 39,
                "velocity": 127,
                "time": 100
            },
            {
                "type": "note_on",
                "note": 39,
                "velocity": 0,
                "time": 82
            },
            {
                "type": "note_on",
                "note": 34,
                "velocity": 127,
                "time": 106
            },
            {
                "type": "note_on",
                "note": 34,
                "velocity": 0,
                "time": 86
            },
            {
                "type": "note_on",
                "note": 35,
                "velocity": 119,
                "time": 3164
            },
            {
                "type": "note_on",
                "note": 35,
                "velocity": 0,
                "time": 102
            },
            {
                "type": "note_on",
                "note": 33,
                "velocity": 119,
                "time": 110
            },
            {
                "type": "note_on",
                "note": 33,
                "velocity": 0,
                "time": 100
            },
            {
                "type": "note_on",
                "note": 38,
                "velocity": 127,
                "time": 70
            },
            {
                "type": "note_on",
                "note": 38,
                "velocity": 0,
                "time": 96
            },
            {
                "type": "note_on",
                "note": 37,
                "velocity": 123,
                "time": 96
            },
            {
                "type": "note_on",
                "note": 37,
                "velocity": 0,
                "time": 86
            },
            {
                "type": "note_on",
                "note": 42,
                "velocity": 127,
                "time": 110
            },
            {
                "type": "note_on",
                "note": 42,
                "velocity": 0,
                "time": 78
            },
            {
                "type": "note_on",
                "note": 34,
                "velocity": 123,
                "time": 116
            },
            {
                "type": "note_on",
                "note": 34,
                "velocity": 0,
                "time": 82
            },
            {
                "type": "note_on",
                "note": 39,
                "velocity": 127,
                "time": 110
            },
            {
                "type": "note_on",
                "note": 39,
                "velocity": 0,
                "time": 72
            },
            {
                "type": "note_on",
                "note": 39,
                "velocity": 116,
                "time": 892
            },
            {
                "type": "note_on",
                "note": 39,
                "velocity": 0,
                "time": 40
            },
            {
                "type": "note_on",
                "note": 39,
                "velocity": 116,
                "time": 64
            },
            {
                "type": "note_on",
                "note": 39,
                "velocity": 0,
                "time": 76
            },
            {
                "type": "note_on",
                "note": 44,
                "velocity": 117,
                "time": 14
            },
            {
                "type": "note_on",
                "note": 39,
                "velocity": 123,
                "time": 88
            },
            {
                "type": "note_on",
                "note": 44,
                "velocity": 0,
                "time": 20
            },
            {
                "type": "note_on",
                "note": 39,
                "velocity": 0,
                "time": 52
            },
            {
                "type": "note_on",
                "note": 38,
                "velocity": 119,
                "time": 18
            },
            {
                "type": "note_on",
                "note": 38,
                "velocity": 0,
                "time": 66
            },
            {
                "type": "note_on",
                "note": 36,
                "velocity": 112,
                "time": 32
            },
            {
                "type": "note_on",
                "note": 36,
                "velocity": 0,
                "time": 66
            },
            {
                "type": "note_on",
                "note": 34,
                "velocity": 113,
                "time": 36
            },
            {
                "type": "note_on",
                "note": 34,
                "velocity": 0,
                "time": 88
            },
            {
                "type": "note_on",
                "note": 39,
                "velocity": 127,
                "time": 294
            },
            {
                "type": "note_on",
                "note": 39,
                "velocity": 0,
                "time": 234
            },
            {
                "type": "note_on",
                "note": 39,
                "velocity": 111,
                "time": 52
            },
            {
                "type": "note_on",
                "note": 39,
                "velocity": 0,
                "time": 44
            },
            {
                "type": "note_on",
                "note": 39,
                "velocity": 127,
                "time": 60
            },
            {
                "type": "note_on",
                "note": 39,
                "velocity": 0,
                "time": 62
            },
            {
                "type": "note_on",
                "note": 32,
                "velocity": 107,
                "time": 130
            },
            {
                "type": "note_on",
                "note": 32,
                "velocity": 0,
                "time": 130
            },
            {
                "type": "note_on",
                "note": 38,
                "velocity": 120,
                "time": 74
            },
            {
                "type": "note_on",
                "note": 38,
                "velocity": 0,
                "time": 52
            },
            {
                "type": "note_on",
                "note": 38,
                "velocity": 123,
                "time": 42
            },
            {
                "type": "note_on",
                "note": 38,
                "velocity": 0,
                "time": 44
            },
            {
                "type": "note_on",
                "note": 38,
                "velocity": 125,
                "time": 54
            },
            {
                "type": "note_on",
                "note": 38,
                "velocity": 0,
                "time": 48
            },
            {
                "type": "note_on",
                "note": 38,
                "velocity": 108,
                "time": 40
            },
            {
                "type": "note_on",
                "note": 38,
                "velocity": 0,
                "time": 64
            },
            {
                "type": "note_on",
                "note": 43,
                "velocity": 127,
                "time": 30
            },
            {
                "type": "note_on",
                "note": 43,
                "velocity": 0,
                "time": 106
            },
            {
                "type": "note_on",
                "note": 43,
                "velocity": 127,
                "time": 94
            },
            {
                "type": "note_on",
                "note": 43,
                "velocity": 0,
                "time": 86
            },
            {
                "type": "note_on",
                "note": 34,
                "velocity": 110,
                "time": 94
            },
            {
                "type": "note_on",
                "note": 34,
                "velocity": 0,
                "time": 94
            },
            {
                "type": "note_on",
                "note": 34,
                "velocity": 106,
                "time": 6
            },
            {
                "type": "note_on",
                "note": 34,
                "velocity": 0,
                "time": 76
            },
            {
                "type": "note_on",
                "note": 34,
                "velocity": 94,
                "time": 38
            },
            {
                "type": "note_on",
                "note": 34,
                "velocity": 0,
                "time": 48
            },
            {
                "type": "note_on",
                "note": 34,
                "velocity": 93,
                "time": 24
            },
            {
                "type": "note_on",
                "note": 34,
                "velocity": 0,
                "time": 40
            },
            {
                "type": "note_on",
                "note": 34,
                "velocity": 101,
                "time": 72
            },
            {
                "type": "note_on",
                "note": 34,
                "velocity": 0,
                "time": 46
            },
            {
                "type": "note_on",
                "note": 34,
                "velocity": 101,
                "time": 42
            },
            {
                "type": "note_on",
                "note": 34,
                "velocity": 0,
                "time": 42
            },
            {
                "type": "note_on",
                "note": 34,
                "velocity": 103,
                "time": 46
            },
            {
                "type": "note_on",
                "note": 34,
                "velocity": 0,
                "time": 50
            },
            {
                "type": "note_on",
                "note": 34,
                "velocity": 100,
                "time": 42
            },
            {
                "type": "note_on",
                "note": 34,
                "velocity": 0,
                "time": 44
            },
            {
                "type": "note_on",
                "note": 34,
                "velocity": 112,
                "time": 52
            },
            {
                "type": "note_on",
                "note": 34,
                "velocity": 0,
                "time": 56
            },
            {
                "type": "note_on",
                "note": 34,
                "velocity": 100,
                "time": 48
            },
            {
                "type": "note_on",
                "note": 34,
                "velocity": 0,
                "time": 42
            },
            {
                "type": "note_on",
                "note": 34,
                "velocity": 102,
                "time": 52
            },
            {
                "type": "note_on",
                "note": 34,
                "velocity": 0,
                "time": 42
            },
            {
                "type": "note_on",
                "note": 34,
                "velocity": 103,
                "time": 52
            },
            {
                "type": "note_on",
                "note": 34,
                "velocity": 0,
                "time": 42
            },
            {
                "type": "note_on",
                "note": 34,
                "velocity": 109,
                "time": 52
            },
            {
                "type": "note_on",
                "note": 34,
                "velocity": 0,
                "time": 44
            },
            {
                "type": "note_on",
                "note": 34,
                "velocity": 106,
                "time": 54
            },
            {
                "type": "note_on",
                "note": 34,
                "velocity": 0,
                "time": 40
            },
            {
                "type": "note_on",
                "note": 34,
                "velocity": 109,
                "time": 52
            },
            {
                "type": "note_on",
                "note": 34,
                "velocity": 0,
                "time": 42
            },
            {
                "type": "note_on",
                "note": 34,
                "velocity": 107,
                "time": 54
            },
            {
                "type": "note_on",
                "note": 34,
                "velocity": 0,
                "time": 42
            },
            {
                "type": "note_on",
                "note": 34,
                "velocity": 116,
                "time": 58
            },
            {
                "type": "note_on",
                "note": 34,
                "velocity": 0,
                "time": 48
            },
            {
                "type": "note_on",
                "note": 34,
                "velocity": 104,
                "time": 44
            },
            {
                "type": "note_on",
                "note": 34,
                "velocity": 0,
                "time": 44
            },
            {
                "type": "note_on",
                "note": 34,
                "velocity": 112,
                "time": 56
            },
            {
                "type": "note_on",
                "note": 34,
                "velocity": 0,
                "time": 44
            },
            {
                "type": "note_on",
                "note": 34,
                "velocity": 107,
                "time": 54
            },
            {
                "type": "note_on",
                "note": 34,
                "velocity": 0,
                "time": 38
            },
            {
                "type": "note_on",
                "note": 34,
                "velocity": 118,
                "time": 60
            },
            {
                "type": "note_on",
                "note": 34,
                "velocity": 0,
                "time": 40
            },
            {
                "type": "note_on",
                "note": 34,
                "velocity": 106,
                "time": 52
            },
            {
                "type": "note_on",
                "note": 34,
                "velocity": 0,
                "time": 34
            },
            {
                "type": "note_on",
                "note": 34,
                "velocity": 110,
                "time": 60
            },
            {
                "type": "note_on",
                "note": 34,
                "velocity": 0,
                "time": 40
            },
            {
                "type": "note_on",
                "note": 34,
                "velocity": 106,
                "time": 52
            },
            {
                "type": "note_on",
                "note": 34,
                "velocity": 0,
                "time": 34
            },
            {
                "type": "note_on",
                "note": 34,
                "velocity": 120,
                "time": 62
            },
            {
                "type": "note_on",
                "note": 34,
                "velocity": 0,
                "time": 34
            },
            {
                "type": "note_on",
                "note": 34,
                "velocity": 106,
                "time": 40
            },
            {
                "type": "note_on",
                "note": 34,
                "velocity": 0,
                "time": 32
            },
            {
                "type": "note_on",
                "note": 34,
                "velocity": 102,
                "time": 36
            },
            {
                "type": "note_on",
                "note": 34,
                "velocity": 0,
                "time": 28
            },
            {
                "type": "note_on",
                "note": 34,
                "velocity": 110,
                "time": 34
            },
            {
                "type": "note_on",
                "note": 34,
                "velocity": 0,
                "time": 30
            },
            {
                "type": "note_on",
                "note": 34,
                "velocity": 110,
                "time": 46
            },
            {
                "type": "note_on",
                "note": 34,
                "velocity": 0,
                "time": 26
            },
            {
                "type": "note_on",
                "note": 34,
                "velocity": 118,
                "time": 8
            },
            {
                "type": "note_on",
                "note": 34,
                "velocity": 0,
                "time": 28
            },
            {
                "type": "note_on",
                "note": 34,
                "velocity": 117,
                "time": 54
            },
            {
                "type": "note_on",
                "note": 34,
                "velocity": 0,
                "time": 28
            },
            {
                "type": "note_on",
                "note": 34,
                "velocity": 123,
                "time": 48
            },
            {
                "type": "note_on",
                "note": 34,
                "velocity": 0,
                "time": 30
            },
            {
                "type": "note_on",
                "note": 34,
                "velocity": 118,
                "time": 4
            },
            {
                "type": "note_on",
                "note": 34,
                "velocity": 0,
                "time": 28
            },
            {
                "type": "note_on",
                "note": 34,
                "velocity": 127,
                "time": 54
            },
            {
                "type": "note_on",
                "note": 34,
                "velocity": 0,
                "time": 42
            },
            {
                "type": "note_on",
                "note": 39,
                "velocity": 111,
                "time": 136
            },
            {
                "type": "note_on",
                "note": 39,
                "velocity": 0,
                "time": 150
            },
            {
                "type": "note_on",
                "note": 31,
                "velocity": 107,
                "time": 26
            },
            {
                "type": "note_on",
                "note": 32,
                "velocity": 106,
                "time": 196
            },
            {
                "type": "note_on",
                "note": 31,
                "velocity": 0,
                "time": 14
            },
            {
                "type": "note_on",
                "note": 32,
                "velocity": 0,
                "time": 168
            },
            {
                "type": "note_on",
                "note": 34,
                "velocity": 104,
                "time": 10
            },
            {
                "type": "note_on",
                "note": 34,
                "velocity": 0,
                "time": 176
            },
            {
                "type": "note_on",
                "note": 36,
                "velocity": 93,
                "time": 14
            },
            {
                "type": "note_on",
                "note": 38,
                "velocity": 104,
                "time": 108
            },
            {
                "type": "note_on",
                "note": 36,
                "velocity": 0,
                "time": 2
            },
            {
                "type": "note_on",
                "note": 38,
                "velocity": 0,
                "time": 88
            },
            {
                "type": "note_on",
                "note": 39,
                "velocity": 107,
                "time": 4
            },
            {
                "type": "note_on",
                "note": 39,
                "velocity": 0,
                "time": 146
            },
            {
                "type": "note_on",
                "note": 39,
                "velocity": 122,
                "time": 54
            },
            {
                "type": "note_on",
                "note": 39,
                "velocity": 0,
                "time": 190
            },
            {
                "type": "note_on",
                "note": 31,
                "velocity": 110,
                "time": 4
            },
            {
                "type": "note_on",
                "note": 32,
                "velocity": 105,
                "time": 190
            },
            {
                "type": "note_on",
                "note": 31,
                "velocity": 0,
                "time": 18
            },
            {
                "type": "note_on",
                "note": 32,
                "velocity": 0,
                "time": 136
            },
            {
                "type": "note_on",
                "note": 34,
                "velocity": 111,
                "time": 36
            },
            {
                "type": "note_on",
                "note": 36,
                "velocity": 91,
                "time": 92
            },
            {
                "type": "note_on",
                "note": 34,
                "velocity": 0,
                "time": 4
            },
            {
                "type": "note_on",
                "note": 34,
                "velocity": 106,
                "time": 100
            },
            {
                "type": "note_on",
                "note": 36,
                "velocity": 0,
                "time": 4
            },
            {
                "type": "note_on",
                "note": 34,
                "velocity": 0,
                "time": 248
            },
            {
                "type": "note_on",
                "note": 39,
                "velocity": 109,
                "time": 118
            },
            {
                "type": "note_on",
                "note": 39,
                "velocity": 0,
                "time": 206
            },
            {
                "type": "note_on",
                "note": 31,
                "velocity": 107,
                "time": 14
            },
            {
                "type": "note_on",
                "note": 31,
                "velocity": 0,
                "time": 174
            },
            {
                "type": "note_on",
                "note": 32,
                "velocity": 106,
                "time": 14
            },
            {
                "type": "note_on",
                "note": 32,
                "velocity": 0,
                "time": 148
            },
            {
                "type": "note_on",
                "note": 34,
                "velocity": 100,
                "time": 16
            },
            {
                "type": "note_on",
                "note": 34,
                "velocity": 0,
                "time": 156
            },
            {
                "type": "note_on",
                "note": 36,
                "velocity": 108,
                "time": 54
            },
            {
                "type": "note_on",
                "note": 38,
                "velocity": 105,
                "time": 66
            },
            {
                "type": "note_on",
                "note": 36,
                "velocity": 0,
                "time": 50
            },
            {
                "type": "note_on",
                "note": 38,
                "velocity": 0,
                "time": 42
            },
            {
                "type": "note_on",
                "note": 39,
                "velocity": 118,
                "time": 20
            },
            {
                "type": "note_on",
                "note": 39,
                "velocity": 0,
                "time": 106
            },
            {
                "type": "note_on",
                "note": 41,
                "velocity": 112,
                "time": 92
            },
            {
                "type": "note_on",
                "note": 33,
                "velocity": 104,
                "time": 190
            },
            {
                "type": "note_on",
                "note": 41,
                "velocity": 0,
                "time": 4
            },
            {
                "type": "note_on",
                "note": 33,
                "velocity": 0,
                "time": 168
            },
            {
                "type": "note_on",
                "note": 34,
                "velocity": 106,
                "time": 24
            },
            {
                "type": "note_on",
                "note": 34,
                "velocity": 0,
                "time": 126
            },
            {
                "type": "note_on",
                "note": 36,
                "velocity": 119,
                "time": 68
            },
            {
                "type": "note_on",
                "note": 38,
                "velocity": 105,
                "time": 90
            },
            {
                "type": "note_on",
                "note": 36,
                "velocity": 0,
                "time": 10
            },
            {
                "type": "note_on",
                "note": 38,
                "velocity": 0,
                "time": 66
            },
            {
                "type": "note_on",
                "note": 36,
                "velocity": 117,
                "time": 24
            },
            {
                "type": "note_on",
                "note": 36,
                "velocity": 0,
                "time": 308
            },
            {
                "type": "note_on",
                "note": 34,
                "velocity": 114,
                "time": 82
            },
            {
                "type": "note_on",
                "note": 34,
                "velocity": 0,
                "time": 144
            },
            {
                "type": "note_on",
                "note": 34,
                "velocity": 97,
                "time": 34
            },
            {
                "type": "note_on",
                "note": 34,
                "velocity": 0,
                "time": 50
            },
            {
                "type": "note_on",
                "note": 34,
                "velocity": 100,
                "time": 50
            },
            {
                "type": "note_on",
                "note": 34,
                "velocity": 0,
                "time": 52
            },
            {
                "type": "note_on",
                "note": 34,
                "velocity": 98,
                "time": 22
            },
            {
                "type": "note_on",
                "note": 34,
                "velocity": 0,
                "time": 60
            },
            {
                "type": "note_on",
                "note": 34,
                "velocity": 127,
                "time": 158
            },
            {
                "type": "note_on",
                "note": 34,
                "velocity": 0,
                "time": 148
            },
            {
                "type": "note_on",
                "note": 34,
                "velocity": 97,
                "time": 32
            },
            {
                "type": "note_on",
                "note": 34,
                "velocity": 0,
                "time": 48
            },
            {
                "type": "note_on",
                "note": 34,
                "velocity": 99,
                "time": 42
            },
            {
                "type": "note_on",
                "note": 34,
                "velocity": 0,
                "time": 54
            },
            {
                "type": "note_on",
                "note": 34,
                "velocity": 91,
                "time": 46
            },
            {
                "type": "note_on",
                "note": 34,
                "velocity": 0,
                "time": 50
            },
            {
                "type": "note_on",
                "note": 34,
                "velocity": 127,
                "time": 156
            },
            {
                "type": "note_on",
                "note": 34,
                "velocity": 0,
                "time": 146
            },
            {
                "type": "note_on",
                "note": 34,
                "velocity": 105,
                "time": 46
            },
            {
                "type": "note_on",
                "note": 34,
                "velocity": 0,
                "time": 78
            },
            {
                "type": "note_on",
                "note": 39,
                "velocity": 106,
                "time": 18
            },
            {
                "type": "note_on",
                "note": 34,
                "velocity": 96,
                "time": 84
            },
            {
                "type": "note_on",
                "note": 39,
                "velocity": 0,
                "time": 10
            },
            {
                "type": "note_on",
                "note": 34,
                "velocity": 0,
                "time": 62
            },
            {
                "type": "note_on",
                "note": 39,
                "velocity": 118,
                "time": 144
            },
            {
                "type": "note_on",
                "note": 39,
                "velocity": 0,
                "time": 148
            },
            {
                "type": "note_on",
                "note": 39,
                "velocity": 97,
                "time": 42
            },
            {
                "type": "note_on",
                "note": 39,
                "velocity": 0,
                "time": 44
            },
            {
                "type": "note_on",
                "note": 39,
                "velocity": 109,
                "time": 44
            },
            {
                "type": "note_on",
                "note": 39,
                "velocity": 0,
                "time": 54
            },
            {
                "type": "note_on",
                "note": 39,
                "velocity": 106,
                "time": 40
            },
            {
                "type": "note_on",
                "note": 39,
                "velocity": 0,
                "time": 52
            },
            {
                "type": "note_on",
                "note": 34,
                "velocity": 111,
                "time": 142
            },
            {
                "type": "note_on",
                "note": 34,
                "velocity": 0,
                "time": 152
            },
            {
                "type": "note_on",
                "note": 34,
                "velocity": 94,
                "time": 38
            },
            {
                "type": "note_on",
                "note": 34,
                "velocity": 0,
                "time": 44
            },
            {
                "type": "note_on",
                "note": 34,
                "velocity": 106,
                "time": 42
            },
            {
                "type": "note_on",
                "note": 34,
                "velocity": 0,
                "time": 56
            },
            {
                "type": "note_on",
                "note": 34,
                "velocity": 105,
                "time": 30
            },
            {
                "type": "note_on",
                "note": 34,
                "velocity": 0,
                "time": 140
            },
            {
                "type": "note_on",
                "note": 34,
                "velocity": 118,
                "time": 88
            },
            {
                "type": "note_on",
                "note": 34,
                "velocity": 0,
                "time": 46
            },
            {
                "type": "note_on",
                "note": 34,
                "velocity": 97,
                "time": 40
            },
            {
                "type": "note_on",
                "note": 34,
                "velocity": 0,
                "time": 42
            },
            {
                "type": "note_on",
                "note": 34,
                "velocity": 102,
                "time": 46
            },
            {
                "type": "note_on",
                "note": 34,
                "velocity": 0,
                "time": 36
            },
            {
                "type": "note_on",
                "note": 34,
                "velocity": 98,
                "time": 50
            },
            {
                "type": "note_on",
                "note": 34,
                "velocity": 0,
                "time": 36
            },
            {
                "type": "note_on",
                "note": 34,
                "velocity": 98,
                "time": 54
            },
            {
                "type": "note_on",
                "note": 34,
                "velocity": 0,
                "time": 38
            },
            {
                "type": "note_on",
                "note": 34,
                "velocity": 109,
                "time": 52
            },
            {
                "type": "note_on",
                "note": 34,
                "velocity": 0,
                "time": 48
            },
            {
                "type": "note_on",
                "note": 34,
                "velocity": 123,
                "time": 76
            },
            {
                "type": "note_on",
                "note": 34,
                "velocity": 0,
                "time": 138
            },
            {
                "type": "note_on",
                "note": 49,
                "velocity": 123,
                "time": 44
            },
            {
                "type": "note_on",
                "note": 49,
                "velocity": 0,
                "time": 360
            },
            {
                "type": "note_on",
                "note": 34,
                "velocity": 107,
                "time": 24
            },
            {
                "type": "note_on",
                "note": 34,
                "velocity": 0,
                "time": 146
            },
            {
                "type": "note_on",
                "note": 34,
                "velocity": 98,
                "time": 38
            },
            {
                "type": "note_on",
                "note": 34,
                "velocity": 0,
                "time": 42
            },
            {
                "type": "note_on",
                "note": 34,
                "velocity": 100,
                "time": 60
            },
            {
                "type": "note_on",
                "note": 34,
                "velocity": 0,
                "time": 54
            },
            {
                "type": "note_on",
                "note": 34,
                "velocity": 98,
                "time": 32
            },
            {
                "type": "note_on",
                "note": 34,
                "velocity": 0,
                "time": 50
            },
            {
                "type": "note_on",
                "note": 34,
                "velocity": 111,
                "time": 158
            },
            {
                "type": "note_on",
                "note": 34,
                "velocity": 0,
                "time": 152
            },
            {
                "type": "note_on",
                "note": 34,
                "velocity": 92,
                "time": 38
            },
            {
                "type": "note_on",
                "note": 34,
                "velocity": 0,
                "time": 40
            },
            {
                "type": "note_on",
                "note": 34,
                "velocity": 103,
                "time": 50
            },
            {
                "type": "note_on",
                "note": 34,
                "velocity": 0,
                "time": 58
            },
            {
                "type": "note_on",
                "note": 34,
                "velocity": 101,
                "time": 42
            },
            {
                "type": "note_on",
                "note": 34,
                "velocity": 0,
                "time": 54
            },
            {
                "type": "note_on",
                "note": 34,
                "velocity": 105,
                "time": 148
            },
            {
                "type": "note_on",
                "note": 34,
                "velocity": 0,
                "time": 148
            },
            {
                "type": "note_on",
                "note": 34,
                "velocity": 93,
                "time": 40
            },
            {
                "type": "note_on",
                "note": 34,
                "velocity": 0,
                "time": 50
            },
            {
                "type": "note_on",
                "note": 34,
                "velocity": 103,
                "time": 44
            },
            {
                "type": "note_on",
                "note": 34,
                "velocity": 0,
                "time": 50
            },
            {
                "type": "note_on",
                "note": 34,
                "velocity": 95,
                "time": 36
            },
            {
                "type": "note_on",
                "note": 34,
                "velocity": 0,
                "time": 48
            },
            {
                "type": "note_on",
                "note": 39,
                "velocity": 109,
                "time": 174
            },
            {
                "type": "note_on",
                "note": 39,
                "velocity": 0,
                "time": 140
            },
            {
                "type": "note_on",
                "note": 39,
                "velocity": 95,
                "time": 42
            },
            {
                "type": "note_on",
                "note": 39,
                "velocity": 0,
                "time": 50
            },
            {
                "type": "note_on",
                "note": 39,
                "velocity": 109,
                "time": 40
            },
            {
                "type": "note_on",
                "note": 39,
                "velocity": 0,
                "time": 44
            },
            {
                "type": "note_on",
                "note": 39,
                "velocity": 99,
                "time": 40
            },
            {
                "type": "note_on",
                "note": 39,
                "velocity": 0,
                "time": 50
            },
            {
                "type": "note_on",
                "note": 32,
                "velocity": 106,
                "time": 158
            },
            {
                "type": "note_on",
                "note": 32,
                "velocity": 0,
                "time": 136
            },
            {
                "type": "note_on",
                "note": 32,
                "velocity": 97,
                "time": 42
            },
            {
                "type": "note_on",
                "note": 32,
                "velocity": 0,
                "time": 42
            },
            {
                "type": "note_on",
                "note": 32,
                "velocity": 118,
                "time": 56
            },
            {
                "type": "note_on",
                "note": 32,
                "velocity": 0,
                "time": 448
            },
            {
                "type": "note_on",
                "note": 32,
                "velocity": 121,
                "time": 48
            },
            {
                "type": "note_on",
                "note": 32,
                "velocity": 0,
                "time": 164
            },
            {
                "type": "note_on",
                "note": 31,
                "velocity": 119,
                "time": 36
            },
            {
                "type": "note_on",
                "note": 31,
                "velocity": 0,
                "time": 88
            },
            {
                "type": "note_on",
                "note": 29,
                "velocity": 112,
                "time": 70
            },
            {
                "type": "note_on",
                "note": 29,
                "velocity": 0,
                "time": 190
            },
            {
                "type": "note_on",
                "note": 29,
                "velocity": 106,
                "time": 36
            },
            {
                "type": "note_on",
                "note": 29,
                "velocity": 0,
                "time": 38
            },
            {
                "type": "note_on",
                "note": 29,
                "velocity": 112,
                "time": 50
            },
            {
                "type": "note_on",
                "note": 29,
                "velocity": 0,
                "time": 48
            },
            {
                "type": "note_on",
                "note": 29,
                "velocity": 104,
                "time": 30
            },
            {
                "type": "note_on",
                "note": 29,
                "velocity": 0,
                "time": 60
            },
            {
                "type": "note_on",
                "note": 29,
                "velocity": 119,
                "time": 164
            },
            {
                "type": "note_on",
                "note": 29,
                "velocity": 0,
                "time": 138
            },
            {
                "type": "note_on",
                "note": 29,
                "velocity": 109,
                "time": 34
            },
            {
                "type": "note_on",
                "note": 29,
                "velocity": 0,
                "time": 50
            },
            {
                "type": "note_on",
                "note": 29,
                "velocity": 112,
                "time": 46
            },
            {
                "type": "note_on",
                "note": 29,
                "velocity": 0,
                "time": 50
            },
            {
                "type": "note_on",
                "note": 29,
                "velocity": 112,
                "time": 32
            },
            {
                "type": "note_on",
                "note": 29,
                "velocity": 0,
                "time": 144
            },
            {
                "type": "note_on",
                "note": 34,
                "velocity": 104,
                "time": 60
            },
            {
                "type": "note_on",
                "note": 34,
                "velocity": 0,
                "time": 144
            },
            {
                "type": "note_on",
                "note": 34,
                "velocity": 84,
                "time": 40
            },
            {
                "type": "note_on",
                "note": 34,
                "velocity": 0,
                "time": 46
            },
            {
                "type": "note_on",
                "note": 34,
                "velocity": 93,
                "time": 50
            },
            {
                "type": "note_on",
                "note": 34,
                "velocity": 0,
                "time": 48
            },
            {
                "type": "note_on",
                "note": 34,
                "velocity": 91,
                "time": 42
            },
            {
                "type": "note_on",
                "note": 34,
                "velocity": 0,
                "time": 130
            },
            {
                "type": "note_on",
                "note": 34,
                "velocity": 121,
                "time": 84
            },
            {
                "type": "note_on",
                "note": 34,
                "velocity": 0,
                "time": 144
            },
            {
                "type": "note_on",
                "note": 34,
                "velocity": 88,
                "time": 42
            },
            {
                "type": "note_on",
                "note": 34,
                "velocity": 0,
                "time": 40
            },
            {
                "type": "note_on",
                "note": 34,
                "velocity": 106,
                "time": 56
            },
            {
                "type": "note_on",
                "note": 34,
                "velocity": 0,
                "time": 42
            },
            {
                "type": "note_on",
                "note": 34,
                "velocity": 90,
                "time": 46
            },
            {
                "type": "note_on",
                "note": 34,
                "velocity": 0,
                "time": 74
            },
            {
                "type": "note_on",
                "note": 29,
                "velocity": 109,
                "time": 126
            },
            {
                "type": "note_on",
                "note": 29,
                "velocity": 0,
                "time": 170
            },
            {
                "type": "note_on",
                "note": 29,
                "velocity": 98,
                "time": 28
            },
            {
                "type": "note_on",
                "note": 29,
                "velocity": 0,
                "time": 54
            },
            {
                "type": "note_on",
                "note": 29,
                "velocity": 107,
                "time": 38
            },
            {
                "type": "note_on",
                "note": 29,
                "velocity": 0,
                "time": 60
            },
            {
                "type": "note_on",
                "note": 29,
                "velocity": 106,
                "time": 28
            },
            {
                "type": "note_on",
                "note": 29,
                "velocity": 0,
                "time": 72
            },
            {
                "type": "note_on",
                "note": 29,
                "velocity": 112,
                "time": 124
            },
            {
                "type": "note_on",
                "note": 29,
                "velocity": 0,
                "time": 144
            },
            {
                "type": "note_on",
                "note": 29,
                "velocity": 99,
                "time": 48
            },
            {
                "type": "note_on",
                "note": 29,
                "velocity": 0,
                "time": 48
            },
            {
                "type": "note_on",
                "note": 29,
                "velocity": 104,
                "time": 48
            },
            {
                "type": "note_on",
                "note": 29,
                "velocity": 0,
                "time": 48
            },
            {
                "type": "note_on",
                "note": 29,
                "velocity": 103,
                "time": 40
            },
            {
                "type": "note_on",
                "note": 29,
                "velocity": 0,
                "time": 72
            },
            {
                "type": "note_on",
                "note": 34,
                "velocity": 109,
                "time": 134
            },
            {
                "type": "note_on",
                "note": 34,
                "velocity": 0,
                "time": 152
            },
            {
                "type": "note_on",
                "note": 34,
                "velocity": 98,
                "time": 52
            },
            {
                "type": "note_on",
                "note": 34,
                "velocity": 0,
                "time": 34
            },
            {
                "type": "note_on",
                "note": 34,
                "velocity": 97,
                "time": 56
            },
            {
                "type": "note_on",
                "note": 34,
                "velocity": 0,
                "time": 40
            },
            {
                "type": "note_on",
                "note": 34,
                "velocity": 103,
                "time": 50
            },
            {
                "type": "note_on",
                "note": 34,
                "velocity": 0,
                "time": 50
            },
            {
                "type": "note_on",
                "note": 34,
                "velocity": 114,
                "time": 142
            },
            {
                "type": "note_on",
                "note": 34,
                "velocity": 0,
                "time": 150
            },
            {
                "type": "note_on",
                "note": 34,
                "velocity": 94,
                "time": 46
            },
            {
                "type": "note_on",
                "note": 34,
                "velocity": 0,
                "time": 36
            },
            {
                "type": "note_on",
                "note": 34,
                "velocity": 106,
                "time": 52
            },
            {
                "type": "note_on",
                "note": 34,
                "velocity": 0,
                "time": 42
            },
            {
                "type": "note_on",
                "note": 34,
                "velocity": 100,
                "time": 44
            },
            {
                "type": "note_on",
                "note": 34,
                "velocity": 0,
                "time": 60
            },
            {
                "type": "note_on",
                "note": 29,
                "velocity": 109,
                "time": 152
            },
            {
                "type": "note_on",
                "note": 29,
                "velocity": 0,
                "time": 152
            },
            {
                "type": "note_on",
                "note": 29,
                "velocity": 96,
                "time": 30
            },
            {
                "type": "note_on",
                "note": 29,
                "velocity": 0,
                "time": 50
            },
            {
                "type": "note_on",
                "note": 29,
                "velocity": 105,
                "time": 46
            },
            {
                "type": "note_on",
                "note": 29,
                "velocity": 0,
                "time": 54
            },
            {
                "type": "note_on",
                "note": 29,
                "velocity": 105,
                "time": 36
            },
            {
                "type": "note_on",
                "note": 29,
                "velocity": 0,
                "time": 88
            },
            {
                "type": "note_on",
                "note": 34,
                "velocity": 105,
                "time": 118
            },
            {
                "type": "note_on",
                "note": 34,
                "velocity": 0,
                "time": 142
            },
            {
                "type": "note_on",
                "note": 34,
                "velocity": 93,
                "time": 48
            },
            {
                "type": "note_on",
                "note": 34,
                "velocity": 0,
                "time": 36
            },
            {
                "type": "note_on",
                "note": 34,
                "velocity": 104,
                "time": 56
            },
            {
                "type": "note_on",
                "note": 34,
                "velocity": 0,
                "time": 46
            },
            {
                "type": "note_on",
                "note": 34,
                "velocity": 95,
                "time": 46
            },
            {
                "type": "note_on",
                "note": 34,
                "velocity": 0,
                "time": 42
            },
            {
                "type": "note_on",
                "note": 29,
                "velocity": 112,
                "time": 148
            },
            {
                "type": "note_on",
                "note": 29,
                "velocity": 0,
                "time": 166
            },
            {
                "type": "note_on",
                "note": 29,
                "velocity": 101,
                "time": 34
            },
            {
                "type": "note_on",
                "note": 29,
                "velocity": 0,
                "time": 54
            },
            {
                "type": "note_on",
                "note": 29,
                "velocity": 107,
                "time": 38
            },
            {
                "type": "note_on",
                "note": 29,
                "velocity": 0,
                "time": 46
            },
            {
                "type": "note_on",
                "note": 29,
                "velocity": 107,
                "time": 46
            },
            {
                "type": "note_on",
                "note": 29,
                "velocity": 0,
                "time": 84
            },
            {
                "type": "note_on",
                "note": 34,
                "velocity": 121,
                "time": 114
            },
            {
                "type": "note_on",
                "note": 34,
                "velocity": 0,
                "time": 158
            },
            {
                "type": "note_on",
                "note": 34,
                "velocity": 102,
                "time": 30
            },
            {
                "type": "note_on",
                "note": 34,
                "velocity": 0,
                "time": 40
            },
            {
                "type": "note_on",
                "note": 34,
                "velocity": 117,
                "time": 56
            },
            {
                "type": "note_on",
                "note": 34,
                "velocity": 0,
                "time": 46
            },
            {
                "type": "note_on",
                "note": 34,
                "velocity": 110,
                "time": 44
            },
            {
                "type": "note_on",
                "note": 34,
                "velocity": 0,
                "time": 42
            },
            {
                "type": "note_on",
                "note": 39,
                "velocity": 110,
                "time": 162
            },
            {
                "type": "note_on",
                "note": 39,
                "velocity": 0,
                "time": 162
            },
            {
                "type": "note_on",
                "note": 31,
                "velocity": 107,
                "time": 12
            },
            {
                "type": "note_on",
                "note": 31,
                "velocity": 0,
                "time": 172
            },
            {
                "type": "note_on",
                "note": 32,
                "velocity": 106,
                "time": 18
            },
            {
                "type": "note_on",
                "note": 32,
                "velocity": 0,
                "time": 154
            },
            {
                "type": "note_on",
                "note": 34,
                "velocity": 106,
                "time": 26
            },
            {
                "type": "note_on",
                "note": 34,
                "velocity": 0,
                "time": 172
            },
            {
                "type": "note_on",
                "note": 36,
                "velocity": 104,
                "time": 38
            },
            {
                "type": "note_on",
                "note": 38,
                "velocity": 107,
                "time": 82
            },
            {
                "type": "note_on",
                "note": 36,
                "velocity": 0,
                "time": 18
            },
            {
                "type": "note_on",
                "note": 38,
                "velocity": 0,
                "time": 84
            },
            {
                "type": "note_on",
                "note": 39,
                "velocity": 109,
                "time": 6
            },
            {
                "type": "note_on",
                "note": 39,
                "velocity": 0,
                "time": 144
            },
            {
                "type": "note_on",
                "note": 39,
                "velocity": 124,
                "time": 50
            },
            {
                "type": "note_on",
                "note": 39,
                "velocity": 0,
                "time": 178
            },
            {
                "type": "note_on",
                "note": 31,
                "velocity": 108,
                "time": 24
            },
            {
                "type": "note_on",
                "note": 31,
                "velocity": 0,
                "time": 186
            },
            {
                "type": "note_on",
                "note": 32,
                "velocity": 100,
                "time": 14
            },
            {
                "type": "note_on",
                "note": 32,
                "velocity": 0,
                "time": 80
            },
            {
                "type": "note_on",
                "note": 34,
                "velocity": 110,
                "time": 104
            },
            {
                "type": "note_on",
                "note": 36,
                "velocity": 105,
                "time": 100
            },
            {
                "type": "note_on",
                "note": 34,
                "velocity": 0,
                "time": 4
            },
            {
                "type": "note_on",
                "note": 36,
                "velocity": 0,
                "time": 86
            },
            {
                "type": "note_on",
                "note": 34,
                "velocity": 86,
                "time": 6
            },
            {
                "type": "note_on",
                "note": 34,
                "velocity": 0,
                "time": 306
            },
            {
                "type": "note_on",
                "note": 39,
                "velocity": 109,
                "time": 66
            },
            {
                "type": "note_on",
                "note": 39,
                "velocity": 0,
                "time": 190
            },
            {
                "type": "note_on",
                "note": 31,
                "velocity": 115,
                "time": 8
            },
            {
                "type": "note_on",
                "note": 31,
                "velocity": 0,
                "time": 168
            },
            {
                "type": "note_on",
                "note": 32,
                "velocity": 103,
                "time": 24
            },
            {
                "type": "note_on",
                "note": 32,
                "velocity": 0,
                "time": 134
            },
            {
                "type": "note_on",
                "note": 34,
                "velocity": 106,
                "time": 62
            },
            {
                "type": "note_on",
                "note": 34,
                "velocity": 0,
                "time": 160
            },
            {
                "type": "note_on",
                "note": 36,
                "velocity": 105,
                "time": 26
            },
            {
                "type": "note_on",
                "note": 38,
                "velocity": 112,
                "time": 82
            },
            {
                "type": "note_on",
                "note": 36,
                "velocity": 0,
                "time": 38
            },
            {
                "type": "note_on",
                "note": 38,
                "velocity": 0,
                "time": 62
            },
            {
                "type": "note_on",
                "note": 39,
                "velocity": 111,
                "time": 2
            },
            {
                "type": "note_on",
                "note": 39,
                "velocity": 0,
                "time": 114
            },
            {
                "type": "note_on",
                "note": 41,
                "velocity": 112,
                "time": 98
            },
            {
                "type": "note_on",
                "note": 33,
                "velocity": 109,
                "time": 176
            },
            {
                "type": "note_on",
                "note": 41,
                "velocity": 0,
                "time": 20
            },
            {
                "type": "note_on",
                "note": 33,
                "velocity": 0,
                "time": 148
            },
            {
                "type": "note_on",
                "note": 34,
                "velocity": 106,
                "time": 28
            },
            {
                "type": "note_on",
                "note": 34,
                "velocity": 0,
                "time": 142
            },
            {
                "type": "note_on",
                "note": 36,
                "velocity": 118,
                "time": 56
            },
            {
                "type": "note_on",
                "note": 36,
                "velocity": 0,
                "time": 166
            },
            {
                "type": "note_on",
                "note": 38,
                "velocity": 114,
                "time": 20
            },
            {
                "type": "note_on",
                "note": 38,
                "velocity": 0,
                "time": 86
            },
            {
                "type": "note_on",
                "note": 40,
                "velocity": 109,
                "time": 6
            },
            {
                "type": "note_on",
                "note": 40,
                "velocity": 0,
                "time": 66
            },
            {
                "type": "note_on",
                "note": 41,
                "velocity": 107,
                "time": 32
            },
            {
                "type": "note_on",
                "note": 41,
                "velocity": 0,
                "time": 106
            },
            {
                "type": "note_on",
                "note": 42,
                "velocity": 117,
                "time": 94
            },
            {
                "type": "note_on",
                "note": 42,
                "velocity": 0,
                "time": 70
            },
            {
                "type": "note_on",
                "note": 44,
                "velocity": 107,
                "time": 24
            },
            {
                "type": "note_on",
                "note": 44,
                "velocity": 0,
                "time": 60
            },
            {
                "type": "note_on",
                "note": 46,
                "velocity": 99,
                "time": 24
            },
            {
                "type": "note_on",
                "note": 46,
                "velocity": 0,
                "time": 176
            },
            {
                "type": "note_on",
                "note": 44,
                "velocity": 100,
                "time": 18
            },
            {
                "type": "note_on",
                "note": 44,
                "velocity": 0,
                "time": 72
            },
            {
                "type": "note_on",
                "note": 46,
                "velocity": 105,
                "time": 26
            },
            {
                "type": "note_on",
                "note": 46,
                "velocity": 0,
                "time": 66
            },
            {
                "type": "note_on",
                "note": 48,
                "velocity": 109,
                "time": 28
            },
            {
                "type": "note_on",
                "note": 48,
                "velocity": 0,
                "time": 182
            },
            {
                "type": "note_on",
                "note": 46,
                "velocity": 105,
                "time": 16
            },
            {
                "type": "note_on",
                "note": 46,
                "velocity": 0,
                "time": 56
            },
            {
                "type": "note_on",
                "note": 48,
                "velocity": 111,
                "time": 38
            },
            {
                "type": "note_on",
                "note": 48,
                "velocity": 0,
                "time": 52
            },
            {
                "type": "note_on",
                "note": 49,
                "velocity": 106,
                "time": 46
            },
            {
                "type": "note_on",
                "note": 49,
                "velocity": 0,
                "time": 166
            },
            {
                "type": "note_on",
                "note": 47,
                "velocity": 123,
                "time": 32
            },
            {
                "type": "note_on",
                "note": 44,
                "velocity": 114,
                "time": 1148
            },
            {
                "type": "note_on",
                "note": 47,
                "velocity": 0,
                "time": 2
            },
            {
                "type": "note_on",
                "note": 44,
                "velocity": 0,
                "time": 1074
            },
            {
                "type": "note_on",
                "note": 46,
                "velocity": 120,
                "time": 76
            },
            {
                "type": "note_on",
                "note": 46,
                "velocity": 0,
                "time": 1102
            },
            {
                "type": "note_on",
                "note": 39,
                "velocity": 120,
                "time": 108
            },
            {
                "type": "note_on",
                "note": 39,
                "velocity": 0,
                "time": 126
            },
            {
                "type": "note_on",
                "note": 46,
                "velocity": 94,
                "time": 0
            },
            {
                "type": "note_on",
                "note": 46,
                "velocity": 0,
                "time": 50
            },
            {
                "type": "note_on",
                "note": 51,
                "velocity": 113,
                "time": 0
            },
            {
                "type": "note_on",
                "note": 51,
                "velocity": 0,
                "time": 92
            },
            {
                "type": "note_on",
                "note": 46,
                "velocity": 105,
                "time": 4
            },
            {
                "type": "note_on",
                "note": 46,
                "velocity": 0,
                "time": 38
            },
            {
                "type": "note_on",
                "note": 39,
                "velocity": 100,
                "time": 8
            },
            {
                "type": "note_on",
                "note": 38,
                "velocity": 112,
                "time": 52
            },
            {
                "type": "note_on",
                "note": 39,
                "velocity": 0,
                "time": 2
            },
            {
                "type": "note_on",
                "note": 38,
                "velocity": 0,
                "time": 58
            },
            {
                "type": "note_on",
                "note": 38,
                "velocity": 113,
                "time": 44
            },
            {
                "type": "note_on",
                "note": 50,
                "velocity": 112,
                "time": 86
            },
            {
                "type": "note_on",
                "note": 38,
                "velocity": 0,
                "time": 4
            },
            {
                "type": "note_on",
                "note": 50,
                "velocity": 0,
                "time": 96
            },
            {
                "type": "note_on",
                "note": 38,
                "velocity": 115,
                "time": 2
            },
            {
                "type": "note_on",
                "note": 38,
                "velocity": 0,
                "time": 92
            },
            {
                "type": "note_on",
                "note": 36,
                "velocity": 124,
                "time": 10
            },
            {
                "type": "note_on",
                "note": 36,
                "velocity": 0,
                "time": 64
            },
            {
                "type": "note_on",
                "note": 36,
                "velocity": 106,
                "time": 30
            },
            {
                "type": "note_on",
                "note": 48,
                "velocity": 112,
                "time": 88
            },
            {
                "type": "note_on",
                "note": 36,
                "velocity": 0,
                "time": 6
            },
            {
                "type": "note_on",
                "note": 48,
                "velocity": 0,
                "time": 162
            },
            {
                "type": "note_on",
                "note": 35,
                "velocity": 116,
                "time": 38
            },
            {
                "type": "note_on",
                "note": 35,
                "velocity": 0,
                "time": 178
            },
            {
                "type": "note_on",
                "note": 36,
                "velocity": 112,
                "time": 4
            },
            {
                "type": "note_on",
                "note": 36,
                "velocity": 0,
                "time": 132
            },
            {
                "type": "note_on",
                "note": 35,
                "velocity": 119,
                "time": 68
            },
            {
                "type": "note_on",
                "note": 35,
                "velocity": 0,
                "time": 184
            },
            {
                "type": "note_on",
                "note": 36,
                "velocity": 117,
                "time": 8
            },
            {
                "type": "note_on",
                "note": 36,
                "velocity": 0,
                "time": 148
            },
            {
                "type": "note_on",
                "note": 46,
                "velocity": 124,
                "time": 38
            },
            {
                "type": "note_on",
                "note": 44,
                "velocity": 110,
                "time": 44
            },
            {
                "type": "note_on",
                "note": 46,
                "velocity": 0,
                "time": 6
            },
            {
                "type": "note_on",
                "note": 44,
                "velocity": 0,
                "time": 28
            },
            {
                "type": "note_on",
                "note": 43,
                "velocity": 112,
                "time": 14
            },
            {
                "type": "note_on",
                "note": 43,
                "velocity": 0,
                "time": 32
            },
            {
                "type": "note_on",
                "note": 41,
                "velocity": 106,
                "time": 18
            },
            {
                "type": "note_on",
                "note": 41,
                "velocity": 0,
                "time": 44
            },
            {
                "type": "note_on",
                "note": 39,
                "velocity": 117,
                "time": 8
            },
            {
                "type": "note_on",
                "note": 39,
                "velocity": 0,
                "time": 186
            },
            {
                "type": "note_on",
                "note": 38,
                "velocity": 124,
                "time": 8
            },
            {
                "type": "note_on",
                "note": 45,
                "velocity": 109,
                "time": 146
            },
            {
                "type": "note_on",
                "note": 38,
                "velocity": 0,
                "time": 2
            },
            {
                "type": "note_on",
                "note": 45,
                "velocity": 0,
                "time": 48
            },
            {
                "type": "note_on",
                "note": 50,
                "velocity": 117,
                "time": 0
            },
            {
                "type": "note_on",
                "note": 50,
                "velocity": 0,
                "time": 76
            },
            {
                "type": "note_on",
                "note": 45,
                "velocity": 114,
                "time": 12
            },
            {
                "type": "note_on",
                "note": 45,
                "velocity": 0,
                "time": 32
            },
            {
                "type": "note_on",
                "note": 38,
                "velocity": 112,
                "time": 12
            },
            {
                "type": "note_on",
                "note": 38,
                "velocity": 0,
                "time": 58
            },
            {
                "type": "note_on",
                "note": 43,
                "velocity": 127,
                "time": 0
            },
            {
                "type": "note_on",
                "note": 43,
                "velocity": 0,
                "time": 378
            },
            {
                "type": "note_on",
                "note": 44,
                "velocity": 118,
                "time": 6
            },
            {
                "type": "note_on",
                "note": 44,
                "velocity": 0,
                "time": 262
            },
            {
                "type": "note_on",
                "note": 44,
                "velocity": 116,
                "time": 20
            },
            {
                "type": "note_on",
                "note": 44,
                "velocity": 0,
                "time": 34
            },
            {
                "type": "note_on",
                "note": 39,
                "velocity": 99,
                "time": 64
            },
            {
                "type": "note_on",
                "note": 39,
                "velocity": 0,
                "time": 238
            },
            {
                "type": "note_on",
                "note": 39,
                "velocity": 100,
                "time": 50
            },
            {
                "type": "note_on",
                "note": 39,
                "velocity": 0,
                "time": 42
            },
            {
                "type": "note_on",
                "note": 38,
                "velocity": 112,
                "time": 0
            },
            {
                "type": "note_on",
                "note": 38,
                "velocity": 0,
                "time": 42
            },
            {
                "type": "note_on",
                "note": 36,
                "velocity": 108,
                "time": 10
            },
            {
                "type": "note_on",
                "note": 36,
                "velocity": 0,
                "time": 384
            },
            {
                "type": "note_on",
                "note": 31,
                "velocity": 112,
                "time": 0
            },
            {
                "type": "note_on",
                "note": 31,
                "velocity": 0,
                "time": 378
            },
            {
                "type": "note_on",
                "note": 36,
                "velocity": 119,
                "time": 4
            },
            {
                "type": "note_on",
                "note": 36,
                "velocity": 0,
                "time": 384
            },
            {
                "type": "note_on",
                "note": 31,
                "velocity": 112,
                "time": 6
            },
            {
                "type": "note_on",
                "note": 31,
                "velocity": 0,
                "time": 284
            },
            {
                "type": "note_on",
                "note": 36,
                "velocity": 119,
                "time": 96
            },
            {
                "type": "note_on",
                "note": 36,
                "velocity": 0,
                "time": 350
            },
            {
                "type": "note_on",
                "note": 32,
                "velocity": 99,
                "time": 40
            },
            {
                "type": "note_on",
                "note": 32,
                "velocity": 0,
                "time": 358
            }
        ]
    },
    {
        "track": 3,
        "notes": [
            {
                "type": "note_on",
                "note": 67,
                "velocity": 52,
                "time": 659
            },
            {
                "type": "note_on",
                "note": 65,
                "velocity": 69,
                "time": 0
            },
            {
                "type": "note_on",
                "note": 67,
                "velocity": 0,
                "time": 70
            },
            {
                "type": "note_on",
                "note": 65,
                "velocity": 0,
                "time": 12
            },
            {
                "type": "note_on",
                "note": 67,
                "velocity": 55,
                "time": 14
            },
            {
                "type": "note_on",
                "note": 65,
                "velocity": 78,
                "time": 0
            },
            {
                "type": "note_on",
                "note": 67,
                "velocity": 0,
                "time": 34
            },
            {
                "type": "note_on",
                "note": 65,
                "velocity": 0,
                "time": 24
            },
            {
                "type": "note_on",
                "note": 67,
                "velocity": 64,
                "time": 10
            },
            {
                "type": "note_on",
                "note": 65,
                "velocity": 82,
                "time": 0
            },
            {
                "type": "note_on",
                "note": 67,
                "velocity": 0,
                "time": 48
            },
            {
                "type": "note_on",
                "note": 65,
                "velocity": 0,
                "time": 26
            },
            {
                "type": "note_on",
                "note": 67,
                "velocity": 70,
                "time": 22
            },
            {
                "type": "note_on",
                "note": 65,
                "velocity": 82,
                "time": 0
            },
            {
                "type": "note_on",
                "note": 67,
                "velocity": 0,
                "time": 138
            },
            {
                "type": "note_on",
                "note": 65,
                "velocity": 0,
                "time": 6
            },
            {
                "type": "note_on",
                "note": 65,
                "velocity": 90,
                "time": 10
            },
            {
                "type": "note_on",
                "note": 67,
                "velocity": 70,
                "time": 0
            },
            {
                "type": "note_on",
                "note": 67,
                "velocity": 0,
                "time": 192
            },
            {
                "type": "note_on",
                "note": 65,
                "velocity": 0,
                "time": 8
            },
            {
                "type": "note_on",
                "note": 67,
                "velocity": 51,
                "time": 88
            },
            {
                "type": "note_on",
                "note": 64,
                "velocity": 62,
                "time": 0
            },
            {
                "type": "note_on",
                "note": 67,
                "velocity": 0,
                "time": 60
            },
            {
                "type": "note_on",
                "note": 64,
                "velocity": 0,
                "time": 6
            },
            {
                "type": "note_on",
                "note": 67,
                "velocity": 69,
                "time": 30
            },
            {
                "type": "note_on",
                "note": 64,
                "velocity": 78,
                "time": 0
            },
            {
                "type": "note_on",
                "note": 67,
                "velocity": 0,
                "time": 62
            },
            {
                "type": "note_on",
                "note": 64,
                "velocity": 0,
                "time": 30
            },
            {
                "type": "note_on",
                "note": 65,
                "velocity": 82,
                "time": 4
            },
            {
                "type": "note_on",
                "note": 67,
                "velocity": 75,
                "time": 0
            },
            {
                "type": "note_on",
                "note": 65,
                "velocity": 0,
                "time": 62
            },
            {
                "type": "note_on",
                "note": 67,
                "velocity": 0,
                "time": 2
            },
            {
                "type": "note_on",
                "note": 67,
                "velocity": 75,
                "time": 32
            },
            {
                "type": "note_on",
                "note": 64,
                "velocity": 84,
                "time": 0
            },
            {
                "type": "note_on",
                "note": 67,
                "velocity": 0,
                "time": 88
            },
            {
                "type": "note_on",
                "note": 62,
                "velocity": 78,
                "time": 8
            },
            {
                "type": "note_on",
                "note": 65,
                "velocity": 68,
                "time": 0
            },
            {
                "type": "note_on",
                "note": 64,
                "velocity": 0,
                "time": 12
            },
            {
                "type": "note_on",
                "note": 65,
                "velocity": 0,
                "time": 18
            },
            {
                "type": "note_on",
                "note": 62,
                "velocity": 0,
                "time": 6
            },
            {
                "type": "note_on",
                "note": 64,
                "velocity": 62,
                "time": 12
            },
            {
                "type": "note_on",
                "note": 60,
                "velocity": 82,
                "time": 0
            },
            {
                "type": "note_on",
                "note": 64,
                "velocity": 0,
                "time": 274
            },
            {
                "type": "note_on",
                "note": 60,
                "velocity": 0,
                "time": 2
            },
            {
                "type": "note_on",
                "note": 63,
                "velocity": 67,
                "time": 60
            },
            {
                "type": "note_on",
                "note": 65,
                "velocity": 61,
                "time": 0
            },
            {
                "type": "note_on",
                "note": 65,
                "velocity": 0,
                "time": 62
            },
            {
                "type": "note_on",
                "note": 63,
                "velocity": 0,
                "time": 26
            },
            {
                "type": "note_on",
                "note": 65,
                "velocity": 74,
                "time": 8
            },
            {
                "type": "note_on",
                "note": 63,
                "velocity": 71,
                "time": 0
            },
            {
                "type": "note_on",
                "note": 65,
                "velocity": 0,
                "time": 62
            },
            {
                "type": "note_on",
                "note": 63,
                "velocity": 0,
                "time": 12
            },
            {
                "type": "note_on",
                "note": 63,
                "velocity": 71,
                "time": 22
            },
            {
                "type": "note_on",
                "note": 65,
                "velocity": 63,
                "time": 0
            },
            {
                "type": "note_on",
                "note": 63,
                "velocity": 0,
                "time": 66
            },
            {
                "type": "note_on",
                "note": 65,
                "velocity": 0,
                "time": 4
            },
            {
                "type": "note_on",
                "note": 63,
                "velocity": 75,
                "time": 26
            },
            {
                "type": "note_on",
                "note": 67,
                "velocity": 73,
                "time": 0
            },
            {
                "type": "note_on",
                "note": 63,
                "velocity": 0,
                "time": 188
            },
            {
                "type": "note_on",
                "note": 65,
                "velocity": 74,
                "time": 4
            },
            {
                "type": "note_on",
                "note": 63,
                "velocity": 71,
                "time": 0
            },
            {
                "type": "note_on",
                "note": 53,
                "velocity": 59,
                "time": 0
            },
            {
                "type": "note_on",
                "note": 67,
                "velocity": 0,
                "time": 2
            },
            {
                "type": "note_on",
                "note": 65,
                "velocity": 0,
                "time": 174
            },
            {
                "type": "note_on",
                "note": 53,
                "velocity": 0,
                "time": 12
            },
            {
                "type": "note_on",
                "note": 53,
                "velocity": 80,
                "time": 4
            },
            {
                "type": "note_on",
                "note": 63,
                "velocity": 0,
                "time": 12
            },
            {
                "type": "note_on",
                "note": 53,
                "velocity": 0,
                "time": 64
            },
            {
                "type": "note_on",
                "note": 53,
                "velocity": 63,
                "time": 20
            },
            {
                "type": "note_on",
                "note": 53,
                "velocity": 0,
                "time": 76
            },
            {
                "type": "note_on",
                "note": 62,
                "velocity": 93,
                "time": 20
            },
            {
                "type": "note_on",
                "note": 65,
                "velocity": 85,
                "time": 0
            },
            {
                "type": "note_on",
                "note": 65,
                "velocity": 0,
                "time": 64
            },
            {
                "type": "note_on",
                "note": 62,
                "velocity": 0,
                "time": 2
            },
            {
                "type": "note_on",
                "note": 62,
                "velocity": 90,
                "time": 30
            },
            {
                "type": "note_on",
                "note": 65,
                "velocity": 71,
                "time": 0
            },
            {
                "type": "note_on",
                "note": 65,
                "velocity": 0,
                "time": 74
            },
            {
                "type": "note_on",
                "note": 67,
                "velocity": 71,
                "time": 22
            },
            {
                "type": "note_on",
                "note": 63,
                "velocity": 90,
                "time": 0
            },
            {
                "type": "note_on",
                "note": 62,
                "velocity": 0,
                "time": 6
            },
            {
                "type": "note_on",
                "note": 67,
                "velocity": 0,
                "time": 56
            },
            {
                "type": "note_on",
                "note": 63,
                "velocity": 0,
                "time": 8
            },
            {
                "type": "note_on",
                "note": 62,
                "velocity": 90,
                "time": 26
            },
            {
                "type": "note_on",
                "note": 65,
                "velocity": 75,
                "time": 0
            },
            {
                "type": "note_on",
                "note": 65,
                "velocity": 0,
                "time": 80
            },
            {
                "type": "note_on",
                "note": 63,
                "velocity": 82,
                "time": 16
            },
            {
                "type": "note_on",
                "note": 60,
                "velocity": 90,
                "time": 0
            },
            {
                "type": "note_on",
                "note": 62,
                "velocity": 0,
                "time": 6
            },
            {
                "type": "note_on",
                "note": 60,
                "velocity": 0,
                "time": 48
            },
            {
                "type": "note_on",
                "note": 63,
                "velocity": 0,
                "time": 4
            },
            {
                "type": "note_on",
                "note": 58,
                "velocity": 90,
                "time": 38
            },
            {
                "type": "note_on",
                "note": 62,
                "velocity": 78,
                "time": 0
            },
            {
                "type": "note_on",
                "note": 62,
                "velocity": 0,
                "time": 160
            },
            {
                "type": "note_on",
                "note": 58,
                "velocity": 0,
                "time": 0
            },
            {
                "type": "note_on",
                "note": 58,
                "velocity": 58,
                "time": 128
            },
            {
                "type": "note_on",
                "note": 62,
                "velocity": 90,
                "time": 0
            },
            {
                "type": "note_on",
                "note": 62,
                "velocity": 0,
                "time": 70
            },
            {
                "type": "note_on",
                "note": 58,
                "velocity": 0,
                "time": 0
            },
            {
                "type": "note_on",
                "note": 62,
                "velocity": 82,
                "time": 26
            },
            {
                "type": "note_on",
                "note": 58,
                "velocity": 58,
                "time": 0
            },
            {
                "type": "note_on",
                "note": 58,
                "velocity": 0,
                "time": 52
            },
            {
                "type": "note_on",
                "note": 62,
                "velocity": 0,
                "time": 10
            },
            {
                "type": "note_on",
                "note": 58,
                "velocity": 69,
                "time": 34
            },
            {
                "type": "note_on",
                "note": 62,
                "velocity": 86,
                "time": 0
            },
            {
                "type": "note_on",
                "note": 58,
                "velocity": 0,
                "time": 46
            },
            {
                "type": "note_on",
                "note": 62,
                "velocity": 0,
                "time": 14
            },
            {
                "type": "note_on",
                "note": 62,
                "velocity": 90,
                "time": 36
            },
            {
                "type": "note_on",
                "note": 58,
                "velocity": 72,
                "time": 0
            },
            {
                "type": "note_on",
                "note": 58,
                "velocity": 0,
                "time": 376
            },
            {
                "type": "note_on",
                "note": 62,
                "velocity": 0,
                "time": 0
            },
            {
                "type": "note_on",
                "note": 62,
                "velocity": 82,
                "time": 8
            },
            {
                "type": "note_on",
                "note": 58,
                "velocity": 64,
                "time": 0
            },
            {
                "type": "note_on",
                "note": 58,
                "velocity": 0,
                "time": 52
            },
            {
                "type": "note_on",
                "note": 62,
                "velocity": 0,
                "time": 26
            },
            {
                "type": "note_on",
                "note": 62,
                "velocity": 90,
                "time": 18
            },
            {
                "type": "note_on",
                "note": 58,
                "velocity": 78,
                "time": 0
            },
            {
                "type": "note_on",
                "note": 58,
                "velocity": 0,
                "time": 56
            },
            {
                "type": "note_on",
                "note": 62,
                "velocity": 0,
                "time": 30
            },
            {
                "type": "note_on",
                "note": 58,
                "velocity": 71,
                "time": 10
            },
            {
                "type": "note_on",
                "note": 62,
                "velocity": 86,
                "time": 0
            },
            {
                "type": "note_on",
                "note": 58,
                "velocity": 0,
                "time": 76
            },
            {
                "type": "note_on",
                "note": 62,
                "velocity": 0,
                "time": 4
            },
            {
                "type": "note_on",
                "note": 63,
                "velocity": 86,
                "time": 16
            },
            {
                "type": "note_on",
                "note": 60,
                "velocity": 81,
                "time": 0
            },
            {
                "type": "note_on",
                "note": 60,
                "velocity": 0,
                "time": 64
            },
            {
                "type": "note_on",
                "note": 63,
                "velocity": 0,
                "time": 14
            },
            {
                "type": "note_on",
                "note": 62,
                "velocity": 82,
                "time": 18
            },
            {
                "type": "note_on",
                "note": 58,
                "velocity": 86,
                "time": 0
            },
            {
                "type": "note_on",
                "note": 62,
                "velocity": 0,
                "time": 182
            },
            {
                "type": "note_on",
                "note": 62,
                "velocity": 79,
                "time": 10
            },
            {
                "type": "note_on",
                "note": 58,
                "velocity": 90,
                "time": 0
            },
            {
                "type": "note_on",
                "note": 58,
                "velocity": 0,
                "time": 32
            },
            {
                "type": "note_on",
                "note": 58,
                "velocity": 0,
                "time": 156
            },
            {
                "type": "note_on",
                "note": 67,
                "velocity": 90,
                "time": 4
            },
            {
                "type": "note_on",
                "note": 63,
                "velocity": 82,
                "time": 0
            },
            {
                "type": "note_on",
                "note": 62,
                "velocity": 0,
                "time": 6
            },
            {
                "type": "note_on",
                "note": 67,
                "velocity": 0,
                "time": 128
            },
            {
                "type": "note_on",
                "note": 63,
                "velocity": 0,
                "time": 4
            },
            {
                "type": "note_on",
                "note": 60,
                "velocity": 78,
                "time": 56
            },
            {
                "type": "note_on",
                "note": 63,
                "velocity": 87,
                "time": 8
            },
            {
                "type": "note_on",
                "note": 70,
                "velocity": 86,
                "time": 0
            },
            {
                "type": "note_on",
                "note": 67,
                "velocity": 76,
                "time": 8
            },
            {
                "type": "note_on",
                "note": 60,
                "velocity": 0,
                "time": 546
            },
            {
                "type": "note_on",
                "note": 63,
                "velocity": 0,
                "time": 12
            },
            {
                "type": "note_on",
                "note": 70,
                "velocity": 0,
                "time": 2
            },
            {
                "type": "note_on",
                "note": 67,
                "velocity": 0,
                "time": 6
            },
            {
                "type": "note_on",
                "note": 74,
                "velocity": 100,
                "time": 0
            },
            {
                "type": "note_on",
                "note": 67,
                "velocity": 85,
                "time": 2
            },
            {
                "type": "note_on",
                "note": 67,
                "velocity": 0,
                "time": 184
            },
            {
                "type": "note_on",
                "note": 74,
                "velocity": 0,
                "time": 14
            },
            {
                "type": "note_on",
                "note": 60,
                "velocity": 66,
                "time": 2
            },
            {
                "type": "note_on",
                "note": 53,
                "velocity": 75,
                "time": 6
            },
            {
                "type": "note_on",
                "note": 60,
                "velocity": 0,
                "time": 40
            },
            {
                "type": "note_on",
                "note": 53,
                "velocity": 0,
                "time": 38
            },
            {
                "type": "note_on",
                "note": 60,
                "velocity": 75,
                "time": 10
            },
            {
                "type": "note_on",
                "note": 60,
                "velocity": 0,
                "time": 82
            },
            {
                "type": "note_on",
                "note": 62,
                "velocity": 76,
                "time": 8
            },
            {
                "type": "note_on",
                "note": 62,
                "velocity": 0,
                "time": 66
            },
            {
                "type": "note_on",
                "note": 63,
                "velocity": 80,
                "time": 2
            },
            {
                "type": "note_on",
                "note": 63,
                "velocity": 0,
                "time": 70
            },
            {
                "type": "note_on",
                "note": 63,
                "velocity": 76,
                "time": 24
            },
            {
                "type": "note_on",
                "note": 71,
                "velocity": 91,
                "time": 14
            },
            {
                "type": "note_on",
                "note": 66,
                "velocity": 78,
                "time": 6
            },
            {
                "type": "note_on",
                "note": 63,
                "velocity": 0,
                "time": 58
            },
            {
                "type": "note_on",
                "note": 71,
                "velocity": 0,
                "time": 4
            },
            {
                "type": "note_on",
                "note": 66,
                "velocity": 0,
                "time": 20
            },
            {
                "type": "note_on",
                "note": 63,
                "velocity": 82,
                "time": 2
            },
            {
                "type": "note_on",
                "note": 66,
                "velocity": 79,
                "time": 2
            },
            {
                "type": "note_on",
                "note": 71,
                "velocity": 75,
                "time": 2
            },
            {
                "type": "note_on",
                "note": 66,
                "velocity": 0,
                "time": 70
            },
            {
                "type": "note_on",
                "note": 63,
                "velocity": 0,
                "time": 2
            },
            {
                "type": "note_on",
                "note": 71,
                "velocity": 0,
                "time": 2
            },
            {
                "type": "note_on",
                "note": 65,
                "velocity": 78,
                "time": 20
            },
            {
                "type": "note_on",
                "note": 62,
                "velocity": 75,
                "time": 0
            },
            {
                "type": "note_on",
                "note": 70,
                "velocity": 79,
                "time": 2
            },
            {
                "type": "note_on",
                "note": 65,
                "velocity": 0,
                "time": 140
            },
            {
                "type": "note_on",
                "note": 70,
                "velocity": 0,
                "time": 6
            },
            {
                "type": "note_on",
                "note": 62,
                "velocity": 0,
                "time": 14
            },
            {
                "type": "note_on",
                "note": 64,
                "velocity": 78,
                "time": 34
            },
            {
                "type": "note_on",
                "note": 69,
                "velocity": 73,
                "time": 4
            },
            {
                "type": "note_on",
                "note": 61,
                "velocity": 69,
                "time": 4
            },
            {
                "type": "note_on",
                "note": 64,
                "velocity": 0,
                "time": 58
            },
            {
                "type": "note_on",
                "note": 61,
                "velocity": 0,
                "time": 2
            },
            {
                "type": "note_on",
                "note": 69,
                "velocity": 0,
                "time": 0
            },
            {
                "type": "note_on",
                "note": 61,
                "velocity": 72,
                "time": 24
            },
            {
                "type": "note_on",
                "note": 64,
                "velocity": 75,
                "time": 2
            },
            {
                "type": "note_on",
                "note": 69,
                "velocity": 75,
                "time": 2
            },
            {
                "type": "note_on",
                "note": 69,
                "velocity": 0,
                "time": 64
            },
            {
                "type": "note_on",
                "note": 64,
                "velocity": 0,
                "time": 2
            },
            {
                "type": "note_on",
                "note": 61,
                "velocity": 0,
                "time": 4
            },
            {
                "type": "note_on",
                "note": 65,
                "velocity": 75,
                "time": 18
            },
            {
                "type": "note_on",
                "note": 70,
                "velocity": 79,
                "time": 2
            },
            {
                "type": "note_on",
                "note": 62,
                "velocity": 70,
                "time": 2
            },
            {
                "type": "note_on",
                "note": 65,
                "velocity": 0,
                "time": 140
            },
            {
                "type": "note_on",
                "note": 62,
                "velocity": 0,
                "time": 8
            },
            {
                "type": "note_on",
                "note": 70,
                "velocity": 0,
                "time": 2
            },
            {
                "type": "note_on",
                "note": 66,
                "velocity": 82,
                "time": 2
            },
            {
                "type": "note_on",
                "note": 71,
                "velocity": 78,
                "time": 4
            },
            {
                "type": "note_on",
                "note": 63,
                "velocity": 79,
                "time": 0
            },
            {
                "type": "note_on",
                "note": 63,
                "velocity": 0,
                "time": 62
            },
            {
                "type": "note_on",
                "note": 71,
                "velocity": 0,
                "time": 0
            },
            {
                "type": "note_on",
                "note": 66,
                "velocity": 0,
                "time": 0
            },
            {
                "type": "note_on",
                "note": 66,
                "velocity": 82,
                "time": 26
            },
            {
                "type": "note_on",
                "note": 63,
                "velocity": 73,
                "time": 4
            },
            {
                "type": "note_on",
                "note": 71,
                "velocity": 76,
                "time": 2
            },
            {
                "type": "note_on",
                "note": 71,
                "velocity": 0,
                "time": 66
            },
            {
                "type": "note_on",
                "note": 63,
                "velocity": 0,
                "time": 2
            },
            {
                "type": "note_on",
                "note": 66,
                "velocity": 0,
                "time": 0
            },
            {
                "type": "note_on",
                "note": 65,
                "velocity": 71,
                "time": 20
            },
            {
                "type": "note_on",
                "note": 62,
                "velocity": 76,
                "time": 0
            },
            {
                "type": "note_on",
                "note": 70,
                "velocity": 86,
                "time": 6
            },
            {
                "type": "note_on",
                "note": 70,
                "velocity": 0,
                "time": 150
            },
            {
                "type": "note_on",
                "note": 62,
                "velocity": 0,
                "time": 4
            },
            {
                "type": "note_on",
                "note": 65,
                "velocity": 0,
                "time": 12
            },
            {
                "type": "note_on",
                "note": 69,
                "velocity": 89,
                "time": 2
            },
            {
                "type": "note_on",
                "note": 61,
                "velocity": 100,
                "time": 2
            },
            {
                "type": "note_on",
                "note": 64,
                "velocity": 90,
                "time": 6
            },
            {
                "type": "note_on",
                "note": 61,
                "velocity": 0,
                "time": 56
            },
            {
                "type": "note_on",
                "note": 69,
                "velocity": 0,
                "time": 2
            },
            {
                "type": "note_on",
                "note": 64,
                "velocity": 0,
                "time": 2
            },
            {
                "type": "note_on",
                "note": 61,
                "velocity": 88,
                "time": 24
            },
            {
                "type": "note_on",
                "note": 69,
                "velocity": 96,
                "time": 0
            },
            {
                "type": "note_on",
                "note": 64,
                "velocity": 92,
                "time": 4
            },
            {
                "type": "note_on",
                "note": 69,
                "velocity": 0,
                "time": 62
            },
            {
                "type": "note_on",
                "note": 64,
                "velocity": 0,
                "time": 4
            },
            {
                "type": "note_on",
                "note": 61,
                "velocity": 0,
                "time": 0
            },
            {
                "type": "note_on",
                "note": 65,
                "velocity": 95,
                "time": 24
            },
            {
                "type": "note_on",
                "note": 70,
                "velocity": 96,
                "time": 0
            },
            {
                "type": "note_on",
                "note": 62,
                "velocity": 95,
                "time": 6
            },
            {
                "type": "note_on",
                "note": 62,
                "velocity": 0,
                "time": 132
            },
            {
                "type": "note_on",
                "note": 70,
                "velocity": 0,
                "time": 18
            },
            {
                "type": "note_on",
                "note": 65,
                "velocity": 0,
                "time": 12
            },
            {
                "type": "note_on",
                "note": 58,
                "velocity": 81,
                "time": 4
            },
            {
                "type": "note_on",
                "note": 58,
                "velocity": 0,
                "time": 260
            },
            {
                "type": "note_on",
                "note": 58,
                "velocity": 88,
                "time": 28
            },
            {
                "type": "note_on",
                "note": 58,
                "velocity": 0,
                "time": 70
            },
            {
                "type": "note_on",
                "note": 58,
                "velocity": 82,
                "time": 24
            },
            {
                "type": "note_on",
                "note": 58,
                "velocity": 0,
                "time": 176
            },
            {
                "type": "note_on",
                "note": 65,
                "velocity": 90,
                "time": 12
            },
            {
                "type": "note_on",
                "note": 65,
                "velocity": 0,
                "time": 170
            },
            {
                "type": "note_on",
                "note": 67,
                "velocity": 93,
                "time": 32
            },
            {
                "type": "note_on",
                "note": 67,
                "velocity": 0,
                "time": 60
            },
            {
                "type": "note_on",
                "note": 67,
                "velocity": 88,
                "time": 22
            },
            {
                "type": "note_on",
                "note": 67,
                "velocity": 0,
                "time": 68
            },
            {
                "type": "note_on",
                "note": 67,
                "velocity": 95,
                "time": 24
            },
            {
                "type": "note_on",
                "note": 67,
                "velocity": 0,
                "time": 76
            },
            {
                "type": "note_on",
                "note": 67,
                "velocity": 93,
                "time": 20
            },
            {
                "type": "note_on",
                "note": 67,
                "velocity": 0,
                "time": 74
            },
            {
                "type": "note_on",
                "note": 65,
                "velocity": 93,
                "time": 28
            },
            {
                "type": "note_on",
                "note": 65,
                "velocity": 0,
                "time": 184
            },
            {
                "type": "note_on",
                "note": 60,
                "velocity": 91,
                "time": 14
            },
            {
                "type": "note_on",
                "note": 60,
                "velocity": 0,
                "time": 80
            },
            {
                "type": "note_on",
                "note": 57,
                "velocity": 86,
                "time": 8
            },
            {
                "type": "note_on",
                "note": 57,
                "velocity": 0,
                "time": 92
            },
            {
                "type": "note_on",
                "note": 65,
                "velocity": 92,
                "time": 2
            },
            {
                "type": "note_on",
                "note": 65,
                "velocity": 0,
                "time": 208
            },
            {
                "type": "note_on",
                "note": 75,
                "velocity": 104,
                "time": 2
            },
            {
                "type": "note_on",
                "note": 67,
                "velocity": 95,
                "time": 2
            },
            {
                "type": "note_on",
                "note": 70,
                "velocity": 109,
                "time": 586
            },
            {
                "type": "note_on",
                "note": 67,
                "velocity": 0,
                "time": 2
            },
            {
                "type": "note_on",
                "note": 65,
                "velocity": 104,
                "time": 0
            },
            {
                "type": "note_on",
                "note": 75,
                "velocity": 0,
                "time": 4
            },
            {
                "type": "note_on",
                "note": 63,
                "velocity": 91,
                "time": 180
            },
            {
                "type": "note_on",
                "note": 70,
                "velocity": 0,
                "time": 2
            },
            {
                "type": "note_on",
                "note": 67,
                "velocity": 105,
                "time": 0
            },
            {
                "type": "note_on",
                "note": 65,
                "velocity": 0,
                "time": 4
            },
            {
                "type": "note_on",
                "note": 63,
                "velocity": 0,
                "time": 632
            },
            {
                "type": "note_on",
                "note": 67,
                "velocity": 0,
                "time": 12
            },
            {
                "type": "note_on",
                "note": 68,
                "velocity": 102,
                "time": 116
            },
            {
                "type": "note_on",
                "note": 65,
                "velocity": 105,
                "time": 0
            },
            {
                "type": "note_on",
                "note": 65,
                "velocity": 0,
                "time": 574
            },
            {
                "type": "note_on",
                "note": 68,
                "velocity": 0,
                "time": 0
            },
            {
                "type": "note_on",
                "note": 48,
                "velocity": 99,
                "time": 182
            },
            {
                "type": "note_on",
                "note": 60,
                "velocity": 108,
                "time": 8
            },
            {
                "type": "note_on",
                "note": 48,
                "velocity": 0,
                "time": 96
            },
            {
                "type": "note_on",
                "note": 60,
                "velocity": 0,
                "time": 4
            },
            {
                "type": "note_on",
                "note": 46,
                "velocity": 83,
                "time": 0
            },
            {
                "type": "note_on",
                "note": 58,
                "velocity": 92,
                "time": 2
            },
            {
                "type": "note_on",
                "note": 46,
                "velocity": 0,
                "time": 48
            },
            {
                "type": "note_on",
                "note": 58,
                "velocity": 0,
                "time": 30
            },
            {
                "type": "note_on",
                "note": 70,
                "velocity": 104,
                "time": 590
            },
            {
                "type": "note_on",
                "note": 67,
                "velocity": 110,
                "time": 2
            },
            {
                "type": "note_on",
                "note": 67,
                "velocity": 0,
                "time": 550
            },
            {
                "type": "note_on",
                "note": 70,
                "velocity": 0,
                "time": 16
            },
            {
                "type": "note_on",
                "note": 65,
                "velocity": 105,
                "time": 12
            },
            {
                "type": "note_on",
                "note": 68,
                "velocity": 105,
                "time": 0
            },
            {
                "type": "note_on",
                "note": 60,
                "velocity": 73,
                "time": 182
            },
            {
                "type": "note_on",
                "note": 67,
                "velocity": 90,
                "time": 0
            },
            {
                "type": "note_on",
                "note": 68,
                "velocity": 0,
                "time": 4
            },
            {
                "type": "note_on",
                "note": 65,
                "velocity": 0,
                "time": 0
            },
            {
                "type": "note_on",
                "note": 60,
                "velocity": 0,
                "time": 578
            },
            {
                "type": "note_on",
                "note": 67,
                "velocity": 0,
                "time": 0
            },
            {
                "type": "note_on",
                "note": 61,
                "velocity": 95,
                "time": 572
            },
            {
                "type": "note_on",
                "note": 64,
                "velocity": 104,
                "time": 2
            },
            {
                "type": "note_on",
                "note": 57,
                "velocity": 97,
                "time": 2
            },
            {
                "type": "note_on",
                "note": 57,
                "velocity": 0,
                "time": 48
            },
            {
                "type": "note_on",
                "note": 61,
                "velocity": 0,
                "time": 2
            },
            {
                "type": "note_on",
                "note": 64,
                "velocity": 0,
                "time": 4
            },
            {
                "type": "note_on",
                "note": 61,
                "velocity": 99,
                "time": 32
            },
            {
                "type": "note_on",
                "note": 57,
                "velocity": 112,
                "time": 0
            },
            {
                "type": "note_on",
                "note": 64,
                "velocity": 114,
                "time": 2
            },
            {
                "type": "note_on",
                "note": 61,
                "velocity": 0,
                "time": 46
            },
            {
                "type": "note_on",
                "note": 57,
                "velocity": 0,
                "time": 12
            },
            {
                "type": "note_on",
                "note": 64,
                "velocity": 0,
                "time": 2
            },
            {
                "type": "note_on",
                "note": 66,
                "velocity": 113,
                "time": 42
            },
            {
                "type": "note_on",
                "note": 62,
                "velocity": 112,
                "time": 0
            },
            {
                "type": "note_on",
                "note": 69,
                "velocity": 110,
                "time": 0
            },
            {
                "type": "note_on",
                "note": 62,
                "velocity": 0,
                "time": 92
            },
            {
                "type": "note_on",
                "note": 69,
                "velocity": 0,
                "time": 8
            },
            {
                "type": "note_on",
                "note": 66,
                "velocity": 0,
                "time": 0
            },
            {
                "type": "note_on",
                "note": 64,
                "velocity": 114,
                "time": 76
            },
            {
                "type": "note_on",
                "note": 61,
                "velocity": 105,
                "time": 0
            },
            {
                "type": "note_on",
                "note": 57,
                "velocity": 106,
                "time": 4
            },
            {
                "type": "note_on",
                "note": 57,
                "velocity": 0,
                "time": 50
            },
            {
                "type": "note_on",
                "note": 61,
                "velocity": 0,
                "time": 8
            },
            {
                "type": "note_on",
                "note": 64,
                "velocity": 0,
                "time": 2
            },
            {
                "type": "note_on",
                "note": 64,
                "velocity": 115,
                "time": 34
            },
            {
                "type": "note_on",
                "note": 61,
                "velocity": 113,
                "time": 0
            },
            {
                "type": "note_on",
                "note": 57,
                "velocity": 111,
                "time": 2
            },
            {
                "type": "note_on",
                "note": 61,
                "velocity": 0,
                "time": 58
            },
            {
                "type": "note_on",
                "note": 57,
                "velocity": 0,
                "time": 4
            },
            {
                "type": "note_on",
                "note": 64,
                "velocity": 0,
                "time": 4
            },
            {
                "type": "note_on",
                "note": 62,
                "velocity": 112,
                "time": 40
            },
            {
                "type": "note_on",
                "note": 66,
                "velocity": 113,
                "time": 0
            },
            {
                "type": "note_on",
                "note": 69,
                "velocity": 114,
                "time": 2
            },
            {
                "type": "note_on",
                "note": 62,
                "velocity": 0,
                "time": 90
            },
            {
                "type": "note_on",
                "note": 69,
                "velocity": 0,
                "time": 4
            },
            {
                "type": "note_on",
                "note": 66,
                "velocity": 0,
                "time": 6
            },
            {
                "type": "note_on",
                "note": 61,
                "velocity": 99,
                "time": 84
            },
            {
                "type": "note_on",
                "note": 64,
                "velocity": 108,
                "time": 0
            },
            {
                "type": "note_on",
                "note": 57,
                "velocity": 100,
                "time": 4
            },
            {
                "type": "note_on",
                "note": 57,
                "velocity": 0,
                "time": 40
            },
            {
                "type": "note_on",
                "note": 61,
                "velocity": 0,
                "time": 10
            },
            {
                "type": "note_on",
                "note": 64,
                "velocity": 0,
                "time": 12
            },
            {
                "type": "note_on",
                "note": 61,
                "velocity": 97,
                "time": 22
            },
            {
                "type": "note_on",
                "note": 64,
                "velocity": 101,
                "time": 0
            },
            {
                "type": "note_on",
                "note": 57,
                "velocity": 105,
                "time": 0
            },
            {
                "type": "note_on",
                "note": 61,
                "velocity": 0,
                "time": 56
            },
            {
                "type": "note_on",
                "note": 57,
                "velocity": 0,
                "time": 2
            },
            {
                "type": "note_on",
                "note": 64,
                "velocity": 0,
                "time": 4
            },
            {
                "type": "note_on",
                "note": 63,
                "velocity": 119,
                "time": 38
            },
            {
                "type": "note_on",
                "note": 60,
                "velocity": 107,
                "time": 0
            },
            {
                "type": "note_on",
                "note": 57,
                "velocity": 110,
                "time": 2
            },
            {
                "type": "note_on",
                "note": 57,
                "velocity": 0,
                "time": 50
            },
            {
                "type": "note_on",
                "note": 63,
                "velocity": 0,
                "time": 6
            },
            {
                "type": "note_on",
                "note": 60,
                "velocity": 0,
                "time": 4
            },
            {
                "type": "note_on",
                "note": 63,
                "velocity": 102,
                "time": 26
            },
            {
                "type": "note_on",
                "note": 60,
                "velocity": 100,
                "time": 0
            },
            {
                "type": "note_on",
                "note": 57,
                "velocity": 100,
                "time": 2
            },
            {
                "type": "note_on",
                "note": 60,
                "velocity": 0,
                "time": 44
            },
            {
                "type": "note_on",
                "note": 57,
                "velocity": 0,
                "time": 14
            },
            {
                "type": "note_on",
                "note": 63,
                "velocity": 0,
                "time": 4
            },
            {
                "type": "note_on",
                "note": 61,
                "velocity": 104,
                "time": 42
            },
            {
                "type": "note_on",
                "note": 64,
                "velocity": 115,
                "time": 0
            },
            {
                "type": "note_on",
                "note": 57,
                "velocity": 97,
                "time": 2
            },
            {
                "type": "note_on",
                "note": 61,
                "velocity": 0,
                "time": 76
            },
            {
                "type": "note_on",
                "note": 64,
                "velocity": 0,
                "time": 20
            },
            {
                "type": "note_on",
                "note": 57,
                "velocity": 0,
                "time": 2
            },
            {
                "type": "note_on",
                "note": 66,
                "velocity": 109,
                "time": 80
            },
            {
                "type": "note_on",
                "note": 62,
                "velocity": 112,
                "time": 0
            },
            {
                "type": "note_on",
                "note": 69,
                "velocity": 106,
                "time": 2
            },
            {
                "type": "note_on",
                "note": 62,
                "velocity": 0,
                "time": 104
            },
            {
                "type": "note_on",
                "note": 69,
                "velocity": 0,
                "time": 6
            },
            {
                "type": "note_on",
                "note": 66,
                "velocity": 0,
                "time": 4
            },
            {
                "type": "note_on",
                "note": 64,
                "velocity": 111,
                "time": 88
            },
            {
                "type": "note_on",
                "note": 61,
                "velocity": 99,
                "time": 0
            },
            {
                "type": "note_on",
                "note": 57,
                "velocity": 105,
                "time": 2
            },
            {
                "type": "note_on",
                "note": 61,
                "velocity": 0,
                "time": 98
            },
            {
                "type": "note_on",
                "note": 57,
                "velocity": 0,
                "time": 2
            },
            {
                "type": "note_on",
                "note": 64,
                "velocity": 0,
                "time": 4
            },
            {
                "type": "note_on",
                "note": 61,
                "velocity": 125,
                "time": 2
            },
            {
                "type": "note_on",
                "note": 61,
                "velocity": 0,
                "time": 44
            },
            {
                "type": "note_on",
                "note": 61,
                "velocity": 126,
                "time": 36
            },
            {
                "type": "note_on",
                "note": 61,
                "velocity": 0,
                "time": 52
            },
            {
                "type": "note_on",
                "note": 60,
                "velocity": 121,
                "time": 42
            },
            {
                "type": "note_on",
                "note": 60,
                "velocity": 0,
                "time": 60
            },
            {
                "type": "note_on",
                "note": 61,
                "velocity": 127,
                "time": 32
            },
            {
                "type": "note_on",
                "note": 61,
                "velocity": 0,
                "time": 60
            },
            {
                "type": "note_on",
                "note": 63,
                "velocity": 127,
                "time": 46
            },
            {
                "type": "note_on",
                "note": 63,
                "velocity": 0,
                "time": 144
            },
            {
                "type": "note_on",
                "note": 63,
                "velocity": 127,
                "time": 42
            },
            {
                "type": "note_on",
                "note": 63,
                "velocity": 0,
                "time": 140
            },
            {
                "type": "note_on",
                "note": 64,
                "velocity": 127,
                "time": 58
            },
            {
                "type": "note_on",
                "note": 79,
                "velocity": 90,
                "time": 4
            },
            {
                "type": "note_on",
                "note": 48,
                "velocity": 127,
                "time": 2
            },
            {
                "type": "note_on",
                "note": 48,
                "velocity": 0,
                "time": 44
            },
            {
                "type": "note_on",
                "note": 64,
                "velocity": 0,
                "time": 6
            },
            {
                "type": "note_on",
                "note": 79,
                "velocity": 0,
                "time": 6
            },
            {
                "type": "note_on",
                "note": 64,
                "velocity": 127,
                "time": 30
            },
            {
                "type": "note_on",
                "note": 48,
                "velocity": 127,
                "time": 0
            },
            {
                "type": "note_on",
                "note": 79,
                "velocity": 93,
                "time": 2
            },
            {
                "type": "note_on",
                "note": 79,
                "velocity": 0,
                "time": 54
            },
            {
                "type": "note_on",
                "note": 64,
                "velocity": 0,
                "time": 2
            },
            {
                "type": "note_on",
                "note": 48,
                "velocity": 0,
                "time": 2
            },
            {
                "type": "note_on",
                "note": 79,
                "velocity": 100,
                "time": 34
            },
            {
                "type": "note_on",
                "note": 64,
                "velocity": 127,
                "time": 0
            },
            {
                "type": "note_on",
                "note": 50,
                "velocity": 127,
                "time": 3
            },
            {
                "type": "note_on",
                "note": 50,
                "velocity": 0,
                "time": 50
            },
            {
                "type": "note_on",
                "note": 79,
                "velocity": 0,
                "time": 3
            },
            {
                "type": "note_on",
                "note": 64,
                "velocity": 0,
                "time": 12
            },
            {
                "type": "note_on",
                "note": 50,
                "velocity": 127,
                "time": 29
            },
            {
                "type": "note_on",
                "note": 64,
                "velocity": 127,
                "time": 1
            },
            {
                "type": "note_on",
                "note": 79,
                "velocity": 88,
                "time": 0
            },
            {
                "type": "note_on",
                "note": 64,
                "velocity": 0,
                "time": 48
            },
            {
                "type": "note_on",
                "note": 79,
                "velocity": 0,
                "time": 2
            },
            {
                "type": "note_on",
                "note": 50,
                "velocity": 0,
                "time": 7
            },
            {
                "type": "note_on",
                "note": 52,
                "velocity": 127,
                "time": 41
            },
            {
                "type": "note_on",
                "note": 80,
                "velocity": 95,
                "time": 2
            },
            {
                "type": "note_on",
                "note": 62,
                "velocity": 127,
                "time": 2
            },
            {
                "type": "note_on",
                "note": 62,
                "velocity": 0,
                "time": 106
            },
            {
                "type": "note_on",
                "note": 80,
                "velocity": 0,
                "time": 16
            },
            {
                "type": "note_on",
                "note": 52,
                "velocity": 0,
                "time": 12
            },
            {
                "type": "note_on",
                "note": 62,
                "velocity": 127,
                "time": 46
            },
            {
                "type": "note_on",
                "note": 52,
                "velocity": 127,
                "time": 0
            },
            {
                "type": "note_on",
                "note": 80,
                "velocity": 103,
                "time": 6
            },
            {
                "type": "note_on",
                "note": 80,
                "velocity": 0,
                "time": 112
            },
            {
                "type": "note_on",
                "note": 52,
                "velocity": 0,
                "time": 6
            },
            {
                "type": "note_on",
                "note": 62,
                "velocity": 0,
                "time": 10
            },
            {
                "type": "note_on",
                "note": 81,
                "velocity": 100,
                "time": 66
            },
            {
                "type": "note_on",
                "note": 57,
                "velocity": 127,
                "time": 0
            },
            {
                "type": "note_on",
                "note": 61,
                "velocity": 127,
                "time": 6
            },
            {
                "type": "note_on",
                "note": 57,
                "velocity": 0,
                "time": 50
            },
            {
                "type": "note_on",
                "note": 61,
                "velocity": 0,
                "time": 6
            },
            {
                "type": "note_on",
                "note": 81,
                "velocity": 0,
                "time": 12
            },
            {
                "type": "note_on",
                "note": 76,
                "velocity": 101,
                "time": 122
            },
            {
                "type": "note_on",
                "note": 76,
                "velocity": 0,
                "time": 40
            },
            {
                "type": "note_on",
                "note": 76,
                "velocity": 110,
                "time": 40
            },
            {
                "type": "note_on",
                "note": 76,
                "velocity": 0,
                "time": 48
            },
            {
                "type": "note_on",
                "note": 77,
                "velocity": 124,
                "time": 42
            },
            {
                "type": "note_on",
                "note": 77,
                "velocity": 0,
                "time": 82
            },
            {
                "type": "note_on",
                "note": 76,
                "velocity": 104,
                "time": 10
            },
            {
                "type": "note_on",
                "note": 76,
                "velocity": 0,
                "time": 60
            },
            {
                "type": "note_on",
                "note": 76,
                "velocity": 114,
                "time": 442
            },
            {
                "type": "note_on",
                "note": 76,
                "velocity": 0,
                "time": 48
            },
            {
                "type": "note_on",
                "note": 76,
                "velocity": 107,
                "time": 42
            },
            {
                "type": "note_on",
                "note": 76,
                "velocity": 0,
                "time": 44
            },
            {
                "type": "note_on",
                "note": 77,
                "velocity": 124,
                "time": 50
            },
            {
                "type": "note_on",
                "note": 77,
                "velocity": 0,
                "time": 86
            },
            {
                "type": "note_on",
                "note": 76,
                "velocity": 110,
                "time": 10
            },
            {
                "type": "note_on",
                "note": 76,
                "velocity": 0,
                "time": 66
            },
            {
                "type": "note_on",
                "note": 76,
                "velocity": 118,
                "time": 426
            },
            {
                "type": "note_on",
                "note": 76,
                "velocity": 0,
                "time": 42
            },
            {
                "type": "note_on",
                "note": 76,
                "velocity": 111,
                "time": 40
            },
            {
                "type": "note_on",
                "note": 76,
                "velocity": 0,
                "time": 50
            },
            {
                "type": "note_on",
                "note": 77,
                "velocity": 126,
                "time": 52
            },
            {
                "type": "note_on",
                "note": 77,
                "velocity": 0,
                "time": 82
            },
            {
                "type": "note_on",
                "note": 76,
                "velocity": 120,
                "time": 10
            },
            {
                "type": "note_on",
                "note": 76,
                "velocity": 0,
                "time": 50
            },
            {
                "type": "note_on",
                "note": 74,
                "velocity": 115,
                "time": 52
            },
            {
                "type": "note_on",
                "note": 74,
                "velocity": 0,
                "time": 64
            },
            {
                "type": "note_on",
                "note": 72,
                "velocity": 122,
                "time": 26
            },
            {
                "type": "note_on",
                "note": 72,
                "velocity": 0,
                "time": 64
            },
            {
                "type": "note_on",
                "note": 71,
                "velocity": 127,
                "time": 44
            },
            {
                "type": "note_on",
                "note": 71,
                "velocity": 0,
                "time": 110
            },
            {
                "type": "note_on",
                "note": 68,
                "velocity": 107,
                "time": 2580
            },
            {
                "type": "note_on",
                "note": 75,
                "velocity": 115,
                "time": 4
            },
            {
                "type": "note_on",
                "note": 56,
                "velocity": 99,
                "time": 4
            },
            {
                "type": "note_on",
                "note": 75,
                "velocity": 0,
                "time": 116
            },
            {
                "type": "note_on",
                "note": 68,
                "velocity": 0,
                "time": 14
            },
            {
                "type": "note_on",
                "note": 56,
                "velocity": 0,
                "time": 8
            },
            {
                "type": "note_on",
                "note": 55,
                "velocity": 122,
                "time": 28
            },
            {
                "type": "note_on",
                "note": 67,
                "velocity": 127,
                "time": 8
            },
            {
                "type": "note_on",
                "note": 75,
                "velocity": 124,
                "time": 0
            },
            {
                "type": "note_on",
                "note": 75,
                "velocity": 0,
                "time": 46
            },
            {
                "type": "note_on",
                "note": 67,
                "velocity": 0,
                "time": 18
            },
            {
                "type": "note_on",
                "note": 55,
                "velocity": 0,
                "time": 2
            },
            {
                "type": "note_on",
                "note": 75,
                "velocity": 127,
                "time": 28
            },
            {
                "type": "note_on",
                "note": 55,
                "velocity": 122,
                "time": 6
            },
            {
                "type": "note_on",
                "note": 67,
                "velocity": 127,
                "time": 2
            },
            {
                "type": "note_on",
                "note": 75,
                "velocity": 0,
                "time": 36
            },
            {
                "type": "note_on",
                "note": 67,
                "velocity": 0,
                "time": 18
            },
            {
                "type": "note_on",
                "note": 55,
                "velocity": 0,
                "time": 6
            },
            {
                "type": "note_on",
                "note": 75,
                "velocity": 124,
                "time": 28
            },
            {
                "type": "note_on",
                "note": 54,
                "velocity": 115,
                "time": 8
            },
            {
                "type": "note_on",
                "note": 66,
                "velocity": 122,
                "time": 2
            },
            {
                "type": "note_on",
                "note": 66,
                "velocity": 0,
                "time": 128
            },
            {
                "type": "note_on",
                "note": 54,
                "velocity": 0,
                "time": 8
            },
            {
                "type": "note_on",
                "note": 75,
                "velocity": 0,
                "time": 6
            },
            {
                "type": "note_on",
                "note": 75,
                "velocity": 119,
                "time": 40
            },
            {
                "type": "note_on",
                "note": 55,
                "velocity": 127,
                "time": 2
            },
            {
                "type": "note_on",
                "note": 67,
                "velocity": 127,
                "time": 6
            },
            {
                "type": "note_on",
                "note": 75,
                "velocity": 0,
                "time": 126
            },
            {
                "type": "note_on",
                "note": 67,
                "velocity": 0,
                "time": 4
            },
            {
                "type": "note_on",
                "note": 55,
                "velocity": 0,
                "time": 10
            },
            {
                "type": "note_on",
                "note": 75,
                "velocity": 119,
                "time": 50
            },
            {
                "type": "note_on",
                "note": 56,
                "velocity": 104,
                "time": 2
            },
            {
                "type": "note_on",
                "note": 68,
                "velocity": 126,
                "time": 4
            },
            {
                "type": "note_on",
                "note": 75,
                "velocity": 0,
                "time": 38
            },
            {
                "type": "note_on",
                "note": 56,
                "velocity": 0,
                "time": 10
            },
            {
                "type": "note_on",
                "note": 68,
                "velocity": 0,
                "time": 2
            },
            {
                "type": "note_on",
                "note": 56,
                "velocity": 110,
                "time": 28
            },
            {
                "type": "note_on",
                "note": 68,
                "velocity": 127,
                "time": 2
            },
            {
                "type": "note_on",
                "note": 75,
                "velocity": 124,
                "time": 8
            },
            {
                "type": "note_on",
                "note": 75,
                "velocity": 0,
                "time": 40
            },
            {
                "type": "note_on",
                "note": 68,
                "velocity": 0,
                "time": 10
            },
            {
                "type": "note_on",
                "note": 56,
                "velocity": 0,
                "time": 6
            },
            {
                "type": "note_on",
                "note": 67,
                "velocity": 127,
                "time": 30
            },
            {
                "type": "note_on",
                "note": 55,
                "velocity": 117,
                "time": 2
            },
            {
                "type": "note_on",
                "note": 75,
                "velocity": 124,
                "time": 12
            },
            {
                "type": "note_on",
                "note": 67,
                "velocity": 0,
                "time": 126
            },
            {
                "type": "note_on",
                "note": 75,
                "velocity": 0,
                "time": 8
            },
            {
                "type": "note_on",
                "note": 55,
                "velocity": 0,
                "time": 28
            },
            {
                "type": "note_on",
                "note": 75,
                "velocity": 127,
                "time": 20
            },
            {
                "type": "note_on",
                "note": 66,
                "velocity": 124,
                "time": 10
            },
            {
                "type": "note_on",
                "note": 54,
                "velocity": 125,
                "time": 2
            },
            {
                "type": "note_on",
                "note": 75,
                "velocity": 0,
                "time": 36
            },
            {
                "type": "note_on",
                "note": 66,
                "velocity": 0,
                "time": 14
            },
            {
                "type": "note_on",
                "note": 54,
                "velocity": 0,
                "time": 6
            },
            {
                "type": "note_on",
                "note": 54,
                "velocity": 118,
                "time": 26
            },
            {
                "type": "note_on",
                "note": 66,
                "velocity": 120,
                "time": 4
            },
            {
                "type": "note_on",
                "note": 75,
                "velocity": 115,
                "time": 0
            },
            {
                "type": "note_on",
                "note": 75,
                "velocity": 0,
                "time": 52
            },
            {
                "type": "note_on",
                "note": 66,
                "velocity": 0,
                "time": 0
            },
            {
                "type": "note_on",
                "note": 54,
                "velocity": 0,
                "time": 6
            },
            {
                "type": "note_on",
                "note": 55,
                "velocity": 124,
                "time": 38
            },
            {
                "type": "note_on",
                "note": 67,
                "velocity": 127,
                "time": 4
            },
            {
                "type": "note_on",
                "note": 75,
                "velocity": 124,
                "time": 0
            },
            {
                "type": "note_on",
                "note": 75,
                "velocity": 0,
                "time": 110
            },
            {
                "type": "note_on",
                "note": 55,
                "velocity": 0,
                "time": 22
            },
            {
                "type": "note_on",
                "note": 67,
                "velocity": 0,
                "time": 2
            },
            {
                "type": "note_on",
                "note": 72,
                "velocity": 127,
                "time": 58
            },
            {
                "type": "note_on",
                "note": 56,
                "velocity": 123,
                "time": 6
            },
            {
                "type": "note_on",
                "note": 56,
                "velocity": 0,
                "time": 114
            },
            {
                "type": "note_on",
                "note": 72,
                "velocity": 0,
                "time": 8
            },
            {
                "type": "note_on",
                "note": 56,
                "velocity": 121,
                "time": 44
            },
            {
                "type": "note_on",
                "note": 72,
                "velocity": 124,
                "time": 16
            },
            {
                "type": "note_on",
                "note": 72,
                "velocity": 0,
                "time": 40
            },
            {
                "type": "note_on",
                "note": 56,
                "velocity": 0,
                "time": 20
            },
            {
                "type": "note_on",
                "note": 74,
                "velocity": 115,
                "time": 24
            },
            {
                "type": "note_on",
                "note": 58,
                "velocity": 127,
                "time": 6
            },
            {
                "type": "note_on",
                "note": 74,
                "velocity": 0,
                "time": 36
            },
            {
                "type": "note_on",
                "note": 58,
                "velocity": 0,
                "time": 34
            },
            {
                "type": "note_on",
                "note": 70,
                "velocity": 127,
                "time": 24
            },
            {
                "type": "note_on",
                "note": 55,
                "velocity": 127,
                "time": 6
            },
            {
                "type": "note_on",
                "note": 70,
                "velocity": 0,
                "time": 102
            },
            {
                "type": "note_on",
                "note": 55,
                "velocity": 0,
                "time": 46
            },
            {
                "type": "note_on",
                "note": 55,
                "velocity": 124,
                "time": 36
            },
            {
                "type": "note_on",
                "note": 70,
                "velocity": 127,
                "time": 0
            },
            {
                "type": "note_on",
                "note": 70,
                "velocity": 0,
                "time": 32
            },
            {
                "type": "note_on",
                "note": 55,
                "velocity": 0,
                "time": 6
            },
            {
                "type": "note_on",
                "note": 70,
                "velocity": 119,
                "time": 40
            },
            {
                "type": "note_on",
                "note": 55,
                "velocity": 127,
                "time": 2
            },
            {
                "type": "note_on",
                "note": 70,
                "velocity": 0,
                "time": 34
            },
            {
                "type": "note_on",
                "note": 55,
                "velocity": 0,
                "time": 22
            },
            {
                "type": "note_on",
                "note": 51,
                "velocity": 113,
                "time": 36
            },
            {
                "type": "note_on",
                "note": 53,
                "velocity": 127,
                "time": 4
            },
            {
                "type": "note_on",
                "note": 69,
                "velocity": 127,
                "time": 0
            },
            {
                "type": "note_on",
                "note": 50,
                "velocity": 111,
                "time": 106
            },
            {
                "type": "note_on",
                "note": 53,
                "velocity": 0,
                "time": 32
            },
            {
                "type": "note_on",
                "note": 51,
                "velocity": 0,
                "time": 2
            },
            {
                "type": "note_on",
                "note": 69,
                "velocity": 0,
                "time": 10
            },
            {
                "type": "note_on",
                "note": 50,
                "velocity": 0,
                "time": 18
            },
            {
                "type": "note_on",
                "note": 69,
                "velocity": 127,
                "time": 20
            },
            {
                "type": "note_on",
                "note": 48,
                "velocity": 111,
                "time": 2
            },
            {
                "type": "note_on",
                "note": 53,
                "velocity": 127,
                "time": 4
            },
            {
                "type": "note_on",
                "note": 69,
                "velocity": 0,
                "time": 42
            },
            {
                "type": "note_on",
                "note": 53,
                "velocity": 0,
                "time": 12
            },
            {
                "type": "note_on",
                "note": 48,
                "velocity": 0,
                "time": 4
            },
            {
                "type": "note_on",
                "note": 69,
                "velocity": 127,
                "time": 30
            },
            {
                "type": "note_on",
                "note": 53,
                "velocity": 113,
                "time": 2
            },
            {
                "type": "note_on",
                "note": 69,
                "velocity": 0,
                "time": 38
            },
            {
                "type": "note_on",
                "note": 53,
                "velocity": 0,
                "time": 14
            },
            {
                "type": "note_on",
                "note": 70,
                "velocity": 118,
                "time": 42
            },
            {
                "type": "note_on",
                "note": 53,
                "velocity": 123,
                "time": 4
            },
            {
                "type": "note_on",
                "note": 53,
                "velocity": 0,
                "time": 108
            },
            {
                "type": "note_on",
                "note": 70,
                "velocity": 0,
                "time": 0
            },
            {
                "type": "note_on",
                "note": 51,
                "velocity": 109,
                "time": 2966
            },
            {
                "type": "note_on",
                "note": 63,
                "velocity": 109,
                "time": 0
            },
            {
                "type": "note_on",
                "note": 63,
                "velocity": 0,
                "time": 238
            },
            {
                "type": "note_on",
                "note": 51,
                "velocity": 0,
                "time": 0
            },
            {
                "type": "note_on",
                "note": 46,
                "velocity": 82,
                "time": 66
            },
            {
                "type": "note_on",
                "note": 53,
                "velocity": 82,
                "time": 0
            },
            {
                "type": "note_on",
                "note": 58,
                "velocity": 82,
                "time": 0
            },
            {
                "type": "note_on",
                "note": 58,
                "velocity": 0,
                "time": 48
            },
            {
                "type": "note_on",
                "note": 53,
                "velocity": 0,
                "time": 0
            },
            {
                "type": "note_on",
                "note": 46,
                "velocity": 0,
                "time": 0
            },
            {
                "type": "note_on",
                "note": 46,
                "velocity": 97,
                "time": 38
            },
            {
                "type": "note_on",
                "note": 53,
                "velocity": 97,
                "time": 0
            },
            {
                "type": "note_on",
                "note": 58,
                "velocity": 97,
                "time": 0
            },
            {
                "type": "note_on",
                "note": 58,
                "velocity": 0,
                "time": 54
            },
            {
                "type": "note_on",
                "note": 53,
                "velocity": 0,
                "time": 0
            },
            {
                "type": "note_on",
                "note": 46,
                "velocity": 0,
                "time": 0
            },
            {
                "type": "note_on",
                "note": 46,
                "velocity": 97,
                "time": 34
            },
            {
                "type": "note_on",
                "note": 55,
                "velocity": 97,
                "time": 0
            },
            {
                "type": "note_on",
                "note": 58,
                "velocity": 97,
                "time": 0
            },
            {
                "type": "note_on",
                "note": 58,
                "velocity": 0,
                "time": 50
            },
            {
                "type": "note_on",
                "note": 55,
                "velocity": 0,
                "time": 0
            },
            {
                "type": "note_on",
                "note": 46,
                "velocity": 0,
                "time": 0
            },
            {
                "type": "note_on",
                "note": 46,
                "velocity": 86,
                "time": 42
            },
            {
                "type": "note_on",
                "note": 56,
                "velocity": 86,
                "time": 0
            },
            {
                "type": "note_on",
                "note": 58,
                "velocity": 86,
                "time": 0
            },
            {
                "type": "note_on",
                "note": 58,
                "velocity": 0,
                "time": 66
            },
            {
                "type": "note_on",
                "note": 56,
                "velocity": 0,
                "time": 0
            },
            {
                "type": "note_on",
                "note": 46,
                "velocity": 0,
                "time": 0
            },
            {
                "type": "note_on",
                "note": 46,
                "velocity": 84,
                "time": 34
            },
            {
                "type": "note_on",
                "note": 55,
                "velocity": 84,
                "time": 0
            },
            {
                "type": "note_on",
                "note": 58,
                "velocity": 84,
                "time": 0
            },
            {
                "type": "note_on",
                "note": 58,
                "velocity": 0,
                "time": 72
            },
            {
                "type": "note_on",
                "note": 55,
                "velocity": 0,
                "time": 0
            },
            {
                "type": "note_on",
                "note": 46,
                "velocity": 0,
                "time": 0
            },
            {
                "type": "note_on",
                "note": 46,
                "velocity": 83,
                "time": 36
            },
            {
                "type": "note_on",
                "note": 53,
                "velocity": 83,
                "time": 0
            },
            {
                "type": "note_on",
                "note": 58,
                "velocity": 83,
                "time": 0
            },
            {
                "type": "note_on",
                "note": 58,
                "velocity": 0,
                "time": 72
            },
            {
                "type": "note_on",
                "note": 53,
                "velocity": 0,
                "time": 0
            },
            {
                "type": "note_on",
                "note": 46,
                "velocity": 0,
                "time": 0
            },
            {
                "type": "note_on",
                "note": 46,
                "velocity": 82,
                "time": 980
            },
            {
                "type": "note_on",
                "note": 53,
                "velocity": 82,
                "time": 0
            },
            {
                "type": "note_on",
                "note": 58,
                "velocity": 82,
                "time": 0
            },
            {
                "type": "note_on",
                "note": 58,
                "velocity": 0,
                "time": 48
            },
            {
                "type": "note_on",
                "note": 53,
                "velocity": 0,
                "time": 0
            },
            {
                "type": "note_on",
                "note": 46,
                "velocity": 0,
                "time": 0
            },
            {
                "type": "note_on",
                "note": 53,
                "velocity": 97,
                "time": 38
            },
            {
                "type": "note_on",
                "note": 58,
                "velocity": 97,
                "time": 0
            },
            {
                "type": "note_on",
                "note": 46,
                "velocity": 97,
                "time": 0
            },
            {
                "type": "note_on",
                "note": 46,
                "velocity": 0,
                "time": 54
            },
            {
                "type": "note_on",
                "note": 58,
                "velocity": 0,
                "time": 0
            },
            {
                "type": "note_on",
                "note": 53,
                "velocity": 0,
                "time": 0
            },
            {
                "type": "note_on",
                "note": 46,
                "velocity": 97,
                "time": 34
            },
            {
                "type": "note_on",
                "note": 58,
                "velocity": 97,
                "time": 0
            },
            {
                "type": "note_on",
                "note": 55,
                "velocity": 97,
                "time": 0
            },
            {
                "type": "note_on",
                "note": 55,
                "velocity": 0,
                "time": 50
            },
            {
                "type": "note_on",
                "note": 58,
                "velocity": 0,
                "time": 0
            },
            {
                "type": "note_on",
                "note": 46,
                "velocity": 0,
                "time": 0
            },
            {
                "type": "note_on",
                "note": 46,
                "velocity": 86,
                "time": 42
            },
            {
                "type": "note_on",
                "note": 58,
                "velocity": 86,
                "time": 0
            },
            {
                "type": "note_on",
                "note": 56,
                "velocity": 86,
                "time": 0
            },
            {
                "type": "note_on",
                "note": 56,
                "velocity": 0,
                "time": 66
            },
            {
                "type": "note_on",
                "note": 58,
                "velocity": 0,
                "time": 0
            },
            {
                "type": "note_on",
                "note": 46,
                "velocity": 0,
                "time": 0
            },
            {
                "type": "note_on",
                "note": 46,
                "velocity": 84,
                "time": 34
            },
            {
                "type": "note_on",
                "note": 58,
                "velocity": 84,
                "time": 0
            },
            {
                "type": "note_on",
                "note": 55,
                "velocity": 84,
                "time": 0
            },
            {
                "type": "note_on",
                "note": 55,
                "velocity": 0,
                "time": 72
            },
            {
                "type": "note_on",
                "note": 58,
                "velocity": 0,
                "time": 0
            },
            {
                "type": "note_on",
                "note": 46,
                "velocity": 0,
                "time": 0
            },
            {
                "type": "note_on",
                "note": 46,
                "velocity": 83,
                "time": 36
            },
            {
                "type": "note_on",
                "note": 58,
                "velocity": 83,
                "time": 0
            },
            {
                "type": "note_on",
                "note": 53,
                "velocity": 83,
                "time": 0
            },
            {
                "type": "note_on",
                "note": 53,
                "velocity": 0,
                "time": 72
            },
            {
                "type": "note_on",
                "note": 58,
                "velocity": 0,
                "time": 0
            },
            {
                "type": "note_on",
                "note": 46,
                "velocity": 0,
                "time": 0
            },
            {
                "type": "note_on",
                "note": 70,
                "velocity": 104,
                "time": 3524
            },
            {
                "type": "note_on",
                "note": 70,
                "velocity": 0,
                "time": 10
            },
            {
                "type": "note_on",
                "note": 70,
                "velocity": 95,
                "time": 1326
            },
            {
                "type": "note_on",
                "note": 67,
                "velocity": 100,
                "time": 2
            },
            {
                "type": "note_on",
                "note": 58,
                "velocity": 87,
                "time": 4
            },
            {
                "type": "note_on",
                "note": 70,
                "velocity": 0,
                "time": 56
            },
            {
                "type": "note_on",
                "note": 58,
                "velocity": 0,
                "time": 4
            },
            {
                "type": "note_on",
                "note": 67,
                "velocity": 0,
                "time": 4
            },
            {
                "type": "note_on",
                "note": 70,
                "velocity": 98,
                "time": 26
            },
            {
                "type": "note_on",
                "note": 67,
                "velocity": 108,
                "time": 2
            },
            {
                "type": "note_on",
                "note": 58,
                "velocity": 95,
                "time": 0
            },
            {
                "type": "note_on",
                "note": 67,
                "velocity": 0,
                "time": 52
            },
            {
                "type": "note_on",
                "note": 70,
                "velocity": 0,
                "time": 8
            },
            {
                "type": "note_on",
                "note": 58,
                "velocity": 0,
                "time": 10
            },
            {
                "type": "note_on",
                "note": 72,
                "velocity": 114,
                "time": 32
            },
            {
                "type": "note_on",
                "note": 68,
                "velocity": 113,
                "time": 0
            },
            {
                "type": "note_on",
                "note": 60,
                "velocity": 105,
                "time": 10
            },
            {
                "type": "note_on",
                "note": 58,
                "velocity": 101,
                "time": 82
            },
            {
                "type": "note_on",
                "note": 60,
                "velocity": 0,
                "time": 2
            },
            {
                "type": "note_on",
                "note": 70,
                "velocity": 87,
                "time": 0
            },
            {
                "type": "note_on",
                "note": 72,
                "velocity": 0,
                "time": 2
            },
            {
                "type": "note_on",
                "note": 67,
                "velocity": 104,
                "time": 0
            },
            {
                "type": "note_on",
                "note": 68,
                "velocity": 0,
                "time": 6
            },
            {
                "type": "note_on",
                "note": 67,
                "velocity": 0,
                "time": 44
            },
            {
                "type": "note_on",
                "note": 70,
                "velocity": 0,
                "time": 4
            },
            {
                "type": "note_on",
                "note": 58,
                "velocity": 0,
                "time": 14
            },
            {
                "type": "note_on",
                "note": 68,
                "velocity": 104,
                "time": 18
            },
            {
                "type": "note_on",
                "note": 65,
                "velocity": 105,
                "time": 0
            },
            {
                "type": "note_on",
                "note": 68,
                "velocity": 0,
                "time": 52
            },
            {
                "type": "note_on",
                "note": 65,
                "velocity": 0,
                "time": 4
            },
            {
                "type": "note_on",
                "note": 55,
                "velocity": 103,
                "time": 36
            },
            {
                "type": "note_on",
                "note": 67,
                "velocity": 108,
                "time": 2
            },
            {
                "type": "note_on",
                "note": 63,
                "velocity": 113,
                "time": 2
            },
            {
                "type": "note_on",
                "note": 67,
                "velocity": 0,
                "time": 48
            },
            {
                "type": "note_on",
                "note": 63,
                "velocity": 0,
                "time": 8
            },
            {
                "type": "note_on",
                "note": 55,
                "velocity": 0,
                "time": 8
            },
            {
                "type": "note_on",
                "note": 62,
                "velocity": 110,
                "time": 10
            },
            {
                "type": "note_on",
                "note": 65,
                "velocity": 110,
                "time": 0
            },
            {
                "type": "note_on",
                "note": 65,
                "velocity": 0,
                "time": 86
            },
            {
                "type": "note_on",
                "note": 62,
                "velocity": 0,
                "time": 0
            },
            {
                "type": "note_on",
                "note": 65,
                "velocity": 117,
                "time": 98
            },
            {
                "type": "note_on",
                "note": 46,
                "velocity": 82,
                "time": 4
            },
            {
                "type": "note_on",
                "note": 46,
                "velocity": 0,
                "time": 172
            },
            {
                "type": "note_on",
                "note": 65,
                "velocity": 0,
                "time": 4
            },
            {
                "type": "note_on",
                "note": 75,
                "velocity": 91,
                "time": 6
            },
            {
                "type": "note_on",
                "note": 51,
                "velocity": 99,
                "time": 0
            },
            {
                "type": "note_on",
                "note": 55,
                "velocity": 79,
                "time": 2
            },
            {
                "type": "note_on",
                "note": 75,
                "velocity": 0,
                "time": 248
            },
            {
                "type": "note_on",
                "note": 55,
                "velocity": 0,
                "time": 10
            },
            {
                "type": "note_on",
                "note": 51,
                "velocity": 0,
                "time": 16
            },
            {
                "type": "note_on",
                "note": 75,
                "velocity": 101,
                "time": 20
            },
            {
                "type": "note_on",
                "note": 55,
                "velocity": 95,
                "time": 3
            },
            {
                "type": "note_on",
                "note": 51,
                "velocity": 95,
                "time": 7
            },
            {
                "type": "note_on",
                "note": 75,
                "velocity": 0,
                "time": 50
            },
            {
                "type": "note_on",
                "note": 55,
                "velocity": 0,
                "time": 11
            },
            {
                "type": "note_on",
                "note": 51,
                "velocity": 0,
                "time": 7
            },
            {
                "type": "note_on",
                "note": 75,
                "velocity": 95,
                "time": 6
            },
            {
                "type": "note_on",
                "note": 68,
                "velocity": 93,
                "time": 2
            },
            {
                "type": "note_on",
                "note": 44,
                "velocity": 88,
                "time": 0
            },
            {
                "type": "note_on",
                "note": 51,
                "velocity": 88,
                "time": 14
            },
            {
                "type": "note_on",
                "note": 75,
                "velocity": 0,
                "time": 114
            },
            {
                "type": "note_on",
                "note": 68,
                "velocity": 0,
                "time": 2
            },
            {
                "type": "note_on",
                "note": 44,
                "velocity": 0,
                "time": 30
            },
            {
                "type": "note_on",
                "note": 51,
                "velocity": 0,
                "time": 14
            },
            {
                "type": "note_on",
                "note": 75,
                "velocity": 105,
                "time": 24
            },
            {
                "type": "note_on",
                "note": 68,
                "velocity": 97,
                "time": 0
            },
            {
                "type": "note_on",
                "note": 44,
                "velocity": 104,
                "time": 0
            },
            {
                "type": "note_on",
                "note": 51,
                "velocity": 104,
                "time": 14
            },
            {
                "type": "note_on",
                "note": 44,
                "velocity": 0,
                "time": 46
            },
            {
                "type": "note_on",
                "note": 75,
                "velocity": 0,
                "time": 4
            },
            {
                "type": "note_on",
                "note": 68,
                "velocity": 0,
                "time": 6
            },
            {
                "type": "note_on",
                "note": 51,
                "velocity": 0,
                "time": 4
            },
            {
                "type": "note_on",
                "note": 44,
                "velocity": 85,
                "time": 10
            },
            {
                "type": "note_on",
                "note": 75,
                "velocity": 113,
                "time": 10
            },
            {
                "type": "note_on",
                "note": 68,
                "velocity": 104,
                "time": 2
            },
            {
                "type": "note_on",
                "note": 51,
                "velocity": 85,
                "time": 8
            },
            {
                "type": "note_on",
                "note": 75,
                "velocity": 0,
                "time": 54
            },
            {
                "type": "note_on",
                "note": 68,
                "velocity": 0,
                "time": 2
            },
            {
                "type": "note_on",
                "note": 44,
                "velocity": 0,
                "time": 14
            },
            {
                "type": "note_on",
                "note": 50,
                "velocity": 94,
                "time": 14
            },
            {
                "type": "note_on",
                "note": 51,
                "velocity": 0,
                "time": 6
            },
            {
                "type": "note_on",
                "note": 69,
                "velocity": 117,
                "time": 0
            },
            {
                "type": "note_on",
                "note": 74,
                "velocity": 118,
                "time": 0
            },
            {
                "type": "note_on",
                "note": 74,
                "velocity": 0,
                "time": 76
            },
            {
                "type": "note_on",
                "note": 69,
                "velocity": 0,
                "time": 6
            },
            {
                "type": "note_on",
                "note": 50,
                "velocity": 0,
                "time": 2
            },
            {
                "type": "note_on",
                "note": 48,
                "velocity": 104,
                "time": 2
            },
            {
                "type": "note_on",
                "note": 69,
                "velocity": 105,
                "time": 8
            },
            {
                "type": "note_on",
                "note": 74,
                "velocity": 117,
                "time": 0
            },
            {
                "type": "note_on",
                "note": 48,
                "velocity": 0,
                "time": 64
            },
            {
                "type": "note_on",
                "note": 74,
                "velocity": 0,
                "time": 10
            },
            {
                "type": "note_on",
                "note": 69,
                "velocity": 0,
                "time": 8
            },
            {
                "type": "note_on",
                "note": 46,
                "velocity": 83,
                "time": 10
            },
            {
                "type": "note_on",
                "note": 69,
                "velocity": 107,
                "time": 0
            },
            {
                "type": "note_on",
                "note": 74,
                "velocity": 127,
                "time": 0
            },
            {
                "type": "note_on",
                "note": 74,
                "velocity": 0,
                "time": 70
            },
            {
                "type": "note_on",
                "note": 46,
                "velocity": 0,
                "time": 2
            },
            {
                "type": "note_on",
                "note": 69,
                "velocity": 0,
                "time": 6
            },
            {
                "type": "note_on",
                "note": 45,
                "velocity": 100,
                "time": 8
            },
            {
                "type": "note_on",
                "note": 69,
                "velocity": 114,
                "time": 10
            },
            {
                "type": "note_on",
                "note": 74,
                "velocity": 114,
                "time": 0
            },
            {
                "type": "note_on",
                "note": 74,
                "velocity": 0,
                "time": 64
            },
            {
                "type": "note_on",
                "note": 69,
                "velocity": 0,
                "time": 4
            },
            {
                "type": "note_on",
                "note": 45,
                "velocity": 0,
                "time": 10
            },
            {
                "type": "note_on",
                "note": 43,
                "velocity": 93,
                "time": 20
            },
            {
                "type": "note_on",
                "note": 74,
                "velocity": 118,
                "time": 8
            },
            {
                "type": "note_on",
                "note": 79,
                "velocity": 114,
                "time": 2
            },
            {
                "type": "note_on",
                "note": 79,
                "velocity": 0,
                "time": 144
            },
            {
                "type": "note_on",
                "note": 74,
                "velocity": 0,
                "time": 0
            },
            {
                "type": "note_on",
                "note": 43,
                "velocity": 0,
                "time": 0
            },
            {
                "type": "note_on",
                "note": 79,
                "velocity": 117,
                "time": 38
            },
            {
                "type": "note_on",
                "note": 74,
                "velocity": 124,
                "time": 2
            },
            {
                "type": "note_on",
                "note": 43,
                "velocity": 97,
                "time": 6
            },
            {
                "type": "note_on",
                "note": 79,
                "velocity": 0,
                "time": 110
            },
            {
                "type": "note_on",
                "note": 74,
                "velocity": 0,
                "time": 6
            },
            {
                "type": "note_on",
                "note": 43,
                "velocity": 0,
                "time": 24
            },
            {
                "type": "note_on",
                "note": 46,
                "velocity": 109,
                "time": 44
            },
            {
                "type": "note_on",
                "note": 68,
                "velocity": 127,
                "time": 2
            },
            {
                "type": "note_on",
                "note": 65,
                "velocity": 105,
                "time": 0
            },
            {
                "type": "note_on",
                "note": 62,
                "velocity": 90,
                "time": 6
            },
            {
                "type": "note_on",
                "note": 68,
                "velocity": 0,
                "time": 246
            },
            {
                "type": "note_on",
                "note": 65,
                "velocity": 0,
                "time": 24
            },
            {
                "type": "note_on",
                "note": 63,
                "velocity": 97,
                "time": 10
            },
            {
                "type": "note_on",
                "note": 67,
                "velocity": 93,
                "time": 6
            },
            {
                "type": "note_on",
                "note": 60,
                "velocity": 93,
                "time": 0
            },
            {
                "type": "note_on",
                "note": 62,
                "velocity": 0,
                "time": 6
            },
            {
                "type": "note_on",
                "note": 67,
                "velocity": 0,
                "time": 70
            },
            {
                "type": "note_on",
                "note": 63,
                "velocity": 0,
                "time": 0
            },
            {
                "type": "note_on",
                "note": 60,
                "velocity": 0,
                "time": 4
            },
            {
                "type": "note_on",
                "note": 58,
                "velocity": 83,
                "time": 6
            },
            {
                "type": "note_on",
                "note": 65,
                "velocity": 103,
                "time": 2
            },
            {
                "type": "note_on",
                "note": 62,
                "velocity": 97,
                "time": 0
            },
            {
                "type": "note_on",
                "note": 62,
                "velocity": 0,
                "time": 112
            },
            {
                "type": "note_on",
                "note": 65,
                "velocity": 0,
                "time": 6
            },
            {
                "type": "note_on",
                "note": 58,
                "velocity": 0,
                "time": 6
            },
            {
                "type": "note_on",
                "note": 46,
                "velocity": 0,
                "time": 16
            },
            {
                "type": "note_on",
                "note": 67,
                "velocity": 104,
                "time": 60
            },
            {
                "type": "note_on",
                "note": 70,
                "velocity": 117,
                "time": 0
            },
            {
                "type": "note_on",
                "note": 63,
                "velocity": 117,
                "time": 2
            },
            {
                "type": "note_on",
                "note": 60,
                "velocity": 99,
                "time": 6
            },
            {
                "type": "note_on",
                "note": 43,
                "velocity": 97,
                "time": 6
            },
            {
                "type": "note_on",
                "note": 63,
                "velocity": 0,
                "time": 108
            },
            {
                "type": "note_on",
                "note": 70,
                "velocity": 0,
                "time": 16
            },
            {
                "type": "note_on",
                "note": 67,
                "velocity": 0,
                "time": 12
            },
            {
                "type": "note_on",
                "note": 60,
                "velocity": 0,
                "time": 2
            },
            {
                "type": "note_on",
                "note": 43,
                "velocity": 0,
                "time": 14
            },
            {
                "type": "note_on",
                "note": 68,
                "velocity": 101,
                "time": 20
            },
            {
                "type": "note_on",
                "note": 46,
                "velocity": 101,
                "time": 0
            },
            {
                "type": "note_on",
                "note": 72,
                "velocity": 110,
                "time": 0
            },
            {
                "type": "note_on",
                "note": 65,
                "velocity": 105,
                "time": 0
            },
            {
                "type": "note_on",
                "note": 65,
                "velocity": 0,
                "time": 246
            },
            {
                "type": "note_on",
                "note": 72,
                "velocity": 0,
                "time": 20
            },
            {
                "type": "note_on",
                "note": 68,
                "velocity": 0,
                "time": 6
            },
            {
                "type": "note_on",
                "note": 70,
                "velocity": 87,
                "time": 0
            },
            {
                "type": "note_on",
                "note": 63,
                "velocity": 90,
                "time": 2
            },
            {
                "type": "note_on",
                "note": 67,
                "velocity": 107,
                "time": 0
            },
            {
                "type": "note_on",
                "note": 67,
                "velocity": 0,
                "time": 64
            },
            {
                "type": "note_on",
                "note": 63,
                "velocity": 0,
                "time": 16
            },
            {
                "type": "note_on",
                "note": 70,
                "velocity": 0,
                "time": 4
            },
            {
                "type": "note_on",
                "note": 68,
                "velocity": 97,
                "time": 8
            },
            {
                "type": "note_on",
                "note": 62,
                "velocity": 94,
                "time": 2
            },
            {
                "type": "note_on",
                "note": 65,
                "velocity": 103,
                "time": 0
            },
            {
                "type": "note_on",
                "note": 62,
                "velocity": 0,
                "time": 124
            },
            {
                "type": "note_on",
                "note": 46,
                "velocity": 0,
                "time": 6
            },
            {
                "type": "note_on",
                "note": 68,
                "velocity": 0,
                "time": 2
            },
            {
                "type": "note_on",
                "note": 65,
                "velocity": 0,
                "time": 2
            },
            {
                "type": "note_on",
                "note": 43,
                "velocity": 91,
                "time": 1
            },
            {
                "type": "note_on",
                "note": 67,
                "velocity": 104,
                "time": 4
            },
            {
                "type": "note_on",
                "note": 63,
                "velocity": 110,
                "time": 0
            },
            {
                "type": "note_on",
                "note": 70,
                "velocity": 101,
                "time": 0
            },
            {
                "type": "note_on",
                "note": 60,
                "velocity": 105,
                "time": 6
            },
            {
                "type": "note_on",
                "note": 43,
                "velocity": 0,
                "time": 100
            },
            {
                "type": "note_on",
                "note": 60,
                "velocity": 0,
                "time": 30
            },
            {
                "type": "note_on",
                "note": 67,
                "velocity": 0,
                "time": 2
            },
            {
                "type": "note_on",
                "note": 63,
                "velocity": 0,
                "time": 0
            },
            {
                "type": "note_on",
                "note": 70,
                "velocity": 0,
                "time": 0
            },
            {
                "type": "note_on",
                "note": 82,
                "velocity": 127,
                "time": 56
            },
            {
                "type": "note_on",
                "note": 77,
                "velocity": 101,
                "time": 0
            },
            {
                "type": "note_on",
                "note": 46,
                "velocity": 94,
                "time": 0
            },
            {
                "type": "note_on",
                "note": 74,
                "velocity": 100,
                "time": 2
            },
            {
                "type": "note_on",
                "note": 58,
                "velocity": 94,
                "time": 0
            },
            {
                "type": "note_on",
                "note": 68,
                "velocity": 105,
                "time": 20
            },
            {
                "type": "note_on",
                "note": 65,
                "velocity": 110,
                "time": 0
            },
            {
                "type": "note_on",
                "note": 65,
                "velocity": 0,
                "time": 1400
            },
            {
                "type": "note_on",
                "note": 68,
                "velocity": 0,
                "time": 0
            },
            {
                "type": "note_on",
                "note": 74,
                "velocity": 0,
                "time": 74
            },
            {
                "type": "note_on",
                "note": 77,
                "velocity": 0,
                "time": 2
            },
            {
                "type": "note_on",
                "note": 82,
                "velocity": 0,
                "time": 0
            },
            {
                "type": "note_on",
                "note": 46,
                "velocity": 0,
                "time": 2
            },
            {
                "type": "note_on",
                "note": 58,
                "velocity": 0,
                "time": 2
            },
            {
                "type": "note_on",
                "note": 67,
                "velocity": 106,
                "time": 12144
            },
            {
                "type": "note_on",
                "note": 68,
                "velocity": 94,
                "time": 290
            },
            {
                "type": "note_on",
                "note": 67,
                "velocity": 0,
                "time": 8
            },
            {
                "type": "note_on",
                "note": 68,
                "velocity": 0,
                "time": 804
            },
            {
                "type": "note_on",
                "note": 67,
                "velocity": 104,
                "time": 32
            },
            {
                "type": "note_on",
                "note": 67,
                "velocity": 0,
                "time": 286
            },
            {
                "type": "note_on",
                "note": 65,
                "velocity": 95,
                "time": 0
            },
            {
                "type": "note_on",
                "note": 67,
                "velocity": 88,
                "time": 478
            },
            {
                "type": "note_on",
                "note": 65,
                "velocity": 0,
                "time": 6
            },
            {
                "type": "note_on",
                "note": 67,
                "velocity": 0,
                "time": 284
            },
            {
                "type": "note_on",
                "note": 68,
                "velocity": 95,
                "time": 284
            },
            {
                "type": "note_on",
                "note": 68,
                "velocity": 0,
                "time": 160
            },
            {
                "type": "note_on",
                "note": 68,
                "velocity": 92,
                "time": 38
            },
            {
                "type": "note_on",
                "note": 68,
                "velocity": 0,
                "time": 170
            },
            {
                "type": "note_on",
                "note": 68,
                "velocity": 105,
                "time": 26
            },
            {
                "type": "note_on",
                "note": 68,
                "velocity": 0,
                "time": 162
            },
            {
                "type": "note_on",
                "note": 68,
                "velocity": 104,
                "time": 34
            },
            {
                "type": "note_on",
                "note": 68,
                "velocity": 0,
                "time": 166
            },
            {
                "type": "note_on",
                "note": 68,
                "velocity": 104,
                "time": 34
            },
            {
                "type": "note_on",
                "note": 68,
                "velocity": 0,
                "time": 162
            },
            {
                "type": "note_on",
                "note": 67,
                "velocity": 107,
                "time": 18
            },
            {
                "type": "note_on",
                "note": 65,
                "velocity": 49,
                "time": 104
            },
            {
                "type": "note_on",
                "note": 65,
                "velocity": 0,
                "time": 20
            },
            {
                "type": "note_on",
                "note": 67,
                "velocity": 0,
                "time": 48
            },
            {
                "type": "note_on",
                "note": 65,
                "velocity": 80,
                "time": 0
            },
            {
                "type": "note_on",
                "note": 65,
                "velocity": 0,
                "time": 98
            },
            {
                "type": "note_on",
                "note": 65,
                "velocity": 98,
                "time": 22
            },
            {
                "type": "note_on",
                "note": 67,
                "velocity": 67,
                "time": 468
            },
            {
                "type": "note_on",
                "note": 65,
                "velocity": 0,
                "time": 6
            },
            {
                "type": "note_on",
                "note": 67,
                "velocity": 0,
                "time": 86
            },
            {
                "type": "note_on",
                "note": 63,
                "velocity": 97,
                "time": 282
            },
            {
                "type": "note_on",
                "note": 63,
                "velocity": 0,
                "time": 156
            },
            {
                "type": "note_on",
                "note": 63,
                "velocity": 94,
                "time": 40
            },
            {
                "type": "note_on",
                "note": 63,
                "velocity": 0,
                "time": 54
            },
            {
                "type": "note_on",
                "note": 63,
                "velocity": 109,
                "time": 52
            },
            {
                "type": "note_on",
                "note": 63,
                "velocity": 0,
                "time": 44
            },
            {
                "type": "note_on",
                "note": 63,
                "velocity": 98,
                "time": 44
            },
            {
                "type": "note_on",
                "note": 63,
                "velocity": 0,
                "time": 68
            },
            {
                "type": "note_on",
                "note": 65,
                "velocity": 95,
                "time": 28
            },
            {
                "type": "note_on",
                "note": 65,
                "velocity": 0,
                "time": 392
            },
            {
                "type": "note_on",
                "note": 63,
                "velocity": 109,
                "time": 272
            },
            {
                "type": "note_on",
                "note": 63,
                "velocity": 0,
                "time": 152
            },
            {
                "type": "note_on",
                "note": 63,
                "velocity": 95,
                "time": 50
            },
            {
                "type": "note_on",
                "note": 63,
                "velocity": 0,
                "time": 50
            },
            {
                "type": "note_on",
                "note": 63,
                "velocity": 101,
                "time": 48
            },
            {
                "type": "note_on",
                "note": 63,
                "velocity": 0,
                "time": 56
            },
            {
                "type": "note_on",
                "note": 63,
                "velocity": 102,
                "time": 38
            },
            {
                "type": "note_on",
                "note": 63,
                "velocity": 0,
                "time": 178
            },
            {
                "type": "note_on",
                "note": 65,
                "velocity": 104,
                "time": 16
            },
            {
                "type": "note_on",
                "note": 65,
                "velocity": 0,
                "time": 176
            },
            {
                "type": "note_on",
                "note": 63,
                "velocity": 115,
                "time": 16
            },
            {
                "type": "note_on",
                "note": 63,
                "velocity": 0,
                "time": 160
            },
            {
                "type": "note_on",
                "note": 62,
                "velocity": 112,
                "time": 22
            },
            {
                "type": "note_on",
                "note": 62,
                "velocity": 0,
                "time": 188
            },
            {
                "type": "note_on",
                "note": 63,
                "velocity": 109,
                "time": 16
            },
            {
                "type": "note_on",
                "note": 60,
                "velocity": 83,
                "time": 104
            },
            {
                "type": "note_on",
                "note": 63,
                "velocity": 0,
                "time": 16
            },
            {
                "type": "note_on",
                "note": 58,
                "velocity": 83,
                "time": 66
            },
            {
                "type": "note_on",
                "note": 60,
                "velocity": 0,
                "time": 14
            },
            {
                "type": "note_on",
                "note": 58,
                "velocity": 0,
                "time": 256
            },
            {
                "type": "note_on",
                "note": 75,
                "velocity": 102,
                "time": 6
            },
            {
                "type": "note_on",
                "note": 70,
                "velocity": 74,
                "time": 2
            },
            {
                "type": "note_on",
                "note": 70,
                "velocity": 0,
                "time": 370
            },
            {
                "type": "note_on",
                "note": 70,
                "velocity": 95,
                "time": 4
            },
            {
                "type": "note_on",
                "note": 68,
                "velocity": 81,
                "time": 0
            },
            {
                "type": "note_on",
                "note": 75,
                "velocity": 0,
                "time": 4
            },
            {
                "type": "note_on",
                "note": 67,
                "velocity": 98,
                "time": 386
            },
            {
                "type": "note_on",
                "note": 70,
                "velocity": 95,
                "time": 0
            },
            {
                "type": "note_on",
                "note": 68,
                "velocity": 0,
                "time": 8
            },
            {
                "type": "note_on",
                "note": 70,
                "velocity": 0,
                "time": 2
            },
            {
                "type": "note_on",
                "note": 67,
                "velocity": 0,
                "time": 308
            },
            {
                "type": "note_on",
                "note": 70,
                "velocity": 0,
                "time": 2
            },
            {
                "type": "note_on",
                "note": 65,
                "velocity": 105,
                "time": 70
            },
            {
                "type": "note_on",
                "note": 59,
                "velocity": 93,
                "time": 2
            },
            {
                "type": "note_on",
                "note": 65,
                "velocity": 0,
                "time": 154
            },
            {
                "type": "note_on",
                "note": 63,
                "velocity": 102,
                "time": 46
            },
            {
                "type": "note_on",
                "note": 67,
                "velocity": 102,
                "time": 0
            },
            {
                "type": "note_on",
                "note": 59,
                "velocity": 0,
                "time": 2
            },
            {
                "type": "note_on",
                "note": 67,
                "velocity": 0,
                "time": 76
            },
            {
                "type": "note_on",
                "note": 63,
                "velocity": 0,
                "time": 0
            },
            {
                "type": "note_on",
                "note": 65,
                "velocity": 107,
                "time": 92
            },
            {
                "type": "note_on",
                "note": 59,
                "velocity": 100,
                "time": 0
            },
            {
                "type": "note_on",
                "note": 65,
                "velocity": 0,
                "time": 154
            },
            {
                "type": "note_on",
                "note": 63,
                "velocity": 93,
                "time": 38
            },
            {
                "type": "note_on",
                "note": 67,
                "velocity": 93,
                "time": 0
            },
            {
                "type": "note_on",
                "note": 59,
                "velocity": 0,
                "time": 12
            },
            {
                "type": "note_on",
                "note": 67,
                "velocity": 0,
                "time": 56
            },
            {
                "type": "note_on",
                "note": 63,
                "velocity": 0,
                "time": 0
            }
        ]
    },
    {
        "track": 4,
        "notes": [
            {
                "type": "note_on",
                "note": 67,
                "velocity": 101,
                "time": 5892
            },
            {
                "type": "note_on",
                "note": 67,
                "velocity": 0,
                "time": 80
            },
            {
                "type": "note_on",
                "note": 67,
                "velocity": 101,
                "time": 14
            },
            {
                "type": "note_on",
                "note": 67,
                "velocity": 0,
                "time": 70
            },
            {
                "type": "note_on",
                "note": 67,
                "velocity": 95,
                "time": 28
            },
            {
                "type": "note_on",
                "note": 67,
                "velocity": 0,
                "time": 56
            },
            {
                "type": "note_on",
                "note": 67,
                "velocity": 103,
                "time": 36
            },
            {
                "type": "note_on",
                "note": 67,
                "velocity": 0,
                "time": 2
            },
            {
                "type": "note_on",
                "note": 67,
                "velocity": 103,
                "time": 2
            },
            {
                "type": "note_on",
                "note": 67,
                "velocity": 0,
                "time": 2
            },
            {
                "type": "note_on",
                "note": 65,
                "velocity": 102,
                "time": 2
            },
            {
                "type": "note_on",
                "note": 65,
                "velocity": 0,
                "time": 72
            },
            {
                "type": "note_on",
                "note": 65,
                "velocity": 90,
                "time": 14
            },
            {
                "type": "note_on",
                "note": 65,
                "velocity": 0,
                "time": 2
            },
            {
                "type": "note_on",
                "note": 67,
                "velocity": 90,
                "time": 2
            },
            {
                "type": "note_on",
                "note": 67,
                "velocity": 0,
                "time": 62
            },
            {
                "type": "note_on",
                "note": 65,
                "velocity": 91,
                "time": 30
            },
            {
                "type": "note_on",
                "note": 65,
                "velocity": 0,
                "time": 8
            },
            {
                "type": "note_on",
                "note": 63,
                "velocity": 88,
                "time": 0
            },
            {
                "type": "note_on",
                "note": 63,
                "velocity": 0,
                "time": 48
            },
            {
                "type": "note_on",
                "note": 60,
                "velocity": 86,
                "time": 14
            },
            {
                "type": "note_on",
                "note": 60,
                "velocity": 0,
                "time": 2
            },
            {
                "type": "note_on",
                "note": 67,
                "velocity": 103,
                "time": 2
            },
            {
                "type": "note_on",
                "note": 67,
                "velocity": 0,
                "time": 76
            },
            {
                "type": "note_on",
                "note": 67,
                "velocity": 109,
                "time": 14
            },
            {
                "type": "note_on",
                "note": 67,
                "velocity": 0,
                "time": 72
            },
            {
                "type": "note_on",
                "note": 67,
                "velocity": 117,
                "time": 18
            },
            {
                "type": "note_on",
                "note": 67,
                "velocity": 0,
                "time": 70
            },
            {
                "type": "note_on",
                "note": 67,
                "velocity": 121,
                "time": 24
            },
            {
                "type": "note_on",
                "note": 67,
                "velocity": 0,
                "time": 56
            },
            {
                "type": "note_on",
                "note": 67,
                "velocity": 118,
                "time": 18
            },
            {
                "type": "note_on",
                "note": 65,
                "velocity": 110,
                "time": 28
            },
            {
                "type": "note_on",
                "note": 67,
                "velocity": 0,
                "time": 4
            },
            {
                "type": "note_on",
                "note": 65,
                "velocity": 0,
                "time": 106
            },
            {
                "type": "note_on",
                "note": 65,
                "velocity": 91,
                "time": 2
            },
            {
                "type": "note_on",
                "note": 65,
                "velocity": 0,
                "time": 22
            },
            {
                "type": "note_on",
                "note": 64,
                "velocity": 113,
                "time": 10
            },
            {
                "type": "note_on",
                "note": 64,
                "velocity": 0,
                "time": 84
            },
            {
                "type": "note_on",
                "note": 64,
                "velocity": 114,
                "time": 14
            },
            {
                "type": "note_on",
                "note": 64,
                "velocity": 0,
                "time": 74
            },
            {
                "type": "note_on",
                "note": 64,
                "velocity": 127,
                "time": 16
            },
            {
                "type": "note_on",
                "note": 64,
                "velocity": 0,
                "time": 16
            },
            {
                "type": "note_on",
                "note": 64,
                "velocity": 118,
                "time": 2
            },
            {
                "type": "note_on",
                "note": 64,
                "velocity": 0,
                "time": 84
            },
            {
                "type": "note_on",
                "note": 65,
                "velocity": 110,
                "time": 8
            },
            {
                "type": "note_on",
                "note": 60,
                "velocity": 77,
                "time": 8
            },
            {
                "type": "note_on",
                "note": 65,
                "velocity": 0,
                "time": 2
            },
            {
                "type": "note_on",
                "note": 60,
                "velocity": 0,
                "time": 84
            },
            {
                "type": "note_on",
                "note": 60,
                "velocity": 78,
                "time": 14
            },
            {
                "type": "note_on",
                "note": 60,
                "velocity": 0,
                "time": 90
            },
            {
                "type": "note_on",
                "note": 60,
                "velocity": 64,
                "time": 12
            },
            {
                "type": "note_on",
                "note": 60,
                "velocity": 0,
                "time": 2
            },
            {
                "type": "note_on",
                "note": 65,
                "velocity": 85,
                "time": 2
            },
            {
                "type": "note_on",
                "note": 65,
                "velocity": 0,
                "time": 4
            },
            {
                "type": "note_on",
                "note": 57,
                "velocity": 97,
                "time": 2
            },
            {
                "type": "note_on",
                "note": 58,
                "velocity": 89,
                "time": 90
            },
            {
                "type": "note_on",
                "note": 57,
                "velocity": 0,
                "time": 10
            },
            {
                "type": "note_on",
                "note": 58,
                "velocity": 0,
                "time": 84
            },
            {
                "type": "note_on",
                "note": 58,
                "velocity": 98,
                "time": 18
            },
            {
                "type": "note_on",
                "note": 58,
                "velocity": 0,
                "time": 48
            },
            {
                "type": "note_on",
                "note": 62,
                "velocity": 104,
                "time": 2
            },
            {
                "type": "note_on",
                "note": 62,
                "velocity": 0,
                "time": 48
            },
            {
                "type": "note_on",
                "note": 62,
                "velocity": 95,
                "time": 10
            },
            {
                "type": "note_on",
                "note": 62,
                "velocity": 0,
                "time": 182
            },
            {
                "type": "note_on",
                "note": 58,
                "velocity": 97,
                "time": 78
            },
            {
                "type": "note_on",
                "note": 58,
                "velocity": 0,
                "time": 84
            },
            {
                "type": "note_on",
                "note": 60,
                "velocity": 105,
                "time": 20
            },
            {
                "type": "note_on",
                "note": 60,
                "velocity": 0,
                "time": 4
            },
            {
                "type": "note_on",
                "note": 62,
                "velocity": 105,
                "time": 0
            },
            {
                "type": "note_on",
                "note": 62,
                "velocity": 0,
                "time": 48
            },
            {
                "type": "note_on",
                "note": 62,
                "velocity": 96,
                "time": 8
            },
            {
                "type": "note_on",
                "note": 62,
                "velocity": 0,
                "time": 26
            },
            {
                "type": "note_on",
                "note": 62,
                "velocity": 111,
                "time": 124
            },
            {
                "type": "note_on",
                "note": 62,
                "velocity": 0,
                "time": 38
            },
            {
                "type": "note_on",
                "note": 62,
                "velocity": 108,
                "time": 14
            },
            {
                "type": "note_on",
                "note": 62,
                "velocity": 0,
                "time": 44
            },
            {
                "type": "note_on",
                "note": 63,
                "velocity": 120,
                "time": 12
            },
            {
                "type": "note_on",
                "note": 63,
                "velocity": 0,
                "time": 62
            },
            {
                "type": "note_on",
                "note": 65,
                "velocity": 109,
                "time": 8
            },
            {
                "type": "note_on",
                "note": 65,
                "velocity": 0,
                "time": 50
            },
            {
                "type": "note_on",
                "note": 63,
                "velocity": 109,
                "time": 14
            },
            {
                "type": "note_on",
                "note": 63,
                "velocity": 0,
                "time": 4
            },
            {
                "type": "note_on",
                "note": 62,
                "velocity": 105,
                "time": 10
            },
            {
                "type": "note_on",
                "note": 62,
                "velocity": 0,
                "time": 68
            },
            {
                "type": "note_on",
                "note": 60,
                "velocity": 100,
                "time": 22
            },
            {
                "type": "note_on",
                "note": 60,
                "velocity": 0,
                "time": 2
            },
            {
                "type": "note_on",
                "note": 60,
                "velocity": 105,
                "time": 60
            },
            {
                "type": "note_on",
                "note": 60,
                "velocity": 0,
                "time": 78
            },
            {
                "type": "note_on",
                "note": 62,
                "velocity": 105,
                "time": 6
            },
            {
                "type": "note_on",
                "note": 62,
                "velocity": 0,
                "time": 88
            },
            {
                "type": "note_on",
                "note": 63,
                "velocity": 116,
                "time": 16
            },
            {
                "type": "note_on",
                "note": 63,
                "velocity": 0,
                "time": 52
            },
            {
                "type": "note_on",
                "note": 65,
                "velocity": 105,
                "time": 8
            },
            {
                "type": "note_on",
                "note": 65,
                "velocity": 0,
                "time": 4
            },
            {
                "type": "note_on",
                "note": 63,
                "velocity": 95,
                "time": 10
            },
            {
                "type": "note_on",
                "note": 63,
                "velocity": 0,
                "time": 84
            },
            {
                "type": "note_on",
                "note": 62,
                "velocity": 97,
                "time": 10
            },
            {
                "type": "note_on",
                "note": 62,
                "velocity": 0,
                "time": 84
            },
            {
                "type": "note_on",
                "note": 60,
                "velocity": 98,
                "time": 16
            },
            {
                "type": "note_on",
                "note": 60,
                "velocity": 0,
                "time": 24
            },
            {
                "type": "note_on",
                "note": 62,
                "velocity": 106,
                "time": 108
            },
            {
                "type": "note_on",
                "note": 62,
                "velocity": 0,
                "time": 60
            },
            {
                "type": "note_on",
                "note": 62,
                "velocity": 120,
                "time": 18
            },
            {
                "type": "note_on",
                "note": 62,
                "velocity": 0,
                "time": 146
            },
            {
                "type": "note_on",
                "note": 62,
                "velocity": 99,
                "time": 50
            },
            {
                "type": "note_on",
                "note": 65,
                "velocity": 116,
                "time": 96
            },
            {
                "type": "note_on",
                "note": 62,
                "velocity": 0,
                "time": 6
            },
            {
                "type": "note_on",
                "note": 65,
                "velocity": 0,
                "time": 92
            },
            {
                "type": "note_on",
                "note": 69,
                "velocity": 116,
                "time": 6
            },
            {
                "type": "note_on",
                "note": 69,
                "velocity": 0,
                "time": 6
            },
            {
                "type": "note_on",
                "note": 67,
                "velocity": 105,
                "time": 6
            },
            {
                "type": "note_on",
                "note": 67,
                "velocity": 0,
                "time": 36
            },
            {
                "type": "note_on",
                "note": 67,
                "velocity": 105,
                "time": 12
            },
            {
                "type": "note_on",
                "note": 67,
                "velocity": 0,
                "time": 24
            },
            {
                "type": "note_on",
                "note": 67,
                "velocity": 110,
                "time": 110
            },
            {
                "type": "note_on",
                "note": 67,
                "velocity": 0,
                "time": 2
            },
            {
                "type": "note_on",
                "note": 70,
                "velocity": 122,
                "time": 2
            },
            {
                "type": "note_on",
                "note": 70,
                "velocity": 0,
                "time": 30
            },
            {
                "type": "note_on",
                "note": 70,
                "velocity": 122,
                "time": 10
            },
            {
                "type": "note_on",
                "note": 70,
                "velocity": 0,
                "time": 28
            },
            {
                "type": "note_on",
                "note": 70,
                "velocity": 120,
                "time": 12
            },
            {
                "type": "note_on",
                "note": 70,
                "velocity": 0,
                "time": 22
            },
            {
                "type": "note_on",
                "note": 70,
                "velocity": 112,
                "time": 10
            },
            {
                "type": "note_on",
                "note": 70,
                "velocity": 0,
                "time": 62
            },
            {
                "type": "note_on",
                "note": 70,
                "velocity": 118,
                "time": 20
            },
            {
                "type": "note_on",
                "note": 67,
                "velocity": 108,
                "time": 0
            },
            {
                "type": "note_on",
                "note": 70,
                "velocity": 0,
                "time": 14
            },
            {
                "type": "note_on",
                "note": 67,
                "velocity": 0,
                "time": 14
            },
            {
                "type": "note_on",
                "note": 63,
                "velocity": 122,
                "time": 26
            },
            {
                "type": "note_on",
                "note": 63,
                "velocity": 0,
                "time": 50
            },
            {
                "type": "note_on",
                "note": 62,
                "velocity": 99,
                "time": 2
            },
            {
                "type": "note_on",
                "note": 62,
                "velocity": 0,
                "time": 70
            },
            {
                "type": "note_on",
                "note": 62,
                "velocity": 115,
                "time": 2
            },
            {
                "type": "note_on",
                "note": 60,
                "velocity": 111,
                "time": 58
            },
            {
                "type": "note_on",
                "note": 62,
                "velocity": 0,
                "time": 4
            },
            {
                "type": "note_on",
                "note": 60,
                "velocity": 0,
                "time": 172
            },
            {
                "type": "note_on",
                "note": 67,
                "velocity": 122,
                "time": 204
            },
            {
                "type": "note_on",
                "note": 67,
                "velocity": 0,
                "time": 60
            },
            {
                "type": "note_on",
                "note": 67,
                "velocity": 125,
                "time": 12
            },
            {
                "type": "note_on",
                "note": 67,
                "velocity": 0,
                "time": 110
            },
            {
                "type": "note_on",
                "note": 65,
                "velocity": 124,
                "time": 8
            },
            {
                "type": "note_on",
                "note": 67,
                "velocity": 115,
                "time": 86
            },
            {
                "type": "note_on",
                "note": 65,
                "velocity": 0,
                "time": 6
            },
            {
                "type": "note_on",
                "note": 68,
                "velocity": 114,
                "time": 42
            },
            {
                "type": "note_on",
                "note": 67,
                "velocity": 0,
                "time": 8
            },
            {
                "type": "note_on",
                "note": 68,
                "velocity": 0,
                "time": 42
            },
            {
                "type": "note_on",
                "note": 67,
                "velocity": 127,
                "time": 8
            },
            {
                "type": "note_on",
                "note": 67,
                "velocity": 0,
                "time": 2
            },
            {
                "type": "note_on",
                "note": 67,
                "velocity": 127,
                "time": 2
            },
            {
                "type": "note_on",
                "note": 67,
                "velocity": 0,
                "time": 40
            },
            {
                "type": "note_on",
                "note": 67,
                "velocity": 109,
                "time": 10
            },
            {
                "type": "note_on",
                "note": 67,
                "velocity": 0,
                "time": 46
            },
            {
                "type": "note_on",
                "note": 68,
                "velocity": 127,
                "time": 6
            },
            {
                "type": "note_on",
                "note": 68,
                "velocity": 0,
                "time": 4
            },
            {
                "type": "note_on",
                "note": 67,
                "velocity": 118,
                "time": 8
            },
            {
                "type": "note_on",
                "note": 67,
                "velocity": 0,
                "time": 28
            },
            {
                "type": "note_on",
                "note": 67,
                "velocity": 127,
                "time": 10
            },
            {
                "type": "note_on",
                "note": 67,
                "velocity": 0,
                "time": 36
            },
            {
                "type": "note_on",
                "note": 65,
                "velocity": 121,
                "time": 2
            },
            {
                "type": "note_on",
                "note": 65,
                "velocity": 0,
                "time": 70
            },
            {
                "type": "note_on",
                "note": 65,
                "velocity": 127,
                "time": 26
            },
            {
                "type": "note_on",
                "note": 65,
                "velocity": 0,
                "time": 8
            },
            {
                "type": "note_on",
                "note": 58,
                "velocity": 109,
                "time": 134
            },
            {
                "type": "note_on",
                "note": 58,
                "velocity": 0,
                "time": 20
            },
            {
                "type": "note_on",
                "note": 58,
                "velocity": 123,
                "time": 16
            },
            {
                "type": "note_on",
                "note": 58,
                "velocity": 0,
                "time": 4
            },
            {
                "type": "note_on",
                "note": 65,
                "velocity": 120,
                "time": 0
            },
            {
                "type": "note_on",
                "note": 65,
                "velocity": 0,
                "time": 68
            },
            {
                "type": "note_on",
                "note": 65,
                "velocity": 122,
                "time": 20
            },
            {
                "type": "note_on",
                "note": 67,
                "velocity": 109,
                "time": 2
            },
            {
                "type": "note_on",
                "note": 65,
                "velocity": 0,
                "time": 2
            },
            {
                "type": "note_on",
                "note": 67,
                "velocity": 0,
                "time": 32
            },
            {
                "type": "note_on",
                "note": 67,
                "velocity": 124,
                "time": 16
            },
            {
                "type": "note_on",
                "note": 67,
                "velocity": 0,
                "time": 14
            },
            {
                "type": "note_on",
                "note": 68,
                "velocity": 114,
                "time": 4
            },
            {
                "type": "note_on",
                "note": 68,
                "velocity": 0,
                "time": 76
            },
            {
                "type": "note_on",
                "note": 68,
                "velocity": 114,
                "time": 16
            },
            {
                "type": "note_on",
                "note": 68,
                "velocity": 0,
                "time": 2
            },
            {
                "type": "note_on",
                "note": 70,
                "velocity": 123,
                "time": 4
            },
            {
                "type": "note_on",
                "note": 70,
                "velocity": 0,
                "time": 42
            },
            {
                "type": "note_on",
                "note": 68,
                "velocity": 127,
                "time": 10
            },
            {
                "type": "note_on",
                "note": 68,
                "velocity": 0,
                "time": 16
            },
            {
                "type": "note_on",
                "note": 67,
                "velocity": 120,
                "time": 2
            },
            {
                "type": "note_on",
                "note": 67,
                "velocity": 0,
                "time": 14
            },
            {
                "type": "note_on",
                "note": 65,
                "velocity": 113,
                "time": 2
            },
            {
                "type": "note_on",
                "note": 67,
                "velocity": 114,
                "time": 48
            },
            {
                "type": "note_on",
                "note": 65,
                "velocity": 0,
                "time": 6
            },
            {
                "type": "note_on",
                "note": 67,
                "velocity": 0,
                "time": 38
            },
            {
                "type": "note_on",
                "note": 70,
                "velocity": 127,
                "time": 2
            },
            {
                "type": "note_on",
                "note": 70,
                "velocity": 0,
                "time": 20
            },
            {
                "type": "note_on",
                "note": 65,
                "velocity": 104,
                "time": 4
            },
            {
                "type": "note_on",
                "note": 67,
                "velocity": 102,
                "time": 44
            },
            {
                "type": "note_on",
                "note": 65,
                "velocity": 0,
                "time": 2
            },
            {
                "type": "note_on",
                "note": 63,
                "velocity": 100,
                "time": 50
            },
            {
                "type": "note_on",
                "note": 67,
                "velocity": 0,
                "time": 4
            },
            {
                "type": "note_on",
                "note": 63,
                "velocity": 0,
                "time": 4
            },
            {
                "type": "note_on",
                "note": 58,
                "velocity": 97,
                "time": 74
            },
            {
                "type": "note_on",
                "note": 58,
                "velocity": 0,
                "time": 28
            },
            {
                "type": "note_on",
                "note": 58,
                "velocity": 97,
                "time": 18
            },
            {
                "type": "note_on",
                "note": 58,
                "velocity": 0,
                "time": 38
            },
            {
                "type": "note_on",
                "note": 59,
                "velocity": 95,
                "time": 8
            },
            {
                "type": "note_on",
                "note": 59,
                "velocity": 0,
                "time": 62
            },
            {
                "type": "note_on",
                "note": 61,
                "velocity": 84,
                "time": 0
            },
            {
                "type": "note_on",
                "note": 61,
                "velocity": 0,
                "time": 10
            },
            {
                "type": "note_on",
                "note": 59,
                "velocity": 94,
                "time": 14
            },
            {
                "type": "note_on",
                "note": 59,
                "velocity": 0,
                "time": 62
            },
            {
                "type": "note_on",
                "note": 61,
                "velocity": 90,
                "time": 0
            },
            {
                "type": "note_on",
                "note": 61,
                "velocity": 0,
                "time": 46
            },
            {
                "type": "note_on",
                "note": 59,
                "velocity": 91,
                "time": 6
            },
            {
                "type": "note_on",
                "note": 59,
                "velocity": 0,
                "time": 72
            },
            {
                "type": "note_on",
                "note": 58,
                "velocity": 84,
                "time": 4
            },
            {
                "type": "note_on",
                "note": 58,
                "velocity": 0,
                "time": 2
            },
            {
                "type": "note_on",
                "note": 62,
                "velocity": 117,
                "time": 2318
            },
            {
                "type": "note_on",
                "note": 62,
                "velocity": 0,
                "time": 52
            },
            {
                "type": "note_on",
                "note": 62,
                "velocity": 121,
                "time": 16
            },
            {
                "type": "note_on",
                "note": 62,
                "velocity": 0,
                "time": 4
            },
            {
                "type": "note_on",
                "note": 58,
                "velocity": 117,
                "time": 300
            },
            {
                "type": "note_on",
                "note": 58,
                "velocity": 0,
                "time": 88
            },
            {
                "type": "note_on",
                "note": 60,
                "velocity": 122,
                "time": 2
            },
            {
                "type": "note_on",
                "note": 62,
                "velocity": 105,
                "time": 2
            },
            {
                "type": "note_on",
                "note": 60,
                "velocity": 0,
                "time": 4
            },
            {
                "type": "note_on",
                "note": 62,
                "velocity": 0,
                "time": 36
            },
            {
                "type": "note_on",
                "note": 62,
                "velocity": 103,
                "time": 12
            },
            {
                "type": "note_on",
                "note": 62,
                "velocity": 0,
                "time": 10
            },
            {
                "type": "note_on",
                "note": 62,
                "velocity": 107,
                "time": 242
            },
            {
                "type": "note_on",
                "note": 62,
                "velocity": 0,
                "time": 2
            },
            {
                "type": "note_on",
                "note": 63,
                "velocity": 115,
                "time": 2
            },
            {
                "type": "note_on",
                "note": 63,
                "velocity": 0,
                "time": 64
            },
            {
                "type": "note_on",
                "note": 65,
                "velocity": 113,
                "time": 8
            },
            {
                "type": "note_on",
                "note": 65,
                "velocity": 0,
                "time": 54
            },
            {
                "type": "note_on",
                "note": 63,
                "velocity": 101,
                "time": 10
            },
            {
                "type": "note_on",
                "note": 63,
                "velocity": 0,
                "time": 2
            },
            {
                "type": "note_on",
                "note": 62,
                "velocity": 107,
                "time": 0
            },
            {
                "type": "note_on",
                "note": 62,
                "velocity": 0,
                "time": 58
            },
            {
                "type": "note_on",
                "note": 60,
                "velocity": 103,
                "time": 12
            },
            {
                "type": "note_on",
                "note": 60,
                "velocity": 0,
                "time": 2
            },
            {
                "type": "note_on",
                "note": 60,
                "velocity": 113,
                "time": 2
            },
            {
                "type": "note_on",
                "note": 60,
                "velocity": 0,
                "time": 48
            },
            {
                "type": "note_on",
                "note": 62,
                "velocity": 110,
                "time": 10
            },
            {
                "type": "note_on",
                "note": 62,
                "velocity": 0,
                "time": 4
            },
            {
                "type": "note_on",
                "note": 63,
                "velocity": 109,
                "time": 14
            },
            {
                "type": "note_on",
                "note": 63,
                "velocity": 0,
                "time": 64
            },
            {
                "type": "note_on",
                "note": 65,
                "velocity": 110,
                "time": 12
            },
            {
                "type": "note_on",
                "note": 65,
                "velocity": 0,
                "time": 50
            },
            {
                "type": "note_on",
                "note": 63,
                "velocity": 105,
                "time": 20
            },
            {
                "type": "note_on",
                "note": 62,
                "velocity": 107,
                "time": 0
            },
            {
                "type": "note_on",
                "note": 63,
                "velocity": 0,
                "time": 2
            },
            {
                "type": "note_on",
                "note": 62,
                "velocity": 0,
                "time": 48
            },
            {
                "type": "note_on",
                "note": 62,
                "velocity": 110,
                "time": 12
            },
            {
                "type": "note_on",
                "note": 62,
                "velocity": 0,
                "time": 6
            },
            {
                "type": "note_on",
                "note": 62,
                "velocity": 115,
                "time": 2
            },
            {
                "type": "note_on",
                "note": 62,
                "velocity": 0,
                "time": 52
            },
            {
                "type": "note_on",
                "note": 62,
                "velocity": 116,
                "time": 16
            },
            {
                "type": "note_on",
                "note": 62,
                "velocity": 0,
                "time": 34
            },
            {
                "type": "note_on",
                "note": 60,
                "velocity": 107,
                "time": 14
            },
            {
                "type": "note_on",
                "note": 58,
                "velocity": 94,
                "time": 44
            },
            {
                "type": "note_on",
                "note": 60,
                "velocity": 0,
                "time": 10
            },
            {
                "type": "note_on",
                "note": 58,
                "velocity": 0,
                "time": 26
            },
            {
                "type": "note_on",
                "note": 60,
                "velocity": 116,
                "time": 10
            },
            {
                "type": "note_on",
                "note": 60,
                "velocity": 0,
                "time": 52
            },
            {
                "type": "note_on",
                "note": 62,
                "velocity": 100,
                "time": 2
            },
            {
                "type": "note_on",
                "note": 62,
                "velocity": 0,
                "time": 20
            },
            {
                "type": "note_on",
                "note": 65,
                "velocity": 121,
                "time": 2
            },
            {
                "type": "note_on",
                "note": 65,
                "velocity": 0,
                "time": 92
            },
            {
                "type": "note_on",
                "note": 69,
                "velocity": 127,
                "time": 6
            },
            {
                "type": "note_on",
                "note": 69,
                "velocity": 0,
                "time": 6
            },
            {
                "type": "note_on",
                "note": 67,
                "velocity": 111,
                "time": 4
            },
            {
                "type": "note_on",
                "note": 67,
                "velocity": 0,
                "time": 38
            },
            {
                "type": "note_on",
                "note": 67,
                "velocity": 122,
                "time": 12
            },
            {
                "type": "note_on",
                "note": 67,
                "velocity": 0,
                "time": 28
            },
            {
                "type": "note_on",
                "note": 65,
                "velocity": 116,
                "time": 100
            },
            {
                "type": "note_on",
                "note": 67,
                "velocity": 115,
                "time": 48
            },
            {
                "type": "note_on",
                "note": 65,
                "velocity": 0,
                "time": 10
            },
            {
                "type": "note_on",
                "note": 67,
                "velocity": 0,
                "time": 32
            },
            {
                "type": "note_on",
                "note": 70,
                "velocity": 125,
                "time": 2
            },
            {
                "type": "note_on",
                "note": 70,
                "velocity": 0,
                "time": 26
            },
            {
                "type": "note_on",
                "note": 70,
                "velocity": 127,
                "time": 14
            },
            {
                "type": "note_on",
                "note": 70,
                "velocity": 0,
                "time": 10
            },
            {
                "type": "note_on",
                "note": 70,
                "velocity": 127,
                "time": 16
            },
            {
                "type": "note_on",
                "note": 70,
                "velocity": 0,
                "time": 44
            },
            {
                "type": "note_on",
                "note": 70,
                "velocity": 127,
                "time": 0
            },
            {
                "type": "note_on",
                "note": 70,
                "velocity": 0,
                "time": 36
            },
            {
                "type": "note_on",
                "note": 70,
                "velocity": 127,
                "time": 12
            },
            {
                "type": "note_on",
                "note": 70,
                "velocity": 0,
                "time": 26
            },
            {
                "type": "note_on",
                "note": 67,
                "velocity": 116,
                "time": 6
            },
            {
                "type": "note_on",
                "note": 67,
                "velocity": 0,
                "time": 32
            },
            {
                "type": "note_on",
                "note": 63,
                "velocity": 108,
                "time": 18
            },
            {
                "type": "note_on",
                "note": 62,
                "velocity": 127,
                "time": 40
            },
            {
                "type": "note_on",
                "note": 63,
                "velocity": 0,
                "time": 2
            },
            {
                "type": "note_on",
                "note": 60,
                "velocity": 110,
                "time": 50
            },
            {
                "type": "note_on",
                "note": 62,
                "velocity": 0,
                "time": 6
            },
            {
                "type": "note_on",
                "note": 60,
                "velocity": 0,
                "time": 28
            },
            {
                "type": "note_on",
                "note": 60,
                "velocity": 118,
                "time": 12
            },
            {
                "type": "note_on",
                "note": 60,
                "velocity": 0,
                "time": 2
            },
            {
                "type": "note_on",
                "note": 67,
                "velocity": 127,
                "time": 234
            },
            {
                "type": "note_on",
                "note": 67,
                "velocity": 0,
                "time": 52
            },
            {
                "type": "note_on",
                "note": 67,
                "velocity": 127,
                "time": 14
            },
            {
                "type": "note_on",
                "note": 67,
                "velocity": 0,
                "time": 80
            },
            {
                "type": "note_on",
                "note": 65,
                "velocity": 125,
                "time": 4
            },
            {
                "type": "note_on",
                "note": 67,
                "velocity": 120,
                "time": 90
            },
            {
                "type": "note_on",
                "note": 65,
                "velocity": 0,
                "time": 6
            },
            {
                "type": "note_on",
                "note": 68,
                "velocity": 104,
                "time": 40
            },
            {
                "type": "note_on",
                "note": 67,
                "velocity": 0,
                "time": 8
            },
            {
                "type": "note_on",
                "note": 68,
                "velocity": 0,
                "time": 50
            },
            {
                "type": "note_on",
                "note": 67,
                "velocity": 122,
                "time": 2
            },
            {
                "type": "note_on",
                "note": 67,
                "velocity": 0,
                "time": 30
            },
            {
                "type": "note_on",
                "note": 68,
                "velocity": 127,
                "time": 160
            },
            {
                "type": "note_on",
                "note": 68,
                "velocity": 0,
                "time": 6
            },
            {
                "type": "note_on",
                "note": 67,
                "velocity": 108,
                "time": 4
            },
            {
                "type": "note_on",
                "note": 67,
                "velocity": 0,
                "time": 34
            },
            {
                "type": "note_on",
                "note": 67,
                "velocity": 127,
                "time": 22
            },
            {
                "type": "note_on",
                "note": 67,
                "velocity": 0,
                "time": 48
            },
            {
                "type": "note_on",
                "note": 65,
                "velocity": 113,
                "time": 2
            },
            {
                "type": "note_on",
                "note": 65,
                "velocity": 0,
                "time": 58
            },
            {
                "type": "note_on",
                "note": 65,
                "velocity": 127,
                "time": 30
            },
            {
                "type": "note_on",
                "note": 65,
                "velocity": 0,
                "time": 16
            },
            {
                "type": "note_on",
                "note": 65,
                "velocity": 111,
                "time": 104
            },
            {
                "type": "note_on",
                "note": 58,
                "velocity": 98,
                "time": 40
            },
            {
                "type": "note_on",
                "note": 65,
                "velocity": 0,
                "time": 6
            },
            {
                "type": "note_on",
                "note": 58,
                "velocity": 0,
                "time": 82
            },
            {
                "type": "note_on",
                "note": 65,
                "velocity": 118,
                "time": 2
            },
            {
                "type": "note_on",
                "note": 65,
                "velocity": 0,
                "time": 76
            },
            {
                "type": "note_on",
                "note": 65,
                "velocity": 113,
                "time": 14
            },
            {
                "type": "note_on",
                "note": 65,
                "velocity": 0,
                "time": 92
            },
            {
                "type": "note_on",
                "note": 67,
                "velocity": 116,
                "time": 2
            },
            {
                "type": "note_on",
                "note": 67,
                "velocity": 0,
                "time": 80
            },
            {
                "type": "note_on",
                "note": 67,
                "velocity": 114,
                "time": 22
            },
            {
                "type": "note_on",
                "note": 68,
                "velocity": 121,
                "time": 46
            },
            {
                "type": "note_on",
                "note": 67,
                "velocity": 0,
                "time": 6
            },
            {
                "type": "note_on",
                "note": 68,
                "velocity": 0,
                "time": 36
            },
            {
                "type": "note_on",
                "note": 68,
                "velocity": 115,
                "time": 8
            },
            {
                "type": "note_on",
                "note": 68,
                "velocity": 0,
                "time": 70
            },
            {
                "type": "note_on",
                "note": 68,
                "velocity": 115,
                "time": 18
            },
            {
                "type": "note_on",
                "note": 70,
                "velocity": 127,
                "time": 4
            },
            {
                "type": "note_on",
                "note": 68,
                "velocity": 0,
                "time": 4
            },
            {
                "type": "note_on",
                "note": 70,
                "velocity": 0,
                "time": 44
            },
            {
                "type": "note_on",
                "note": 68,
                "velocity": 127,
                "time": 8
            },
            {
                "type": "note_on",
                "note": 67,
                "velocity": 118,
                "time": 62
            },
            {
                "type": "note_on",
                "note": 68,
                "velocity": 0,
                "time": 6
            },
            {
                "type": "note_on",
                "note": 67,
                "velocity": 0,
                "time": 14
            },
            {
                "type": "note_on",
                "note": 62,
                "velocity": 101,
                "time": 7294
            },
            {
                "type": "note_on",
                "note": 62,
                "velocity": 0,
                "time": 10
            },
            {
                "type": "note_on",
                "note": 61,
                "velocity": 107,
                "time": 8
            },
            {
                "type": "note_on",
                "note": 61,
                "velocity": 0,
                "time": 50
            },
            {
                "type": "note_on",
                "note": 61,
                "velocity": 103,
                "time": 56
            },
            {
                "type": "note_on",
                "note": 61,
                "velocity": 0,
                "time": 40
            },
            {
                "type": "note_on",
                "note": 60,
                "velocity": 97,
                "time": 48
            },
            {
                "type": "note_on",
                "note": 60,
                "velocity": 0,
                "time": 54
            },
            {
                "type": "note_on",
                "note": 60,
                "velocity": 93,
                "time": 32
            },
            {
                "type": "note_on",
                "note": 60,
                "velocity": 0,
                "time": 64
            },
            {
                "type": "note_on",
                "note": 61,
                "velocity": 107,
                "time": 38
            },
            {
                "type": "note_on",
                "note": 61,
                "velocity": 0,
                "time": 42
            },
            {
                "type": "note_on",
                "note": 61,
                "velocity": 95,
                "time": 50
            },
            {
                "type": "note_on",
                "note": 61,
                "velocity": 0,
                "time": 76
            },
            {
                "type": "note_on",
                "note": 62,
                "velocity": 90,
                "time": 10
            },
            {
                "type": "note_on",
                "note": 62,
                "velocity": 0,
                "time": 50
            },
            {
                "type": "note_on",
                "note": 62,
                "velocity": 100,
                "time": 42
            },
            {
                "type": "note_on",
                "note": 62,
                "velocity": 0,
                "time": 88
            },
            {
                "type": "note_on",
                "note": 61,
                "velocity": 85,
                "time": 8
            },
            {
                "type": "note_on",
                "note": 61,
                "velocity": 0,
                "time": 48
            },
            {
                "type": "note_on",
                "note": 61,
                "velocity": 87,
                "time": 48
            },
            {
                "type": "note_on",
                "note": 61,
                "velocity": 0,
                "time": 78
            },
            {
                "type": "note_on",
                "note": 60,
                "velocity": 97,
                "time": 24
            },
            {
                "type": "note_on",
                "note": 60,
                "velocity": 0,
                "time": 72
            },
            {
                "type": "note_on",
                "note": 57,
                "velocity": 83,
                "time": 0
            },
            {
                "type": "note_on",
                "note": 57,
                "velocity": 0,
                "time": 40
            },
            {
                "type": "note_on",
                "note": 57,
                "velocity": 83,
                "time": 48
            },
            {
                "type": "note_on",
                "note": 57,
                "velocity": 0,
                "time": 36
            },
            {
                "type": "note_on",
                "note": 58,
                "velocity": 99,
                "time": 60
            },
            {
                "type": "note_on",
                "note": 57,
                "velocity": 70,
                "time": 94
            },
            {
                "type": "note_on",
                "note": 58,
                "velocity": 0,
                "time": 10
            },
            {
                "type": "note_on",
                "note": 57,
                "velocity": 0,
                "time": 102
            },
            {
                "type": "note_on",
                "note": 57,
                "velocity": 78,
                "time": 2
            },
            {
                "type": "note_on",
                "note": 57,
                "velocity": 0,
                "time": 34
            },
            {
                "type": "note_on",
                "note": 57,
                "velocity": 90,
                "time": 60
            },
            {
                "type": "note_on",
                "note": 57,
                "velocity": 0,
                "time": 68
            },
            {
                "type": "note_on",
                "note": 58,
                "velocity": 88,
                "time": 20
            },
            {
                "type": "note_on",
                "note": 58,
                "velocity": 0,
                "time": 94
            },
            {
                "type": "note_on",
                "note": 57,
                "velocity": 76,
                "time": 2
            },
            {
                "type": "note_on",
                "note": 57,
                "velocity": 0,
                "time": 50
            },
            {
                "type": "note_on",
                "note": 57,
                "velocity": 101,
                "time": 52
            },
            {
                "type": "note_on",
                "note": 57,
                "velocity": 0,
                "time": 30
            },
            {
                "type": "note_on",
                "note": 57,
                "velocity": 104,
                "time": 60
            },
            {
                "type": "note_on",
                "note": 57,
                "velocity": 0,
                "time": 34
            },
            {
                "type": "note_on",
                "note": 58,
                "velocity": 107,
                "time": 56
            },
            {
                "type": "note_on",
                "note": 58,
                "velocity": 0,
                "time": 88
            },
            {
                "type": "note_on",
                "note": 57,
                "velocity": 98,
                "time": 6
            },
            {
                "type": "note_on",
                "note": 57,
                "velocity": 0,
                "time": 84
            },
            {
                "type": "note_on",
                "note": 55,
                "velocity": 107,
                "time": 20
            },
            {
                "type": "note_on",
                "note": 55,
                "velocity": 0,
                "time": 36
            },
            {
                "type": "note_on",
                "note": 53,
                "velocity": 107,
                "time": 56
            },
            {
                "type": "note_on",
                "note": 53,
                "velocity": 0,
                "time": 44
            },
            {
                "type": "note_on",
                "note": 52,
                "velocity": 107,
                "time": 60
            },
            {
                "type": "note_on",
                "note": 52,
                "velocity": 0,
                "time": 4
            },
            {
                "type": "note_on",
                "note": 59,
                "velocity": 107,
                "time": 2
            },
            {
                "type": "note_on",
                "note": 59,
                "velocity": 0,
                "time": 20
            },
            {
                "type": "note_on",
                "note": 58,
                "velocity": 91,
                "time": 2
            },
            {
                "type": "note_on",
                "note": 58,
                "velocity": 0,
                "time": 52
            },
            {
                "type": "note_on",
                "note": 58,
                "velocity": 99,
                "time": 46
            },
            {
                "type": "note_on",
                "note": 58,
                "velocity": 0,
                "time": 52
            },
            {
                "type": "note_on",
                "note": 57,
                "velocity": 101,
                "time": 36
            },
            {
                "type": "note_on",
                "note": 57,
                "velocity": 0,
                "time": 2
            },
            {
                "type": "note_on",
                "note": 58,
                "velocity": 103,
                "time": 2
            },
            {
                "type": "note_on",
                "note": 58,
                "velocity": 0,
                "time": 160
            },
            {
                "type": "note_on",
                "note": 59,
                "velocity": 101,
                "time": 48
            },
            {
                "type": "note_on",
                "note": 59,
                "velocity": 0,
                "time": 22
            },
            {
                "type": "note_on",
                "note": 58,
                "velocity": 94,
                "time": 14
            },
            {
                "type": "note_on",
                "note": 58,
                "velocity": 0,
                "time": 38
            },
            {
                "type": "note_on",
                "note": 58,
                "velocity": 87,
                "time": 56
            },
            {
                "type": "note_on",
                "note": 58,
                "velocity": 0,
                "time": 42
            },
            {
                "type": "note_on",
                "note": 57,
                "velocity": 107,
                "time": 48
            },
            {
                "type": "note_on",
                "note": 57,
                "velocity": 0,
                "time": 158
            },
            {
                "type": "note_on",
                "note": 58,
                "velocity": 95,
                "time": 32
            },
            {
                "type": "note_on",
                "note": 58,
                "velocity": 0,
                "time": 136
            },
            {
                "type": "note_on",
                "note": 59,
                "velocity": 89,
                "time": 3904
            },
            {
                "type": "note_on",
                "note": 59,
                "velocity": 0,
                "time": 74
            },
            {
                "type": "note_on",
                "note": 59,
                "velocity": 86,
                "time": 22
            },
            {
                "type": "note_on",
                "note": 59,
                "velocity": 0,
                "time": 70
            },
            {
                "type": "note_on",
                "note": 58,
                "velocity": 87,
                "time": 24
            },
            {
                "type": "note_on",
                "note": 58,
                "velocity": 0,
                "time": 92
            },
            {
                "type": "note_on",
                "note": 57,
                "velocity": 78,
                "time": 94
            },
            {
                "type": "note_on",
                "note": 57,
                "velocity": 0,
                "time": 78
            },
            {
                "type": "note_on",
                "note": 57,
                "velocity": 78,
                "time": 18
            },
            {
                "type": "note_on",
                "note": 57,
                "velocity": 0,
                "time": 80
            },
            {
                "type": "note_on",
                "note": 58,
                "velocity": 84,
                "time": 12
            },
            {
                "type": "note_on",
                "note": 58,
                "velocity": 0,
                "time": 120
            },
            {
                "type": "note_on",
                "note": 59,
                "velocity": 84,
                "time": 90
            },
            {
                "type": "note_on",
                "note": 59,
                "velocity": 0,
                "time": 36
            },
            {
                "type": "note_on",
                "note": 59,
                "velocity": 88,
                "time": 54
            },
            {
                "type": "note_on",
                "note": 59,
                "velocity": 0,
                "time": 44
            },
            {
                "type": "note_on",
                "note": 58,
                "velocity": 80,
                "time": 38
            },
            {
                "type": "note_on",
                "note": 58,
                "velocity": 0,
                "time": 40
            },
            {
                "type": "note_on",
                "note": 58,
                "velocity": 75,
                "time": 54
            },
            {
                "type": "note_on",
                "note": 58,
                "velocity": 0,
                "time": 62
            },
            {
                "type": "note_on",
                "note": 57,
                "velocity": 90,
                "time": 34
            },
            {
                "type": "note_on",
                "note": 57,
                "velocity": 0,
                "time": 68
            },
            {
                "type": "note_on",
                "note": 58,
                "velocity": 78,
                "time": 2
            },
            {
                "type": "note_on",
                "note": 58,
                "velocity": 0,
                "time": 96
            },
            {
                "type": "note_on",
                "note": 55,
                "velocity": 82,
                "time": 0
            },
            {
                "type": "note_on",
                "note": 55,
                "velocity": 0,
                "time": 84
            },
            {
                "type": "note_on",
                "note": 53,
                "velocity": 65,
                "time": 8
            },
            {
                "type": "note_on",
                "note": 53,
                "velocity": 0,
                "time": 58
            },
            {
                "type": "note_on",
                "note": 58,
                "velocity": 91,
                "time": 0
            },
            {
                "type": "note_on",
                "note": 58,
                "velocity": 0,
                "time": 78
            },
            {
                "type": "note_on",
                "note": 56,
                "velocity": 77,
                "time": 4
            },
            {
                "type": "note_on",
                "note": 56,
                "velocity": 0,
                "time": 44
            },
            {
                "type": "note_on",
                "note": 58,
                "velocity": 95,
                "time": 60
            },
            {
                "type": "note_on",
                "note": 58,
                "velocity": 0,
                "time": 68
            },
            {
                "type": "note_on",
                "note": 56,
                "velocity": 69,
                "time": 10
            },
            {
                "type": "note_on",
                "note": 56,
                "velocity": 0,
                "time": 68
            },
            {
                "type": "note_on",
                "note": 60,
                "velocity": 105,
                "time": 0
            },
            {
                "type": "note_on",
                "note": 60,
                "velocity": 0,
                "time": 84
            },
            {
                "type": "note_on",
                "note": 58,
                "velocity": 89,
                "time": 0
            },
            {
                "type": "note_on",
                "note": 58,
                "velocity": 0,
                "time": 84
            },
            {
                "type": "note_on",
                "note": 63,
                "velocity": 103,
                "time": 10
            },
            {
                "type": "note_on",
                "note": 63,
                "velocity": 0,
                "time": 50
            },
            {
                "type": "note_on",
                "note": 63,
                "velocity": 107,
                "time": 54
            },
            {
                "type": "note_on",
                "note": 63,
                "velocity": 0,
                "time": 60
            },
            {
                "type": "note_on",
                "note": 61,
                "velocity": 99,
                "time": 0
            },
            {
                "type": "note_on",
                "note": 61,
                "velocity": 0,
                "time": 896
            },
            {
                "type": "note_on",
                "note": 58,
                "velocity": 87,
                "time": 1136
            },
            {
                "type": "note_on",
                "note": 58,
                "velocity": 0,
                "time": 30
            },
            {
                "type": "note_on",
                "note": 58,
                "velocity": 107,
                "time": 66
            },
            {
                "type": "note_on",
                "note": 58,
                "velocity": 0,
                "time": 30
            },
            {
                "type": "note_on",
                "note": 58,
                "velocity": 107,
                "time": 62
            },
            {
                "type": "note_on",
                "note": 58,
                "velocity": 0,
                "time": 44
            },
            {
                "type": "note_on",
                "note": 60,
                "velocity": 101,
                "time": 48
            },
            {
                "type": "note_on",
                "note": 60,
                "velocity": 0,
                "time": 92
            },
            {
                "type": "note_on",
                "note": 58,
                "velocity": 77,
                "time": 0
            },
            {
                "type": "note_on",
                "note": 58,
                "velocity": 0,
                "time": 36
            },
            {
                "type": "note_on",
                "note": 58,
                "velocity": 107,
                "time": 64
            },
            {
                "type": "note_on",
                "note": 58,
                "velocity": 0,
                "time": 32
            },
            {
                "type": "note_on",
                "note": 58,
                "velocity": 101,
                "time": 60
            },
            {
                "type": "note_on",
                "note": 58,
                "velocity": 0,
                "time": 46
            },
            {
                "type": "note_on",
                "note": 60,
                "velocity": 93,
                "time": 42
            },
            {
                "type": "note_on",
                "note": 58,
                "velocity": 84,
                "time": 94
            },
            {
                "type": "note_on",
                "note": 60,
                "velocity": 0,
                "time": 10
            },
            {
                "type": "note_on",
                "note": 58,
                "velocity": 0,
                "time": 182
            },
            {
                "type": "note_on",
                "note": 68,
                "velocity": 125,
                "time": 4806
            },
            {
                "type": "note_on",
                "note": 68,
                "velocity": 0,
                "time": 64
            },
            {
                "type": "note_on",
                "note": 68,
                "velocity": 125,
                "time": 2
            },
            {
                "type": "note_on",
                "note": 68,
                "velocity": 0,
                "time": 152
            },
            {
                "type": "note_on",
                "note": 68,
                "velocity": 125,
                "time": 22
            },
            {
                "type": "note_on",
                "note": 68,
                "velocity": 0,
                "time": 8
            },
            {
                "type": "note_on",
                "note": 68,
                "velocity": 125,
                "time": 2
            },
            {
                "type": "note_on",
                "note": 68,
                "velocity": 0,
                "time": 34
            },
            {
                "type": "note_on",
                "note": 67,
                "velocity": 123,
                "time": 2
            },
            {
                "type": "note_on",
                "note": 67,
                "velocity": 0,
                "time": 142
            },
            {
                "type": "note_on",
                "note": 67,
                "velocity": 125,
                "time": 20
            },
            {
                "type": "note_on",
                "note": 67,
                "velocity": 0,
                "time": 36
            },
            {
                "type": "note_on",
                "note": 65,
                "velocity": 125,
                "time": 2
            },
            {
                "type": "note_on",
                "note": 65,
                "velocity": 0,
                "time": 152
            },
            {
                "type": "note_on",
                "note": 65,
                "velocity": 125,
                "time": 26
            },
            {
                "type": "note_on",
                "note": 65,
                "velocity": 0,
                "time": 164
            },
            {
                "type": "note_on",
                "note": 63,
                "velocity": 125,
                "time": 28
            },
            {
                "type": "note_on",
                "note": 63,
                "velocity": 0,
                "time": 42
            },
            {
                "type": "note_on",
                "note": 63,
                "velocity": 119,
                "time": 24
            },
            {
                "type": "note_on",
                "note": 63,
                "velocity": 0,
                "time": 156
            },
            {
                "type": "note_on",
                "note": 63,
                "velocity": 125,
                "time": 46
            },
            {
                "type": "note_on",
                "note": 63,
                "velocity": 0,
                "time": 4
            },
            {
                "type": "note_on",
                "note": 62,
                "velocity": 125,
                "time": 20
            },
            {
                "type": "note_on",
                "note": 63,
                "velocity": 110,
                "time": 224
            },
            {
                "type": "note_on",
                "note": 62,
                "velocity": 0,
                "time": 26
            },
            {
                "type": "note_on",
                "note": 63,
                "velocity": 0,
                "time": 40
            },
            {
                "type": "note_on",
                "note": 65,
                "velocity": 125,
                "time": 16
            },
            {
                "type": "note_on",
                "note": 65,
                "velocity": 0,
                "time": 554
            },
            {
                "type": "note_on",
                "note": 68,
                "velocity": 125,
                "time": 1116
            },
            {
                "type": "note_on",
                "note": 68,
                "velocity": 0,
                "time": 14
            },
            {
                "type": "note_on",
                "note": 68,
                "velocity": 125,
                "time": 2
            },
            {
                "type": "note_on",
                "note": 68,
                "velocity": 0,
                "time": 134
            },
            {
                "type": "note_on",
                "note": 68,
                "velocity": 125,
                "time": 28
            },
            {
                "type": "note_on",
                "note": 68,
                "velocity": 0,
                "time": 28
            },
            {
                "type": "note_on",
                "note": 67,
                "velocity": 125,
                "time": 2
            },
            {
                "type": "note_on",
                "note": 67,
                "velocity": 0,
                "time": 38
            },
            {
                "type": "note_on",
                "note": 67,
                "velocity": 125,
                "time": 2
            },
            {
                "type": "note_on",
                "note": 67,
                "velocity": 0,
                "time": 142
            },
            {
                "type": "note_on",
                "note": 67,
                "velocity": 123,
                "time": 28
            },
            {
                "type": "note_on",
                "note": 67,
                "velocity": 0,
                "time": 50
            },
            {
                "type": "note_on",
                "note": 65,
                "velocity": 115,
                "time": 2
            },
            {
                "type": "note_on",
                "note": 65,
                "velocity": 0,
                "time": 34
            },
            {
                "type": "note_on",
                "note": 65,
                "velocity": 125,
                "time": 2
            },
            {
                "type": "note_on",
                "note": 65,
                "velocity": 0,
                "time": 114
            },
            {
                "type": "note_on",
                "note": 65,
                "velocity": 125,
                "time": 28
            },
            {
                "type": "note_on",
                "note": 65,
                "velocity": 0,
                "time": 38
            },
            {
                "type": "note_on",
                "note": 63,
                "velocity": 125,
                "time": 2
            },
            {
                "type": "note_on",
                "note": 63,
                "velocity": 0,
                "time": 146
            },
            {
                "type": "note_on",
                "note": 63,
                "velocity": 125,
                "time": 40
            },
            {
                "type": "note_on",
                "note": 63,
                "velocity": 0,
                "time": 110
            },
            {
                "type": "note_on",
                "note": 68,
                "velocity": 125,
                "time": 74
            },
            {
                "type": "note_on",
                "note": 68,
                "velocity": 0,
                "time": 160
            },
            {
                "type": "note_on",
                "note": 70,
                "velocity": 117,
                "time": 18
            },
            {
                "type": "note_on",
                "note": 72,
                "velocity": 125,
                "time": 90
            },
            {
                "type": "note_on",
                "note": 70,
                "velocity": 0,
                "time": 6
            },
            {
                "type": "note_on",
                "note": 63,
                "velocity": 113,
                "time": 44
            },
            {
                "type": "note_on",
                "note": 72,
                "velocity": 0,
                "time": 8
            },
            {
                "type": "note_on",
                "note": 63,
                "velocity": 0,
                "time": 36
            },
            {
                "type": "note_on",
                "note": 68,
                "velocity": 125,
                "time": 2
            },
            {
                "type": "note_on",
                "note": 68,
                "velocity": 0,
                "time": 114
            },
            {
                "type": "note_on",
                "note": 67,
                "velocity": 125,
                "time": 56
            },
            {
                "type": "note_on",
                "note": 67,
                "velocity": 0,
                "time": 270
            },
            {
                "type": "note_on",
                "note": 65,
                "velocity": 125,
                "time": 14
            },
            {
                "type": "note_on",
                "note": 67,
                "velocity": 125,
                "time": 10
            },
            {
                "type": "note_on",
                "note": 65,
                "velocity": 0,
                "time": 10
            },
            {
                "type": "note_on",
                "note": 67,
                "velocity": 0,
                "time": 70
            },
            {
                "type": "note_on",
                "note": 68,
                "velocity": 125,
                "time": 168
            },
            {
                "type": "note_on",
                "note": 68,
                "velocity": 0,
                "time": 52
            },
            {
                "type": "note_on",
                "note": 68,
                "velocity": 125,
                "time": 2
            },
            {
                "type": "note_on",
                "note": 68,
                "velocity": 0,
                "time": 138
            },
            {
                "type": "note_on",
                "note": 68,
                "velocity": 125,
                "time": 36
            },
            {
                "type": "note_on",
                "note": 68,
                "velocity": 0,
                "time": 20
            },
            {
                "type": "note_on",
                "note": 68,
                "velocity": 123,
                "time": 2
            },
            {
                "type": "note_on",
                "note": 68,
                "velocity": 0,
                "time": 118
            },
            {
                "type": "note_on",
                "note": 68,
                "velocity": 123,
                "time": 42
            },
            {
                "type": "note_on",
                "note": 68,
                "velocity": 0,
                "time": 130
            },
            {
                "type": "note_on",
                "note": 67,
                "velocity": 116,
                "time": 36
            },
            {
                "type": "note_on",
                "note": 65,
                "velocity": 109,
                "time": 104
            },
            {
                "type": "note_on",
                "note": 67,
                "velocity": 0,
                "time": 20
            },
            {
                "type": "note_on",
                "note": 65,
                "velocity": 0,
                "time": 48
            },
            {
                "type": "note_on",
                "note": 65,
                "velocity": 125,
                "time": 34
            },
            {
                "type": "note_on",
                "note": 67,
                "velocity": 125,
                "time": 558
            },
            {
                "type": "note_on",
                "note": 65,
                "velocity": 0,
                "time": 2
            },
            {
                "type": "note_on",
                "note": 67,
                "velocity": 0,
                "time": 278
            },
            {
                "type": "note_on",
                "note": 63,
                "velocity": 125,
                "time": 134
            },
            {
                "type": "note_on",
                "note": 63,
                "velocity": 0,
                "time": 4
            },
            {
                "type": "note_on",
                "note": 63,
                "velocity": 117,
                "time": 2
            },
            {
                "type": "note_on",
                "note": 63,
                "velocity": 0,
                "time": 38
            },
            {
                "type": "note_on",
                "note": 63,
                "velocity": 125,
                "time": 42
            },
            {
                "type": "note_on",
                "note": 63,
                "velocity": 0,
                "time": 48
            },
            {
                "type": "note_on",
                "note": 63,
                "velocity": 125,
                "time": 38
            },
            {
                "type": "note_on",
                "note": 63,
                "velocity": 0,
                "time": 80
            },
            {
                "type": "note_on",
                "note": 65,
                "velocity": 114,
                "time": 12
            },
            {
                "type": "note_on",
                "note": 65,
                "velocity": 0,
                "time": 30
            },
            {
                "type": "note_on",
                "note": 63,
                "velocity": 125,
                "time": 152
            },
            {
                "type": "note_on",
                "note": 63,
                "velocity": 0,
                "time": 116
            },
            {
                "type": "note_on",
                "note": 63,
                "velocity": 112,
                "time": 60
            },
            {
                "type": "note_on",
                "note": 63,
                "velocity": 0,
                "time": 44
            },
            {
                "type": "note_on",
                "note": 63,
                "velocity": 123,
                "time": 42
            },
            {
                "type": "note_on",
                "note": 63,
                "velocity": 0,
                "time": 42
            },
            {
                "type": "note_on",
                "note": 63,
                "velocity": 125,
                "time": 36
            },
            {
                "type": "note_on",
                "note": 63,
                "velocity": 0,
                "time": 160
            },
            {
                "type": "note_on",
                "note": 65,
                "velocity": 123,
                "time": 30
            },
            {
                "type": "note_on",
                "note": 65,
                "velocity": 0,
                "time": 2
            },
            {
                "type": "note_on",
                "note": 63,
                "velocity": 125,
                "time": 2
            },
            {
                "type": "note_on",
                "note": 63,
                "velocity": 0,
                "time": 174
            },
            {
                "type": "note_on",
                "note": 62,
                "velocity": 108,
                "time": 22
            },
            {
                "type": "note_on",
                "note": 62,
                "velocity": 0,
                "time": 170
            },
            {
                "type": "note_on",
                "note": 63,
                "velocity": 125,
                "time": 22
            },
            {
                "type": "note_on",
                "note": 63,
                "velocity": 0,
                "time": 106
            },
            {
                "type": "note_on",
                "note": 60,
                "velocity": 120,
                "time": 0
            },
            {
                "type": "note_on",
                "note": 60,
                "velocity": 0,
                "time": 54
            },
            {
                "type": "note_on",
                "note": 58,
                "velocity": 113,
                "time": 0
            },
            {
                "type": "note_on",
                "note": 58,
                "velocity": 0,
                "time": 214
            },
            {
                "type": "note_on",
                "note": 68,
                "velocity": 97,
                "time": 2
            },
            {
                "type": "note_on",
                "note": 68,
                "velocity": 0,
                "time": 66
            },
            {
                "type": "note_on",
                "note": 67,
                "velocity": 90,
                "time": 4
            },
            {
                "type": "note_on",
                "note": 63,
                "velocity": 86,
                "time": 20
            },
            {
                "type": "note_on",
                "note": 67,
                "velocity": 0,
                "time": 4
            },
            {
                "type": "note_on",
                "note": 63,
                "velocity": 0,
                "time": 54
            },
            {
                "type": "note_on",
                "note": 55,
                "velocity": 82,
                "time": 4
            },
            {
                "type": "note_on",
                "note": 58,
                "velocity": 82,
                "time": 64
            },
            {
                "type": "note_on",
                "note": 55,
                "velocity": 0,
                "time": 8
            },
            {
                "type": "note_on",
                "note": 58,
                "velocity": 0,
                "time": 54
            },
            {
                "type": "note_on",
                "note": 58,
                "velocity": 70,
                "time": 18
            },
            {
                "type": "note_on",
                "note": 58,
                "velocity": 0,
                "time": 22
            },
            {
                "type": "note_on",
                "note": 67,
                "velocity": 92,
                "time": 112
            },
            {
                "type": "note_on",
                "note": 67,
                "velocity": 0,
                "time": 68
            },
            {
                "type": "note_on",
                "note": 65,
                "velocity": 91,
                "time": 0
            },
            {
                "type": "note_on",
                "note": 65,
                "velocity": 0,
                "time": 56
            },
            {
                "type": "note_on",
                "note": 63,
                "velocity": 77,
                "time": 8
            },
            {
                "type": "note_on",
                "note": 63,
                "velocity": 0,
                "time": 16
            },
            {
                "type": "note_on",
                "note": 62,
                "velocity": 80,
                "time": 10
            },
            {
                "type": "note_on",
                "note": 62,
                "velocity": 0,
                "time": 138
            },
            {
                "type": "note_on",
                "note": 58,
                "velocity": 76,
                "time": 2
            },
            {
                "type": "note_on",
                "note": 58,
                "velocity": 0,
                "time": 4
            },
            {
                "type": "note_on",
                "note": 67,
                "velocity": 92,
                "time": 118
            },
            {
                "type": "note_on",
                "note": 67,
                "velocity": 0,
                "time": 4
            },
            {
                "type": "note_on",
                "note": 63,
                "velocity": 80,
                "time": 4
            },
            {
                "type": "note_on",
                "note": 63,
                "velocity": 0,
                "time": 40
            },
            {
                "type": "note_on",
                "note": 65,
                "velocity": 89,
                "time": 8
            },
            {
                "type": "note_on",
                "note": 65,
                "velocity": 0,
                "time": 4
            },
            {
                "type": "note_on",
                "note": 67,
                "velocity": 81,
                "time": 0
            },
            {
                "type": "note_on",
                "note": 67,
                "velocity": 0,
                "time": 54
            },
            {
                "type": "note_on",
                "note": 63,
                "velocity": 73,
                "time": 0
            },
            {
                "type": "note_on",
                "note": 59,
                "velocity": 80,
                "time": 4
            },
            {
                "type": "note_on",
                "note": 63,
                "velocity": 0,
                "time": 4
            },
            {
                "type": "note_on",
                "note": 59,
                "velocity": 0,
                "time": 2
            },
            {
                "type": "note_on",
                "note": 67,
                "velocity": 84,
                "time": 2
            },
            {
                "type": "note_on",
                "note": 67,
                "velocity": 0,
                "time": 84
            },
            {
                "type": "note_on",
                "note": 65,
                "velocity": 80,
                "time": 0
            },
            {
                "type": "note_on",
                "note": 65,
                "velocity": 0,
                "time": 80
            },
            {
                "type": "note_on",
                "note": 65,
                "velocity": 82,
                "time": 24
            },
            {
                "type": "note_on",
                "note": 63,
                "velocity": 76,
                "time": 62
            },
            {
                "type": "note_on",
                "note": 65,
                "velocity": 0,
                "time": 4
            },
            {
                "type": "note_on",
                "note": 63,
                "velocity": 0,
                "time": 64
            },
            {
                "type": "note_on",
                "note": 63,
                "velocity": 77,
                "time": 18
            },
            {
                "type": "note_on",
                "note": 63,
                "velocity": 0,
                "time": 82
            },
            {
                "type": "note_on",
                "note": 60,
                "velocity": 72,
                "time": 4
            },
            {
                "type": "note_on",
                "note": 60,
                "velocity": 0,
                "time": 10
            },
            {
                "type": "note_on",
                "note": 62,
                "velocity": 72,
                "time": 64
            },
            {
                "type": "note_on",
                "note": 62,
                "velocity": 0,
                "time": 92
            },
            {
                "type": "note_on",
                "note": 63,
                "velocity": 70,
                "time": 6
            },
            {
                "type": "note_on",
                "note": 63,
                "velocity": 0,
                "time": 1158
            },
            {
                "type": "note_on",
                "note": 58,
                "velocity": 51,
                "time": 2682
            },
            {
                "type": "note_on",
                "note": 58,
                "velocity": 0,
                "time": 86
            },
            {
                "type": "note_on",
                "note": 58,
                "velocity": 49,
                "time": 16
            },
            {
                "type": "note_on",
                "note": 58,
                "velocity": 0,
                "time": 72
            },
            {
                "type": "note_on",
                "note": 57,
                "velocity": 54,
                "time": 10
            },
            {
                "type": "note_on",
                "note": 57,
                "velocity": 0,
                "time": 88
            },
            {
                "type": "note_on",
                "note": 57,
                "velocity": 59,
                "time": 14
            },
            {
                "type": "note_on",
                "note": 57,
                "velocity": 0,
                "time": 86
            },
            {
                "type": "note_on",
                "note": 56,
                "velocity": 61,
                "time": 12
            },
            {
                "type": "note_on",
                "note": 56,
                "velocity": 0,
                "time": 166
            },
            {
                "type": "note_on",
                "note": 65,
                "velocity": 55,
                "time": 2
            },
            {
                "type": "note_on",
                "note": 65,
                "velocity": 0,
                "time": 40
            }
        ]
    },
    {
        "track": 5,
        "notes": [
            {
                "type": "note_on",
                "note": 62,
                "velocity": 57,
                "time": 649
            },
            {
                "type": "note_on",
                "note": 62,
                "velocity": 0,
                "time": 66
            },
            {
                "type": "note_on",
                "note": 62,
                "velocity": 64,
                "time": 30
            },
            {
                "type": "note_on",
                "note": 62,
                "velocity": 0,
                "time": 6
            },
            {
                "type": "note_on",
                "note": 62,
                "velocity": 68,
                "time": 42
            },
            {
                "type": "note_on",
                "note": 62,
                "velocity": 0,
                "time": 50
            },
            {
                "type": "note_on",
                "note": 62,
                "velocity": 81,
                "time": 46
            },
            {
                "type": "note_on",
                "note": 62,
                "velocity": 0,
                "time": 76
            },
            {
                "type": "note_on",
                "note": 62,
                "velocity": 63,
                "time": 28
            },
            {
                "type": "note_on",
                "note": 62,
                "velocity": 0,
                "time": 192
            },
            {
                "type": "note_on",
                "note": 60,
                "velocity": 45,
                "time": 96
            },
            {
                "type": "note_on",
                "note": 60,
                "velocity": 0,
                "time": 56
            },
            {
                "type": "note_on",
                "note": 60,
                "velocity": 70,
                "time": 40
            },
            {
                "type": "note_on",
                "note": 60,
                "velocity": 0,
                "time": 76
            },
            {
                "type": "note_on",
                "note": 62,
                "velocity": 73,
                "time": 20
            },
            {
                "type": "note_on",
                "note": 62,
                "velocity": 0,
                "time": 72
            },
            {
                "type": "note_on",
                "note": 60,
                "velocity": 70,
                "time": 24
            },
            {
                "type": "note_on",
                "note": 58,
                "velocity": 50,
                "time": 96
            },
            {
                "type": "note_on",
                "note": 60,
                "velocity": 0,
                "time": 24
            },
            {
                "type": "note_on",
                "note": 58,
                "velocity": 0,
                "time": 2
            },
            {
                "type": "note_on",
                "note": 58,
                "velocity": 53,
                "time": 22
            },
            {
                "type": "note_on",
                "note": 58,
                "velocity": 0,
                "time": 270
            },
            {
                "type": "note_on",
                "note": 60,
                "velocity": 62,
                "time": 66
            },
            {
                "type": "note_on",
                "note": 60,
                "velocity": 0,
                "time": 54
            },
            {
                "type": "note_on",
                "note": 60,
                "velocity": 66,
                "time": 42
            },
            {
                "type": "note_on",
                "note": 60,
                "velocity": 0,
                "time": 58
            },
            {
                "type": "note_on",
                "note": 60,
                "velocity": 69,
                "time": 38
            },
            {
                "type": "note_on",
                "note": 60,
                "velocity": 0,
                "time": 48
            },
            {
                "type": "note_on",
                "note": 60,
                "velocity": 75,
                "time": 48
            },
            {
                "type": "note_on",
                "note": 60,
                "velocity": 0,
                "time": 168
            },
            {
                "type": "note_on",
                "note": 60,
                "velocity": 70,
                "time": 24
            },
            {
                "type": "note_on",
                "note": 53,
                "velocity": 80,
                "time": 192
            },
            {
                "type": "note_on",
                "note": 60,
                "velocity": 0,
                "time": 12
            },
            {
                "type": "note_on",
                "note": 53,
                "velocity": 0,
                "time": 64
            },
            {
                "type": "note_on",
                "note": 53,
                "velocity": 63,
                "time": 20
            },
            {
                "type": "note_on",
                "note": 53,
                "velocity": 0,
                "time": 76
            },
            {
                "type": "note_on",
                "note": 58,
                "velocity": 59,
                "time": 20
            },
            {
                "type": "note_on",
                "note": 58,
                "velocity": 0,
                "time": 62
            },
            {
                "type": "note_on",
                "note": 58,
                "velocity": 75,
                "time": 34
            },
            {
                "type": "note_on",
                "note": 58,
                "velocity": 0,
                "time": 84
            },
            {
                "type": "note_on",
                "note": 60,
                "velocity": 67,
                "time": 12
            },
            {
                "type": "note_on",
                "note": 60,
                "velocity": 0,
                "time": 60
            },
            {
                "type": "note_on",
                "note": 58,
                "velocity": 66,
                "time": 36
            },
            {
                "type": "note_on",
                "note": 58,
                "velocity": 0,
                "time": 86
            },
            {
                "type": "note_on",
                "note": 57,
                "velocity": 76,
                "time": 10
            },
            {
                "type": "note_on",
                "note": 57,
                "velocity": 0,
                "time": 62
            },
            {
                "type": "note_on",
                "note": 53,
                "velocity": 67,
                "time": 34
            },
            {
                "type": "note_on",
                "note": 53,
                "velocity": 0,
                "time": 160
            },
            {
                "type": "note_on",
                "note": 55,
                "velocity": 65,
                "time": 128
            },
            {
                "type": "note_on",
                "note": 55,
                "velocity": 0,
                "time": 46
            },
            {
                "type": "note_on",
                "note": 55,
                "velocity": 62,
                "time": 50
            },
            {
                "type": "note_on",
                "note": 55,
                "velocity": 0,
                "time": 68
            },
            {
                "type": "note_on",
                "note": 55,
                "velocity": 72,
                "time": 28
            },
            {
                "type": "note_on",
                "note": 55,
                "velocity": 0,
                "time": 56
            },
            {
                "type": "note_on",
                "note": 55,
                "velocity": 78,
                "time": 40
            },
            {
                "type": "note_on",
                "note": 55,
                "velocity": 0,
                "time": 378
            },
            {
                "type": "note_on",
                "note": 55,
                "velocity": 70,
                "time": 6
            },
            {
                "type": "note_on",
                "note": 55,
                "velocity": 0,
                "time": 74
            },
            {
                "type": "note_on",
                "note": 56,
                "velocity": 71,
                "time": 22
            },
            {
                "type": "note_on",
                "note": 56,
                "velocity": 0,
                "time": 64
            },
            {
                "type": "note_on",
                "note": 56,
                "velocity": 69,
                "time": 32
            },
            {
                "type": "note_on",
                "note": 56,
                "velocity": 0,
                "time": 44
            },
            {
                "type": "note_on",
                "note": 56,
                "velocity": 69,
                "time": 52
            },
            {
                "type": "note_on",
                "note": 56,
                "velocity": 0,
                "time": 54
            },
            {
                "type": "note_on",
                "note": 56,
                "velocity": 79,
                "time": 42
            },
            {
                "type": "note_on",
                "note": 56,
                "velocity": 0,
                "time": 160
            },
            {
                "type": "note_on",
                "note": 56,
                "velocity": 75,
                "time": 32
            },
            {
                "type": "note_on",
                "note": 56,
                "velocity": 0,
                "time": 192
            },
            {
                "type": "note_on",
                "note": 58,
                "velocity": 67,
                "time": 0
            },
            {
                "type": "note_on",
                "note": 58,
                "velocity": 0,
                "time": 128
            },
            {
                "type": "note_on",
                "note": 63,
                "velocity": 78,
                "time": 640
            },
            {
                "type": "note_on",
                "note": 63,
                "velocity": 0,
                "time": 198
            },
            {
                "type": "note_on",
                "note": 57,
                "velocity": 82,
                "time": 14
            },
            {
                "type": "note_on",
                "note": 57,
                "velocity": 0,
                "time": 362
            },
            {
                "type": "note_on",
                "note": 55,
                "velocity": 79,
                "time": 88
            },
            {
                "type": "note_on",
                "note": 55,
                "velocity": 0,
                "time": 64
            },
            {
                "type": "note_on",
                "note": 56,
                "velocity": 80,
                "time": 26
            },
            {
                "type": "note_on",
                "note": 56,
                "velocity": 0,
                "time": 64
            },
            {
                "type": "note_on",
                "note": 58,
                "velocity": 72,
                "time": 24
            },
            {
                "type": "note_on",
                "note": 58,
                "velocity": 0,
                "time": 74
            },
            {
                "type": "note_on",
                "note": 55,
                "velocity": 85,
                "time": 1574
            },
            {
                "type": "note_on",
                "note": 55,
                "velocity": 0,
                "time": 250
            },
            {
                "type": "note_on",
                "note": 55,
                "velocity": 96,
                "time": 40
            },
            {
                "type": "note_on",
                "note": 55,
                "velocity": 0,
                "time": 70
            },
            {
                "type": "note_on",
                "note": 53,
                "velocity": 84,
                "time": 16
            },
            {
                "type": "note_on",
                "note": 53,
                "velocity": 0,
                "time": 176
            },
            {
                "type": "note_on",
                "note": 62,
                "velocity": 95,
                "time": 20
            },
            {
                "type": "note_on",
                "note": 62,
                "velocity": 0,
                "time": 178
            },
            {
                "type": "note_on",
                "note": 61,
                "velocity": 96,
                "time": 20
            },
            {
                "type": "note_on",
                "note": 61,
                "velocity": 0,
                "time": 64
            },
            {
                "type": "note_on",
                "note": 61,
                "velocity": 100,
                "time": 24
            },
            {
                "type": "note_on",
                "note": 61,
                "velocity": 0,
                "time": 62
            },
            {
                "type": "note_on",
                "note": 61,
                "velocity": 104,
                "time": 30
            },
            {
                "type": "note_on",
                "note": 61,
                "velocity": 0,
                "time": 66
            },
            {
                "type": "note_on",
                "note": 61,
                "velocity": 88,
                "time": 32
            },
            {
                "type": "note_on",
                "note": 61,
                "velocity": 0,
                "time": 86
            },
            {
                "type": "note_on",
                "note": 60,
                "velocity": 95,
                "time": 14
            },
            {
                "type": "note_on",
                "note": 60,
                "velocity": 0,
                "time": 182
            },
            {
                "type": "note_on",
                "note": 53,
                "velocity": 88,
                "time": 12
            },
            {
                "type": "note_on",
                "note": 53,
                "velocity": 0,
                "time": 82
            },
            {
                "type": "note_on",
                "note": 51,
                "velocity": 89,
                "time": 14
            },
            {
                "type": "note_on",
                "note": 51,
                "velocity": 0,
                "time": 84
            },
            {
                "type": "note_on",
                "note": 60,
                "velocity": 88,
                "time": 10
            },
            {
                "type": "note_on",
                "note": 60,
                "velocity": 0,
                "time": 576
            },
            {
                "type": "note_on",
                "note": 63,
                "velocity": 89,
                "time": 22096
            },
            {
                "type": "note_on",
                "note": 63,
                "velocity": 0,
                "time": 85
            },
            {
                "type": "note_on",
                "note": 60,
                "velocity": 104,
                "time": 3
            },
            {
                "type": "note_on",
                "note": 63,
                "velocity": 95,
                "time": 98
            },
            {
                "type": "note_on",
                "note": 60,
                "velocity": 0,
                "time": 4
            },
            {
                "type": "note_on",
                "note": 67,
                "velocity": 98,
                "time": 84
            },
            {
                "type": "note_on",
                "note": 63,
                "velocity": 0,
                "time": 12
            },
            {
                "type": "note_on",
                "note": 74,
                "velocity": 116,
                "time": 86
            },
            {
                "type": "note_on",
                "note": 67,
                "velocity": 0,
                "time": 2
            },
            {
                "type": "note_on",
                "note": 74,
                "velocity": 0,
                "time": 142
            },
            {
                "type": "note_on",
                "note": 72,
                "velocity": 99,
                "time": 46
            },
            {
                "type": "note_on",
                "note": 72,
                "velocity": 0,
                "time": 196
            },
            {
                "type": "note_on",
                "note": 51,
                "velocity": 110,
                "time": 186
            },
            {
                "type": "note_on",
                "note": 51,
                "velocity": 0,
                "time": 88
            },
            {
                "type": "note_on",
                "note": 50,
                "velocity": 94,
                "time": 8
            },
            {
                "type": "note_on",
                "note": 50,
                "velocity": 0,
                "time": 54
            },
            {
                "type": "note_on",
                "note": 55,
                "velocity": 119,
                "time": 44
            },
            {
                "type": "note_on",
                "note": 55,
                "velocity": 0,
                "time": 92
            },
            {
                "type": "note_on",
                "note": 53,
                "velocity": 94,
                "time": 8
            },
            {
                "type": "note_on",
                "note": 53,
                "velocity": 0,
                "time": 56
            },
            {
                "type": "note_on",
                "note": 60,
                "velocity": 112,
                "time": 42
            },
            {
                "type": "note_on",
                "note": 60,
                "velocity": 0,
                "time": 82
            },
            {
                "type": "note_on",
                "note": 58,
                "velocity": 92,
                "time": 4
            },
            {
                "type": "note_on",
                "note": 58,
                "velocity": 0,
                "time": 76
            },
            {
                "type": "note_on",
                "note": 63,
                "velocity": 104,
                "time": 22
            },
            {
                "type": "note_on",
                "note": 63,
                "velocity": 0,
                "time": 568
            },
            {
                "type": "note_on",
                "note": 62,
                "velocity": 105,
                "time": 18
            },
            {
                "type": "note_on",
                "note": 55,
                "velocity": 90,
                "time": 182
            },
            {
                "type": "note_on",
                "note": 62,
                "velocity": 0,
                "time": 4
            },
            {
                "type": "note_on",
                "note": 55,
                "velocity": 0,
                "time": 578
            },
            {
                "type": "note_on",
                "note": 73,
                "velocity": 125,
                "time": 14
            },
            {
                "type": "note_on",
                "note": 49,
                "velocity": 125,
                "time": 1
            },
            {
                "type": "note_on",
                "note": 56,
                "velocity": 126,
                "time": 1
            },
            {
                "type": "note_on",
                "note": 65,
                "velocity": 127,
                "time": 2
            },
            {
                "type": "note_on",
                "note": 73,
                "velocity": 0,
                "time": 40
            },
            {
                "type": "note_on",
                "note": 49,
                "velocity": 0,
                "time": 1
            },
            {
                "type": "note_on",
                "note": 56,
                "velocity": 0,
                "time": 1
            },
            {
                "type": "note_on",
                "note": 65,
                "velocity": 0,
                "time": 2
            },
            {
                "type": "note_on",
                "note": 65,
                "velocity": 127,
                "time": 34
            },
            {
                "type": "note_on",
                "note": 56,
                "velocity": 120,
                "time": 0
            },
            {
                "type": "note_on",
                "note": 49,
                "velocity": 126,
                "time": 3
            },
            {
                "type": "note_on",
                "note": 73,
                "velocity": 126,
                "time": 11
            },
            {
                "type": "note_on",
                "note": 65,
                "velocity": 0,
                "time": 38
            },
            {
                "type": "note_on",
                "note": 56,
                "velocity": 0,
                "time": 2
            },
            {
                "type": "note_on",
                "note": 49,
                "velocity": 0,
                "time": 1
            },
            {
                "type": "note_on",
                "note": 73,
                "velocity": 0,
                "time": 11
            },
            {
                "type": "note_on",
                "note": 63,
                "velocity": 127,
                "time": 28
            },
            {
                "type": "note_on",
                "note": 48,
                "velocity": 121,
                "time": 2
            },
            {
                "type": "note_on",
                "note": 56,
                "velocity": 117,
                "time": 0
            },
            {
                "type": "note_on",
                "note": 72,
                "velocity": 121,
                "time": 14
            },
            {
                "type": "note_on",
                "note": 63,
                "velocity": 0,
                "time": 44
            },
            {
                "type": "note_on",
                "note": 48,
                "velocity": 0,
                "time": 2
            },
            {
                "type": "note_on",
                "note": 56,
                "velocity": 0,
                "time": 2
            },
            {
                "type": "note_on",
                "note": 72,
                "velocity": 0,
                "time": 12
            },
            {
                "type": "note_on",
                "note": 56,
                "velocity": 121,
                "time": 16
            },
            {
                "type": "note_on",
                "note": 49,
                "velocity": 127,
                "time": 1
            },
            {
                "type": "note_on",
                "note": 65,
                "velocity": 127,
                "time": 1
            },
            {
                "type": "note_on",
                "note": 73,
                "velocity": 127,
                "time": 15
            },
            {
                "type": "note_on",
                "note": 49,
                "velocity": 0,
                "time": 44
            },
            {
                "type": "note_on",
                "note": 56,
                "velocity": 0,
                "time": 1
            },
            {
                "type": "note_on",
                "note": 65,
                "velocity": 0,
                "time": 2
            },
            {
                "type": "note_on",
                "note": 73,
                "velocity": 0,
                "time": 13
            },
            {
                "type": "note_on",
                "note": 60,
                "velocity": 122,
                "time": 29
            },
            {
                "type": "note_on",
                "note": 66,
                "velocity": 127,
                "time": 0
            },
            {
                "type": "note_on",
                "note": 48,
                "velocity": 122,
                "time": 1
            },
            {
                "type": "note_on",
                "note": 56,
                "velocity": 122,
                "time": 3
            },
            {
                "type": "note_on",
                "note": 72,
                "velocity": 127,
                "time": 10
            },
            {
                "type": "note_on",
                "note": 60,
                "velocity": 0,
                "time": 122
            },
            {
                "type": "note_on",
                "note": 48,
                "velocity": 0,
                "time": 1
            },
            {
                "type": "note_on",
                "note": 66,
                "velocity": 0,
                "time": 3
            },
            {
                "type": "note_on",
                "note": 56,
                "velocity": 0,
                "time": 0
            },
            {
                "type": "note_on",
                "note": 72,
                "velocity": 0,
                "time": 18
            },
            {
                "type": "note_on",
                "note": 60,
                "velocity": 120,
                "time": 28
            },
            {
                "type": "note_on",
                "note": 66,
                "velocity": 127,
                "time": 0
            },
            {
                "type": "note_on",
                "note": 72,
                "velocity": 127,
                "time": 1
            },
            {
                "type": "note_on",
                "note": 56,
                "velocity": 127,
                "time": 9
            },
            {
                "type": "note_on",
                "note": 66,
                "velocity": 0,
                "time": 124
            },
            {
                "type": "note_on",
                "note": 60,
                "velocity": 0,
                "time": 0
            },
            {
                "type": "note_on",
                "note": 72,
                "velocity": 0,
                "time": 7
            },
            {
                "type": "note_on",
                "note": 56,
                "velocity": 0,
                "time": 3
            },
            {
                "type": "note_on",
                "note": 60,
                "velocity": 127,
                "time": 54
            },
            {
                "type": "note_on",
                "note": 67,
                "velocity": 127,
                "time": 0
            },
            {
                "type": "note_on",
                "note": 55,
                "velocity": 127,
                "time": 6
            },
            {
                "type": "note_on",
                "note": 55,
                "velocity": 0,
                "time": 44
            },
            {
                "type": "note_on",
                "note": 67,
                "velocity": 0,
                "time": 6
            },
            {
                "type": "note_on",
                "note": 60,
                "velocity": 0,
                "time": 2
            },
            {
                "type": "note_on",
                "note": 60,
                "velocity": 127,
                "time": 32
            },
            {
                "type": "note_on",
                "note": 55,
                "velocity": 127,
                "time": 2
            },
            {
                "type": "note_on",
                "note": 67,
                "velocity": 127,
                "time": 0
            },
            {
                "type": "note_on",
                "note": 55,
                "velocity": 0,
                "time": 60
            },
            {
                "type": "note_on",
                "note": 67,
                "velocity": 0,
                "time": 2
            },
            {
                "type": "note_on",
                "note": 60,
                "velocity": 0,
                "time": 2
            },
            {
                "type": "note_on",
                "note": 67,
                "velocity": 127,
                "time": 30
            },
            {
                "type": "note_on",
                "note": 60,
                "velocity": 127,
                "time": 0
            },
            {
                "type": "note_on",
                "note": 55,
                "velocity": 127,
                "time": 10
            },
            {
                "type": "note_on",
                "note": 55,
                "velocity": 0,
                "time": 50
            },
            {
                "type": "note_on",
                "note": 60,
                "velocity": 0,
                "time": 10
            },
            {
                "type": "note_on",
                "note": 67,
                "velocity": 0,
                "time": 0
            },
            {
                "type": "note_on",
                "note": 55,
                "velocity": 127,
                "time": 26
            },
            {
                "type": "note_on",
                "note": 60,
                "velocity": 127,
                "time": 2
            },
            {
                "type": "note_on",
                "note": 67,
                "velocity": 127,
                "time": 0
            },
            {
                "type": "note_on",
                "note": 67,
                "velocity": 0,
                "time": 52
            },
            {
                "type": "note_on",
                "note": 60,
                "velocity": 0,
                "time": 2
            },
            {
                "type": "note_on",
                "note": 55,
                "velocity": 0,
                "time": 2
            },
            {
                "type": "note_on",
                "note": 52,
                "velocity": 127,
                "time": 42
            },
            {
                "type": "note_on",
                "note": 59,
                "velocity": 127,
                "time": 0
            },
            {
                "type": "note_on",
                "note": 64,
                "velocity": 127,
                "time": 4
            },
            {
                "type": "note_on",
                "note": 68,
                "velocity": 127,
                "time": 0
            },
            {
                "type": "note_on",
                "note": 68,
                "velocity": 0,
                "time": 106
            },
            {
                "type": "note_on",
                "note": 64,
                "velocity": 0,
                "time": 4
            },
            {
                "type": "note_on",
                "note": 59,
                "velocity": 0,
                "time": 24
            },
            {
                "type": "note_on",
                "note": 52,
                "velocity": 0,
                "time": 0
            },
            {
                "type": "note_on",
                "note": 52,
                "velocity": 127,
                "time": 46
            },
            {
                "type": "note_on",
                "note": 68,
                "velocity": 127,
                "time": 0
            },
            {
                "type": "note_on",
                "note": 59,
                "velocity": 127,
                "time": 0
            },
            {
                "type": "note_on",
                "note": 52,
                "velocity": 0,
                "time": 124
            },
            {
                "type": "note_on",
                "note": 59,
                "velocity": 0,
                "time": 12
            },
            {
                "type": "note_on",
                "note": 68,
                "velocity": 0,
                "time": 0
            },
            {
                "type": "note_on",
                "note": 69,
                "velocity": 127,
                "time": 64
            },
            {
                "type": "note_on",
                "note": 52,
                "velocity": 127,
                "time": 0
            },
            {
                "type": "note_on",
                "note": 64,
                "velocity": 127,
                "time": 0
            },
            {
                "type": "note_on",
                "note": 64,
                "velocity": 0,
                "time": 56
            },
            {
                "type": "note_on",
                "note": 69,
                "velocity": 0,
                "time": 0
            },
            {
                "type": "note_on",
                "note": 52,
                "velocity": 0,
                "time": 6
            },
            {
                "type": "note_on",
                "note": 58,
                "velocity": 118,
                "time": 88
            },
            {
                "type": "note_on",
                "note": 58,
                "velocity": 0,
                "time": 62
            },
            {
                "type": "note_on",
                "note": 70,
                "velocity": 127,
                "time": 28
            },
            {
                "type": "note_on",
                "note": 70,
                "velocity": 0,
                "time": 46
            },
            {
                "type": "note_on",
                "note": 70,
                "velocity": 127,
                "time": 48
            },
            {
                "type": "note_on",
                "note": 70,
                "velocity": 0,
                "time": 54
            },
            {
                "type": "note_on",
                "note": 70,
                "velocity": 127,
                "time": 46
            },
            {
                "type": "note_on",
                "note": 70,
                "velocity": 0,
                "time": 4
            },
            {
                "type": "note_on",
                "note": 72,
                "velocity": 124,
                "time": 768
            },
            {
                "type": "note_on",
                "note": 63,
                "velocity": 110,
                "time": 0
            },
            {
                "type": "note_on",
                "note": 51,
                "velocity": 97,
                "time": 10
            },
            {
                "type": "note_on",
                "note": 63,
                "velocity": 0,
                "time": 122
            },
            {
                "type": "note_on",
                "note": 51,
                "velocity": 0,
                "time": 6
            },
            {
                "type": "note_on",
                "note": 72,
                "velocity": 0,
                "time": 0
            },
            {
                "type": "note_on",
                "note": 51,
                "velocity": 106,
                "time": 36
            },
            {
                "type": "note_on",
                "note": 70,
                "velocity": 119,
                "time": 8
            },
            {
                "type": "note_on",
                "note": 63,
                "velocity": 117,
                "time": 2
            },
            {
                "type": "note_on",
                "note": 63,
                "velocity": 0,
                "time": 58
            },
            {
                "type": "note_on",
                "note": 70,
                "velocity": 0,
                "time": 4
            },
            {
                "type": "note_on",
                "note": 51,
                "velocity": 0,
                "time": 4
            },
            {
                "type": "note_on",
                "note": 51,
                "velocity": 100,
                "time": 30
            },
            {
                "type": "note_on",
                "note": 70,
                "velocity": 122,
                "time": 4
            },
            {
                "type": "note_on",
                "note": 63,
                "velocity": 123,
                "time": 2
            },
            {
                "type": "note_on",
                "note": 63,
                "velocity": 0,
                "time": 50
            },
            {
                "type": "note_on",
                "note": 70,
                "velocity": 0,
                "time": 4
            },
            {
                "type": "note_on",
                "note": 51,
                "velocity": 0,
                "time": 4
            },
            {
                "type": "note_on",
                "note": 51,
                "velocity": 104,
                "time": 36
            },
            {
                "type": "note_on",
                "note": 69,
                "velocity": 127,
                "time": 2
            },
            {
                "type": "note_on",
                "note": 63,
                "velocity": 107,
                "time": 0
            },
            {
                "type": "note_on",
                "note": 51,
                "velocity": 0,
                "time": 132
            },
            {
                "type": "note_on",
                "note": 63,
                "velocity": 0,
                "time": 2
            },
            {
                "type": "note_on",
                "note": 69,
                "velocity": 0,
                "time": 6
            },
            {
                "type": "note_on",
                "note": 51,
                "velocity": 97,
                "time": 44
            },
            {
                "type": "note_on",
                "note": 70,
                "velocity": 115,
                "time": 6
            },
            {
                "type": "note_on",
                "note": 63,
                "velocity": 119,
                "time": 2
            },
            {
                "type": "note_on",
                "note": 63,
                "velocity": 0,
                "time": 128
            },
            {
                "type": "note_on",
                "note": 70,
                "velocity": 0,
                "time": 2
            },
            {
                "type": "note_on",
                "note": 51,
                "velocity": 0,
                "time": 4
            },
            {
                "type": "note_on",
                "note": 51,
                "velocity": 101,
                "time": 58
            },
            {
                "type": "note_on",
                "note": 63,
                "velocity": 117,
                "time": 4
            },
            {
                "type": "note_on",
                "note": 72,
                "velocity": 125,
                "time": 0
            },
            {
                "type": "note_on",
                "note": 63,
                "velocity": 0,
                "time": 48
            },
            {
                "type": "note_on",
                "note": 72,
                "velocity": 0,
                "time": 2
            },
            {
                "type": "note_on",
                "note": 51,
                "velocity": 0,
                "time": 2
            },
            {
                "type": "note_on",
                "note": 51,
                "velocity": 109,
                "time": 28
            },
            {
                "type": "note_on",
                "note": 72,
                "velocity": 127,
                "time": 0
            },
            {
                "type": "note_on",
                "note": 63,
                "velocity": 120,
                "time": 0
            },
            {
                "type": "note_on",
                "note": 72,
                "velocity": 0,
                "time": 56
            },
            {
                "type": "note_on",
                "note": 63,
                "velocity": 0,
                "time": 2
            },
            {
                "type": "note_on",
                "note": 51,
                "velocity": 0,
                "time": 6
            },
            {
                "type": "note_on",
                "note": 63,
                "velocity": 116,
                "time": 30
            },
            {
                "type": "note_on",
                "note": 70,
                "velocity": 126,
                "time": 0
            },
            {
                "type": "note_on",
                "note": 51,
                "velocity": 99,
                "time": 2
            },
            {
                "type": "note_on",
                "note": 63,
                "velocity": 0,
                "time": 138
            },
            {
                "type": "note_on",
                "note": 70,
                "velocity": 0,
                "time": 4
            },
            {
                "type": "note_on",
                "note": 51,
                "velocity": 0,
                "time": 24
            },
            {
                "type": "note_on",
                "note": 63,
                "velocity": 115,
                "time": 38
            },
            {
                "type": "note_on",
                "note": 69,
                "velocity": 127,
                "time": 0
            },
            {
                "type": "note_on",
                "note": 51,
                "velocity": 97,
                "time": 2
            },
            {
                "type": "note_on",
                "note": 69,
                "velocity": 0,
                "time": 52
            },
            {
                "type": "note_on",
                "note": 63,
                "velocity": 0,
                "time": 0
            },
            {
                "type": "note_on",
                "note": 51,
                "velocity": 0,
                "time": 6
            },
            {
                "type": "note_on",
                "note": 51,
                "velocity": 104,
                "time": 24
            },
            {
                "type": "note_on",
                "note": 63,
                "velocity": 110,
                "time": 2
            },
            {
                "type": "note_on",
                "note": 69,
                "velocity": 127,
                "time": 0
            },
            {
                "type": "note_on",
                "note": 63,
                "velocity": 0,
                "time": 58
            },
            {
                "type": "note_on",
                "note": 51,
                "velocity": 0,
                "time": 4
            },
            {
                "type": "note_on",
                "note": 69,
                "velocity": 0,
                "time": 4
            },
            {
                "type": "note_on",
                "note": 51,
                "velocity": 104,
                "time": 30
            },
            {
                "type": "note_on",
                "note": 70,
                "velocity": 121,
                "time": 4
            },
            {
                "type": "note_on",
                "note": 63,
                "velocity": 127,
                "time": 2
            },
            {
                "type": "note_on",
                "note": 63,
                "velocity": 0,
                "time": 132
            },
            {
                "type": "note_on",
                "note": 70,
                "velocity": 0,
                "time": 2
            },
            {
                "type": "note_on",
                "note": 51,
                "velocity": 0,
                "time": 0
            },
            {
                "type": "note_on",
                "note": 51,
                "velocity": 122,
                "time": 62
            },
            {
                "type": "note_on",
                "note": 60,
                "velocity": 126,
                "time": 6
            },
            {
                "type": "note_on",
                "note": 68,
                "velocity": 127,
                "time": 0
            },
            {
                "type": "note_on",
                "note": 68,
                "velocity": 0,
                "time": 112
            },
            {
                "type": "note_on",
                "note": 60,
                "velocity": 0,
                "time": 2
            },
            {
                "type": "note_on",
                "note": 51,
                "velocity": 0,
                "time": 28
            },
            {
                "type": "note_on",
                "note": 68,
                "velocity": 127,
                "time": 22
            },
            {
                "type": "note_on",
                "note": 60,
                "velocity": 127,
                "time": 0
            },
            {
                "type": "note_on",
                "note": 51,
                "velocity": 108,
                "time": 2
            },
            {
                "type": "note_on",
                "note": 60,
                "velocity": 0,
                "time": 70
            },
            {
                "type": "note_on",
                "note": 51,
                "velocity": 0,
                "time": 6
            },
            {
                "type": "note_on",
                "note": 68,
                "velocity": 0,
                "time": 0
            },
            {
                "type": "note_on",
                "note": 51,
                "velocity": 111,
                "time": 26
            },
            {
                "type": "note_on",
                "note": 62,
                "velocity": 124,
                "time": 6
            },
            {
                "type": "note_on",
                "note": 70,
                "velocity": 127,
                "time": 2
            },
            {
                "type": "note_on",
                "note": 70,
                "velocity": 0,
                "time": 62
            },
            {
                "type": "note_on",
                "note": 51,
                "velocity": 0,
                "time": 2
            },
            {
                "type": "note_on",
                "note": 62,
                "velocity": 0,
                "time": 2
            },
            {
                "type": "note_on",
                "note": 51,
                "velocity": 127,
                "time": 28
            },
            {
                "type": "note_on",
                "note": 58,
                "velocity": 127,
                "time": 6
            },
            {
                "type": "note_on",
                "note": 67,
                "velocity": 124,
                "time": 0
            },
            {
                "type": "note_on",
                "note": 67,
                "velocity": 0,
                "time": 150
            },
            {
                "type": "note_on",
                "note": 58,
                "velocity": 0,
                "time": 0
            },
            {
                "type": "note_on",
                "note": 51,
                "velocity": 0,
                "time": 2
            },
            {
                "type": "note_on",
                "note": 67,
                "velocity": 116,
                "time": 42
            },
            {
                "type": "note_on",
                "note": 51,
                "velocity": 119,
                "time": 2
            },
            {
                "type": "note_on",
                "note": 58,
                "velocity": 127,
                "time": 0
            },
            {
                "type": "note_on",
                "note": 51,
                "velocity": 0,
                "time": 48
            },
            {
                "type": "note_on",
                "note": 67,
                "velocity": 0,
                "time": 4
            },
            {
                "type": "note_on",
                "note": 58,
                "velocity": 0,
                "time": 2
            },
            {
                "type": "note_on",
                "note": 67,
                "velocity": 124,
                "time": 30
            },
            {
                "type": "note_on",
                "note": 58,
                "velocity": 127,
                "time": 2
            },
            {
                "type": "note_on",
                "note": 53,
                "velocity": 123,
                "time": 0
            },
            {
                "type": "note_on",
                "note": 58,
                "velocity": 0,
                "time": 44
            },
            {
                "type": "note_on",
                "note": 67,
                "velocity": 0,
                "time": 4
            },
            {
                "type": "note_on",
                "note": 53,
                "velocity": 0,
                "time": 4
            },
            {
                "type": "note_on",
                "note": 51,
                "velocity": 113,
                "time": 39
            },
            {
                "type": "note_on",
                "note": 60,
                "velocity": 126,
                "time": 3
            },
            {
                "type": "note_on",
                "note": 65,
                "velocity": 127,
                "time": 2
            },
            {
                "type": "note_on",
                "note": 50,
                "velocity": 111,
                "time": 106
            },
            {
                "type": "note_on",
                "note": 51,
                "velocity": 0,
                "time": 33
            },
            {
                "type": "note_on",
                "note": 60,
                "velocity": 0,
                "time": 3
            },
            {
                "type": "note_on",
                "note": 65,
                "velocity": 0,
                "time": 6
            },
            {
                "type": "note_on",
                "note": 50,
                "velocity": 0,
                "time": 20
            },
            {
                "type": "note_on",
                "note": 48,
                "velocity": 111,
                "time": 22
            },
            {
                "type": "note_on",
                "note": 60,
                "velocity": 127,
                "time": 2
            },
            {
                "type": "note_on",
                "note": 65,
                "velocity": 127,
                "time": 0
            },
            {
                "type": "note_on",
                "note": 60,
                "velocity": 0,
                "time": 56
            },
            {
                "type": "note_on",
                "note": 65,
                "velocity": 0,
                "time": 2
            },
            {
                "type": "note_on",
                "note": 48,
                "velocity": 0,
                "time": 2
            },
            {
                "type": "note_on",
                "note": 65,
                "velocity": 127,
                "time": 34
            },
            {
                "type": "note_on",
                "note": 60,
                "velocity": 124,
                "time": 0
            },
            {
                "type": "note_on",
                "note": 48,
                "velocity": 113,
                "time": 4
            },
            {
                "type": "note_on",
                "note": 48,
                "velocity": 0,
                "time": 52
            },
            {
                "type": "note_on",
                "note": 60,
                "velocity": 0,
                "time": 6
            },
            {
                "type": "note_on",
                "note": 65,
                "velocity": 0,
                "time": 4
            },
            {
                "type": "note_on",
                "note": 53,
                "velocity": 123,
                "time": 34
            },
            {
                "type": "note_on",
                "note": 58,
                "velocity": 110,
                "time": 0
            },
            {
                "type": "note_on",
                "note": 46,
                "velocity": 110,
                "time": 0
            },
            {
                "type": "note_on",
                "note": 62,
                "velocity": 127,
                "time": 2
            },
            {
                "type": "note_on",
                "note": 65,
                "velocity": 127,
                "time": 0
            },
            {
                "type": "note_on",
                "note": 46,
                "velocity": 0,
                "time": 92
            },
            {
                "type": "note_on",
                "note": 58,
                "velocity": 0,
                "time": 0
            },
            {
                "type": "note_on",
                "note": 62,
                "velocity": 0,
                "time": 12
            },
            {
                "type": "note_on",
                "note": 65,
                "velocity": 0,
                "time": 2
            },
            {
                "type": "note_on",
                "note": 53,
                "velocity": 0,
                "time": 0
            },
            {
                "type": "note_on",
                "note": 75,
                "velocity": 104,
                "time": 2966
            },
            {
                "type": "note_on",
                "note": 70,
                "velocity": 99,
                "time": 0
            },
            {
                "type": "note_on",
                "note": 67,
                "velocity": 112,
                "time": 2
            },
            {
                "type": "note_on",
                "note": 75,
                "velocity": 0,
                "time": 220
            },
            {
                "type": "note_on",
                "note": 67,
                "velocity": 0,
                "time": 12
            },
            {
                "type": "note_on",
                "note": 70,
                "velocity": 0,
                "time": 0
            },
            {
                "type": "note_on",
                "note": 62,
                "velocity": 100,
                "time": 72
            },
            {
                "type": "note_on",
                "note": 65,
                "velocity": 101,
                "time": 2
            },
            {
                "type": "note_on",
                "note": 65,
                "velocity": 0,
                "time": 44
            },
            {
                "type": "note_on",
                "note": 62,
                "velocity": 0,
                "time": 10
            },
            {
                "type": "note_on",
                "note": 62,
                "velocity": 108,
                "time": 28
            },
            {
                "type": "note_on",
                "note": 65,
                "velocity": 108,
                "time": 2
            },
            {
                "type": "note_on",
                "note": 62,
                "velocity": 0,
                "time": 50
            },
            {
                "type": "note_on",
                "note": 65,
                "velocity": 0,
                "time": 10
            },
            {
                "type": "note_on",
                "note": 67,
                "velocity": 120,
                "time": 26
            },
            {
                "type": "note_on",
                "note": 63,
                "velocity": 99,
                "time": 0
            },
            {
                "type": "note_on",
                "note": 63,
                "velocity": 0,
                "time": 48
            },
            {
                "type": "note_on",
                "note": 67,
                "velocity": 0,
                "time": 14
            },
            {
                "type": "note_on",
                "note": 68,
                "velocity": 101,
                "time": 30
            },
            {
                "type": "note_on",
                "note": 65,
                "velocity": 100,
                "time": 2
            },
            {
                "type": "note_on",
                "note": 68,
                "velocity": 0,
                "time": 52
            },
            {
                "type": "note_on",
                "note": 65,
                "velocity": 0,
                "time": 16
            },
            {
                "type": "note_on",
                "note": 67,
                "velocity": 110,
                "time": 28
            },
            {
                "type": "note_on",
                "note": 63,
                "velocity": 105,
                "time": 0
            },
            {
                "type": "note_on",
                "note": 63,
                "velocity": 0,
                "time": 70
            },
            {
                "type": "note_on",
                "note": 67,
                "velocity": 0,
                "time": 4
            },
            {
                "type": "note_on",
                "note": 65,
                "velocity": 106,
                "time": 36
            },
            {
                "type": "note_on",
                "note": 62,
                "velocity": 110,
                "time": 0
            },
            {
                "type": "note_on",
                "note": 62,
                "velocity": 0,
                "time": 76
            },
            {
                "type": "note_on",
                "note": 65,
                "velocity": 0,
                "time": 0
            },
            {
                "type": "note_on",
                "note": 58,
                "velocity": 86,
                "time": 972
            },
            {
                "type": "note_on",
                "note": 62,
                "velocity": 107,
                "time": 0
            },
            {
                "type": "note_on",
                "note": 65,
                "velocity": 100,
                "time": 2
            },
            {
                "type": "note_on",
                "note": 65,
                "velocity": 0,
                "time": 50
            },
            {
                "type": "note_on",
                "note": 58,
                "velocity": 0,
                "time": 0
            },
            {
                "type": "note_on",
                "note": 62,
                "velocity": 0,
                "time": 6
            },
            {
                "type": "note_on",
                "note": 62,
                "velocity": 114,
                "time": 34
            },
            {
                "type": "note_on",
                "note": 58,
                "velocity": 92,
                "time": 0
            },
            {
                "type": "note_on",
                "note": 65,
                "velocity": 115,
                "time": 2
            },
            {
                "type": "note_on",
                "note": 62,
                "velocity": 0,
                "time": 56
            },
            {
                "type": "note_on",
                "note": 58,
                "velocity": 0,
                "time": 6
            },
            {
                "type": "note_on",
                "note": 65,
                "velocity": 0,
                "time": 4
            },
            {
                "type": "note_on",
                "note": 67,
                "velocity": 118,
                "time": 24
            },
            {
                "type": "note_on",
                "note": 58,
                "velocity": 97,
                "time": 2
            },
            {
                "type": "note_on",
                "note": 63,
                "velocity": 105,
                "time": 0
            },
            {
                "type": "note_on",
                "note": 63,
                "velocity": 0,
                "time": 42
            },
            {
                "type": "note_on",
                "note": 58,
                "velocity": 0,
                "time": 2
            },
            {
                "type": "note_on",
                "note": 67,
                "velocity": 0,
                "time": 12
            },
            {
                "type": "note_on",
                "note": 58,
                "velocity": 93,
                "time": 36
            },
            {
                "type": "note_on",
                "note": 65,
                "velocity": 106,
                "time": 2
            },
            {
                "type": "note_on",
                "note": 68,
                "velocity": 111,
                "time": 0
            },
            {
                "type": "note_on",
                "note": 68,
                "velocity": 0,
                "time": 56
            },
            {
                "type": "note_on",
                "note": 58,
                "velocity": 0,
                "time": 4
            },
            {
                "type": "note_on",
                "note": 65,
                "velocity": 0,
                "time": 8
            },
            {
                "type": "note_on",
                "note": 58,
                "velocity": 87,
                "time": 28
            },
            {
                "type": "note_on",
                "note": 67,
                "velocity": 110,
                "time": 0
            },
            {
                "type": "note_on",
                "note": 63,
                "velocity": 109,
                "time": 0
            },
            {
                "type": "note_on",
                "note": 63,
                "velocity": 0,
                "time": 64
            },
            {
                "type": "note_on",
                "note": 58,
                "velocity": 0,
                "time": 2
            },
            {
                "type": "note_on",
                "note": 67,
                "velocity": 0,
                "time": 4
            },
            {
                "type": "note_on",
                "note": 58,
                "velocity": 82,
                "time": 36
            },
            {
                "type": "note_on",
                "note": 65,
                "velocity": 105,
                "time": 2
            },
            {
                "type": "note_on",
                "note": 62,
                "velocity": 110,
                "time": 0
            },
            {
                "type": "note_on",
                "note": 58,
                "velocity": 0,
                "time": 90
            },
            {
                "type": "note_on",
                "note": 62,
                "velocity": 0,
                "time": 6
            },
            {
                "type": "note_on",
                "note": 65,
                "velocity": 0,
                "time": 0
            },
            {
                "type": "note_on",
                "note": 58,
                "velocity": 94,
                "time": 948
            },
            {
                "type": "note_on",
                "note": 62,
                "velocity": 112,
                "time": 0
            },
            {
                "type": "note_on",
                "note": 65,
                "velocity": 110,
                "time": 2
            },
            {
                "type": "note_on",
                "note": 58,
                "velocity": 0,
                "time": 44
            },
            {
                "type": "note_on",
                "note": 65,
                "velocity": 0,
                "time": 4
            },
            {
                "type": "note_on",
                "note": 62,
                "velocity": 0,
                "time": 2
            },
            {
                "type": "note_on",
                "note": 62,
                "velocity": 111,
                "time": 44
            },
            {
                "type": "note_on",
                "note": 58,
                "velocity": 93,
                "time": 0
            },
            {
                "type": "note_on",
                "note": 65,
                "velocity": 111,
                "time": 0
            },
            {
                "type": "note_on",
                "note": 62,
                "velocity": 0,
                "time": 52
            },
            {
                "type": "note_on",
                "note": 58,
                "velocity": 0,
                "time": 18
            },
            {
                "type": "note_on",
                "note": 65,
                "velocity": 0,
                "time": 6
            },
            {
                "type": "note_on",
                "note": 58,
                "velocity": 92,
                "time": 20
            },
            {
                "type": "note_on",
                "note": 67,
                "velocity": 120,
                "time": 0
            },
            {
                "type": "note_on",
                "note": 63,
                "velocity": 101,
                "time": 2
            },
            {
                "type": "note_on",
                "note": 63,
                "velocity": 0,
                "time": 52
            },
            {
                "type": "note_on",
                "note": 58,
                "velocity": 0,
                "time": 0
            },
            {
                "type": "note_on",
                "note": 67,
                "velocity": 0,
                "time": 14
            },
            {
                "type": "note_on",
                "note": 58,
                "velocity": 77,
                "time": 26
            },
            {
                "type": "note_on",
                "note": 68,
                "velocity": 101,
                "time": 2
            },
            {
                "type": "note_on",
                "note": 65,
                "velocity": 105,
                "time": 0
            },
            {
                "type": "note_on",
                "note": 68,
                "velocity": 0,
                "time": 60
            },
            {
                "type": "note_on",
                "note": 65,
                "velocity": 0,
                "time": 10
            },
            {
                "type": "note_on",
                "note": 58,
                "velocity": 0,
                "time": 0
            },
            {
                "type": "note_on",
                "note": 63,
                "velocity": 105,
                "time": 24
            },
            {
                "type": "note_on",
                "note": 58,
                "velocity": 87,
                "time": 0
            },
            {
                "type": "note_on",
                "note": 67,
                "velocity": 114,
                "time": 2
            },
            {
                "type": "note_on",
                "note": 67,
                "velocity": 0,
                "time": 66
            },
            {
                "type": "note_on",
                "note": 58,
                "velocity": 0,
                "time": 0
            },
            {
                "type": "note_on",
                "note": 63,
                "velocity": 0,
                "time": 0
            },
            {
                "type": "note_on",
                "note": 65,
                "velocity": 111,
                "time": 38
            },
            {
                "type": "note_on",
                "note": 62,
                "velocity": 112,
                "time": 2
            },
            {
                "type": "note_on",
                "note": 58,
                "velocity": 97,
                "time": 2
            },
            {
                "type": "note_on",
                "note": 58,
                "velocity": 0,
                "time": 24
            },
            {
                "type": "note_on",
                "note": 65,
                "velocity": 0,
                "time": 40
            },
            {
                "type": "note_on",
                "note": 62,
                "velocity": 0,
                "time": 2
            },
            {
                "type": "note_on",
                "note": 62,
                "velocity": 111,
                "time": 308
            },
            {
                "type": "note_on",
                "note": 65,
                "velocity": 112,
                "time": 2
            },
            {
                "type": "note_on",
                "note": 58,
                "velocity": 95,
                "time": 0
            },
            {
                "type": "note_on",
                "note": 62,
                "velocity": 0,
                "time": 48
            },
            {
                "type": "note_on",
                "note": 58,
                "velocity": 0,
                "time": 10
            },
            {
                "type": "note_on",
                "note": 65,
                "velocity": 0,
                "time": 10
            },
            {
                "type": "note_on",
                "note": 58,
                "velocity": 97,
                "time": 24
            },
            {
                "type": "note_on",
                "note": 67,
                "velocity": 120,
                "time": 0
            },
            {
                "type": "note_on",
                "note": 63,
                "velocity": 102,
                "time": 2
            },
            {
                "type": "note_on",
                "note": 63,
                "velocity": 0,
                "time": 46
            },
            {
                "type": "note_on",
                "note": 58,
                "velocity": 0,
                "time": 0
            },
            {
                "type": "note_on",
                "note": 67,
                "velocity": 0,
                "time": 16
            },
            {
                "type": "note_on",
                "note": 68,
                "velocity": 90,
                "time": 34
            },
            {
                "type": "note_on",
                "note": 58,
                "velocity": 93,
                "time": 2
            },
            {
                "type": "note_on",
                "note": 65,
                "velocity": 108,
                "time": 0
            },
            {
                "type": "note_on",
                "note": 58,
                "velocity": 0,
                "time": 62
            },
            {
                "type": "note_on",
                "note": 68,
                "velocity": 0,
                "time": 0
            },
            {
                "type": "note_on",
                "note": 65,
                "velocity": 0,
                "time": 4
            },
            {
                "type": "note_on",
                "note": 63,
                "velocity": 109,
                "time": 24
            },
            {
                "type": "note_on",
                "note": 67,
                "velocity": 108,
                "time": 0
            },
            {
                "type": "note_on",
                "note": 58,
                "velocity": 87,
                "time": 2
            },
            {
                "type": "note_on",
                "note": 63,
                "velocity": 0,
                "time": 60
            },
            {
                "type": "note_on",
                "note": 58,
                "velocity": 0,
                "time": 2
            },
            {
                "type": "note_on",
                "note": 67,
                "velocity": 0,
                "time": 0
            },
            {
                "type": "note_on",
                "note": 58,
                "velocity": 86,
                "time": 40
            },
            {
                "type": "note_on",
                "note": 65,
                "velocity": 112,
                "time": 0
            },
            {
                "type": "note_on",
                "note": 62,
                "velocity": 112,
                "time": 2
            },
            {
                "type": "note_on",
                "note": 65,
                "velocity": 0,
                "time": 68
            },
            {
                "type": "note_on",
                "note": 58,
                "velocity": 0,
                "time": 0
            },
            {
                "type": "note_on",
                "note": 62,
                "velocity": 0,
                "time": 4
            },
            {
                "type": "note_on",
                "note": 62,
                "velocity": 111,
                "time": 316
            },
            {
                "type": "note_on",
                "note": 65,
                "velocity": 114,
                "time": 0
            },
            {
                "type": "note_on",
                "note": 58,
                "velocity": 95,
                "time": 0
            },
            {
                "type": "note_on",
                "note": 62,
                "velocity": 0,
                "time": 44
            },
            {
                "type": "note_on",
                "note": 58,
                "velocity": 0,
                "time": 14
            },
            {
                "type": "note_on",
                "note": 65,
                "velocity": 0,
                "time": 4
            },
            {
                "type": "note_on",
                "note": 67,
                "velocity": 117,
                "time": 22
            },
            {
                "type": "note_on",
                "note": 58,
                "velocity": 94,
                "time": 2
            },
            {
                "type": "note_on",
                "note": 63,
                "velocity": 98,
                "time": 2
            },
            {
                "type": "note_on",
                "note": 58,
                "velocity": 0,
                "time": 44
            },
            {
                "type": "note_on",
                "note": 63,
                "velocity": 0,
                "time": 4
            },
            {
                "type": "note_on",
                "note": 67,
                "velocity": 0,
                "time": 18
            },
            {
                "type": "note_on",
                "note": 58,
                "velocity": 86,
                "time": 30
            },
            {
                "type": "note_on",
                "note": 68,
                "velocity": 93,
                "time": 0
            },
            {
                "type": "note_on",
                "note": 65,
                "velocity": 104,
                "time": 4
            },
            {
                "type": "note_on",
                "note": 68,
                "velocity": 0,
                "time": 42
            },
            {
                "type": "note_on",
                "note": 65,
                "velocity": 0,
                "time": 4
            },
            {
                "type": "note_on",
                "note": 58,
                "velocity": 0,
                "time": 2
            },
            {
                "type": "note_on",
                "note": 63,
                "velocity": 99,
                "time": 40
            },
            {
                "type": "note_on",
                "note": 67,
                "velocity": 106,
                "time": 0
            },
            {
                "type": "note_on",
                "note": 58,
                "velocity": 81,
                "time": 2
            },
            {
                "type": "note_on",
                "note": 63,
                "velocity": 0,
                "time": 54
            },
            {
                "type": "note_on",
                "note": 58,
                "velocity": 0,
                "time": 2
            },
            {
                "type": "note_on",
                "note": 67,
                "velocity": 0,
                "time": 6
            },
            {
                "type": "note_on",
                "note": 58,
                "velocity": 90,
                "time": 34
            },
            {
                "type": "note_on",
                "note": 65,
                "velocity": 108,
                "time": 2
            },
            {
                "type": "note_on",
                "note": 62,
                "velocity": 107,
                "time": 2
            },
            {
                "type": "note_on",
                "note": 58,
                "velocity": 0,
                "time": 80
            },
            {
                "type": "note_on",
                "note": 70,
                "velocity": 95,
                "time": 10
            },
            {
                "type": "note_on",
                "note": 62,
                "velocity": 0,
                "time": 70
            },
            {
                "type": "note_on",
                "note": 70,
                "velocity": 0,
                "time": 122
            },
            {
                "type": "note_on",
                "note": 65,
                "velocity": 0,
                "time": 4
            },
            {
                "type": "note_on",
                "note": 66,
                "velocity": 95,
                "time": 434
            },
            {
                "type": "note_on",
                "note": 66,
                "velocity": 0,
                "time": 2
            },
            {
                "type": "note_on",
                "note": 63,
                "velocity": 91,
                "time": 1326
            },
            {
                "type": "note_on",
                "note": 51,
                "velocity": 87,
                "time": 6
            },
            {
                "type": "note_on",
                "note": 63,
                "velocity": 0,
                "time": 56
            },
            {
                "type": "note_on",
                "note": 51,
                "velocity": 0,
                "time": 4
            },
            {
                "type": "note_on",
                "note": 63,
                "velocity": 101,
                "time": 32
            },
            {
                "type": "note_on",
                "note": 51,
                "velocity": 95,
                "time": 4
            },
            {
                "type": "note_on",
                "note": 63,
                "velocity": 0,
                "time": 52
            },
            {
                "type": "note_on",
                "note": 51,
                "velocity": 0,
                "time": 18
            },
            {
                "type": "note_on",
                "note": 56,
                "velocity": 113,
                "time": 38
            },
            {
                "type": "note_on",
                "note": 63,
                "velocity": 115,
                "time": 6
            },
            {
                "type": "note_on",
                "note": 51,
                "velocity": 101,
                "time": 90
            },
            {
                "type": "note_on",
                "note": 56,
                "velocity": 0,
                "time": 6
            },
            {
                "type": "note_on",
                "note": 63,
                "velocity": 0,
                "time": 56
            },
            {
                "type": "note_on",
                "note": 51,
                "velocity": 0,
                "time": 14
            },
            {
                "type": "note_on",
                "note": 56,
                "velocity": 115,
                "time": 4
            },
            {
                "type": "note_on",
                "note": 62,
                "velocity": 100,
                "time": 2
            },
            {
                "type": "note_on",
                "note": 62,
                "velocity": 0,
                "time": 54
            },
            {
                "type": "note_on",
                "note": 56,
                "velocity": 0,
                "time": 25
            },
            {
                "type": "note_on",
                "note": 58,
                "velocity": 103,
                "time": 11
            },
            {
                "type": "note_on",
                "note": 60,
                "velocity": 99,
                "time": 4
            },
            {
                "type": "note_on",
                "note": 60,
                "velocity": 0,
                "time": 54
            },
            {
                "type": "note_on",
                "note": 58,
                "velocity": 0,
                "time": 10
            },
            {
                "type": "note_on",
                "note": 53,
                "velocity": 104,
                "time": 40
            },
            {
                "type": "note_on",
                "note": 58,
                "velocity": 92,
                "time": 10
            },
            {
                "type": "note_on",
                "note": 58,
                "velocity": 0,
                "time": 82
            },
            {
                "type": "note_on",
                "note": 53,
                "velocity": 0,
                "time": 14
            },
            {
                "type": "note_on",
                "note": 70,
                "velocity": 117,
                "time": 88
            },
            {
                "type": "note_on",
                "note": 58,
                "velocity": 99,
                "time": 4
            },
            {
                "type": "note_on",
                "note": 70,
                "velocity": 0,
                "time": 176
            },
            {
                "type": "note_on",
                "note": 70,
                "velocity": 95,
                "time": 6
            },
            {
                "type": "note_on",
                "note": 67,
                "velocity": 100,
                "time": 2
            },
            {
                "type": "note_on",
                "note": 58,
                "velocity": 0,
                "time": 6
            },
            {
                "type": "note_on",
                "note": 70,
                "velocity": 0,
                "time": 250
            },
            {
                "type": "note_on",
                "note": 67,
                "velocity": 0,
                "time": 2
            },
            {
                "type": "note_on",
                "note": 70,
                "velocity": 101,
                "time": 34
            },
            {
                "type": "note_on",
                "note": 67,
                "velocity": 110,
                "time": 4
            },
            {
                "type": "note_on",
                "note": 67,
                "velocity": 0,
                "time": 44
            },
            {
                "type": "note_on",
                "note": 70,
                "velocity": 0,
                "time": 8
            },
            {
                "type": "note_on",
                "note": 63,
                "velocity": 93,
                "time": 32
            },
            {
                "type": "note_on",
                "note": 72,
                "velocity": 108,
                "time": 0
            },
            {
                "type": "note_on",
                "note": 63,
                "velocity": 0,
                "time": 130
            },
            {
                "type": "note_on",
                "note": 72,
                "velocity": 0,
                "time": 2
            },
            {
                "type": "note_on",
                "note": 72,
                "velocity": 108,
                "time": 66
            },
            {
                "type": "note_on",
                "note": 63,
                "velocity": 97,
                "time": 0
            },
            {
                "type": "note_on",
                "note": 63,
                "velocity": 0,
                "time": 70
            },
            {
                "type": "note_on",
                "note": 72,
                "velocity": 0,
                "time": 4
            },
            {
                "type": "note_on",
                "note": 63,
                "velocity": 104,
                "time": 22
            },
            {
                "type": "note_on",
                "note": 72,
                "velocity": 111,
                "time": 0
            },
            {
                "type": "note_on",
                "note": 72,
                "velocity": 0,
                "time": 54
            },
            {
                "type": "note_on",
                "note": 63,
                "velocity": 0,
                "time": 10
            },
            {
                "type": "note_on",
                "note": 48,
                "velocity": 94,
                "time": 28
            },
            {
                "type": "note_on",
                "note": 66,
                "velocity": 111,
                "time": 6
            },
            {
                "type": "note_on",
                "note": 72,
                "velocity": 117,
                "time": 1
            },
            {
                "type": "note_on",
                "note": 66,
                "velocity": 0,
                "time": 73
            },
            {
                "type": "note_on",
                "note": 72,
                "velocity": 0,
                "time": 9
            },
            {
                "type": "note_on",
                "note": 48,
                "velocity": 0,
                "time": 1
            },
            {
                "type": "note_on",
                "note": 66,
                "velocity": 97,
                "time": 10
            },
            {
                "type": "note_on",
                "note": 48,
                "velocity": 97,
                "time": 0
            },
            {
                "type": "note_on",
                "note": 72,
                "velocity": 117,
                "time": 0
            },
            {
                "type": "note_on",
                "note": 72,
                "velocity": 0,
                "time": 74
            },
            {
                "type": "note_on",
                "note": 48,
                "velocity": 0,
                "time": 0
            },
            {
                "type": "note_on",
                "note": 66,
                "velocity": 0,
                "time": 0
            },
            {
                "type": "note_on",
                "note": 66,
                "velocity": 115,
                "time": 18
            },
            {
                "type": "note_on",
                "note": 48,
                "velocity": 115,
                "time": 0
            },
            {
                "type": "note_on",
                "note": 72,
                "velocity": 127,
                "time": 0
            },
            {
                "type": "note_on",
                "note": 72,
                "velocity": 0,
                "time": 70
            },
            {
                "type": "note_on",
                "note": 48,
                "velocity": 0,
                "time": 0
            },
            {
                "type": "note_on",
                "note": 66,
                "velocity": 0,
                "time": 0
            },
            {
                "type": "note_on",
                "note": 48,
                "velocity": 100,
                "time": 16
            },
            {
                "type": "note_on",
                "note": 72,
                "velocity": 114,
                "time": 10
            },
            {
                "type": "note_on",
                "note": 66,
                "velocity": 104,
                "time": 0
            },
            {
                "type": "note_on",
                "note": 66,
                "velocity": 0,
                "time": 58
            },
            {
                "type": "note_on",
                "note": 72,
                "velocity": 0,
                "time": 6
            },
            {
                "type": "note_on",
                "note": 48,
                "velocity": 0,
                "time": 14
            },
            {
                "type": "note_on",
                "note": 62,
                "velocity": 100,
                "time": 20
            },
            {
                "type": "note_on",
                "note": 50,
                "velocity": 100,
                "time": 0
            },
            {
                "type": "note_on",
                "note": 70,
                "velocity": 107,
                "time": 8
            },
            {
                "type": "note_on",
                "note": 50,
                "velocity": 0,
                "time": 144
            },
            {
                "type": "note_on",
                "note": 62,
                "velocity": 0,
                "time": 0
            },
            {
                "type": "note_on",
                "note": 70,
                "velocity": 0,
                "time": 2
            },
            {
                "type": "note_on",
                "note": 70,
                "velocity": 111,
                "time": 40
            },
            {
                "type": "note_on",
                "note": 50,
                "velocity": 110,
                "time": 4
            },
            {
                "type": "note_on",
                "note": 62,
                "velocity": 110,
                "time": 0
            },
            {
                "type": "note_on",
                "note": 70,
                "velocity": 0,
                "time": 120
            },
            {
                "type": "note_on",
                "note": 62,
                "velocity": 0,
                "time": 14
            },
            {
                "type": "note_on",
                "note": 50,
                "velocity": 0,
                "time": 0
            },
            {
                "type": "note_on",
                "note": 62,
                "velocity": 91,
                "time": 54
            },
            {
                "type": "note_on",
                "note": 65,
                "velocity": 82,
                "time": 6
            },
            {
                "type": "note_on",
                "note": 68,
                "velocity": 91,
                "time": 0
            },
            {
                "type": "note_on",
                "note": 62,
                "velocity": 0,
                "time": 473
            },
            {
                "type": "note_on",
                "note": 65,
                "velocity": 0,
                "time": 7
            },
            {
                "type": "note_on",
                "note": 68,
                "velocity": 0,
                "time": 2
            },
            {
                "type": "note_on",
                "note": 63,
                "velocity": 88,
                "time": 94
            },
            {
                "type": "note_on",
                "note": 67,
                "velocity": 90,
                "time": 1
            },
            {
                "type": "note_on",
                "note": 70,
                "velocity": 91,
                "time": 1
            },
            {
                "type": "note_on",
                "note": 67,
                "velocity": 0,
                "time": 119
            },
            {
                "type": "note_on",
                "note": 63,
                "velocity": 0,
                "time": 23
            },
            {
                "type": "note_on",
                "note": 70,
                "velocity": 0,
                "time": 8
            },
            {
                "type": "note_on",
                "note": 62,
                "velocity": 93,
                "time": 42
            },
            {
                "type": "note_on",
                "note": 65,
                "velocity": 88,
                "time": 6
            },
            {
                "type": "note_on",
                "note": 68,
                "velocity": 94,
                "time": 0
            },
            {
                "type": "note_on",
                "note": 62,
                "velocity": 0,
                "time": 476
            },
            {
                "type": "note_on",
                "note": 68,
                "velocity": 0,
                "time": 4
            },
            {
                "type": "note_on",
                "note": 65,
                "velocity": 0,
                "time": 1
            },
            {
                "type": "note_on",
                "note": 70,
                "velocity": 90,
                "time": 78
            },
            {
                "type": "note_on",
                "note": 67,
                "velocity": 94,
                "time": 2
            },
            {
                "type": "note_on",
                "note": 63,
                "velocity": 95,
                "time": 6
            },
            {
                "type": "note_on",
                "note": 67,
                "velocity": 0,
                "time": 114
            },
            {
                "type": "note_on",
                "note": 70,
                "velocity": 0,
                "time": 28
            },
            {
                "type": "note_on",
                "note": 63,
                "velocity": 0,
                "time": 2
            },
            {
                "type": "note_on",
                "note": 62,
                "velocity": 90,
                "time": 51
            },
            {
                "type": "note_on",
                "note": 68,
                "velocity": 127,
                "time": 6
            },
            {
                "type": "note_on",
                "note": 65,
                "velocity": 105,
                "time": 0
            },
            {
                "type": "note_on",
                "note": 62,
                "velocity": 0,
                "time": 1471
            },
            {
                "type": "note_on",
                "note": 65,
                "velocity": 0,
                "time": 5
            },
            {
                "type": "note_on",
                "note": 68,
                "velocity": 0,
                "time": 2
            },
            {
                "type": "note_on",
                "note": 63,
                "velocity": 87,
                "time": 768
            },
            {
                "type": "note_on",
                "note": 62,
                "velocity": 84,
                "time": 372
            },
            {
                "type": "note_on",
                "note": 63,
                "velocity": 0,
                "time": 4
            },
            {
                "type": "note_on",
                "note": 60,
                "velocity": 78,
                "time": 390
            },
            {
                "type": "note_on",
                "note": 62,
                "velocity": 0,
                "time": 2
            },
            {
                "type": "note_on",
                "note": 60,
                "velocity": 0,
                "time": 318
            },
            {
                "type": "note_on",
                "note": 55,
                "velocity": 105,
                "time": 64
            },
            {
                "type": "note_on",
                "note": 55,
                "velocity": 0,
                "time": 156
            },
            {
                "type": "note_on",
                "note": 55,
                "velocity": 102,
                "time": 46
            },
            {
                "type": "note_on",
                "note": 55,
                "velocity": 0,
                "time": 78
            },
            {
                "type": "note_on",
                "note": 55,
                "velocity": 91,
                "time": 92
            },
            {
                "type": "note_on",
                "note": 55,
                "velocity": 93,
                "time": 192
            },
            {
                "type": "note_on",
                "note": 55,
                "velocity": 0,
                "time": 6
            },
            {
                "type": "note_on",
                "note": 55,
                "velocity": 0,
                "time": 62
            }
        ]
    },
    {
        "track": 6,
        "notes": [
            {
                "type": "note_on",
                "note": 67,
                "velocity": 103,
                "time": 50478
            },
            {
                "type": "note_on",
                "note": 60,
                "velocity": 100,
                "time": 388
            },
            {
                "type": "note_on",
                "note": 60,
                "velocity": 0,
                "time": 2
            },
            {
                "type": "note_on",
                "note": 67,
                "velocity": 0,
                "time": 0
            },
            {
                "type": "note_on",
                "note": 70,
                "velocity": 93,
                "time": 84
            },
            {
                "type": "note_on",
                "note": 75,
                "velocity": 97,
                "time": 2
            },
            {
                "type": "note_on",
                "note": 67,
                "velocity": 100,
                "time": 2
            },
            {
                "type": "note_on",
                "note": 70,
                "velocity": 0,
                "time": 44
            },
            {
                "type": "note_on",
                "note": 75,
                "velocity": 0,
                "time": 2
            },
            {
                "type": "note_on",
                "note": 67,
                "velocity": 0,
                "time": 2
            },
            {
                "type": "note_on",
                "note": 75,
                "velocity": 101,
                "time": 46
            },
            {
                "type": "note_on",
                "note": 70,
                "velocity": 102,
                "time": 0
            },
            {
                "type": "note_on",
                "note": 67,
                "velocity": 97,
                "time": 2
            },
            {
                "type": "note_on",
                "note": 67,
                "velocity": 0,
                "time": 50
            },
            {
                "type": "note_on",
                "note": 75,
                "velocity": 0,
                "time": 0
            },
            {
                "type": "note_on",
                "note": 70,
                "velocity": 0,
                "time": 2
            },
            {
                "type": "note_on",
                "note": 70,
                "velocity": 124,
                "time": 46
            },
            {
                "type": "note_on",
                "note": 75,
                "velocity": 109,
                "time": 0
            },
            {
                "type": "note_on",
                "note": 67,
                "velocity": 106,
                "time": 2
            },
            {
                "type": "note_on",
                "note": 67,
                "velocity": 0,
                "time": 272
            },
            {
                "type": "note_on",
                "note": 70,
                "velocity": 0,
                "time": 6
            },
            {
                "type": "note_on",
                "note": 75,
                "velocity": 0,
                "time": 454
            },
            {
                "type": "note_on",
                "note": 70,
                "velocity": 104,
                "time": 606
            },
            {
                "type": "note_on",
                "note": 75,
                "velocity": 95,
                "time": 0
            },
            {
                "type": "note_on",
                "note": 67,
                "velocity": 106,
                "time": 4
            },
            {
                "type": "note_on",
                "note": 70,
                "velocity": 0,
                "time": 42
            },
            {
                "type": "note_on",
                "note": 67,
                "velocity": 0,
                "time": 2
            },
            {
                "type": "note_on",
                "note": 75,
                "velocity": 0,
                "time": 2
            },
            {
                "type": "note_on",
                "note": 75,
                "velocity": 102,
                "time": 52
            },
            {
                "type": "note_on",
                "note": 70,
                "velocity": 111,
                "time": 2
            },
            {
                "type": "note_on",
                "note": 67,
                "velocity": 99,
                "time": 2
            },
            {
                "type": "note_on",
                "note": 67,
                "velocity": 0,
                "time": 40
            },
            {
                "type": "note_on",
                "note": 70,
                "velocity": 0,
                "time": 2
            },
            {
                "type": "note_on",
                "note": 75,
                "velocity": 0,
                "time": 0
            },
            {
                "type": "note_on",
                "note": 70,
                "velocity": 127,
                "time": 52
            },
            {
                "type": "note_on",
                "note": 75,
                "velocity": 109,
                "time": 0
            },
            {
                "type": "note_on",
                "note": 67,
                "velocity": 110,
                "time": 2
            },
            {
                "type": "note_on",
                "note": 67,
                "velocity": 0,
                "time": 284
            },
            {
                "type": "note_on",
                "note": 70,
                "velocity": 0,
                "time": 2
            },
            {
                "type": "note_on",
                "note": 75,
                "velocity": 0,
                "time": 384
            },
            {
                "type": "note_on",
                "note": 75,
                "velocity": 113,
                "time": 662
            },
            {
                "type": "note_on",
                "note": 63,
                "velocity": 105,
                "time": 2
            },
            {
                "type": "note_on",
                "note": 63,
                "velocity": 0,
                "time": 38
            },
            {
                "type": "note_on",
                "note": 75,
                "velocity": 0,
                "time": 6
            },
            {
                "type": "note_on",
                "note": 75,
                "velocity": 115,
                "time": 42
            },
            {
                "type": "note_on",
                "note": 63,
                "velocity": 109,
                "time": 2
            },
            {
                "type": "note_on",
                "note": 63,
                "velocity": 0,
                "time": 64
            },
            {
                "type": "note_on",
                "note": 75,
                "velocity": 0,
                "time": 4
            },
            {
                "type": "note_on",
                "note": 75,
                "velocity": 119,
                "time": 34
            },
            {
                "type": "note_on",
                "note": 63,
                "velocity": 109,
                "time": 2
            },
            {
                "type": "note_on",
                "note": 63,
                "velocity": 0,
                "time": 82
            },
            {
                "type": "note_on",
                "note": 75,
                "velocity": 0,
                "time": 2
            },
            {
                "type": "note_on",
                "note": 75,
                "velocity": 119,
                "time": 486
            },
            {
                "type": "note_on",
                "note": 63,
                "velocity": 117,
                "time": 2
            },
            {
                "type": "note_on",
                "note": 63,
                "velocity": 0,
                "time": 46
            },
            {
                "type": "note_on",
                "note": 75,
                "velocity": 0,
                "time": 6
            },
            {
                "type": "note_on",
                "note": 75,
                "velocity": 119,
                "time": 42
            },
            {
                "type": "note_on",
                "note": 63,
                "velocity": 115,
                "time": 0
            },
            {
                "type": "note_on",
                "note": 63,
                "velocity": 0,
                "time": 58
            },
            {
                "type": "note_on",
                "note": 75,
                "velocity": 0,
                "time": 8
            },
            {
                "type": "note_on",
                "note": 75,
                "velocity": 124,
                "time": 38
            },
            {
                "type": "note_on",
                "note": 63,
                "velocity": 115,
                "time": 0
            },
            {
                "type": "note_on",
                "note": 75,
                "velocity": 0,
                "time": 72
            },
            {
                "type": "note_on",
                "note": 63,
                "velocity": 0,
                "time": 2
            },
            {
                "type": "note_on",
                "note": 64,
                "velocity": 110,
                "time": 1318
            },
            {
                "type": "note_on",
                "note": 61,
                "velocity": 82,
                "time": 130
            },
            {
                "type": "note_on",
                "note": 61,
                "velocity": 0,
                "time": 8
            },
            {
                "type": "note_on",
                "note": 64,
                "velocity": 0,
                "time": 2
            }
        ]
    },
    {
        "track": 7,
        "notes": [
            {
                "type": "note_on",
                "note": 70,
                "velocity": 53,
                "time": 639
            },
            {
                "type": "note_on",
                "note": 70,
                "velocity": 0,
                "time": 74
            },
            {
                "type": "note_on",
                "note": 70,
                "velocity": 68,
                "time": 22
            },
            {
                "type": "note_on",
                "note": 70,
                "velocity": 0,
                "time": 62
            },
            {
                "type": "note_on",
                "note": 70,
                "velocity": 78,
                "time": 28
            },
            {
                "type": "note_on",
                "note": 70,
                "velocity": 0,
                "time": 46
            },
            {
                "type": "note_on",
                "note": 70,
                "velocity": 71,
                "time": 50
            },
            {
                "type": "note_on",
                "note": 70,
                "velocity": 0,
                "time": 34
            },
            {
                "type": "note_on",
                "note": 70,
                "velocity": 72,
                "time": 20
            },
            {
                "type": "note_on",
                "note": 70,
                "velocity": 0,
                "time": 168
            },
            {
                "type": "note_on",
                "note": 70,
                "velocity": 58,
                "time": 120
            },
            {
                "type": "note_on",
                "note": 70,
                "velocity": 0,
                "time": 68
            },
            {
                "type": "note_on",
                "note": 70,
                "velocity": 77,
                "time": 28
            },
            {
                "type": "note_on",
                "note": 70,
                "velocity": 0,
                "time": 74
            },
            {
                "type": "note_on",
                "note": 70,
                "velocity": 71,
                "time": 22
            },
            {
                "type": "note_on",
                "note": 70,
                "velocity": 0,
                "time": 56
            },
            {
                "type": "note_on",
                "note": 70,
                "velocity": 86,
                "time": 40
            },
            {
                "type": "note_on",
                "note": 67,
                "velocity": 68,
                "time": 96
            },
            {
                "type": "note_on",
                "note": 70,
                "velocity": 0,
                "time": 8
            },
            {
                "type": "note_on",
                "note": 67,
                "velocity": 0,
                "time": 24
            },
            {
                "type": "note_on",
                "note": 67,
                "velocity": 70,
                "time": 16
            },
            {
                "type": "note_on",
                "note": 67,
                "velocity": 0,
                "time": 254
            },
            {
                "type": "note_on",
                "note": 69,
                "velocity": 69,
                "time": 82
            },
            {
                "type": "note_on",
                "note": 69,
                "velocity": 0,
                "time": 74
            },
            {
                "type": "note_on",
                "note": 69,
                "velocity": 75,
                "time": 22
            },
            {
                "type": "note_on",
                "note": 69,
                "velocity": 0,
                "time": 68
            },
            {
                "type": "note_on",
                "note": 69,
                "velocity": 84,
                "time": 28
            },
            {
                "type": "note_on",
                "note": 69,
                "velocity": 0,
                "time": 64
            },
            {
                "type": "note_on",
                "note": 70,
                "velocity": 80,
                "time": 32
            },
            {
                "type": "note_on",
                "note": 69,
                "velocity": 86,
                "time": 192
            },
            {
                "type": "note_on",
                "note": 70,
                "velocity": 0,
                "time": 14
            },
            {
                "type": "note_on",
                "note": 69,
                "velocity": 0,
                "time": 180
            },
            {
                "type": "note_on",
                "note": 70,
                "velocity": 83,
                "time": 190
            },
            {
                "type": "note_on",
                "note": 70,
                "velocity": 0,
                "time": 68
            },
            {
                "type": "note_on",
                "note": 70,
                "velocity": 82,
                "time": 28
            },
            {
                "type": "note_on",
                "note": 70,
                "velocity": 0,
                "time": 68
            },
            {
                "type": "note_on",
                "note": 70,
                "velocity": 78,
                "time": 28
            },
            {
                "type": "note_on",
                "note": 70,
                "velocity": 0,
                "time": 52
            },
            {
                "type": "note_on",
                "note": 70,
                "velocity": 90,
                "time": 44
            },
            {
                "type": "note_on",
                "note": 70,
                "velocity": 0,
                "time": 92
            },
            {
                "type": "note_on",
                "note": 65,
                "velocity": 85,
                "time": 4
            },
            {
                "type": "note_on",
                "note": 65,
                "velocity": 0,
                "time": 56
            },
            {
                "type": "note_on",
                "note": 65,
                "velocity": 76,
                "time": 40
            },
            {
                "type": "note_on",
                "note": 65,
                "velocity": 0,
                "time": 160
            },
            {
                "type": "note_on",
                "note": 65,
                "velocity": 77,
                "time": 128
            },
            {
                "type": "note_on",
                "note": 65,
                "velocity": 0,
                "time": 74
            },
            {
                "type": "note_on",
                "note": 65,
                "velocity": 69,
                "time": 22
            },
            {
                "type": "note_on",
                "note": 65,
                "velocity": 0,
                "time": 56
            },
            {
                "type": "note_on",
                "note": 65,
                "velocity": 81,
                "time": 40
            },
            {
                "type": "note_on",
                "note": 65,
                "velocity": 0,
                "time": 50
            },
            {
                "type": "note_on",
                "note": 65,
                "velocity": 80,
                "time": 46
            },
            {
                "type": "note_on",
                "note": 65,
                "velocity": 0,
                "time": 378
            },
            {
                "type": "note_on",
                "note": 65,
                "velocity": 77,
                "time": 6
            },
            {
                "type": "note_on",
                "note": 65,
                "velocity": 0,
                "time": 76
            },
            {
                "type": "note_on",
                "note": 65,
                "velocity": 88,
                "time": 20
            },
            {
                "type": "note_on",
                "note": 65,
                "velocity": 0,
                "time": 64
            },
            {
                "type": "note_on",
                "note": 65,
                "velocity": 78,
                "time": 32
            },
            {
                "type": "note_on",
                "note": 65,
                "velocity": 0,
                "time": 80
            },
            {
                "type": "note_on",
                "note": 65,
                "velocity": 87,
                "time": 16
            },
            {
                "type": "note_on",
                "note": 65,
                "velocity": 0,
                "time": 62
            },
            {
                "type": "note_on",
                "note": 65,
                "velocity": 90,
                "time": 34
            },
            {
                "type": "note_on",
                "note": 65,
                "velocity": 0,
                "time": 186
            },
            {
                "type": "note_on",
                "note": 65,
                "velocity": 76,
                "time": 6
            },
            {
                "type": "note_on",
                "note": 70,
                "velocity": 90,
                "time": 192
            },
            {
                "type": "note_on",
                "note": 65,
                "velocity": 0,
                "time": 38
            },
            {
                "type": "note_on",
                "note": 70,
                "velocity": 0,
                "time": 136
            },
            {
                "type": "note_on",
                "note": 70,
                "velocity": 82,
                "time": 634
            },
            {
                "type": "note_on",
                "note": 70,
                "velocity": 0,
                "time": 200
            },
            {
                "type": "note_on",
                "note": 63,
                "velocity": 92,
                "time": 0
            },
            {
                "type": "note_on",
                "note": 65,
                "velocity": 77,
                "time": 88
            },
            {
                "type": "note_on",
                "note": 63,
                "velocity": 0,
                "time": 16
            },
            {
                "type": "note_on",
                "note": 65,
                "velocity": 0,
                "time": 52
            },
            {
                "type": "note_on",
                "note": 65,
                "velocity": 85,
                "time": 22
            },
            {
                "type": "note_on",
                "note": 65,
                "velocity": 0,
                "time": 82
            },
            {
                "type": "note_on",
                "note": 67,
                "velocity": 84,
                "time": 12
            },
            {
                "type": "note_on",
                "note": 67,
                "velocity": 0,
                "time": 62
            },
            {
                "type": "note_on",
                "note": 63,
                "velocity": 100,
                "time": 1578
            },
            {
                "type": "note_on",
                "note": 63,
                "velocity": 0,
                "time": 258
            },
            {
                "type": "note_on",
                "note": 63,
                "velocity": 90,
                "time": 42
            },
            {
                "type": "note_on",
                "note": 63,
                "velocity": 0,
                "time": 74
            },
            {
                "type": "note_on",
                "note": 62,
                "velocity": 95,
                "time": 10
            },
            {
                "type": "note_on",
                "note": 62,
                "velocity": 0,
                "time": 188
            },
            {
                "type": "note_on",
                "note": 70,
                "velocity": 96,
                "time": 10
            },
            {
                "type": "note_on",
                "note": 70,
                "velocity": 0,
                "time": 158
            },
            {
                "type": "note_on",
                "note": 70,
                "velocity": 104,
                "time": 28
            },
            {
                "type": "note_on",
                "note": 70,
                "velocity": 0,
                "time": 76
            },
            {
                "type": "note_on",
                "note": 70,
                "velocity": 90,
                "time": 16
            },
            {
                "type": "note_on",
                "note": 70,
                "velocity": 0,
                "time": 66
            },
            {
                "type": "note_on",
                "note": 70,
                "velocity": 104,
                "time": 28
            },
            {
                "type": "note_on",
                "note": 70,
                "velocity": 0,
                "time": 66
            },
            {
                "type": "note_on",
                "note": 70,
                "velocity": 94,
                "time": 28
            },
            {
                "type": "note_on",
                "note": 70,
                "velocity": 0,
                "time": 72
            },
            {
                "type": "note_on",
                "note": 69,
                "velocity": 105,
                "time": 32
            },
            {
                "type": "note_on",
                "note": 69,
                "velocity": 0,
                "time": 174
            },
            {
                "type": "note_on",
                "note": 63,
                "velocity": 102,
                "time": 16
            },
            {
                "type": "note_on",
                "note": 63,
                "velocity": 0,
                "time": 88
            },
            {
                "type": "note_on",
                "note": 60,
                "velocity": 83,
                "time": 8
            },
            {
                "type": "note_on",
                "note": 60,
                "velocity": 0,
                "time": 88
            },
            {
                "type": "note_on",
                "note": 69,
                "velocity": 112,
                "time": 14
            },
            {
                "type": "note_on",
                "note": 69,
                "velocity": 0,
                "time": 512
            },
            {
                "type": "note_on",
                "note": 63,
                "velocity": 120,
                "time": 184
            },
            {
                "type": "note_on",
                "note": 63,
                "velocity": 0,
                "time": 94
            },
            {
                "type": "note_on",
                "note": 62,
                "velocity": 111,
                "time": 4
            },
            {
                "type": "note_on",
                "note": 62,
                "velocity": 0,
                "time": 42
            },
            {
                "type": "note_on",
                "note": 67,
                "velocity": 120,
                "time": 58
            },
            {
                "type": "note_on",
                "note": 67,
                "velocity": 0,
                "time": 98
            },
            {
                "type": "note_on",
                "note": 65,
                "velocity": 109,
                "time": 4
            },
            {
                "type": "note_on",
                "note": 65,
                "velocity": 0,
                "time": 46
            },
            {
                "type": "note_on",
                "note": 72,
                "velocity": 122,
                "time": 44
            },
            {
                "type": "note_on",
                "note": 72,
                "velocity": 0,
                "time": 88
            },
            {
                "type": "note_on",
                "note": 70,
                "velocity": 106,
                "time": 4
            },
            {
                "type": "note_on",
                "note": 70,
                "velocity": 0,
                "time": 52
            },
            {
                "type": "note_on",
                "note": 75,
                "velocity": 104,
                "time": 44
            },
            {
                "type": "note_on",
                "note": 75,
                "velocity": 0,
                "time": 568
            },
            {
                "type": "note_on",
                "note": 70,
                "velocity": 112,
                "time": 6
            },
            {
                "type": "note_on",
                "note": 63,
                "velocity": 103,
                "time": 194
            },
            {
                "type": "note_on",
                "note": 70,
                "velocity": 0,
                "time": 8
            },
            {
                "type": "note_on",
                "note": 63,
                "velocity": 0,
                "time": 592
            },
            {
                "type": "note_on",
                "note": 63,
                "velocity": 99,
                "time": 286
            },
            {
                "type": "note_on",
                "note": 58,
                "velocity": 99,
                "time": 288
            },
            {
                "type": "note_on",
                "note": 58,
                "velocity": 0,
                "time": 12
            },
            {
                "type": "note_on",
                "note": 63,
                "velocity": 0,
                "time": 0
            },
            {
                "type": "note_on",
                "note": 46,
                "velocity": 121,
                "time": 568
            },
            {
                "type": "note_on",
                "note": 46,
                "velocity": 0,
                "time": 90
            },
            {
                "type": "note_on",
                "note": 51,
                "velocity": 127,
                "time": 106
            },
            {
                "type": "note_on",
                "note": 51,
                "velocity": 0,
                "time": 80
            },
            {
                "type": "note_on",
                "note": 46,
                "velocity": 121,
                "time": 102
            },
            {
                "type": "note_on",
                "note": 46,
                "velocity": 0,
                "time": 102
            },
            {
                "type": "note_on",
                "note": 46,
                "velocity": 117,
                "time": 1446
            },
            {
                "type": "note_on",
                "note": 46,
                "velocity": 0,
                "time": 74
            },
            {
                "type": "note_on",
                "note": 51,
                "velocity": 127,
                "time": 108
            },
            {
                "type": "note_on",
                "note": 51,
                "velocity": 0,
                "time": 74
            },
            {
                "type": "note_on",
                "note": 46,
                "velocity": 124,
                "time": 108
            },
            {
                "type": "note_on",
                "note": 46,
                "velocity": 0,
                "time": 88
            },
            {
                "type": "note_on",
                "note": 46,
                "velocity": 113,
                "time": 1078
            },
            {
                "type": "note_on",
                "note": 46,
                "velocity": 0,
                "time": 68
            },
            {
                "type": "note_on",
                "note": 51,
                "velocity": 121,
                "time": 134
            },
            {
                "type": "note_on",
                "note": 51,
                "velocity": 0,
                "time": 78
            },
            {
                "type": "note_on",
                "note": 46,
                "velocity": 121,
                "time": 108
            },
            {
                "type": "note_on",
                "note": 46,
                "velocity": 0,
                "time": 84
            },
            {
                "type": "note_on",
                "note": 47,
                "velocity": 118,
                "time": 2
            },
            {
                "type": "note_on",
                "note": 54,
                "velocity": 104,
                "time": 2
            },
            {
                "type": "note_on",
                "note": 59,
                "velocity": 108,
                "time": 0
            },
            {
                "type": "note_on",
                "note": 62,
                "velocity": 112,
                "time": 2
            },
            {
                "type": "note_on",
                "note": 50,
                "velocity": 112,
                "time": 8
            },
            {
                "type": "note_on",
                "note": 54,
                "velocity": 0,
                "time": 52
            },
            {
                "type": "note_on",
                "note": 47,
                "velocity": 0,
                "time": 2
            },
            {
                "type": "note_on",
                "note": 59,
                "velocity": 0,
                "time": 6
            },
            {
                "type": "note_on",
                "note": 62,
                "velocity": 0,
                "time": 4
            },
            {
                "type": "note_on",
                "note": 50,
                "velocity": 0,
                "time": 8
            },
            {
                "type": "note_on",
                "note": 45,
                "velocity": 105,
                "time": 112
            },
            {
                "type": "note_on",
                "note": 61,
                "velocity": 97,
                "time": 6
            },
            {
                "type": "note_on",
                "note": 64,
                "velocity": 122,
                "time": 0
            },
            {
                "type": "note_on",
                "note": 57,
                "velocity": 114,
                "time": 2
            },
            {
                "type": "note_on",
                "note": 52,
                "velocity": 122,
                "time": 0
            },
            {
                "type": "note_on",
                "note": 64,
                "velocity": 0,
                "time": 62
            },
            {
                "type": "note_on",
                "note": 61,
                "velocity": 0,
                "time": 0
            },
            {
                "type": "note_on",
                "note": 52,
                "velocity": 0,
                "time": 2
            },
            {
                "type": "note_on",
                "note": 57,
                "velocity": 0,
                "time": 0
            },
            {
                "type": "note_on",
                "note": 45,
                "velocity": 0,
                "time": 4
            },
            {
                "type": "note_on",
                "note": 66,
                "velocity": 109,
                "time": 124
            },
            {
                "type": "note_on",
                "note": 62,
                "velocity": 112,
                "time": 0
            },
            {
                "type": "note_on",
                "note": 57,
                "velocity": 111,
                "time": 2
            },
            {
                "type": "note_on",
                "note": 50,
                "velocity": 120,
                "time": 4
            },
            {
                "type": "note_on",
                "note": 62,
                "velocity": 0,
                "time": 50
            },
            {
                "type": "note_on",
                "note": 57,
                "velocity": 0,
                "time": 2
            },
            {
                "type": "note_on",
                "note": 50,
                "velocity": 0,
                "time": 2
            },
            {
                "type": "note_on",
                "note": 66,
                "velocity": 0,
                "time": 8
            },
            {
                "type": "note_on",
                "note": 49,
                "velocity": 111,
                "time": 120
            },
            {
                "type": "note_on",
                "note": 65,
                "velocity": 89,
                "time": 2
            },
            {
                "type": "note_on",
                "note": 59,
                "velocity": 105,
                "time": 2
            },
            {
                "type": "note_on",
                "note": 68,
                "velocity": 117,
                "time": 0
            },
            {
                "type": "note_on",
                "note": 49,
                "velocity": 0,
                "time": 46
            },
            {
                "type": "note_on",
                "note": 65,
                "velocity": 0,
                "time": 34
            },
            {
                "type": "note_on",
                "note": 59,
                "velocity": 0,
                "time": 2
            },
            {
                "type": "note_on",
                "note": 68,
                "velocity": 0,
                "time": 8
            },
            {
                "type": "note_on",
                "note": 54,
                "velocity": 117,
                "time": 90
            },
            {
                "type": "note_on",
                "note": 64,
                "velocity": 127,
                "time": 12
            },
            {
                "type": "note_on",
                "note": 70,
                "velocity": 98,
                "time": 2
            },
            {
                "type": "note_on",
                "note": 61,
                "velocity": 119,
                "time": 2
            },
            {
                "type": "note_on",
                "note": 66,
                "velocity": 127,
                "time": 0
            },
            {
                "type": "note_on",
                "note": 54,
                "velocity": 0,
                "time": 44
            },
            {
                "type": "note_on",
                "note": 61,
                "velocity": 0,
                "time": 16
            },
            {
                "type": "note_on",
                "note": 64,
                "velocity": 0,
                "time": 2
            },
            {
                "type": "note_on",
                "note": 66,
                "velocity": 0,
                "time": 4
            },
            {
                "type": "note_on",
                "note": 70,
                "velocity": 0,
                "time": 4
            },
            {
                "type": "note_on",
                "note": 65,
                "velocity": 117,
                "time": 114
            },
            {
                "type": "note_on",
                "note": 70,
                "velocity": 111,
                "time": 0
            },
            {
                "type": "note_on",
                "note": 74,
                "velocity": 126,
                "time": 0
            },
            {
                "type": "note_on",
                "note": 68,
                "velocity": 111,
                "time": 4
            },
            {
                "type": "note_on",
                "note": 46,
                "velocity": 121,
                "time": 8
            },
            {
                "type": "note_on",
                "note": 46,
                "velocity": 0,
                "time": 44
            },
            {
                "type": "note_on",
                "note": 65,
                "velocity": 0,
                "time": 18
            },
            {
                "type": "note_on",
                "note": 70,
                "velocity": 0,
                "time": 2
            },
            {
                "type": "note_on",
                "note": 68,
                "velocity": 0,
                "time": 4
            },
            {
                "type": "note_on",
                "note": 74,
                "velocity": 0,
                "time": 2
            },
            {
                "type": "note_on",
                "note": 70,
                "velocity": 124,
                "time": 114
            },
            {
                "type": "note_on",
                "note": 75,
                "velocity": 115,
                "time": 0
            },
            {
                "type": "note_on",
                "note": 51,
                "velocity": 127,
                "time": 0
            },
            {
                "type": "note_on",
                "note": 67,
                "velocity": 118,
                "time": 0
            },
            {
                "type": "note_on",
                "note": 51,
                "velocity": 0,
                "time": 44
            },
            {
                "type": "note_on",
                "note": 70,
                "velocity": 0,
                "time": 22
            },
            {
                "type": "note_on",
                "note": 75,
                "velocity": 0,
                "time": 0
            },
            {
                "type": "note_on",
                "note": 67,
                "velocity": 0,
                "time": 0
            },
            {
                "type": "note_on",
                "note": 67,
                "velocity": 95,
                "time": 766
            },
            {
                "type": "note_on",
                "note": 65,
                "velocity": 85,
                "time": 372
            },
            {
                "type": "note_on",
                "note": 67,
                "velocity": 0,
                "time": 2
            },
            {
                "type": "note_on",
                "note": 63,
                "velocity": 91,
                "time": 394
            },
            {
                "type": "note_on",
                "note": 65,
                "velocity": 0,
                "time": 4
            },
            {
                "type": "note_on",
                "note": 63,
                "velocity": 0,
                "time": 312
            },
            {
                "type": "note_on",
                "note": 62,
                "velocity": 98,
                "time": 68
            },
            {
                "type": "note_on",
                "note": 62,
                "velocity": 0,
                "time": 200
            },
            {
                "type": "note_on",
                "note": 60,
                "velocity": 90,
                "time": 2
            },
            {
                "type": "note_on",
                "note": 60,
                "velocity": 0,
                "time": 80
            },
            {
                "type": "note_on",
                "note": 62,
                "velocity": 91,
                "time": 90
            },
            {
                "type": "note_on",
                "note": 62,
                "velocity": 0,
                "time": 198
            },
            {
                "type": "note_on",
                "note": 60,
                "velocity": 96,
                "time": 4
            },
            {
                "type": "note_on",
                "note": 60,
                "velocity": 0,
                "time": 64
            }
        ]
    },
    {
        "track": 8,
        "notes": [
            {
                "type": "note_on",
                "note": 57,
                "velocity": 62,
                "time": 9174
            },
            {
                "type": "note_on",
                "note": 57,
                "velocity": 0,
                "time": 2
            }
        ]
    },
    {
        "track": 9,
        "notes": [
            {
                "type": "note_on",
                "note": 58,
                "velocity": 117,
                "time": 35276
            },
            {
                "type": "note_on",
                "note": 58,
                "velocity": 0,
                "time": 42
            },
            {
                "type": "note_on",
                "note": 65,
                "velocity": 127,
                "time": 20
            },
            {
                "type": "note_on",
                "note": 65,
                "velocity": 0,
                "time": 32
            },
            {
                "type": "note_on",
                "note": 70,
                "velocity": 127,
                "time": 2
            },
            {
                "type": "note_on",
                "note": 67,
                "velocity": 119,
                "time": 26
            },
            {
                "type": "note_on",
                "note": 70,
                "velocity": 0,
                "time": 10
            },
            {
                "type": "note_on",
                "note": 67,
                "velocity": 0,
                "time": 2
            },
            {
                "type": "note_on",
                "note": 72,
                "velocity": 127,
                "time": 2
            },
            {
                "type": "note_on",
                "note": 72,
                "velocity": 0,
                "time": 22
            },
            {
                "type": "note_on",
                "note": 65,
                "velocity": 123,
                "time": 62
            },
            {
                "type": "note_on",
                "note": 70,
                "velocity": 123,
                "time": 4
            },
            {
                "type": "note_on",
                "note": 65,
                "velocity": 0,
                "time": 2
            },
            {
                "type": "note_on",
                "note": 70,
                "velocity": 0,
                "time": 2
            },
            {
                "type": "note_on",
                "note": 72,
                "velocity": 123,
                "time": 16
            },
            {
                "type": "note_on",
                "note": 74,
                "velocity": 127,
                "time": 14
            },
            {
                "type": "note_on",
                "note": 72,
                "velocity": 0,
                "time": 2
            },
            {
                "type": "note_on",
                "note": 74,
                "velocity": 0,
                "time": 44
            },
            {
                "type": "note_on",
                "note": 75,
                "velocity": 127,
                "time": 0
            },
            {
                "type": "note_on",
                "note": 75,
                "velocity": 0,
                "time": 44
            },
            {
                "type": "note_on",
                "note": 72,
                "velocity": 127,
                "time": 6
            },
            {
                "type": "note_on",
                "note": 74,
                "velocity": 127,
                "time": 16
            },
            {
                "type": "note_on",
                "note": 72,
                "velocity": 0,
                "time": 16
            },
            {
                "type": "note_on",
                "note": 74,
                "velocity": 0,
                "time": 30
            },
            {
                "type": "note_on",
                "note": 75,
                "velocity": 127,
                "time": 2
            },
            {
                "type": "note_on",
                "note": 75,
                "velocity": 0,
                "time": 40
            },
            {
                "type": "note_on",
                "note": 77,
                "velocity": 127,
                "time": 2
            },
            {
                "type": "note_on",
                "note": 75,
                "velocity": 101,
                "time": 10
            },
            {
                "type": "note_on",
                "note": 77,
                "velocity": 0,
                "time": 8
            },
            {
                "type": "note_on",
                "note": 75,
                "velocity": 0,
                "time": 6
            },
            {
                "type": "note_on",
                "note": 72,
                "velocity": 111,
                "time": 24
            },
            {
                "type": "note_on",
                "note": 72,
                "velocity": 0,
                "time": 18
            },
            {
                "type": "note_on",
                "note": 77,
                "velocity": 127,
                "time": 2
            },
            {
                "type": "note_on",
                "note": 77,
                "velocity": 0,
                "time": 34
            },
            {
                "type": "note_on",
                "note": 79,
                "velocity": 123,
                "time": 2
            },
            {
                "type": "note_on",
                "note": 79,
                "velocity": 0,
                "time": 32
            },
            {
                "type": "note_on",
                "note": 80,
                "velocity": 122,
                "time": 12
            },
            {
                "type": "note_on",
                "note": 80,
                "velocity": 0,
                "time": 38
            },
            {
                "type": "note_on",
                "note": 82,
                "velocity": 126,
                "time": 12
            },
            {
                "type": "note_on",
                "note": 82,
                "velocity": 0,
                "time": 24
            },
            {
                "type": "note_on",
                "note": 84,
                "velocity": 127,
                "time": 2
            },
            {
                "type": "note_on",
                "note": 84,
                "velocity": 0,
                "time": 14
            },
            {
                "type": "note_on",
                "note": 82,
                "velocity": 127,
                "time": 18
            },
            {
                "type": "note_on",
                "note": 82,
                "velocity": 0,
                "time": 46
            },
            {
                "type": "note_on",
                "note": 80,
                "velocity": 127,
                "time": 0
            },
            {
                "type": "note_on",
                "note": 80,
                "velocity": 0,
                "time": 40
            },
            {
                "type": "note_on",
                "note": 79,
                "velocity": 127,
                "time": 2
            },
            {
                "type": "note_on",
                "note": 80,
                "velocity": 117,
                "time": 34
            },
            {
                "type": "note_on",
                "note": 79,
                "velocity": 0,
                "time": 2
            },
            {
                "type": "note_on",
                "note": 79,
                "velocity": 123,
                "time": 22
            },
            {
                "type": "note_on",
                "note": 80,
                "velocity": 0,
                "time": 2
            },
            {
                "type": "note_on",
                "note": 80,
                "velocity": 120,
                "time": 14
            },
            {
                "type": "note_on",
                "note": 79,
                "velocity": 0,
                "time": 2
            },
            {
                "type": "note_on",
                "note": 79,
                "velocity": 118,
                "time": 20
            },
            {
                "type": "note_on",
                "note": 80,
                "velocity": 0,
                "time": 2
            },
            {
                "type": "note_on",
                "note": 77,
                "velocity": 116,
                "time": 26
            },
            {
                "type": "note_on",
                "note": 79,
                "velocity": 0,
                "time": 2
            },
            {
                "type": "note_on",
                "note": 77,
                "velocity": 0,
                "time": 24
            },
            {
                "type": "note_on",
                "note": 79,
                "velocity": 118,
                "time": 0
            },
            {
                "type": "note_on",
                "note": 77,
                "velocity": 118,
                "time": 30
            },
            {
                "type": "note_on",
                "note": 79,
                "velocity": 0,
                "time": 6
            },
            {
                "type": "note_on",
                "note": 75,
                "velocity": 118,
                "time": 22
            },
            {
                "type": "note_on",
                "note": 77,
                "velocity": 0,
                "time": 6
            },
            {
                "type": "note_on",
                "note": 74,
                "velocity": 118,
                "time": 20
            },
            {
                "type": "note_on",
                "note": 75,
                "velocity": 0,
                "time": 2
            },
            {
                "type": "note_on",
                "note": 75,
                "velocity": 120,
                "time": 26
            },
            {
                "type": "note_on",
                "note": 74,
                "velocity": 0,
                "time": 2
            },
            {
                "type": "note_on",
                "note": 75,
                "velocity": 0,
                "time": 32
            },
            {
                "type": "note_on",
                "note": 74,
                "velocity": 120,
                "time": 2
            },
            {
                "type": "note_on",
                "note": 75,
                "velocity": 117,
                "time": 20
            },
            {
                "type": "note_on",
                "note": 74,
                "velocity": 0,
                "time": 4
            },
            {
                "type": "note_on",
                "note": 74,
                "velocity": 121,
                "time": 20
            },
            {
                "type": "note_on",
                "note": 75,
                "velocity": 0,
                "time": 2
            },
            {
                "type": "note_on",
                "note": 72,
                "velocity": 123,
                "time": 20
            },
            {
                "type": "note_on",
                "note": 74,
                "velocity": 0,
                "time": 2
            },
            {
                "type": "note_on",
                "note": 74,
                "velocity": 121,
                "time": 24
            },
            {
                "type": "note_on",
                "note": 72,
                "velocity": 0,
                "time": 2
            },
            {
                "type": "note_on",
                "note": 72,
                "velocity": 120,
                "time": 26
            },
            {
                "type": "note_on",
                "note": 74,
                "velocity": 0,
                "time": 4
            },
            {
                "type": "note_on",
                "note": 70,
                "velocity": 127,
                "time": 22
            },
            {
                "type": "note_on",
                "note": 72,
                "velocity": 0,
                "time": 4
            },
            {
                "type": "note_on",
                "note": 70,
                "velocity": 0,
                "time": 10
            },
            {
                "type": "note_on",
                "note": 70,
                "velocity": 122,
                "time": 54
            },
            {
                "type": "note_on",
                "note": 70,
                "velocity": 0,
                "time": 16
            },
            {
                "type": "note_on",
                "note": 72,
                "velocity": 124,
                "time": 34
            },
            {
                "type": "note_on",
                "note": 74,
                "velocity": 120,
                "time": 30
            },
            {
                "type": "note_on",
                "note": 72,
                "velocity": 0,
                "time": 6
            },
            {
                "type": "note_on",
                "note": 74,
                "velocity": 0,
                "time": 32
            },
            {
                "type": "note_on",
                "note": 75,
                "velocity": 124,
                "time": 8
            },
            {
                "type": "note_on",
                "note": 75,
                "velocity": 0,
                "time": 30
            },
            {
                "type": "note_on",
                "note": 77,
                "velocity": 123,
                "time": 6
            },
            {
                "type": "note_on",
                "note": 77,
                "velocity": 0,
                "time": 24
            },
            {
                "type": "note_on",
                "note": 79,
                "velocity": 125,
                "time": 4
            },
            {
                "type": "note_on",
                "note": 79,
                "velocity": 0,
                "time": 28
            },
            {
                "type": "note_on",
                "note": 80,
                "velocity": 123,
                "time": 2
            },
            {
                "type": "note_on",
                "note": 80,
                "velocity": 0,
                "time": 28
            },
            {
                "type": "note_on",
                "note": 82,
                "velocity": 127,
                "time": 10
            },
            {
                "type": "note_on",
                "note": 70,
                "velocity": 120,
                "time": 40
            },
            {
                "type": "note_on",
                "note": 82,
                "velocity": 0,
                "time": 8
            },
            {
                "type": "note_on",
                "note": 70,
                "velocity": 0,
                "time": 12
            },
            {
                "type": "note_on",
                "note": 72,
                "velocity": 120,
                "time": 20
            },
            {
                "type": "note_on",
                "note": 74,
                "velocity": 123,
                "time": 22
            },
            {
                "type": "note_on",
                "note": 72,
                "velocity": 0,
                "time": 4
            },
            {
                "type": "note_on",
                "note": 75,
                "velocity": 121,
                "time": 24
            },
            {
                "type": "note_on",
                "note": 74,
                "velocity": 0,
                "time": 2
            },
            {
                "type": "note_on",
                "note": 75,
                "velocity": 0,
                "time": 26
            },
            {
                "type": "note_on",
                "note": 77,
                "velocity": 122,
                "time": 4
            },
            {
                "type": "note_on",
                "note": 79,
                "velocity": 123,
                "time": 22
            },
            {
                "type": "note_on",
                "note": 77,
                "velocity": 0,
                "time": 4
            },
            {
                "type": "note_on",
                "note": 79,
                "velocity": 0,
                "time": 32
            },
            {
                "type": "note_on",
                "note": 80,
                "velocity": 125,
                "time": 0
            },
            {
                "type": "note_on",
                "note": 80,
                "velocity": 0,
                "time": 30
            },
            {
                "type": "note_on",
                "note": 82,
                "velocity": 127,
                "time": 0
            },
            {
                "type": "note_on",
                "note": 82,
                "velocity": 0,
                "time": 48
            },
            {
                "type": "note_on",
                "note": 84,
                "velocity": 127,
                "time": 2
            },
            {
                "type": "note_on",
                "note": 84,
                "velocity": 0,
                "time": 36
            },
            {
                "type": "note_on",
                "note": 74,
                "velocity": 127,
                "time": 52
            },
            {
                "type": "note_on",
                "note": 74,
                "velocity": 0,
                "time": 52
            },
            {
                "type": "note_on",
                "note": 75,
                "velocity": 127,
                "time": 4
            },
            {
                "type": "note_on",
                "note": 75,
                "velocity": 0,
                "time": 40
            },
            {
                "type": "note_on",
                "note": 72,
                "velocity": 126,
                "time": 14
            },
            {
                "type": "note_on",
                "note": 72,
                "velocity": 0,
                "time": 32
            },
            {
                "type": "note_on",
                "note": 74,
                "velocity": 127,
                "time": 4
            },
            {
                "type": "note_on",
                "note": 75,
                "velocity": 126,
                "time": 42
            },
            {
                "type": "note_on",
                "note": 74,
                "velocity": 0,
                "time": 6
            },
            {
                "type": "note_on",
                "note": 75,
                "velocity": 0,
                "time": 38
            },
            {
                "type": "note_on",
                "note": 72,
                "velocity": 127,
                "time": 14
            },
            {
                "type": "note_on",
                "note": 72,
                "velocity": 0,
                "time": 34
            },
            {
                "type": "note_on",
                "note": 74,
                "velocity": 127,
                "time": 0
            },
            {
                "type": "note_on",
                "note": 74,
                "velocity": 0,
                "time": 48
            },
            {
                "type": "note_on",
                "note": 75,
                "velocity": 123,
                "time": 6
            },
            {
                "type": "note_on",
                "note": 75,
                "velocity": 0,
                "time": 14
            },
            {
                "type": "note_on",
                "note": 77,
                "velocity": 127,
                "time": 2
            },
            {
                "type": "note_on",
                "note": 77,
                "velocity": 0,
                "time": 58
            },
            {
                "type": "note_on",
                "note": 65,
                "velocity": 117,
                "time": 2
            },
            {
                "type": "note_on",
                "note": 65,
                "velocity": 0,
                "time": 42
            },
            {
                "type": "note_on",
                "note": 67,
                "velocity": 122,
                "time": 6
            },
            {
                "type": "note_on",
                "note": 67,
                "velocity": 0,
                "time": 40
            },
            {
                "type": "note_on",
                "note": 68,
                "velocity": 126,
                "time": 2
            },
            {
                "type": "note_on",
                "note": 68,
                "velocity": 0,
                "time": 24
            },
            {
                "type": "note_on",
                "note": 77,
                "velocity": 125,
                "time": 4
            },
            {
                "type": "note_on",
                "note": 77,
                "velocity": 0,
                "time": 188
            },
            {
                "type": "note_on",
                "note": 68,
                "velocity": 127,
                "time": 2
            },
            {
                "type": "note_on",
                "note": 68,
                "velocity": 0,
                "time": 56
            },
            {
                "type": "note_on",
                "note": 73,
                "velocity": 117,
                "time": 28
            },
            {
                "type": "note_on",
                "note": 73,
                "velocity": 0,
                "time": 56
            },
            {
                "type": "note_on",
                "note": 73,
                "velocity": 127,
                "time": 2
            },
            {
                "type": "note_on",
                "note": 73,
                "velocity": 0,
                "time": 4
            },
            {
                "type": "note_on",
                "note": 73,
                "velocity": 127,
                "time": 20
            },
            {
                "type": "note_on",
                "note": 73,
                "velocity": 0,
                "time": 18
            },
            {
                "type": "note_on",
                "note": 73,
                "velocity": 125,
                "time": 6
            },
            {
                "type": "note_on",
                "note": 73,
                "velocity": 0,
                "time": 18
            },
            {
                "type": "note_on",
                "note": 71,
                "velocity": 127,
                "time": 0
            },
            {
                "type": "note_on",
                "note": 71,
                "velocity": 0,
                "time": 2
            },
            {
                "type": "note_on",
                "note": 61,
                "velocity": 119,
                "time": 4
            },
            {
                "type": "note_on",
                "note": 61,
                "velocity": 0,
                "time": 16
            },
            {
                "type": "note_on",
                "note": 61,
                "velocity": 124,
                "time": 6
            },
            {
                "type": "note_on",
                "note": 61,
                "velocity": 0,
                "time": 116
            },
            {
                "type": "note_on",
                "note": 62,
                "velocity": 88,
                "time": 12
            },
            {
                "type": "note_on",
                "note": 61,
                "velocity": 85,
                "time": 16
            },
            {
                "type": "note_on",
                "note": 62,
                "velocity": 0,
                "time": 8
            },
            {
                "type": "note_on",
                "note": 59,
                "velocity": 79,
                "time": 2
            },
            {
                "type": "note_on",
                "note": 61,
                "velocity": 0,
                "time": 16
            },
            {
                "type": "note_on",
                "note": 57,
                "velocity": 126,
                "time": 6
            },
            {
                "type": "note_on",
                "note": 59,
                "velocity": 0,
                "time": 12
            },
            {
                "type": "note_on",
                "note": 57,
                "velocity": 0,
                "time": 14
            },
            {
                "type": "note_on",
                "note": 75,
                "velocity": 81,
                "time": 63372
            },
            {
                "type": "note_on",
                "note": 75,
                "velocity": 0,
                "time": 90
            },
            {
                "type": "note_on",
                "note": 79,
                "velocity": 80,
                "time": 2
            },
            {
                "type": "note_on",
                "note": 79,
                "velocity": 0,
                "time": 32
            },
            {
                "type": "note_on",
                "note": 78,
                "velocity": 84,
                "time": 4
            },
            {
                "type": "note_on",
                "note": 78,
                "velocity": 0,
                "time": 68
            },
            {
                "type": "note_on",
                "note": 79,
                "velocity": 87,
                "time": 0
            },
            {
                "type": "note_on",
                "note": 81,
                "velocity": 88,
                "time": 86
            },
            {
                "type": "note_on",
                "note": 79,
                "velocity": 0,
                "time": 2
            },
            {
                "type": "note_on",
                "note": 81,
                "velocity": 0,
                "time": 4
            },
            {
                "type": "note_on",
                "note": 82,
                "velocity": 92,
                "time": 2
            },
            {
                "type": "note_on",
                "note": 82,
                "velocity": 0,
                "time": 6
            },
            {
                "type": "note_on",
                "note": 72,
                "velocity": 97,
                "time": 2
            },
            {
                "type": "note_on",
                "note": 70,
                "velocity": 74,
                "time": 4
            },
            {
                "type": "note_on",
                "note": 72,
                "velocity": 0,
                "time": 8
            },
            {
                "type": "note_on",
                "note": 70,
                "velocity": 0,
                "time": 66
            },
            {
                "type": "note_on",
                "note": 72,
                "velocity": 76,
                "time": 0
            },
            {
                "type": "note_on",
                "note": 70,
                "velocity": 74,
                "time": 4
            },
            {
                "type": "note_on",
                "note": 72,
                "velocity": 0,
                "time": 12
            },
            {
                "type": "note_on",
                "note": 70,
                "velocity": 0,
                "time": 102
            },
            {
                "type": "note_on",
                "note": 70,
                "velocity": 99,
                "time": 4198
            },
            {
                "type": "note_on",
                "note": 70,
                "velocity": 0,
                "time": 42
            },
            {
                "type": "note_on",
                "note": 67,
                "velocity": 88,
                "time": 2
            },
            {
                "type": "note_on",
                "note": 67,
                "velocity": 0,
                "time": 52
            },
            {
                "type": "note_on",
                "note": 67,
                "velocity": 88,
                "time": 50
            },
            {
                "type": "note_on",
                "note": 67,
                "velocity": 0,
                "time": 166
            },
            {
                "type": "note_on",
                "note": 67,
                "velocity": 88,
                "time": 60
            },
            {
                "type": "note_on",
                "note": 67,
                "velocity": 0,
                "time": 2
            },
            {
                "type": "note_on",
                "note": 64,
                "velocity": 77,
                "time": 0
            },
            {
                "type": "note_on",
                "note": 64,
                "velocity": 0,
                "time": 70
            },
            {
                "type": "note_on",
                "note": 60,
                "velocity": 68,
                "time": 16
            },
            {
                "type": "note_on",
                "note": 60,
                "velocity": 0,
                "time": 90
            },
            {
                "type": "note_on",
                "note": 58,
                "velocity": 65,
                "time": 6
            },
            {
                "type": "note_on",
                "note": 58,
                "velocity": 0,
                "time": 96
            },
            {
                "type": "note_on",
                "note": 57,
                "velocity": 67,
                "time": 20
            },
            {
                "type": "note_on",
                "note": 57,
                "velocity": 0,
                "time": 164
            },
            {
                "type": "note_on",
                "note": 65,
                "velocity": 67,
                "time": 24
            },
            {
                "type": "note_on",
                "note": 65,
                "velocity": 0,
                "time": 170
            }
        ]
    },
    {
        "track": 10,
        "notes": [
            {
                "type": "note_on",
                "note": 49,
                "velocity": 89,
                "time": 18386
            },
            {
                "type": "note_on",
                "note": 38,
                "velocity": 87,
                "time": 0
            },
            {
                "type": "note_on",
                "note": 38,
                "velocity": 0,
                "time": 4
            },
            {
                "type": "note_on",
                "note": 49,
                "velocity": 0,
                "time": 0
            },
            {
                "type": "note_on",
                "note": 49,
                "velocity": 24,
                "time": 186
            },
            {
                "type": "note_on",
                "note": 49,
                "velocity": 0,
                "time": 4
            },
            {
                "type": "note_on",
                "note": 49,
                "velocity": 20,
                "time": 17
            },
            {
                "type": "note_on",
                "note": 49,
                "velocity": 0,
                "time": 4
            },
            {
                "type": "note_on",
                "note": 49,
                "velocity": 26,
                "time": 16
            },
            {
                "type": "note_on",
                "note": 49,
                "velocity": 0,
                "time": 4
            },
            {
                "type": "note_on",
                "note": 49,
                "velocity": 26,
                "time": 16
            },
            {
                "type": "note_on",
                "note": 49,
                "velocity": 0,
                "time": 4
            },
            {
                "type": "note_on",
                "note": 49,
                "velocity": 29,
                "time": 18
            },
            {
                "type": "note_on",
                "note": 49,
                "velocity": 0,
                "time": 4
            },
            {
                "type": "note_on",
                "note": 49,
                "velocity": 32,
                "time": 18
            },
            {
                "type": "note_on",
                "note": 49,
                "velocity": 0,
                "time": 4
            },
            {
                "type": "note_on",
                "note": 49,
                "velocity": 34,
                "time": 20
            },
            {
                "type": "note_on",
                "note": 49,
                "velocity": 0,
                "time": 4
            },
            {
                "type": "note_on",
                "note": 49,
                "velocity": 35,
                "time": 19
            },
            {
                "type": "note_on",
                "note": 49,
                "velocity": 0,
                "time": 4
            },
            {
                "type": "note_on",
                "note": 49,
                "velocity": 39,
                "time": 21
            },
            {
                "type": "note_on",
                "note": 49,
                "velocity": 0,
                "time": 4
            },
            {
                "type": "note_on",
                "note": 49,
                "velocity": 40,
                "time": 16
            },
            {
                "type": "note_on",
                "note": 49,
                "velocity": 0,
                "time": 4
            },
            {
                "type": "note_on",
                "note": 49,
                "velocity": 36,
                "time": 20
            },
            {
                "type": "note_on",
                "note": 49,
                "velocity": 0,
                "time": 4
            },
            {
                "type": "note_on",
                "note": 49,
                "velocity": 41,
                "time": 19
            },
            {
                "type": "note_on",
                "note": 49,
                "velocity": 0,
                "time": 4
            },
            {
                "type": "note_on",
                "note": 49,
                "velocity": 40,
                "time": 21
            },
            {
                "type": "note_on",
                "note": 49,
                "velocity": 0,
                "time": 4
            },
            {
                "type": "note_on",
                "note": 49,
                "velocity": 46,
                "time": 23
            },
            {
                "type": "note_on",
                "note": 49,
                "velocity": 0,
                "time": 4
            },
            {
                "type": "note_on",
                "note": 49,
                "velocity": 48,
                "time": 20
            },
            {
                "type": "note_on",
                "note": 49,
                "velocity": 0,
                "time": 4
            },
            {
                "type": "note_on",
                "note": 49,
                "velocity": 49,
                "time": 17
            },
            {
                "type": "note_on",
                "note": 49,
                "velocity": 0,
                "time": 4
            },
            {
                "type": "note_on",
                "note": 49,
                "velocity": 52,
                "time": 23
            },
            {
                "type": "note_on",
                "note": 49,
                "velocity": 0,
                "time": 4
            },
            {
                "type": "note_on",
                "note": 49,
                "velocity": 54,
                "time": 19
            },
            {
                "type": "note_on",
                "note": 49,
                "velocity": 0,
                "time": 4
            },
            {
                "type": "note_on",
                "note": 49,
                "velocity": 53,
                "time": 22
            },
            {
                "type": "note_on",
                "note": 49,
                "velocity": 0,
                "time": 4
            },
            {
                "type": "note_on",
                "note": 49,
                "velocity": 57,
                "time": 20
            },
            {
                "type": "note_on",
                "note": 49,
                "velocity": 0,
                "time": 4
            },
            {
                "type": "note_on",
                "note": 49,
                "velocity": 56,
                "time": 21
            },
            {
                "type": "note_on",
                "note": 49,
                "velocity": 0,
                "time": 4
            },
            {
                "type": "note_on",
                "note": 49,
                "velocity": 58,
                "time": 23
            },
            {
                "type": "note_on",
                "note": 49,
                "velocity": 0,
                "time": 4
            },
            {
                "type": "note_on",
                "note": 49,
                "velocity": 60,
                "time": 20
            },
            {
                "type": "note_on",
                "note": 49,
                "velocity": 0,
                "time": 4
            },
            {
                "type": "note_on",
                "note": 49,
                "velocity": 60,
                "time": 20
            },
            {
                "type": "note_on",
                "note": 49,
                "velocity": 0,
                "time": 4
            },
            {
                "type": "note_on",
                "note": 49,
                "velocity": 88,
                "time": 33
            },
            {
                "type": "note_on",
                "note": 36,
                "velocity": 75,
                "time": 0
            },
            {
                "type": "note_on",
                "note": 36,
                "velocity": 0,
                "time": 4
            },
            {
                "type": "note_on",
                "note": 49,
                "velocity": 0,
                "time": 0
            },
            {
                "type": "note_on",
                "note": 42,
                "velocity": 56,
                "time": 188
            },
            {
                "type": "note_on",
                "note": 38,
                "velocity": 78,
                "time": 0
            },
            {
                "type": "note_on",
                "note": 38,
                "velocity": 0,
                "time": 4
            },
            {
                "type": "note_on",
                "note": 42,
                "velocity": 0,
                "time": 0
            },
            {
                "type": "note_on",
                "note": 42,
                "velocity": 48,
                "time": 90
            },
            {
                "type": "note_on",
                "note": 42,
                "velocity": 0,
                "time": 4
            },
            {
                "type": "note_on",
                "note": 42,
                "velocity": 46,
                "time": 93
            },
            {
                "type": "note_on",
                "note": 36,
                "velocity": 68,
                "time": 0
            },
            {
                "type": "note_on",
                "note": 36,
                "velocity": 0,
                "time": 4
            },
            {
                "type": "note_on",
                "note": 42,
                "velocity": 0,
                "time": 0
            },
            {
                "type": "note_on",
                "note": 42,
                "velocity": 46,
                "time": 91
            },
            {
                "type": "note_on",
                "note": 36,
                "velocity": 75,
                "time": 0
            },
            {
                "type": "note_on",
                "note": 36,
                "velocity": 0,
                "time": 4
            },
            {
                "type": "note_on",
                "note": 42,
                "velocity": 0,
                "time": 0
            },
            {
                "type": "note_on",
                "note": 42,
                "velocity": 35,
                "time": 94
            },
            {
                "type": "note_on",
                "note": 38,
                "velocity": 81,
                "time": 0
            },
            {
                "type": "note_on",
                "note": 38,
                "velocity": 0,
                "time": 4
            },
            {
                "type": "note_on",
                "note": 42,
                "velocity": 0,
                "time": 0
            },
            {
                "type": "note_on",
                "note": 42,
                "velocity": 27,
                "time": 90
            },
            {
                "type": "note_on",
                "note": 42,
                "velocity": 0,
                "time": 4
            },
            {
                "type": "note_on",
                "note": 42,
                "velocity": 47,
                "time": 95
            },
            {
                "type": "note_on",
                "note": 36,
                "velocity": 74,
                "time": 0
            },
            {
                "type": "note_on",
                "note": 36,
                "velocity": 0,
                "time": 4
            },
            {
                "type": "note_on",
                "note": 42,
                "velocity": 0,
                "time": 0
            },
            {
                "type": "note_on",
                "note": 36,
                "velocity": 66,
                "time": 89
            },
            {
                "type": "note_on",
                "note": 42,
                "velocity": 49,
                "time": 0
            },
            {
                "type": "note_on",
                "note": 42,
                "velocity": 0,
                "time": 4
            },
            {
                "type": "note_on",
                "note": 36,
                "velocity": 0,
                "time": 0
            },
            {
                "type": "note_on",
                "note": 38,
                "velocity": 79,
                "time": 92
            },
            {
                "type": "note_on",
                "note": 42,
                "velocity": 47,
                "time": 2
            },
            {
                "type": "note_on",
                "note": 38,
                "velocity": 0,
                "time": 2
            },
            {
                "type": "note_on",
                "note": 42,
                "velocity": 0,
                "time": 2
            },
            {
                "type": "note_on",
                "note": 42,
                "velocity": 56,
                "time": 91
            },
            {
                "type": "note_on",
                "note": 42,
                "velocity": 0,
                "time": 4
            },
            {
                "type": "note_on",
                "note": 36,
                "velocity": 72,
                "time": 91
            },
            {
                "type": "note_on",
                "note": 42,
                "velocity": 37,
                "time": 1
            },
            {
                "type": "note_on",
                "note": 36,
                "velocity": 0,
                "time": 3
            },
            {
                "type": "note_on",
                "note": 42,
                "velocity": 0,
                "time": 1
            },
            {
                "type": "note_on",
                "note": 42,
                "velocity": 48,
                "time": 91
            },
            {
                "type": "note_on",
                "note": 36,
                "velocity": 71,
                "time": 0
            },
            {
                "type": "note_on",
                "note": 36,
                "velocity": 0,
                "time": 4
            },
            {
                "type": "note_on",
                "note": 42,
                "velocity": 0,
                "time": 0
            },
            {
                "type": "note_on",
                "note": 38,
                "velocity": 80,
                "time": 94
            },
            {
                "type": "note_on",
                "note": 42,
                "velocity": 42,
                "time": 1
            },
            {
                "type": "note_on",
                "note": 38,
                "velocity": 0,
                "time": 3
            },
            {
                "type": "note_on",
                "note": 42,
                "velocity": 0,
                "time": 1
            },
            {
                "type": "note_on",
                "note": 42,
                "velocity": 35,
                "time": 89
            },
            {
                "type": "note_on",
                "note": 42,
                "velocity": 0,
                "time": 4
            },
            {
                "type": "note_on",
                "note": 49,
                "velocity": 37,
                "time": 94
            },
            {
                "type": "note_on",
                "note": 36,
                "velocity": 75,
                "time": 0
            },
            {
                "type": "note_on",
                "note": 36,
                "velocity": 0,
                "time": 4
            },
            {
                "type": "note_on",
                "note": 49,
                "velocity": 0,
                "time": 0
            },
            {
                "type": "note_on",
                "note": 42,
                "velocity": 14,
                "time": 188
            },
            {
                "type": "note_on",
                "note": 38,
                "velocity": 76,
                "time": 0
            },
            {
                "type": "note_on",
                "note": 38,
                "velocity": 0,
                "time": 4
            },
            {
                "type": "note_on",
                "note": 42,
                "velocity": 0,
                "time": 0
            },
            {
                "type": "note_on",
                "note": 42,
                "velocity": 42,
                "time": 91
            },
            {
                "type": "note_on",
                "note": 42,
                "velocity": 0,
                "time": 4
            },
            {
                "type": "note_on",
                "note": 36,
                "velocity": 70,
                "time": 93
            },
            {
                "type": "note_on",
                "note": 49,
                "velocity": 49,
                "time": 0
            },
            {
                "type": "note_on",
                "note": 49,
                "velocity": 0,
                "time": 4
            },
            {
                "type": "note_on",
                "note": 36,
                "velocity": 0,
                "time": 0
            },
            {
                "type": "note_on",
                "note": 36,
                "velocity": 70,
                "time": 90
            },
            {
                "type": "note_on",
                "note": 36,
                "velocity": 0,
                "time": 4
            },
            {
                "type": "note_on",
                "note": 42,
                "velocity": 36,
                "time": 94
            },
            {
                "type": "note_on",
                "note": 38,
                "velocity": 72,
                "time": 0
            },
            {
                "type": "note_on",
                "note": 38,
                "velocity": 0,
                "time": 4
            },
            {
                "type": "note_on",
                "note": 42,
                "velocity": 0,
                "time": 0
            },
            {
                "type": "note_on",
                "note": 42,
                "velocity": 32,
                "time": 90
            },
            {
                "type": "note_on",
                "note": 42,
                "velocity": 0,
                "time": 4
            },
            {
                "type": "note_on",
                "note": 36,
                "velocity": 78,
                "time": 94
            },
            {
                "type": "note_on",
                "note": 42,
                "velocity": 52,
                "time": 0
            },
            {
                "type": "note_on",
                "note": 42,
                "velocity": 0,
                "time": 4
            },
            {
                "type": "note_on",
                "note": 36,
                "velocity": 0,
                "time": 0
            },
            {
                "type": "note_on",
                "note": 42,
                "velocity": 43,
                "time": 93
            },
            {
                "type": "note_on",
                "note": 42,
                "velocity": 0,
                "time": 4
            },
            {
                "type": "note_on",
                "note": 42,
                "velocity": 46,
                "time": 91
            },
            {
                "type": "note_on",
                "note": 38,
                "velocity": 75,
                "time": 0
            },
            {
                "type": "note_on",
                "note": 38,
                "velocity": 0,
                "time": 4
            },
            {
                "type": "note_on",
                "note": 42,
                "velocity": 0,
                "time": 0
            },
            {
                "type": "note_on",
                "note": 42,
                "velocity": 45,
                "time": 90
            },
            {
                "type": "note_on",
                "note": 42,
                "velocity": 0,
                "time": 4
            },
            {
                "type": "note_on",
                "note": 42,
                "velocity": 48,
                "time": 95
            },
            {
                "type": "note_on",
                "note": 36,
                "velocity": 76,
                "time": 0
            },
            {
                "type": "note_on",
                "note": 36,
                "velocity": 0,
                "time": 4
            },
            {
                "type": "note_on",
                "note": 42,
                "velocity": 0,
                "time": 0
            },
            {
                "type": "note_on",
                "note": 45,
                "velocity": 71,
                "time": 90
            },
            {
                "type": "note_on",
                "note": 45,
                "velocity": 0,
                "time": 4
            },
            {
                "type": "note_on",
                "note": 43,
                "velocity": 76,
                "time": 93
            },
            {
                "type": "note_on",
                "note": 43,
                "velocity": 0,
                "time": 4
            },
            {
                "type": "note_on",
                "note": 43,
                "velocity": 74,
                "time": 22
            },
            {
                "type": "note_on",
                "note": 43,
                "velocity": 0,
                "time": 4
            },
            {
                "type": "note_on",
                "note": 43,
                "velocity": 78,
                "time": 28
            },
            {
                "type": "note_on",
                "note": 43,
                "velocity": 0,
                "time": 4
            },
            {
                "type": "note_on",
                "note": 41,
                "velocity": 102,
                "time": 32
            },
            {
                "type": "note_on",
                "note": 41,
                "velocity": 0,
                "time": 4
            },
            {
                "type": "note_on",
                "note": 49,
                "velocity": 58,
                "time": 94
            },
            {
                "type": "note_on",
                "note": 36,
                "velocity": 87,
                "time": 0
            },
            {
                "type": "note_on",
                "note": 36,
                "velocity": 0,
                "time": 4
            },
            {
                "type": "note_on",
                "note": 49,
                "velocity": 0,
                "time": 0
            },
            {
                "type": "note_on",
                "note": 42,
                "velocity": 37,
                "time": 188
            },
            {
                "type": "note_on",
                "note": 38,
                "velocity": 68,
                "time": 0
            },
            {
                "type": "note_on",
                "note": 38,
                "velocity": 0,
                "time": 4
            },
            {
                "type": "note_on",
                "note": 42,
                "velocity": 0,
                "time": 0
            },
            {
                "type": "note_on",
                "note": 42,
                "velocity": 46,
                "time": 91
            },
            {
                "type": "note_on",
                "note": 36,
                "velocity": 65,
                "time": 0
            },
            {
                "type": "note_on",
                "note": 36,
                "velocity": 0,
                "time": 4
            },
            {
                "type": "note_on",
                "note": 42,
                "velocity": 0,
                "time": 0
            },
            {
                "type": "note_on",
                "note": 42,
                "velocity": 48,
                "time": 93
            },
            {
                "type": "note_on",
                "note": 36,
                "velocity": 72,
                "time": 0
            },
            {
                "type": "note_on",
                "note": 36,
                "velocity": 0,
                "time": 4
            },
            {
                "type": "note_on",
                "note": 42,
                "velocity": 0,
                "time": 0
            },
            {
                "type": "note_on",
                "note": 36,
                "velocity": 70,
                "time": 90
            },
            {
                "type": "note_on",
                "note": 42,
                "velocity": 48,
                "time": 0
            },
            {
                "type": "note_on",
                "note": 42,
                "velocity": 0,
                "time": 4
            },
            {
                "type": "note_on",
                "note": 36,
                "velocity": 0,
                "time": 0
            },
            {
                "type": "note_on",
                "note": 42,
                "velocity": 37,
                "time": 93
            },
            {
                "type": "note_on",
                "note": 38,
                "velocity": 84,
                "time": 0
            },
            {
                "type": "note_on",
                "note": 38,
                "velocity": 0,
                "time": 4
            },
            {
                "type": "note_on",
                "note": 42,
                "velocity": 0,
                "time": 0
            },
            {
                "type": "note_on",
                "note": 46,
                "velocity": 35,
                "time": 91
            },
            {
                "type": "note_on",
                "note": 46,
                "velocity": 0,
                "time": 4
            },
            {
                "type": "note_on",
                "note": 36,
                "velocity": 72,
                "time": 94
            },
            {
                "type": "note_on",
                "note": 49,
                "velocity": 48,
                "time": 0
            },
            {
                "type": "note_on",
                "note": 49,
                "velocity": 0,
                "time": 4
            },
            {
                "type": "note_on",
                "note": 36,
                "velocity": 0,
                "time": 0
            },
            {
                "type": "note_on",
                "note": 36,
                "velocity": 65,
                "time": 91
            },
            {
                "type": "note_on",
                "note": 36,
                "velocity": 0,
                "time": 4
            },
            {
                "type": "note_on",
                "note": 38,
                "velocity": 83,
                "time": 92
            },
            {
                "type": "note_on",
                "note": 42,
                "velocity": 35,
                "time": 1
            },
            {
                "type": "note_on",
                "note": 38,
                "velocity": 0,
                "time": 3
            },
            {
                "type": "note_on",
                "note": 42,
                "velocity": 0,
                "time": 1
            },
            {
                "type": "note_on",
                "note": 42,
                "velocity": 43,
                "time": 91
            },
            {
                "type": "note_on",
                "note": 42,
                "velocity": 0,
                "time": 4
            },
            {
                "type": "note_on",
                "note": 36,
                "velocity": 77,
                "time": 93
            },
            {
                "type": "note_on",
                "note": 49,
                "velocity": 47,
                "time": 1
            },
            {
                "type": "note_on",
                "note": 36,
                "velocity": 0,
                "time": 3
            },
            {
                "type": "note_on",
                "note": 49,
                "velocity": 0,
                "time": 1
            },
            {
                "type": "note_on",
                "note": 49,
                "velocity": 48,
                "time": 3067
            },
            {
                "type": "note_on",
                "note": 36,
                "velocity": 83,
                "time": 0
            },
            {
                "type": "note_on",
                "note": 36,
                "velocity": 0,
                "time": 4
            },
            {
                "type": "note_on",
                "note": 49,
                "velocity": 0,
                "time": 0
            },
            {
                "type": "note_on",
                "note": 38,
                "velocity": 75,
                "time": 186
            },
            {
                "type": "note_on",
                "note": 59,
                "velocity": 47,
                "time": 2
            },
            {
                "type": "note_on",
                "note": 38,
                "velocity": 0,
                "time": 2
            },
            {
                "type": "note_on",
                "note": 59,
                "velocity": 0,
                "time": 2
            },
            {
                "type": "note_on",
                "note": 59,
                "velocity": 42,
                "time": 90
            },
            {
                "type": "note_on",
                "note": 59,
                "velocity": 0,
                "time": 4
            },
            {
                "type": "note_on",
                "note": 36,
                "velocity": 71,
                "time": 92
            },
            {
                "type": "note_on",
                "note": 59,
                "velocity": 56,
                "time": 2
            },
            {
                "type": "note_on",
                "note": 36,
                "velocity": 0,
                "time": 2
            },
            {
                "type": "note_on",
                "note": 59,
                "velocity": 0,
                "time": 2
            },
            {
                "type": "note_on",
                "note": 59,
                "velocity": 51,
                "time": 90
            },
            {
                "type": "note_on",
                "note": 36,
                "velocity": 76,
                "time": 0
            },
            {
                "type": "note_on",
                "note": 36,
                "velocity": 0,
                "time": 4
            },
            {
                "type": "note_on",
                "note": 59,
                "velocity": 0,
                "time": 0
            },
            {
                "type": "note_on",
                "note": 38,
                "velocity": 73,
                "time": 92
            },
            {
                "type": "note_on",
                "note": 59,
                "velocity": 61,
                "time": 2
            },
            {
                "type": "note_on",
                "note": 38,
                "velocity": 0,
                "time": 2
            },
            {
                "type": "note_on",
                "note": 59,
                "velocity": 0,
                "time": 2
            },
            {
                "type": "note_on",
                "note": 59,
                "velocity": 51,
                "time": 90
            },
            {
                "type": "note_on",
                "note": 59,
                "velocity": 0,
                "time": 4
            },
            {
                "type": "note_on",
                "note": 59,
                "velocity": 62,
                "time": 94
            },
            {
                "type": "note_on",
                "note": 36,
                "velocity": 74,
                "time": 0
            },
            {
                "type": "note_on",
                "note": 36,
                "velocity": 0,
                "time": 4
            },
            {
                "type": "note_on",
                "note": 59,
                "velocity": 0,
                "time": 0
            },
            {
                "type": "note_on",
                "note": 59,
                "velocity": 51,
                "time": 90
            },
            {
                "type": "note_on",
                "note": 36,
                "velocity": 69,
                "time": 0
            },
            {
                "type": "note_on",
                "note": 36,
                "velocity": 0,
                "time": 4
            },
            {
                "type": "note_on",
                "note": 59,
                "velocity": 0,
                "time": 0
            },
            {
                "type": "note_on",
                "note": 38,
                "velocity": 88,
                "time": 92
            },
            {
                "type": "note_on",
                "note": 59,
                "velocity": 58,
                "time": 1
            },
            {
                "type": "note_on",
                "note": 38,
                "velocity": 0,
                "time": 3
            },
            {
                "type": "note_on",
                "note": 59,
                "velocity": 0,
                "time": 1
            },
            {
                "type": "note_on",
                "note": 59,
                "velocity": 61,
                "time": 91
            },
            {
                "type": "note_on",
                "note": 59,
                "velocity": 0,
                "time": 4
            },
            {
                "type": "note_on",
                "note": 59,
                "velocity": 62,
                "time": 92
            },
            {
                "type": "note_on",
                "note": 36,
                "velocity": 66,
                "time": 0
            },
            {
                "type": "note_on",
                "note": 36,
                "velocity": 0,
                "time": 4
            },
            {
                "type": "note_on",
                "note": 59,
                "velocity": 0,
                "time": 0
            },
            {
                "type": "note_on",
                "note": 59,
                "velocity": 59,
                "time": 92
            },
            {
                "type": "note_on",
                "note": 36,
                "velocity": 74,
                "time": 0
            },
            {
                "type": "note_on",
                "note": 36,
                "velocity": 0,
                "time": 4
            },
            {
                "type": "note_on",
                "note": 59,
                "velocity": 0,
                "time": 0
            },
            {
                "type": "note_on",
                "note": 59,
                "velocity": 59,
                "time": 93
            },
            {
                "type": "note_on",
                "note": 38,
                "velocity": 73,
                "time": 0
            },
            {
                "type": "note_on",
                "note": 38,
                "velocity": 0,
                "time": 4
            },
            {
                "type": "note_on",
                "note": 59,
                "velocity": 0,
                "time": 0
            },
            {
                "type": "note_on",
                "note": 59,
                "velocity": 61,
                "time": 91
            },
            {
                "type": "note_on",
                "note": 59,
                "velocity": 0,
                "time": 4
            },
            {
                "type": "note_on",
                "note": 59,
                "velocity": 54,
                "time": 95
            },
            {
                "type": "note_on",
                "note": 36,
                "velocity": 81,
                "time": 0
            },
            {
                "type": "note_on",
                "note": 36,
                "velocity": 0,
                "time": 4
            },
            {
                "type": "note_on",
                "note": 59,
                "velocity": 0,
                "time": 0
            },
            {
                "type": "note_on",
                "note": 36,
                "velocity": 73,
                "time": 90
            },
            {
                "type": "note_on",
                "note": 59,
                "velocity": 49,
                "time": 0
            },
            {
                "type": "note_on",
                "note": 59,
                "velocity": 0,
                "time": 4
            },
            {
                "type": "note_on",
                "note": 36,
                "velocity": 0,
                "time": 0
            },
            {
                "type": "note_on",
                "note": 84,
                "velocity": 127,
                "time": 92
            },
            {
                "type": "note_on",
                "note": 59,
                "velocity": 56,
                "time": 0
            },
            {
                "type": "note_on",
                "note": 38,
                "velocity": 76,
                "time": 0
            },
            {
                "type": "note_on",
                "note": 38,
                "velocity": 0,
                "time": 4
            },
            {
                "type": "note_on",
                "note": 59,
                "velocity": 0,
                "time": 0
            },
            {
                "type": "note_on",
                "note": 84,
                "velocity": 0,
                "time": 0
            },
            {
                "type": "note_on",
                "note": 59,
                "velocity": 61,
                "time": 5
            },
            {
                "type": "note_on",
                "note": 59,
                "velocity": 0,
                "time": 4
            },
            {
                "type": "note_on",
                "note": 36,
                "velocity": 74,
                "time": 93
            },
            {
                "type": "note_on",
                "note": 59,
                "velocity": 59,
                "time": 0
            },
            {
                "type": "note_on",
                "note": 59,
                "velocity": 0,
                "time": 4
            },
            {
                "type": "note_on",
                "note": 36,
                "velocity": 0,
                "time": 0
            },
            {
                "type": "note_on",
                "note": 36,
                "velocity": 79,
                "time": 92
            },
            {
                "type": "note_on",
                "note": 59,
                "velocity": 57,
                "time": 0
            },
            {
                "type": "note_on",
                "note": 59,
                "velocity": 0,
                "time": 4
            },
            {
                "type": "note_on",
                "note": 36,
                "velocity": 0,
                "time": 0
            },
            {
                "type": "note_on",
                "note": 59,
                "velocity": 61,
                "time": 93
            },
            {
                "type": "note_on",
                "note": 38,
                "velocity": 76,
                "time": 0
            },
            {
                "type": "note_on",
                "note": 38,
                "velocity": 0,
                "time": 4
            },
            {
                "type": "note_on",
                "note": 59,
                "velocity": 0,
                "time": 0
            },
            {
                "type": "note_on",
                "note": 59,
                "velocity": 59,
                "time": 90
            },
            {
                "type": "note_on",
                "note": 59,
                "velocity": 0,
                "time": 4
            },
            {
                "type": "note_on",
                "note": 36,
                "velocity": 62,
                "time": 97
            },
            {
                "type": "note_on",
                "note": 49,
                "velocity": 48,
                "time": 0
            },
            {
                "type": "note_on",
                "note": 49,
                "velocity": 0,
                "time": 4
            },
            {
                "type": "note_on",
                "note": 36,
                "velocity": 0,
                "time": 0
            },
            {
                "type": "note_on",
                "note": 36,
                "velocity": 73,
                "time": 87
            },
            {
                "type": "note_on",
                "note": 36,
                "velocity": 0,
                "time": 4
            },
            {
                "type": "note_on",
                "note": 38,
                "velocity": 73,
                "time": 92
            },
            {
                "type": "note_on",
                "note": 59,
                "velocity": 47,
                "time": 1
            },
            {
                "type": "note_on",
                "note": 38,
                "velocity": 0,
                "time": 3
            },
            {
                "type": "note_on",
                "note": 59,
                "velocity": 0,
                "time": 1
            },
            {
                "type": "note_on",
                "note": 59,
                "velocity": 51,
                "time": 91
            },
            {
                "type": "note_on",
                "note": 59,
                "velocity": 0,
                "time": 4
            },
            {
                "type": "note_on",
                "note": 59,
                "velocity": 64,
                "time": 94
            },
            {
                "type": "note_on",
                "note": 36,
                "velocity": 77,
                "time": 0
            },
            {
                "type": "note_on",
                "note": 36,
                "velocity": 0,
                "time": 4
            },
            {
                "type": "note_on",
                "note": 59,
                "velocity": 0,
                "time": 0
            },
            {
                "type": "note_on",
                "note": 36,
                "velocity": 76,
                "time": 90
            },
            {
                "type": "note_on",
                "note": 59,
                "velocity": 61,
                "time": 0
            },
            {
                "type": "note_on",
                "note": 59,
                "velocity": 0,
                "time": 4
            },
            {
                "type": "note_on",
                "note": 36,
                "velocity": 0,
                "time": 0
            },
            {
                "type": "note_on",
                "note": 38,
                "velocity": 73,
                "time": 92
            },
            {
                "type": "note_on",
                "note": 59,
                "velocity": 59,
                "time": 1
            },
            {
                "type": "note_on",
                "note": 38,
                "velocity": 0,
                "time": 3
            },
            {
                "type": "note_on",
                "note": 59,
                "velocity": 0,
                "time": 1
            },
            {
                "type": "note_on",
                "note": 59,
                "velocity": 57,
                "time": 91
            },
            {
                "type": "note_on",
                "note": 36,
                "velocity": 68,
                "time": 0
            },
            {
                "type": "note_on",
                "note": 36,
                "velocity": 0,
                "time": 4
            },
            {
                "type": "note_on",
                "note": 59,
                "velocity": 0,
                "time": 0
            },
            {
                "type": "note_on",
                "note": 49,
                "velocity": 49,
                "time": 95
            },
            {
                "type": "note_on",
                "note": 36,
                "velocity": 75,
                "time": 0
            },
            {
                "type": "note_on",
                "note": 36,
                "velocity": 0,
                "time": 4
            },
            {
                "type": "note_on",
                "note": 49,
                "velocity": 0,
                "time": 0
            },
            {
                "type": "note_on",
                "note": 59,
                "velocity": 49,
                "time": 184
            },
            {
                "type": "note_on",
                "note": 38,
                "velocity": 78,
                "time": 0
            },
            {
                "type": "note_on",
                "note": 38,
                "velocity": 0,
                "time": 4
            },
            {
                "type": "note_on",
                "note": 59,
                "velocity": 0,
                "time": 0
            },
            {
                "type": "note_on",
                "note": 59,
                "velocity": 52,
                "time": 93
            },
            {
                "type": "note_on",
                "note": 59,
                "velocity": 0,
                "time": 4
            },
            {
                "type": "note_on",
                "note": 59,
                "velocity": 61,
                "time": 93
            },
            {
                "type": "note_on",
                "note": 36,
                "velocity": 72,
                "time": 0
            },
            {
                "type": "note_on",
                "note": 36,
                "velocity": 0,
                "time": 4
            },
            {
                "type": "note_on",
                "note": 59,
                "velocity": 0,
                "time": 0
            },
            {
                "type": "note_on",
                "note": 59,
                "velocity": 51,
                "time": 91
            },
            {
                "type": "note_on",
                "note": 36,
                "velocity": 77,
                "time": 0
            },
            {
                "type": "note_on",
                "note": 36,
                "velocity": 0,
                "time": 4
            },
            {
                "type": "note_on",
                "note": 59,
                "velocity": 0,
                "time": 0
            },
            {
                "type": "note_on",
                "note": 59,
                "velocity": 57,
                "time": 93
            },
            {
                "type": "note_on",
                "note": 38,
                "velocity": 78,
                "time": 0
            },
            {
                "type": "note_on",
                "note": 38,
                "velocity": 0,
                "time": 4
            },
            {
                "type": "note_on",
                "note": 59,
                "velocity": 0,
                "time": 0
            },
            {
                "type": "note_on",
                "note": 59,
                "velocity": 51,
                "time": 91
            },
            {
                "type": "note_on",
                "note": 59,
                "velocity": 0,
                "time": 4
            },
            {
                "type": "note_on",
                "note": 36,
                "velocity": 85,
                "time": 94
            },
            {
                "type": "note_on",
                "note": 49,
                "velocity": 35,
                "time": 0
            },
            {
                "type": "note_on",
                "note": 49,
                "velocity": 0,
                "time": 4
            },
            {
                "type": "note_on",
                "note": 36,
                "velocity": 0,
                "time": 0
            },
            {
                "type": "note_on",
                "note": 59,
                "velocity": 29,
                "time": 90
            },
            {
                "type": "note_on",
                "note": 59,
                "velocity": 0,
                "time": 4
            },
            {
                "type": "note_on",
                "note": 38,
                "velocity": 81,
                "time": 92
            },
            {
                "type": "note_on",
                "note": 59,
                "velocity": 49,
                "time": 2
            },
            {
                "type": "note_on",
                "note": 38,
                "velocity": 0,
                "time": 2
            },
            {
                "type": "note_on",
                "note": 59,
                "velocity": 0,
                "time": 2
            },
            {
                "type": "note_on",
                "note": 59,
                "velocity": 48,
                "time": 91
            },
            {
                "type": "note_on",
                "note": 59,
                "velocity": 0,
                "time": 4
            },
            {
                "type": "note_on",
                "note": 36,
                "velocity": 80,
                "time": 91
            },
            {
                "type": "note_on",
                "note": 59,
                "velocity": 57,
                "time": 2
            },
            {
                "type": "note_on",
                "note": 36,
                "velocity": 0,
                "time": 2
            },
            {
                "type": "note_on",
                "note": 59,
                "velocity": 0,
                "time": 2
            },
            {
                "type": "note_on",
                "note": 59,
                "velocity": 54,
                "time": 90
            },
            {
                "type": "note_on",
                "note": 36,
                "velocity": 81,
                "time": 0
            },
            {
                "type": "note_on",
                "note": 36,
                "velocity": 0,
                "time": 4
            },
            {
                "type": "note_on",
                "note": 59,
                "velocity": 0,
                "time": 0
            },
            {
                "type": "note_on",
                "note": 59,
                "velocity": 61,
                "time": 92
            },
            {
                "type": "note_on",
                "note": 38,
                "velocity": 80,
                "time": 0
            },
            {
                "type": "note_on",
                "note": 38,
                "velocity": 0,
                "time": 4
            },
            {
                "type": "note_on",
                "note": 59,
                "velocity": 0,
                "time": 0
            },
            {
                "type": "note_on",
                "note": 59,
                "velocity": 51,
                "time": 92
            },
            {
                "type": "note_on",
                "note": 59,
                "velocity": 0,
                "time": 4
            },
            {
                "type": "note_on",
                "note": 36,
                "velocity": 80,
                "time": 94
            },
            {
                "type": "note_on",
                "note": 49,
                "velocity": 46,
                "time": 2
            },
            {
                "type": "note_on",
                "note": 36,
                "velocity": 0,
                "time": 2
            },
            {
                "type": "note_on",
                "note": 49,
                "velocity": 0,
                "time": 2
            },
            {
                "type": "note_on",
                "note": 59,
                "velocity": 45,
                "time": 88
            },
            {
                "type": "note_on",
                "note": 59,
                "velocity": 0,
                "time": 4
            },
            {
                "type": "note_on",
                "note": 59,
                "velocity": 64,
                "time": 94
            },
            {
                "type": "note_on",
                "note": 38,
                "velocity": 86,
                "time": 0
            },
            {
                "type": "note_on",
                "note": 38,
                "velocity": 0,
                "time": 4
            },
            {
                "type": "note_on",
                "note": 59,
                "velocity": 0,
                "time": 0
            },
            {
                "type": "note_on",
                "note": 59,
                "velocity": 69,
                "time": 90
            },
            {
                "type": "note_on",
                "note": 36,
                "velocity": 80,
                "time": 0
            },
            {
                "type": "note_on",
                "note": 36,
                "velocity": 0,
                "time": 4
            },
            {
                "type": "note_on",
                "note": 59,
                "velocity": 0,
                "time": 0
            },
            {
                "type": "note_on",
                "note": 36,
                "velocity": 88,
                "time": 93
            },
            {
                "type": "note_on",
                "note": 49,
                "velocity": 47,
                "time": 2
            },
            {
                "type": "note_on",
                "note": 36,
                "velocity": 0,
                "time": 2
            },
            {
                "type": "note_on",
                "note": 49,
                "velocity": 0,
                "time": 2
            },
            {
                "type": "note_on",
                "note": 59,
                "velocity": 54,
                "time": 187
            },
            {
                "type": "note_on",
                "note": 38,
                "velocity": 84,
                "time": 0
            },
            {
                "type": "note_on",
                "note": 38,
                "velocity": 0,
                "time": 4
            },
            {
                "type": "note_on",
                "note": 59,
                "velocity": 0,
                "time": 0
            },
            {
                "type": "note_on",
                "note": 59,
                "velocity": 54,
                "time": 90
            },
            {
                "type": "note_on",
                "note": 59,
                "velocity": 0,
                "time": 4
            },
            {
                "type": "note_on",
                "note": 36,
                "velocity": 84,
                "time": 94
            },
            {
                "type": "note_on",
                "note": 49,
                "velocity": 48,
                "time": 0
            },
            {
                "type": "note_on",
                "note": 49,
                "velocity": 0,
                "time": 4
            },
            {
                "type": "note_on",
                "note": 36,
                "velocity": 0,
                "time": 0
            },
            {
                "type": "note_on",
                "note": 59,
                "velocity": 49,
                "time": 90
            },
            {
                "type": "note_on",
                "note": 59,
                "velocity": 0,
                "time": 4
            },
            {
                "type": "note_on",
                "note": 59,
                "velocity": 61,
                "time": 92
            },
            {
                "type": "note_on",
                "note": 38,
                "velocity": 81,
                "time": 0
            },
            {
                "type": "note_on",
                "note": 38,
                "velocity": 0,
                "time": 4
            },
            {
                "type": "note_on",
                "note": 59,
                "velocity": 0,
                "time": 0
            },
            {
                "type": "note_on",
                "note": 59,
                "velocity": 66,
                "time": 92
            },
            {
                "type": "note_on",
                "note": 36,
                "velocity": 70,
                "time": 0
            },
            {
                "type": "note_on",
                "note": 36,
                "velocity": 0,
                "time": 4
            },
            {
                "type": "note_on",
                "note": 59,
                "velocity": 0,
                "time": 0
            },
            {
                "type": "note_on",
                "note": 36,
                "velocity": 81,
                "time": 93
            },
            {
                "type": "note_on",
                "note": 49,
                "velocity": 53,
                "time": 2
            },
            {
                "type": "note_on",
                "note": 36,
                "velocity": 0,
                "time": 2
            },
            {
                "type": "note_on",
                "note": 49,
                "velocity": 0,
                "time": 2
            },
            {
                "type": "note_on",
                "note": 45,
                "velocity": 75,
                "time": 89
            },
            {
                "type": "note_on",
                "note": 45,
                "velocity": 0,
                "time": 4
            },
            {
                "type": "note_on",
                "note": 43,
                "velocity": 77,
                "time": 94
            },
            {
                "type": "note_on",
                "note": 43,
                "velocity": 0,
                "time": 4
            },
            {
                "type": "note_on",
                "note": 43,
                "velocity": 73,
                "time": 41
            },
            {
                "type": "note_on",
                "note": 43,
                "velocity": 0,
                "time": 4
            },
            {
                "type": "note_on",
                "note": 41,
                "velocity": 90,
                "time": 45
            },
            {
                "type": "note_on",
                "note": 41,
                "velocity": 0,
                "time": 4
            },
            {
                "type": "note_on",
                "note": 36,
                "velocity": 92,
                "time": 94
            },
            {
                "type": "note_on",
                "note": 49,
                "velocity": 74,
                "time": 1
            },
            {
                "type": "note_on",
                "note": 36,
                "velocity": 0,
                "time": 3
            },
            {
                "type": "note_on",
                "note": 49,
                "velocity": 0,
                "time": 1
            },
            {
                "type": "note_on",
                "note": 38,
                "velocity": 80,
                "time": 187
            },
            {
                "type": "note_on",
                "note": 59,
                "velocity": 51,
                "time": 0
            },
            {
                "type": "note_on",
                "note": 59,
                "velocity": 0,
                "time": 4
            },
            {
                "type": "note_on",
                "note": 38,
                "velocity": 0,
                "time": 0
            },
            {
                "type": "note_on",
                "note": 59,
                "velocity": 49,
                "time": 90
            },
            {
                "type": "note_on",
                "note": 59,
                "velocity": 0,
                "time": 4
            },
            {
                "type": "note_on",
                "note": 36,
                "velocity": 74,
                "time": 94
            },
            {
                "type": "note_on",
                "note": 59,
                "velocity": 55,
                "time": 1
            },
            {
                "type": "note_on",
                "note": 36,
                "velocity": 0,
                "time": 3
            },
            {
                "type": "note_on",
                "note": 59,
                "velocity": 0,
                "time": 1
            },
            {
                "type": "note_on",
                "note": 36,
                "velocity": 74,
                "time": 89
            },
            {
                "type": "note_on",
                "note": 59,
                "velocity": 57,
                "time": 0
            },
            {
                "type": "note_on",
                "note": 59,
                "velocity": 0,
                "time": 4
            },
            {
                "type": "note_on",
                "note": 36,
                "velocity": 0,
                "time": 0
            },
            {
                "type": "note_on",
                "note": 38,
                "velocity": 80,
                "time": 95
            },
            {
                "type": "note_on",
                "note": 59,
                "velocity": 61,
                "time": 3
            },
            {
                "type": "note_on",
                "note": 38,
                "velocity": 0,
                "time": 1
            },
            {
                "type": "note_on",
                "note": 59,
                "velocity": 0,
                "time": 3
            },
            {
                "type": "note_on",
                "note": 59,
                "velocity": 65,
                "time": 86
            },
            {
                "type": "note_on",
                "note": 36,
                "velocity": 68,
                "time": 0
            },
            {
                "type": "note_on",
                "note": 36,
                "velocity": 0,
                "time": 4
            },
            {
                "type": "note_on",
                "note": 59,
                "velocity": 0,
                "time": 0
            },
            {
                "type": "note_on",
                "note": 49,
                "velocity": 58,
                "time": 96
            },
            {
                "type": "note_on",
                "note": 36,
                "velocity": 85,
                "time": 0
            },
            {
                "type": "note_on",
                "note": 36,
                "velocity": 0,
                "time": 4
            },
            {
                "type": "note_on",
                "note": 49,
                "velocity": 0,
                "time": 0
            },
            {
                "type": "note_on",
                "note": 38,
                "velocity": 71,
                "time": 185
            },
            {
                "type": "note_on",
                "note": 59,
                "velocity": 49,
                "time": 1
            },
            {
                "type": "note_on",
                "note": 38,
                "velocity": 0,
                "time": 3
            },
            {
                "type": "note_on",
                "note": 59,
                "velocity": 0,
                "time": 1
            },
            {
                "type": "note_on",
                "note": 59,
                "velocity": 58,
                "time": 91
            },
            {
                "type": "note_on",
                "note": 59,
                "velocity": 0,
                "time": 4
            },
            {
                "type": "note_on",
                "note": 59,
                "velocity": 61,
                "time": 92
            },
            {
                "type": "note_on",
                "note": 36,
                "velocity": 80,
                "time": 0
            },
            {
                "type": "note_on",
                "note": 36,
                "velocity": 0,
                "time": 4
            },
            {
                "type": "note_on",
                "note": 59,
                "velocity": 0,
                "time": 0
            },
            {
                "type": "note_on",
                "note": 59,
                "velocity": 60,
                "time": 91
            },
            {
                "type": "note_on",
                "note": 36,
                "velocity": 80,
                "time": 0
            },
            {
                "type": "note_on",
                "note": 36,
                "velocity": 0,
                "time": 4
            },
            {
                "type": "note_on",
                "note": 59,
                "velocity": 0,
                "time": 0
            },
            {
                "type": "note_on",
                "note": 38,
                "velocity": 64,
                "time": 93
            },
            {
                "type": "note_on",
                "note": 59,
                "velocity": 60,
                "time": 1
            },
            {
                "type": "note_on",
                "note": 38,
                "velocity": 0,
                "time": 3
            },
            {
                "type": "note_on",
                "note": 59,
                "velocity": 0,
                "time": 1
            },
            {
                "type": "note_on",
                "note": 36,
                "velocity": 66,
                "time": 90
            },
            {
                "type": "note_on",
                "note": 59,
                "velocity": 66,
                "time": 0
            },
            {
                "type": "note_on",
                "note": 59,
                "velocity": 0,
                "time": 4
            },
            {
                "type": "note_on",
                "note": 36,
                "velocity": 0,
                "time": 0
            },
            {
                "type": "note_on",
                "note": 36,
                "velocity": 86,
                "time": 95
            },
            {
                "type": "note_on",
                "note": 49,
                "velocity": 68,
                "time": 3
            },
            {
                "type": "note_on",
                "note": 36,
                "velocity": 0,
                "time": 1
            },
            {
                "type": "note_on",
                "note": 49,
                "velocity": 0,
                "time": 3
            },
            {
                "type": "note_on",
                "note": 49,
                "velocity": 70,
                "time": 279
            },
            {
                "type": "note_on",
                "note": 36,
                "velocity": 88,
                "time": 0
            },
            {
                "type": "note_on",
                "note": 36,
                "velocity": 0,
                "time": 4
            },
            {
                "type": "note_on",
                "note": 49,
                "velocity": 0,
                "time": 0
            },
            {
                "type": "note_on",
                "note": 36,
                "velocity": 91,
                "time": 93
            },
            {
                "type": "note_on",
                "note": 49,
                "velocity": 82,
                "time": 0
            },
            {
                "type": "note_on",
                "note": 49,
                "velocity": 0,
                "time": 4
            },
            {
                "type": "note_on",
                "note": 36,
                "velocity": 0,
                "time": 0
            },
            {
                "type": "note_on",
                "note": 49,
                "velocity": 48,
                "time": 188
            },
            {
                "type": "note_on",
                "note": 36,
                "velocity": 84,
                "time": 0
            },
            {
                "type": "note_on",
                "note": 36,
                "velocity": 0,
                "time": 4
            },
            {
                "type": "note_on",
                "note": 49,
                "velocity": 0,
                "time": 0
            },
            {
                "type": "note_on",
                "note": 49,
                "velocity": 65,
                "time": 189
            },
            {
                "type": "note_on",
                "note": 36,
                "velocity": 76,
                "time": 0
            },
            {
                "type": "note_on",
                "note": 36,
                "velocity": 0,
                "time": 4
            },
            {
                "type": "note_on",
                "note": 49,
                "velocity": 0,
                "time": 0
            },
            {
                "type": "note_on",
                "note": 36,
                "velocity": 77,
                "time": 90
            },
            {
                "type": "note_on",
                "note": 36,
                "velocity": 0,
                "time": 4
            },
            {
                "type": "note_on",
                "note": 38,
                "velocity": 73,
                "time": 94
            },
            {
                "type": "note_on",
                "note": 46,
                "velocity": 39,
                "time": 0
            },
            {
                "type": "note_on",
                "note": 46,
                "velocity": 0,
                "time": 4
            },
            {
                "type": "note_on",
                "note": 38,
                "velocity": 0,
                "time": 0
            },
            {
                "type": "note_on",
                "note": 43,
                "velocity": 56,
                "time": 89
            },
            {
                "type": "note_on",
                "note": 43,
                "velocity": 0,
                "time": 4
            },
            {
                "type": "note_on",
                "note": 43,
                "velocity": 55,
                "time": 45
            },
            {
                "type": "note_on",
                "note": 43,
                "velocity": 0,
                "time": 4
            },
            {
                "type": "note_on",
                "note": 43,
                "velocity": 78,
                "time": 45
            },
            {
                "type": "note_on",
                "note": 43,
                "velocity": 0,
                "time": 4
            },
            {
                "type": "note_on",
                "note": 43,
                "velocity": 68,
                "time": 42
            },
            {
                "type": "note_on",
                "note": 43,
                "velocity": 0,
                "time": 4
            },
            {
                "type": "note_on",
                "note": 43,
                "velocity": 67,
                "time": 40
            },
            {
                "type": "note_on",
                "note": 43,
                "velocity": 0,
                "time": 4
            },
            {
                "type": "note_on",
                "note": 43,
                "velocity": 75,
                "time": 4
            },
            {
                "type": "note_on",
                "note": 43,
                "velocity": 0,
                "time": 4
            },
            {
                "type": "note_on",
                "note": 43,
                "velocity": 80,
                "time": 42
            },
            {
                "type": "note_on",
                "note": 43,
                "velocity": 0,
                "time": 4
            },
            {
                "type": "note_on",
                "note": 43,
                "velocity": 67,
                "time": 34
            },
            {
                "type": "note_on",
                "note": 43,
                "velocity": 0,
                "time": 4
            },
            {
                "type": "note_on",
                "note": 43,
                "velocity": 83,
                "time": 7
            },
            {
                "type": "note_on",
                "note": 43,
                "velocity": 0,
                "time": 4
            },
            {
                "type": "note_on",
                "note": 43,
                "velocity": 75,
                "time": 42
            },
            {
                "type": "note_on",
                "note": 43,
                "velocity": 0,
                "time": 4
            },
            {
                "type": "note_on",
                "note": 43,
                "velocity": 74,
                "time": 44
            },
            {
                "type": "note_on",
                "note": 43,
                "velocity": 0,
                "time": 4
            },
            {
                "type": "note_on",
                "note": 43,
                "velocity": 67,
                "time": 15
            },
            {
                "type": "note_on",
                "note": 43,
                "velocity": 0,
                "time": 4
            },
            {
                "type": "note_on",
                "note": 43,
                "velocity": 62,
                "time": 25
            },
            {
                "type": "note_on",
                "note": 43,
                "velocity": 0,
                "time": 4
            },
            {
                "type": "note_on",
                "note": 49,
                "velocity": 53,
                "time": 46
            },
            {
                "type": "note_on",
                "note": 36,
                "velocity": 73,
                "time": 0
            },
            {
                "type": "note_on",
                "note": 36,
                "velocity": 0,
                "time": 4
            },
            {
                "type": "note_on",
                "note": 49,
                "velocity": 0,
                "time": 0
            },
            {
                "type": "note_on",
                "note": 36,
                "velocity": 70,
                "time": 89
            },
            {
                "type": "note_on",
                "note": 36,
                "velocity": 0,
                "time": 4
            },
            {
                "type": "note_on",
                "note": 38,
                "velocity": 88,
                "time": 93
            },
            {
                "type": "note_on",
                "note": 42,
                "velocity": 46,
                "time": 2
            },
            {
                "type": "note_on",
                "note": 38,
                "velocity": 0,
                "time": 2
            },
            {
                "type": "note_on",
                "note": 42,
                "velocity": 0,
                "time": 2
            },
            {
                "type": "note_on",
                "note": 42,
                "velocity": 62,
                "time": 89
            },
            {
                "type": "note_on",
                "note": 36,
                "velocity": 70,
                "time": 0
            },
            {
                "type": "note_on",
                "note": 36,
                "velocity": 0,
                "time": 4
            },
            {
                "type": "note_on",
                "note": 42,
                "velocity": 0,
                "time": 0
            },
            {
                "type": "note_on",
                "note": 36,
                "velocity": 92,
                "time": 94
            },
            {
                "type": "note_on",
                "note": 49,
                "velocity": 65,
                "time": 0
            },
            {
                "type": "note_on",
                "note": 49,
                "velocity": 0,
                "time": 4
            },
            {
                "type": "note_on",
                "note": 36,
                "velocity": 0,
                "time": 0
            },
            {
                "type": "note_on",
                "note": 36,
                "velocity": 76,
                "time": 90
            },
            {
                "type": "note_on",
                "note": 36,
                "velocity": 0,
                "time": 4
            },
            {
                "type": "note_on",
                "note": 38,
                "velocity": 90,
                "time": 94
            },
            {
                "type": "note_on",
                "note": 42,
                "velocity": 45,
                "time": 0
            },
            {
                "type": "note_on",
                "note": 42,
                "velocity": 0,
                "time": 4
            },
            {
                "type": "note_on",
                "note": 38,
                "velocity": 0,
                "time": 0
            },
            {
                "type": "note_on",
                "note": 36,
                "velocity": 73,
                "time": 91
            },
            {
                "type": "note_on",
                "note": 42,
                "velocity": 48,
                "time": 0
            },
            {
                "type": "note_on",
                "note": 42,
                "velocity": 0,
                "time": 4
            },
            {
                "type": "note_on",
                "note": 36,
                "velocity": 0,
                "time": 0
            },
            {
                "type": "note_on",
                "note": 49,
                "velocity": 65,
                "time": 93
            },
            {
                "type": "note_on",
                "note": 36,
                "velocity": 76,
                "time": 0
            },
            {
                "type": "note_on",
                "note": 36,
                "velocity": 0,
                "time": 4
            },
            {
                "type": "note_on",
                "note": 49,
                "velocity": 0,
                "time": 0
            },
            {
                "type": "note_on",
                "note": 36,
                "velocity": 75,
                "time": 90
            },
            {
                "type": "note_on",
                "note": 36,
                "velocity": 0,
                "time": 4
            },
            {
                "type": "note_on",
                "note": 42,
                "velocity": 42,
                "time": 92
            },
            {
                "type": "note_on",
                "note": 38,
                "velocity": 87,
                "time": 0
            },
            {
                "type": "note_on",
                "note": 38,
                "velocity": 0,
                "time": 4
            },
            {
                "type": "note_on",
                "note": 42,
                "velocity": 0,
                "time": 0
            },
            {
                "type": "note_on",
                "note": 36,
                "velocity": 56,
                "time": 93
            },
            {
                "type": "note_on",
                "note": 42,
                "velocity": 48,
                "time": 0
            },
            {
                "type": "note_on",
                "note": 42,
                "velocity": 0,
                "time": 4
            },
            {
                "type": "note_on",
                "note": 36,
                "velocity": 0,
                "time": 0
            },
            {
                "type": "note_on",
                "note": 36,
                "velocity": 85,
                "time": 91
            },
            {
                "type": "note_on",
                "note": 42,
                "velocity": 48,
                "time": 2
            },
            {
                "type": "note_on",
                "note": 36,
                "velocity": 0,
                "time": 2
            },
            {
                "type": "note_on",
                "note": 42,
                "velocity": 0,
                "time": 2
            },
            {
                "type": "note_on",
                "note": 36,
                "velocity": 60,
                "time": 91
            },
            {
                "type": "note_on",
                "note": 42,
                "velocity": 42,
                "time": 1
            },
            {
                "type": "note_on",
                "note": 36,
                "velocity": 0,
                "time": 3
            },
            {
                "type": "note_on",
                "note": 42,
                "velocity": 0,
                "time": 1
            },
            {
                "type": "note_on",
                "note": 42,
                "velocity": 48,
                "time": 92
            },
            {
                "type": "note_on",
                "note": 38,
                "velocity": 94,
                "time": 0
            },
            {
                "type": "note_on",
                "note": 38,
                "velocity": 0,
                "time": 4
            },
            {
                "type": "note_on",
                "note": 42,
                "velocity": 0,
                "time": 0
            },
            {
                "type": "note_on",
                "note": 42,
                "velocity": 52,
                "time": 90
            },
            {
                "type": "note_on",
                "note": 36,
                "velocity": 60,
                "time": 0
            },
            {
                "type": "note_on",
                "note": 36,
                "velocity": 0,
                "time": 4
            },
            {
                "type": "note_on",
                "note": 42,
                "velocity": 0,
                "time": 0
            },
            {
                "type": "note_on",
                "note": 36,
                "velocity": 92,
                "time": 96
            },
            {
                "type": "note_on",
                "note": 49,
                "velocity": 65,
                "time": 0
            },
            {
                "type": "note_on",
                "note": 49,
                "velocity": 0,
                "time": 4
            },
            {
                "type": "note_on",
                "note": 36,
                "velocity": 0,
                "time": 0
            },
            {
                "type": "note_on",
                "note": 36,
                "velocity": 67,
                "time": 88
            },
            {
                "type": "note_on",
                "note": 36,
                "velocity": 0,
                "time": 4
            },
            {
                "type": "note_on",
                "note": 38,
                "velocity": 83,
                "time": 93
            },
            {
                "type": "note_on",
                "note": 42,
                "velocity": 47,
                "time": 0
            },
            {
                "type": "note_on",
                "note": 42,
                "velocity": 0,
                "time": 4
            },
            {
                "type": "note_on",
                "note": 38,
                "velocity": 0,
                "time": 0
            },
            {
                "type": "note_on",
                "note": 49,
                "velocity": 62,
                "time": 93
            },
            {
                "type": "note_on",
                "note": 36,
                "velocity": 66,
                "time": 0
            },
            {
                "type": "note_on",
                "note": 36,
                "velocity": 0,
                "time": 4
            },
            {
                "type": "note_on",
                "note": 49,
                "velocity": 0,
                "time": 0
            },
            {
                "type": "note_on",
                "note": 49,
                "velocity": 63,
                "time": 92
            },
            {
                "type": "note_on",
                "note": 36,
                "velocity": 84,
                "time": 0
            },
            {
                "type": "note_on",
                "note": 36,
                "velocity": 0,
                "time": 4
            },
            {
                "type": "note_on",
                "note": 49,
                "velocity": 0,
                "time": 0
            },
            {
                "type": "note_on",
                "note": 36,
                "velocity": 83,
                "time": 188
            },
            {
                "type": "note_on",
                "note": 49,
                "velocity": 65,
                "time": 1
            },
            {
                "type": "note_on",
                "note": 36,
                "velocity": 0,
                "time": 3
            },
            {
                "type": "note_on",
                "note": 49,
                "velocity": 0,
                "time": 1
            },
            {
                "type": "note_on",
                "note": 49,
                "velocity": 68,
                "time": 188
            },
            {
                "type": "note_on",
                "note": 36,
                "velocity": 66,
                "time": 0
            },
            {
                "type": "note_on",
                "note": 36,
                "velocity": 0,
                "time": 4
            },
            {
                "type": "note_on",
                "note": 49,
                "velocity": 0,
                "time": 0
            },
            {
                "type": "note_on",
                "note": 36,
                "velocity": 71,
                "time": 90
            },
            {
                "type": "note_on",
                "note": 36,
                "velocity": 0,
                "time": 4
            },
            {
                "type": "note_on",
                "note": 38,
                "velocity": 80,
                "time": 93
            },
            {
                "type": "note_on",
                "note": 49,
                "velocity": 39,
                "time": 2
            },
            {
                "type": "note_on",
                "note": 38,
                "velocity": 0,
                "time": 2
            },
            {
                "type": "note_on",
                "note": 49,
                "velocity": 0,
                "time": 2
            },
            {
                "type": "note_on",
                "note": 42,
                "velocity": 51,
                "time": 89
            },
            {
                "type": "note_on",
                "note": 36,
                "velocity": 64,
                "time": 0
            },
            {
                "type": "note_on",
                "note": 36,
                "velocity": 0,
                "time": 4
            },
            {
                "type": "note_on",
                "note": 42,
                "velocity": 0,
                "time": 0
            },
            {
                "type": "note_on",
                "note": 36,
                "velocity": 80,
                "time": 95
            },
            {
                "type": "note_on",
                "note": 42,
                "velocity": 44,
                "time": 2
            },
            {
                "type": "note_on",
                "note": 36,
                "velocity": 0,
                "time": 2
            },
            {
                "type": "note_on",
                "note": 42,
                "velocity": 0,
                "time": 2
            },
            {
                "type": "note_on",
                "note": 36,
                "velocity": 72,
                "time": 87
            },
            {
                "type": "note_on",
                "note": 42,
                "velocity": 44,
                "time": 0
            },
            {
                "type": "note_on",
                "note": 42,
                "velocity": 0,
                "time": 4
            },
            {
                "type": "note_on",
                "note": 36,
                "velocity": 0,
                "time": 0
            },
            {
                "type": "note_on",
                "note": 38,
                "velocity": 87,
                "time": 93
            },
            {
                "type": "note_on",
                "note": 42,
                "velocity": 48,
                "time": 1
            },
            {
                "type": "note_on",
                "note": 38,
                "velocity": 0,
                "time": 3
            },
            {
                "type": "note_on",
                "note": 42,
                "velocity": 0,
                "time": 1
            },
            {
                "type": "note_on",
                "note": 42,
                "velocity": 46,
                "time": 90
            },
            {
                "type": "note_on",
                "note": 36,
                "velocity": 67,
                "time": 0
            },
            {
                "type": "note_on",
                "note": 36,
                "velocity": 0,
                "time": 4
            },
            {
                "type": "note_on",
                "note": 42,
                "velocity": 0,
                "time": 0
            },
            {
                "type": "note_on",
                "note": 36,
                "velocity": 76,
                "time": 94
            },
            {
                "type": "note_on",
                "note": 49,
                "velocity": 62,
                "time": 0
            },
            {
                "type": "note_on",
                "note": 49,
                "velocity": 0,
                "time": 4
            },
            {
                "type": "note_on",
                "note": 36,
                "velocity": 0,
                "time": 0
            },
            {
                "type": "note_on",
                "note": 42,
                "velocity": 25,
                "time": 89
            },
            {
                "type": "note_on",
                "note": 36,
                "velocity": 68,
                "time": 0
            },
            {
                "type": "note_on",
                "note": 36,
                "velocity": 0,
                "time": 4
            },
            {
                "type": "note_on",
                "note": 42,
                "velocity": 0,
                "time": 0
            },
            {
                "type": "note_on",
                "note": 38,
                "velocity": 84,
                "time": 93
            },
            {
                "type": "note_on",
                "note": 42,
                "velocity": 48,
                "time": 0
            },
            {
                "type": "note_on",
                "note": 42,
                "velocity": 0,
                "time": 4
            },
            {
                "type": "note_on",
                "note": 38,
                "velocity": 0,
                "time": 0
            },
            {
                "type": "note_on",
                "note": 36,
                "velocity": 58,
                "time": 91
            },
            {
                "type": "note_on",
                "note": 42,
                "velocity": 46,
                "time": 0
            },
            {
                "type": "note_on",
                "note": 42,
                "velocity": 0,
                "time": 4
            },
            {
                "type": "note_on",
                "note": 36,
                "velocity": 0,
                "time": 0
            },
            {
                "type": "note_on",
                "note": 49,
                "velocity": 63,
                "time": 94
            },
            {
                "type": "note_on",
                "note": 36,
                "velocity": 83,
                "time": 0
            },
            {
                "type": "note_on",
                "note": 36,
                "velocity": 0,
                "time": 4
            },
            {
                "type": "note_on",
                "note": 49,
                "velocity": 0,
                "time": 0
            },
            {
                "type": "note_on",
                "note": 42,
                "velocity": 48,
                "time": 91
            },
            {
                "type": "note_on",
                "note": 36,
                "velocity": 59,
                "time": 0
            },
            {
                "type": "note_on",
                "note": 36,
                "velocity": 0,
                "time": 4
            },
            {
                "type": "note_on",
                "note": 42,
                "velocity": 0,
                "time": 0
            },
            {
                "type": "note_on",
                "note": 38,
                "velocity": 91,
                "time": 92
            },
            {
                "type": "note_on",
                "note": 42,
                "velocity": 66,
                "time": 1
            },
            {
                "type": "note_on",
                "note": 38,
                "velocity": 0,
                "time": 3
            },
            {
                "type": "note_on",
                "note": 42,
                "velocity": 0,
                "time": 1
            },
            {
                "type": "note_on",
                "note": 42,
                "velocity": 48,
                "time": 90
            },
            {
                "type": "note_on",
                "note": 36,
                "velocity": 61,
                "time": 0
            },
            {
                "type": "note_on",
                "note": 36,
                "velocity": 0,
                "time": 4
            },
            {
                "type": "note_on",
                "note": 42,
                "velocity": 0,
                "time": 0
            },
            {
                "type": "note_on",
                "note": 49,
                "velocity": 59,
                "time": 94
            },
            {
                "type": "note_on",
                "note": 36,
                "velocity": 80,
                "time": 0
            },
            {
                "type": "note_on",
                "note": 36,
                "velocity": 0,
                "time": 4
            },
            {
                "type": "note_on",
                "note": 49,
                "velocity": 0,
                "time": 0
            },
            {
                "type": "note_on",
                "note": 42,
                "velocity": 48,
                "time": 188
            },
            {
                "type": "note_on",
                "note": 38,
                "velocity": 91,
                "time": 0
            },
            {
                "type": "note_on",
                "note": 38,
                "velocity": 0,
                "time": 4
            },
            {
                "type": "note_on",
                "note": 42,
                "velocity": 0,
                "time": 0
            },
            {
                "type": "note_on",
                "note": 42,
                "velocity": 48,
                "time": 90
            },
            {
                "type": "note_on",
                "note": 42,
                "velocity": 0,
                "time": 4
            },
            {
                "type": "note_on",
                "note": 42,
                "velocity": 45,
                "time": 93
            },
            {
                "type": "note_on",
                "note": 36,
                "velocity": 72,
                "time": 0
            },
            {
                "type": "note_on",
                "note": 36,
                "velocity": 0,
                "time": 4
            },
            {
                "type": "note_on",
                "note": 42,
                "velocity": 0,
                "time": 0
            },
            {
                "type": "note_on",
                "note": 42,
                "velocity": 48,
                "time": 92
            },
            {
                "type": "note_on",
                "note": 36,
                "velocity": 72,
                "time": 0
            },
            {
                "type": "note_on",
                "note": 36,
                "velocity": 0,
                "time": 4
            },
            {
                "type": "note_on",
                "note": 42,
                "velocity": 0,
                "time": 0
            },
            {
                "type": "note_on",
                "note": 38,
                "velocity": 80,
                "time": 92
            },
            {
                "type": "note_on",
                "note": 42,
                "velocity": 68,
                "time": 1
            },
            {
                "type": "note_on",
                "note": 38,
                "velocity": 0,
                "time": 3
            },
            {
                "type": "note_on",
                "note": 42,
                "velocity": 0,
                "time": 1
            },
            {
                "type": "note_on",
                "note": 42,
                "velocity": 55,
                "time": 91
            },
            {
                "type": "note_on",
                "note": 42,
                "velocity": 0,
                "time": 4
            },
            {
                "type": "note_on",
                "note": 49,
                "velocity": 70,
                "time": 94
            },
            {
                "type": "note_on",
                "note": 36,
                "velocity": 76,
                "time": 0
            },
            {
                "type": "note_on",
                "note": 36,
                "velocity": 0,
                "time": 4
            },
            {
                "type": "note_on",
                "note": 49,
                "velocity": 0,
                "time": 0
            },
            {
                "type": "note_on",
                "note": 38,
                "velocity": 81,
                "time": 186
            },
            {
                "type": "note_on",
                "note": 38,
                "velocity": 0,
                "time": 4
            },
            {
                "type": "note_on",
                "note": 36,
                "velocity": 59,
                "time": 93
            },
            {
                "type": "note_on",
                "note": 49,
                "velocity": 66,
                "time": 0
            },
            {
                "type": "note_on",
                "note": 49,
                "velocity": 0,
                "time": 4
            },
            {
                "type": "note_on",
                "note": 36,
                "velocity": 0,
                "time": 0
            },
            {
                "type": "note_on",
                "note": 36,
                "velocity": 80,
                "time": 93
            },
            {
                "type": "note_on",
                "note": 49,
                "velocity": 80,
                "time": 0
            },
            {
                "type": "note_on",
                "note": 49,
                "velocity": 0,
                "time": 4
            },
            {
                "type": "note_on",
                "note": 36,
                "velocity": 0,
                "time": 0
            },
            {
                "type": "note_on",
                "note": 49,
                "velocity": 78,
                "time": 187
            },
            {
                "type": "note_on",
                "note": 36,
                "velocity": 78,
                "time": 0
            },
            {
                "type": "note_on",
                "note": 36,
                "velocity": 0,
                "time": 4
            },
            {
                "type": "note_on",
                "note": 49,
                "velocity": 0,
                "time": 0
            },
            {
                "type": "note_on",
                "note": 36,
                "velocity": 87,
                "time": 188
            },
            {
                "type": "note_on",
                "note": 49,
                "velocity": 82,
                "time": 0
            },
            {
                "type": "note_on",
                "note": 49,
                "velocity": 0,
                "time": 4
            },
            {
                "type": "note_on",
                "note": 36,
                "velocity": 0,
                "time": 0
            },
            {
                "type": "note_on",
                "note": 36,
                "velocity": 85,
                "time": 248
            },
            {
                "type": "note_on",
                "note": 49,
                "velocity": 66,
                "time": 1
            },
            {
                "type": "note_on",
                "note": 36,
                "velocity": 0,
                "time": 3
            },
            {
                "type": "note_on",
                "note": 49,
                "velocity": 0,
                "time": 1
            },
            {
                "type": "note_on",
                "note": 36,
                "velocity": 86,
                "time": 58
            },
            {
                "type": "note_on",
                "note": 36,
                "velocity": 0,
                "time": 4
            },
            {
                "type": "note_on",
                "note": 49,
                "velocity": 63,
                "time": 0
            },
            {
                "type": "note_on",
                "note": 49,
                "velocity": 0,
                "time": 4
            },
            {
                "type": "note_on",
                "note": 36,
                "velocity": 97,
                "time": 62
            },
            {
                "type": "note_on",
                "note": 49,
                "velocity": 85,
                "time": 0
            },
            {
                "type": "note_on",
                "note": 49,
                "velocity": 0,
                "time": 4
            },
            {
                "type": "note_on",
                "note": 36,
                "velocity": 0,
                "time": 0
            },
            {
                "type": "note_on",
                "note": 49,
                "velocity": 82,
                "time": 187
            },
            {
                "type": "note_on",
                "note": 36,
                "velocity": 90,
                "time": 0
            },
            {
                "type": "note_on",
                "note": 36,
                "velocity": 0,
                "time": 4
            },
            {
                "type": "note_on",
                "note": 49,
                "velocity": 0,
                "time": 0
            },
            {
                "type": "note_on",
                "note": 36,
                "velocity": 90,
                "time": 193
            },
            {
                "type": "note_on",
                "note": 49,
                "velocity": 97,
                "time": 0
            },
            {
                "type": "note_on",
                "note": 49,
                "velocity": 0,
                "time": 4
            },
            {
                "type": "note_on",
                "note": 36,
                "velocity": 0,
                "time": 0
            },
            {
                "type": "note_on",
                "note": 36,
                "velocity": 86,
                "time": 4600
            },
            {
                "type": "note_on",
                "note": 49,
                "velocity": 58,
                "time": 0
            },
            {
                "type": "note_on",
                "note": 49,
                "velocity": 0,
                "time": 4
            },
            {
                "type": "note_on",
                "note": 36,
                "velocity": 0,
                "time": 0
            },
            {
                "type": "note_on",
                "note": 43,
                "velocity": 50,
                "time": 187
            },
            {
                "type": "note_on",
                "note": 43,
                "velocity": 0,
                "time": 4
            },
            {
                "type": "note_on",
                "note": 43,
                "velocity": 53,
                "time": 91
            },
            {
                "type": "note_on",
                "note": 43,
                "velocity": 0,
                "time": 4
            },
            {
                "type": "note_on",
                "note": 43,
                "velocity": 75,
                "time": 83
            },
            {
                "type": "note_on",
                "note": 43,
                "velocity": 0,
                "time": 4
            },
            {
                "type": "note_on",
                "note": 43,
                "velocity": 73,
                "time": 6
            },
            {
                "type": "note_on",
                "note": 43,
                "velocity": 0,
                "time": 4
            },
            {
                "type": "note_on",
                "note": 43,
                "velocity": 77,
                "time": 178
            },
            {
                "type": "note_on",
                "note": 43,
                "velocity": 0,
                "time": 4
            },
            {
                "type": "note_on",
                "note": 43,
                "velocity": 80,
                "time": 6
            },
            {
                "type": "note_on",
                "note": 43,
                "velocity": 0,
                "time": 4
            },
            {
                "type": "note_on",
                "note": 45,
                "velocity": 92,
                "time": 183
            },
            {
                "type": "note_on",
                "note": 45,
                "velocity": 0,
                "time": 4
            },
            {
                "type": "note_on",
                "note": 43,
                "velocity": 88,
                "time": 2
            },
            {
                "type": "note_on",
                "note": 43,
                "velocity": 0,
                "time": 4
            },
            {
                "type": "note_on",
                "note": 45,
                "velocity": 89,
                "time": 180
            },
            {
                "type": "note_on",
                "note": 45,
                "velocity": 0,
                "time": 4
            },
            {
                "type": "note_on",
                "note": 43,
                "velocity": 94,
                "time": 1
            },
            {
                "type": "note_on",
                "note": 43,
                "velocity": 0,
                "time": 4
            },
            {
                "type": "note_on",
                "note": 41,
                "velocity": 91,
                "time": 180
            },
            {
                "type": "note_on",
                "note": 41,
                "velocity": 0,
                "time": 4
            },
            {
                "type": "note_on",
                "note": 41,
                "velocity": 96,
                "time": 6
            },
            {
                "type": "note_on",
                "note": 41,
                "velocity": 0,
                "time": 4
            },
            {
                "type": "note_on",
                "note": 41,
                "velocity": 102,
                "time": 179
            },
            {
                "type": "note_on",
                "note": 41,
                "velocity": 0,
                "time": 4
            },
            {
                "type": "note_on",
                "note": 41,
                "velocity": 93,
                "time": 4
            },
            {
                "type": "note_on",
                "note": 41,
                "velocity": 0,
                "time": 4
            },
            {
                "type": "note_on",
                "note": 49,
                "velocity": 54,
                "time": 189
            },
            {
                "type": "note_on",
                "note": 36,
                "velocity": 104,
                "time": 0
            },
            {
                "type": "note_on",
                "note": 36,
                "velocity": 0,
                "time": 4
            },
            {
                "type": "note_on",
                "note": 49,
                "velocity": 0,
                "time": 0
            },
            {
                "type": "note_on",
                "note": 36,
                "velocity": 80,
                "time": 4989
            },
            {
                "type": "note_on",
                "note": 49,
                "velocity": 94,
                "time": 1
            },
            {
                "type": "note_on",
                "note": 36,
                "velocity": 0,
                "time": 3
            },
            {
                "type": "note_on",
                "note": 49,
                "velocity": 0,
                "time": 1
            },
            {
                "type": "note_on",
                "note": 43,
                "velocity": 67,
                "time": 185
            },
            {
                "type": "note_on",
                "note": 43,
                "velocity": 0,
                "time": 4
            },
            {
                "type": "note_on",
                "note": 43,
                "velocity": 68,
                "time": 92
            },
            {
                "type": "note_on",
                "note": 43,
                "velocity": 0,
                "time": 4
            },
            {
                "type": "note_on",
                "note": 43,
                "velocity": 80,
                "time": 93
            },
            {
                "type": "note_on",
                "note": 43,
                "velocity": 0,
                "time": 4
            },
            {
                "type": "note_on",
                "note": 43,
                "velocity": 89,
                "time": 1
            },
            {
                "type": "note_on",
                "note": 43,
                "velocity": 0,
                "time": 4
            },
            {
                "type": "note_on",
                "note": 43,
                "velocity": 88,
                "time": 173
            },
            {
                "type": "note_on",
                "note": 43,
                "velocity": 0,
                "time": 4
            },
            {
                "type": "note_on",
                "note": 43,
                "velocity": 83,
                "time": 6
            },
            {
                "type": "note_on",
                "note": 43,
                "velocity": 0,
                "time": 4
            },
            {
                "type": "note_on",
                "note": 43,
                "velocity": 87,
                "time": 189
            },
            {
                "type": "note_on",
                "note": 43,
                "velocity": 0,
                "time": 4
            },
            {
                "type": "note_on",
                "note": 43,
                "velocity": 89,
                "time": 0
            },
            {
                "type": "note_on",
                "note": 43,
                "velocity": 0,
                "time": 4
            },
            {
                "type": "note_on",
                "note": 43,
                "velocity": 87,
                "time": 86
            },
            {
                "type": "note_on",
                "note": 43,
                "velocity": 0,
                "time": 4
            },
            {
                "type": "note_on",
                "note": 43,
                "velocity": 85,
                "time": 83
            },
            {
                "type": "note_on",
                "note": 43,
                "velocity": 0,
                "time": 4
            },
            {
                "type": "note_on",
                "note": 43,
                "velocity": 88,
                "time": 6
            },
            {
                "type": "note_on",
                "note": 43,
                "velocity": 0,
                "time": 4
            },
            {
                "type": "note_on",
                "note": 43,
                "velocity": 85,
                "time": 189
            },
            {
                "type": "note_on",
                "note": 43,
                "velocity": 0,
                "time": 4
            },
            {
                "type": "note_on",
                "note": 43,
                "velocity": 85,
                "time": 177
            },
            {
                "type": "note_on",
                "note": 43,
                "velocity": 0,
                "time": 4
            },
            {
                "type": "note_on",
                "note": 43,
                "velocity": 88,
                "time": 7
            },
            {
                "type": "note_on",
                "note": 43,
                "velocity": 0,
                "time": 4
            },
            {
                "type": "note_on",
                "note": 49,
                "velocity": 97,
                "time": 187
            },
            {
                "type": "note_on",
                "note": 43,
                "velocity": 95,
                "time": 0
            },
            {
                "type": "note_on",
                "note": 43,
                "velocity": 0,
                "time": 4
            },
            {
                "type": "note_on",
                "note": 49,
                "velocity": 0,
                "time": 0
            },
            {
                "type": "note_on",
                "note": 43,
                "velocity": 85,
                "time": 178
            },
            {
                "type": "note_on",
                "note": 43,
                "velocity": 0,
                "time": 4
            },
            {
                "type": "note_on",
                "note": 43,
                "velocity": 85,
                "time": 5
            },
            {
                "type": "note_on",
                "note": 43,
                "velocity": 0,
                "time": 4
            },
            {
                "type": "note_on",
                "note": 43,
                "velocity": 79,
                "time": 91
            },
            {
                "type": "note_on",
                "note": 43,
                "velocity": 0,
                "time": 4
            },
            {
                "type": "note_on",
                "note": 49,
                "velocity": 97,
                "time": 94
            },
            {
                "type": "note_on",
                "note": 43,
                "velocity": 88,
                "time": 0
            },
            {
                "type": "note_on",
                "note": 41,
                "velocity": 85,
                "time": 0
            },
            {
                "type": "note_on",
                "note": 41,
                "velocity": 0,
                "time": 4
            },
            {
                "type": "note_on",
                "note": 43,
                "velocity": 0,
                "time": 0
            },
            {
                "type": "note_on",
                "note": 49,
                "velocity": 0,
                "time": 0
            },
            {
                "type": "note_on",
                "note": 43,
                "velocity": 80,
                "time": 189
            },
            {
                "type": "note_on",
                "note": 43,
                "velocity": 0,
                "time": 4
            },
            {
                "type": "note_on",
                "note": 43,
                "velocity": 85,
                "time": 1
            },
            {
                "type": "note_on",
                "note": 43,
                "velocity": 0,
                "time": 4
            },
            {
                "type": "note_on",
                "note": 43,
                "velocity": 85,
                "time": 84
            },
            {
                "type": "note_on",
                "note": 43,
                "velocity": 0,
                "time": 4
            },
            {
                "type": "note_on",
                "note": 41,
                "velocity": 85,
                "time": 93
            },
            {
                "type": "note_on",
                "note": 36,
                "velocity": 81,
                "time": 0
            },
            {
                "type": "note_on",
                "note": 36,
                "velocity": 0,
                "time": 4
            },
            {
                "type": "note_on",
                "note": 41,
                "velocity": 0,
                "time": 0
            },
            {
                "type": "note_on",
                "note": 41,
                "velocity": 85,
                "time": 184
            },
            {
                "type": "note_on",
                "note": 41,
                "velocity": 0,
                "time": 4
            },
            {
                "type": "note_on",
                "note": 36,
                "velocity": 91,
                "time": 0
            },
            {
                "type": "note_on",
                "note": 36,
                "velocity": 0,
                "time": 4
            },
            {
                "type": "note_on",
                "note": 36,
                "velocity": 92,
                "time": 189
            },
            {
                "type": "note_on",
                "note": 49,
                "velocity": 94,
                "time": 0
            },
            {
                "type": "note_on",
                "note": 49,
                "velocity": 0,
                "time": 4
            },
            {
                "type": "note_on",
                "note": 36,
                "velocity": 0,
                "time": 0
            },
            {
                "type": "note_on",
                "note": 45,
                "velocity": 88,
                "time": 2491
            },
            {
                "type": "note_on",
                "note": 47,
                "velocity": 85,
                "time": 0
            },
            {
                "type": "note_on",
                "note": 47,
                "velocity": 0,
                "time": 4
            },
            {
                "type": "note_on",
                "note": 45,
                "velocity": 0,
                "time": 0
            },
            {
                "type": "note_on",
                "note": 47,
                "velocity": 85,
                "time": 188
            },
            {
                "type": "note_on",
                "note": 45,
                "velocity": 95,
                "time": 0
            },
            {
                "type": "note_on",
                "note": 45,
                "velocity": 0,
                "time": 4
            },
            {
                "type": "note_on",
                "note": 47,
                "velocity": 0,
                "time": 0
            },
            {
                "type": "note_on",
                "note": 47,
                "velocity": 86,
                "time": 188
            },
            {
                "type": "note_on",
                "note": 45,
                "velocity": 100,
                "time": 0
            },
            {
                "type": "note_on",
                "note": 45,
                "velocity": 0,
                "time": 4
            },
            {
                "type": "note_on",
                "note": 47,
                "velocity": 0,
                "time": 0
            },
            {
                "type": "note_on",
                "note": 49,
                "velocity": 88,
                "time": 189
            },
            {
                "type": "note_on",
                "note": 36,
                "velocity": 91,
                "time": 0
            },
            {
                "type": "note_on",
                "note": 36,
                "velocity": 0,
                "time": 4
            },
            {
                "type": "note_on",
                "note": 49,
                "velocity": 0,
                "time": 0
            },
            {
                "type": "note_on",
                "note": 43,
                "velocity": 68,
                "time": 282
            },
            {
                "type": "note_on",
                "note": 43,
                "velocity": 0,
                "time": 4
            },
            {
                "type": "note_on",
                "note": 43,
                "velocity": 71,
                "time": 95
            },
            {
                "type": "note_on",
                "note": 43,
                "velocity": 0,
                "time": 4
            },
            {
                "type": "note_on",
                "note": 43,
                "velocity": 75,
                "time": 90
            },
            {
                "type": "note_on",
                "note": 43,
                "velocity": 0,
                "time": 4
            },
            {
                "type": "note_on",
                "note": 43,
                "velocity": 75,
                "time": 92
            },
            {
                "type": "note_on",
                "note": 43,
                "velocity": 0,
                "time": 4
            },
            {
                "type": "note_on",
                "note": 43,
                "velocity": 79,
                "time": 92
            },
            {
                "type": "note_on",
                "note": 43,
                "velocity": 0,
                "time": 4
            },
            {
                "type": "note_on",
                "note": 41,
                "velocity": 83,
                "time": 93
            },
            {
                "type": "note_on",
                "note": 41,
                "velocity": 0,
                "time": 4
            },
            {
                "type": "note_on",
                "note": 45,
                "velocity": 86,
                "time": 566
            },
            {
                "type": "note_on",
                "note": 45,
                "velocity": 0,
                "time": 4
            },
            {
                "type": "note_on",
                "note": 43,
                "velocity": 87,
                "time": 1
            },
            {
                "type": "note_on",
                "note": 43,
                "velocity": 0,
                "time": 4
            },
            {
                "type": "note_on",
                "note": 43,
                "velocity": 86,
                "time": 188
            },
            {
                "type": "note_on",
                "note": 45,
                "velocity": 79,
                "time": 1
            },
            {
                "type": "note_on",
                "note": 43,
                "velocity": 0,
                "time": 3
            },
            {
                "type": "note_on",
                "note": 45,
                "velocity": 0,
                "time": 1
            },
            {
                "type": "note_on",
                "note": 45,
                "velocity": 79,
                "time": 187
            },
            {
                "type": "note_on",
                "note": 43,
                "velocity": 91,
                "time": 0
            },
            {
                "type": "note_on",
                "note": 43,
                "velocity": 0,
                "time": 4
            },
            {
                "type": "note_on",
                "note": 45,
                "velocity": 0,
                "time": 0
            },
            {
                "type": "note_on",
                "note": 43,
                "velocity": 86,
                "time": 92
            },
            {
                "type": "note_on",
                "note": 43,
                "velocity": 0,
                "time": 4
            },
            {
                "type": "note_on",
                "note": 43,
                "velocity": 104,
                "time": 93
            },
            {
                "type": "note_on",
                "note": 43,
                "velocity": 0,
                "time": 4
            },
            {
                "type": "note_on",
                "note": 43,
                "velocity": 92,
                "time": 91
            },
            {
                "type": "note_on",
                "note": 43,
                "velocity": 0,
                "time": 4
            },
            {
                "type": "note_on",
                "note": 43,
                "velocity": 90,
                "time": 92
            },
            {
                "type": "note_on",
                "note": 43,
                "velocity": 0,
                "time": 4
            },
            {
                "type": "note_on",
                "note": 43,
                "velocity": 94,
                "time": 92
            },
            {
                "type": "note_on",
                "note": 43,
                "velocity": 0,
                "time": 4
            },
            {
                "type": "note_on",
                "note": 41,
                "velocity": 92,
                "time": 94
            },
            {
                "type": "note_on",
                "note": 41,
                "velocity": 0,
                "time": 4
            },
            {
                "type": "note_on",
                "note": 43,
                "velocity": 92,
                "time": 569
            },
            {
                "type": "note_on",
                "note": 45,
                "velocity": 79,
                "time": 2
            },
            {
                "type": "note_on",
                "note": 43,
                "velocity": 0,
                "time": 2
            },
            {
                "type": "note_on",
                "note": 45,
                "velocity": 0,
                "time": 2
            },
            {
                "type": "note_on",
                "note": 45,
                "velocity": 79,
                "time": 186
            },
            {
                "type": "note_on",
                "note": 43,
                "velocity": 106,
                "time": 0
            },
            {
                "type": "note_on",
                "note": 43,
                "velocity": 0,
                "time": 4
            },
            {
                "type": "note_on",
                "note": 45,
                "velocity": 0,
                "time": 0
            },
            {
                "type": "note_on",
                "note": 45,
                "velocity": 79,
                "time": 187
            },
            {
                "type": "note_on",
                "note": 43,
                "velocity": 97,
                "time": 2
            },
            {
                "type": "note_on",
                "note": 45,
                "velocity": 0,
                "time": 2
            },
            {
                "type": "note_on",
                "note": 43,
                "velocity": 0,
                "time": 2
            },
            {
                "type": "note_on",
                "note": 43,
                "velocity": 87,
                "time": 92
            },
            {
                "type": "note_on",
                "note": 43,
                "velocity": 0,
                "time": 4
            },
            {
                "type": "note_on",
                "note": 43,
                "velocity": 90,
                "time": 93
            },
            {
                "type": "note_on",
                "note": 43,
                "velocity": 0,
                "time": 4
            },
            {
                "type": "note_on",
                "note": 43,
                "velocity": 92,
                "time": 91
            },
            {
                "type": "note_on",
                "note": 43,
                "velocity": 0,
                "time": 4
            },
            {
                "type": "note_on",
                "note": 43,
                "velocity": 91,
                "time": 93
            },
            {
                "type": "note_on",
                "note": 43,
                "velocity": 0,
                "time": 4
            },
            {
                "type": "note_on",
                "note": 43,
                "velocity": 88,
                "time": 91
            },
            {
                "type": "note_on",
                "note": 43,
                "velocity": 0,
                "time": 4
            },
            {
                "type": "note_on",
                "note": 41,
                "velocity": 97,
                "time": 93
            },
            {
                "type": "note_on",
                "note": 41,
                "velocity": 0,
                "time": 4
            },
            {
                "type": "note_on",
                "note": 43,
                "velocity": 90,
                "time": 380
            },
            {
                "type": "note_on",
                "note": 43,
                "velocity": 0,
                "time": 4
            },
            {
                "type": "note_on",
                "note": 43,
                "velocity": 92,
                "time": 91
            },
            {
                "type": "note_on",
                "note": 43,
                "velocity": 0,
                "time": 4
            },
            {
                "type": "note_on",
                "note": 43,
                "velocity": 91,
                "time": 93
            },
            {
                "type": "note_on",
                "note": 43,
                "velocity": 0,
                "time": 4
            },
            {
                "type": "note_on",
                "note": 43,
                "velocity": 88,
                "time": 91
            },
            {
                "type": "note_on",
                "note": 43,
                "velocity": 0,
                "time": 4
            },
            {
                "type": "note_on",
                "note": 41,
                "velocity": 87,
                "time": 93
            },
            {
                "type": "note_on",
                "note": 41,
                "velocity": 0,
                "time": 4
            },
            {
                "type": "note_on",
                "note": 43,
                "velocity": 94,
                "time": 381
            },
            {
                "type": "note_on",
                "note": 43,
                "velocity": 0,
                "time": 4
            },
            {
                "type": "note_on",
                "note": 43,
                "velocity": 87,
                "time": 91
            },
            {
                "type": "note_on",
                "note": 43,
                "velocity": 0,
                "time": 4
            },
            {
                "type": "note_on",
                "note": 43,
                "velocity": 90,
                "time": 92
            },
            {
                "type": "note_on",
                "note": 43,
                "velocity": 0,
                "time": 4
            },
            {
                "type": "note_on",
                "note": 43,
                "velocity": 87,
                "time": 92
            },
            {
                "type": "note_on",
                "note": 43,
                "velocity": 0,
                "time": 4
            },
            {
                "type": "note_on",
                "note": 41,
                "velocity": 102,
                "time": 92
            },
            {
                "type": "note_on",
                "note": 41,
                "velocity": 0,
                "time": 4
            },
            {
                "type": "note_on",
                "note": 49,
                "velocity": 76,
                "time": 1150
            },
            {
                "type": "note_on",
                "note": 36,
                "velocity": 81,
                "time": 0
            },
            {
                "type": "note_on",
                "note": 36,
                "velocity": 0,
                "time": 4
            },
            {
                "type": "note_on",
                "note": 49,
                "velocity": 0,
                "time": 0
            },
            {
                "type": "note_on",
                "note": 49,
                "velocity": 72,
                "time": 186
            },
            {
                "type": "note_on",
                "note": 36,
                "velocity": 81,
                "time": 0
            },
            {
                "type": "note_on",
                "note": 36,
                "velocity": 0,
                "time": 4
            },
            {
                "type": "note_on",
                "note": 49,
                "velocity": 0,
                "time": 0
            },
            {
                "type": "note_on",
                "note": 36,
                "velocity": 81,
                "time": 189
            },
            {
                "type": "note_on",
                "note": 49,
                "velocity": 85,
                "time": 0
            },
            {
                "type": "note_on",
                "note": 49,
                "velocity": 0,
                "time": 4
            },
            {
                "type": "note_on",
                "note": 36,
                "velocity": 0,
                "time": 0
            },
            {
                "type": "note_on",
                "note": 49,
                "velocity": 82,
                "time": 190
            },
            {
                "type": "note_on",
                "note": 36,
                "velocity": 80,
                "time": 0
            },
            {
                "type": "note_on",
                "note": 36,
                "velocity": 0,
                "time": 4
            },
            {
                "type": "note_on",
                "note": 49,
                "velocity": 0,
                "time": 0
            },
            {
                "type": "note_on",
                "note": 36,
                "velocity": 83,
                "time": 188
            },
            {
                "type": "note_on",
                "note": 49,
                "velocity": 94,
                "time": 0
            },
            {
                "type": "note_on",
                "note": 49,
                "velocity": 0,
                "time": 4
            },
            {
                "type": "note_on",
                "note": 36,
                "velocity": 0,
                "time": 0
            },
            {
                "type": "note_on",
                "note": 49,
                "velocity": 91,
                "time": 185
            },
            {
                "type": "note_on",
                "note": 36,
                "velocity": 85,
                "time": 0
            },
            {
                "type": "note_on",
                "note": 36,
                "velocity": 0,
                "time": 4
            },
            {
                "type": "note_on",
                "note": 49,
                "velocity": 0,
                "time": 0
            },
            {
                "type": "note_on",
                "note": 36,
                "velocity": 91,
                "time": 190
            },
            {
                "type": "note_on",
                "note": 49,
                "velocity": 104,
                "time": 0
            },
            {
                "type": "note_on",
                "note": 49,
                "velocity": 0,
                "time": 4
            },
            {
                "type": "note_on",
                "note": 36,
                "velocity": 0,
                "time": 0
            },
            {
                "type": "note_on",
                "note": 45,
                "velocity": 70,
                "time": 952
            },
            {
                "type": "note_on",
                "note": 43,
                "velocity": 67,
                "time": 2
            },
            {
                "type": "note_on",
                "note": 45,
                "velocity": 0,
                "time": 2
            },
            {
                "type": "note_on",
                "note": 43,
                "velocity": 0,
                "time": 2
            },
            {
                "type": "note_on",
                "note": 43,
                "velocity": 60,
                "time": 91
            },
            {
                "type": "note_on",
                "note": 45,
                "velocity": 62,
                "time": 0
            },
            {
                "type": "note_on",
                "note": 45,
                "velocity": 0,
                "time": 4
            },
            {
                "type": "note_on",
                "note": 43,
                "velocity": 0,
                "time": 0
            },
            {
                "type": "note_on",
                "note": 45,
                "velocity": 74,
                "time": 87
            },
            {
                "type": "note_on",
                "note": 45,
                "velocity": 0,
                "time": 4
            },
            {
                "type": "note_on",
                "note": 43,
                "velocity": 73,
                "time": 1
            },
            {
                "type": "note_on",
                "note": 43,
                "velocity": 0,
                "time": 4
            },
            {
                "type": "note_on",
                "note": 45,
                "velocity": 70,
                "time": 92
            },
            {
                "type": "note_on",
                "note": 43,
                "velocity": 66,
                "time": 0
            },
            {
                "type": "note_on",
                "note": 43,
                "velocity": 0,
                "time": 4
            },
            {
                "type": "note_on",
                "note": 45,
                "velocity": 0,
                "time": 0
            },
            {
                "type": "note_on",
                "note": 45,
                "velocity": 68,
                "time": 91
            },
            {
                "type": "note_on",
                "note": 43,
                "velocity": 68,
                "time": 1
            },
            {
                "type": "note_on",
                "note": 45,
                "velocity": 0,
                "time": 3
            },
            {
                "type": "note_on",
                "note": 43,
                "velocity": 0,
                "time": 1
            },
            {
                "type": "note_on",
                "note": 45,
                "velocity": 73,
                "time": 87
            },
            {
                "type": "note_on",
                "note": 45,
                "velocity": 0,
                "time": 4
            },
            {
                "type": "note_on",
                "note": 43,
                "velocity": 74,
                "time": 0
            },
            {
                "type": "note_on",
                "note": 43,
                "velocity": 0,
                "time": 4
            },
            {
                "type": "note_on",
                "note": 36,
                "velocity": 98,
                "time": 93
            },
            {
                "type": "note_on",
                "note": 49,
                "velocity": 88,
                "time": 1
            },
            {
                "type": "note_on",
                "note": 36,
                "velocity": 0,
                "time": 3
            },
            {
                "type": "note_on",
                "note": 49,
                "velocity": 0,
                "time": 1
            },
            {
                "type": "note_on",
                "note": 36,
                "velocity": 92,
                "time": 380
            },
            {
                "type": "note_on",
                "note": 49,
                "velocity": 97,
                "time": 1
            },
            {
                "type": "note_on",
                "note": 36,
                "velocity": 0,
                "time": 3
            },
            {
                "type": "note_on",
                "note": 49,
                "velocity": 0,
                "time": 1
            },
            {
                "type": "note_on",
                "note": 45,
                "velocity": 64,
                "time": 281
            },
            {
                "type": "note_on",
                "note": 43,
                "velocity": 61,
                "time": 0
            },
            {
                "type": "note_on",
                "note": 43,
                "velocity": 0,
                "time": 4
            },
            {
                "type": "note_on",
                "note": 45,
                "velocity": 0,
                "time": 0
            },
            {
                "type": "note_on",
                "note": 45,
                "velocity": 79,
                "time": 89
            },
            {
                "type": "note_on",
                "note": 45,
                "velocity": 0,
                "time": 4
            },
            {
                "type": "note_on",
                "note": 43,
                "velocity": 78,
                "time": 0
            },
            {
                "type": "note_on",
                "note": 43,
                "velocity": 0,
                "time": 4
            },
            {
                "type": "note_on",
                "note": 45,
                "velocity": 73,
                "time": 188
            },
            {
                "type": "note_on",
                "note": 43,
                "velocity": 76,
                "time": 0
            },
            {
                "type": "note_on",
                "note": 43,
                "velocity": 0,
                "time": 4
            },
            {
                "type": "note_on",
                "note": 45,
                "velocity": 0,
                "time": 0
            },
            {
                "type": "note_on",
                "note": 45,
                "velocity": 75,
                "time": 189
            },
            {
                "type": "note_on",
                "note": 43,
                "velocity": 75,
                "time": 0
            },
            {
                "type": "note_on",
                "note": 43,
                "velocity": 0,
                "time": 4
            },
            {
                "type": "note_on",
                "note": 45,
                "velocity": 0,
                "time": 0
            },
            {
                "type": "note_on",
                "note": 45,
                "velocity": 52,
                "time": 87
            },
            {
                "type": "note_on",
                "note": 43,
                "velocity": 50,
                "time": 3
            },
            {
                "type": "note_on",
                "note": 45,
                "velocity": 0,
                "time": 1
            },
            {
                "type": "note_on",
                "note": 43,
                "velocity": 0,
                "time": 3
            },
            {
                "type": "note_on",
                "note": 43,
                "velocity": 54,
                "time": 93
            },
            {
                "type": "note_on",
                "note": 45,
                "velocity": 63,
                "time": 0
            },
            {
                "type": "note_on",
                "note": 45,
                "velocity": 0,
                "time": 4
            },
            {
                "type": "note_on",
                "note": 43,
                "velocity": 0,
                "time": 0
            },
            {
                "type": "note_on",
                "note": 43,
                "velocity": 80,
                "time": 92
            },
            {
                "type": "note_on",
                "note": 45,
                "velocity": 80,
                "time": 0
            },
            {
                "type": "note_on",
                "note": 45,
                "velocity": 0,
                "time": 4
            },
            {
                "type": "note_on",
                "note": 43,
                "velocity": 0,
                "time": 0
            },
            {
                "type": "note_on",
                "note": 45,
                "velocity": 90,
                "time": 93
            },
            {
                "type": "note_on",
                "note": 43,
                "velocity": 86,
                "time": 0
            },
            {
                "type": "note_on",
                "note": 43,
                "velocity": 0,
                "time": 4
            },
            {
                "type": "note_on",
                "note": 45,
                "velocity": 0,
                "time": 0
            },
            {
                "type": "note_on",
                "note": 45,
                "velocity": 80,
                "time": 187
            },
            {
                "type": "note_on",
                "note": 43,
                "velocity": 80,
                "time": 0
            },
            {
                "type": "note_on",
                "note": 43,
                "velocity": 0,
                "time": 4
            },
            {
                "type": "note_on",
                "note": 45,
                "velocity": 0,
                "time": 0
            },
            {
                "type": "note_on",
                "note": 36,
                "velocity": 81,
                "time": 189
            },
            {
                "type": "note_on",
                "note": 49,
                "velocity": 94,
                "time": 0
            },
            {
                "type": "note_on",
                "note": 49,
                "velocity": 0,
                "time": 4
            },
            {
                "type": "note_on",
                "note": 36,
                "velocity": 0,
                "time": 0
            },
            {
                "type": "note_on",
                "note": 45,
                "velocity": 70,
                "time": 186
            },
            {
                "type": "note_on",
                "note": 41,
                "velocity": 69,
                "time": 2
            },
            {
                "type": "note_on",
                "note": 45,
                "velocity": 0,
                "time": 2
            },
            {
                "type": "note_on",
                "note": 41,
                "velocity": 0,
                "time": 2
            },
            {
                "type": "note_on",
                "note": 41,
                "velocity": 55,
                "time": 119
            },
            {
                "type": "note_on",
                "note": 41,
                "velocity": 0,
                "time": 4
            },
            {
                "type": "note_on",
                "note": 41,
                "velocity": 70,
                "time": 63
            },
            {
                "type": "note_on",
                "note": 45,
                "velocity": 73,
                "time": 0
            },
            {
                "type": "note_on",
                "note": 45,
                "velocity": 0,
                "time": 4
            },
            {
                "type": "note_on",
                "note": 41,
                "velocity": 0,
                "time": 0
            },
            {
                "type": "note_on",
                "note": 45,
                "velocity": 77,
                "time": 189
            },
            {
                "type": "note_on",
                "note": 41,
                "velocity": 70,
                "time": 1
            },
            {
                "type": "note_on",
                "note": 45,
                "velocity": 0,
                "time": 3
            },
            {
                "type": "note_on",
                "note": 41,
                "velocity": 0,
                "time": 1
            },
            {
                "type": "note_on",
                "note": 41,
                "velocity": 72,
                "time": 186
            },
            {
                "type": "note_on",
                "note": 45,
                "velocity": 70,
                "time": 2
            },
            {
                "type": "note_on",
                "note": 41,
                "velocity": 0,
                "time": 2
            },
            {
                "type": "note_on",
                "note": 45,
                "velocity": 0,
                "time": 2
            },
            {
                "type": "note_on",
                "note": 45,
                "velocity": 70,
                "time": 182
            },
            {
                "type": "note_on",
                "note": 45,
                "velocity": 0,
                "time": 4
            },
            {
                "type": "note_on",
                "note": 41,
                "velocity": 75,
                "time": 1
            },
            {
                "type": "note_on",
                "note": 41,
                "velocity": 0,
                "time": 4
            },
            {
                "type": "note_on",
                "note": 41,
                "velocity": 75,
                "time": 187
            },
            {
                "type": "note_on",
                "note": 45,
                "velocity": 73,
                "time": 0
            },
            {
                "type": "note_on",
                "note": 45,
                "velocity": 0,
                "time": 4
            },
            {
                "type": "note_on",
                "note": 41,
                "velocity": 0,
                "time": 0
            },
            {
                "type": "note_on",
                "note": 45,
                "velocity": 70,
                "time": 121
            },
            {
                "type": "note_on",
                "note": 45,
                "velocity": 0,
                "time": 4
            },
            {
                "type": "note_on",
                "note": 41,
                "velocity": 83,
                "time": 61
            },
            {
                "type": "note_on",
                "note": 41,
                "velocity": 0,
                "time": 4
            },
            {
                "type": "note_on",
                "note": 45,
                "velocity": 90,
                "time": 0
            },
            {
                "type": "note_on",
                "note": 45,
                "velocity": 0,
                "time": 4
            },
            {
                "type": "note_on",
                "note": 41,
                "velocity": 76,
                "time": 187
            },
            {
                "type": "note_on",
                "note": 45,
                "velocity": 73,
                "time": 1
            },
            {
                "type": "note_on",
                "note": 41,
                "velocity": 0,
                "time": 3
            },
            {
                "type": "note_on",
                "note": 45,
                "velocity": 0,
                "time": 1
            },
            {
                "type": "note_on",
                "note": 41,
                "velocity": 70,
                "time": 187
            },
            {
                "type": "note_on",
                "note": 45,
                "velocity": 73,
                "time": 0
            },
            {
                "type": "note_on",
                "note": 45,
                "velocity": 0,
                "time": 4
            },
            {
                "type": "note_on",
                "note": 41,
                "velocity": 0,
                "time": 0
            },
            {
                "type": "note_on",
                "note": 45,
                "velocity": 80,
                "time": 184
            },
            {
                "type": "note_on",
                "note": 41,
                "velocity": 80,
                "time": 3
            },
            {
                "type": "note_on",
                "note": 45,
                "velocity": 0,
                "time": 1
            },
            {
                "type": "note_on",
                "note": 41,
                "velocity": 0,
                "time": 3
            },
            {
                "type": "note_on",
                "note": 41,
                "velocity": 79,
                "time": 189
            },
            {
                "type": "note_on",
                "note": 45,
                "velocity": 77,
                "time": 0
            },
            {
                "type": "note_on",
                "note": 45,
                "velocity": 0,
                "time": 4
            },
            {
                "type": "note_on",
                "note": 41,
                "velocity": 0,
                "time": 0
            },
            {
                "type": "note_on",
                "note": 45,
                "velocity": 68,
                "time": 120
            },
            {
                "type": "note_on",
                "note": 45,
                "velocity": 0,
                "time": 4
            },
            {
                "type": "note_on",
                "note": 47,
                "velocity": 81,
                "time": 60
            },
            {
                "type": "note_on",
                "note": 47,
                "velocity": 0,
                "time": 4
            },
            {
                "type": "note_on",
                "note": 45,
                "velocity": 78,
                "time": 0
            },
            {
                "type": "note_on",
                "note": 45,
                "velocity": 0,
                "time": 4
            },
            {
                "type": "note_on",
                "note": 47,
                "velocity": 65,
                "time": 55
            },
            {
                "type": "note_on",
                "note": 47,
                "velocity": 0,
                "time": 4
            },
            {
                "type": "note_on",
                "note": 47,
                "velocity": 64,
                "time": 64
            },
            {
                "type": "note_on",
                "note": 47,
                "velocity": 0,
                "time": 4
            },
            {
                "type": "note_on",
                "note": 45,
                "velocity": 79,
                "time": 61
            },
            {
                "type": "note_on",
                "note": 45,
                "velocity": 0,
                "time": 4
            },
            {
                "type": "note_on",
                "note": 45,
                "velocity": 75,
                "time": 54
            },
            {
                "type": "note_on",
                "note": 45,
                "velocity": 0,
                "time": 4
            },
            {
                "type": "note_on",
                "note": 45,
                "velocity": 80,
                "time": 65
            },
            {
                "type": "note_on",
                "note": 45,
                "velocity": 0,
                "time": 4
            },
            {
                "type": "note_on",
                "note": 45,
                "velocity": 83,
                "time": 61
            },
            {
                "type": "note_on",
                "note": 45,
                "velocity": 0,
                "time": 4
            },
            {
                "type": "note_on",
                "note": 45,
                "velocity": 81,
                "time": 59
            },
            {
                "type": "note_on",
                "note": 45,
                "velocity": 0,
                "time": 4
            },
            {
                "type": "note_on",
                "note": 45,
                "velocity": 85,
                "time": 60
            },
            {
                "type": "note_on",
                "note": 45,
                "velocity": 0,
                "time": 4
            },
            {
                "type": "note_on",
                "note": 38,
                "velocity": 110,
                "time": 51
            },
            {
                "type": "note_on",
                "note": 38,
                "velocity": 0,
                "time": 4
            },
            {
                "type": "note_on",
                "note": 38,
                "velocity": 112,
                "time": 6
            },
            {
                "type": "note_on",
                "note": 38,
                "velocity": 0,
                "time": 4
            },
            {
                "type": "note_on",
                "note": 36,
                "velocity": 106,
                "time": 54
            },
            {
                "type": "note_on",
                "note": 36,
                "velocity": 0,
                "time": 4
            },
            {
                "type": "note_on",
                "note": 49,
                "velocity": 100,
                "time": 107
            },
            {
                "type": "note_on",
                "note": 36,
                "velocity": 70,
                "time": 0
            },
            {
                "type": "note_on",
                "note": 36,
                "velocity": 0,
                "time": 4
            },
            {
                "type": "note_on",
                "note": 49,
                "velocity": 0,
                "time": 0
            },
            {
                "type": "note_on",
                "note": 36,
                "velocity": 67,
                "time": 182
            },
            {
                "type": "note_on",
                "note": 36,
                "velocity": 0,
                "time": 4
            },
            {
                "type": "note_on",
                "note": 46,
                "velocity": 35,
                "time": 91
            },
            {
                "type": "note_on",
                "note": 38,
                "velocity": 78,
                "time": 0
            },
            {
                "type": "note_on",
                "note": 38,
                "velocity": 0,
                "time": 4
            },
            {
                "type": "note_on",
                "note": 46,
                "velocity": 0,
                "time": 0
            },
            {
                "type": "note_on",
                "note": 36,
                "velocity": 65,
                "time": 92
            },
            {
                "type": "note_on",
                "note": 36,
                "velocity": 0,
                "time": 4
            },
            {
                "type": "note_on",
                "note": 46,
                "velocity": 70,
                "time": 190
            },
            {
                "type": "note_on",
                "note": 36,
                "velocity": 73,
                "time": 1
            },
            {
                "type": "note_on",
                "note": 46,
                "velocity": 0,
                "time": 3
            },
            {
                "type": "note_on",
                "note": 36,
                "velocity": 0,
                "time": 1
            },
            {
                "type": "note_on",
                "note": 36,
                "velocity": 73,
                "time": 186
            },
            {
                "type": "note_on",
                "note": 36,
                "velocity": 0,
                "time": 4
            },
            {
                "type": "note_on",
                "note": 46,
                "velocity": 50,
                "time": 92
            },
            {
                "type": "note_on",
                "note": 36,
                "velocity": 69,
                "time": 2
            },
            {
                "type": "note_on",
                "note": 38,
                "velocity": 85,
                "time": 0
            },
            {
                "type": "note_on",
                "note": 46,
                "velocity": 0,
                "time": 2
            },
            {
                "type": "note_on",
                "note": 38,
                "velocity": 0,
                "time": 2
            },
            {
                "type": "note_on",
                "note": 36,
                "velocity": 0,
                "time": 0
            },
            {
                "type": "note_on",
                "note": 46,
                "velocity": 48,
                "time": 282
            },
            {
                "type": "note_on",
                "note": 36,
                "velocity": 70,
                "time": 0
            },
            {
                "type": "note_on",
                "note": 36,
                "velocity": 0,
                "time": 4
            },
            {
                "type": "note_on",
                "note": 46,
                "velocity": 0,
                "time": 0
            },
            {
                "type": "note_on",
                "note": 36,
                "velocity": 73,
                "time": 188
            },
            {
                "type": "note_on",
                "note": 36,
                "velocity": 0,
                "time": 4
            },
            {
                "type": "note_on",
                "note": 38,
                "velocity": 84,
                "time": 91
            },
            {
                "type": "note_on",
                "note": 46,
                "velocity": 47,
                "time": 0
            },
            {
                "type": "note_on",
                "note": 46,
                "velocity": 0,
                "time": 4
            },
            {
                "type": "note_on",
                "note": 38,
                "velocity": 0,
                "time": 0
            },
            {
                "type": "note_on",
                "note": 36,
                "velocity": 69,
                "time": 93
            },
            {
                "type": "note_on",
                "note": 36,
                "velocity": 0,
                "time": 4
            },
            {
                "type": "note_on",
                "note": 36,
                "velocity": 73,
                "time": 187
            },
            {
                "type": "note_on",
                "note": 46,
                "velocity": 45,
                "time": 0
            },
            {
                "type": "note_on",
                "note": 46,
                "velocity": 0,
                "time": 4
            },
            {
                "type": "note_on",
                "note": 36,
                "velocity": 0,
                "time": 0
            },
            {
                "type": "note_on",
                "note": 36,
                "velocity": 73,
                "time": 189
            },
            {
                "type": "note_on",
                "note": 36,
                "velocity": 0,
                "time": 4
            },
            {
                "type": "note_on",
                "note": 46,
                "velocity": 58,
                "time": 92
            },
            {
                "type": "note_on",
                "note": 38,
                "velocity": 73,
                "time": 1
            },
            {
                "type": "note_on",
                "note": 46,
                "velocity": 0,
                "time": 3
            },
            {
                "type": "note_on",
                "note": 38,
                "velocity": 0,
                "time": 1
            },
            {
                "type": "note_on",
                "note": 36,
                "velocity": 68,
                "time": 90
            },
            {
                "type": "note_on",
                "note": 36,
                "velocity": 0,
                "time": 4
            },
            {
                "type": "note_on",
                "note": 49,
                "velocity": 51,
                "time": 188
            },
            {
                "type": "note_on",
                "note": 36,
                "velocity": 75,
                "time": 0
            },
            {
                "type": "note_on",
                "note": 36,
                "velocity": 0,
                "time": 4
            },
            {
                "type": "note_on",
                "note": 49,
                "velocity": 0,
                "time": 0
            },
            {
                "type": "note_on",
                "note": 36,
                "velocity": 68,
                "time": 189
            },
            {
                "type": "note_on",
                "note": 36,
                "velocity": 0,
                "time": 4
            },
            {
                "type": "note_on",
                "note": 46,
                "velocity": 52,
                "time": 91
            },
            {
                "type": "note_on",
                "note": 38,
                "velocity": 67,
                "time": 0
            },
            {
                "type": "note_on",
                "note": 38,
                "velocity": 0,
                "time": 4
            },
            {
                "type": "note_on",
                "note": 46,
                "velocity": 0,
                "time": 0
            },
            {
                "type": "note_on",
                "note": 36,
                "velocity": 70,
                "time": 94
            },
            {
                "type": "note_on",
                "note": 36,
                "velocity": 0,
                "time": 4
            },
            {
                "type": "note_on",
                "note": 46,
                "velocity": 64,
                "time": 187
            },
            {
                "type": "note_on",
                "note": 36,
                "velocity": 72,
                "time": 0
            },
            {
                "type": "note_on",
                "note": 36,
                "velocity": 0,
                "time": 4
            },
            {
                "type": "note_on",
                "note": 46,
                "velocity": 0,
                "time": 0
            },
            {
                "type": "note_on",
                "note": 36,
                "velocity": 73,
                "time": 188
            },
            {
                "type": "note_on",
                "note": 36,
                "velocity": 0,
                "time": 4
            },
            {
                "type": "note_on",
                "note": 46,
                "velocity": 64,
                "time": 92
            },
            {
                "type": "note_on",
                "note": 38,
                "velocity": 77,
                "time": 3
            },
            {
                "type": "note_on",
                "note": 46,
                "velocity": 0,
                "time": 1
            },
            {
                "type": "note_on",
                "note": 38,
                "velocity": 0,
                "time": 3
            },
            {
                "type": "note_on",
                "note": 36,
                "velocity": 27,
                "time": 88
            },
            {
                "type": "note_on",
                "note": 36,
                "velocity": 0,
                "time": 4
            },
            {
                "type": "note_on",
                "note": 46,
                "velocity": 73,
                "time": 189
            },
            {
                "type": "note_on",
                "note": 36,
                "velocity": 73,
                "time": 0
            },
            {
                "type": "note_on",
                "note": 36,
                "velocity": 0,
                "time": 4
            },
            {
                "type": "note_on",
                "note": 46,
                "velocity": 0,
                "time": 0
            },
            {
                "type": "note_on",
                "note": 36,
                "velocity": 68,
                "time": 189
            },
            {
                "type": "note_on",
                "note": 36,
                "velocity": 0,
                "time": 4
            },
            {
                "type": "note_on",
                "note": 46,
                "velocity": 64,
                "time": 91
            },
            {
                "type": "note_on",
                "note": 38,
                "velocity": 76,
                "time": 0
            },
            {
                "type": "note_on",
                "note": 38,
                "velocity": 0,
                "time": 4
            },
            {
                "type": "note_on",
                "note": 46,
                "velocity": 0,
                "time": 0
            },
            {
                "type": "note_on",
                "note": 36,
                "velocity": 68,
                "time": 93
            },
            {
                "type": "note_on",
                "note": 36,
                "velocity": 0,
                "time": 4
            },
            {
                "type": "note_on",
                "note": 36,
                "velocity": 70,
                "time": 187
            },
            {
                "type": "note_on",
                "note": 46,
                "velocity": 70,
                "time": 0
            },
            {
                "type": "note_on",
                "note": 46,
                "velocity": 0,
                "time": 4
            },
            {
                "type": "note_on",
                "note": 36,
                "velocity": 0,
                "time": 0
            },
            {
                "type": "note_on",
                "note": 36,
                "velocity": 72,
                "time": 189
            },
            {
                "type": "note_on",
                "note": 36,
                "velocity": 0,
                "time": 4
            },
            {
                "type": "note_on",
                "note": 46,
                "velocity": 70,
                "time": 91
            },
            {
                "type": "note_on",
                "note": 38,
                "velocity": 80,
                "time": 2
            },
            {
                "type": "note_on",
                "note": 46,
                "velocity": 0,
                "time": 2
            },
            {
                "type": "note_on",
                "note": 38,
                "velocity": 0,
                "time": 2
            },
            {
                "type": "note_on",
                "note": 36,
                "velocity": 66,
                "time": 90
            },
            {
                "type": "note_on",
                "note": 36,
                "velocity": 0,
                "time": 4
            },
            {
                "type": "note_on",
                "note": 49,
                "velocity": 63,
                "time": 188
            },
            {
                "type": "note_on",
                "note": 36,
                "velocity": 72,
                "time": 0
            },
            {
                "type": "note_on",
                "note": 36,
                "velocity": 0,
                "time": 4
            },
            {
                "type": "note_on",
                "note": 49,
                "velocity": 0,
                "time": 0
            },
            {
                "type": "note_on",
                "note": 36,
                "velocity": 70,
                "time": 187
            },
            {
                "type": "note_on",
                "note": 36,
                "velocity": 0,
                "time": 4
            },
            {
                "type": "note_on",
                "note": 46,
                "velocity": 67,
                "time": 91
            },
            {
                "type": "note_on",
                "note": 38,
                "velocity": 71,
                "time": 0
            },
            {
                "type": "note_on",
                "note": 38,
                "velocity": 0,
                "time": 4
            },
            {
                "type": "note_on",
                "note": 46,
                "velocity": 0,
                "time": 0
            },
            {
                "type": "note_on",
                "note": 36,
                "velocity": 59,
                "time": 94
            },
            {
                "type": "note_on",
                "note": 36,
                "velocity": 0,
                "time": 4
            },
            {
                "type": "note_on",
                "note": 36,
                "velocity": 73,
                "time": 190
            },
            {
                "type": "note_on",
                "note": 46,
                "velocity": 70,
                "time": 0
            },
            {
                "type": "note_on",
                "note": 46,
                "velocity": 0,
                "time": 4
            },
            {
                "type": "note_on",
                "note": 36,
                "velocity": 0,
                "time": 0
            },
            {
                "type": "note_on",
                "note": 36,
                "velocity": 71,
                "time": 186
            },
            {
                "type": "note_on",
                "note": 36,
                "velocity": 0,
                "time": 4
            },
            {
                "type": "note_on",
                "note": 46,
                "velocity": 70,
                "time": 92
            },
            {
                "type": "note_on",
                "note": 38,
                "velocity": 72,
                "time": 0
            },
            {
                "type": "note_on",
                "note": 38,
                "velocity": 0,
                "time": 4
            },
            {
                "type": "note_on",
                "note": 46,
                "velocity": 0,
                "time": 0
            },
            {
                "type": "note_on",
                "note": 36,
                "velocity": 69,
                "time": 92
            },
            {
                "type": "note_on",
                "note": 36,
                "velocity": 0,
                "time": 4
            },
            {
                "type": "note_on",
                "note": 46,
                "velocity": 67,
                "time": 190
            },
            {
                "type": "note_on",
                "note": 36,
                "velocity": 73,
                "time": 0
            },
            {
                "type": "note_on",
                "note": 36,
                "velocity": 0,
                "time": 4
            },
            {
                "type": "note_on",
                "note": 46,
                "velocity": 0,
                "time": 0
            },
            {
                "type": "note_on",
                "note": 36,
                "velocity": 73,
                "time": 187
            },
            {
                "type": "note_on",
                "note": 36,
                "velocity": 0,
                "time": 4
            },
            {
                "type": "note_on",
                "note": 46,
                "velocity": 70,
                "time": 93
            },
            {
                "type": "note_on",
                "note": 38,
                "velocity": 79,
                "time": 0
            },
            {
                "type": "note_on",
                "note": 38,
                "velocity": 0,
                "time": 4
            },
            {
                "type": "note_on",
                "note": 46,
                "velocity": 0,
                "time": 0
            },
            {
                "type": "note_on",
                "note": 36,
                "velocity": 65,
                "time": 90
            },
            {
                "type": "note_on",
                "note": 36,
                "velocity": 0,
                "time": 4
            },
            {
                "type": "note_on",
                "note": 36,
                "velocity": 73,
                "time": 188
            },
            {
                "type": "note_on",
                "note": 49,
                "velocity": 63,
                "time": 0
            },
            {
                "type": "note_on",
                "note": 49,
                "velocity": 0,
                "time": 4
            },
            {
                "type": "note_on",
                "note": 36,
                "velocity": 0,
                "time": 0
            },
            {
                "type": "note_on",
                "note": 36,
                "velocity": 73,
                "time": 187
            },
            {
                "type": "note_on",
                "note": 36,
                "velocity": 0,
                "time": 4
            },
            {
                "type": "note_on",
                "note": 46,
                "velocity": 70,
                "time": 95
            },
            {
                "type": "note_on",
                "note": 38,
                "velocity": 70,
                "time": 2
            },
            {
                "type": "note_on",
                "note": 46,
                "velocity": 0,
                "time": 2
            },
            {
                "type": "note_on",
                "note": 38,
                "velocity": 0,
                "time": 2
            },
            {
                "type": "note_on",
                "note": 36,
                "velocity": 73,
                "time": 90
            },
            {
                "type": "note_on",
                "note": 36,
                "velocity": 0,
                "time": 4
            },
            {
                "type": "note_on",
                "note": 49,
                "velocity": 66,
                "time": 184
            },
            {
                "type": "note_on",
                "note": 36,
                "velocity": 73,
                "time": 0
            },
            {
                "type": "note_on",
                "note": 36,
                "velocity": 0,
                "time": 4
            },
            {
                "type": "note_on",
                "note": 49,
                "velocity": 0,
                "time": 0
            },
            {
                "type": "note_on",
                "note": 36,
                "velocity": 70,
                "time": 189
            },
            {
                "type": "note_on",
                "note": 36,
                "velocity": 0,
                "time": 4
            },
            {
                "type": "note_on",
                "note": 46,
                "velocity": 70,
                "time": 91
            },
            {
                "type": "note_on",
                "note": 38,
                "velocity": 73,
                "time": 0
            },
            {
                "type": "note_on",
                "note": 38,
                "velocity": 0,
                "time": 4
            },
            {
                "type": "note_on",
                "note": 46,
                "velocity": 0,
                "time": 0
            },
            {
                "type": "note_on",
                "note": 36,
                "velocity": 66,
                "time": 286
            },
            {
                "type": "note_on",
                "note": 46,
                "velocity": 73,
                "time": 0
            },
            {
                "type": "note_on",
                "note": 46,
                "velocity": 0,
                "time": 4
            },
            {
                "type": "note_on",
                "note": 36,
                "velocity": 0,
                "time": 0
            },
            {
                "type": "note_on",
                "note": 38,
                "velocity": 65,
                "time": 92
            },
            {
                "type": "note_on",
                "note": 38,
                "velocity": 0,
                "time": 4
            },
            {
                "type": "note_on",
                "note": 38,
                "velocity": 56,
                "time": 92
            },
            {
                "type": "note_on",
                "note": 38,
                "velocity": 0,
                "time": 4
            },
            {
                "type": "note_on",
                "note": 38,
                "velocity": 69,
                "time": 92
            },
            {
                "type": "note_on",
                "note": 38,
                "velocity": 0,
                "time": 4
            },
            {
                "type": "note_on",
                "note": 38,
                "velocity": 65,
                "time": 93
            },
            {
                "type": "note_on",
                "note": 38,
                "velocity": 0,
                "time": 4
            },
            {
                "type": "note_on",
                "note": 38,
                "velocity": 70,
                "time": 90
            },
            {
                "type": "note_on",
                "note": 38,
                "velocity": 0,
                "time": 4
            },
            {
                "type": "note_on",
                "note": 38,
                "velocity": 90,
                "time": 95
            },
            {
                "type": "note_on",
                "note": 38,
                "velocity": 0,
                "time": 4
            },
            {
                "type": "note_on",
                "note": 49,
                "velocity": 49,
                "time": 186
            },
            {
                "type": "note_on",
                "note": 36,
                "velocity": 92,
                "time": 0
            },
            {
                "type": "note_on",
                "note": 36,
                "velocity": 0,
                "time": 4
            },
            {
                "type": "note_on",
                "note": 49,
                "velocity": 0,
                "time": 0
            },
            {
                "type": "note_on",
                "note": 36,
                "velocity": 77,
                "time": 382
            },
            {
                "type": "note_on",
                "note": 46,
                "velocity": 45,
                "time": 0
            },
            {
                "type": "note_on",
                "note": 46,
                "velocity": 0,
                "time": 4
            },
            {
                "type": "note_on",
                "note": 36,
                "velocity": 0,
                "time": 0
            },
            {
                "type": "note_on",
                "note": 36,
                "velocity": 73,
                "time": 186
            },
            {
                "type": "note_on",
                "note": 36,
                "velocity": 0,
                "time": 4
            },
            {
                "type": "note_on",
                "note": 38,
                "velocity": 80,
                "time": 92
            },
            {
                "type": "note_on",
                "note": 46,
                "velocity": 67,
                "time": 0
            },
            {
                "type": "note_on",
                "note": 46,
                "velocity": 0,
                "time": 4
            },
            {
                "type": "note_on",
                "note": 38,
                "velocity": 0,
                "time": 0
            },
            {
                "type": "note_on",
                "note": 36,
                "velocity": 66,
                "time": 92
            },
            {
                "type": "note_on",
                "note": 36,
                "velocity": 0,
                "time": 4
            },
            {
                "type": "note_on",
                "note": 46,
                "velocity": 62,
                "time": 188
            },
            {
                "type": "note_on",
                "note": 36,
                "velocity": 79,
                "time": 0
            },
            {
                "type": "note_on",
                "note": 36,
                "velocity": 0,
                "time": 4
            },
            {
                "type": "note_on",
                "note": 46,
                "velocity": 0,
                "time": 0
            },
            {
                "type": "note_on",
                "note": 36,
                "velocity": 66,
                "time": 188
            },
            {
                "type": "note_on",
                "note": 36,
                "velocity": 0,
                "time": 4
            },
            {
                "type": "note_on",
                "note": 38,
                "velocity": 70,
                "time": 91
            },
            {
                "type": "note_on",
                "note": 46,
                "velocity": 70,
                "time": 0
            },
            {
                "type": "note_on",
                "note": 46,
                "velocity": 0,
                "time": 4
            },
            {
                "type": "note_on",
                "note": 38,
                "velocity": 0,
                "time": 0
            },
            {
                "type": "note_on",
                "note": 36,
                "velocity": 62,
                "time": 93
            },
            {
                "type": "note_on",
                "note": 36,
                "velocity": 0,
                "time": 4
            },
            {
                "type": "note_on",
                "note": 46,
                "velocity": 70,
                "time": 187
            },
            {
                "type": "note_on",
                "note": 36,
                "velocity": 68,
                "time": 0
            },
            {
                "type": "note_on",
                "note": 36,
                "velocity": 0,
                "time": 4
            },
            {
                "type": "note_on",
                "note": 46,
                "velocity": 0,
                "time": 0
            },
            {
                "type": "note_on",
                "note": 36,
                "velocity": 60,
                "time": 192
            },
            {
                "type": "note_on",
                "note": 36,
                "velocity": 0,
                "time": 4
            },
            {
                "type": "note_on",
                "note": 46,
                "velocity": 64,
                "time": 89
            },
            {
                "type": "note_on",
                "note": 38,
                "velocity": 73,
                "time": 1
            },
            {
                "type": "note_on",
                "note": 46,
                "velocity": 0,
                "time": 3
            },
            {
                "type": "note_on",
                "note": 38,
                "velocity": 0,
                "time": 1
            },
            {
                "type": "note_on",
                "note": 36,
                "velocity": 55,
                "time": 91
            },
            {
                "type": "note_on",
                "note": 36,
                "velocity": 0,
                "time": 4
            },
            {
                "type": "note_on",
                "note": 46,
                "velocity": 70,
                "time": 186
            },
            {
                "type": "note_on",
                "note": 36,
                "velocity": 73,
                "time": 0
            },
            {
                "type": "note_on",
                "note": 36,
                "velocity": 0,
                "time": 4
            },
            {
                "type": "note_on",
                "note": 46,
                "velocity": 0,
                "time": 0
            },
            {
                "type": "note_on",
                "note": 36,
                "velocity": 62,
                "time": 190
            },
            {
                "type": "note_on",
                "note": 36,
                "velocity": 0,
                "time": 4
            },
            {
                "type": "note_on",
                "note": 46,
                "velocity": 70,
                "time": 92
            },
            {
                "type": "note_on",
                "note": 38,
                "velocity": 68,
                "time": 2
            },
            {
                "type": "note_on",
                "note": 46,
                "velocity": 0,
                "time": 2
            },
            {
                "type": "note_on",
                "note": 38,
                "velocity": 0,
                "time": 2
            },
            {
                "type": "note_on",
                "note": 36,
                "velocity": 56,
                "time": 90
            },
            {
                "type": "note_on",
                "note": 36,
                "velocity": 0,
                "time": 4
            },
            {
                "type": "note_on",
                "note": 36,
                "velocity": 70,
                "time": 187
            },
            {
                "type": "note_on",
                "note": 49,
                "velocity": 70,
                "time": 1
            },
            {
                "type": "note_on",
                "note": 36,
                "velocity": 0,
                "time": 3
            },
            {
                "type": "note_on",
                "note": 49,
                "velocity": 0,
                "time": 1
            },
            {
                "type": "note_on",
                "note": 36,
                "velocity": 69,
                "time": 188
            },
            {
                "type": "note_on",
                "note": 36,
                "velocity": 0,
                "time": 4
            },
            {
                "type": "note_on",
                "note": 46,
                "velocity": 76,
                "time": 92
            },
            {
                "type": "note_on",
                "note": 38,
                "velocity": 72,
                "time": 1
            },
            {
                "type": "note_on",
                "note": 46,
                "velocity": 0,
                "time": 3
            },
            {
                "type": "note_on",
                "note": 38,
                "velocity": 0,
                "time": 1
            },
            {
                "type": "note_on",
                "note": 46,
                "velocity": 73,
                "time": 283
            },
            {
                "type": "note_on",
                "note": 46,
                "velocity": 0,
                "time": 4
            },
            {
                "type": "note_on",
                "note": 36,
                "velocity": 75,
                "time": 188
            },
            {
                "type": "note_on",
                "note": 49,
                "velocity": 65,
                "time": 2
            },
            {
                "type": "note_on",
                "note": 36,
                "velocity": 0,
                "time": 2
            },
            {
                "type": "note_on",
                "note": 49,
                "velocity": 0,
                "time": 2
            },
            {
                "type": "note_on",
                "note": 36,
                "velocity": 81,
                "time": 185
            },
            {
                "type": "note_on",
                "note": 49,
                "velocity": 54,
                "time": 0
            },
            {
                "type": "note_on",
                "note": 49,
                "velocity": 0,
                "time": 4
            },
            {
                "type": "note_on",
                "note": 36,
                "velocity": 0,
                "time": 0
            },
            {
                "type": "note_on",
                "note": 36,
                "velocity": 77,
                "time": 190
            },
            {
                "type": "note_on",
                "note": 49,
                "velocity": 70,
                "time": 0
            },
            {
                "type": "note_on",
                "note": 49,
                "velocity": 0,
                "time": 4
            },
            {
                "type": "note_on",
                "note": 36,
                "velocity": 0,
                "time": 0
            },
            {
                "type": "note_on",
                "note": 36,
                "velocity": 73,
                "time": 189
            },
            {
                "type": "note_on",
                "note": 36,
                "velocity": 0,
                "time": 4
            },
            {
                "type": "note_on",
                "note": 38,
                "velocity": 83,
                "time": 90
            },
            {
                "type": "note_on",
                "note": 46,
                "velocity": 70,
                "time": 0
            },
            {
                "type": "note_on",
                "note": 46,
                "velocity": 0,
                "time": 4
            },
            {
                "type": "note_on",
                "note": 38,
                "velocity": 0,
                "time": 0
            },
            {
                "type": "note_on",
                "note": 36,
                "velocity": 73,
                "time": 92
            },
            {
                "type": "note_on",
                "note": 36,
                "velocity": 0,
                "time": 4
            },
            {
                "type": "note_on",
                "note": 46,
                "velocity": 79,
                "time": 188
            },
            {
                "type": "note_on",
                "note": 36,
                "velocity": 73,
                "time": 0
            },
            {
                "type": "note_on",
                "note": 36,
                "velocity": 0,
                "time": 4
            },
            {
                "type": "note_on",
                "note": 46,
                "velocity": 0,
                "time": 0
            },
            {
                "type": "note_on",
                "note": 36,
                "velocity": 71,
                "time": 188
            },
            {
                "type": "note_on",
                "note": 36,
                "velocity": 0,
                "time": 4
            },
            {
                "type": "note_on",
                "note": 46,
                "velocity": 76,
                "time": 92
            },
            {
                "type": "note_on",
                "note": 38,
                "velocity": 66,
                "time": 0
            },
            {
                "type": "note_on",
                "note": 38,
                "velocity": 0,
                "time": 4
            },
            {
                "type": "note_on",
                "note": 46,
                "velocity": 0,
                "time": 0
            },
            {
                "type": "note_on",
                "note": 36,
                "velocity": 65,
                "time": 92
            },
            {
                "type": "note_on",
                "note": 36,
                "velocity": 0,
                "time": 4
            },
            {
                "type": "note_on",
                "note": 36,
                "velocity": 80,
                "time": 188
            },
            {
                "type": "note_on",
                "note": 49,
                "velocity": 68,
                "time": 2
            },
            {
                "type": "note_on",
                "note": 36,
                "velocity": 0,
                "time": 2
            },
            {
                "type": "note_on",
                "note": 49,
                "velocity": 0,
                "time": 2
            },
            {
                "type": "note_on",
                "note": 36,
                "velocity": 70,
                "time": 185
            },
            {
                "type": "note_on",
                "note": 36,
                "velocity": 0,
                "time": 4
            },
            {
                "type": "note_on",
                "note": 46,
                "velocity": 62,
                "time": 93
            },
            {
                "type": "note_on",
                "note": 38,
                "velocity": 84,
                "time": 2
            },
            {
                "type": "note_on",
                "note": 46,
                "velocity": 0,
                "time": 2
            },
            {
                "type": "note_on",
                "note": 38,
                "velocity": 0,
                "time": 2
            },
            {
                "type": "note_on",
                "note": 36,
                "velocity": 68,
                "time": 89
            },
            {
                "type": "note_on",
                "note": 36,
                "velocity": 0,
                "time": 4
            },
            {
                "type": "note_on",
                "note": 36,
                "velocity": 80,
                "time": 191
            },
            {
                "type": "note_on",
                "note": 46,
                "velocity": 70,
                "time": 0
            },
            {
                "type": "note_on",
                "note": 46,
                "velocity": 0,
                "time": 4
            },
            {
                "type": "note_on",
                "note": 36,
                "velocity": 0,
                "time": 0
            },
            {
                "type": "note_on",
                "note": 36,
                "velocity": 73,
                "time": 186
            },
            {
                "type": "note_on",
                "note": 36,
                "velocity": 0,
                "time": 4
            },
            {
                "type": "note_on",
                "note": 46,
                "velocity": 70,
                "time": 91
            },
            {
                "type": "note_on",
                "note": 38,
                "velocity": 79,
                "time": 0
            },
            {
                "type": "note_on",
                "note": 38,
                "velocity": 0,
                "time": 4
            },
            {
                "type": "note_on",
                "note": 46,
                "velocity": 0,
                "time": 0
            },
            {
                "type": "note_on",
                "note": 36,
                "velocity": 66,
                "time": 94
            },
            {
                "type": "note_on",
                "note": 36,
                "velocity": 0,
                "time": 4
            },
            {
                "type": "note_on",
                "note": 49,
                "velocity": 76,
                "time": 187
            },
            {
                "type": "note_on",
                "note": 36,
                "velocity": 76,
                "time": 0
            },
            {
                "type": "note_on",
                "note": 36,
                "velocity": 0,
                "time": 4
            },
            {
                "type": "note_on",
                "note": 49,
                "velocity": 0,
                "time": 0
            },
            {
                "type": "note_on",
                "note": 36,
                "velocity": 74,
                "time": 188
            },
            {
                "type": "note_on",
                "note": 36,
                "velocity": 0,
                "time": 4
            },
            {
                "type": "note_on",
                "note": 46,
                "velocity": 54,
                "time": 92
            },
            {
                "type": "note_on",
                "note": 38,
                "velocity": 65,
                "time": 0
            },
            {
                "type": "note_on",
                "note": 38,
                "velocity": 0,
                "time": 4
            },
            {
                "type": "note_on",
                "note": 46,
                "velocity": 0,
                "time": 0
            },
            {
                "type": "note_on",
                "note": 36,
                "velocity": 32,
                "time": 92
            },
            {
                "type": "note_on",
                "note": 36,
                "velocity": 0,
                "time": 4
            },
            {
                "type": "note_on",
                "note": 49,
                "velocity": 44,
                "time": 188
            },
            {
                "type": "note_on",
                "note": 36,
                "velocity": 88,
                "time": 0
            },
            {
                "type": "note_on",
                "note": 36,
                "velocity": 0,
                "time": 4
            },
            {
                "type": "note_on",
                "note": 49,
                "velocity": 0,
                "time": 0
            },
            {
                "type": "note_on",
                "note": 36,
                "velocity": 80,
                "time": 188
            },
            {
                "type": "note_on",
                "note": 36,
                "velocity": 0,
                "time": 4
            },
            {
                "type": "note_on",
                "note": 38,
                "velocity": 77,
                "time": 92
            },
            {
                "type": "note_on",
                "note": 46,
                "velocity": 62,
                "time": 0
            },
            {
                "type": "note_on",
                "note": 46,
                "velocity": 0,
                "time": 4
            },
            {
                "type": "note_on",
                "note": 38,
                "velocity": 0,
                "time": 0
            },
            {
                "type": "note_on",
                "note": 36,
                "velocity": 56,
                "time": 92
            },
            {
                "type": "note_on",
                "note": 36,
                "velocity": 0,
                "time": 4
            },
            {
                "type": "note_on",
                "note": 49,
                "velocity": 72,
                "time": 189
            },
            {
                "type": "note_on",
                "note": 36,
                "velocity": 88,
                "time": 0
            },
            {
                "type": "note_on",
                "note": 36,
                "velocity": 0,
                "time": 4
            },
            {
                "type": "note_on",
                "note": 49,
                "velocity": 0,
                "time": 0
            },
            {
                "type": "note_on",
                "note": 36,
                "velocity": 73,
                "time": 187
            },
            {
                "type": "note_on",
                "note": 36,
                "velocity": 0,
                "time": 4
            },
            {
                "type": "note_on",
                "note": 38,
                "velocity": 70,
                "time": 92
            },
            {
                "type": "note_on",
                "note": 46,
                "velocity": 73,
                "time": 0
            },
            {
                "type": "note_on",
                "note": 46,
                "velocity": 0,
                "time": 4
            },
            {
                "type": "note_on",
                "note": 38,
                "velocity": 0,
                "time": 0
            },
            {
                "type": "note_on",
                "note": 36,
                "velocity": 73,
                "time": 91
            },
            {
                "type": "note_on",
                "note": 36,
                "velocity": 0,
                "time": 4
            },
            {
                "type": "note_on",
                "note": 46,
                "velocity": 76,
                "time": 189
            },
            {
                "type": "note_on",
                "note": 36,
                "velocity": 84,
                "time": 1
            },
            {
                "type": "note_on",
                "note": 46,
                "velocity": 0,
                "time": 3
            },
            {
                "type": "note_on",
                "note": 36,
                "velocity": 0,
                "time": 1
            },
            {
                "type": "note_on",
                "note": 36,
                "velocity": 74,
                "time": 187
            },
            {
                "type": "note_on",
                "note": 36,
                "velocity": 0,
                "time": 4
            },
            {
                "type": "note_on",
                "note": 46,
                "velocity": 82,
                "time": 91
            },
            {
                "type": "note_on",
                "note": 38,
                "velocity": 87,
                "time": 2
            },
            {
                "type": "note_on",
                "note": 46,
                "velocity": 0,
                "time": 2
            },
            {
                "type": "note_on",
                "note": 38,
                "velocity": 0,
                "time": 2
            },
            {
                "type": "note_on",
                "note": 36,
                "velocity": 70,
                "time": 90
            },
            {
                "type": "note_on",
                "note": 36,
                "velocity": 0,
                "time": 4
            },
            {
                "type": "note_on",
                "note": 36,
                "velocity": 92,
                "time": 189
            },
            {
                "type": "note_on",
                "note": 49,
                "velocity": 76,
                "time": 1
            },
            {
                "type": "note_on",
                "note": 36,
                "velocity": 0,
                "time": 3
            },
            {
                "type": "note_on",
                "note": 49,
                "velocity": 0,
                "time": 1
            },
            {
                "type": "note_on",
                "note": 36,
                "velocity": 81,
                "time": 187
            },
            {
                "type": "note_on",
                "note": 36,
                "velocity": 0,
                "time": 4
            },
            {
                "type": "note_on",
                "note": 46,
                "velocity": 70,
                "time": 92
            },
            {
                "type": "note_on",
                "note": 38,
                "velocity": 85,
                "time": 1
            },
            {
                "type": "note_on",
                "note": 46,
                "velocity": 0,
                "time": 3
            },
            {
                "type": "note_on",
                "note": 38,
                "velocity": 0,
                "time": 1
            },
            {
                "type": "note_on",
                "note": 36,
                "velocity": 68,
                "time": 91
            },
            {
                "type": "note_on",
                "note": 36,
                "velocity": 0,
                "time": 4
            },
            {
                "type": "note_on",
                "note": 49,
                "velocity": 85,
                "time": 184
            },
            {
                "type": "note_on",
                "note": 36,
                "velocity": 80,
                "time": 0
            },
            {
                "type": "note_on",
                "note": 36,
                "velocity": 0,
                "time": 4
            },
            {
                "type": "note_on",
                "note": 49,
                "velocity": 0,
                "time": 0
            },
            {
                "type": "note_on",
                "note": 36,
                "velocity": 75,
                "time": 192
            },
            {
                "type": "note_on",
                "note": 36,
                "velocity": 0,
                "time": 4
            },
            {
                "type": "note_on",
                "note": 38,
                "velocity": 84,
                "time": 92
            },
            {
                "type": "note_on",
                "note": 46,
                "velocity": 79,
                "time": 0
            },
            {
                "type": "note_on",
                "note": 46,
                "velocity": 0,
                "time": 4
            },
            {
                "type": "note_on",
                "note": 38,
                "velocity": 0,
                "time": 0
            },
            {
                "type": "note_on",
                "note": 36,
                "velocity": 71,
                "time": 92
            },
            {
                "type": "note_on",
                "note": 36,
                "velocity": 0,
                "time": 4
            },
            {
                "type": "note_on",
                "note": 36,
                "velocity": 85,
                "time": 188
            },
            {
                "type": "note_on",
                "note": 49,
                "velocity": 68,
                "time": 1
            },
            {
                "type": "note_on",
                "note": 36,
                "velocity": 0,
                "time": 3
            },
            {
                "type": "note_on",
                "note": 49,
                "velocity": 0,
                "time": 1
            },
            {
                "type": "note_on",
                "note": 36,
                "velocity": 70,
                "time": 187
            },
            {
                "type": "note_on",
                "note": 36,
                "velocity": 0,
                "time": 4
            },
            {
                "type": "note_on",
                "note": 46,
                "velocity": 73,
                "time": 90
            },
            {
                "type": "note_on",
                "note": 38,
                "velocity": 79,
                "time": 0
            },
            {
                "type": "note_on",
                "note": 38,
                "velocity": 0,
                "time": 4
            },
            {
                "type": "note_on",
                "note": 46,
                "velocity": 0,
                "time": 0
            },
            {
                "type": "note_on",
                "note": 36,
                "velocity": 68,
                "time": 96
            },
            {
                "type": "note_on",
                "note": 36,
                "velocity": 0,
                "time": 4
            },
            {
                "type": "note_on",
                "note": 36,
                "velocity": 76,
                "time": 185
            },
            {
                "type": "note_on",
                "note": 49,
                "velocity": 78,
                "time": 0
            },
            {
                "type": "note_on",
                "note": 49,
                "velocity": 0,
                "time": 4
            },
            {
                "type": "note_on",
                "note": 36,
                "velocity": 0,
                "time": 0
            },
            {
                "type": "note_on",
                "note": 36,
                "velocity": 73,
                "time": 189
            },
            {
                "type": "note_on",
                "note": 36,
                "velocity": 0,
                "time": 4
            },
            {
                "type": "note_on",
                "note": 46,
                "velocity": 76,
                "time": 92
            },
            {
                "type": "note_on",
                "note": 38,
                "velocity": 73,
                "time": 0
            },
            {
                "type": "note_on",
                "note": 38,
                "velocity": 0,
                "time": 4
            },
            {
                "type": "note_on",
                "note": 46,
                "velocity": 0,
                "time": 0
            },
            {
                "type": "note_on",
                "note": 36,
                "velocity": 70,
                "time": 92
            },
            {
                "type": "note_on",
                "note": 36,
                "velocity": 0,
                "time": 4
            },
            {
                "type": "note_on",
                "note": 36,
                "velocity": 80,
                "time": 188
            },
            {
                "type": "note_on",
                "note": 49,
                "velocity": 78,
                "time": 3
            },
            {
                "type": "note_on",
                "note": 36,
                "velocity": 0,
                "time": 1
            },
            {
                "type": "note_on",
                "note": 49,
                "velocity": 0,
                "time": 3
            },
            {
                "type": "note_on",
                "note": 36,
                "velocity": 77,
                "time": 184
            },
            {
                "type": "note_on",
                "note": 36,
                "velocity": 0,
                "time": 4
            },
            {
                "type": "note_on",
                "note": 46,
                "velocity": 76,
                "time": 93
            },
            {
                "type": "note_on",
                "note": 38,
                "velocity": 75,
                "time": 0
            },
            {
                "type": "note_on",
                "note": 38,
                "velocity": 0,
                "time": 4
            },
            {
                "type": "note_on",
                "note": 46,
                "velocity": 0,
                "time": 0
            },
            {
                "type": "note_on",
                "note": 36,
                "velocity": 62,
                "time": 91
            },
            {
                "type": "note_on",
                "note": 36,
                "velocity": 0,
                "time": 4
            },
            {
                "type": "note_on",
                "note": 46,
                "velocity": 67,
                "time": 190
            },
            {
                "type": "note_on",
                "note": 36,
                "velocity": 79,
                "time": 2
            },
            {
                "type": "note_on",
                "note": 46,
                "velocity": 0,
                "time": 2
            },
            {
                "type": "note_on",
                "note": 36,
                "velocity": 0,
                "time": 2
            },
            {
                "type": "note_on",
                "note": 36,
                "velocity": 71,
                "time": 185
            },
            {
                "type": "note_on",
                "note": 36,
                "velocity": 0,
                "time": 4
            },
            {
                "type": "note_on",
                "note": 46,
                "velocity": 76,
                "time": 92
            },
            {
                "type": "note_on",
                "note": 38,
                "velocity": 79,
                "time": 3
            },
            {
                "type": "note_on",
                "note": 46,
                "velocity": 0,
                "time": 1
            },
            {
                "type": "note_on",
                "note": 38,
                "velocity": 0,
                "time": 3
            },
            {
                "type": "note_on",
                "note": 36,
                "velocity": 68,
                "time": 89
            },
            {
                "type": "note_on",
                "note": 36,
                "velocity": 0,
                "time": 4
            },
            {
                "type": "note_on",
                "note": 46,
                "velocity": 76,
                "time": 188
            },
            {
                "type": "note_on",
                "note": 36,
                "velocity": 80,
                "time": 1
            },
            {
                "type": "note_on",
                "note": 46,
                "velocity": 0,
                "time": 3
            },
            {
                "type": "note_on",
                "note": 36,
                "velocity": 0,
                "time": 1
            },
            {
                "type": "note_on",
                "note": 36,
                "velocity": 68,
                "time": 187
            },
            {
                "type": "note_on",
                "note": 36,
                "velocity": 0,
                "time": 4
            },
            {
                "type": "note_on",
                "note": 46,
                "velocity": 79,
                "time": 92
            },
            {
                "type": "note_on",
                "note": 38,
                "velocity": 77,
                "time": 1
            },
            {
                "type": "note_on",
                "note": 46,
                "velocity": 0,
                "time": 3
            },
            {
                "type": "note_on",
                "note": 38,
                "velocity": 0,
                "time": 1
            },
            {
                "type": "note_on",
                "note": 36,
                "velocity": 70,
                "time": 91
            },
            {
                "type": "note_on",
                "note": 36,
                "velocity": 0,
                "time": 4
            },
            {
                "type": "note_on",
                "note": 36,
                "velocity": 80,
                "time": 188
            },
            {
                "type": "note_on",
                "note": 46,
                "velocity": 73,
                "time": 0
            },
            {
                "type": "note_on",
                "note": 46,
                "velocity": 0,
                "time": 4
            },
            {
                "type": "note_on",
                "note": 36,
                "velocity": 0,
                "time": 0
            },
            {
                "type": "note_on",
                "note": 36,
                "velocity": 71,
                "time": 188
            },
            {
                "type": "note_on",
                "note": 36,
                "velocity": 0,
                "time": 4
            },
            {
                "type": "note_on",
                "note": 46,
                "velocity": 79,
                "time": 92
            },
            {
                "type": "note_on",
                "note": 38,
                "velocity": 80,
                "time": 0
            },
            {
                "type": "note_on",
                "note": 38,
                "velocity": 0,
                "time": 4
            },
            {
                "type": "note_on",
                "note": 46,
                "velocity": 0,
                "time": 0
            },
            {
                "type": "note_on",
                "note": 36,
                "velocity": 62,
                "time": 91
            },
            {
                "type": "note_on",
                "note": 36,
                "velocity": 0,
                "time": 4
            },
            {
                "type": "note_on",
                "note": 49,
                "velocity": 59,
                "time": 189
            },
            {
                "type": "note_on",
                "note": 36,
                "velocity": 76,
                "time": 0
            },
            {
                "type": "note_on",
                "note": 36,
                "velocity": 0,
                "time": 4
            },
            {
                "type": "note_on",
                "note": 49,
                "velocity": 0,
                "time": 0
            },
            {
                "type": "note_on",
                "note": 36,
                "velocity": 72,
                "time": 187
            },
            {
                "type": "note_on",
                "note": 36,
                "velocity": 0,
                "time": 4
            },
            {
                "type": "note_on",
                "note": 46,
                "velocity": 31,
                "time": 93
            },
            {
                "type": "note_on",
                "note": 38,
                "velocity": 80,
                "time": 0
            },
            {
                "type": "note_on",
                "note": 38,
                "velocity": 0,
                "time": 4
            },
            {
                "type": "note_on",
                "note": 46,
                "velocity": 0,
                "time": 0
            },
            {
                "type": "note_on",
                "note": 36,
                "velocity": 61,
                "time": 92
            },
            {
                "type": "note_on",
                "note": 36,
                "velocity": 0,
                "time": 4
            },
            {
                "type": "note_on",
                "note": 46,
                "velocity": 70,
                "time": 187
            },
            {
                "type": "note_on",
                "note": 36,
                "velocity": 76,
                "time": 0
            },
            {
                "type": "note_on",
                "note": 36,
                "velocity": 0,
                "time": 4
            },
            {
                "type": "note_on",
                "note": 46,
                "velocity": 0,
                "time": 0
            },
            {
                "type": "note_on",
                "note": 36,
                "velocity": 75,
                "time": 191
            },
            {
                "type": "note_on",
                "note": 36,
                "velocity": 0,
                "time": 4
            },
            {
                "type": "note_on",
                "note": 46,
                "velocity": 62,
                "time": 90
            },
            {
                "type": "note_on",
                "note": 38,
                "velocity": 84,
                "time": 3
            },
            {
                "type": "note_on",
                "note": 46,
                "velocity": 0,
                "time": 1
            },
            {
                "type": "note_on",
                "note": 38,
                "velocity": 0,
                "time": 3
            },
            {
                "type": "note_on",
                "note": 36,
                "velocity": 70,
                "time": 88
            },
            {
                "type": "note_on",
                "note": 36,
                "velocity": 0,
                "time": 4
            },
            {
                "type": "note_on",
                "note": 46,
                "velocity": 70,
                "time": 189
            },
            {
                "type": "note_on",
                "note": 36,
                "velocity": 78,
                "time": 0
            },
            {
                "type": "note_on",
                "note": 36,
                "velocity": 0,
                "time": 4
            },
            {
                "type": "note_on",
                "note": 46,
                "velocity": 0,
                "time": 0
            },
            {
                "type": "note_on",
                "note": 36,
                "velocity": 70,
                "time": 188
            },
            {
                "type": "note_on",
                "note": 36,
                "velocity": 0,
                "time": 4
            },
            {
                "type": "note_on",
                "note": 46,
                "velocity": 70,
                "time": 92
            },
            {
                "type": "note_on",
                "note": 38,
                "velocity": 86,
                "time": 0
            },
            {
                "type": "note_on",
                "note": 38,
                "velocity": 0,
                "time": 4
            },
            {
                "type": "note_on",
                "note": 46,
                "velocity": 0,
                "time": 0
            },
            {
                "type": "note_on",
                "note": 36,
                "velocity": 70,
                "time": 92
            },
            {
                "type": "note_on",
                "note": 36,
                "velocity": 0,
                "time": 4
            },
            {
                "type": "note_on",
                "note": 36,
                "velocity": 70,
                "time": 188
            },
            {
                "type": "note_on",
                "note": 46,
                "velocity": 76,
                "time": 0
            },
            {
                "type": "note_on",
                "note": 46,
                "velocity": 0,
                "time": 4
            },
            {
                "type": "note_on",
                "note": 36,
                "velocity": 0,
                "time": 0
            },
            {
                "type": "note_on",
                "note": 36,
                "velocity": 68,
                "time": 190
            },
            {
                "type": "note_on",
                "note": 36,
                "velocity": 0,
                "time": 4
            },
            {
                "type": "note_on",
                "note": 46,
                "velocity": 70,
                "time": 89
            },
            {
                "type": "note_on",
                "note": 38,
                "velocity": 80,
                "time": 1
            },
            {
                "type": "note_on",
                "note": 46,
                "velocity": 0,
                "time": 3
            },
            {
                "type": "note_on",
                "note": 38,
                "velocity": 0,
                "time": 1
            },
            {
                "type": "note_on",
                "note": 36,
                "velocity": 73,
                "time": 92
            },
            {
                "type": "note_on",
                "note": 36,
                "velocity": 0,
                "time": 4
            },
            {
                "type": "note_on",
                "note": 36,
                "velocity": 79,
                "time": 188
            },
            {
                "type": "note_on",
                "note": 49,
                "velocity": 70,
                "time": 2
            },
            {
                "type": "note_on",
                "note": 36,
                "velocity": 0,
                "time": 2
            },
            {
                "type": "note_on",
                "note": 49,
                "velocity": 0,
                "time": 2
            },
            {
                "type": "note_on",
                "note": 36,
                "velocity": 73,
                "time": 185
            },
            {
                "type": "note_on",
                "note": 36,
                "velocity": 0,
                "time": 4
            },
            {
                "type": "note_on",
                "note": 38,
                "velocity": 81,
                "time": 93
            },
            {
                "type": "note_on",
                "note": 46,
                "velocity": 67,
                "time": 0
            },
            {
                "type": "note_on",
                "note": 46,
                "velocity": 0,
                "time": 4
            },
            {
                "type": "note_on",
                "note": 38,
                "velocity": 0,
                "time": 0
            },
            {
                "type": "note_on",
                "note": 36,
                "velocity": 73,
                "time": 93
            },
            {
                "type": "note_on",
                "note": 36,
                "velocity": 0,
                "time": 4
            },
            {
                "type": "note_on",
                "note": 36,
                "velocity": 78,
                "time": 186
            },
            {
                "type": "note_on",
                "note": 49,
                "velocity": 82,
                "time": 0
            },
            {
                "type": "note_on",
                "note": 49,
                "velocity": 0,
                "time": 4
            },
            {
                "type": "note_on",
                "note": 36,
                "velocity": 0,
                "time": 0
            },
            {
                "type": "note_on",
                "note": 36,
                "velocity": 79,
                "time": 188
            },
            {
                "type": "note_on",
                "note": 36,
                "velocity": 0,
                "time": 4
            },
            {
                "type": "note_on",
                "note": 38,
                "velocity": 87,
                "time": 93
            },
            {
                "type": "note_on",
                "note": 46,
                "velocity": 76,
                "time": 0
            },
            {
                "type": "note_on",
                "note": 46,
                "velocity": 0,
                "time": 4
            },
            {
                "type": "note_on",
                "note": 38,
                "velocity": 0,
                "time": 0
            },
            {
                "type": "note_on",
                "note": 49,
                "velocity": 76,
                "time": 283
            },
            {
                "type": "note_on",
                "note": 36,
                "velocity": 104,
                "time": 0
            },
            {
                "type": "note_on",
                "note": 36,
                "velocity": 0,
                "time": 4
            },
            {
                "type": "note_on",
                "note": 49,
                "velocity": 0,
                "time": 0
            },
            {
                "type": "note_on",
                "note": 49,
                "velocity": 74,
                "time": 1149
            },
            {
                "type": "note_on",
                "note": 36,
                "velocity": 80,
                "time": 0
            },
            {
                "type": "note_on",
                "note": 36,
                "velocity": 0,
                "time": 4
            },
            {
                "type": "note_on",
                "note": 49,
                "velocity": 0,
                "time": 0
            },
            {
                "type": "note_on",
                "note": 49,
                "velocity": 65,
                "time": 1148
            },
            {
                "type": "note_on",
                "note": 36,
                "velocity": 88,
                "time": 0
            },
            {
                "type": "note_on",
                "note": 36,
                "velocity": 0,
                "time": 4
            },
            {
                "type": "note_on",
                "note": 49,
                "velocity": 0,
                "time": 0
            },
            {
                "type": "note_on",
                "note": 49,
                "velocity": 48,
                "time": 100
            },
            {
                "type": "note_on",
                "note": 36,
                "velocity": 81,
                "time": 0
            },
            {
                "type": "note_on",
                "note": 36,
                "velocity": 0,
                "time": 4
            },
            {
                "type": "note_on",
                "note": 49,
                "velocity": 0,
                "time": 0
            },
            {
                "type": "note_on",
                "note": 38,
                "velocity": 95,
                "time": 187
            },
            {
                "type": "note_on",
                "note": 42,
                "velocity": 48,
                "time": 0
            },
            {
                "type": "note_on",
                "note": 42,
                "velocity": 0,
                "time": 4
            },
            {
                "type": "note_on",
                "note": 38,
                "velocity": 0,
                "time": 0
            },
            {
                "type": "note_on",
                "note": 42,
                "velocity": 52,
                "time": 92
            },
            {
                "type": "note_on",
                "note": 42,
                "velocity": 0,
                "time": 4
            },
            {
                "type": "note_on",
                "note": 49,
                "velocity": 49,
                "time": 93
            },
            {
                "type": "note_on",
                "note": 36,
                "velocity": 76,
                "time": 0
            },
            {
                "type": "note_on",
                "note": 36,
                "velocity": 0,
                "time": 4
            },
            {
                "type": "note_on",
                "note": 49,
                "velocity": 0,
                "time": 0
            },
            {
                "type": "note_on",
                "note": 36,
                "velocity": 80,
                "time": 91
            },
            {
                "type": "note_on",
                "note": 36,
                "velocity": 0,
                "time": 4
            },
            {
                "type": "note_on",
                "note": 38,
                "velocity": 92,
                "time": 93
            },
            {
                "type": "note_on",
                "note": 42,
                "velocity": 49,
                "time": 0
            },
            {
                "type": "note_on",
                "note": 42,
                "velocity": 0,
                "time": 4
            },
            {
                "type": "note_on",
                "note": 38,
                "velocity": 0,
                "time": 0
            },
            {
                "type": "note_on",
                "note": 42,
                "velocity": 51,
                "time": 91
            },
            {
                "type": "note_on",
                "note": 42,
                "velocity": 0,
                "time": 4
            },
            {
                "type": "note_on",
                "note": 36,
                "velocity": 80,
                "time": 95
            },
            {
                "type": "note_on",
                "note": 49,
                "velocity": 58,
                "time": 1
            },
            {
                "type": "note_on",
                "note": 36,
                "velocity": 0,
                "time": 3
            },
            {
                "type": "note_on",
                "note": 49,
                "velocity": 0,
                "time": 1
            },
            {
                "type": "note_on",
                "note": 36,
                "velocity": 76,
                "time": 89
            },
            {
                "type": "note_on",
                "note": 36,
                "velocity": 0,
                "time": 4
            },
            {
                "type": "note_on",
                "note": 42,
                "velocity": 42,
                "time": 94
            },
            {
                "type": "note_on",
                "note": 38,
                "velocity": 86,
                "time": 0
            },
            {
                "type": "note_on",
                "note": 38,
                "velocity": 0,
                "time": 4
            },
            {
                "type": "note_on",
                "note": 42,
                "velocity": 0,
                "time": 0
            },
            {
                "type": "note_on",
                "note": 42,
                "velocity": 53,
                "time": 90
            },
            {
                "type": "note_on",
                "note": 42,
                "velocity": 0,
                "time": 4
            },
            {
                "type": "note_on",
                "note": 49,
                "velocity": 52,
                "time": 95
            },
            {
                "type": "note_on",
                "note": 36,
                "velocity": 83,
                "time": 0
            },
            {
                "type": "note_on",
                "note": 36,
                "velocity": 0,
                "time": 4
            },
            {
                "type": "note_on",
                "note": 49,
                "velocity": 0,
                "time": 0
            },
            {
                "type": "note_on",
                "note": 36,
                "velocity": 87,
                "time": 186
            },
            {
                "type": "note_on",
                "note": 49,
                "velocity": 63,
                "time": 0
            },
            {
                "type": "note_on",
                "note": 49,
                "velocity": 0,
                "time": 4
            },
            {
                "type": "note_on",
                "note": 36,
                "velocity": 0,
                "time": 0
            },
            {
                "type": "note_on",
                "note": 49,
                "velocity": 68,
                "time": 190
            },
            {
                "type": "note_on",
                "note": 36,
                "velocity": 86,
                "time": 0
            },
            {
                "type": "note_on",
                "note": 36,
                "velocity": 0,
                "time": 4
            },
            {
                "type": "note_on",
                "note": 49,
                "velocity": 0,
                "time": 0
            },
            {
                "type": "note_on",
                "note": 36,
                "velocity": 90,
                "time": 187
            },
            {
                "type": "note_on",
                "note": 49,
                "velocity": 70,
                "time": 2
            },
            {
                "type": "note_on",
                "note": 36,
                "velocity": 0,
                "time": 2
            },
            {
                "type": "note_on",
                "note": 49,
                "velocity": 0,
                "time": 2
            },
            {
                "type": "note_on",
                "note": 36,
                "velocity": 97,
                "time": 186
            },
            {
                "type": "note_on",
                "note": 49,
                "velocity": 76,
                "time": 1
            },
            {
                "type": "note_on",
                "note": 36,
                "velocity": 0,
                "time": 3
            },
            {
                "type": "note_on",
                "note": 49,
                "velocity": 0,
                "time": 1
            },
            {
                "type": "note_on",
                "note": 49,
                "velocity": 56,
                "time": 186
            },
            {
                "type": "note_on",
                "note": 36,
                "velocity": 94,
                "time": 0
            },
            {
                "type": "note_on",
                "note": 36,
                "velocity": 0,
                "time": 4
            },
            {
                "type": "note_on",
                "note": 49,
                "velocity": 0,
                "time": 0
            },
            {
                "type": "note_on",
                "note": 36,
                "velocity": 86,
                "time": 189
            },
            {
                "type": "note_on",
                "note": 59,
                "velocity": 57,
                "time": 1
            },
            {
                "type": "note_on",
                "note": 36,
                "velocity": 0,
                "time": 3
            },
            {
                "type": "note_on",
                "note": 59,
                "velocity": 0,
                "time": 1
            },
            {
                "type": "note_on",
                "note": 59,
                "velocity": 43,
                "time": 89
            },
            {
                "type": "note_on",
                "note": 36,
                "velocity": 88,
                "time": 0
            },
            {
                "type": "note_on",
                "note": 36,
                "velocity": 0,
                "time": 4
            },
            {
                "type": "note_on",
                "note": 59,
                "velocity": 0,
                "time": 0
            },
            {
                "type": "note_on",
                "note": 59,
                "velocity": 51,
                "time": 94
            },
            {
                "type": "note_on",
                "note": 38,
                "velocity": 80,
                "time": 0
            },
            {
                "type": "note_on",
                "note": 38,
                "velocity": 0,
                "time": 4
            },
            {
                "type": "note_on",
                "note": 59,
                "velocity": 0,
                "time": 0
            },
            {
                "type": "note_on",
                "note": 59,
                "velocity": 35,
                "time": 90
            },
            {
                "type": "note_on",
                "note": 59,
                "velocity": 0,
                "time": 4
            },
            {
                "type": "note_on",
                "note": 59,
                "velocity": 51,
                "time": 94
            },
            {
                "type": "note_on",
                "note": 36,
                "velocity": 84,
                "time": 0
            },
            {
                "type": "note_on",
                "note": 36,
                "velocity": 0,
                "time": 4
            },
            {
                "type": "note_on",
                "note": 59,
                "velocity": 0,
                "time": 0
            },
            {
                "type": "note_on",
                "note": 59,
                "velocity": 41,
                "time": 90
            },
            {
                "type": "note_on",
                "note": 36,
                "velocity": 85,
                "time": 0
            },
            {
                "type": "note_on",
                "note": 36,
                "velocity": 0,
                "time": 4
            },
            {
                "type": "note_on",
                "note": 59,
                "velocity": 0,
                "time": 0
            },
            {
                "type": "note_on",
                "note": 38,
                "velocity": 88,
                "time": 93
            },
            {
                "type": "note_on",
                "note": 59,
                "velocity": 47,
                "time": 0
            },
            {
                "type": "note_on",
                "note": 59,
                "velocity": 0,
                "time": 4
            },
            {
                "type": "note_on",
                "note": 38,
                "velocity": 0,
                "time": 0
            },
            {
                "type": "note_on",
                "note": 59,
                "velocity": 46,
                "time": 91
            },
            {
                "type": "note_on",
                "note": 59,
                "velocity": 0,
                "time": 4
            },
            {
                "type": "note_on",
                "note": 36,
                "velocity": 80,
                "time": 94
            },
            {
                "type": "note_on",
                "note": 59,
                "velocity": 66,
                "time": 0
            },
            {
                "type": "note_on",
                "note": 59,
                "velocity": 0,
                "time": 4
            },
            {
                "type": "note_on",
                "note": 36,
                "velocity": 0,
                "time": 0
            },
            {
                "type": "note_on",
                "note": 36,
                "velocity": 88,
                "time": 90
            },
            {
                "type": "note_on",
                "note": 59,
                "velocity": 40,
                "time": 0
            },
            {
                "type": "note_on",
                "note": 59,
                "velocity": 0,
                "time": 4
            },
            {
                "type": "note_on",
                "note": 36,
                "velocity": 0,
                "time": 0
            },
            {
                "type": "note_on",
                "note": 38,
                "velocity": 75,
                "time": 92
            },
            {
                "type": "note_on",
                "note": 59,
                "velocity": 42,
                "time": 1
            },
            {
                "type": "note_on",
                "note": 38,
                "velocity": 0,
                "time": 3
            },
            {
                "type": "note_on",
                "note": 59,
                "velocity": 0,
                "time": 1
            },
            {
                "type": "note_on",
                "note": 59,
                "velocity": 46,
                "time": 91
            },
            {
                "type": "note_on",
                "note": 59,
                "velocity": 0,
                "time": 4
            },
            {
                "type": "note_on",
                "note": 36,
                "velocity": 80,
                "time": 93
            },
            {
                "type": "note_on",
                "note": 59,
                "velocity": 57,
                "time": 1
            },
            {
                "type": "note_on",
                "note": 36,
                "velocity": 0,
                "time": 3
            },
            {
                "type": "note_on",
                "note": 59,
                "velocity": 0,
                "time": 1
            },
            {
                "type": "note_on",
                "note": 36,
                "velocity": 78,
                "time": 90
            },
            {
                "type": "note_on",
                "note": 59,
                "velocity": 47,
                "time": 0
            },
            {
                "type": "note_on",
                "note": 59,
                "velocity": 0,
                "time": 4
            },
            {
                "type": "note_on",
                "note": 36,
                "velocity": 0,
                "time": 0
            },
            {
                "type": "note_on",
                "note": 38,
                "velocity": 80,
                "time": 92
            },
            {
                "type": "note_on",
                "note": 59,
                "velocity": 36,
                "time": 1
            },
            {
                "type": "note_on",
                "note": 38,
                "velocity": 0,
                "time": 3
            },
            {
                "type": "note_on",
                "note": 59,
                "velocity": 0,
                "time": 1
            },
            {
                "type": "note_on",
                "note": 59,
                "velocity": 38,
                "time": 91
            },
            {
                "type": "note_on",
                "note": 59,
                "velocity": 0,
                "time": 4
            },
            {
                "type": "note_on",
                "note": 36,
                "velocity": 71,
                "time": 94
            },
            {
                "type": "note_on",
                "note": 59,
                "velocity": 51,
                "time": 0
            },
            {
                "type": "note_on",
                "note": 59,
                "velocity": 0,
                "time": 4
            },
            {
                "type": "note_on",
                "note": 36,
                "velocity": 0,
                "time": 0
            },
            {
                "type": "note_on",
                "note": 59,
                "velocity": 47,
                "time": 90
            },
            {
                "type": "note_on",
                "note": 36,
                "velocity": 72,
                "time": 0
            },
            {
                "type": "note_on",
                "note": 36,
                "velocity": 0,
                "time": 4
            },
            {
                "type": "note_on",
                "note": 59,
                "velocity": 0,
                "time": 0
            },
            {
                "type": "note_on",
                "note": 38,
                "velocity": 90,
                "time": 92
            },
            {
                "type": "note_on",
                "note": 59,
                "velocity": 49,
                "time": 1
            },
            {
                "type": "note_on",
                "note": 38,
                "velocity": 0,
                "time": 3
            },
            {
                "type": "note_on",
                "note": 59,
                "velocity": 0,
                "time": 1
            },
            {
                "type": "note_on",
                "note": 59,
                "velocity": 51,
                "time": 91
            },
            {
                "type": "note_on",
                "note": 59,
                "velocity": 0,
                "time": 4
            },
            {
                "type": "note_on",
                "note": 59,
                "velocity": 54,
                "time": 95
            },
            {
                "type": "note_on",
                "note": 36,
                "velocity": 70,
                "time": 0
            },
            {
                "type": "note_on",
                "note": 36,
                "velocity": 0,
                "time": 4
            },
            {
                "type": "note_on",
                "note": 59,
                "velocity": 0,
                "time": 0
            },
            {
                "type": "note_on",
                "note": 36,
                "velocity": 80,
                "time": 89
            },
            {
                "type": "note_on",
                "note": 59,
                "velocity": 41,
                "time": 0
            },
            {
                "type": "note_on",
                "note": 59,
                "velocity": 0,
                "time": 4
            },
            {
                "type": "note_on",
                "note": 36,
                "velocity": 0,
                "time": 0
            },
            {
                "type": "note_on",
                "note": 59,
                "velocity": 48,
                "time": 93
            },
            {
                "type": "note_on",
                "note": 38,
                "velocity": 87,
                "time": 0
            },
            {
                "type": "note_on",
                "note": 38,
                "velocity": 0,
                "time": 4
            },
            {
                "type": "note_on",
                "note": 59,
                "velocity": 0,
                "time": 0
            },
            {
                "type": "note_on",
                "note": 59,
                "velocity": 43,
                "time": 91
            },
            {
                "type": "note_on",
                "note": 59,
                "velocity": 0,
                "time": 4
            },
            {
                "type": "note_on",
                "note": 59,
                "velocity": 48,
                "time": 93
            },
            {
                "type": "note_on",
                "note": 36,
                "velocity": 76,
                "time": 0
            },
            {
                "type": "note_on",
                "note": 36,
                "velocity": 0,
                "time": 4
            },
            {
                "type": "note_on",
                "note": 59,
                "velocity": 0,
                "time": 0
            },
            {
                "type": "note_on",
                "note": 36,
                "velocity": 70,
                "time": 91
            },
            {
                "type": "note_on",
                "note": 59,
                "velocity": 43,
                "time": 0
            },
            {
                "type": "note_on",
                "note": 59,
                "velocity": 0,
                "time": 4
            },
            {
                "type": "note_on",
                "note": 36,
                "velocity": 0,
                "time": 0
            },
            {
                "type": "note_on",
                "note": 59,
                "velocity": 48,
                "time": 93
            },
            {
                "type": "note_on",
                "note": 38,
                "velocity": 87,
                "time": 0
            },
            {
                "type": "note_on",
                "note": 38,
                "velocity": 0,
                "time": 4
            },
            {
                "type": "note_on",
                "note": 59,
                "velocity": 0,
                "time": 0
            },
            {
                "type": "note_on",
                "note": 59,
                "velocity": 56,
                "time": 91
            },
            {
                "type": "note_on",
                "note": 59,
                "velocity": 0,
                "time": 4
            },
            {
                "type": "note_on",
                "note": 36,
                "velocity": 81,
                "time": 94
            },
            {
                "type": "note_on",
                "note": 49,
                "velocity": 42,
                "time": 0
            },
            {
                "type": "note_on",
                "note": 49,
                "velocity": 0,
                "time": 4
            },
            {
                "type": "note_on",
                "note": 36,
                "velocity": 0,
                "time": 0
            }
        ]
    },
    {
        "track": 11,
        "notes": [
            {
                "type": "note_on",
                "note": 79,
                "velocity": 88,
                "time": 6526
            },
            {
                "type": "note_on",
                "note": 79,
                "velocity": 0,
                "time": 192
            },
            {
                "type": "note_on",
                "note": 77,
                "velocity": 88,
                "time": 0
            },
            {
                "type": "note_on",
                "note": 77,
                "velocity": 0,
                "time": 384
            },
            {
                "type": "note_on",
                "note": 79,
                "velocity": 88,
                "time": 192
            },
            {
                "type": "note_on",
                "note": 79,
                "velocity": 0,
                "time": 192
            },
            {
                "type": "note_on",
                "note": 77,
                "velocity": 88,
                "time": 0
            },
            {
                "type": "note_on",
                "note": 77,
                "velocity": 0,
                "time": 384
            },
            {
                "type": "note_on",
                "note": 79,
                "velocity": 88,
                "time": 192
            },
            {
                "type": "note_on",
                "note": 79,
                "velocity": 0,
                "time": 192
            },
            {
                "type": "note_on",
                "note": 77,
                "velocity": 88,
                "time": 0
            },
            {
                "type": "note_on",
                "note": 77,
                "velocity": 0,
                "time": 384
            },
            {
                "type": "note_on",
                "note": 81,
                "velocity": 88,
                "time": 192
            },
            {
                "type": "note_on",
                "note": 81,
                "velocity": 0,
                "time": 192
            },
            {
                "type": "note_on",
                "note": 79,
                "velocity": 88,
                "time": 0
            },
            {
                "type": "note_on",
                "note": 79,
                "velocity": 0,
                "time": 384
            },
            {
                "type": "note_on",
                "note": 79,
                "velocity": 88,
                "time": 1728
            },
            {
                "type": "note_on",
                "note": 79,
                "velocity": 0,
                "time": 192
            },
            {
                "type": "note_on",
                "note": 77,
                "velocity": 88,
                "time": 0
            },
            {
                "type": "note_on",
                "note": 77,
                "velocity": 0,
                "time": 384
            },
            {
                "type": "note_on",
                "note": 81,
                "velocity": 88,
                "time": 192
            },
            {
                "type": "note_on",
                "note": 81,
                "velocity": 0,
                "time": 192
            },
            {
                "type": "note_on",
                "note": 79,
                "velocity": 88,
                "time": 0
            },
            {
                "type": "note_on",
                "note": 79,
                "velocity": 0,
                "time": 384
            },
            {
                "type": "note_on",
                "note": 67,
                "velocity": 88,
                "time": 623
            },
            {
                "type": "note_on",
                "note": 67,
                "velocity": 0,
                "time": 92
            },
            {
                "type": "note_on",
                "note": 75,
                "velocity": 99,
                "time": 2
            },
            {
                "type": "note_on",
                "note": 75,
                "velocity": 0,
                "time": 32
            },
            {
                "type": "note_on",
                "note": 74,
                "velocity": 91,
                "time": 4
            },
            {
                "type": "note_on",
                "note": 74,
                "velocity": 0,
                "time": 174
            },
            {
                "type": "note_on",
                "note": 76,
                "velocity": 87,
                "time": 0
            },
            {
                "type": "note_on",
                "note": 76,
                "velocity": 0,
                "time": 88
            },
            {
                "type": "note_on",
                "note": 78,
                "velocity": 87,
                "time": 2
            },
            {
                "type": "note_on",
                "note": 78,
                "velocity": 0,
                "time": 74
            },
            {
                "type": "note_on",
                "note": 79,
                "velocity": 90,
                "time": 2
            },
            {
                "type": "note_on",
                "note": 79,
                "velocity": 0,
                "time": 6
            },
            {
                "type": "note_on",
                "note": 68,
                "velocity": 79,
                "time": 2
            },
            {
                "type": "note_on",
                "note": 68,
                "velocity": 0,
                "time": 3
            },
            {
                "type": "note_on",
                "note": 67,
                "velocity": 77,
                "time": 2
            },
            {
                "type": "note_on",
                "note": 67,
                "velocity": 0,
                "time": 72
            },
            {
                "type": "note_on",
                "note": 68,
                "velocity": 65,
                "time": 10
            },
            {
                "type": "note_on",
                "note": 70,
                "velocity": 66,
                "time": 104
            },
            {
                "type": "note_on",
                "note": 68,
                "velocity": 0,
                "time": 2
            },
            {
                "type": "note_on",
                "note": 70,
                "velocity": 0,
                "time": 4
            },
            {
                "type": "note_on",
                "note": 67,
                "velocity": 60,
                "time": 2
            },
            {
                "type": "note_on",
                "note": 67,
                "velocity": 0,
                "time": 18
            }
        ]
    },
    {
        "track": 12,
        "notes": [
            {
                "type": "note_on",
                "note": 57,
                "velocity": 53,
                "time": 9219
            },
            {
                "type": "note_on",
                "note": 57,
                "velocity": 0,
                "time": 6
            }
        ]
    },
    {
        "track": 13,
        "notes": [
            {
                "type": "note_on",
                "note": 51,
                "velocity": 84,
                "time": 72490
            },
            {
                "type": "note_on",
                "note": 58,
                "velocity": 42,
                "time": 6
            },
            {
                "type": "note_on",
                "note": 67,
                "velocity": 34,
                "time": 2
            },
            {
                "type": "note_on",
                "note": 63,
                "velocity": 56,
                "time": 0
            },
            {
                "type": "note_on",
                "note": 63,
                "velocity": 0,
                "time": 1078
            },
            {
                "type": "note_on",
                "note": 58,
                "velocity": 0,
                "time": 2
            },
            {
                "type": "note_on",
                "note": 67,
                "velocity": 0,
                "time": 4
            },
            {
                "type": "note_on",
                "note": 51,
                "velocity": 0,
                "time": 12
            },
            {
                "type": "note_on",
                "note": 51,
                "velocity": 70,
                "time": 26
            },
            {
                "type": "note_on",
                "note": 58,
                "velocity": 53,
                "time": 8
            },
            {
                "type": "note_on",
                "note": 67,
                "velocity": 56,
                "time": 2
            },
            {
                "type": "note_on",
                "note": 63,
                "velocity": 64,
                "time": 0
            },
            {
                "type": "note_on",
                "note": 63,
                "velocity": 0,
                "time": 1104
            },
            {
                "type": "note_on",
                "note": 51,
                "velocity": 0,
                "time": 0
            },
            {
                "type": "note_on",
                "note": 67,
                "velocity": 0,
                "time": 2
            },
            {
                "type": "note_on",
                "note": 58,
                "velocity": 0,
                "time": 0
            },
            {
                "type": "note_on",
                "note": 51,
                "velocity": 77,
                "time": 44
            },
            {
                "type": "note_on",
                "note": 58,
                "velocity": 41,
                "time": 12
            },
            {
                "type": "note_on",
                "note": 63,
                "velocity": 60,
                "time": 4
            },
            {
                "type": "note_on",
                "note": 67,
                "velocity": 54,
                "time": 2
            },
            {
                "type": "note_on",
                "note": 58,
                "velocity": 0,
                "time": 1074
            },
            {
                "type": "note_on",
                "note": 67,
                "velocity": 0,
                "time": 16
            },
            {
                "type": "note_on",
                "note": 63,
                "velocity": 0,
                "time": 6
            },
            {
                "type": "note_on",
                "note": 51,
                "velocity": 0,
                "time": 18
            },
            {
                "type": "note_on",
                "note": 53,
                "velocity": 81,
                "time": 24
            },
            {
                "type": "note_on",
                "note": 69,
                "velocity": 56,
                "time": 4
            },
            {
                "type": "note_on",
                "note": 60,
                "velocity": 70,
                "time": 2
            },
            {
                "type": "note_on",
                "note": 65,
                "velocity": 73,
                "time": 2
            },
            {
                "type": "note_on",
                "note": 60,
                "velocity": 0,
                "time": 1074
            },
            {
                "type": "note_on",
                "note": 65,
                "velocity": 0,
                "time": 6
            },
            {
                "type": "note_on",
                "note": 69,
                "velocity": 0,
                "time": 0
            },
            {
                "type": "note_on",
                "note": 53,
                "velocity": 0,
                "time": 16
            },
            {
                "type": "note_on",
                "note": 53,
                "velocity": 80,
                "time": 56
            },
            {
                "type": "note_on",
                "note": 46,
                "velocity": 66,
                "time": 0
            },
            {
                "type": "note_on",
                "note": 58,
                "velocity": 51,
                "time": 6
            },
            {
                "type": "note_on",
                "note": 65,
                "velocity": 73,
                "time": 2
            },
            {
                "type": "note_on",
                "note": 70,
                "velocity": 67,
                "time": 2
            },
            {
                "type": "note_on",
                "note": 62,
                "velocity": 77,
                "time": 0
            },
            {
                "type": "note_on",
                "note": 46,
                "velocity": 0,
                "time": 1632
            },
            {
                "type": "note_on",
                "note": 62,
                "velocity": 0,
                "time": 2
            },
            {
                "type": "note_on",
                "note": 65,
                "velocity": 0,
                "time": 4
            },
            {
                "type": "note_on",
                "note": 70,
                "velocity": 0,
                "time": 2
            },
            {
                "type": "note_on",
                "note": 58,
                "velocity": 0,
                "time": 6
            },
            {
                "type": "note_on",
                "note": 53,
                "velocity": 0,
                "time": 0
            },
            {
                "type": "note_on",
                "note": 51,
                "velocity": 61,
                "time": 72
            },
            {
                "type": "note_on",
                "note": 58,
                "velocity": 93,
                "time": 2
            },
            {
                "type": "note_on",
                "note": 63,
                "velocity": 57,
                "time": 0
            },
            {
                "type": "note_on",
                "note": 67,
                "velocity": 73,
                "time": 2
            },
            {
                "type": "note_on",
                "note": 51,
                "velocity": 0,
                "time": 206
            },
            {
                "type": "note_on",
                "note": 67,
                "velocity": 0,
                "time": 14
            },
            {
                "type": "note_on",
                "note": 58,
                "velocity": 0,
                "time": 2
            },
            {
                "type": "note_on",
                "note": 63,
                "velocity": 0,
                "time": 8
            },
            {
                "type": "note_on",
                "note": 58,
                "velocity": 84,
                "time": 48
            },
            {
                "type": "note_on",
                "note": 51,
                "velocity": 78,
                "time": 2
            },
            {
                "type": "note_on",
                "note": 67,
                "velocity": 75,
                "time": 2
            },
            {
                "type": "note_on",
                "note": 63,
                "velocity": 63,
                "time": 0
            },
            {
                "type": "note_on",
                "note": 63,
                "velocity": 0,
                "time": 226
            },
            {
                "type": "note_on",
                "note": 67,
                "velocity": 0,
                "time": 26
            },
            {
                "type": "note_on",
                "note": 58,
                "velocity": 0,
                "time": 0
            },
            {
                "type": "note_on",
                "note": 51,
                "velocity": 0,
                "time": 18
            },
            {
                "type": "note_on",
                "note": 58,
                "velocity": 40,
                "time": 26
            },
            {
                "type": "note_on",
                "note": 70,
                "velocity": 55,
                "time": 4
            },
            {
                "type": "note_on",
                "note": 46,
                "velocity": 57,
                "time": 2
            },
            {
                "type": "note_on",
                "note": 62,
                "velocity": 75,
                "time": 0
            },
            {
                "type": "note_on",
                "note": 65,
                "velocity": 69,
                "time": 0
            },
            {
                "type": "note_on",
                "note": 53,
                "velocity": 80,
                "time": 2
            },
            {
                "type": "note_on",
                "note": 65,
                "velocity": 0,
                "time": 1218
            },
            {
                "type": "note_on",
                "note": 70,
                "velocity": 0,
                "time": 50
            },
            {
                "type": "note_on",
                "note": 62,
                "velocity": 0,
                "time": 6
            },
            {
                "type": "note_on",
                "note": 58,
                "velocity": 0,
                "time": 2
            },
            {
                "type": "note_on",
                "note": 53,
                "velocity": 0,
                "time": 36
            },
            {
                "type": "note_on",
                "note": 46,
                "velocity": 0,
                "time": 0
            },
            {
                "type": "note_on",
                "note": 61,
                "velocity": 67,
                "time": 34
            },
            {
                "type": "note_on",
                "note": 56,
                "velocity": 52,
                "time": 0
            },
            {
                "type": "note_on",
                "note": 49,
                "velocity": 72,
                "time": 4
            },
            {
                "type": "note_on",
                "note": 56,
                "velocity": 0,
                "time": 288
            },
            {
                "type": "note_on",
                "note": 49,
                "velocity": 0,
                "time": 20
            },
            {
                "type": "note_on",
                "note": 61,
                "velocity": 0,
                "time": 6
            },
            {
                "type": "note_on",
                "note": 65,
                "velocity": 70,
                "time": 24
            },
            {
                "type": "note_on",
                "note": 62,
                "velocity": 73,
                "time": 0
            },
            {
                "type": "note_on",
                "note": 70,
                "velocity": 73,
                "time": 0
            },
            {
                "type": "note_on",
                "note": 58,
                "velocity": 56,
                "time": 0
            },
            {
                "type": "note_on",
                "note": 46,
                "velocity": 65,
                "time": 12
            },
            {
                "type": "note_on",
                "note": 53,
                "velocity": 80,
                "time": 4
            },
            {
                "type": "note_on",
                "note": 65,
                "velocity": 0,
                "time": 1086
            },
            {
                "type": "note_on",
                "note": 46,
                "velocity": 0,
                "time": 12
            },
            {
                "type": "note_on",
                "note": 53,
                "velocity": 0,
                "time": 2
            },
            {
                "type": "note_on",
                "note": 70,
                "velocity": 0,
                "time": 4
            },
            {
                "type": "note_on",
                "note": 62,
                "velocity": 0,
                "time": 4
            },
            {
                "type": "note_on",
                "note": 58,
                "velocity": 0,
                "time": 2
            },
            {
                "type": "note_on",
                "note": 46,
                "velocity": 50,
                "time": 42
            },
            {
                "type": "note_on",
                "note": 53,
                "velocity": 74,
                "time": 2
            },
            {
                "type": "note_on",
                "note": 58,
                "velocity": 58,
                "time": 0
            },
            {
                "type": "note_on",
                "note": 70,
                "velocity": 64,
                "time": 0
            },
            {
                "type": "note_on",
                "note": 62,
                "velocity": 76,
                "time": 6
            },
            {
                "type": "note_on",
                "note": 65,
                "velocity": 70,
                "time": 4
            },
            {
                "type": "note_on",
                "note": 62,
                "velocity": 0,
                "time": 482
            },
            {
                "type": "note_on",
                "note": 65,
                "velocity": 0,
                "time": 8
            },
            {
                "type": "note_on",
                "note": 70,
                "velocity": 0,
                "time": 8
            },
            {
                "type": "note_on",
                "note": 58,
                "velocity": 0,
                "time": 4
            },
            {
                "type": "note_on",
                "note": 46,
                "velocity": 0,
                "time": 14
            },
            {
                "type": "note_on",
                "note": 53,
                "velocity": 0,
                "time": 6
            },
            {
                "type": "note_on",
                "note": 58,
                "velocity": 65,
                "time": 40
            },
            {
                "type": "note_on",
                "note": 51,
                "velocity": 70,
                "time": 2
            },
            {
                "type": "note_on",
                "note": 63,
                "velocity": 60,
                "time": 4
            },
            {
                "type": "note_on",
                "note": 67,
                "velocity": 70,
                "time": 4
            },
            {
                "type": "note_on",
                "note": 51,
                "velocity": 0,
                "time": 152
            },
            {
                "type": "note_on",
                "note": 58,
                "velocity": 0,
                "time": 4
            },
            {
                "type": "note_on",
                "note": 67,
                "velocity": 0,
                "time": 14
            },
            {
                "type": "note_on",
                "note": 63,
                "velocity": 0,
                "time": 6
            },
            {
                "type": "note_on",
                "note": 51,
                "velocity": 81,
                "time": 18
            },
            {
                "type": "note_on",
                "note": 63,
                "velocity": 54,
                "time": 6
            },
            {
                "type": "note_on",
                "note": 58,
                "velocity": 72,
                "time": 0
            },
            {
                "type": "note_on",
                "note": 67,
                "velocity": 75,
                "time": 2
            },
            {
                "type": "note_on",
                "note": 67,
                "velocity": 0,
                "time": 148
            },
            {
                "type": "note_on",
                "note": 63,
                "velocity": 0,
                "time": 4
            },
            {
                "type": "note_on",
                "note": 51,
                "velocity": 0,
                "time": 10
            },
            {
                "type": "note_on",
                "note": 58,
                "velocity": 0,
                "time": 8
            },
            {
                "type": "note_on",
                "note": 51,
                "velocity": 81,
                "time": 16
            },
            {
                "type": "note_on",
                "note": 58,
                "velocity": 85,
                "time": 0
            },
            {
                "type": "note_on",
                "note": 63,
                "velocity": 67,
                "time": 2
            },
            {
                "type": "note_on",
                "note": 67,
                "velocity": 81,
                "time": 2
            },
            {
                "type": "note_on",
                "note": 63,
                "velocity": 0,
                "time": 88
            },
            {
                "type": "note_on",
                "note": 67,
                "velocity": 0,
                "time": 30
            },
            {
                "type": "note_on",
                "note": 51,
                "velocity": 0,
                "time": 14
            },
            {
                "type": "note_on",
                "note": 58,
                "velocity": 0,
                "time": 24
            },
            {
                "type": "note_on",
                "note": 44,
                "velocity": 66,
                "time": 34
            },
            {
                "type": "note_on",
                "note": 51,
                "velocity": 79,
                "time": 0
            },
            {
                "type": "note_on",
                "note": 56,
                "velocity": 62,
                "time": 6
            },
            {
                "type": "note_on",
                "note": 60,
                "velocity": 60,
                "time": 0
            },
            {
                "type": "note_on",
                "note": 63,
                "velocity": 56,
                "time": 2
            },
            {
                "type": "note_on",
                "note": 68,
                "velocity": 65,
                "time": 4
            },
            {
                "type": "note_on",
                "note": 63,
                "velocity": 0,
                "time": 694
            },
            {
                "type": "note_on",
                "note": 60,
                "velocity": 0,
                "time": 8
            },
            {
                "type": "note_on",
                "note": 56,
                "velocity": 0,
                "time": 0
            },
            {
                "type": "note_on",
                "note": 68,
                "velocity": 0,
                "time": 2
            },
            {
                "type": "note_on",
                "note": 51,
                "velocity": 0,
                "time": 12
            },
            {
                "type": "note_on",
                "note": 44,
                "velocity": 0,
                "time": 6
            },
            {
                "type": "note_on",
                "note": 44,
                "velocity": 61,
                "time": 28
            },
            {
                "type": "note_on",
                "note": 51,
                "velocity": 78,
                "time": 4
            },
            {
                "type": "note_on",
                "note": 56,
                "velocity": 63,
                "time": 2
            },
            {
                "type": "note_on",
                "note": 60,
                "velocity": 83,
                "time": 0
            },
            {
                "type": "note_on",
                "note": 63,
                "velocity": 67,
                "time": 2
            },
            {
                "type": "note_on",
                "note": 68,
                "velocity": 78,
                "time": 0
            },
            {
                "type": "note_on",
                "note": 63,
                "velocity": 0,
                "time": 134
            },
            {
                "type": "note_on",
                "note": 60,
                "velocity": 0,
                "time": 2
            },
            {
                "type": "note_on",
                "note": 68,
                "velocity": 0,
                "time": 2
            },
            {
                "type": "note_on",
                "note": 56,
                "velocity": 0,
                "time": 4
            },
            {
                "type": "note_on",
                "note": 44,
                "velocity": 0,
                "time": 6
            },
            {
                "type": "note_on",
                "note": 51,
                "velocity": 0,
                "time": 20
            },
            {
                "type": "note_on",
                "note": 43,
                "velocity": 78,
                "time": 16
            },
            {
                "type": "note_on",
                "note": 55,
                "velocity": 65,
                "time": 2
            },
            {
                "type": "note_on",
                "note": 50,
                "velocity": 83,
                "time": 0
            },
            {
                "type": "note_on",
                "note": 58,
                "velocity": 77,
                "time": 4
            },
            {
                "type": "note_on",
                "note": 62,
                "velocity": 77,
                "time": 2
            },
            {
                "type": "note_on",
                "note": 67,
                "velocity": 65,
                "time": 2
            },
            {
                "type": "note_on",
                "note": 43,
                "velocity": 0,
                "time": 132
            },
            {
                "type": "note_on",
                "note": 67,
                "velocity": 0,
                "time": 4
            },
            {
                "type": "note_on",
                "note": 50,
                "velocity": 0,
                "time": 4
            },
            {
                "type": "note_on",
                "note": 58,
                "velocity": 0,
                "time": 10
            },
            {
                "type": "note_on",
                "note": 55,
                "velocity": 0,
                "time": 2
            },
            {
                "type": "note_on",
                "note": 62,
                "velocity": 0,
                "time": 6
            },
            {
                "type": "note_on",
                "note": 53,
                "velocity": 78,
                "time": 24
            },
            {
                "type": "note_on",
                "note": 60,
                "velocity": 70,
                "time": 0
            },
            {
                "type": "note_on",
                "note": 65,
                "velocity": 81,
                "time": 2
            },
            {
                "type": "note_on",
                "note": 48,
                "velocity": 75,
                "time": 10
            },
            {
                "type": "note_on",
                "note": 41,
                "velocity": 75,
                "time": 4
            },
            {
                "type": "note_on",
                "note": 60,
                "velocity": 0,
                "time": 1052
            },
            {
                "type": "note_on",
                "note": 53,
                "velocity": 0,
                "time": 0
            },
            {
                "type": "note_on",
                "note": 65,
                "velocity": 0,
                "time": 6
            },
            {
                "type": "note_on",
                "note": 48,
                "velocity": 0,
                "time": 64
            },
            {
                "type": "note_on",
                "note": 41,
                "velocity": 0,
                "time": 0
            },
            {
                "type": "note_on",
                "note": 53,
                "velocity": 85,
                "time": 2
            },
            {
                "type": "note_on",
                "note": 65,
                "velocity": 73,
                "time": 2
            },
            {
                "type": "note_on",
                "note": 46,
                "velocity": 61,
                "time": 2
            },
            {
                "type": "note_on",
                "note": 70,
                "velocity": 71,
                "time": 2
            },
            {
                "type": "note_on",
                "note": 62,
                "velocity": 74,
                "time": 0
            },
            {
                "type": "note_on",
                "note": 58,
                "velocity": 73,
                "time": 4
            },
            {
                "type": "note_on",
                "note": 62,
                "velocity": 0,
                "time": 1050
            },
            {
                "type": "note_on",
                "note": 65,
                "velocity": 0,
                "time": 16
            },
            {
                "type": "note_on",
                "note": 70,
                "velocity": 0,
                "time": 34
            },
            {
                "type": "note_on",
                "note": 53,
                "velocity": 0,
                "time": 44
            },
            {
                "type": "note_on",
                "note": 58,
                "velocity": 0,
                "time": 8
            },
            {
                "type": "note_on",
                "note": 46,
                "velocity": 0,
                "time": 0
            },
            {
                "type": "note_on",
                "note": 65,
                "velocity": 77,
                "time": 0
            },
            {
                "type": "note_on",
                "note": 48,
                "velocity": 78,
                "time": 2
            },
            {
                "type": "note_on",
                "note": 53,
                "velocity": 72,
                "time": 0
            },
            {
                "type": "note_on",
                "note": 41,
                "velocity": 74,
                "time": 0
            },
            {
                "type": "note_on",
                "note": 60,
                "velocity": 64,
                "time": 4
            },
            {
                "type": "note_on",
                "note": 60,
                "velocity": 0,
                "time": 1086
            },
            {
                "type": "note_on",
                "note": 65,
                "velocity": 0,
                "time": 28
            },
            {
                "type": "note_on",
                "note": 53,
                "velocity": 0,
                "time": 28
            },
            {
                "type": "note_on",
                "note": 62,
                "velocity": 76,
                "time": 0
            },
            {
                "type": "note_on",
                "note": 46,
                "velocity": 67,
                "time": 2
            },
            {
                "type": "note_on",
                "note": 53,
                "velocity": 79,
                "time": 0
            },
            {
                "type": "note_on",
                "note": 41,
                "velocity": 0,
                "time": 2
            },
            {
                "type": "note_on",
                "note": 70,
                "velocity": 75,
                "time": 0
            },
            {
                "type": "note_on",
                "note": 58,
                "velocity": 79,
                "time": 2
            },
            {
                "type": "note_on",
                "note": 48,
                "velocity": 0,
                "time": 4
            },
            {
                "type": "note_on",
                "note": 62,
                "velocity": 0,
                "time": 1088
            },
            {
                "type": "note_on",
                "note": 53,
                "velocity": 0,
                "time": 40
            },
            {
                "type": "note_on",
                "note": 70,
                "velocity": 0,
                "time": 4
            },
            {
                "type": "note_on",
                "note": 46,
                "velocity": 0,
                "time": 14
            },
            {
                "type": "note_on",
                "note": 48,
                "velocity": 68,
                "time": 2
            },
            {
                "type": "note_on",
                "note": 41,
                "velocity": 66,
                "time": 8
            },
            {
                "type": "note_on",
                "note": 58,
                "velocity": 0,
                "time": 4
            },
            {
                "type": "note_on",
                "note": 65,
                "velocity": 80,
                "time": 6
            },
            {
                "type": "note_on",
                "note": 60,
                "velocity": 76,
                "time": 2
            },
            {
                "type": "note_on",
                "note": 53,
                "velocity": 78,
                "time": 2
            },
            {
                "type": "note_on",
                "note": 60,
                "velocity": 0,
                "time": 494
            },
            {
                "type": "note_on",
                "note": 65,
                "velocity": 0,
                "time": 34
            },
            {
                "type": "note_on",
                "note": 53,
                "velocity": 0,
                "time": 16
            },
            {
                "type": "note_on",
                "note": 65,
                "velocity": 22,
                "time": 4
            },
            {
                "type": "note_on",
                "note": 62,
                "velocity": 70,
                "time": 4
            },
            {
                "type": "note_on",
                "note": 58,
                "velocity": 73,
                "time": 2
            },
            {
                "type": "note_on",
                "note": 70,
                "velocity": 68,
                "time": 0
            },
            {
                "type": "note_on",
                "note": 48,
                "velocity": 0,
                "time": 2
            },
            {
                "type": "note_on",
                "note": 41,
                "velocity": 0,
                "time": 2
            },
            {
                "type": "note_on",
                "note": 53,
                "velocity": 78,
                "time": 2
            },
            {
                "type": "note_on",
                "note": 46,
                "velocity": 67,
                "time": 0
            },
            {
                "type": "note_on",
                "note": 62,
                "velocity": 0,
                "time": 500
            },
            {
                "type": "note_on",
                "note": 65,
                "velocity": 0,
                "time": 24
            },
            {
                "type": "note_on",
                "note": 70,
                "velocity": 0,
                "time": 0
            },
            {
                "type": "note_on",
                "note": 53,
                "velocity": 0,
                "time": 12
            },
            {
                "type": "note_on",
                "note": 58,
                "velocity": 0,
                "time": 16
            },
            {
                "type": "note_on",
                "note": 65,
                "velocity": 75,
                "time": 2
            },
            {
                "type": "note_on",
                "note": 60,
                "velocity": 78,
                "time": 4
            },
            {
                "type": "note_on",
                "note": 53,
                "velocity": 80,
                "time": 2
            },
            {
                "type": "note_on",
                "note": 48,
                "velocity": 74,
                "time": 2
            },
            {
                "type": "note_on",
                "note": 41,
                "velocity": 80,
                "time": 0
            },
            {
                "type": "note_on",
                "note": 46,
                "velocity": 0,
                "time": 2
            },
            {
                "type": "note_on",
                "note": 60,
                "velocity": 0,
                "time": 528
            },
            {
                "type": "note_on",
                "note": 65,
                "velocity": 0,
                "time": 24
            },
            {
                "type": "note_on",
                "note": 65,
                "velocity": 53,
                "time": 18
            },
            {
                "type": "note_on",
                "note": 53,
                "velocity": 0,
                "time": 4
            },
            {
                "type": "note_on",
                "note": 46,
                "velocity": 64,
                "time": 2
            },
            {
                "type": "note_on",
                "note": 41,
                "velocity": 0,
                "time": 2
            },
            {
                "type": "note_on",
                "note": 58,
                "velocity": 67,
                "time": 0
            },
            {
                "type": "note_on",
                "note": 70,
                "velocity": 65,
                "time": 0
            },
            {
                "type": "note_on",
                "note": 53,
                "velocity": 86,
                "time": 0
            },
            {
                "type": "note_on",
                "note": 62,
                "velocity": 70,
                "time": 4
            },
            {
                "type": "note_on",
                "note": 48,
                "velocity": 0,
                "time": 4
            },
            {
                "type": "note_on",
                "note": 70,
                "velocity": 0,
                "time": 464
            },
            {
                "type": "note_on",
                "note": 65,
                "velocity": 0,
                "time": 12
            },
            {
                "type": "note_on",
                "note": 62,
                "velocity": 0,
                "time": 20
            },
            {
                "type": "note_on",
                "note": 58,
                "velocity": 0,
                "time": 6
            },
            {
                "type": "note_on",
                "note": 46,
                "velocity": 0,
                "time": 60
            },
            {
                "type": "note_on",
                "note": 63,
                "velocity": 68,
                "time": 0
            },
            {
                "type": "note_on",
                "note": 67,
                "velocity": 56,
                "time": 0
            },
            {
                "type": "note_on",
                "note": 58,
                "velocity": 70,
                "time": 4
            },
            {
                "type": "note_on",
                "note": 51,
                "velocity": 85,
                "time": 0
            },
            {
                "type": "note_on",
                "note": 53,
                "velocity": 0,
                "time": 4
            },
            {
                "type": "note_on",
                "note": 58,
                "velocity": 0,
                "time": 1090
            },
            {
                "type": "note_on",
                "note": 63,
                "velocity": 0,
                "time": 0
            },
            {
                "type": "note_on",
                "note": 67,
                "velocity": 0,
                "time": 2
            },
            {
                "type": "note_on",
                "note": 51,
                "velocity": 0,
                "time": 16
            },
            {
                "type": "note_on",
                "note": 63,
                "velocity": 73,
                "time": 30
            },
            {
                "type": "note_on",
                "note": 58,
                "velocity": 64,
                "time": 0
            },
            {
                "type": "note_on",
                "note": 67,
                "velocity": 56,
                "time": 0
            },
            {
                "type": "note_on",
                "note": 51,
                "velocity": 89,
                "time": 10
            },
            {
                "type": "note_on",
                "note": 58,
                "velocity": 0,
                "time": 1100
            },
            {
                "type": "note_on",
                "note": 63,
                "velocity": 0,
                "time": 2
            },
            {
                "type": "note_on",
                "note": 67,
                "velocity": 0,
                "time": 0
            },
            {
                "type": "note_on",
                "note": 51,
                "velocity": 0,
                "time": 10
            },
            {
                "type": "note_on",
                "note": 51,
                "velocity": 84,
                "time": 42
            },
            {
                "type": "note_on",
                "note": 58,
                "velocity": 61,
                "time": 0
            },
            {
                "type": "note_on",
                "note": 63,
                "velocity": 75,
                "time": 2
            },
            {
                "type": "note_on",
                "note": 67,
                "velocity": 56,
                "time": 2
            },
            {
                "type": "note_on",
                "note": 67,
                "velocity": 0,
                "time": 1108
            },
            {
                "type": "note_on",
                "note": 63,
                "velocity": 0,
                "time": 0
            },
            {
                "type": "note_on",
                "note": 51,
                "velocity": 0,
                "time": 12
            },
            {
                "type": "note_on",
                "note": 58,
                "velocity": 0,
                "time": 12
            },
            {
                "type": "note_on",
                "note": 53,
                "velocity": 83,
                "time": 6
            },
            {
                "type": "note_on",
                "note": 60,
                "velocity": 77,
                "time": 0
            },
            {
                "type": "note_on",
                "note": 65,
                "velocity": 76,
                "time": 0
            },
            {
                "type": "note_on",
                "note": 69,
                "velocity": 56,
                "time": 0
            },
            {
                "type": "note_on",
                "note": 53,
                "velocity": 0,
                "time": 1096
            },
            {
                "type": "note_on",
                "note": 69,
                "velocity": 0,
                "time": 16
            },
            {
                "type": "note_on",
                "note": 65,
                "velocity": 0,
                "time": 4
            },
            {
                "type": "note_on",
                "note": 60,
                "velocity": 0,
                "time": 32
            },
            {
                "type": "note_on",
                "note": 61,
                "velocity": 82,
                "time": 12
            },
            {
                "type": "note_on",
                "note": 54,
                "velocity": 61,
                "time": 4
            },
            {
                "type": "note_on",
                "note": 61,
                "velocity": 0,
                "time": 560
            },
            {
                "type": "note_on",
                "note": 56,
                "velocity": 84,
                "time": 2
            },
            {
                "type": "note_on",
                "note": 54,
                "velocity": 0,
                "time": 2
            },
            {
                "type": "note_on",
                "note": 56,
                "velocity": 0,
                "time": 386
            },
            {
                "type": "note_on",
                "note": 57,
                "velocity": 92,
                "time": 2
            },
            {
                "type": "note_on",
                "note": 57,
                "velocity": 0,
                "time": 182
            },
            {
                "type": "note_on",
                "note": 59,
                "velocity": 81,
                "time": 14
            },
            {
                "type": "note_on",
                "note": 54,
                "velocity": 78,
                "time": 0
            },
            {
                "type": "note_on",
                "note": 47,
                "velocity": 80,
                "time": 6
            },
            {
                "type": "note_on",
                "note": 54,
                "velocity": 0,
                "time": 28
            },
            {
                "type": "note_on",
                "note": 47,
                "velocity": 0,
                "time": 4
            },
            {
                "type": "note_on",
                "note": 59,
                "velocity": 0,
                "time": 0
            },
            {
                "type": "note_on",
                "note": 56,
                "velocity": 57,
                "time": 2
            },
            {
                "type": "note_on",
                "note": 51,
                "velocity": 70,
                "time": 2
            },
            {
                "type": "note_on",
                "note": 44,
                "velocity": 67,
                "time": 0
            },
            {
                "type": "note_on",
                "note": 51,
                "velocity": 0,
                "time": 1074
            },
            {
                "type": "note_on",
                "note": 56,
                "velocity": 0,
                "time": 16
            },
            {
                "type": "note_on",
                "note": 44,
                "velocity": 0,
                "time": 4
            },
            {
                "type": "note_on",
                "note": 53,
                "velocity": 81,
                "time": 60
            },
            {
                "type": "note_on",
                "note": 58,
                "velocity": 75,
                "time": 0
            },
            {
                "type": "note_on",
                "note": 46,
                "velocity": 67,
                "time": 4
            },
            {
                "type": "note_on",
                "note": 58,
                "velocity": 0,
                "time": 46
            },
            {
                "type": "note_on",
                "note": 46,
                "velocity": 0,
                "time": 2
            },
            {
                "type": "note_on",
                "note": 53,
                "velocity": 0,
                "time": 2
            },
            {
                "type": "note_on",
                "note": 74,
                "velocity": 77,
                "time": 1976
            },
            {
                "type": "note_on",
                "note": 75,
                "velocity": 78,
                "time": 4
            },
            {
                "type": "note_on",
                "note": 74,
                "velocity": 0,
                "time": 8
            },
            {
                "type": "note_on",
                "note": 74,
                "velocity": 76,
                "time": 30
            },
            {
                "type": "note_on",
                "note": 75,
                "velocity": 0,
                "time": 4
            },
            {
                "type": "note_on",
                "note": 74,
                "velocity": 0,
                "time": 384
            },
            {
                "type": "note_on",
                "note": 75,
                "velocity": 78,
                "time": 8
            },
            {
                "type": "note_on",
                "note": 75,
                "velocity": 0,
                "time": 26
            },
            {
                "type": "note_on",
                "note": 75,
                "velocity": 73,
                "time": 22
            },
            {
                "type": "note_on",
                "note": 75,
                "velocity": 0,
                "time": 86
            },
            {
                "type": "note_on",
                "note": 75,
                "velocity": 86,
                "time": 18
            },
            {
                "type": "note_on",
                "note": 75,
                "velocity": 0,
                "time": 90
            }
        ]
    },
    {
        "track": 14,
        "notes": [
            {
                "type": "note_on",
                "note": 45,
                "velocity": 120,
                "time": 31370
            },
            {
                "type": "note_on",
                "note": 45,
                "velocity": 0,
                "time": 34
            },
            {
                "type": "note_on",
                "note": 44,
                "velocity": 115,
                "time": 18
            },
            {
                "type": "note_on",
                "note": 44,
                "velocity": 0,
                "time": 32
            },
            {
                "type": "note_on",
                "note": 43,
                "velocity": 113,
                "time": 4
            },
            {
                "type": "note_on",
                "note": 43,
                "velocity": 0,
                "time": 178
            },
            {
                "type": "note_on",
                "note": 51,
                "velocity": 115,
                "time": 16
            },
            {
                "type": "note_on",
                "note": 51,
                "velocity": 0,
                "time": 188
            },
            {
                "type": "note_on",
                "note": 50,
                "velocity": 103,
                "time": 12
            },
            {
                "type": "note_on",
                "note": 50,
                "velocity": 0,
                "time": 184
            },
            {
                "type": "note_on",
                "note": 48,
                "velocity": 112,
                "time": 6
            },
            {
                "type": "note_on",
                "note": 48,
                "velocity": 0,
                "time": 222
            },
            {
                "type": "note_on",
                "note": 53,
                "velocity": 120,
                "time": 12
            },
            {
                "type": "note_on",
                "note": 53,
                "velocity": 0,
                "time": 260
            },
            {
                "type": "note_on",
                "note": 52,
                "velocity": 110,
                "time": 10
            },
            {
                "type": "note_on",
                "note": 52,
                "velocity": 0,
                "time": 88
            },
            {
                "type": "note_on",
                "note": 51,
                "velocity": 113,
                "time": 16
            },
            {
                "type": "note_on",
                "note": 51,
                "velocity": 0,
                "time": 176
            },
            {
                "type": "note_on",
                "note": 50,
                "velocity": 103,
                "time": 18
            },
            {
                "type": "note_on",
                "note": 50,
                "velocity": 0,
                "time": 176
            },
            {
                "type": "note_on",
                "note": 46,
                "velocity": 124,
                "time": 18
            },
            {
                "type": "note_on",
                "note": 46,
                "velocity": 0,
                "time": 748
            },
            {
                "type": "note_on",
                "note": 51,
                "velocity": 104,
                "time": 20
            },
            {
                "type": "note_on",
                "note": 51,
                "velocity": 0,
                "time": 38
            },
            {
                "type": "note_on",
                "note": 50,
                "velocity": 106,
                "time": 8
            },
            {
                "type": "note_on",
                "note": 50,
                "velocity": 0,
                "time": 16
            },
            {
                "type": "note_on",
                "note": 48,
                "velocity": 110,
                "time": 2
            },
            {
                "type": "note_on",
                "note": 48,
                "velocity": 0,
                "time": 94
            },
            {
                "type": "note_on",
                "note": 53,
                "velocity": 120,
                "time": 14
            },
            {
                "type": "note_on",
                "note": 53,
                "velocity": 0,
                "time": 264
            },
            {
                "type": "note_on",
                "note": 52,
                "velocity": 101,
                "time": 14
            },
            {
                "type": "note_on",
                "note": 52,
                "velocity": 0,
                "time": 82
            },
            {
                "type": "note_on",
                "note": 51,
                "velocity": 111,
                "time": 18
            },
            {
                "type": "note_on",
                "note": 51,
                "velocity": 0,
                "time": 188
            },
            {
                "type": "note_on",
                "note": 50,
                "velocity": 109,
                "time": 10
            },
            {
                "type": "note_on",
                "note": 50,
                "velocity": 0,
                "time": 154
            },
            {
                "type": "note_on",
                "note": 53,
                "velocity": 99,
                "time": 28
            },
            {
                "type": "note_on",
                "note": 58,
                "velocity": 106,
                "time": 0
            },
            {
                "type": "note_on",
                "note": 46,
                "velocity": 99,
                "time": 0
            },
            {
                "type": "note_on",
                "note": 46,
                "velocity": 0,
                "time": 330
            },
            {
                "type": "note_on",
                "note": 53,
                "velocity": 0,
                "time": 2
            },
            {
                "type": "note_on",
                "note": 58,
                "velocity": 0,
                "time": 2
            },
            {
                "type": "note_on",
                "note": 46,
                "velocity": 87,
                "time": 12
            },
            {
                "type": "note_on",
                "note": 58,
                "velocity": 102,
                "time": 2
            },
            {
                "type": "note_on",
                "note": 53,
                "velocity": 94,
                "time": 2
            },
            {
                "type": "note_on",
                "note": 46,
                "velocity": 0,
                "time": 28
            },
            {
                "type": "note_on",
                "note": 58,
                "velocity": 0,
                "time": 4
            },
            {
                "type": "note_on",
                "note": 53,
                "velocity": 0,
                "time": 2
            },
            {
                "type": "note_on",
                "note": 46,
                "velocity": 92,
                "time": 12
            },
            {
                "type": "note_on",
                "note": 53,
                "velocity": 98,
                "time": 0
            },
            {
                "type": "note_on",
                "note": 58,
                "velocity": 107,
                "time": 0
            },
            {
                "type": "note_on",
                "note": 58,
                "velocity": 0,
                "time": 364
            },
            {
                "type": "note_on",
                "note": 46,
                "velocity": 0,
                "time": 0
            },
            {
                "type": "note_on",
                "note": 53,
                "velocity": 0,
                "time": 6
            },
            {
                "type": "note_on",
                "note": 51,
                "velocity": 95,
                "time": 2
            },
            {
                "type": "note_on",
                "note": 51,
                "velocity": 0,
                "time": 100
            },
            {
                "type": "note_on",
                "note": 51,
                "velocity": 95,
                "time": 12
            },
            {
                "type": "note_on",
                "note": 51,
                "velocity": 0,
                "time": 168
            },
            {
                "type": "note_on",
                "note": 51,
                "velocity": 102,
                "time": 16
            },
            {
                "type": "note_on",
                "note": 51,
                "velocity": 0,
                "time": 30
            },
            {
                "type": "note_on",
                "note": 51,
                "velocity": 97,
                "time": 16
            },
            {
                "type": "note_on",
                "note": 51,
                "velocity": 0,
                "time": 46
            },
            {
                "type": "note_on",
                "note": 50,
                "velocity": 98,
                "time": 2
            },
            {
                "type": "note_on",
                "note": 50,
                "velocity": 0,
                "time": 88
            },
            {
                "type": "note_on",
                "note": 50,
                "velocity": 93,
                "time": 14
            },
            {
                "type": "note_on",
                "note": 50,
                "velocity": 0,
                "time": 22
            },
            {
                "type": "note_on",
                "note": 50,
                "velocity": 101,
                "time": 20
            },
            {
                "type": "note_on",
                "note": 50,
                "velocity": 0,
                "time": 140
            },
            {
                "type": "note_on",
                "note": 50,
                "velocity": 87,
                "time": 12
            },
            {
                "type": "note_on",
                "note": 50,
                "velocity": 0,
                "time": 30
            },
            {
                "type": "note_on",
                "note": 50,
                "velocity": 102,
                "time": 12
            },
            {
                "type": "note_on",
                "note": 50,
                "velocity": 0,
                "time": 42
            },
            {
                "type": "note_on",
                "note": 48,
                "velocity": 101,
                "time": 0
            },
            {
                "type": "note_on",
                "note": 48,
                "velocity": 0,
                "time": 190
            },
            {
                "type": "note_on",
                "note": 44,
                "velocity": 113,
                "time": 6
            },
            {
                "type": "note_on",
                "note": 43,
                "velocity": 112,
                "time": 48
            },
            {
                "type": "note_on",
                "note": 44,
                "velocity": 0,
                "time": 2
            },
            {
                "type": "note_on",
                "note": 42,
                "velocity": 110,
                "time": 44
            },
            {
                "type": "note_on",
                "note": 43,
                "velocity": 0,
                "time": 4
            },
            {
                "type": "note_on",
                "note": 42,
                "velocity": 0,
                "time": 42
            },
            {
                "type": "note_on",
                "note": 43,
                "velocity": 110,
                "time": 2
            },
            {
                "type": "note_on",
                "note": 43,
                "velocity": 0,
                "time": 50
            },
            {
                "type": "note_on",
                "note": 48,
                "velocity": 109,
                "time": 0
            },
            {
                "type": "note_on",
                "note": 48,
                "velocity": 0,
                "time": 178
            },
            {
                "type": "note_on",
                "note": 48,
                "velocity": 109,
                "time": 14
            },
            {
                "type": "note_on",
                "note": 46,
                "velocity": 113,
                "time": 50
            },
            {
                "type": "note_on",
                "note": 48,
                "velocity": 0,
                "time": 12
            },
            {
                "type": "note_on",
                "note": 43,
                "velocity": 114,
                "time": 30
            },
            {
                "type": "note_on",
                "note": 46,
                "velocity": 0,
                "time": 4
            },
            {
                "type": "note_on",
                "note": 41,
                "velocity": 107,
                "time": 42
            },
            {
                "type": "note_on",
                "note": 43,
                "velocity": 0,
                "time": 6
            },
            {
                "type": "note_on",
                "note": 41,
                "velocity": 0,
                "time": 36
            },
            {
                "type": "note_on",
                "note": 41,
                "velocity": 117,
                "time": 16
            },
            {
                "type": "note_on",
                "note": 41,
                "velocity": 0,
                "time": 190
            },
            {
                "type": "note_on",
                "note": 53,
                "velocity": 110,
                "time": 2
            },
            {
                "type": "note_on",
                "note": 53,
                "velocity": 0,
                "time": 74
            },
            {
                "type": "note_on",
                "note": 52,
                "velocity": 110,
                "time": 22
            },
            {
                "type": "note_on",
                "note": 52,
                "velocity": 0,
                "time": 70
            },
            {
                "type": "note_on",
                "note": 51,
                "velocity": 119,
                "time": 18
            },
            {
                "type": "note_on",
                "note": 51,
                "velocity": 0,
                "time": 180
            },
            {
                "type": "note_on",
                "note": 50,
                "velocity": 113,
                "time": 12
            },
            {
                "type": "note_on",
                "note": 50,
                "velocity": 0,
                "time": 180
            },
            {
                "type": "note_on",
                "note": 49,
                "velocity": 115,
                "time": 20
            },
            {
                "type": "note_on",
                "note": 49,
                "velocity": 0,
                "time": 234
            },
            {
                "type": "note_on",
                "note": 49,
                "velocity": 115,
                "time": 22
            },
            {
                "type": "note_on",
                "note": 49,
                "velocity": 0,
                "time": 50
            },
            {
                "type": "note_on",
                "note": 48,
                "velocity": 108,
                "time": 8
            },
            {
                "type": "note_on",
                "note": 48,
                "velocity": 0,
                "time": 42
            },
            {
                "type": "note_on",
                "note": 47,
                "velocity": 102,
                "time": 24
            },
            {
                "type": "note_on",
                "note": 47,
                "velocity": 0,
                "time": 174
            },
            {
                "type": "note_on",
                "note": 46,
                "velocity": 105,
                "time": 20
            },
            {
                "type": "note_on",
                "note": 46,
                "velocity": 0,
                "time": 198
            },
            {
                "type": "note_on",
                "note": 45,
                "velocity": 124,
                "time": 12
            },
            {
                "type": "note_on",
                "note": 45,
                "velocity": 0,
                "time": 28
            },
            {
                "type": "note_on",
                "note": 58,
                "velocity": 116,
                "time": 172
            },
            {
                "type": "note_on",
                "note": 53,
                "velocity": 114,
                "time": 4
            },
            {
                "type": "note_on",
                "note": 46,
                "velocity": 116,
                "time": 0
            },
            {
                "type": "note_on",
                "note": 53,
                "velocity": 0,
                "time": 1112
            },
            {
                "type": "note_on",
                "note": 58,
                "velocity": 0,
                "time": 4
            },
            {
                "type": "note_on",
                "note": 46,
                "velocity": 0,
                "time": 4
            },
            {
                "type": "note_on",
                "note": 58,
                "velocity": 96,
                "time": 6
            },
            {
                "type": "note_on",
                "note": 46,
                "velocity": 91,
                "time": 2
            },
            {
                "type": "note_on",
                "note": 53,
                "velocity": 87,
                "time": 6
            },
            {
                "type": "note_on",
                "note": 46,
                "velocity": 0,
                "time": 116
            },
            {
                "type": "note_on",
                "note": 58,
                "velocity": 0,
                "time": 4
            },
            {
                "type": "note_on",
                "note": 53,
                "velocity": 0,
                "time": 2
            },
            {
                "type": "note_on",
                "note": 51,
                "velocity": 119,
                "time": 84
            },
            {
                "type": "note_on",
                "note": 51,
                "velocity": 0,
                "time": 172
            },
            {
                "type": "note_on",
                "note": 43,
                "velocity": 104,
                "time": 6
            },
            {
                "type": "note_on",
                "note": 44,
                "velocity": 107,
                "time": 200
            },
            {
                "type": "note_on",
                "note": 43,
                "velocity": 0,
                "time": 16
            },
            {
                "type": "note_on",
                "note": 46,
                "velocity": 97,
                "time": 160
            },
            {
                "type": "note_on",
                "note": 44,
                "velocity": 0,
                "time": 4
            },
            {
                "type": "note_on",
                "note": 48,
                "velocity": 94,
                "time": 172
            },
            {
                "type": "note_on",
                "note": 46,
                "velocity": 0,
                "time": 2
            },
            {
                "type": "note_on",
                "note": 50,
                "velocity": 106,
                "time": 114
            },
            {
                "type": "note_on",
                "note": 48,
                "velocity": 0,
                "time": 12
            },
            {
                "type": "note_on",
                "note": 51,
                "velocity": 107,
                "time": 78
            },
            {
                "type": "note_on",
                "note": 50,
                "velocity": 0,
                "time": 8
            },
            {
                "type": "note_on",
                "note": 51,
                "velocity": 0,
                "time": 132
            },
            {
                "type": "note_on",
                "note": 51,
                "velocity": 117,
                "time": 48
            },
            {
                "type": "note_on",
                "note": 51,
                "velocity": 0,
                "time": 14
            },
            {
                "type": "note_on",
                "note": 43,
                "velocity": 108,
                "time": 2
            },
            {
                "type": "note_on",
                "note": 44,
                "velocity": 90,
                "time": 194
            },
            {
                "type": "note_on",
                "note": 43,
                "velocity": 0,
                "time": 18
            },
            {
                "type": "note_on",
                "note": 44,
                "velocity": 0,
                "time": 152
            },
            {
                "type": "note_on",
                "note": 46,
                "velocity": 88,
                "time": 6
            },
            {
                "type": "note_on",
                "note": 46,
                "velocity": 0,
                "time": 106
            },
            {
                "type": "note_on",
                "note": 48,
                "velocity": 101,
                "time": 0
            },
            {
                "type": "note_on",
                "note": 46,
                "velocity": 97,
                "time": 104
            },
            {
                "type": "note_on",
                "note": 48,
                "velocity": 0,
                "time": 8
            },
            {
                "type": "note_on",
                "note": 46,
                "velocity": 0,
                "time": 42
            },
            {
                "type": "note_on",
                "note": 51,
                "velocity": 111,
                "time": 6
            },
            {
                "type": "note_on",
                "note": 51,
                "velocity": 0,
                "time": 188
            },
            {
                "type": "note_on",
                "note": 43,
                "velocity": 112,
                "time": 8
            },
            {
                "type": "note_on",
                "note": 44,
                "velocity": 113,
                "time": 200
            },
            {
                "type": "note_on",
                "note": 43,
                "velocity": 0,
                "time": 18
            },
            {
                "type": "note_on",
                "note": 46,
                "velocity": 96,
                "time": 164
            },
            {
                "type": "note_on",
                "note": 44,
                "velocity": 0,
                "time": 2
            },
            {
                "type": "note_on",
                "note": 46,
                "velocity": 0,
                "time": 192
            },
            {
                "type": "note_on",
                "note": 48,
                "velocity": 99,
                "time": 2
            },
            {
                "type": "note_on",
                "note": 50,
                "velocity": 110,
                "time": 102
            },
            {
                "type": "note_on",
                "note": 48,
                "velocity": 0,
                "time": 14
            },
            {
                "type": "note_on",
                "note": 51,
                "velocity": 107,
                "time": 72
            },
            {
                "type": "note_on",
                "note": 50,
                "velocity": 0,
                "time": 4
            },
            {
                "type": "note_on",
                "note": 51,
                "velocity": 0,
                "time": 148
            },
            {
                "type": "note_on",
                "note": 53,
                "velocity": 108,
                "time": 28
            },
            {
                "type": "note_on",
                "note": 45,
                "velocity": 99,
                "time": 22
            },
            {
                "type": "note_on",
                "note": 53,
                "velocity": 0,
                "time": 4
            },
            {
                "type": "note_on",
                "note": 46,
                "velocity": 99,
                "time": 200
            },
            {
                "type": "note_on",
                "note": 45,
                "velocity": 0,
                "time": 16
            },
            {
                "type": "note_on",
                "note": 46,
                "velocity": 0,
                "time": 164
            },
            {
                "type": "note_on",
                "note": 48,
                "velocity": 109,
                "time": 0
            },
            {
                "type": "note_on",
                "note": 50,
                "velocity": 101,
                "time": 98
            },
            {
                "type": "note_on",
                "note": 48,
                "velocity": 0,
                "time": 2
            },
            {
                "type": "note_on",
                "note": 50,
                "velocity": 0,
                "time": 80
            },
            {
                "type": "note_on",
                "note": 48,
                "velocity": 98,
                "time": 14
            },
            {
                "type": "note_on",
                "note": 48,
                "velocity": 0,
                "time": 284
            },
            {
                "type": "note_on",
                "note": 46,
                "velocity": 84,
                "time": 2
            },
            {
                "type": "note_on",
                "note": 46,
                "velocity": 0,
                "time": 58
            },
            {
                "type": "note_on",
                "note": 53,
                "velocity": 84,
                "time": 62
            },
            {
                "type": "note_on",
                "note": 58,
                "velocity": 86,
                "time": 0
            },
            {
                "type": "note_on",
                "note": 46,
                "velocity": 74,
                "time": 2
            },
            {
                "type": "note_on",
                "note": 53,
                "velocity": 0,
                "time": 944
            },
            {
                "type": "note_on",
                "note": 58,
                "velocity": 0,
                "time": 22
            },
            {
                "type": "note_on",
                "note": 46,
                "velocity": 0,
                "time": 2
            },
            {
                "type": "note_on",
                "note": 51,
                "velocity": 113,
                "time": 34
            },
            {
                "type": "note_on",
                "note": 51,
                "velocity": 0,
                "time": 168
            },
            {
                "type": "note_on",
                "note": 51,
                "velocity": 109,
                "time": 38
            },
            {
                "type": "note_on",
                "note": 51,
                "velocity": 0,
                "time": 88
            },
            {
                "type": "note_on",
                "note": 55,
                "velocity": 105,
                "time": 2
            },
            {
                "type": "note_on",
                "note": 51,
                "velocity": 109,
                "time": 86
            },
            {
                "type": "note_on",
                "note": 55,
                "velocity": 0,
                "time": 20
            },
            {
                "type": "note_on",
                "note": 51,
                "velocity": 0,
                "time": 138
            },
            {
                "type": "note_on",
                "note": 46,
                "velocity": 86,
                "time": 44
            },
            {
                "type": "note_on",
                "note": 58,
                "velocity": 86,
                "time": 2
            },
            {
                "type": "note_on",
                "note": 53,
                "velocity": 83,
                "time": 2
            },
            {
                "type": "note_on",
                "note": 58,
                "velocity": 0,
                "time": 502
            },
            {
                "type": "note_on",
                "note": 53,
                "velocity": 0,
                "time": 4
            },
            {
                "type": "note_on",
                "note": 46,
                "velocity": 0,
                "time": 8
            },
            {
                "type": "note_on",
                "note": 58,
                "velocity": 127,
                "time": 2
            },
            {
                "type": "note_on",
                "note": 58,
                "velocity": 0,
                "time": 192
            },
            {
                "type": "note_on",
                "note": 56,
                "velocity": 113,
                "time": 2
            },
            {
                "type": "note_on",
                "note": 56,
                "velocity": 0,
                "time": 96
            },
            {
                "type": "note_on",
                "note": 58,
                "velocity": 127,
                "time": 10
            },
            {
                "type": "note_on",
                "note": 58,
                "velocity": 0,
                "time": 54
            },
            {
                "type": "note_on",
                "note": 53,
                "velocity": 111,
                "time": 2
            },
            {
                "type": "note_on",
                "note": 53,
                "velocity": 0,
                "time": 70
            },
            {
                "type": "note_on",
                "note": 49,
                "velocity": 117,
                "time": 42
            },
            {
                "type": "note_on",
                "note": 61,
                "velocity": 124,
                "time": 210
            },
            {
                "type": "note_on",
                "note": 49,
                "velocity": 0,
                "time": 4
            },
            {
                "type": "note_on",
                "note": 61,
                "velocity": 0,
                "time": 2
            },
            {
                "type": "note_on",
                "note": 46,
                "velocity": 79,
                "time": 2
            },
            {
                "type": "note_on",
                "note": 58,
                "velocity": 80,
                "time": 0
            },
            {
                "type": "note_on",
                "note": 53,
                "velocity": 80,
                "time": 6
            },
            {
                "type": "note_on",
                "note": 53,
                "velocity": 0,
                "time": 6
            },
            {
                "type": "note_on",
                "note": 58,
                "velocity": 0,
                "time": 6
            },
            {
                "type": "note_on",
                "note": 46,
                "velocity": 0,
                "time": 6
            },
            {
                "type": "note_on",
                "note": 46,
                "velocity": 77,
                "time": 2
            },
            {
                "type": "note_on",
                "note": 58,
                "velocity": 100,
                "time": 0
            },
            {
                "type": "note_on",
                "note": 53,
                "velocity": 82,
                "time": 4
            },
            {
                "type": "note_on",
                "note": 46,
                "velocity": 0,
                "time": 490
            },
            {
                "type": "note_on",
                "note": 58,
                "velocity": 0,
                "time": 28
            },
            {
                "type": "note_on",
                "note": 53,
                "velocity": 0,
                "time": 4
            },
            {
                "type": "note_on",
                "note": 58,
                "velocity": 80,
                "time": 48
            },
            {
                "type": "note_on",
                "note": 51,
                "velocity": 80,
                "time": 4
            },
            {
                "type": "note_on",
                "note": 58,
                "velocity": 0,
                "time": 136
            },
            {
                "type": "note_on",
                "note": 51,
                "velocity": 0,
                "time": 32
            },
            {
                "type": "note_on",
                "note": 58,
                "velocity": 73,
                "time": 30
            },
            {
                "type": "note_on",
                "note": 51,
                "velocity": 76,
                "time": 0
            },
            {
                "type": "note_on",
                "note": 58,
                "velocity": 0,
                "time": 180
            },
            {
                "type": "note_on",
                "note": 51,
                "velocity": 0,
                "time": 2
            },
            {
                "type": "note_on",
                "note": 51,
                "velocity": 83,
                "time": 6
            },
            {
                "type": "note_on",
                "note": 58,
                "velocity": 82,
                "time": 0
            },
            {
                "type": "note_on",
                "note": 51,
                "velocity": 0,
                "time": 124
            },
            {
                "type": "note_on",
                "note": 58,
                "velocity": 0,
                "time": 20
            },
            {
                "type": "note_on",
                "note": 44,
                "velocity": 77,
                "time": 32
            },
            {
                "type": "note_on",
                "note": 51,
                "velocity": 85,
                "time": 0
            },
            {
                "type": "note_on",
                "note": 51,
                "velocity": 0,
                "time": 602
            },
            {
                "type": "note_on",
                "note": 44,
                "velocity": 0,
                "time": 32
            },
            {
                "type": "note_on",
                "note": 51,
                "velocity": 87,
                "time": 110
            },
            {
                "type": "note_on",
                "note": 44,
                "velocity": 86,
                "time": 6
            },
            {
                "type": "note_on",
                "note": 44,
                "velocity": 0,
                "time": 186
            },
            {
                "type": "note_on",
                "note": 50,
                "velocity": 77,
                "time": 4
            },
            {
                "type": "note_on",
                "note": 51,
                "velocity": 0,
                "time": 2
            },
            {
                "type": "note_on",
                "note": 43,
                "velocity": 79,
                "time": 0
            },
            {
                "type": "note_on",
                "note": 43,
                "velocity": 0,
                "time": 158
            },
            {
                "type": "note_on",
                "note": 50,
                "velocity": 0,
                "time": 16
            },
            {
                "type": "note_on",
                "note": 48,
                "velocity": 79,
                "time": 18
            },
            {
                "type": "note_on",
                "note": 41,
                "velocity": 78,
                "time": 2
            },
            {
                "type": "note_on",
                "note": 48,
                "velocity": 0,
                "time": 1054
            },
            {
                "type": "note_on",
                "note": 41,
                "velocity": 0,
                "time": 64
            },
            {
                "type": "note_on",
                "note": 53,
                "velocity": 75,
                "time": 40
            },
            {
                "type": "note_on",
                "note": 46,
                "velocity": 74,
                "time": 0
            },
            {
                "type": "note_on",
                "note": 46,
                "velocity": 0,
                "time": 476
            },
            {
                "type": "note_on",
                "note": 53,
                "velocity": 0,
                "time": 20
            },
            {
                "type": "note_on",
                "note": 55,
                "velocity": 127,
                "time": 2
            },
            {
                "type": "note_on",
                "note": 55,
                "velocity": 0,
                "time": 176
            },
            {
                "type": "note_on",
                "note": 53,
                "velocity": 118,
                "time": 4
            },
            {
                "type": "note_on",
                "note": 50,
                "velocity": 118,
                "time": 184
            },
            {
                "type": "note_on",
                "note": 53,
                "velocity": 0,
                "time": 6
            },
            {
                "type": "note_on",
                "note": 50,
                "velocity": 0,
                "time": 40
            },
            {
                "type": "note_on",
                "note": 41,
                "velocity": 79,
                "time": 2
            },
            {
                "type": "note_on",
                "note": 48,
                "velocity": 88,
                "time": 0
            },
            {
                "type": "note_on",
                "note": 41,
                "velocity": 0,
                "time": 164
            },
            {
                "type": "note_on",
                "note": 48,
                "velocity": 0,
                "time": 12
            },
            {
                "type": "note_on",
                "note": 48,
                "velocity": 76,
                "time": 28
            },
            {
                "type": "note_on",
                "note": 41,
                "velocity": 74,
                "time": 2
            },
            {
                "type": "note_on",
                "note": 41,
                "velocity": 0,
                "time": 304
            },
            {
                "type": "note_on",
                "note": 48,
                "velocity": 0,
                "time": 2
            },
            {
                "type": "note_on",
                "note": 48,
                "velocity": 82,
                "time": 34
            },
            {
                "type": "note_on",
                "note": 41,
                "velocity": 85,
                "time": 2
            },
            {
                "type": "note_on",
                "note": 41,
                "velocity": 0,
                "time": 172
            },
            {
                "type": "note_on",
                "note": 48,
                "velocity": 0,
                "time": 12
            },
            {
                "type": "note_on",
                "note": 48,
                "velocity": 77,
                "time": 18
            },
            {
                "type": "note_on",
                "note": 41,
                "velocity": 77,
                "time": 2
            },
            {
                "type": "note_on",
                "note": 41,
                "velocity": 0,
                "time": 316
            },
            {
                "type": "note_on",
                "note": 48,
                "velocity": 0,
                "time": 14
            },
            {
                "type": "note_on",
                "note": 46,
                "velocity": 79,
                "time": 30
            },
            {
                "type": "note_on",
                "note": 53,
                "velocity": 77,
                "time": 2
            },
            {
                "type": "note_on",
                "note": 46,
                "velocity": 0,
                "time": 402
            },
            {
                "type": "note_on",
                "note": 46,
                "velocity": 110,
                "time": 74
            },
            {
                "type": "note_on",
                "note": 53,
                "velocity": 0,
                "time": 12
            },
            {
                "type": "note_on",
                "note": 46,
                "velocity": 0,
                "time": 68
            },
            {
                "type": "note_on",
                "note": 50,
                "velocity": 113,
                "time": 2
            },
            {
                "type": "note_on",
                "note": 53,
                "velocity": 122,
                "time": 106
            },
            {
                "type": "note_on",
                "note": 50,
                "velocity": 0,
                "time": 2
            },
            {
                "type": "note_on",
                "note": 53,
                "velocity": 0,
                "time": 84
            },
            {
                "type": "note_on",
                "note": 55,
                "velocity": 127,
                "time": 30
            },
            {
                "type": "note_on",
                "note": 50,
                "velocity": 93,
                "time": 2
            },
            {
                "type": "note_on",
                "note": 55,
                "velocity": 0,
                "time": 6
            },
            {
                "type": "note_on",
                "note": 50,
                "velocity": 0,
                "time": 80
            },
            {
                "type": "note_on",
                "note": 48,
                "velocity": 82,
                "time": 40
            },
            {
                "type": "note_on",
                "note": 41,
                "velocity": 79,
                "time": 2
            },
            {
                "type": "note_on",
                "note": 41,
                "velocity": 0,
                "time": 142
            },
            {
                "type": "note_on",
                "note": 48,
                "velocity": 0,
                "time": 8
            },
            {
                "type": "note_on",
                "note": 48,
                "velocity": 80,
                "time": 28
            },
            {
                "type": "note_on",
                "note": 41,
                "velocity": 77,
                "time": 2
            },
            {
                "type": "note_on",
                "note": 41,
                "velocity": 0,
                "time": 338
            },
            {
                "type": "note_on",
                "note": 53,
                "velocity": 81,
                "time": 16
            },
            {
                "type": "note_on",
                "note": 46,
                "velocity": 79,
                "time": 0
            },
            {
                "type": "note_on",
                "note": 48,
                "velocity": 0,
                "time": 2
            },
            {
                "type": "note_on",
                "note": 46,
                "velocity": 0,
                "time": 156
            },
            {
                "type": "note_on",
                "note": 53,
                "velocity": 0,
                "time": 4
            },
            {
                "type": "note_on",
                "note": 46,
                "velocity": 79,
                "time": 26
            },
            {
                "type": "note_on",
                "note": 53,
                "velocity": 81,
                "time": 0
            },
            {
                "type": "note_on",
                "note": 53,
                "velocity": 0,
                "time": 366
            },
            {
                "type": "note_on",
                "note": 46,
                "velocity": 0,
                "time": 8
            },
            {
                "type": "note_on",
                "note": 48,
                "velocity": 80,
                "time": 12
            },
            {
                "type": "note_on",
                "note": 41,
                "velocity": 84,
                "time": 4
            },
            {
                "type": "note_on",
                "note": 41,
                "velocity": 0,
                "time": 166
            },
            {
                "type": "note_on",
                "note": 41,
                "velocity": 82,
                "time": 28
            },
            {
                "type": "note_on",
                "note": 41,
                "velocity": 0,
                "time": 340
            },
            {
                "type": "note_on",
                "note": 48,
                "velocity": 0,
                "time": 22
            },
            {
                "type": "note_on",
                "note": 53,
                "velocity": 87,
                "time": 6
            },
            {
                "type": "note_on",
                "note": 46,
                "velocity": 85,
                "time": 2
            },
            {
                "type": "note_on",
                "note": 53,
                "velocity": 0,
                "time": 520
            },
            {
                "type": "note_on",
                "note": 46,
                "velocity": 0,
                "time": 24
            },
            {
                "type": "note_on",
                "note": 51,
                "velocity": 111,
                "time": 32
            },
            {
                "type": "note_on",
                "note": 43,
                "velocity": 112,
                "time": 6
            },
            {
                "type": "note_on",
                "note": 51,
                "velocity": 0,
                "time": 16
            },
            {
                "type": "note_on",
                "note": 44,
                "velocity": 99,
                "time": 178
            },
            {
                "type": "note_on",
                "note": 43,
                "velocity": 0,
                "time": 12
            },
            {
                "type": "note_on",
                "note": 46,
                "velocity": 103,
                "time": 164
            },
            {
                "type": "note_on",
                "note": 44,
                "velocity": 0,
                "time": 6
            },
            {
                "type": "note_on",
                "note": 46,
                "velocity": 0,
                "time": 188
            },
            {
                "type": "note_on",
                "note": 48,
                "velocity": 101,
                "time": 2
            },
            {
                "type": "note_on",
                "note": 50,
                "velocity": 104,
                "time": 102
            },
            {
                "type": "note_on",
                "note": 48,
                "velocity": 0,
                "time": 6
            },
            {
                "type": "note_on",
                "note": 51,
                "velocity": 109,
                "time": 84
            },
            {
                "type": "note_on",
                "note": 50,
                "velocity": 0,
                "time": 6
            },
            {
                "type": "note_on",
                "note": 51,
                "velocity": 0,
                "time": 2
            },
            {
                "type": "note_on",
                "note": 51,
                "velocity": 127,
                "time": 28
            },
            {
                "type": "note_on",
                "note": 51,
                "velocity": 0,
                "time": 170
            },
            {
                "type": "note_on",
                "note": 43,
                "velocity": 106,
                "time": 0
            },
            {
                "type": "note_on",
                "note": 44,
                "velocity": 107,
                "time": 4
            },
            {
                "type": "note_on",
                "note": 43,
                "velocity": 0,
                "time": 30
            },
            {
                "type": "note_on",
                "note": 44,
                "velocity": 0,
                "time": 106
            },
            {
                "type": "note_on",
                "note": 46,
                "velocity": 107,
                "time": 28
            },
            {
                "type": "note_on",
                "note": 48,
                "velocity": 115,
                "time": 100
            },
            {
                "type": "note_on",
                "note": 46,
                "velocity": 0,
                "time": 26
            },
            {
                "type": "note_on",
                "note": 46,
                "velocity": 91,
                "time": 64
            },
            {
                "type": "note_on",
                "note": 48,
                "velocity": 0,
                "time": 18
            },
            {
                "type": "note_on",
                "note": 51,
                "velocity": 103,
                "time": 72
            },
            {
                "type": "note_on",
                "note": 46,
                "velocity": 0,
                "time": 2
            },
            {
                "type": "note_on",
                "note": 51,
                "velocity": 0,
                "time": 192
            },
            {
                "type": "note_on",
                "note": 43,
                "velocity": 106,
                "time": 0
            },
            {
                "type": "note_on",
                "note": 44,
                "velocity": 107,
                "time": 212
            },
            {
                "type": "note_on",
                "note": 43,
                "velocity": 0,
                "time": 26
            },
            {
                "type": "note_on",
                "note": 46,
                "velocity": 100,
                "time": 118
            },
            {
                "type": "note_on",
                "note": 44,
                "velocity": 0,
                "time": 10
            },
            {
                "type": "note_on",
                "note": 48,
                "velocity": 97,
                "time": 188
            },
            {
                "type": "note_on",
                "note": 46,
                "velocity": 0,
                "time": 4
            },
            {
                "type": "note_on",
                "note": 50,
                "velocity": 99,
                "time": 114
            },
            {
                "type": "note_on",
                "note": 48,
                "velocity": 0,
                "time": 4
            },
            {
                "type": "note_on",
                "note": 51,
                "velocity": 100,
                "time": 96
            },
            {
                "type": "note_on",
                "note": 50,
                "velocity": 0,
                "time": 2
            },
            {
                "type": "note_on",
                "note": 51,
                "velocity": 0,
                "time": 114
            },
            {
                "type": "note_on",
                "note": 53,
                "velocity": 105,
                "time": 64
            },
            {
                "type": "note_on",
                "note": 45,
                "velocity": 102,
                "time": 42
            },
            {
                "type": "note_on",
                "note": 53,
                "velocity": 0,
                "time": 40
            },
            {
                "type": "note_on",
                "note": 46,
                "velocity": 99,
                "time": 166
            },
            {
                "type": "note_on",
                "note": 45,
                "velocity": 0,
                "time": 22
            },
            {
                "type": "note_on",
                "note": 48,
                "velocity": 106,
                "time": 142
            },
            {
                "type": "note_on",
                "note": 46,
                "velocity": 0,
                "time": 8
            },
            {
                "type": "note_on",
                "note": 50,
                "velocity": 105,
                "time": 188
            },
            {
                "type": "note_on",
                "note": 48,
                "velocity": 0,
                "time": 4
            },
            {
                "type": "note_on",
                "note": 52,
                "velocity": 115,
                "time": 108
            },
            {
                "type": "note_on",
                "note": 50,
                "velocity": 0,
                "time": 4
            },
            {
                "type": "note_on",
                "note": 53,
                "velocity": 108,
                "time": 88
            },
            {
                "type": "note_on",
                "note": 52,
                "velocity": 0,
                "time": 12
            },
            {
                "type": "note_on",
                "note": 53,
                "velocity": 0,
                "time": 106
            },
            {
                "type": "note_on",
                "note": 54,
                "velocity": 123,
                "time": 72
            },
            {
                "type": "note_on",
                "note": 56,
                "velocity": 123,
                "time": 100
            },
            {
                "type": "note_on",
                "note": 54,
                "velocity": 0,
                "time": 6
            },
            {
                "type": "note_on",
                "note": 56,
                "velocity": 0,
                "time": 84
            },
            {
                "type": "note_on",
                "note": 58,
                "velocity": 122,
                "time": 0
            },
            {
                "type": "note_on",
                "note": 56,
                "velocity": 113,
                "time": 2
            },
            {
                "type": "note_on",
                "note": 58,
                "velocity": 0,
                "time": 6
            },
            {
                "type": "note_on",
                "note": 58,
                "velocity": 127,
                "time": 94
            },
            {
                "type": "note_on",
                "note": 56,
                "velocity": 0,
                "time": 14
            },
            {
                "type": "note_on",
                "note": 58,
                "velocity": 0,
                "time": 68
            },
            {
                "type": "note_on",
                "note": 60,
                "velocity": 115,
                "time": 8
            },
            {
                "type": "note_on",
                "note": 58,
                "velocity": 125,
                "time": 2
            },
            {
                "type": "note_on",
                "note": 60,
                "velocity": 0,
                "time": 6
            },
            {
                "type": "note_on",
                "note": 60,
                "velocity": 118,
                "time": 92
            },
            {
                "type": "note_on",
                "note": 58,
                "velocity": 0,
                "time": 6
            },
            {
                "type": "note_on",
                "note": 60,
                "velocity": 0,
                "time": 76
            },
            {
                "type": "note_on",
                "note": 61,
                "velocity": 122,
                "time": 8
            },
            {
                "type": "note_on",
                "note": 61,
                "velocity": 0,
                "time": 34
            },
            {
                "type": "note_on",
                "note": 44,
                "velocity": 125,
                "time": 2
            },
            {
                "type": "note_on",
                "note": 46,
                "velocity": 112,
                "time": 86
            },
            {
                "type": "note_on",
                "note": 44,
                "velocity": 0,
                "time": 6
            },
            {
                "type": "note_on",
                "note": 46,
                "velocity": 0,
                "time": 68
            },
            {
                "type": "note_on",
                "note": 48,
                "velocity": 123,
                "time": 18
            },
            {
                "type": "note_on",
                "note": 49,
                "velocity": 116,
                "time": 86
            },
            {
                "type": "note_on",
                "note": 48,
                "velocity": 0,
                "time": 26
            },
            {
                "type": "note_on",
                "note": 51,
                "velocity": 117,
                "time": 74
            },
            {
                "type": "note_on",
                "note": 49,
                "velocity": 0,
                "time": 2
            },
            {
                "type": "note_on",
                "note": 51,
                "velocity": 0,
                "time": 78
            },
            {
                "type": "note_on",
                "note": 53,
                "velocity": 114,
                "time": 14
            },
            {
                "type": "note_on",
                "note": 53,
                "velocity": 0,
                "time": 94
            },
            {
                "type": "note_on",
                "note": 54,
                "velocity": 127,
                "time": 0
            },
            {
                "type": "note_on",
                "note": 54,
                "velocity": 0,
                "time": 94
            },
            {
                "type": "note_on",
                "note": 53,
                "velocity": 112,
                "time": 4
            },
            {
                "type": "note_on",
                "note": 54,
                "velocity": 119,
                "time": 100
            },
            {
                "type": "note_on",
                "note": 53,
                "velocity": 0,
                "time": 20
            },
            {
                "type": "note_on",
                "note": 56,
                "velocity": 111,
                "time": 72
            },
            {
                "type": "note_on",
                "note": 54,
                "velocity": 0,
                "time": 4
            },
            {
                "type": "note_on",
                "note": 56,
                "velocity": 0,
                "time": 86
            },
            {
                "type": "note_on",
                "note": 58,
                "velocity": 112,
                "time": 8
            },
            {
                "type": "note_on",
                "note": 58,
                "velocity": 0,
                "time": 212
            },
            {
                "type": "note_on",
                "note": 46,
                "velocity": 83,
                "time": 1056
            },
            {
                "type": "note_on",
                "note": 58,
                "velocity": 89,
                "time": 0
            },
            {
                "type": "note_on",
                "note": 53,
                "velocity": 99,
                "time": 4
            },
            {
                "type": "note_on",
                "note": 53,
                "velocity": 0,
                "time": 22
            },
            {
                "type": "note_on",
                "note": 58,
                "velocity": 0,
                "time": 0
            },
            {
                "type": "note_on",
                "note": 46,
                "velocity": 0,
                "time": 0
            },
            {
                "type": "note_on",
                "note": 58,
                "velocity": 85,
                "time": 18
            },
            {
                "type": "note_on",
                "note": 46,
                "velocity": 76,
                "time": 2
            },
            {
                "type": "note_on",
                "note": 53,
                "velocity": 97,
                "time": 4
            },
            {
                "type": "note_on",
                "note": 46,
                "velocity": 0,
                "time": 18
            },
            {
                "type": "note_on",
                "note": 53,
                "velocity": 0,
                "time": 4
            },
            {
                "type": "note_on",
                "note": 58,
                "velocity": 0,
                "time": 0
            },
            {
                "type": "note_on",
                "note": 58,
                "velocity": 111,
                "time": 32
            },
            {
                "type": "note_on",
                "note": 46,
                "velocity": 120,
                "time": 2
            },
            {
                "type": "note_on",
                "note": 53,
                "velocity": 111,
                "time": 2
            },
            {
                "type": "note_on",
                "note": 58,
                "velocity": 0,
                "time": 1802
            },
            {
                "type": "note_on",
                "note": 46,
                "velocity": 0,
                "time": 14
            },
            {
                "type": "note_on",
                "note": 53,
                "velocity": 0,
                "time": 4
            },
            {
                "type": "note_on",
                "note": 58,
                "velocity": 106,
                "time": 510
            },
            {
                "type": "note_on",
                "note": 58,
                "velocity": 0,
                "time": 50
            },
            {
                "type": "note_on",
                "note": 62,
                "velocity": 113,
                "time": 0
            },
            {
                "type": "note_on",
                "note": 62,
                "velocity": 0,
                "time": 50
            },
            {
                "type": "note_on",
                "note": 65,
                "velocity": 113,
                "time": 2
            },
            {
                "type": "note_on",
                "note": 70,
                "velocity": 121,
                "time": 52
            },
            {
                "type": "note_on",
                "note": 65,
                "velocity": 0,
                "time": 4
            },
            {
                "type": "note_on",
                "note": 70,
                "velocity": 0,
                "time": 152
            },
            {
                "type": "note_on",
                "note": 67,
                "velocity": 107,
                "time": 170
            },
            {
                "type": "note_on",
                "note": 67,
                "velocity": 0,
                "time": 4
            },
            {
                "type": "note_on",
                "note": 67,
                "velocity": 104,
                "time": 8
            },
            {
                "type": "note_on",
                "note": 67,
                "velocity": 0,
                "time": 6
            },
            {
                "type": "note_on",
                "note": 67,
                "velocity": 107,
                "time": 16
            },
            {
                "type": "note_on",
                "note": 67,
                "velocity": 0,
                "time": 18
            },
            {
                "type": "note_on",
                "note": 68,
                "velocity": 102,
                "time": 2
            },
            {
                "type": "note_on",
                "note": 68,
                "velocity": 0,
                "time": 42
            },
            {
                "type": "note_on",
                "note": 67,
                "velocity": 109,
                "time": 2
            },
            {
                "type": "note_on",
                "note": 67,
                "velocity": 0,
                "time": 84
            },
            {
                "type": "note_on",
                "note": 62,
                "velocity": 120,
                "time": 4
            },
            {
                "type": "note_on",
                "note": 63,
                "velocity": 102,
                "time": 30
            },
            {
                "type": "note_on",
                "note": 62,
                "velocity": 0,
                "time": 6
            },
            {
                "type": "note_on",
                "note": 63,
                "velocity": 0,
                "time": 20
            },
            {
                "type": "note_on",
                "note": 65,
                "velocity": 95,
                "time": 0
            },
            {
                "type": "note_on",
                "note": 63,
                "velocity": 107,
                "time": 32
            },
            {
                "type": "note_on",
                "note": 65,
                "velocity": 0,
                "time": 2
            },
            {
                "type": "note_on",
                "note": 63,
                "velocity": 0,
                "time": 22
            },
            {
                "type": "note_on",
                "note": 66,
                "velocity": 102,
                "time": 0
            },
            {
                "type": "note_on",
                "note": 66,
                "velocity": 0,
                "time": 24
            },
            {
                "type": "note_on",
                "note": 67,
                "velocity": 98,
                "time": 0
            },
            {
                "type": "note_on",
                "note": 66,
                "velocity": 117,
                "time": 30
            },
            {
                "type": "note_on",
                "note": 67,
                "velocity": 0,
                "time": 4
            },
            {
                "type": "note_on",
                "note": 66,
                "velocity": 0,
                "time": 2
            },
            {
                "type": "note_on",
                "note": 62,
                "velocity": 104,
                "time": 2
            },
            {
                "type": "note_on",
                "note": 62,
                "velocity": 0,
                "time": 48
            }
        ]
    },
    {
        "track": 15,
        "notes": [
            {
                "type": "note_on",
                "note": 45,
                "velocity": 118,
                "time": 31352
            },
            {
                "type": "note_on",
                "note": 45,
                "velocity": 0,
                "time": 18
            },
            {
                "type": "note_on",
                "note": 44,
                "velocity": 118,
                "time": 16
            },
            {
                "type": "note_on",
                "note": 44,
                "velocity": 0,
                "time": 10
            },
            {
                "type": "note_on",
                "note": 43,
                "velocity": 109,
                "time": 8
            },
            {
                "type": "note_on",
                "note": 43,
                "velocity": 0,
                "time": 14
            },
            {
                "type": "note_on",
                "note": 51,
                "velocity": 112,
                "time": 6
            },
            {
                "type": "note_on",
                "note": 51,
                "velocity": 0,
                "time": 164
            },
            {
                "type": "note_on",
                "note": 50,
                "velocity": 102,
                "time": 0
            },
            {
                "type": "note_on",
                "note": 50,
                "velocity": 0,
                "time": 4
            },
            {
                "type": "note_on",
                "note": 48,
                "velocity": 94,
                "time": 2
            },
            {
                "type": "note_on",
                "note": 48,
                "velocity": 0,
                "time": 4
            },
            {
                "type": "note_on",
                "note": 53,
                "velocity": 108,
                "time": 2
            },
            {
                "type": "note_on",
                "note": 52,
                "velocity": 101,
                "time": 46
            },
            {
                "type": "note_on",
                "note": 53,
                "velocity": 0,
                "time": 22
            },
            {
                "type": "note_on",
                "note": 52,
                "velocity": 0,
                "time": 62
            },
            {
                "type": "note_on",
                "note": 51,
                "velocity": 108,
                "time": 18
            },
            {
                "type": "note_on",
                "note": 51,
                "velocity": 0,
                "time": 186
            },
            {
                "type": "note_on",
                "note": 50,
                "velocity": 103,
                "time": 2
            },
            {
                "type": "note_on",
                "note": 50,
                "velocity": 0,
                "time": 176
            },
            {
                "type": "note_on",
                "note": 46,
                "velocity": 110,
                "time": 24
            },
            {
                "type": "note_on",
                "note": 46,
                "velocity": 0,
                "time": 754
            },
            {
                "type": "note_on",
                "note": 51,
                "velocity": 93,
                "time": 10
            },
            {
                "type": "note_on",
                "note": 51,
                "velocity": 0,
                "time": 66
            },
            {
                "type": "note_on",
                "note": 50,
                "velocity": 109,
                "time": 4
            },
            {
                "type": "note_on",
                "note": 50,
                "velocity": 0,
                "time": 86
            },
            {
                "type": "note_on",
                "note": 48,
                "velocity": 101,
                "time": 8
            },
            {
                "type": "note_on",
                "note": 48,
                "velocity": 0,
                "time": 762
            },
            {
                "type": "note_on",
                "note": 53,
                "velocity": 102,
                "time": 16
            },
            {
                "type": "note_on",
                "note": 53,
                "velocity": 0,
                "time": 270
            },
            {
                "type": "note_on",
                "note": 52,
                "velocity": 98,
                "time": 4
            },
            {
                "type": "note_on",
                "note": 52,
                "velocity": 0,
                "time": 84
            },
            {
                "type": "note_on",
                "note": 51,
                "velocity": 115,
                "time": 16
            },
            {
                "type": "note_on",
                "note": 51,
                "velocity": 0,
                "time": 50
            },
            {
                "type": "note_on",
                "note": 50,
                "velocity": 102,
                "time": 6
            },
            {
                "type": "note_on",
                "note": 50,
                "velocity": 0,
                "time": 148
            },
            {
                "type": "note_on",
                "note": 53,
                "velocity": 80,
                "time": 50
            },
            {
                "type": "note_on",
                "note": 46,
                "velocity": 58,
                "time": 0
            },
            {
                "type": "note_on",
                "note": 58,
                "velocity": 58,
                "time": 0
            },
            {
                "type": "note_on",
                "note": 46,
                "velocity": 0,
                "time": 258
            },
            {
                "type": "note_on",
                "note": 53,
                "velocity": 0,
                "time": 0
            },
            {
                "type": "note_on",
                "note": 58,
                "velocity": 0,
                "time": 2
            },
            {
                "type": "note_on",
                "note": 58,
                "velocity": 50,
                "time": 24
            },
            {
                "type": "note_on",
                "note": 46,
                "velocity": 56,
                "time": 2
            },
            {
                "type": "note_on",
                "note": 53,
                "velocity": 80,
                "time": 0
            },
            {
                "type": "note_on",
                "note": 58,
                "velocity": 0,
                "time": 26
            },
            {
                "type": "note_on",
                "note": 53,
                "velocity": 0,
                "time": 2
            },
            {
                "type": "note_on",
                "note": 46,
                "velocity": 0,
                "time": 0
            },
            {
                "type": "note_on",
                "note": 53,
                "velocity": 72,
                "time": 14
            },
            {
                "type": "note_on",
                "note": 58,
                "velocity": 48,
                "time": 0
            },
            {
                "type": "note_on",
                "note": 46,
                "velocity": 52,
                "time": 0
            },
            {
                "type": "note_on",
                "note": 46,
                "velocity": 0,
                "time": 26
            },
            {
                "type": "note_on",
                "note": 58,
                "velocity": 0,
                "time": 0
            },
            {
                "type": "note_on",
                "note": 53,
                "velocity": 0,
                "time": 0
            },
            {
                "type": "note_on",
                "note": 58,
                "velocity": 90,
                "time": 32
            },
            {
                "type": "note_on",
                "note": 46,
                "velocity": 78,
                "time": 0
            },
            {
                "type": "note_on",
                "note": 53,
                "velocity": 89,
                "time": 0
            },
            {
                "type": "note_on",
                "note": 53,
                "velocity": 0,
                "time": 264
            },
            {
                "type": "note_on",
                "note": 46,
                "velocity": 0,
                "time": 0
            },
            {
                "type": "note_on",
                "note": 58,
                "velocity": 0,
                "time": 0
            },
            {
                "type": "note_on",
                "note": 46,
                "velocity": 65,
                "time": 14
            },
            {
                "type": "note_on",
                "note": 58,
                "velocity": 72,
                "time": 0
            },
            {
                "type": "note_on",
                "note": 53,
                "velocity": 91,
                "time": 2
            },
            {
                "type": "note_on",
                "note": 53,
                "velocity": 0,
                "time": 80
            },
            {
                "type": "note_on",
                "note": 58,
                "velocity": 0,
                "time": 14
            },
            {
                "type": "note_on",
                "note": 46,
                "velocity": 0,
                "time": 4
            },
            {
                "type": "note_on",
                "note": 51,
                "velocity": 106,
                "time": 6
            },
            {
                "type": "note_on",
                "note": 51,
                "velocity": 0,
                "time": 92
            },
            {
                "type": "note_on",
                "note": 51,
                "velocity": 86,
                "time": 8
            },
            {
                "type": "note_on",
                "note": 51,
                "velocity": 0,
                "time": 28
            },
            {
                "type": "note_on",
                "note": 51,
                "velocity": 90,
                "time": 10
            },
            {
                "type": "note_on",
                "note": 51,
                "velocity": 0,
                "time": 142
            },
            {
                "type": "note_on",
                "note": 51,
                "velocity": 70,
                "time": 6
            },
            {
                "type": "note_on",
                "note": 51,
                "velocity": 0,
                "time": 28
            },
            {
                "type": "note_on",
                "note": 51,
                "velocity": 93,
                "time": 12
            },
            {
                "type": "note_on",
                "note": 51,
                "velocity": 0,
                "time": 48
            },
            {
                "type": "note_on",
                "note": 50,
                "velocity": 88,
                "time": 2
            },
            {
                "type": "note_on",
                "note": 50,
                "velocity": 0,
                "time": 72
            },
            {
                "type": "note_on",
                "note": 50,
                "velocity": 89,
                "time": 22
            },
            {
                "type": "note_on",
                "note": 50,
                "velocity": 0,
                "time": 188
            },
            {
                "type": "note_on",
                "note": 50,
                "velocity": 90,
                "time": 14
            },
            {
                "type": "note_on",
                "note": 50,
                "velocity": 0,
                "time": 24
            },
            {
                "type": "note_on",
                "note": 50,
                "velocity": 88,
                "time": 12
            },
            {
                "type": "note_on",
                "note": 50,
                "velocity": 0,
                "time": 56
            },
            {
                "type": "note_on",
                "note": 48,
                "velocity": 91,
                "time": 0
            },
            {
                "type": "note_on",
                "note": 48,
                "velocity": 0,
                "time": 30
            },
            {
                "type": "note_on",
                "note": 44,
                "velocity": 106,
                "time": 6
            },
            {
                "type": "note_on",
                "note": 43,
                "velocity": 107,
                "time": 46
            },
            {
                "type": "note_on",
                "note": 44,
                "velocity": 0,
                "time": 2
            },
            {
                "type": "note_on",
                "note": 42,
                "velocity": 104,
                "time": 48
            },
            {
                "type": "note_on",
                "note": 43,
                "velocity": 0,
                "time": 6
            },
            {
                "type": "note_on",
                "note": 42,
                "velocity": 0,
                "time": 38
            },
            {
                "type": "note_on",
                "note": 43,
                "velocity": 102,
                "time": 2
            },
            {
                "type": "note_on",
                "note": 43,
                "velocity": 0,
                "time": 50
            },
            {
                "type": "note_on",
                "note": 48,
                "velocity": 89,
                "time": 4
            },
            {
                "type": "note_on",
                "note": 55,
                "velocity": 98,
                "time": 2
            },
            {
                "type": "note_on",
                "note": 55,
                "velocity": 0,
                "time": 52
            },
            {
                "type": "note_on",
                "note": 48,
                "velocity": 0,
                "time": 8
            },
            {
                "type": "note_on",
                "note": 48,
                "velocity": 94,
                "time": 12
            },
            {
                "type": "note_on",
                "note": 46,
                "velocity": 91,
                "time": 48
            },
            {
                "type": "note_on",
                "note": 48,
                "velocity": 0,
                "time": 6
            },
            {
                "type": "note_on",
                "note": 46,
                "velocity": 0,
                "time": 40
            },
            {
                "type": "note_on",
                "note": 43,
                "velocity": 98,
                "time": 0
            },
            {
                "type": "note_on",
                "note": 41,
                "velocity": 91,
                "time": 48
            },
            {
                "type": "note_on",
                "note": 43,
                "velocity": 0,
                "time": 34
            },
            {
                "type": "note_on",
                "note": 41,
                "velocity": 0,
                "time": 6
            },
            {
                "type": "note_on",
                "note": 53,
                "velocity": 105,
                "time": 20
            },
            {
                "type": "note_on",
                "note": 53,
                "velocity": 0,
                "time": 30
            },
            {
                "type": "note_on",
                "note": 52,
                "velocity": 102,
                "time": 12
            },
            {
                "type": "note_on",
                "note": 52,
                "velocity": 0,
                "time": 92
            },
            {
                "type": "note_on",
                "note": 51,
                "velocity": 103,
                "time": 10
            },
            {
                "type": "note_on",
                "note": 50,
                "velocity": 100,
                "time": 6
            },
            {
                "type": "note_on",
                "note": 51,
                "velocity": 0,
                "time": 2
            },
            {
                "type": "note_on",
                "note": 50,
                "velocity": 0,
                "time": 176
            },
            {
                "type": "note_on",
                "note": 49,
                "velocity": 107,
                "time": 18
            },
            {
                "type": "note_on",
                "note": 49,
                "velocity": 0,
                "time": 24
            },
            {
                "type": "note_on",
                "note": 49,
                "velocity": 105,
                "time": 2
            },
            {
                "type": "note_on",
                "note": 49,
                "velocity": 0,
                "time": 54
            },
            {
                "type": "note_on",
                "note": 48,
                "velocity": 102,
                "time": 8
            },
            {
                "type": "note_on",
                "note": 48,
                "velocity": 0,
                "time": 50
            },
            {
                "type": "note_on",
                "note": 47,
                "velocity": 110,
                "time": 26
            },
            {
                "type": "note_on",
                "note": 47,
                "velocity": 0,
                "time": 174
            },
            {
                "type": "note_on",
                "note": 46,
                "velocity": 103,
                "time": 18
            },
            {
                "type": "note_on",
                "note": 45,
                "velocity": 105,
                "time": 190
            },
            {
                "type": "note_on",
                "note": 46,
                "velocity": 0,
                "time": 2
            },
            {
                "type": "note_on",
                "note": 45,
                "velocity": 0,
                "time": 74
            },
            {
                "type": "note_on",
                "note": 58,
                "velocity": 85,
                "time": 6
            },
            {
                "type": "note_on",
                "note": 46,
                "velocity": 92,
                "time": 2
            },
            {
                "type": "note_on",
                "note": 53,
                "velocity": 84,
                "time": 2
            },
            {
                "type": "note_on",
                "note": 58,
                "velocity": 0,
                "time": 2796
            },
            {
                "type": "note_on",
                "note": 53,
                "velocity": 0,
                "time": 4
            },
            {
                "type": "note_on",
                "note": 46,
                "velocity": 0,
                "time": 0
            },
            {
                "type": "note_on",
                "note": 46,
                "velocity": 67,
                "time": 72
            },
            {
                "type": "note_on",
                "note": 53,
                "velocity": 83,
                "time": 0
            },
            {
                "type": "note_on",
                "note": 58,
                "velocity": 87,
                "time": 0
            },
            {
                "type": "note_on",
                "note": 53,
                "velocity": 0,
                "time": 24
            },
            {
                "type": "note_on",
                "note": 46,
                "velocity": 0,
                "time": 12
            },
            {
                "type": "note_on",
                "note": 58,
                "velocity": 0,
                "time": 6
            },
            {
                "type": "note_on",
                "note": 58,
                "velocity": 70,
                "time": 16
            },
            {
                "type": "note_on",
                "note": 53,
                "velocity": 73,
                "time": 6
            },
            {
                "type": "note_on",
                "note": 46,
                "velocity": 54,
                "time": 2
            },
            {
                "type": "note_on",
                "note": 58,
                "velocity": 0,
                "time": 20
            },
            {
                "type": "note_on",
                "note": 46,
                "velocity": 0,
                "time": 2
            },
            {
                "type": "note_on",
                "note": 53,
                "velocity": 0,
                "time": 2
            },
            {
                "type": "note_on",
                "note": 46,
                "velocity": 58,
                "time": 12
            },
            {
                "type": "note_on",
                "note": 58,
                "velocity": 79,
                "time": 0
            },
            {
                "type": "note_on",
                "note": 53,
                "velocity": 78,
                "time": 8
            },
            {
                "type": "note_on",
                "note": 58,
                "velocity": 0,
                "time": 12
            },
            {
                "type": "note_on",
                "note": 46,
                "velocity": 0,
                "time": 6
            },
            {
                "type": "note_on",
                "note": 53,
                "velocity": 0,
                "time": 6
            },
            {
                "type": "note_on",
                "note": 51,
                "velocity": 91,
                "time": 16
            },
            {
                "type": "note_on",
                "note": 51,
                "velocity": 0,
                "time": 156
            },
            {
                "type": "note_on",
                "note": 43,
                "velocity": 80,
                "time": 4
            },
            {
                "type": "note_on",
                "note": 44,
                "velocity": 82,
                "time": 200
            },
            {
                "type": "note_on",
                "note": 43,
                "velocity": 0,
                "time": 16
            },
            {
                "type": "note_on",
                "note": 46,
                "velocity": 78,
                "time": 156
            },
            {
                "type": "note_on",
                "note": 44,
                "velocity": 0,
                "time": 2
            },
            {
                "type": "note_on",
                "note": 46,
                "velocity": 0,
                "time": 176
            },
            {
                "type": "note_on",
                "note": 48,
                "velocity": 68,
                "time": 6
            },
            {
                "type": "note_on",
                "note": 48,
                "velocity": 0,
                "time": 98
            },
            {
                "type": "note_on",
                "note": 50,
                "velocity": 68,
                "time": 0
            },
            {
                "type": "note_on",
                "note": 50,
                "velocity": 0,
                "time": 50
            },
            {
                "type": "note_on",
                "note": 50,
                "velocity": 68,
                "time": 30
            },
            {
                "type": "note_on",
                "note": 51,
                "velocity": 68,
                "time": 86
            },
            {
                "type": "note_on",
                "note": 50,
                "velocity": 0,
                "time": 2
            },
            {
                "type": "note_on",
                "note": 51,
                "velocity": 0,
                "time": 98
            },
            {
                "type": "note_on",
                "note": 51,
                "velocity": 87,
                "time": 34
            },
            {
                "type": "note_on",
                "note": 51,
                "velocity": 0,
                "time": 188
            },
            {
                "type": "note_on",
                "note": 43,
                "velocity": 79,
                "time": 4
            },
            {
                "type": "note_on",
                "note": 44,
                "velocity": 62,
                "time": 8
            },
            {
                "type": "note_on",
                "note": 43,
                "velocity": 0,
                "time": 28
            },
            {
                "type": "note_on",
                "note": 46,
                "velocity": 66,
                "time": 66
            },
            {
                "type": "note_on",
                "note": 44,
                "velocity": 0,
                "time": 2
            },
            {
                "type": "note_on",
                "note": 46,
                "velocity": 0,
                "time": 64
            },
            {
                "type": "note_on",
                "note": 46,
                "velocity": 84,
                "time": 30
            },
            {
                "type": "note_on",
                "note": 46,
                "velocity": 0,
                "time": 84
            },
            {
                "type": "note_on",
                "note": 48,
                "velocity": 75,
                "time": 0
            },
            {
                "type": "note_on",
                "note": 46,
                "velocity": 75,
                "time": 92
            },
            {
                "type": "note_on",
                "note": 48,
                "velocity": 0,
                "time": 6
            },
            {
                "type": "note_on",
                "note": 46,
                "velocity": 0,
                "time": 62
            },
            {
                "type": "note_on",
                "note": 51,
                "velocity": 101,
                "time": 0
            },
            {
                "type": "note_on",
                "note": 51,
                "velocity": 0,
                "time": 200
            },
            {
                "type": "note_on",
                "note": 43,
                "velocity": 90,
                "time": 6
            },
            {
                "type": "note_on",
                "note": 44,
                "velocity": 91,
                "time": 202
            },
            {
                "type": "note_on",
                "note": 43,
                "velocity": 0,
                "time": 20
            },
            {
                "type": "note_on",
                "note": 44,
                "velocity": 0,
                "time": 162
            },
            {
                "type": "note_on",
                "note": 46,
                "velocity": 93,
                "time": 0
            },
            {
                "type": "note_on",
                "note": 46,
                "velocity": 0,
                "time": 182
            },
            {
                "type": "note_on",
                "note": 48,
                "velocity": 75,
                "time": 2
            },
            {
                "type": "note_on",
                "note": 50,
                "velocity": 84,
                "time": 106
            },
            {
                "type": "note_on",
                "note": 48,
                "velocity": 0,
                "time": 12
            },
            {
                "type": "note_on",
                "note": 51,
                "velocity": 99,
                "time": 80
            },
            {
                "type": "note_on",
                "note": 50,
                "velocity": 0,
                "time": 10
            },
            {
                "type": "note_on",
                "note": 51,
                "velocity": 0,
                "time": 4
            },
            {
                "type": "note_on",
                "note": 53,
                "velocity": 85,
                "time": 2
            },
            {
                "type": "note_on",
                "note": 45,
                "velocity": 78,
                "time": 194
            },
            {
                "type": "note_on",
                "note": 53,
                "velocity": 0,
                "time": 4
            },
            {
                "type": "note_on",
                "note": 46,
                "velocity": 84,
                "time": 204
            },
            {
                "type": "note_on",
                "note": 45,
                "velocity": 0,
                "time": 22
            },
            {
                "type": "note_on",
                "note": 46,
                "velocity": 0,
                "time": 156
            },
            {
                "type": "note_on",
                "note": 48,
                "velocity": 91,
                "time": 2
            },
            {
                "type": "note_on",
                "note": 48,
                "velocity": 0,
                "time": 90
            },
            {
                "type": "note_on",
                "note": 50,
                "velocity": 84,
                "time": 2
            },
            {
                "type": "note_on",
                "note": 48,
                "velocity": 94,
                "time": 102
            },
            {
                "type": "note_on",
                "note": 50,
                "velocity": 0,
                "time": 8
            },
            {
                "type": "note_on",
                "note": 48,
                "velocity": 0,
                "time": 56
            },
            {
                "type": "note_on",
                "note": 46,
                "velocity": 77,
                "time": 0
            },
            {
                "type": "note_on",
                "note": 46,
                "velocity": 0,
                "time": 38
            },
            {
                "type": "note_on",
                "note": 46,
                "velocity": 67,
                "time": 72
            },
            {
                "type": "note_on",
                "note": 53,
                "velocity": 49,
                "time": 6
            },
            {
                "type": "note_on",
                "note": 58,
                "velocity": 68,
                "time": 0
            },
            {
                "type": "note_on",
                "note": 53,
                "velocity": 0,
                "time": 1652
            },
            {
                "type": "note_on",
                "note": 46,
                "velocity": 0,
                "time": 10
            },
            {
                "type": "note_on",
                "note": 58,
                "velocity": 0,
                "time": 4
            },
            {
                "type": "note_on",
                "note": 51,
                "velocity": 85,
                "time": 34
            },
            {
                "type": "note_on",
                "note": 51,
                "velocity": 0,
                "time": 156
            },
            {
                "type": "note_on",
                "note": 51,
                "velocity": 84,
                "time": 50
            },
            {
                "type": "note_on",
                "note": 51,
                "velocity": 0,
                "time": 90
            },
            {
                "type": "note_on",
                "note": 55,
                "velocity": 88,
                "time": 6
            },
            {
                "type": "note_on",
                "note": 51,
                "velocity": 89,
                "time": 88
            },
            {
                "type": "note_on",
                "note": 55,
                "velocity": 0,
                "time": 10
            },
            {
                "type": "note_on",
                "note": 51,
                "velocity": 0,
                "time": 102
            },
            {
                "type": "note_on",
                "note": 46,
                "velocity": 68,
                "time": 86
            },
            {
                "type": "note_on",
                "note": 58,
                "velocity": 75,
                "time": 0
            },
            {
                "type": "note_on",
                "note": 53,
                "velocity": 62,
                "time": 2
            },
            {
                "type": "note_on",
                "note": 58,
                "velocity": 0,
                "time": 4
            },
            {
                "type": "note_on",
                "note": 46,
                "velocity": 0,
                "time": 12
            },
            {
                "type": "note_on",
                "note": 53,
                "velocity": 0,
                "time": 2
            },
            {
                "type": "note_on",
                "note": 58,
                "velocity": 104,
                "time": 2
            },
            {
                "type": "note_on",
                "note": 56,
                "velocity": 91,
                "time": 202
            },
            {
                "type": "note_on",
                "note": 58,
                "velocity": 0,
                "time": 2
            },
            {
                "type": "note_on",
                "note": 56,
                "velocity": 0,
                "time": 82
            },
            {
                "type": "note_on",
                "note": 58,
                "velocity": 111,
                "time": 14
            },
            {
                "type": "note_on",
                "note": 58,
                "velocity": 0,
                "time": 74
            },
            {
                "type": "note_on",
                "note": 53,
                "velocity": 101,
                "time": 2
            },
            {
                "type": "note_on",
                "note": 53,
                "velocity": 0,
                "time": 76
            },
            {
                "type": "note_on",
                "note": 49,
                "velocity": 110,
                "time": 48
            },
            {
                "type": "note_on",
                "note": 49,
                "velocity": 0,
                "time": 176
            },
            {
                "type": "note_on",
                "note": 61,
                "velocity": 116,
                "time": 8
            },
            {
                "type": "note_on",
                "note": 61,
                "velocity": 0,
                "time": 172
            },
            {
                "type": "note_on",
                "note": 46,
                "velocity": 76,
                "time": 2
            },
            {
                "type": "note_on",
                "note": 58,
                "velocity": 71,
                "time": 4
            },
            {
                "type": "note_on",
                "note": 53,
                "velocity": 67,
                "time": 0
            },
            {
                "type": "note_on",
                "note": 53,
                "velocity": 0,
                "time": 6
            },
            {
                "type": "note_on",
                "note": 58,
                "velocity": 0,
                "time": 4
            },
            {
                "type": "note_on",
                "note": 46,
                "velocity": 0,
                "time": 4
            },
            {
                "type": "note_on",
                "note": 46,
                "velocity": 68,
                "time": 2
            },
            {
                "type": "note_on",
                "note": 58,
                "velocity": 61,
                "time": 2
            },
            {
                "type": "note_on",
                "note": 53,
                "velocity": 58,
                "time": 2
            },
            {
                "type": "note_on",
                "note": 58,
                "velocity": 0,
                "time": 496
            },
            {
                "type": "note_on",
                "note": 46,
                "velocity": 0,
                "time": 0
            },
            {
                "type": "note_on",
                "note": 53,
                "velocity": 0,
                "time": 4
            },
            {
                "type": "note_on",
                "note": 58,
                "velocity": 82,
                "time": 58
            },
            {
                "type": "note_on",
                "note": 51,
                "velocity": 84,
                "time": 4
            },
            {
                "type": "note_on",
                "note": 51,
                "velocity": 0,
                "time": 166
            },
            {
                "type": "note_on",
                "note": 58,
                "velocity": 0,
                "time": 4
            },
            {
                "type": "note_on",
                "note": 58,
                "velocity": 82,
                "time": 30
            },
            {
                "type": "note_on",
                "note": 51,
                "velocity": 78,
                "time": 4
            },
            {
                "type": "note_on",
                "note": 58,
                "velocity": 0,
                "time": 162
            },
            {
                "type": "note_on",
                "note": 51,
                "velocity": 0,
                "time": 10
            },
            {
                "type": "note_on",
                "note": 58,
                "velocity": 82,
                "time": 40
            },
            {
                "type": "note_on",
                "note": 51,
                "velocity": 84,
                "time": 2
            },
            {
                "type": "note_on",
                "note": 51,
                "velocity": 0,
                "time": 114
            },
            {
                "type": "note_on",
                "note": 58,
                "velocity": 0,
                "time": 4
            },
            {
                "type": "note_on",
                "note": 44,
                "velocity": 78,
                "time": 40
            },
            {
                "type": "note_on",
                "note": 51,
                "velocity": 97,
                "time": 2
            },
            {
                "type": "note_on",
                "note": 44,
                "velocity": 0,
                "time": 742
            },
            {
                "type": "note_on",
                "note": 51,
                "velocity": 0,
                "time": 10
            },
            {
                "type": "note_on",
                "note": 44,
                "velocity": 73,
                "time": 18
            },
            {
                "type": "note_on",
                "note": 51,
                "velocity": 71,
                "time": 2
            },
            {
                "type": "note_on",
                "note": 44,
                "velocity": 0,
                "time": 144
            },
            {
                "type": "note_on",
                "note": 51,
                "velocity": 0,
                "time": 10
            },
            {
                "type": "note_on",
                "note": 43,
                "velocity": 75,
                "time": 28
            },
            {
                "type": "note_on",
                "note": 50,
                "velocity": 69,
                "time": 2
            },
            {
                "type": "note_on",
                "note": 43,
                "velocity": 0,
                "time": 132
            },
            {
                "type": "note_on",
                "note": 50,
                "velocity": 0,
                "time": 10
            },
            {
                "type": "note_on",
                "note": 41,
                "velocity": 72,
                "time": 66
            },
            {
                "type": "note_on",
                "note": 48,
                "velocity": 65,
                "time": 2
            },
            {
                "type": "note_on",
                "note": 48,
                "velocity": 0,
                "time": 1124
            },
            {
                "type": "note_on",
                "note": 41,
                "velocity": 0,
                "time": 24
            },
            {
                "type": "note_on",
                "note": 46,
                "velocity": 70,
                "time": 0
            },
            {
                "type": "note_on",
                "note": 53,
                "velocity": 63,
                "time": 2
            },
            {
                "type": "note_on",
                "note": 46,
                "velocity": 0,
                "time": 500
            },
            {
                "type": "note_on",
                "note": 53,
                "velocity": 0,
                "time": 8
            },
            {
                "type": "note_on",
                "note": 55,
                "velocity": 108,
                "time": 2
            },
            {
                "type": "note_on",
                "note": 53,
                "velocity": 102,
                "time": 126
            },
            {
                "type": "note_on",
                "note": 55,
                "velocity": 0,
                "time": 2
            },
            {
                "type": "note_on",
                "note": 53,
                "velocity": 0,
                "time": 176
            },
            {
                "type": "note_on",
                "note": 50,
                "velocity": 108,
                "time": 26
            },
            {
                "type": "note_on",
                "note": 50,
                "velocity": 0,
                "time": 68
            },
            {
                "type": "note_on",
                "note": 48,
                "velocity": 66,
                "time": 2
            },
            {
                "type": "note_on",
                "note": 41,
                "velocity": 63,
                "time": 2
            },
            {
                "type": "note_on",
                "note": 41,
                "velocity": 0,
                "time": 156
            },
            {
                "type": "note_on",
                "note": 48,
                "velocity": 0,
                "time": 2
            },
            {
                "type": "note_on",
                "note": 48,
                "velocity": 68,
                "time": 32
            },
            {
                "type": "note_on",
                "note": 41,
                "velocity": 63,
                "time": 0
            },
            {
                "type": "note_on",
                "note": 41,
                "velocity": 0,
                "time": 318
            },
            {
                "type": "note_on",
                "note": 48,
                "velocity": 0,
                "time": 6
            },
            {
                "type": "note_on",
                "note": 48,
                "velocity": 74,
                "time": 50
            },
            {
                "type": "note_on",
                "note": 41,
                "velocity": 66,
                "time": 2
            },
            {
                "type": "note_on",
                "note": 41,
                "velocity": 0,
                "time": 160
            },
            {
                "type": "note_on",
                "note": 48,
                "velocity": 0,
                "time": 2
            },
            {
                "type": "note_on",
                "note": 48,
                "velocity": 74,
                "time": 36
            },
            {
                "type": "note_on",
                "note": 41,
                "velocity": 71,
                "time": 2
            },
            {
                "type": "note_on",
                "note": 41,
                "velocity": 0,
                "time": 292
            },
            {
                "type": "note_on",
                "note": 48,
                "velocity": 0,
                "time": 20
            },
            {
                "type": "note_on",
                "note": 46,
                "velocity": 71,
                "time": 42
            },
            {
                "type": "note_on",
                "note": 53,
                "velocity": 77,
                "time": 2
            },
            {
                "type": "note_on",
                "note": 46,
                "velocity": 0,
                "time": 432
            },
            {
                "type": "note_on",
                "note": 53,
                "velocity": 0,
                "time": 22
            },
            {
                "type": "note_on",
                "note": 46,
                "velocity": 85,
                "time": 26
            },
            {
                "type": "note_on",
                "note": 46,
                "velocity": 0,
                "time": 72
            },
            {
                "type": "note_on",
                "note": 50,
                "velocity": 102,
                "time": 2
            },
            {
                "type": "note_on",
                "note": 50,
                "velocity": 0,
                "time": 116
            },
            {
                "type": "note_on",
                "note": 53,
                "velocity": 99,
                "time": 4
            },
            {
                "type": "note_on",
                "note": 53,
                "velocity": 0,
                "time": 66
            },
            {
                "type": "note_on",
                "note": 55,
                "velocity": 113,
                "time": 40
            },
            {
                "type": "note_on",
                "note": 55,
                "velocity": 0,
                "time": 64
            },
            {
                "type": "note_on",
                "note": 48,
                "velocity": 66,
                "time": 2
            },
            {
                "type": "note_on",
                "note": 41,
                "velocity": 66,
                "time": 4
            },
            {
                "type": "note_on",
                "note": 41,
                "velocity": 0,
                "time": 156
            },
            {
                "type": "note_on",
                "note": 48,
                "velocity": 0,
                "time": 6
            },
            {
                "type": "note_on",
                "note": 41,
                "velocity": 75,
                "time": 28
            },
            {
                "type": "note_on",
                "note": 48,
                "velocity": 73,
                "time": 2
            },
            {
                "type": "note_on",
                "note": 41,
                "velocity": 0,
                "time": 332
            },
            {
                "type": "note_on",
                "note": 48,
                "velocity": 0,
                "time": 12
            },
            {
                "type": "note_on",
                "note": 53,
                "velocity": 72,
                "time": 16
            },
            {
                "type": "note_on",
                "note": 46,
                "velocity": 72,
                "time": 2
            },
            {
                "type": "note_on",
                "note": 53,
                "velocity": 0,
                "time": 170
            },
            {
                "type": "note_on",
                "note": 46,
                "velocity": 0,
                "time": 8
            },
            {
                "type": "note_on",
                "note": 46,
                "velocity": 69,
                "time": 22
            },
            {
                "type": "note_on",
                "note": 53,
                "velocity": 74,
                "time": 2
            },
            {
                "type": "note_on",
                "note": 53,
                "velocity": 0,
                "time": 316
            },
            {
                "type": "note_on",
                "note": 46,
                "velocity": 0,
                "time": 46
            },
            {
                "type": "note_on",
                "note": 48,
                "velocity": 68,
                "time": 20
            },
            {
                "type": "note_on",
                "note": 41,
                "velocity": 66,
                "time": 2
            },
            {
                "type": "note_on",
                "note": 41,
                "velocity": 0,
                "time": 164
            },
            {
                "type": "note_on",
                "note": 48,
                "velocity": 0,
                "time": 8
            },
            {
                "type": "note_on",
                "note": 41,
                "velocity": 64,
                "time": 26
            },
            {
                "type": "note_on",
                "note": 48,
                "velocity": 69,
                "time": 2
            },
            {
                "type": "note_on",
                "note": 41,
                "velocity": 0,
                "time": 320
            },
            {
                "type": "note_on",
                "note": 48,
                "velocity": 0,
                "time": 8
            },
            {
                "type": "note_on",
                "note": 53,
                "velocity": 67,
                "time": 20
            },
            {
                "type": "note_on",
                "note": 46,
                "velocity": 66,
                "time": 0
            },
            {
                "type": "note_on",
                "note": 53,
                "velocity": 0,
                "time": 548
            },
            {
                "type": "note_on",
                "note": 46,
                "velocity": 0,
                "time": 42
            },
            {
                "type": "note_on",
                "note": 51,
                "velocity": 91,
                "time": 12
            },
            {
                "type": "note_on",
                "note": 43,
                "velocity": 91,
                "time": 16
            },
            {
                "type": "note_on",
                "note": 51,
                "velocity": 0,
                "time": 4
            },
            {
                "type": "note_on",
                "note": 43,
                "velocity": 0,
                "time": 186
            },
            {
                "type": "note_on",
                "note": 44,
                "velocity": 89,
                "time": 2
            },
            {
                "type": "note_on",
                "note": 46,
                "velocity": 101,
                "time": 186
            },
            {
                "type": "note_on",
                "note": 44,
                "velocity": 0,
                "time": 4
            },
            {
                "type": "note_on",
                "note": 46,
                "velocity": 0,
                "time": 164
            },
            {
                "type": "note_on",
                "note": 48,
                "velocity": 80,
                "time": 4
            },
            {
                "type": "note_on",
                "note": 50,
                "velocity": 80,
                "time": 108
            },
            {
                "type": "note_on",
                "note": 48,
                "velocity": 0,
                "time": 4
            },
            {
                "type": "note_on",
                "note": 51,
                "velocity": 91,
                "time": 80
            },
            {
                "type": "note_on",
                "note": 50,
                "velocity": 0,
                "time": 4
            },
            {
                "type": "note_on",
                "note": 51,
                "velocity": 0,
                "time": 118
            },
            {
                "type": "note_on",
                "note": 51,
                "velocity": 104,
                "time": 72
            },
            {
                "type": "note_on",
                "note": 43,
                "velocity": 92,
                "time": 16
            },
            {
                "type": "note_on",
                "note": 51,
                "velocity": 0,
                "time": 26
            },
            {
                "type": "note_on",
                "note": 44,
                "velocity": 101,
                "time": 190
            },
            {
                "type": "note_on",
                "note": 43,
                "velocity": 0,
                "time": 18
            },
            {
                "type": "note_on",
                "note": 44,
                "velocity": 0,
                "time": 168
            },
            {
                "type": "note_on",
                "note": 46,
                "velocity": 84,
                "time": 0
            },
            {
                "type": "note_on",
                "note": 48,
                "velocity": 87,
                "time": 92
            },
            {
                "type": "note_on",
                "note": 46,
                "velocity": 0,
                "time": 4
            },
            {
                "type": "note_on",
                "note": 46,
                "velocity": 81,
                "time": 90
            },
            {
                "type": "note_on",
                "note": 48,
                "velocity": 0,
                "time": 2
            },
            {
                "type": "note_on",
                "note": 46,
                "velocity": 0,
                "time": 56
            },
            {
                "type": "note_on",
                "note": 51,
                "velocity": 93,
                "time": 20
            },
            {
                "type": "note_on",
                "note": 51,
                "velocity": 0,
                "time": 194
            },
            {
                "type": "note_on",
                "note": 43,
                "velocity": 92,
                "time": 2
            },
            {
                "type": "note_on",
                "note": 44,
                "velocity": 93,
                "time": 202
            },
            {
                "type": "note_on",
                "note": 43,
                "velocity": 0,
                "time": 16
            },
            {
                "type": "note_on",
                "note": 46,
                "velocity": 89,
                "time": 162
            },
            {
                "type": "note_on",
                "note": 44,
                "velocity": 0,
                "time": 6
            },
            {
                "type": "note_on",
                "note": 46,
                "velocity": 0,
                "time": 170
            },
            {
                "type": "note_on",
                "note": 48,
                "velocity": 78,
                "time": 14
            },
            {
                "type": "note_on",
                "note": 50,
                "velocity": 86,
                "time": 94
            },
            {
                "type": "note_on",
                "note": 48,
                "velocity": 0,
                "time": 22
            },
            {
                "type": "note_on",
                "note": 51,
                "velocity": 85,
                "time": 76
            },
            {
                "type": "note_on",
                "note": 50,
                "velocity": 0,
                "time": 8
            },
            {
                "type": "note_on",
                "note": 51,
                "velocity": 0,
                "time": 6
            },
            {
                "type": "note_on",
                "note": 53,
                "velocity": 88,
                "time": 26
            },
            {
                "type": "note_on",
                "note": 53,
                "velocity": 0,
                "time": 200
            },
            {
                "type": "note_on",
                "note": 45,
                "velocity": 85,
                "time": 0
            },
            {
                "type": "note_on",
                "note": 46,
                "velocity": 85,
                "time": 198
            },
            {
                "type": "note_on",
                "note": 45,
                "velocity": 0,
                "time": 12
            },
            {
                "type": "note_on",
                "note": 46,
                "velocity": 0,
                "time": 164
            },
            {
                "type": "note_on",
                "note": 48,
                "velocity": 81,
                "time": 0
            },
            {
                "type": "note_on",
                "note": 50,
                "velocity": 88,
                "time": 194
            },
            {
                "type": "note_on",
                "note": 48,
                "velocity": 0,
                "time": 8
            },
            {
                "type": "note_on",
                "note": 52,
                "velocity": 95,
                "time": 106
            },
            {
                "type": "note_on",
                "note": 50,
                "velocity": 0,
                "time": 8
            },
            {
                "type": "note_on",
                "note": 53,
                "velocity": 88,
                "time": 68
            },
            {
                "type": "note_on",
                "note": 52,
                "velocity": 0,
                "time": 4
            },
            {
                "type": "note_on",
                "note": 53,
                "velocity": 0,
                "time": 10
            },
            {
                "type": "note_on",
                "note": 54,
                "velocity": 97,
                "time": 30
            },
            {
                "type": "note_on",
                "note": 56,
                "velocity": 82,
                "time": 80
            },
            {
                "type": "note_on",
                "note": 54,
                "velocity": 0,
                "time": 14
            },
            {
                "type": "note_on",
                "note": 56,
                "velocity": 0,
                "time": 68
            },
            {
                "type": "note_on",
                "note": 58,
                "velocity": 107,
                "time": 6
            },
            {
                "type": "note_on",
                "note": 58,
                "velocity": 0,
                "time": 4
            },
            {
                "type": "note_on",
                "note": 56,
                "velocity": 99,
                "time": 0
            },
            {
                "type": "note_on",
                "note": 58,
                "velocity": 113,
                "time": 98
            },
            {
                "type": "note_on",
                "note": 56,
                "velocity": 0,
                "time": 6
            },
            {
                "type": "note_on",
                "note": 58,
                "velocity": 0,
                "time": 78
            },
            {
                "type": "note_on",
                "note": 60,
                "velocity": 104,
                "time": 10
            },
            {
                "type": "note_on",
                "note": 58,
                "velocity": 95,
                "time": 14
            },
            {
                "type": "note_on",
                "note": 60,
                "velocity": 0,
                "time": 4
            },
            {
                "type": "note_on",
                "note": 60,
                "velocity": 97,
                "time": 90
            },
            {
                "type": "note_on",
                "note": 58,
                "velocity": 0,
                "time": 2
            },
            {
                "type": "note_on",
                "note": 60,
                "velocity": 0,
                "time": 82
            },
            {
                "type": "note_on",
                "note": 61,
                "velocity": 93,
                "time": 12
            },
            {
                "type": "note_on",
                "note": 61,
                "velocity": 0,
                "time": 74
            },
            {
                "type": "note_on",
                "note": 51,
                "velocity": 97,
                "time": 2
            },
            {
                "type": "note_on",
                "note": 51,
                "velocity": 0,
                "time": 82
            },
            {
                "type": "note_on",
                "note": 52,
                "velocity": 104,
                "time": 12
            },
            {
                "type": "note_on",
                "note": 52,
                "velocity": 0,
                "time": 86
            },
            {
                "type": "note_on",
                "note": 54,
                "velocity": 109,
                "time": 4
            },
            {
                "type": "note_on",
                "note": 54,
                "velocity": 0,
                "time": 88
            },
            {
                "type": "note_on",
                "note": 56,
                "velocity": 103,
                "time": 6
            },
            {
                "type": "note_on",
                "note": 56,
                "velocity": 0,
                "time": 84
            },
            {
                "type": "note_on",
                "note": 57,
                "velocity": 107,
                "time": 12
            },
            {
                "type": "note_on",
                "note": 57,
                "velocity": 0,
                "time": 78
            },
            {
                "type": "note_on",
                "note": 59,
                "velocity": 108,
                "time": 20
            },
            {
                "type": "note_on",
                "note": 59,
                "velocity": 0,
                "time": 72
            },
            {
                "type": "note_on",
                "note": 61,
                "velocity": 111,
                "time": 30
            },
            {
                "type": "note_on",
                "note": 61,
                "velocity": 0,
                "time": 90
            },
            {
                "type": "note_on",
                "note": 59,
                "velocity": 109,
                "time": 4
            },
            {
                "type": "note_on",
                "note": 59,
                "velocity": 0,
                "time": 84
            },
            {
                "type": "note_on",
                "note": 61,
                "velocity": 112,
                "time": 8
            },
            {
                "type": "note_on",
                "note": 61,
                "velocity": 0,
                "time": 90
            },
            {
                "type": "note_on",
                "note": 63,
                "velocity": 110,
                "time": 10
            },
            {
                "type": "note_on",
                "note": 63,
                "velocity": 0,
                "time": 78
            },
            {
                "type": "note_on",
                "note": 64,
                "velocity": 101,
                "time": 22
            },
            {
                "type": "note_on",
                "note": 64,
                "velocity": 0,
                "time": 86
            },
            {
                "type": "note_on",
                "note": 58,
                "velocity": 83,
                "time": 12
            },
            {
                "type": "note_on",
                "note": 58,
                "velocity": 0,
                "time": 88
            },
            {
                "type": "note_on",
                "note": 60,
                "velocity": 95,
                "time": 0
            },
            {
                "type": "note_on",
                "note": 60,
                "velocity": 0,
                "time": 92
            },
            {
                "type": "note_on",
                "note": 62,
                "velocity": 110,
                "time": 4
            },
            {
                "type": "note_on",
                "note": 62,
                "velocity": 0,
                "time": 88
            },
            {
                "type": "note_on",
                "note": 60,
                "velocity": 110,
                "time": 12
            },
            {
                "type": "note_on",
                "note": 60,
                "velocity": 0,
                "time": 98
            },
            {
                "type": "note_on",
                "note": 62,
                "velocity": 110,
                "time": 2
            },
            {
                "type": "note_on",
                "note": 62,
                "velocity": 0,
                "time": 78
            },
            {
                "type": "note_on",
                "note": 63,
                "velocity": 89,
                "time": 14
            },
            {
                "type": "note_on",
                "note": 63,
                "velocity": 0,
                "time": 88
            },
            {
                "type": "note_on",
                "note": 65,
                "velocity": 107,
                "time": 14
            },
            {
                "type": "note_on",
                "note": 65,
                "velocity": 0,
                "time": 84
            },
            {
                "type": "note_on",
                "note": 63,
                "velocity": 87,
                "time": 4
            },
            {
                "type": "note_on",
                "note": 63,
                "velocity": 0,
                "time": 96
            },
            {
                "type": "note_on",
                "note": 65,
                "velocity": 107,
                "time": 2
            },
            {
                "type": "note_on",
                "note": 65,
                "velocity": 0,
                "time": 98
            },
            {
                "type": "note_on",
                "note": 67,
                "velocity": 98,
                "time": 4
            },
            {
                "type": "note_on",
                "note": 67,
                "velocity": 0,
                "time": 72
            },
            {
                "type": "note_on",
                "note": 68,
                "velocity": 107,
                "time": 30
            },
            {
                "type": "note_on",
                "note": 68,
                "velocity": 0,
                "time": 84
            },
            {
                "type": "note_on",
                "note": 58,
                "velocity": 91,
                "time": 232
            },
            {
                "type": "note_on",
                "note": 63,
                "velocity": 104,
                "time": 48
            },
            {
                "type": "note_on",
                "note": 58,
                "velocity": 0,
                "time": 8
            },
            {
                "type": "note_on",
                "note": 67,
                "velocity": 107,
                "time": 40
            },
            {
                "type": "note_on",
                "note": 63,
                "velocity": 0,
                "time": 4
            },
            {
                "type": "note_on",
                "note": 70,
                "velocity": 107,
                "time": 44
            },
            {
                "type": "note_on",
                "note": 67,
                "velocity": 0,
                "time": 4
            },
            {
                "type": "note_on",
                "note": 70,
                "velocity": 0,
                "time": 54
            },
            {
                "type": "note_on",
                "note": 60,
                "velocity": 90,
                "time": 48
            },
            {
                "type": "note_on",
                "note": 63,
                "velocity": 105,
                "time": 44
            },
            {
                "type": "note_on",
                "note": 60,
                "velocity": 0,
                "time": 6
            },
            {
                "type": "note_on",
                "note": 67,
                "velocity": 99,
                "time": 38
            },
            {
                "type": "note_on",
                "note": 63,
                "velocity": 0,
                "time": 6
            },
            {
                "type": "note_on",
                "note": 67,
                "velocity": 0,
                "time": 46
            },
            {
                "type": "note_on",
                "note": 70,
                "velocity": 107,
                "time": 0
            },
            {
                "type": "note_on",
                "note": 70,
                "velocity": 0,
                "time": 2
            },
            {
                "type": "note_on",
                "note": 62,
                "velocity": 83,
                "time": 2
            },
            {
                "type": "note_on",
                "note": 63,
                "velocity": 84,
                "time": 16
            },
            {
                "type": "note_on",
                "note": 62,
                "velocity": 0,
                "time": 2
            },
            {
                "type": "note_on",
                "note": 63,
                "velocity": 0,
                "time": 10
            },
            {
                "type": "note_on",
                "note": 62,
                "velocity": 82,
                "time": 6
            },
            {
                "type": "note_on",
                "note": 65,
                "velocity": 80,
                "time": 60
            },
            {
                "type": "note_on",
                "note": 62,
                "velocity": 0,
                "time": 10
            },
            {
                "type": "note_on",
                "note": 65,
                "velocity": 0,
                "time": 22
            },
            {
                "type": "note_on",
                "note": 63,
                "velocity": 81,
                "time": 18
            },
            {
                "type": "note_on",
                "note": 63,
                "velocity": 0,
                "time": 10
            },
            {
                "type": "note_on",
                "note": 65,
                "velocity": 91,
                "time": 4
            },
            {
                "type": "note_on",
                "note": 65,
                "velocity": 0,
                "time": 18
            },
            {
                "type": "note_on",
                "note": 67,
                "velocity": 80,
                "time": 0
            },
            {
                "type": "note_on",
                "note": 68,
                "velocity": 72,
                "time": 26
            },
            {
                "type": "note_on",
                "note": 67,
                "velocity": 0,
                "time": 2
            },
            {
                "type": "note_on",
                "note": 68,
                "velocity": 0,
                "time": 26
            },
            {
                "type": "note_on",
                "note": 67,
                "velocity": 82,
                "time": 4
            },
            {
                "type": "note_on",
                "note": 67,
                "velocity": 0,
                "time": 14
            },
            {
                "type": "note_on",
                "note": 69,
                "velocity": 85,
                "time": 0
            },
            {
                "type": "note_on",
                "note": 70,
                "velocity": 82,
                "time": 22
            },
            {
                "type": "note_on",
                "note": 69,
                "velocity": 0,
                "time": 4
            },
            {
                "type": "note_on",
                "note": 70,
                "velocity": 0,
                "time": 28
            },
            {
                "type": "note_on",
                "note": 69,
                "velocity": 83,
                "time": 2
            },
            {
                "type": "note_on",
                "note": 69,
                "velocity": 0,
                "time": 8
            },
            {
                "type": "note_on",
                "note": 62,
                "velocity": 70,
                "time": 2
            },
            {
                "type": "note_on",
                "note": 62,
                "velocity": 0,
                "time": 16
            },
            {
                "type": "note_on",
                "note": 62,
                "velocity": 59,
                "time": 10
            },
            {
                "type": "note_on",
                "note": 62,
                "velocity": 0,
                "time": 210
            }
        ]
    }
]